<svg xmlns="http://www.w3.org/2000/svg" width="65.923" height="65.892" viewBox="0 0 65.923 65.892">
  <g id="Grupo_988047" data-name="Grupo 988047" transform="translate(-892.748 -29.061)">
    <path id="Trazado_646087" data-name="Trazado 646087" d="M941.355,94.85l1.033-4.2c-2.457,0-4.846.022-7.234-.007a4.239,4.239,0,0,1-1.611-8.117,4.471,4.471,0,0,1,1.869-.373c1.745.007,3.491,0,5.3,0a11.978,11.978,0,0,1-1.1-3.341,9.434,9.434,0,0,1,.459-4.634c.133-.374.078-.533-.254-.729a13.05,13.05,0,0,1-3.984-3.646.778.778,0,0,0-.753-.4,11.545,11.545,0,0,1-1.526,0c-.369-.024-.45.121-.429.451.024.4.013.8,0,1.194a2.48,2.48,0,0,1-1.573,2.4,2.43,2.43,0,0,1-2.811-.552c-1.005-.965-2-1.942-2.952-2.961a1.561,1.561,0,0,0-1.329-.531c-.95.035-1.9.014-2.855.009a3.185,3.185,0,0,1-3.351-3.321q-.012-4.115,0-8.23a3.187,3.187,0,0,1,3.355-3.318c.33,0,.747.094.965-.068s-.093-.552-.076-.86a2.2,2.2,0,0,0-.054-1.1c-.159-.279-.642-.049-.98-.157a3.228,3.228,0,0,1-1.346-.809q-1.5-1.505-3.006-3a2.879,2.879,0,0,0-1.916-.368c-.175.072-.129.207-.137.327a6.243,6.243,0,0,1-1.208,3.382.575.575,0,0,0-.009.709,21.026,21.026,0,0,1,2.3,9.9c-.005.41-.071.592-.531.555-.5-.04-1.137-.171-1.481.069-.275.193-.168.892-.29,1.351a6.258,6.258,0,0,1-4.627,4.721c-.427.118-.5.284-.537.7a2.18,2.18,0,0,0,.865,2.1,8.44,8.44,0,0,1,2.159,2.747c.263.5.423.383.72.072q.893-.936,1.828-1.833a4.813,4.813,0,1,1,6.837,6.775c-4.343,4.387-8.695,8.767-13.1,13.087a6.648,6.648,0,0,1-7.71,1.472,6.755,6.755,0,0,1-4.315-6.565c-.043-3.273-.032-6.548,0-9.822a11.528,11.528,0,0,1,3.983-8.778.949.949,0,0,0-.011-1.63c-1.23-1.046-2.446-2.109-3.692-3.137a9.408,9.408,0,0,1-3.4-8.868,12.627,12.627,0,0,1,6.029-9.649.574.574,0,0,0,.3-.579q-.03-6.537-.017-13.074a3.138,3.138,0,0,1,3.182-3.148q13.279-.016,26.558,0a3.15,3.15,0,0,1,3.183,3.216c.016,2.279.019,4.557-.008,6.836-.006.472.122.574.582.573,5.356-.018,10.712-.012,16.068-.011a3.217,3.217,0,0,1,3.548,3.525,8.475,8.475,0,0,0,.044,2.244c.208.726,1.117.909,1.676,1.389a12.4,12.4,0,0,1,4.628,9.53c.057,3.6.152,7.211-.088,10.813a29.2,29.2,0,0,1-1.791,8.186,3.6,3.6,0,0,0-.223,1.289c.01,2.433-.011,4.867.01,7.3a6.385,6.385,0,0,1-1.771,4.7.788.788,0,0,0-.173.784q.419,2.551,1.08,5.05c.088.332.031.414-.312.413q-6.937-.021-13.874-.023A.52.52,0,0,1,941.355,94.85ZM901.264,44.679a13.9,13.9,0,0,1,2.622-.618c3.07-.278,6.148-.089,9.222-.111a1.684,1.684,0,0,1,1.727,1.224c.213.916.721.966,1.436.885.24-.027.49.02.729-.01a1.21,1.21,0,0,1,1.1.442c1.105,1.147,2.242,2.264,3.375,3.384.206.2.374.538.767.35.338-.161.269-.472.27-.752,0-.974.024-1.948-.01-2.92-.014-.415.1-.514.512-.509,1.859.023,3.718.013,5.577.009.994,0,1.356-.364,1.357-1.361q0-6.073,0-12.146c0-1-.363-1.357-1.36-1.357q-12.98,0-25.961,0c-1,0-1.359.359-1.359,1.355q0,4.215,0,8.429Zm54.423,26.814a26.577,26.577,0,0,0,.809-6.14c.025-2.919.02-5.839.007-8.758a10.681,10.681,0,0,0-7.275-10,16.637,16.637,0,0,0-5.912-.52,8.322,8.322,0,0,0-7.909,7.2,45.682,45.682,0,0,0,.035,10.191,11.093,11.093,0,0,0,5.271,8.067c.371.244.608.235.867-.149a5.642,5.642,0,0,1,1.356-1.534,1.943,1.943,0,0,0,.838-1.984c-.035-.4-.09-.551-.541-.593a6.358,6.358,0,0,1-5.847-6.411c-.011-2.123-.015-4.246,0-6.37a4.192,4.192,0,0,1,3.282-4.062,14.252,14.252,0,0,1,3.174-.113,7.291,7.291,0,0,1,6.794,3.95.924.924,0,0,0,.512.462,3.268,3.268,0,0,1,1.628,4.913,6.838,6.838,0,0,1-1.19,1.332.78.78,0,0,0-.252.769q.4,2.349.787,4.7a.687.687,0,0,0,.231.458A12.061,12.061,0,0,1,955.687,71.493Zm-48.76,5.949c-.2-.157-.356-.275-.507-.4-1.9-1.584-3.822-3.154-5.7-4.767-.427-.366-.608-.271-.882.132a9.61,9.61,0,0,0-1.754,5.467c-.014,3.3-.027,6.592,0,9.888a4.714,4.714,0,0,0,3.061,4.621,4.654,4.654,0,0,0,5.378-1.074c3.312-3.259,6.574-6.568,9.876-9.836.347-.343.239-.506-.039-.777-1-.973-2-1.948-2.953-2.96-.364-.385-.56-.359-.922.006q-4.955,5-9.944,9.957c-.109.109-.223.215-.328.329-.129.139-.247.159-.387.011-.411-.432-1.025-.8-1.175-1.307-.109-.368.619-.714.945-1.1a1.846,1.846,0,0,1,.283-.28,1.2,1.2,0,0,0,.456-1.092c-.028-1.614-.011-3.23-.011-4.844,0-1.511,0-1.484,1.495-1.519.536-.013.656.151.643.658-.035,1.357-.012,2.716-.012,4.2,1.978-1.972,3.852-3.841,5.73-5.707a.361.361,0,0,0,.1-.467,8.767,8.767,0,0,0-1.675-2.47ZM900.76,65.455c.47-1.258.574-2.357-.662-3.145a.986.986,0,0,1-.21-.255,3.2,3.2,0,0,1,.759-4.843,3.128,3.128,0,0,0,1.513-1.911c.18-.475.359-.951.568-1.414a1.083,1.083,0,0,0-.03-1.051,3.184,3.184,0,0,1,2.313-4.624c1.442-.257,1.527-.153,1.583,1.281.027.674-.157.873-.83.827-.83-.057-1.313.387-1.31,1.057,0,.631.483,1.038,1.277,1.047,1.04.012,2.081.024,3.12,0a4.24,4.24,0,0,0,3.984-3.306,15.829,15.829,0,0,0,.122-2.511c.031-.435-.115-.56-.551-.556-2.1.021-4.2.016-6.306.006a11.884,11.884,0,0,0-2.507.2,10.689,10.689,0,0,0-8.664,9.577,7.243,7.243,0,0,0,1.717,5.993C897.877,63.16,899.377,64.2,900.76,65.455Zm49.372-20.774c0-.6.006-1.106,0-1.61-.012-.867-.392-1.26-1.254-1.261-5.441,0-10.882,0-16.323-.014-.444,0-.5.156-.489.531.024.862.015,1.724.006,2.586a3.183,3.183,0,0,1-3.274,3.263c-1.216.01-2.433.018-3.649-.007-.391-.008-.531.069-.523.5.03,1.525.007,3.051.013,4.576,0,.94.378,1.3,1.345,1.3,1.438,0,2.876.026,4.313-.012.549-.015.774.077.732.7-.065.969-.011,1.944-.021,2.917a.547.547,0,0,0,.318.593c.257.107.4-.078.576-.217a2.662,2.662,0,0,0,1.245-2.754,5.228,5.228,0,0,1-.011-1.059,10.628,10.628,0,0,1,10.8-10.79A16.68,16.68,0,0,1,950.132,44.681ZM910.419,66.2a5.239,5.239,0,0,1-3.04-1.648c-.825-.951-.822-.969.268-1.513a5.394,5.394,0,0,0,.531-.27c.274-.177.433-.15.636.146a2.834,2.834,0,0,0,2.452,1.2c.421.009.559-.163.572-.512.027-.751.054-1.5.04-2.253-.006-.348.09-.468.444-.443.418.03.841-.009,1.26.012.323.016.4-.072.367-.412a19.538,19.538,0,0,0-1.664-6.306c-.192-.429-.352-.623-.83-.317a4.049,4.049,0,0,1-1.557.533,24.265,24.265,0,0,1-4.634.081.58.58,0,0,0-.692.465c-.435,1.132-.9,2.253-1.34,3.382-.113.289-.232.492-.6.452a1.1,1.1,0,0,0-1.261.632,1.321,1.321,0,0,0,.371,1.508,13.233,13.233,0,0,0,1.225,1.213,1.175,1.175,0,0,1,.391,1.282c-.281,1.542-.525,3.091-.779,4.638-.033.2-.17.463.188.517a13.457,13.457,0,0,1,3.814,1.228V68.169c0-.871,0-.88.858-.873A4.228,4.228,0,0,0,910.419,66.2ZM954.38,77.353c0-.575.015-1.15,0-1.724a9.555,9.555,0,0,0-3.041-6.832.891.891,0,0,0-.81-.32,10.448,10.448,0,0,0-7.709,4.833,7.652,7.652,0,0,0,.238,8.55.635.635,0,0,0,.593.308c1.3-.012,2.609,0,3.914-.007.429,0,.6-.294.38-.661a2.191,2.191,0,0,0-.316-.338,5.949,5.949,0,0,1-1.069-6.976c.489-1,.489-1,1.477-.508.919.46.919.46.473,1.377a3.835,3.835,0,0,0,.7,4.684.886.886,0,0,0,.687.307q2.023-.026,4.046,0c.337,0,.463-.079.45-.437C954.363,78.856,954.382,78.1,954.38,77.353Zm-8.5-9.643a12.711,12.711,0,0,1,3.546-1.186c.429-.069.543-.186.46-.628-.278-1.5-.481-3.008-.771-4.5a1.306,1.306,0,0,1,.464-1.443,10.639,10.639,0,0,0,1.215-1.22,1.257,1.257,0,0,0,.3-1.4,1.061,1.061,0,0,0-1.188-.643.559.559,0,0,1-.642-.419c-.124-.305-.292-.593-.444-.886a5.115,5.115,0,0,0-3.9-2.865,15.473,15.473,0,0,0-3.639-.04,2.02,2.02,0,0,0-1.765,2.016c-.024,1.3,0,2.608-.014,3.912,0,.321.094.415.411.407.773-.021,1.548-.007,2.322-.007,1.706,0,1.768.075,1.471,1.8,0,.022-.011.043-.014.065a5.245,5.245,0,0,1-2.474,3.637,4.449,4.449,0,0,0,1.573.752,8.415,8.415,0,0,0,2.376.106c.549-.018.8.078.73.7A17.2,17.2,0,0,0,945.883,67.709Zm-12.7-7.447a3.846,3.846,0,0,1-2.706.664c-2.124-.011-4.248,0-6.372,0-1.64,0-1.626,0-1.6-1.662,0-.379.111-.476.481-.471q2.157.031,4.314,0c.523-.006,1.217.235,1.52-.109.253-.288.038-.967.077-1.47.034-.425-.09-.555-.535-.551-2.212.025-4.425.009-6.637.013-.957,0-1.331.369-1.332,1.316q-.006,3.981,0,7.962c0,.982.37,1.337,1.377,1.339,1.283,0,2.567.014,3.85-.008a1.142,1.142,0,0,1,.919.388c1.157,1.189,2.338,2.354,3.515,3.523.181.18.344.431.672.281.3-.139.292-.4.291-.676,0-1,.025-1.991-.013-2.985-.018-.456.141-.545.556-.532.9.03,1.81.009,2.757.009-.206-.593-.437-1.14-.581-1.71-.092-.364-.267-.427-.6-.421-.973.019-1.947.007-2.92.007-2.39,0-4.779-.011-7.168.01-.434,0-.546-.112-.544-.544.009-1.591-.008-1.591,1.61-1.591h.863c2.566,0,5.133,0,7.7-.009.181,0,.519.193.514-.259C933.177,61.991,933.183,61.2,933.183,60.262Zm9.626,28.27c2.457,0,4.913.015,7.369,0a4.174,4.174,0,0,0,4.107-3.383,16.765,16.765,0,0,0,.1-2.712c.015-.326-.211-.27-.4-.271-.774,0-1.549,0-2.324,0-1.515,0-1.542,0-1.51,1.536.011.524-.159.6-.63.6-4.669-.018-9.339-.012-14.008-.01a2.136,2.136,0,1,0,0,4.245Q939.158,88.536,942.809,88.531ZM917.757,73.659a2.744,2.744,0,0,0-1.93.764c-.333.322-.641.671-.99.974-.314.272-.359.459-.019.772.729.672,1.4,1.4,2.116,2.092.439.424.838,1.218,1.331,1.174.57-.051.989-.8,1.423-1.292a2.52,2.52,0,0,0,.447-2.886A2.619,2.619,0,0,0,917.757,73.659ZM953.02,92.753c-.132-.722-.265-1.413-.383-2.108-.055-.322-.143-.452-.518-.314a6.56,6.56,0,0,1-2.347.329c-1.569-.014-3.138-.007-4.706,0-.221,0-.478-.095-.551.283-.115.6-.288,1.189-.443,1.81Zm-50.971-22.12c1.188.994,2.233,1.87,3.281,2.744.9.752.884.74,1.437-.319.2-.376.14-.554-.207-.776A10.875,10.875,0,0,0,902.049,70.633Zm39.374-9.713h-.876c-1.158,0-1.255.145-.844,1.266a.5.5,0,0,1,.024.061c.07.312.229.318.473.161A2.957,2.957,0,0,0,941.423,60.921Z" transform="translate(0 0)" fill="#020202"/>
    <path id="Trazado_646088" data-name="Trazado 646088" d="M1012.624,205.742c0-1.014,0-1.014,1.044-1.014,1.08,0,1.08,0,1.08,1.11,0,1.014,0,1.014-1.044,1.014C1012.624,206.852,1012.624,206.852,1012.624,205.742Z" transform="translate(-87.988 -128.939)"/>
    <path id="Trazado_646089" data-name="Trazado 646089" d="M1030.724,205.834c0,1.018,0,1.018-1.04,1.018-1.085,0-1.085,0-1.085-1.106,0-1.018,0-1.018,1.04-1.018C1030.724,204.728,1030.724,204.728,1030.724,205.834Z" transform="translate(-99.714 -128.939)"/>
    <path id="Trazado_646090" data-name="Trazado 646090" d="M1045.6,206.852c-1.031,0-1.031,0-1.031-1.028,0-1.1,0-1.1,1.094-1.1,1.031,0,1.031,0,1.031,1.028C1046.7,206.852,1046.7,206.852,1045.6,206.852Z" transform="translate(-111.439 -128.939)"/>
    <path id="Trazado_646091" data-name="Trazado 646091" d="M924.759,50.549V46.843q0-4.215,0-8.429c0-1,.36-1.354,1.359-1.355q12.981,0,25.961,0c1,0,1.36.361,1.36,1.357q0,6.073,0,12.146c0,1-.363,1.36-1.357,1.361-1.859,0-3.718.014-5.577-.009-.409-.005-.526.095-.512.509.033.972.012,1.946.01,2.92,0,.28.068.591-.27.752-.393.188-.562-.147-.767-.35-1.133-1.12-2.269-2.237-3.375-3.384a1.209,1.209,0,0,0-1.1-.442c-.24.03-.489-.018-.729.01-.715.081-1.223.031-1.436-.885a1.684,1.684,0,0,0-1.727-1.224c-3.074.022-6.152-.167-9.222.111A13.9,13.9,0,0,0,924.759,50.549Zm14.41-7.12H928.35c-1.469,0-1.44,0-1.481,1.458-.016.554.129.681.681.68q11.118-.031,22.236-.014c1.541,0,1.517,0,1.546-1.524.01-.5-.117-.616-.613-.613C946.869,43.439,943.019,43.429,939.169,43.429Zm5.245-2.124h5.375c1.536,0,1.511,0,1.542-1.528.01-.5-.128-.611-.617-.608-3.871.022-7.742.012-11.613.012-1.615,0-1.6,0-1.607,1.594,0,.439.122.544.549.539C940.167,41.293,942.291,41.3,944.415,41.3Zm1.594,8.5h3.716c1.615,0,1.6,0,1.606-1.594,0-.439-.121-.542-.548-.539-2.831.019-5.662.01-8.493.01-1.639,0-1.626,0-1.6,1.661,0,.378.11.476.48.471C942.779,49.789,944.394,49.8,946.008,49.8ZM931.133,39.181h-2.654c-1.616,0-1.6,0-1.607,1.592,0,.435.115.546.546.542,2.123-.023,4.246-.01,6.369-.01,1.64,0,1.627,0,1.606-1.659,0-.375-.105-.48-.478-.473C933.655,39.2,932.394,39.181,931.133,39.181Z" transform="translate(-23.495 -5.869)" fill="#e5e8eb"/>
    <path id="Trazado_646092" data-name="Trazado 646092" d="M1072.659,118.329a12.062,12.062,0,0,0-3.333-4.6.687.687,0,0,1-.231-.458q-.384-2.352-.787-4.7a.78.78,0,0,1,.253-.769,6.837,6.837,0,0,0,1.19-1.332,3.268,3.268,0,0,0-1.628-4.913.924.924,0,0,1-.512-.462,7.291,7.291,0,0,0-6.794-3.95,14.251,14.251,0,0,0-3.174.113,4.191,4.191,0,0,0-3.282,4.062c-.018,2.123-.014,4.246,0,6.37a6.358,6.358,0,0,0,5.847,6.411c.451.042.506.2.541.593a1.943,1.943,0,0,1-.838,1.984,5.64,5.64,0,0,0-1.356,1.534c-.259.384-.5.392-.867.149a11.093,11.093,0,0,1-5.271-8.067,45.686,45.686,0,0,1-.035-10.191,8.322,8.322,0,0,1,7.909-7.2,16.638,16.638,0,0,1,5.912.52,10.68,10.68,0,0,1,7.275,10c.013,2.919.018,5.839-.007,8.758A26.577,26.577,0,0,1,1072.659,118.329Z" transform="translate(-116.972 -46.836)" fill="#656c76"/>
    <path id="Trazado_646093" data-name="Trazado 646093" d="M921.6,196.051l1.682-3.329a8.765,8.765,0,0,1,1.675,2.47.361.361,0,0,1-.1.467c-1.878,1.866-3.752,3.735-5.73,5.707,0-1.485-.023-2.844.012-4.2.013-.507-.107-.671-.643-.658-1.494.035-1.495.008-1.495,1.519,0,1.615-.017,3.23.011,4.844a1.2,1.2,0,0,1-.456,1.092,1.849,1.849,0,0,0-.283.28c-.326.381-1.054.728-.945,1.1.15.507.764.875,1.175,1.307.141.148.259.128.387-.011.105-.114.219-.219.328-.329q4.976-4.974,9.944-9.957c.361-.364.558-.39.922-.006.957,1.012,1.955,1.987,2.953,2.96.278.271.385.434.039.777-3.3,3.269-6.564,6.578-9.876,9.836a4.654,4.654,0,0,1-5.378,1.074,4.714,4.714,0,0,1-3.061-4.621c-.031-3.3-.018-6.592,0-9.888a9.609,9.609,0,0,1,1.754-5.467c.274-.4.455-.5.882-.132,1.881,1.612,3.8,3.182,5.7,4.767C921.244,195.776,921.4,195.894,921.6,196.051Z" transform="translate(-14.673 -118.609)" fill="#6dbee3"/>
    <path id="Trazado_646094" data-name="Trazado 646094" d="M906.595,112.322c-1.383-1.255-2.883-2.3-4.115-3.629a7.243,7.243,0,0,1-1.717-5.993,10.689,10.689,0,0,1,8.664-9.577,11.884,11.884,0,0,1,2.507-.2c2.1.01,4.2.015,6.306-.006.436,0,.582.121.551.556a15.829,15.829,0,0,1-.122,2.511,4.24,4.24,0,0,1-3.984,3.306c-1.039.028-2.08.016-3.12,0-.794-.009-1.274-.416-1.277-1.047,0-.669.48-1.114,1.31-1.057.673.047.857-.153.83-.827-.057-1.434-.141-1.537-1.583-1.281a3.184,3.184,0,0,0-2.313,4.624,1.083,1.083,0,0,1,.03,1.051c-.209.462-.388.939-.568,1.414a3.128,3.128,0,0,1-1.513,1.911,3.2,3.2,0,0,0-.759,4.843.986.986,0,0,0,.21.255C907.168,109.965,907.065,111.064,906.595,112.322Z" transform="translate(-5.835 -46.867)" fill="#a87a4d"/>
    <path id="Trazado_646095" data-name="Trazado 646095" d="M1038.088,79.822a16.679,16.679,0,0,0-6.2-.755,10.629,10.629,0,0,0-10.8,10.79,5.228,5.228,0,0,0,.011,1.059,2.662,2.662,0,0,1-1.245,2.754c-.173.139-.318.325-.576.217a.547.547,0,0,1-.318-.593c.009-.973-.044-1.949.021-2.917.042-.622-.183-.713-.732-.7-1.437.038-2.875.016-4.313.012-.967,0-1.341-.364-1.345-1.3-.006-1.526.016-3.051-.013-4.576-.008-.43.132-.507.523-.5,1.216.025,2.433.017,3.649.007a3.183,3.183,0,0,0,3.274-3.263c.009-.862.018-1.725-.006-2.586-.01-.375.045-.533.489-.531,5.441.018,10.882.009,16.323.014.862,0,1.242.394,1.254,1.261C1038.093,78.716,1038.088,79.222,1038.088,79.822Z" transform="translate(-87.956 -35.141)" fill="#fae8ae"/>
    <path id="Trazado_646096" data-name="Trazado 646096" d="M933.905,134.312a4.228,4.228,0,0,1-2.986,1.092c-.858-.007-.858,0-.858.873v1.655a13.459,13.459,0,0,0-3.814-1.228c-.357-.054-.221-.315-.188-.517.255-1.547.5-3.1.779-4.638a1.175,1.175,0,0,0-.391-1.282,13.239,13.239,0,0,1-1.225-1.213,1.321,1.321,0,0,1-.371-1.508,1.1,1.1,0,0,1,1.261-.632c.372.04.491-.163.6-.452.441-1.13.9-2.25,1.34-3.382a.58.58,0,0,1,.692-.465,24.264,24.264,0,0,0,4.634-.081,4.049,4.049,0,0,0,1.557-.533c.478-.306.638-.112.83.317a19.537,19.537,0,0,1,1.664,6.306c.03.34-.045.428-.367.412-.419-.021-.842.018-1.26-.012-.353-.025-.45.095-.444.443.014.75-.013,1.5-.04,2.253-.013.349-.151.52-.572.512a2.834,2.834,0,0,1-2.452-1.2c-.2-.3-.363-.323-.636-.146a5.4,5.4,0,0,1-.531.27c-1.09.545-1.093.562-.268,1.513A5.239,5.239,0,0,0,933.905,134.312Z" transform="translate(-23.487 -68.108)" fill="#e9cfb5"/>
    <path id="Trazado_646097" data-name="Trazado 646097" d="M1089.255,186.084c0,.751-.018,1.5.009,2.254.013.358-.113.441-.45.437q-2.023-.026-4.046,0a.886.886,0,0,1-.687-.307,3.835,3.835,0,0,1-.7-4.684c.447-.917.447-.917-.473-1.377-.988-.495-.988-.495-1.477.508a5.949,5.949,0,0,0,1.069,6.976,2.186,2.186,0,0,1,.316.338c.218.367.05.659-.38.661-1.3.005-2.609,0-3.914.007a.634.634,0,0,1-.593-.308,7.653,7.653,0,0,1-.238-8.55,10.448,10.448,0,0,1,7.708-4.833.891.891,0,0,1,.81.32,9.555,9.555,0,0,1,3.042,6.832C1089.269,184.934,1089.253,185.509,1089.255,186.084Z" transform="translate(-134.874 -108.731)" fill="#f4d57e"/>
    <path id="Trazado_646098" data-name="Trazado 646098" d="M1074.893,132.061a17.185,17.185,0,0,1,.014-1.853c.07-.623-.181-.719-.73-.7a8.416,8.416,0,0,1-2.376-.106,4.449,4.449,0,0,1-1.573-.752,5.245,5.245,0,0,0,2.474-3.637c0-.022.011-.043.014-.065.3-1.722.235-1.8-1.472-1.8-.774,0-1.548-.014-2.322.007-.317.008-.415-.086-.411-.407.017-1.3-.01-2.608.014-3.912a2.02,2.02,0,0,1,1.766-2.016,15.473,15.473,0,0,1,3.639.04,5.115,5.115,0,0,1,3.9,2.865c.153.293.32.581.445.886a.559.559,0,0,0,.642.419,1.061,1.061,0,0,1,1.188.643,1.257,1.257,0,0,1-.3,1.4,10.624,10.624,0,0,1-1.215,1.22,1.306,1.306,0,0,0-.464,1.443c.291,1.494.493,3.005.771,4.5.082.442-.031.56-.46.628A12.711,12.711,0,0,0,1074.893,132.061Z" transform="translate(-129.009 -64.352)" fill="#e9cfb5"/>
    <path id="Trazado_646099" data-name="Trazado 646099" d="M1009.442,136.426c0,.942-.006,1.729,0,2.516.005.451-.332.258-.514.259-2.567.013-5.133.009-7.7.009h-.863c-1.618,0-1.6,0-1.61,1.591,0,.432.11.548.544.544,2.389-.022,4.779-.01,7.168-.01.974,0,1.947.013,2.921-.007.331-.007.506.056.6.421.144.569.375,1.117.581,1.71-.947,0-1.853.02-2.757-.009-.415-.013-.573.076-.556.532.038.994.009,1.99.013,2.985,0,.272.012.537-.291.676-.327.15-.49-.1-.672-.281-1.177-1.169-2.358-2.334-3.515-3.523a1.142,1.142,0,0,0-.919-.388c-1.283.022-2.566.011-3.85.008-1.007,0-1.375-.358-1.377-1.339q-.005-3.981,0-7.962c0-.947.375-1.314,1.332-1.316,2.212,0,4.425.012,6.637-.012.445,0,.569.126.535.551-.04.5.176,1.182-.077,1.47-.3.344-1,.1-1.52.109q-2.157.025-4.314,0c-.37-.005-.476.092-.481.471-.021,1.662-.035,1.662,1.6,1.662,2.124,0,4.248-.007,6.372,0A3.846,3.846,0,0,0,1009.442,136.426Z" transform="translate(-76.259 -76.164)" fill="#e5e8eb"/>
    <path id="Trazado_646100" data-name="Trazado 646100" d="M1054.254,235.047q-3.651,0-7.3,0a2.136,2.136,0,1,1,0-4.245c4.669,0,9.339-.008,14.008.01.471,0,.641-.075.63-.6-.033-1.535-.005-1.536,1.51-1.536.775,0,1.549,0,2.323,0,.191,0,.417-.055.4.271a16.744,16.744,0,0,1-.1,2.712,4.173,4.173,0,0,1-4.107,3.383C1059.167,235.061,1056.711,235.046,1054.254,235.047Z" transform="translate(-111.445 -146.515)" fill="#e9d0b6"/>
    <path id="Trazado_646101" data-name="Trazado 646101" d="M978,196.721a2.619,2.619,0,0,1,2.379,1.6,2.52,2.52,0,0,1-.447,2.886c-.434.491-.853,1.241-1.423,1.292-.493.044-.892-.75-1.331-1.174-.713-.689-1.388-1.42-2.116-2.092-.34-.314-.3-.5.019-.772.349-.3.657-.652.99-.974A2.744,2.744,0,0,1,978,196.721Z" transform="translate(-60.246 -123.062)" fill="#e8ceb5"/>
    <path id="Trazado_646102" data-name="Trazado 646102" d="M1094.64,261.668h-8.948c.155-.621.327-1.21.443-1.81.073-.378.33-.282.551-.283,1.569-.005,3.138-.013,4.706,0a6.559,6.559,0,0,0,2.347-.329c.376-.138.464-.008.518.314C1094.375,260.254,1094.508,260.946,1094.64,261.668Z" transform="translate(-141.62 -168.915)" fill="#f4d57e"/>
    <path id="Trazado_646103" data-name="Trazado 646103" d="M927.712,185.345a10.875,10.875,0,0,1,4.511,1.648c.348.222.4.4.207.776-.553,1.059-.535,1.071-1.437.319C929.945,187.215,928.9,186.339,927.712,185.345Z" transform="translate(-25.663 -114.712)" fill="#58a6cd"/>
    <path id="Trazado_646104" data-name="Trazado 646104" d="M1070.377,148.832a2.957,2.957,0,0,1-1.223,1.488c-.244.157-.4.151-.473-.161a.5.5,0,0,0-.024-.061c-.411-1.12-.314-1.266.844-1.266Z" transform="translate(-128.954 -87.911)" fill="#e78370"/>
    <path id="Trazado_646105" data-name="Trazado 646105" d="M944.989,60.975c3.85,0,7.7.01,11.55-.013.5,0,.622.116.613.613-.029,1.523-.006,1.524-1.546,1.524q-11.118,0-22.236.014c-.552,0-.7-.126-.681-.68.042-1.457.013-1.458,1.481-1.458Z" transform="translate(-29.315 -23.415)"/>
    <path id="Trazado_646106" data-name="Trazado 646106" d="M979.56,47.132c-2.123,0-4.247-.012-6.371.01-.427,0-.551-.1-.549-.539.009-1.594-.009-1.594,1.607-1.594,3.871,0,7.742.01,11.613-.012.489,0,.627.1.617.608-.031,1.527-.006,1.528-1.542,1.528Z" transform="translate(-58.641 -11.696)"/>
    <path id="Trazado_646107" data-name="Trazado 646107" d="M989.94,79.075c-1.614,0-3.229-.011-4.844.008-.37,0-.475-.093-.48-.471-.021-1.661-.035-1.661,1.6-1.661,2.831,0,5.662.009,8.493-.01.427,0,.551.1.548.539-.009,1.594.009,1.594-1.606,1.594Z" transform="translate(-67.427 -35.144)"/>
    <path id="Trazado_646108" data-name="Trazado 646108" d="M936.965,45.017c1.26,0,2.521.014,3.781-.009.373-.007.474.1.478.473.021,1.659.034,1.659-1.606,1.659-2.123,0-4.246-.012-6.369.01-.431,0-.549-.106-.546-.542.009-1.592-.008-1.592,1.607-1.592Z" transform="translate(-29.327 -11.705)"/>
  </g>
</svg>
