<svg xmlns="http://www.w3.org/2000/svg" width="71.009" height="71.017" viewBox="0 0 71.009 71.017">
  <g id="Grupo_988045" data-name="Grupo 988045" transform="translate(-796.232 -655.027)">
    <path id="Trazado_646041" data-name="Trazado 646041" d="M829.482,845.974c-4.229,0-8.457-.009-12.686,0a11.9,11.9,0,0,1-6.442-1.786c-.3-.183-.5-.285-.812.032a2.035,2.035,0,0,1-1.523.542c-3.12,0-6.239.017-9.359-.008a2.31,2.31,0,0,1-2.419-2.462q-.018-8.179,0-16.358a2.327,2.327,0,0,1,2.444-2.44c3.1-.018,6.193,0,9.289-.006a2.213,2.213,0,0,1,1.79.748c.25.3.389.152.606,0a17.14,17.14,0,0,1,12.215-2.946,8.136,8.136,0,0,1,4.259,1.859,8.789,8.789,0,0,0,6.072,2.065,31.385,31.385,0,0,1,5.123.086,5.912,5.912,0,0,1,5.06,5.708,3.229,3.229,0,0,1-.016.415c-.127.947-.056,1.033.878.715,2.855-.973,5.7-1.974,8.548-2.97q4.6-1.609,9.19-3.228c2.219-.78,4.143-.088,5.112,1.839a4.123,4.123,0,0,1-1.631,5.36c-5.587,3.592-11.218,7.118-16.761,10.779A11.93,11.93,0,0,1,841.266,846C837.341,845.9,833.411,845.973,829.482,845.974ZM837,832.233c.781.011,1.562.026,2.344.03,1.1.005,1.481-.417,1.37-1.531a3.14,3.14,0,0,0-.575-1.529c-1.1-1.561-2.677-1.779-4.406-1.574a5.973,5.973,0,0,0-1.651-.056,12.99,12.99,0,0,1-7.029-1.312c-.778-.568-1.521-1.2-2.343-1.69a6.467,6.467,0,0,0-3.8-1.028,12.673,12.673,0,0,0-4.182.409,11.426,11.426,0,0,0-5.58,2.724,2.135,2.135,0,0,0-.733,1.689c.041,3.832.085,7.666-.018,11.5a2.478,2.478,0,0,0,1.521,2.555c.246.125.489.257.742.366a12.34,12.34,0,0,0,4.946.82q11.845.011,23.69,0c.322,0,.644-.029.967-.045a5.75,5.75,0,0,0,3.857-1.01q8.784-5.64,17.576-11.267a3.82,3.82,0,0,0,.75-.6,1.66,1.66,0,0,0,.138-2.047,1.461,1.461,0,0,0-1.765-.556,6.483,6.483,0,0,0-1.534.588,1.642,1.642,0,0,0-.726.193q-7.662,2.679-15.319,5.372a6.928,6.928,0,0,1-2.369.408c-2.333-.012-4.667.044-7-.018a9.208,9.208,0,0,0-6.174,1.79,1.132,1.132,0,0,1-1.711-.2,1.148,1.148,0,0,1,.326-1.7,10.421,10.421,0,0,1,5.3-2.165C834.746,832.24,835.876,832.331,837,832.233Zm-28.951,1.884c0-2.539-.009-5.078.008-7.618,0-.445-.066-.655-.59-.65q-4.155.038-8.311,0c-.474,0-.569.163-.568.6q.019,7.687,0,15.374c0,.455.133.586.586.582,2.747-.019,5.5-.024,8.242,0,.539.005.649-.173.644-.672C808.04,839.2,808.052,836.657,808.052,834.117Z" transform="translate(0 -119.96)" fill="#020302"/>
    <path id="Trazado_646042" data-name="Trazado 646042" d="M906.77,696.66c0-.993-.017-1.987.009-2.98a.989.989,0,0,0-.423-.874,20.307,20.307,0,0,1-7.337-11.893,21.316,21.316,0,0,1,21.563-25.877,21.29,21.29,0,0,1,3.83,42.054,20.405,20.405,0,0,1-9.739-.122,1.406,1.406,0,0,0-1.425.3c-1.413,1.188-2.887,2.3-4.331,3.456a1.3,1.3,0,0,1-1.461.311,1.284,1.284,0,0,1-.687-1.326C906.774,698.693,906.77,697.677,906.77,696.66Zm19.069-38.188a16.9,16.9,0,0,0-8.5-.9,18.172,18.172,0,0,0-11.236,5.738A18.422,18.422,0,0,0,901.5,681.06a18.005,18.005,0,0,0,6.728,10.2,2.178,2.178,0,0,1,.926,1.952c-.037,1.223-.014,2.448,0,3.672,0,.164-.091.366.135.515,1.083-.857,2.187-1.689,3.242-2.58a1.79,1.79,0,0,1,1.913-.375,12.279,12.279,0,0,0,1.809.452,17.928,17.928,0,0,0,9.021-.526l.194-.076.215-.068a2.364,2.364,0,0,0,.92-.264,18.919,18.919,0,0,0,3.815-33.281A13.934,13.934,0,0,0,925.839,658.472Z" transform="translate(-73.846)" fill="#020303"/>
    <path id="Trazado_646043" data-name="Trazado 646043" d="M863.857,832.352a12.99,12.99,0,0,0,7.029,1.312,5.973,5.973,0,0,1,1.651.056,4.711,4.711,0,0,1,1.267,4.6c-1.128.1-2.258.007-3.389.112a10.42,10.42,0,0,0-5.3,2.165,1.148,1.148,0,0,0-.326,1.7,1.132,1.132,0,0,0,1.711.2,9.208,9.208,0,0,1,6.174-1.79c2.331.062,4.666.006,7,.018a6.926,6.926,0,0,0,2.369-.408q7.654-2.7,15.319-5.372a1.643,1.643,0,0,1,.727-.193c.241,1.833-.6,2.979-2.14,3.94-5.315,3.311-10.566,6.725-15.832,10.116-.372.239-.848.377-1.049.84-.322.016-.644.045-.966.045q-11.845,0-23.69,0a12.339,12.339,0,0,1-4.946-.82c-.253-.109-.5-.241-.742-.366a2.478,2.478,0,0,1-1.521-2.555c.1-3.83.058-7.664.018-11.5a2.135,2.135,0,0,1,.733-1.689,11.425,11.425,0,0,1,5.58-2.724,12.675,12.675,0,0,1,4.182-.409c.241.54.783.754,1.215,1.068A7.326,7.326,0,0,0,863.857,832.352Z" transform="translate(-36.802 -126.05)" fill="#f8deb6"/>
    <path id="Trazado_646044" data-name="Trazado 646044" d="M814.182,846.312c0,2.539-.013,5.078.011,7.617,0,.5-.106.678-.644.672-2.747-.028-5.495-.022-8.242,0-.453,0-.587-.127-.586-.582q.022-7.687,0-15.374c0-.433.094-.6.568-.6q4.156.032,8.311,0c.524,0,.593.206.59.65C814.173,841.233,814.182,843.773,814.182,846.312Zm-4.737,3.537a1.122,1.122,0,0,0-1.219-1.115,1.152,1.152,0,0,0-1.133,1.149,1.217,1.217,0,0,0,1.2,1.177A1.188,1.188,0,0,0,809.445,849.849Z" transform="translate(-6.129 -132.155)" fill="#66ab5a"/>
    <path id="Trazado_646045" data-name="Trazado 646045" d="M961.864,861.285c.2-.463.677-.6,1.049-.84,5.266-3.39,10.517-6.8,15.832-10.116,1.542-.961,2.381-2.107,2.14-3.94a6.483,6.483,0,0,1,1.534-.588,1.461,1.461,0,0,1,1.765.556,1.659,1.659,0,0,1-.138,2.047,3.819,3.819,0,0,1-.749.6q-8.786,5.637-17.576,11.267A5.75,5.75,0,0,1,961.864,861.285Z" transform="translate(-119.602 -137.688)" fill="#b9a788"/>
    <path id="Trazado_646046" data-name="Trazado 646046" d="M939.649,848.887a4.711,4.711,0,0,0-1.267-4.6c1.729-.2,3.3.013,4.406,1.574a3.14,3.14,0,0,1,.575,1.529c.111,1.114-.269,1.536-1.37,1.531C941.211,848.914,940.43,848.9,939.649,848.887Z" transform="translate(-102.645 -136.614)" fill="#b8a587"/>
    <path id="Trazado_646047" data-name="Trazado 646047" d="M891.176,832.436a7.326,7.326,0,0,1-4.932-1.651c-.432-.314-.974-.528-1.215-1.068a6.467,6.467,0,0,1,3.8,1.028C889.656,831.241,890.4,831.868,891.176,832.436Z" transform="translate(-64.12 -126.134)" fill="#b8a587"/>
    <path id="Trazado_646048" data-name="Trazado 646048" d="M931.447,700.51a17.928,17.928,0,0,1-9.021.526,12.261,12.261,0,0,1-1.809-.452,1.79,1.79,0,0,0-1.913.375c-1.055.891-2.159,1.724-3.242,2.58-.226-.149-.133-.352-.135-.515-.009-1.224-.032-2.449,0-3.672a2.178,2.178,0,0,0-.926-1.952,18.006,18.006,0,0,1-6.728-10.2,18.422,18.422,0,0,1,4.594-17.753,18.172,18.172,0,0,1,11.236-5.738,16.9,16.9,0,0,1,8.5.9c-.009.276.229.32.4.417a19.278,19.278,0,0,1,7.017,6.719,20.111,20.111,0,0,1-5.451,27.138,9.016,9.016,0,0,0-2.123,1.482l-.216.068Zm-1.936-16.471c0-1.64.009-3.28,0-4.92-.006-.871-.389-1.372-1.21-1.386q-3.533-.062-7.068,0A1.125,1.125,0,0,0,920.061,679q-.026,2.287,0,4.574a1.14,1.14,0,0,0,1.077,1.218,1.433,1.433,0,0,0,.481.029c.706-.125.844.2.81.844a24.725,24.725,0,0,0,0,3.047c.052.73-.2.89-.882.861-1.1-.048-1.494.381-1.5,1.488-.007,1.386-.01,2.772,0,4.158.008,1,.441,1.425,1.45,1.427q4.471.012,8.941,0a1.238,1.238,0,0,0,1.422-1.393c.013-1.455.015-2.911,0-4.366a1.2,1.2,0,0,0-1.333-1.328,2.823,2.823,0,0,0-.485,0c-.425.06-.555-.1-.548-.534C929.526,687.367,929.512,685.7,929.511,684.04Zm-3.582-8.709a3.539,3.539,0,0,0,3.577-3.535,3.541,3.541,0,0,0-7.081-.057A3.508,3.508,0,0,0,925.93,675.33Z" transform="translate(-80.019 -6.139)" fill="#4595ea"/>
    <path id="Trazado_646049" data-name="Trazado 646049" d="M996.318,703.18a9.018,9.018,0,0,1,2.123-1.482,20.111,20.111,0,0,0,5.451-27.138,19.277,19.277,0,0,0-7.017-6.719c-.172-.1-.41-.141-.4-.417a13.934,13.934,0,0,1,4.579,2.21,18.924,18.924,0,0,1-3.815,33.281A2.361,2.361,0,0,1,996.318,703.18Z" transform="translate(-144.48 -8.953)" fill="#2d66b8"/>
    <path id="Trazado_646050" data-name="Trazado 646050" d="M994.844,796.4l.194-.076Z" transform="translate(-143.416 -102.03)" fill="#2d66b8"/>
    <path id="Trazado_646051" data-name="Trazado 646051" d="M815.611,877.62a1.188,1.188,0,0,1-1.154,1.211,1.217,1.217,0,0,1-1.2-1.177,1.152,1.152,0,0,1,1.133-1.149A1.122,1.122,0,0,1,815.611,877.62Z" transform="translate(-12.295 -159.927)" fill="#030503"/>
    <path id="Trazado_646052" data-name="Trazado 646052" d="M963.289,720.869c0,1.663.014,3.327-.01,4.99-.006.432.124.594.548.534a2.817,2.817,0,0,1,.485,0,1.2,1.2,0,0,1,1.333,1.328c.016,1.455.014,2.911,0,4.366a1.238,1.238,0,0,1-1.422,1.393q-4.471.013-8.941,0c-1.009,0-1.441-.431-1.45-1.427-.012-1.386-.008-2.772,0-4.158.006-1.107.4-1.536,1.5-1.488.683.03.934-.131.882-.861a24.725,24.725,0,0,1,0-3.047c.034-.639-.1-.969-.81-.844a1.433,1.433,0,0,1-.481-.029,1.14,1.14,0,0,1-1.077-1.218q-.031-2.286,0-4.574a1.125,1.125,0,0,1,1.169-1.271q3.533-.059,7.068,0c.821.014,1.2.515,1.21,1.386C963.3,717.589,963.289,719.229,963.289,720.869Zm-2.365,1.612c0-1.664-.014-3.327.009-4.99.006-.433-.082-.61-.561-.588-.876.041-1.755.012-2.634.012-1.542,0-1.5,0-1.559,1.521-.025.686.133.914.855.871,1.012-.06,1.507.376,1.517,1.273.026,2.287.021,4.575,0,6.862a1.231,1.231,0,0,1-1.1,1.3c-.415.086-1-.234-1.21.168-.19.364-.045.9-.048,1.365a1.855,1.855,0,0,1,0,.277c-.071.446.1.585.559.577,1.663-.029,3.327-.011,4.991-.011,1.542,0,1.506,0,1.559-1.518.024-.671-.115-.908-.841-.866-1.117.065-1.535-.409-1.538-1.54C960.921,725.623,960.924,724.052,960.924,722.481Z" transform="translate(-113.797 -42.968)" fill="#020203"/>
    <path id="Trazado_646053" data-name="Trazado 646053" d="M965.884,687.592a3.508,3.508,0,0,1-3.5-3.592,3.541,3.541,0,1,1,3.5,3.592Zm.051-4.71a1.2,1.2,0,0,0-1.19,1.178,1.152,1.152,0,0,0,1.113,1.162,1.181,1.181,0,0,0,1.233-1.119A1.233,1.233,0,0,0,965.935,682.882Z" transform="translate(-119.974 -18.4)" fill="#010203"/>
    <path id="Trazado_646054" data-name="Trazado 646054" d="M966.955,728.634c0,1.571,0,3.142,0,4.713,0,1.13.421,1.6,1.538,1.54.726-.042.864.195.841.866-.053,1.516-.016,1.518-1.559,1.518-1.664,0-3.328-.018-4.991.011-.463.008-.63-.131-.559-.577a1.839,1.839,0,0,0,0-.277c0-.462-.143-1,.048-1.365.21-.4.8-.082,1.21-.168a1.231,1.231,0,0,0,1.1-1.3c.019-2.287.025-4.575,0-6.862-.01-.9-.5-1.333-1.517-1.273-.722.043-.88-.185-.855-.871.055-1.519.017-1.521,1.559-1.521.878,0,1.758.029,2.634-.012.479-.022.567.155.561.588C966.942,725.307,966.955,726.971,966.955,728.634Z" transform="translate(-119.828 -49.122)" fill="#fcfcfc"/>
    <path id="Trazado_646055" data-name="Trazado 646055" d="M972.081,689.046a1.233,1.233,0,0,1,1.157,1.221A1.181,1.181,0,0,1,972,691.386a1.152,1.152,0,0,1-1.113-1.162A1.2,1.2,0,0,1,972.081,689.046Z" transform="translate(-126.12 -24.565)" fill="#f5f5f5"/>
  </g>
</svg>
