<svg xmlns="http://www.w3.org/2000/svg" width="81" height="81" viewBox="0 0 81 81">
  <g id="Grupo_987518" data-name="Grupo 987518" transform="translate(-1173 -2988)">
    <rect id="Rectángulo_308874" data-name="Rectángulo 308874" width="81" height="81" rx="12" transform="translate(1173 2988)" fill="#00d843"/>
    <g id="Grupo_983587" data-name="Grupo 983587" transform="translate(1183.789 2998.215)">
      <path id="Trazado_642272" data-name="Trazado 642272" d="M393.963,2353.511a9.961,9.961,0,0,0-.569,2.8,29.159,29.159,0,0,1-40.555,21.143,3,3,0,0,0-2.378-.149c-4.856,1.6-9.735,3.128-14.607,4.677-.409.131-.825.24-1.246.361-.192-.46.072-.823.181-1.19q2.21-7.395,4.463-14.776a1.919,1.919,0,0,0-.122-1.614,29.119,29.119,0,0,1,20.091-42.5,4.666,4.666,0,0,0,1.988-.491h6.874c.144.339.462.2.7.238a29.155,29.155,0,0,1,24.668,23.757,7.939,7.939,0,0,0,.508,2.491v1.213a1.177,1.177,0,0,0,0,1.01ZM363.61,2378.5a2.049,2.049,0,0,0,2.28-.009c.132-.022.263-.053.4-.063,15.954-1.221,27.025-14.381,25.483-30.293-1.434-14.8-15.551-25.852-30.52-23.888a27.221,27.221,0,0,0-20.306,40.3,1.806,1.806,0,0,1,.164,1.6c-1.417,4.281-2.8,8.573-4.187,12.862-.077.237-.3.471-.065.774q6.956-2.229,13.922-4.462a1.31,1.31,0,0,1,1.15-.031A28.15,28.15,0,0,0,363.61,2378.5Z" transform="translate(-334.541 -2321.768)" fill="#fff"/>
      <path id="Trazado_642273" data-name="Trazado 642273" d="M458.164,2380.462a1.176,1.176,0,0,1,0-1.01Z" transform="translate(-398.742 -2351.752)" fill="#fff"/>
      <path id="Trazado_642274" data-name="Trazado 642274" d="M395.077,2439.9l2.279-.009A2.05,2.05,0,0,1,395.077,2439.9Z" transform="translate(-366.008 -2383.169)" fill="#fff"/>
      <path id="Trazado_642275" data-name="Trazado 642275" d="M351.522,2380.413c.882-2.609,1.68-5.029,2.527-7.431a1.463,1.463,0,0,0-.2-1.476,22.676,22.676,0,0,1,13.97-34.969c12.758-2.86,25.692,6.124,27.251,19.087,1.129,9.386-2.265,16.983-10.184,22.107-7.848,5.078-16.06,4.958-24.172.311a1.655,1.655,0,0,0-1.5-.14C356.726,2378.732,354.228,2379.533,351.522,2380.413Zm12.065-21.266q0,5.306,0,10.611c0,1.767.55,2.335,2.267,2.34,3.469.009,6.938,0,10.407,0a6.378,6.378,0,0,0,1.893-.265,7.813,7.813,0,0,0,3.586-12.227c-.217-.255-.625-.43-.242-.9,1.31-1.619,1.376-3.556,1.2-5.483a7.073,7.073,0,0,0-7.312-6.72c-3.2.125-6.4.023-9.6.026-1.778,0-2.2.422-2.2,2.21Q363.583,2353.944,363.587,2359.146Z" transform="translate(-342.519 -2329.168)" fill="#fff"/>
      <path id="Trazado_642276" data-name="Trazado 642276" d="M392.908,2395.149c-1.176,0-2.353-.019-3.529.01-.486.012-.637-.156-.627-.635.026-1.344.028-2.689,0-4.033-.012-.51.121-.707.668-.7,2.252.028,4.5-.013,6.756.02,1.635.025,2.339.924,2.322,2.844-.015,1.635-.8,2.475-2.361,2.493C395.059,2395.159,393.984,2395.149,392.908,2395.149Z" transform="translate(-362.719 -2357.127)" fill="#fff"/>
      <path id="Trazado_642277" data-name="Trazado 642277" d="M392.625,2368.116c1.042,0,2.085-.023,3.126.006,1.421.041,2.222.964,2.253,2.54.033,1.742-.711,2.781-2.17,2.82-2.15.059-4.3.006-6.454.026-.49,0-.638-.17-.63-.646q.037-2.067,0-4.135c-.01-.5.185-.63.65-.619C390.472,2368.133,391.549,2368.116,392.625,2368.116Z" transform="translate(-362.718 -2345.856)" fill="#fff"/>
    </g>
  </g>
</svg>
