<svg xmlns="http://www.w3.org/2000/svg" width="215" height="209.391" viewBox="0 0 215 209.391">
  <g id="Grupo_987586" data-name="Grupo 987586" transform="translate(-14 -21.779)">
    <g id="Floor" transform="translate(14 106.986)">
      <ellipse id="Floor-2" data-name="Floor" cx="107.5" cy="62.092" rx="107.5" ry="62.092" fill="#005e6e"/>
    </g>
    <g id="Shadows" transform="translate(34.302 118.288)">
      <path id="Shadow" d="M69.876,314.662l-10.514-6.071a1.164,1.164,0,0,1,0-2.206l125.193-72.28a4.222,4.222,0,0,1,3.82,0l10.514,6.071a1.164,1.164,0,0,1,0,2.206L73.7,314.662A4.222,4.222,0,0,1,69.876,314.662Z" transform="translate(-58.57 -233.649)" fill="#e0e0e0"/>
      <ellipse id="Shadow-2" data-name="Shadow" cx="19.091" cy="11.022" rx="19.091" ry="11.022" transform="translate(145.584 22.354)" fill="#00515f"/>
      <ellipse id="Shadow-3" data-name="Shadow" cx="17.801" cy="10.277" rx="17.801" ry="10.277" transform="translate(46.455 84.101)" fill="#00515f"/>
    </g>
    <g id="Plants" transform="translate(22.433 156.663)">
      <g id="Plants-2" data-name="Plants" transform="translate(0)">
        <g id="Grupo_987521" data-name="Grupo 987521" transform="translate(2.682)">
          <g id="Grupo_987519" data-name="Grupo 987519">
            <path id="Trazado_645181" data-name="Trazado 645181" d="M60.259,338.851a32.285,32.285,0,0,0-4.144-12.045c-3.373-5.263-8.008-8.548-12.333-8.89s-7.817,3.637-3.19,6.369,12.849,5.521,16.632,15.741Z" transform="translate(-38.401 -317.896)" fill="#ffd76a"/>
            <path id="Trazado_645182" data-name="Trazado 645182" d="M60.259,338.851a32.285,32.285,0,0,0-4.144-12.045c-3.373-5.263-8.008-8.548-12.333-8.89s-7.817,3.637-3.19,6.369,12.849,5.521,16.632,15.741Z" transform="translate(-38.401 -317.896)" opacity="0.1"/>
          </g>
          <g id="Grupo_987520" data-name="Grupo 987520" transform="translate(3.271 2.03)">
            <path id="Trazado_645183" data-name="Trazado 645183" d="M62.9,339.516a.241.241,0,0,0,.046-.014.23.23,0,0,0,.127-.3c-4.564-11.24-13.252-15.933-17.209-16.844a.231.231,0,1,0-.1.45c3.876.892,12.392,5.5,16.884,16.567A.232.232,0,0,0,62.9,339.516Z" transform="translate(-45.583 -322.351)" fill="#fff"/>
          </g>
        </g>
        <g id="Grupo_987526" data-name="Grupo 987526" transform="translate(0 13.507)">
          <g id="Grupo_987523" data-name="Grupo 987523">
            <g id="Grupo_987522" data-name="Grupo 987522">
              <path id="Trazado_645184" data-name="Trazado 645184" d="M32.684,353.367a3.822,3.822,0,0,0,2.252,1.7,4.424,4.424,0,0,1,2.354,1.583c.976,1.686-.626,4.057.421,5.7a3.019,3.019,0,0,0,2.062,1.2,20.029,20.029,0,0,0,2.026.181,8.067,8.067,0,0,0,.963-.075,4.378,4.378,0,0,1,2.79.3c1.34.753,1.751,2.445,2.565,3.75a6.36,6.36,0,0,0,4.514,2.831,4.426,4.426,0,0,0,2.336-.154,1.008,1.008,0,0,0,.127-.081s.008-.006.011-.011c.084-.1.19-.216.235-.282a.117.117,0,0,0,.024-.04,9.692,9.692,0,0,0-.166-2.687c0-.057,0-.11,0-.164.037-1.049.067-2.094.091-3.141q.074-2.89.058-5.786a9.439,9.439,0,0,0-.393-3.8c-.587-1.3-2.046-1.326-2.6-2.6-.221-.507-.338-1.051-.552-1.565a4.487,4.487,0,0,0-3.821-2.667c-2.547-.129-4.833,1.934-7.378,1.746a19.312,19.312,0,0,1-1.95-.372,5.516,5.516,0,0,0-5.609,1.947A2.672,2.672,0,0,0,32.684,353.367Z" transform="translate(-32.513 -347.547)" fill="#ffd76a"/>
            </g>
          </g>
          <g id="Grupo_987524" data-name="Grupo 987524" transform="translate(2.339 3.238)">
            <path id="Trazado_645185" data-name="Trazado 645185" d="M58.369,369.823l.017,0a.217.217,0,0,0,.154-.266c-3.52-13.206-17.434-15.115-20.69-14.88a.217.217,0,1,0,.031.434c3.184-.23,16.8,1.638,20.239,14.559A.217.217,0,0,0,58.369,369.823Z" transform="translate(-37.648 -354.655)" fill="#fff"/>
          </g>
          <g id="Grupo_987525" data-name="Grupo 987525" transform="translate(7.343 8.413)">
            <path id="Trazado_645186" data-name="Trazado 645186" d="M48.89,369.318a.219.219,0,0,0,.115-.061,11.562,11.562,0,0,1,9.469-2.667.218.218,0,0,0,.064-.43,12.01,12.01,0,0,0-9.842,2.792.218.218,0,0,0,.194.367Z" transform="translate(-48.632 -366.017)" fill="#fff"/>
          </g>
        </g>
      </g>
    </g>
    <g id="Gears" transform="translate(17.594 29.538)">
      <g id="Gears-2" data-name="Gears">
        <g id="Grupo_987527" data-name="Grupo 987527" transform="translate(24.296)">
          <path id="Trazado_645187" data-name="Trazado 645187" d="M97.937,43.334v0a.429.429,0,0,0-.463.04l-.957.631-.212.573a1.1,1.1,0,0,0,.26,1.063,4.853,4.853,0,0,1,.437.534.649.649,0,0,0,.9.2l2.232-1.469a.438.438,0,0,1,.455-.049Zm-3.436,8.2c-.313-1.808-1.464-2.713-2.959-2.589A4.57,4.57,0,0,1,91.849,50c.494,2.867-1.323,6.934-4.054,9.082a5.513,5.513,0,0,1-2.862,1.279c.9,1.923,3.163,2.1,5.518.251C93.182,58.463,94.995,54.4,94.5,51.529Zm.049-12.254v0a.568.568,0,0,0-.177-.071l-1.68-.379a.912.912,0,0,0-.953.441l-1.583,3.017a1.355,1.355,0,0,1-.353.4h0a1.359,1.359,0,0,1-.269.181l.494,1.645a.574.574,0,0,0,.794.362,8.1,8.1,0,0,1,1.037-.339,1.748,1.748,0,0,0,.6-.313,1.325,1.325,0,0,0,.357-.406L94.39,40.8a.918.918,0,0,1,.953-.441l1.685.379a.636.636,0,0,1,.168.062ZM89.812,68.463a.483.483,0,0,1-.159-.256l-.569-1.888a.568.568,0,0,0-.794-.362,7.657,7.657,0,0,1-1.037.339,1.366,1.366,0,0,0-.326.137l.075.243a.476.476,0,0,0,.216.291v0ZM86.587,40.8a.386.386,0,0,0-.185-.049.481.481,0,0,0-.309.119L83.57,42.853a.6.6,0,0,0-.1.092.5.5,0,0,0-.067.075,1.644,1.644,0,0,0-.22.4c-.009.031-.022.066-.031.1h0a1.139,1.139,0,0,0-.066.406l.15,2.4a1.9,1.9,0,0,1-.393,1.16c-.415.494-.8,1.014-1.169,1.548a1.27,1.27,0,0,1-.556.428,1.049,1.049,0,0,1-.22.066.454.454,0,0,1-.106.018.538.538,0,0,1-.145.009l-1.619-.079H79a.654.654,0,0,0-.133.013.587.587,0,0,0-.119.026.015.015,0,0,0-.013,0,.8.8,0,0,0-.133.053,1.148,1.148,0,0,0-.234.145.985.985,0,0,0-.26.331l-1.522,3.414a.647.647,0,0,0,.256.82l1.8,1.036a.808.808,0,0,1,.04.468,15.48,15.48,0,0,0-.282,1.628,2.027,2.027,0,0,1-.543,1.107l-.026.022-2.21,2.029a.7.7,0,0,0-.106.119c0,.009-.009.013-.013.022a.617.617,0,0,0-.088.146,1.3,1.3,0,0,0-.168.816l.424,2.435a.482.482,0,0,0,.194.331L78.5,65.958a.473.473,0,0,1-.185-.322L77.9,63.2a1.136,1.136,0,0,1,.027-.467,1.308,1.308,0,0,1,.348-.635l2.205-2.029.026-.022a2.06,2.06,0,0,0,.547-1.107,14.507,14.507,0,0,1,.282-1.628.818.818,0,0,0-.45-.9l-1.31-.556a.651.651,0,0,1-.339-.865l1.522-3.414a.925.925,0,0,1,.26-.331A1.022,1.022,0,0,1,81.687,51l1.623.079a1.053,1.053,0,0,0,.468-.092,1.268,1.268,0,0,0,.556-.428c.366-.534.758-1.055,1.169-1.548a1.872,1.872,0,0,0,.393-1.16l-.15-2.4a1.066,1.066,0,0,1,.061-.415,1.364,1.364,0,0,1,.419-.657L88.744,42.4a.433.433,0,0,1,.5-.071Zm-3.78,25.451a1.116,1.116,0,0,0-.265-1.063,4.352,4.352,0,0,1-.432-.534.65.65,0,0,0-.9-.2l-1.275.838L79.014,67.8a.556.556,0,0,0,.225.684l0,0,2.66,1.535a.557.557,0,0,1-.225-.688Z" transform="translate(-75.229 -38.813)" fill="#e0e0e0"/>
          <path id="Trazado_645188" data-name="Trazado 645188" d="M80.536,83.648l-2.205,2.029a1.308,1.308,0,0,0-.348.635l-2.647-1.526a1.587,1.587,0,0,1,.132-.353.617.617,0,0,1,.088-.146c0-.009.009-.013.013-.022a.7.7,0,0,1,.106-.119l2.21-2.029Z" transform="translate(-75.287 -62.392)" fill="#fafafa"/>
          <path id="Trazado_645189" data-name="Trazado 645189" d="M87.526,63.7a1.053,1.053,0,0,1-.468.092l-1.623-.079a1.022,1.022,0,0,0-.671.243l-2.651-1.531a1.148,1.148,0,0,1,.234-.145.8.8,0,0,1,.133-.053.015.015,0,0,1,.013,0,.587.587,0,0,1,.119-.026.654.654,0,0,1,.133-.013h.04l1.619.079a.538.538,0,0,0,.145-.009.955.955,0,0,0,.106-.018,2.024,2.024,0,0,0,.212-.071l.009,0Z" transform="translate(-78.978 -51.53)" fill="#fafafa"/>
          <path id="Trazado_645190" data-name="Trazado 645190" d="M125.717,50.206a.428.428,0,0,0-.454.053l-2.232,1.469a.65.65,0,0,1-.9-.2,4.345,4.345,0,0,0-.436-.534,1.1,1.1,0,0,1-.261-1.063l.212-.569.957-.631a.431.431,0,0,1,.463-.044v0Z" transform="translate(-100.363 -44.161)" fill="#fafafa"/>
          <path id="Trazado_645191" data-name="Trazado 645191" d="M114.616,40.8a.636.636,0,0,0-.168-.062l-1.685-.379a.918.918,0,0,0-.953.441l-1.579,3.017a1.325,1.325,0,0,1-.357.406l-2.651-1.535a1.355,1.355,0,0,0,.353-.4l1.583-3.017a.912.912,0,0,1,.953-.441l1.68.379a.568.568,0,0,1,.177.071v0Z" transform="translate(-92.65 -38.813)" fill="#fafafa"/>
          <path id="Trazado_645192" data-name="Trazado 645192" d="M98.717,44.652a.433.433,0,0,0-.5.071L95.7,46.7a1.364,1.364,0,0,0-.419.657L92.63,45.834c.009-.031.022-.066.031-.1a1.644,1.644,0,0,1,.22-.4.5.5,0,0,1,.067-.075.6.6,0,0,1,.1-.092l2.523-1.981a.481.481,0,0,1,.309-.119.386.386,0,0,1,.185.049Z" transform="translate(-84.704 -41.132)" fill="#fafafa"/>
          <path id="Trazado_645193" data-name="Trazado 645193" d="M104.386,49.466l-.419-2.436a.4.4,0,0,0-.665-.288l-2.231,1.469a.648.648,0,0,1-.9-.2,4.556,4.556,0,0,0-.435-.532,1.1,1.1,0,0,1-.261-1.063l1.138-3.078a.563.563,0,0,0-.416-.765l-1.682-.376a.91.91,0,0,0-.953.442l-1.582,3.013a1.657,1.657,0,0,1-.955.718,8.066,8.066,0,0,0-1.036.342.573.573,0,0,1-.8-.363l-.568-1.888a.42.42,0,0,0-.711-.225L89.4,46.216a1.41,1.41,0,0,0-.479,1.069l.15,2.4a1.9,1.9,0,0,1-.392,1.16c-.413.494-.8,1.012-1.17,1.549a1.3,1.3,0,0,1-1.025.52l-1.62-.08a1.04,1.04,0,0,0-.93.572l-1.523,3.415a.648.648,0,0,0,.339.864l1.309.558a.81.81,0,0,1,.449.9,15.071,15.071,0,0,0-.28,1.629,2.042,2.042,0,0,1-.546,1.107l-2.233,2.053a1.352,1.352,0,0,0-.375,1.1l.42,2.436a.4.4,0,0,0,.665.288l2.231-1.468a.647.647,0,0,1,.9.2,4.607,4.607,0,0,0,.435.532,1.107,1.107,0,0,1,.261,1.063l-1.138,3.077a.563.563,0,0,0,.416.765l1.681.376a.911.911,0,0,0,.953-.442l1.582-3.013a1.656,1.656,0,0,1,.955-.719,8.091,8.091,0,0,0,1.036-.342.573.573,0,0,1,.795.363l.569,1.887a.42.42,0,0,0,.711.225l2.52-1.981a1.409,1.409,0,0,0,.479-1.069l-.15-2.4a1.9,1.9,0,0,1,.392-1.16c.413-.494.8-1.012,1.17-1.549a1.3,1.3,0,0,1,1.026-.52l1.62.08a1.041,1.041,0,0,0,.931-.572l1.523-3.415a.649.649,0,0,0-.339-.864l-1.309-.558a.811.811,0,0,1-.45-.9,15.059,15.059,0,0,0,.281-1.629,2.035,2.035,0,0,1,.546-1.106l2.233-2.053A1.352,1.352,0,0,0,104.386,49.466ZM93.624,62.443c-2.731,2.147-5.346,1.562-5.84-1.306s1.32-6.935,4.051-9.082,5.346-1.563,5.84,1.306S96.355,60.295,93.624,62.443Z" transform="translate(-78.403 -40.644)" fill="#f0f0f0"/>
        </g>
        <g id="Grupo_987528" data-name="Grupo 987528" transform="translate(45.592 14.358)">
          <path id="Trazado_645194" data-name="Trazado 645194" d="M149.412,75.8V75.8a.519.519,0,0,0-.559.048l-1.156.762-.256.693a1.334,1.334,0,0,0,.314,1.284,5.71,5.71,0,0,1,.527.645.784.784,0,0,0,1.082.24l2.7-1.774a.527.527,0,0,1,.549-.059Zm-4.151,9.9c-.379-2.185-1.769-3.277-3.576-3.128a5.5,5.5,0,0,1,.373,1.279c.6,3.464-1.6,8.377-4.9,10.972a6.661,6.661,0,0,1-3.458,1.545c1.082,2.324,3.821,2.542,6.666.3C143.668,94.073,145.858,89.16,145.261,85.7Zm.058-14.8V70.9a.693.693,0,0,0-.213-.086l-2.03-.458a1.1,1.1,0,0,0-1.151.533l-1.913,3.645a1.631,1.631,0,0,1-.426.485h-.005a1.664,1.664,0,0,1-.325.219l.6,1.987a.693.693,0,0,0,.959.437,9.7,9.7,0,0,1,1.252-.41,2.11,2.11,0,0,0,.725-.379,1.614,1.614,0,0,0,.431-.49l1.908-3.645a1.108,1.108,0,0,1,1.151-.532l2.036.458a.76.76,0,0,1,.2.074Zm-5.723,35.26a.583.583,0,0,1-.192-.309l-.687-2.281a.687.687,0,0,0-.959-.437,9.2,9.2,0,0,1-1.252.41,1.652,1.652,0,0,0-.394.165l.091.293a.571.571,0,0,0,.261.352v.005Zm-3.9-33.416a.472.472,0,0,0-.224-.058.577.577,0,0,0-.373.144l-3.048,2.392a.773.773,0,0,0-.117.112.638.638,0,0,0-.08.091,2.013,2.013,0,0,0-.266.479c-.01.037-.026.08-.037.118h.005a1.389,1.389,0,0,0-.08.49l.181,2.9a2.293,2.293,0,0,1-.475,1.4c-.5.6-.97,1.225-1.412,1.87a1.534,1.534,0,0,1-.671.517,1.266,1.266,0,0,1-.267.08.541.541,0,0,1-.128.021.653.653,0,0,1-.176.01l-1.956-.1h-.048a.793.793,0,0,0-.16.016.676.676,0,0,0-.143.032.021.021,0,0,0-.016.005,1.019,1.019,0,0,0-.16.064,1.4,1.4,0,0,0-.282.176,1.19,1.19,0,0,0-.314.4l-1.838,4.125a.783.783,0,0,0,.309.991l2.174,1.252a.976.976,0,0,1,.048.565,18.737,18.737,0,0,0-.341,1.966,2.443,2.443,0,0,1-.655,1.338l-.032.026-2.67,2.451a.818.818,0,0,0-.128.144c-.005.011-.011.016-.016.027a.719.719,0,0,0-.107.176,1.57,1.57,0,0,0-.2.986l.512,2.941a.582.582,0,0,0,.235.4l3.192,1.838a.565.565,0,0,1-.224-.389L125.2,99.8a1.367,1.367,0,0,1,.032-.565,1.585,1.585,0,0,1,.421-.768l2.664-2.451.032-.026a2.488,2.488,0,0,0,.661-1.338,17.411,17.411,0,0,1,.341-1.966.987.987,0,0,0-.543-1.092l-1.582-.671a.787.787,0,0,1-.41-1.044l1.838-4.125a1.129,1.129,0,0,1,.314-.4,1.236,1.236,0,0,1,.81-.293l1.961.1a1.272,1.272,0,0,0,.565-.112,1.53,1.53,0,0,0,.671-.517c.442-.645.916-1.274,1.412-1.87a2.259,2.259,0,0,0,.474-1.4l-.181-2.893a1.3,1.3,0,0,1,.074-.5,1.653,1.653,0,0,1,.507-.794l3.042-2.392a.522.522,0,0,1,.6-.085Zm-4.566,30.746a1.35,1.35,0,0,0-.32-1.284,5.18,5.18,0,0,1-.522-.645.785.785,0,0,0-1.082-.245l-1.54,1.013-1.119,3.027a.671.671,0,0,0,.272.826l-.005.005,3.213,1.854a.674.674,0,0,1-.272-.831Z" transform="translate(-121.98 -70.334)" fill="#e0e0e0"/>
          <path id="Trazado_645195" data-name="Trazado 645195" d="M128.391,124.5l-2.664,2.451a1.585,1.585,0,0,0-.421.768l-3.2-1.843a1.924,1.924,0,0,1,.16-.426.719.719,0,0,1,.107-.176c.005-.011.01-.016.016-.027a.818.818,0,0,1,.128-.144l2.67-2.451Z" transform="translate(-122.05 -98.818)" fill="#fafafa"/>
          <path id="Trazado_645196" data-name="Trazado 645196" d="M136.835,100.4a1.272,1.272,0,0,1-.565.112l-1.961-.1a1.236,1.236,0,0,0-.81.293l-3.2-1.849a1.4,1.4,0,0,1,.282-.176,1.02,1.02,0,0,1,.16-.064.021.021,0,0,1,.016-.005.676.676,0,0,1,.143-.032.794.794,0,0,1,.16-.016h.048l1.956.1a.653.653,0,0,0,.176-.01,1.129,1.129,0,0,0,.128-.021,2.4,2.4,0,0,0,.256-.085l.011.005Z" transform="translate(-126.509 -85.697)" fill="#fafafa"/>
          <path id="Trazado_645197" data-name="Trazado 645197" d="M182.972,84.1a.517.517,0,0,0-.549.064l-2.7,1.774a.784.784,0,0,1-1.082-.245,5.286,5.286,0,0,0-.527-.645,1.332,1.332,0,0,1-.314-1.285l.256-.687,1.157-.762a.521.521,0,0,1,.559-.054v-.005Z" transform="translate(-152.343 -76.795)" fill="#fafafa"/>
          <path id="Trazado_645198" data-name="Trazado 645198" d="M169.562,72.737a.76.76,0,0,0-.2-.074l-2.036-.458a1.108,1.108,0,0,0-1.151.532l-1.908,3.645a1.614,1.614,0,0,1-.431.49l-3.2-1.854a1.631,1.631,0,0,0,.426-.485l1.913-3.645a1.1,1.1,0,0,1,1.151-.533l2.03.458a.693.693,0,0,1,.213.086v-.005Z" transform="translate(-143.025 -70.334)" fill="#fafafa"/>
          <path id="Trazado_645199" data-name="Trazado 645199" d="M150.355,77.389a.522.522,0,0,0-.6.085l-3.042,2.392a1.653,1.653,0,0,0-.507.794L143,78.817c.01-.037.026-.08.037-.118a2.013,2.013,0,0,1,.266-.479.638.638,0,0,1,.08-.091.773.773,0,0,1,.117-.112l3.048-2.392a.577.577,0,0,1,.373-.144.472.472,0,0,1,.224.058Z" transform="translate(-133.426 -73.136)" fill="#fafafa"/>
          <path id="Trazado_645200" data-name="Trazado 645200" d="M157.2,83.2l-.507-2.942a.484.484,0,0,0-.8-.348l-2.7,1.774a.782.782,0,0,1-1.082-.244,5.505,5.505,0,0,0-.525-.643,1.336,1.336,0,0,1-.316-1.284L152.65,75.8a.679.679,0,0,0-.5-.924l-2.032-.455a1.1,1.1,0,0,0-1.152.533l-1.91,3.64a2,2,0,0,1-1.154.868,9.723,9.723,0,0,0-1.251.414.693.693,0,0,1-.961-.439L143,77.155a.507.507,0,0,0-.859-.271L139.1,79.277a1.7,1.7,0,0,0-.579,1.291l.182,2.9a2.3,2.3,0,0,1-.474,1.4c-.5.6-.971,1.223-1.414,1.871a1.57,1.57,0,0,1-1.239.628l-1.957-.1a1.256,1.256,0,0,0-1.124.691l-1.84,4.126a.783.783,0,0,0,.41,1.043l1.581.675a.98.98,0,0,1,.543,1.09,18.224,18.224,0,0,0-.339,1.968,2.462,2.462,0,0,1-.66,1.336l-2.7,2.48a1.632,1.632,0,0,0-.453,1.329l.507,2.942a.485.485,0,0,0,.8.348l2.7-1.774a.782.782,0,0,1,1.082.244,5.547,5.547,0,0,0,.525.644,1.335,1.335,0,0,1,.316,1.284l-1.374,3.718a.68.68,0,0,0,.5.924l2.031.454a1.1,1.1,0,0,0,1.152-.533l1.91-3.64a2,2,0,0,1,1.154-.868,9.721,9.721,0,0,0,1.251-.413.692.692,0,0,1,.96.439l.687,2.28a.508.508,0,0,0,.859.271l3.044-2.393a1.7,1.7,0,0,0,.578-1.292l-.181-2.9a2.29,2.29,0,0,1,.474-1.4c.5-.6.971-1.223,1.414-1.871a1.571,1.571,0,0,1,1.239-.628l1.957.1a1.256,1.256,0,0,0,1.124-.691l1.84-4.125a.784.784,0,0,0-.41-1.044l-1.582-.675a.979.979,0,0,1-.543-1.09,18.326,18.326,0,0,0,.339-1.968,2.457,2.457,0,0,1,.66-1.336l2.7-2.481A1.635,1.635,0,0,0,157.2,83.2Zm-13,15.677c-3.3,2.594-6.459,1.888-7.055-1.578s1.595-8.379,4.894-10.972,6.458-1.889,7.055,1.577S147.5,96.286,144.2,98.88Z" transform="translate(-125.815 -72.546)" fill="#f0f0f0"/>
        </g>
        <g id="Grupo_987529" data-name="Grupo 987529" transform="translate(0 35.333)">
          <path id="Trazado_645201" data-name="Trazado 645201" d="M31.732,161.5a1.3,1.3,0,0,0-.071-1.142,10.733,10.733,0,0,1-1.055-2.342.557.557,0,0,0-.785-.362l-1.142.516a6.608,6.608,0,0,0,.375.684,1.3,1.3,0,0,1,.071,1.142l-3.145,6.343a.721.721,0,0,0,.278.926l2.585,1.49a.725.725,0,0,1-.256-.913Zm13.974-44.153a.349.349,0,0,0-.168-.04.5.5,0,0,0-.26.075l-5.3,3.061-.079.053a1.019,1.019,0,0,0-.08.066.968.968,0,0,0-.075.071,1.62,1.62,0,0,0-.137.168,1.293,1.293,0,0,0-.261.635l-.533,5.9a1.952,1.952,0,0,1-.552,1.1,32.446,32.446,0,0,0-2.946,3.118,1.012,1.012,0,0,1-1.041.3l-3.4-1.191a.614.614,0,0,0-.269-.035h-.018a.063.063,0,0,0-.04,0,.09.09,0,0,0-.049,0,.739.739,0,0,0-.1.022.8.8,0,0,0-.3.154.2.2,0,0,0-.057.049.561.561,0,0,0-.128.159l-3.9,6.748a.8.8,0,0,0-.084.494.766.766,0,0,0,.256.512l2.73,2.355a1.011,1.011,0,0,1,.265,1.05,31.761,31.761,0,0,0-1.226,4.111,1.845,1.845,0,0,1-.3.626.788.788,0,0,1-.092.119c-.031.036-.057.071-.088.106a1.774,1.774,0,0,1-.2.176l-4.843,3.409a.706.706,0,0,0-.088.071.768.768,0,0,0-.084.088,1.42,1.42,0,0,0-.37.882v6.122a.429.429,0,0,0,.189.393l2.611,1.509a.442.442,0,0,1-.19-.4v-6.122a1.389,1.389,0,0,1,.212-.68,1.262,1.262,0,0,1,.327-.366l4.843-3.405a1.725,1.725,0,0,0,.379-.4,1.92,1.92,0,0,0,.3-.635,32.729,32.729,0,0,1,1.226-4.106,1.01,1.01,0,0,0-.265-1.05l-2.73-2.355a.766.766,0,0,1-.256-.512.734.734,0,0,1,.084-.494l3.9-6.748a.819.819,0,0,1,.648-.393.725.725,0,0,1,.309.035l3.4,1.191a1.021,1.021,0,0,0,1.045-.3,31.451,31.451,0,0,1,2.942-3.118,1.953,1.953,0,0,0,.552-1.1l.533-5.9a1.1,1.1,0,0,1,.1-.353,1.4,1.4,0,0,1,.534-.64l5.3-3.061a.467.467,0,0,1,.4-.053Zm-3.586,52.5a.461.461,0,0,1-.176-.348l-.516-5.148a.56.56,0,0,0-.71-.5,10.657,10.657,0,0,1-1.773.243l.393,3.9a.444.444,0,0,0,.2.357v0Zm8.306-36.915a8.148,8.148,0,0,1,1.16,4.75c0,5.712-4.009,12.655-8.958,15.513-1.928,1.116-3.573,1.486-4.861,1.182,1.6,1.866,4.349,2.122,7.468.322,4.949-2.858,8.958-9.8,8.958-15.518C54.192,135.7,52.705,133.488,50.425,132.932Zm5.156-16.457a.711.711,0,0,0-.939.22l-3.921,5.893a.824.824,0,0,1-.057.075.633.633,0,0,1-.092.092.173.173,0,0,1-.053.044.418.418,0,0,1-.053.044,1.346,1.346,0,0,1-.772.256c-.256-.009-.512,0-.777.013l.124,1.249a.561.561,0,0,0,.71.5A10.618,10.618,0,0,1,52.3,124.6a1.343,1.343,0,0,0,.768-.256.943.943,0,0,0,.256-.256l3.921-5.9a.708.708,0,0,1,.926-.22Zm7.587,10.948a.329.329,0,0,0-.084-.031.513.513,0,0,0-.327.04l-3.573,1.61c.088.168.168.335.242.512.071.15.133.3.189.463a.271.271,0,0,1,.036.092c.066.164.123.327.176.5a.735.735,0,0,1,.031.092.638.638,0,0,0,.141.243.413.413,0,0,0,.066.057.256.256,0,0,0,.044.031.345.345,0,0,0,.137.062.119.119,0,0,0,.049.013.482.482,0,0,0,.225,0v0a.2.2,0,0,0,.022,0,.449.449,0,0,0,.1-.035l4.72-2.126a.43.43,0,0,1,.348-.031.149.149,0,0,1,.066.026Z" transform="translate(-21.891 -116.382)" fill="#e0e0e0"/>
          <path id="Trazado_645202" data-name="Trazado 645202" d="M92.325,117.974a.708.708,0,0,0-.926.22l-3.921,5.9a.943.943,0,0,1-.256.256l-2.607-1.5,0,0a.722.722,0,0,0,.11-.084.634.634,0,0,0,.092-.092.824.824,0,0,0,.057-.075l3.921-5.893a.711.711,0,0,1,.939-.22Z" transform="translate(-56.042 -116.382)" fill="#fafafa"/>
          <path id="Trazado_645203" data-name="Trazado 645203" d="M30.532,184.911a1.725,1.725,0,0,1-.379.4l-4.843,3.405a1.262,1.262,0,0,0-.327.366l-2.6-1.5a1.447,1.447,0,0,1,.145-.207.77.77,0,0,1,.084-.088.706.706,0,0,1,.088-.071l4.843-3.409a1.777,1.777,0,0,0,.2-.176c.031-.036.057-.071.088-.106s.057-.079.088-.119h0Z" transform="translate(-22.16 -152.874)" fill="#fafafa"/>
          <path id="Trazado_645204" data-name="Trazado 645204" d="M37.989,149.14a.819.819,0,0,0-.648.393l-3.9,6.748a.734.734,0,0,0-.084.494l-2.607-1.5a.8.8,0,0,1,.084-.494l3.9-6.748a.561.561,0,0,1,.128-.159.2.2,0,0,1,.057-.049.8.8,0,0,1,.3-.154.739.739,0,0,1,.1-.022.09.09,0,0,1,.049,0,.063.063,0,0,1,.04,0,.015.015,0,0,1,.013,0l0,0Z" transform="translate(-26.711 -133.397)" fill="#fafafa"/>
          <path id="Trazado_645205" data-name="Trazado 645205" d="M69.271,119.932a.467.467,0,0,0-.4.053l-5.3,3.061a1.4,1.4,0,0,0-.534.64l-2.6-1.5a1.754,1.754,0,0,1,.159-.282,1.618,1.618,0,0,1,.137-.168.965.965,0,0,1,.075-.071,1.019,1.019,0,0,1,.08-.066l.079-.053,5.3-3.061a.5.5,0,0,1,.26-.075.349.349,0,0,1,.168.04Z" transform="translate(-42.876 -117.484)" fill="#fafafa"/>
          <path id="Trazado_645206" data-name="Trazado 645206" d="M107.748,140.57l2.611,1.509a.149.149,0,0,0-.066-.026.43.43,0,0,0-.348.031l-4.72,2.126a.545.545,0,0,1-.644-.119.638.638,0,0,1-.141-.243.733.733,0,0,0-.031-.092c-.053-.172-.11-.335-.176-.5a.271.271,0,0,0-.036-.092c-.057-.159-.119-.313-.189-.463-.075-.176-.154-.344-.242-.512l3.573-1.61a.513.513,0,0,1,.327-.04.732.732,0,0,1,.084.036Z" transform="translate(-66.471 -129.529)" fill="#fafafa"/>
          <rect id="Rectángulo_308875" data-name="Rectángulo 308875" width="0.004" height="0.004" transform="translate(43.888 12.549)" fill="#fafafa"/>
          <path id="Trazado_645207" data-name="Trazado 645207" d="M69.087,137.244v-6.123a.4.4,0,0,0-.6-.389l-4.72,2.127a.56.56,0,0,1-.786-.364,10.549,10.549,0,0,0-1.052-2.34,1.3,1.3,0,0,1-.072-1.143L65,122.669a.714.714,0,0,0-.279-.923l-3.414-1.971a.714.714,0,0,0-.939.22l-3.921,5.9a1.3,1.3,0,0,1-1.026.51,10.564,10.564,0,0,0-2.553.259.56.56,0,0,1-.708-.5l-.517-5.15a.4.4,0,0,0-.639-.328l-5.3,3.061a1.429,1.429,0,0,0-.632.99l-.531,5.9a1.971,1.971,0,0,1-.552,1.1,32,32,0,0,0-2.945,3.118,1.015,1.015,0,0,1-1.042.3l-3.4-1.189a.83.83,0,0,0-.956.355l-3.9,6.752a.83.83,0,0,0,.17,1l2.731,2.353a1.016,1.016,0,0,1,.265,1.05,31.9,31.9,0,0,0-1.227,4.11A1.969,1.969,0,0,1,33,150.61l-4.844,3.41a1.428,1.428,0,0,0-.541,1.042v6.122a.4.4,0,0,0,.6.39l4.72-2.128a.56.56,0,0,1,.786.364,10.573,10.573,0,0,0,1.052,2.34,1.305,1.305,0,0,1,.072,1.144l-3.146,6.342a.714.714,0,0,0,.279.923l3.414,1.971a.714.714,0,0,0,.939-.22l3.92-5.9a1.306,1.306,0,0,1,1.027-.51,10.56,10.56,0,0,0,2.553-.259.56.56,0,0,1,.708.5l.517,5.151a.4.4,0,0,0,.639.327l5.3-3.061a1.429,1.429,0,0,0,.633-.99l.531-5.9a1.972,1.972,0,0,1,.552-1.1,31.876,31.876,0,0,0,2.945-3.117,1.016,1.016,0,0,1,1.042-.3l3.4,1.188a.83.83,0,0,0,.955-.355l3.9-6.752a.83.83,0,0,0-.17-1l-2.731-2.353a1.016,1.016,0,0,1-.265-1.05,31.871,31.871,0,0,0,1.228-4.11A1.97,1.97,0,0,1,63.7,141.7l4.843-3.409A1.43,1.43,0,0,0,69.087,137.244ZM48.353,156.5c-4.947,2.856-8.958.541-8.958-5.172s4.011-12.659,8.958-15.515,8.958-.541,8.958,5.171S53.3,153.64,48.353,156.5Z" transform="translate(-25.01 -118.179)" fill="#f0f0f0"/>
        </g>
      </g>
    </g>
    <g id="Window" transform="translate(44.768 21.779)">
      <g id="Window-2" data-name="Window">
        <g id="Grupo_987530" data-name="Grupo 987530" transform="translate(0 7.116)">
          <g id="Trazado_645208" data-name="Trazado 645208" transform="translate(-85.099 -39.445)" fill="#fafafa" stroke-linecap="round" stroke-linejoin="round">
            <path d="M 89.66808319091797 206.2502288818359 C 89.38426971435547 206.2502288818359 89.10173034667969 206.13525390625 88.89289855957031 205.934814453125 C 88.67548370361328 205.7261199951172 88.55585479736328 205.4427947998047 88.55608367919922 205.1369781494141 L 88.55516815185547 113.4168167114258 L 212.4125671386719 41.99212265014648 L 212.4125671386719 133.2332000732422 C 212.4125671386719 134.5374145507812 211.4576721191406 136.1906585693359 210.327392578125 136.8433532714844 L 92.44071197509766 204.8155364990234 L 90.21569061279297 206.1007537841797 C 90.04381561279297 206.1998901367188 89.85948181152344 206.2502288818359 89.66808319091797 206.2502288818359 Z" stroke="none"/>
            <path d="M 211.9283752441406 42.83023071289062 L 89.03933715820312 113.6965026855469 L 89.04026794433594 205.1373443603516 C 89.04010009765625 205.3585357666016 89.14234924316406 205.5031433105469 89.22817993164062 205.5855102539062 C 89.34770202636719 205.7002563476562 89.50802612304688 205.7660522460938 89.66807556152344 205.7660522460938 C 89.77346801757812 205.7660522460938 89.87637329101562 205.7375183105469 89.97352600097656 205.6814727783203 L 92.19888305664062 204.3961029052734 L 210.0852661132812 136.4240570068359 C 211.0671081542969 135.8571014404297 211.9283752441406 134.3660583496094 211.9283752441406 133.2332153320312 L 211.9283752441406 42.83023071289062 M 212.896728515625 41.15399169921875 L 212.896728515625 133.2332153320312 C 212.896728515625 134.7213592529297 211.8513488769531 136.5224456787109 210.5695190429688 137.2626342773438 L 90.45785522460938 206.5199890136719 C 89.39744567871094 207.1317443847656 88.07098388671875 206.3610229492188 88.07191467285156 205.1365966796875 L 88.07098388671875 113.1371002197266 L 212.896728515625 41.15399169921875 Z" stroke="none" fill="#e0e0e0"/>
          </g>
          <path id="Trazado_645209" data-name="Trazado 645209" d="M206.388,37.4,81.554,109.38l2.969,1.714L209.348,39.111Z" transform="translate(-81.55 -37.401)" fill="#455a64" opacity="0.8"/>
          <path id="Trazado_645210" data-name="Trazado 645210" d="M85.355,290.538a1.609,1.609,0,0,1-.836-1.405v-92L81.55,195.42l0,91.491a2.585,2.585,0,0,0,.023.34,2.464,2.464,0,0,0,1.214,1.8l2.451,1.418.121.068Z" transform="translate(-81.546 -123.441)" fill="#ebebeb"/>
        </g>
        <g id="Grupo_987533" data-name="Grupo 987533" transform="translate(0.004)">
          <g id="Grupo_987531" data-name="Grupo 987531">
            <path id="Trazado_645211" data-name="Trazado 645211" d="M81.554,100.914V94.707a2.584,2.584,0,0,1,1.158-2.017L205.23,22.061a2.55,2.55,0,0,1,2.319-.006l.638.368a2.567,2.567,0,0,1,1.162,2.012v6.218L84.523,102.627Z" transform="translate(-81.554 -21.779)" fill="#ffd76a"/>
            <path id="Trazado_645212" data-name="Trazado 645212" d="M81.554,100.914V94.707a2.584,2.584,0,0,1,1.158-2.017L205.23,22.061a2.55,2.55,0,0,1,2.319-.006l.638.368a2.567,2.567,0,0,1,1.162,2.012v6.218L84.523,102.627Z" transform="translate(-81.554 -21.779)" fill="#fff" opacity="0.3"/>
            <path id="Trazado_645213" data-name="Trazado 645213" d="M88.071,98.608a2.584,2.584,0,0,1,1.158-2.017l122.51-70.633c.64-.374,1.158-.076,1.158.665V32.84L88.071,104.814Z" transform="translate(-85.102 -23.966)" fill="#ffd76a"/>
            <path id="Trazado_645214" data-name="Trazado 645214" d="M84.864,181.079a2.393,2.393,0,0,0-.338,1.148v6.206l-2.967-1.711V180.51a2.376,2.376,0,0,1,.338-1.142Z" transform="translate(-81.557 -107.585)" fill="#ffd76a"/>
            <path id="Trazado_645215" data-name="Trazado 645215" d="M84.864,181.079a2.393,2.393,0,0,0-.338,1.148v6.206l-2.967-1.711V180.51a2.376,2.376,0,0,1,.338-1.142Z" transform="translate(-81.557 -107.585)" opacity="0.15"/>
          </g>
          <g id="Grupo_987532" data-name="Grupo 987532" transform="translate(113.632 6.556)">
            <path id="Trazado_645216" data-name="Trazado 645216" d="M350.148,38.208c0,.695.488.976,1.09.629a2.409,2.409,0,0,0,1.09-1.887c0-.695-.488-.976-1.09-.629A2.408,2.408,0,0,0,350.148,38.208Z" transform="translate(-341.433 -36.172)" fill="#fafafa"/>
            <path id="Trazado_645217" data-name="Trazado 645217" d="M340.582,43.731c0,.695.487.976,1.089.629a2.408,2.408,0,0,0,1.09-1.887c0-.695-.488-.976-1.09-.629A2.407,2.407,0,0,0,340.582,43.731Z" transform="translate(-336.224 -39.179)" fill="#fafafa"/>
            <path id="Trazado_645218" data-name="Trazado 645218" d="M331.015,49.254c0,.7.487.977,1.089.629A2.407,2.407,0,0,0,333.194,48c0-.7-.488-.977-1.09-.629A2.407,2.407,0,0,0,331.015,49.254Z" transform="translate(-331.015 -42.186)" fill="#fafafa"/>
          </g>
        </g>
        <path id="Trazado_645219" data-name="Trazado 645219" d="M143.119,156.147v34.074a2.164,2.164,0,0,1-.983,1.7L108.63,211.315a.963.963,0,0,1-.168.079h0c-.463.181-.812-.084-.812-.644V176.672a2.08,2.08,0,0,1,.287-.966,2.027,2.027,0,0,1,.7-.732l33.509-19.395c.45-.26.834-.123.948.287a.675.675,0,0,1,.022.123C143.114,156.042,143.119,156.095,143.119,156.147Z" transform="translate(-95.757 -94.56)" fill="#e0e0e0"/>
        <path id="Trazado_645220" data-name="Trazado 645220" d="M273.085,61.327v48.282a2.162,2.162,0,0,1-.979,1.7l-62.3,35.966a1.175,1.175,0,0,1-.168.08c-.009,0-.013,0-.022.009-.455.159-.8-.1-.8-.653V98.423a2.04,2.04,0,0,1,.291-.966,1.985,1.985,0,0,1,.692-.732l62.3-35.971c.45-.26.834-.123.948.291a.643.643,0,0,1,.022.123C273.08,61.221,273.085,61.274,273.085,61.327Z" transform="translate(-150.847 -42.928)" fill="#e0e0e0"/>
        <g id="Grupo_987543" data-name="Grupo 987543" transform="translate(13.279 137.264)">
          <g id="Grupo_987536" data-name="Grupo 987536" transform="translate(0 12.413)">
            <g id="Grupo_987534" data-name="Grupo 987534">
              <path id="Trazado_645221" data-name="Trazado 645221" d="M112.9,360.072a2.056,2.056,0,0,1-1.043-.27,2.723,2.723,0,0,1-1.16-2.511,8.177,8.177,0,0,1,3.694-6.4h0a2.4,2.4,0,0,1,3.914,2.26,8.175,8.175,0,0,1-3.694,6.4A3.471,3.471,0,0,1,112.9,360.072Zm3.2-9.257a3.04,3.04,0,0,0-1.489.461h0a7.69,7.69,0,0,0-3.474,6.016,1.971,1.971,0,0,0,3.253,1.878,7.688,7.688,0,0,0,3.474-6.016,2.312,2.312,0,0,0-.94-2.129A1.627,1.627,0,0,0,116.1,350.815Z" transform="translate(-110.699 -350.373)" fill="#ffd76a"/>
            </g>
            <g id="Grupo_987535" data-name="Grupo 987535" transform="translate(2.643 2.606)">
              <path id="Trazado_645222" data-name="Trazado 645222" d="M116.524,358.255a.164.164,0,0,1-.022-.11.332.332,0,0,1,.041-.134l.861-1.542c.021-.037.043-.073.066-.108a.219.219,0,0,1,.074-.076l.31-.179a.058.058,0,0,1,.075.005.13.13,0,0,1,.031.1v3.948a.31.31,0,0,1-.031.134.206.206,0,0,1-.075.092l-.322.186a.057.057,0,0,1-.075-.006.129.129,0,0,1-.031-.1v-3.019l-.564,1a.162.162,0,0,1-.077.078.064.064,0,0,1-.074-.021Z" transform="translate(-116.501 -356.095)" fill="#ffd76a"/>
            </g>
          </g>
          <g id="Grupo_987539" data-name="Grupo 987539" transform="translate(10.75 6.207)">
            <g id="Grupo_987537" data-name="Grupo 987537">
              <path id="Trazado_645223" data-name="Trazado 645223" d="M136.5,346.447a2.061,2.061,0,0,1-1.044-.27,2.724,2.724,0,0,1-1.159-2.511,8.176,8.176,0,0,1,3.694-6.4h0a2.4,2.4,0,0,1,3.915,2.26,8.176,8.176,0,0,1-3.694,6.4A3.472,3.472,0,0,1,136.5,346.447Zm3.2-9.257a3.042,3.042,0,0,0-1.49.461h0a7.687,7.687,0,0,0-3.474,6.016,1.97,1.97,0,0,0,3.252,1.878,7.688,7.688,0,0,0,3.474-6.016,2.312,2.312,0,0,0-.939-2.129A1.626,1.626,0,0,0,139.7,337.189Z" transform="translate(-134.3 -336.748)" fill="#e0e0e0"/>
            </g>
            <g id="Grupo_987538" data-name="Grupo 987538" transform="translate(2.745 2.55)">
              <path id="Trazado_645224" data-name="Trazado 645224" d="M141.612,344.276a1.384,1.384,0,0,0,.153-.388,1.579,1.579,0,0,0,.034-.3.563.563,0,0,0-.1-.368c-.067-.077-.176-.072-.329.016a.753.753,0,0,0-.319.35,1.9,1.9,0,0,0-.145.5.4.4,0,0,1-.048.147.227.227,0,0,1-.072.082l-.313.181a.064.064,0,0,1-.078,0,.116.116,0,0,1-.03-.1,2.584,2.584,0,0,1,.092-.573,2.879,2.879,0,0,1,.212-.55,2.435,2.435,0,0,1,.312-.47,1.47,1.47,0,0,1,.385-.329.737.737,0,0,1,.433-.125.463.463,0,0,1,.3.15.8.8,0,0,1,.177.338,1.679,1.679,0,0,1,.058.447q0,.153-.012.3a1.762,1.762,0,0,1-.056.307,2.912,2.912,0,0,1-.128.361,4.656,4.656,0,0,1-.222.449l-.734,1.457,1.1-.637a.057.057,0,0,1,.075.006.128.128,0,0,1,.032.1v.435a.3.3,0,0,1-.032.134.2.2,0,0,1-.075.092l-1.854,1.07a.058.058,0,0,1-.076-.005.132.132,0,0,1-.031-.1v-.373a.538.538,0,0,1,.04-.2,1.114,1.114,0,0,1,.067-.147Z" transform="translate(-140.326 -342.347)" fill="#e0e0e0"/>
            </g>
          </g>
          <g id="Grupo_987542" data-name="Grupo 987542" transform="translate(21.5)">
            <g id="Grupo_987540" data-name="Grupo 987540">
              <path id="Trazado_645225" data-name="Trazado 645225" d="M160.1,332.821a2.061,2.061,0,0,1-1.043-.269,2.726,2.726,0,0,1-1.16-2.511,8.174,8.174,0,0,1,3.694-6.4h0a2.4,2.4,0,0,1,3.914,2.259,8.175,8.175,0,0,1-3.694,6.4A3.476,3.476,0,0,1,160.1,332.821Zm3.2-9.257a3.041,3.041,0,0,0-1.49.461h0a7.688,7.688,0,0,0-3.473,6.016,1.97,1.97,0,0,0,3.252,1.878,7.688,7.688,0,0,0,3.474-6.016,2.312,2.312,0,0,0-.94-2.129A1.624,1.624,0,0,0,163.3,323.564Z" transform="translate(-157.9 -323.122)" fill="#e0e0e0"/>
            </g>
            <g id="Grupo_987541" data-name="Grupo 987541" transform="translate(2.717 2.209)">
              <path id="Trazado_645226" data-name="Trazado 645226" d="M165.831,327.984a.058.058,0,0,1,.075.005.132.132,0,0,1,.032.1v.433a.391.391,0,0,1-.029.143c-.021.051-.04.1-.058.134l-.58,1.276a.744.744,0,0,1,.324-.052.419.419,0,0,1,.248.111.63.63,0,0,1,.159.278,1.542,1.542,0,0,1,.056.445,2.3,2.3,0,0,1-.082.612,2.375,2.375,0,0,1-.226.549,2.323,2.323,0,0,1-.341.46,1.915,1.915,0,0,1-.426.338,1.21,1.21,0,0,1-.483.178.565.565,0,0,1-.341-.062.507.507,0,0,1-.208-.241.988.988,0,0,1-.084-.349.26.26,0,0,1,.03-.136.216.216,0,0,1,.077-.091l.313-.181a.05.05,0,0,1,.066,0,.3.3,0,0,1,.054.082.309.309,0,0,0,.063.1.2.2,0,0,0,.105.056.361.361,0,0,0,.165-.013,1.055,1.055,0,0,0,.242-.109,1.12,1.12,0,0,0,.391-.375.938.938,0,0,0,.148-.511c0-.184-.049-.286-.148-.308a.578.578,0,0,0-.391.107l-.33.19a.057.057,0,0,1-.075-.006.126.126,0,0,1-.032-.1v-.434a.4.4,0,0,1,.029-.143c.02-.051.04-.1.058-.134l.556-1.219-1.1.633a.058.058,0,0,1-.075-.005.133.133,0,0,1-.032-.1v-.434a.311.311,0,0,1,.032-.135.209.209,0,0,1,.075-.092Z" transform="translate(-163.865 -327.972)" fill="#e0e0e0"/>
            </g>
          </g>
        </g>
      </g>
    </g>
    <g id="Character_2" data-name="Character 2" transform="translate(119.487 48.443)">
      <g id="Character">
        <g id="Grupo_987549" data-name="Grupo 987549" transform="translate(0 5.965)">
          <g id="Arm" transform="translate(56.663 10.084)">
            <path id="Trazado_645227" data-name="Trazado 645227" d="M390.35,118.612l-10.749.309c-.4-.34-2.5-2.441-2.5-2.441s-6.188-.793-6.225-.568,5.469,6.912,6.075,7.573a3.763,3.763,0,0,0,2.094,1.038c1.6.1,10.392.181,10.392.181Z" transform="translate(-370.464 -115.725)" fill="#b16668"/>
            <path id="Trazado_645228" data-name="Trazado 645228" d="M390.392,118.436c-.86-.237-11.088.163-11.088.163l-2.623-2.477s-1.489-.271-3.731-.48a9.693,9.693,0,0,0-2.976,0s4.979,6.217,5.748,7.241a3.239,3.239,0,0,0,2.967,1.713c2.17.087,10.673.138,10.673.138Z" transform="translate(-369.974 -115.549)" fill="#455a64"/>
          </g>
          <g id="Tab">
            <g id="Grupo_987544" data-name="Grupo 987544">
              <path id="Trazado_645229" data-name="Trazado 645229" d="M246.9,181.492l-.34-.2a2.172,2.172,0,0,1-.983-1.7V131.312a2.17,2.17,0,0,1,.983-1.7l62.3-35.965a2.172,2.172,0,0,1,1.966,0l.339.2a2.171,2.171,0,0,1,.983,1.7v48.282a2.173,2.173,0,0,1-.982,1.7l-62.3,35.965A2.174,2.174,0,0,1,246.9,181.492Z" transform="translate(-245.58 -93.411)" fill="#ffd76a"/>
              <path id="Trazado_645230" data-name="Trazado 645230" d="M312.483,95.386c-.066-.51-.478-.7-.972-.412l-62.3,35.969a2.019,2.019,0,0,0-.695.731l-2.3-1.328a1.994,1.994,0,0,1,.695-.736l62.293-35.964a2.17,2.17,0,0,1,1.966,0l.339.2A2.2,2.2,0,0,1,312.483,95.386Z" transform="translate(-245.927 -93.411)" fill="#fff" opacity="0.4"/>
              <path id="Trazado_645231" data-name="Trazado 645231" d="M248.7,225.719a2.181,2.181,0,0,1-1.8-.077l-.345-.2a2.175,2.175,0,0,1-.978-1.7v-48.28a1.964,1.964,0,0,1,.288-.967l2.3,1.328a2.05,2.05,0,0,0-.288.967v48.285C247.885,225.637,248.241,225.9,248.7,225.719Z" transform="translate(-245.583 -137.561)" opacity="0.1"/>
            </g>
            <g id="Grupo_987548" data-name="Grupo 987548" transform="translate(5.973 17.962)">
              <line id="Línea_975" data-name="Línea 975" y1="29.999" x2="51.96" transform="translate(2.686 29.456)" fill="none" stroke="#37474f" stroke-linecap="round" stroke-linejoin="round" stroke-width="0.968"/>
              <g id="Grupo_987545" data-name="Grupo 987545">
                <path id="Trazado_645232" data-name="Trazado 645232" d="M258.979,253.546l2.113-1.22c.158-.091.286-.017.286.165v.373a.631.631,0,0,1-.286.5l-2.113,1.22c-.158.091-.287.017-.287-.166v-.373A.633.633,0,0,1,258.979,253.546Z" transform="translate(-258.692 -197.88)" fill="#455a64"/>
                <path id="Trazado_645233" data-name="Trazado 645233" d="M258.979,242.2l2.113-1.219c.158-.092.286-.017.286.165v.373a.633.633,0,0,1-.286.5l-2.113,1.219c-.158.091-.287.017-.287-.165v-.373A.635.635,0,0,1,258.979,242.2Z" transform="translate(-258.692 -191.7)" fill="#455a64"/>
                <path id="Trazado_645234" data-name="Trazado 645234" d="M258.979,230.842l2.113-1.219c.158-.092.286-.017.286.165v.373a.632.632,0,0,1-.286.5l-2.113,1.219c-.158.092-.287.017-.287-.165v-.373A.635.635,0,0,1,258.979,230.842Z" transform="translate(-258.692 -185.517)" fill="#455a64"/>
                <path id="Trazado_645235" data-name="Trazado 645235" d="M258.979,219.49l2.113-1.219c.158-.091.286-.017.286.165v.373a.633.633,0,0,1-.286.5l-2.113,1.219c-.158.092-.287.017-.287-.165v-.373A.635.635,0,0,1,258.979,219.49Z" transform="translate(-258.692 -179.336)" fill="#455a64"/>
                <path id="Trazado_645236" data-name="Trazado 645236" d="M258.979,208.138l2.113-1.22c.158-.091.286-.017.286.165v.373a.632.632,0,0,1-.286.5l-2.113,1.219c-.158.092-.287.017-.287-.165v-.373A.633.633,0,0,1,258.979,208.138Z" transform="translate(-258.692 -173.155)" fill="#455a64"/>
                <path id="Trazado_645237" data-name="Trazado 645237" d="M258.979,196.774l2.113-1.219c.158-.092.286-.017.286.165v.373a.633.633,0,0,1-.286.5l-2.113,1.219c-.158.092-.287.017-.287-.165v-.373A.635.635,0,0,1,258.979,196.774Z" transform="translate(-258.692 -166.967)" fill="#455a64"/>
                <path id="Trazado_645238" data-name="Trazado 645238" d="M258.979,185.424l2.113-1.219c.158-.092.286-.017.286.165v.373a.631.631,0,0,1-.286.5l-2.113,1.22c-.158.091-.287.017-.287-.165v-.373A.634.634,0,0,1,258.979,185.424Z" transform="translate(-258.692 -160.787)" fill="#455a64"/>
                <path id="Trazado_645239" data-name="Trazado 645239" d="M296.428,145.891l22.547-13c.206-.119.373-.022.373.215v.485a.824.824,0,0,1-.372.645l-22.548,13c-.205.119-.373.022-.373-.215v-.485A.824.824,0,0,1,296.428,145.891Z" transform="translate(-279.036 -132.843)" fill="#455a64"/>
              </g>
              <g id="Grupo_987546" data-name="Grupo 987546" transform="translate(6.269 32.677)">
                <path id="Trazado_645240" data-name="Trazado 645240" d="M272.742,261.5l2.112-1.219c.159-.092.287-.017.287.165v.373a.632.632,0,0,1-.287.5l-2.112,1.22c-.159.092-.287.017-.287-.165V262A.633.633,0,0,1,272.742,261.5Z" transform="translate(-272.455 -234.887)" fill="#455a64"/>
                <path id="Trazado_645241" data-name="Trazado 645241" d="M286.513,253.55l2.112-1.22c.159-.091.287-.017.287.165v.373a.632.632,0,0,1-.287.5l-2.112,1.219c-.159.092-.286.017-.286-.165v-.373A.632.632,0,0,1,286.513,253.55Z" transform="translate(-279.954 -230.558)" fill="#455a64"/>
                <path id="Trazado_645242" data-name="Trazado 645242" d="M300.286,245.595l2.112-1.219c.159-.092.287-.017.287.165v.373a.633.633,0,0,1-.287.5l-2.112,1.219c-.158.091-.287.017-.287-.165v-.373A.635.635,0,0,1,300.286,245.595Z" transform="translate(-287.452 -226.227)" fill="#455a64"/>
                <path id="Trazado_645243" data-name="Trazado 645243" d="M314.057,237.64l2.112-1.22c.159-.091.287-.017.287.166v.373a.632.632,0,0,1-.287.5l-2.112,1.22c-.159.091-.286.017-.286-.166v-.373A.633.633,0,0,1,314.057,237.64Z" transform="translate(-294.951 -221.896)" fill="#455a64"/>
                <path id="Trazado_645244" data-name="Trazado 645244" d="M327.83,229.692l2.112-1.219c.159-.092.286-.017.286.165v.373a.633.633,0,0,1-.286.5l-2.112,1.219c-.159.092-.287.017-.287-.165v-.373A.633.633,0,0,1,327.83,229.692Z" transform="translate(-302.45 -217.568)" fill="#455a64"/>
                <path id="Trazado_645245" data-name="Trazado 645245" d="M341.6,221.743l2.112-1.22c.159-.091.287-.017.287.165v.373a.632.632,0,0,1-.287.5l-2.112,1.22c-.159.091-.286.017-.286-.166v-.373A.632.632,0,0,1,341.6,221.743Z" transform="translate(-309.949 -213.24)" fill="#455a64"/>
                <path id="Trazado_645246" data-name="Trazado 645246" d="M355.374,213.791l2.112-1.22c.159-.092.286-.017.286.165v.373a.633.633,0,0,1-.286.5l-2.112,1.219c-.159.092-.287.017-.287-.165v-.373A.632.632,0,0,1,355.374,213.791Z" transform="translate(-317.447 -208.91)" fill="#455a64"/>
                <path id="Trazado_645247" data-name="Trazado 645247" d="M369.146,205.839l2.112-1.219c.158-.092.287-.017.287.165v.373a.633.633,0,0,1-.287.5l-2.112,1.219c-.159.092-.286.017-.286-.165v-.373A.633.633,0,0,1,369.146,205.839Z" transform="translate(-324.946 -204.58)" fill="#455a64"/>
              </g>
              <g id="Grupo_987547" data-name="Grupo 987547" transform="translate(7.612 12.799)">
                <line id="Línea_976" data-name="Línea 976" y1="16.517" transform="translate(0 25.226)" fill="none" stroke="#fafafa" stroke-linecap="round" stroke-linejoin="round" stroke-width="0.726" stroke-dasharray="2.905"/>
                <line id="Línea_977" data-name="Línea 977" y1="28.465" transform="translate(6.273 9.675)" fill="none" stroke="#fafafa" stroke-linecap="round" stroke-linejoin="round" stroke-width="0.726" stroke-dasharray="2.905"/>
                <line id="Línea_978" data-name="Línea 978" y1="12.449" transform="translate(12.546 22.087)" fill="none" stroke="#fafafa" stroke-linecap="round" stroke-linejoin="round" stroke-width="0.726" stroke-dasharray="2.905"/>
                <line id="Línea_979" data-name="Línea 979" y1="8.068" transform="translate(18.82 22.864)" fill="none" stroke="#fafafa" stroke-linecap="round" stroke-linejoin="round" stroke-width="0.726" stroke-dasharray="2.905"/>
                <line id="Línea_980" data-name="Línea 980" y1="23.339" transform="translate(25.093 3.989)" fill="none" stroke="#fafafa" stroke-linecap="round" stroke-linejoin="round" stroke-width="0.726" stroke-dasharray="2.905"/>
                <line id="Línea_981" data-name="Línea 981" y1="16.517" transform="translate(31.366 7.207)" fill="none" stroke="#fafafa" stroke-linecap="round" stroke-linejoin="round" stroke-width="0.726" stroke-dasharray="2.905"/>
                <line id="Línea_982" data-name="Línea 982" y1="8.384" transform="translate(37.639 11.737)" fill="none" stroke="#fafafa" stroke-linecap="round" stroke-linejoin="round" stroke-width="0.726" stroke-dasharray="2.905"/>
                <line id="Línea_983" data-name="Línea 983" y1="16.517" transform="translate(43.913)" fill="none" stroke="#fafafa" stroke-linecap="round" stroke-linejoin="round" stroke-width="0.726" stroke-dasharray="2.905"/>
              </g>
              <path id="Trazado_645248" data-name="Trazado 645248" d="M276.868,185.111c.809-.476,1.464-2.344,1.464-4.171v-5.8a6.356,6.356,0,0,1,2.865-4.962l.748-.432c1.576-.91,2.865-.165,2.865,1.654v9.935c0,1.819,1.29,2.564,2.865,1.654l1.381-.8a1.2,1.2,0,0,1,1.806,1.043h0a1.2,1.2,0,0,0,1.791,1.05l1.428-.8a6.462,6.462,0,0,0,2.84-5.006V168.424a6.236,6.236,0,0,1,2.888-4.92l.708-.395c1.589-.887,2.889-.124,2.889,1.7v1.659c0,1.82,1.289,2.564,2.865,1.654l.759-.438c1.576-.91,2.865-.165,2.865,1.654v1.659c0,1.819,1.289,2.564,2.865,1.654l.352-.2a6.355,6.355,0,0,0,2.865-4.962v-1.659c0-1.827.747-3.74,1.669-4.272l1.669-.964v16.551L275.4,202.491V185.974Z" transform="translate(-267.791 -147.95)" fill="#fafafa" opacity="0.6"/>
              <path id="Trazado_645249" data-name="Trazado 645249" d="M275.4,185.974l1.465-.863c.809-.476,1.464-2.344,1.464-4.171v-5.8a6.356,6.356,0,0,1,2.865-4.962l.748-.432c1.576-.91,2.865-.165,2.865,1.654v9.935c0,1.819,1.29,2.564,2.865,1.654l1.381-.8a1.2,1.2,0,0,1,1.806,1.043h0a1.2,1.2,0,0,0,1.791,1.05l1.428-.8a6.462,6.462,0,0,0,2.84-5.006V168.424a6.236,6.236,0,0,1,2.888-4.92l.708-.395c1.589-.887,2.889-.124,2.889,1.7v1.659c0,1.82,1.289,2.564,2.865,1.654l.759-.438c1.576-.91,2.865-.165,2.865,1.654v1.659c0,1.819,1.289,2.564,2.865,1.654l.352-.2a6.355,6.355,0,0,0,2.865-4.962v-1.659c0-1.827.747-3.74,1.669-4.272l1.669-.964" transform="translate(-267.791 -147.95)" fill="none" stroke="#fafafa" stroke-linecap="round" stroke-linejoin="round" stroke-width="0.968"/>
              <path id="Trazado_645250" data-name="Trazado 645250" d="M288.1,178.059c.495-.286.9-.054.9.517a1.98,1.98,0,0,1-.9,1.551c-.5.286-.9.054-.9-.517A1.979,1.979,0,0,1,288.1,178.059Z" transform="translate(-274.219 -157.396)" fill="#fafafa"/>
              <path id="Trazado_645251" data-name="Trazado 645251" d="M343.192,173.58c.495-.286.9-.054.9.517a1.981,1.981,0,0,1-.9,1.552c-.5.286-.9.054-.9-.517A1.981,1.981,0,0,1,343.192,173.58Z" transform="translate(-304.214 -154.957)" fill="#37474f"/>
              <path id="Trazado_645252" data-name="Trazado 645252" d="M302.28,206.285c.495-.286.9-.054.9.517a1.98,1.98,0,0,1-.9,1.552c-.5.286-.9.054-.9-.517A1.979,1.979,0,0,1,302.28,206.285Z" transform="translate(-281.937 -172.765)" fill="#37474f"/>
            </g>
          </g>
          <path id="Trazado_645253" data-name="Trazado 645253" d="M359.8,103.563a16.636,16.636,0,0,1,2,.532,2.4,2.4,0,0,1,1.65,1.86,3.614,3.614,0,0,1,.074,1.467.889.889,0,0,1-.2.442,2.033,2.033,0,0,1-.577.468c-.914.5-1.626.814-2.456.169-.516-.4-1-.858-1.541-1.219a5.1,5.1,0,0,0-1.374-.558,6.975,6.975,0,0,0-1.715-.231,2.9,2.9,0,0,0-1.256.474,1.168,1.168,0,0,1,.253-1.391,9.8,9.8,0,0,1,2.89-2.013A4.736,4.736,0,0,1,359.8,103.563Z" transform="translate(-304.773 -98.862)" fill="#b16668"/>
        </g>
        <g id="Grupo_987559" data-name="Grupo 987559" transform="translate(59.296)">
          <g id="Character-2" data-name="Character" transform="translate(5.434)">
            <g id="Grupo_987558" data-name="Grupo 987558">
              <g id="Botom" transform="translate(0 42.71)">
                <g id="Grupo_987553" data-name="Grupo 987553">
                  <g id="Grupo_987552" data-name="Grupo 987552">
                    <path id="Trazado_645254" data-name="Trazado 645254" d="M440.7,292.844a4.32,4.32,0,0,1-3.843.114l-.932-7.539,4.567.465Z" transform="translate(-413.952 -234.703)" fill="#b16668"/>
                    <path id="Trazado_645255" data-name="Trazado 645255" d="M409.8,283.824c-.922,2.159-2.716,1.622-4.76.318l.126-7.607,4.831-.143Z" transform="translate(-397.134 -229.787)" fill="#b16668"/>
                    <g id="Grupo_987550" data-name="Grupo 987550" transform="translate(18.382 56.164)">
                      <path id="Trazado_645256" data-name="Trazado 645256" d="M428.107,310.295a1.76,1.76,0,0,0,.087,1.166,3.677,3.677,0,0,0,2.632,1.017,6.341,6.341,0,0,0,3.715-.768,2.6,2.6,0,0,0,1.335-2.08,5.386,5.386,0,0,1,.327-2.357c.359-.621.941-1.326,1.062-1.66a3.343,3.343,0,0,0-.041-1.748Z" transform="translate(-428.04 -300.91)" fill="#263238"/>
                      <path id="Trazado_645257" data-name="Trazado 645257" d="M432.037,299.152a4.066,4.066,0,0,1-.155.959,8.728,8.728,0,0,1-.866,1.914,7.653,7.653,0,0,1-.6.9c-.44.556-.992,1.018-1.459,1.552a3.081,3.081,0,0,0-.875,1.876c-.029,1.183,1.265,1.546,2.257,1.693a7.247,7.247,0,0,0,3.2-.256,2.946,2.946,0,0,0,2.09-2.418c.045-.329.015-.664.044-1a4.64,4.64,0,0,1,.857-2.094,6.224,6.224,0,0,0,.671-1.146,3.547,3.547,0,0,0-.2-2.278c-.189-.624-.4-1.33-.622-1.264a.8.8,0,0,1-.041.379,1.673,1.673,0,0,0-.163.377,2.868,2.868,0,0,1-.164.491,1.282,1.282,0,0,1-.507.594q-.042-.668-.084-1.336a.467.467,0,0,0-.5-.542,8.392,8.392,0,0,0-2.533-.134.466.466,0,0,0-.335.159.491.491,0,0,0-.047.3A11.408,11.408,0,0,1,432.037,299.152Z" transform="translate(-428.062 -297.377)" fill="#455a64"/>
                      <path id="Trazado_645258" data-name="Trazado 645258" d="M434.165,306.955a3.379,3.379,0,0,1,1.956-.335,3.269,3.269,0,0,1,1.548.492.349.349,0,0,0,.45-.049h0a.328.328,0,0,0-.048-.5,3.32,3.32,0,0,0-1.742-.587,3.447,3.447,0,0,0-1.711.185S434.023,306.568,434.165,306.955Z" transform="translate(-431.363 -302.055)" fill="#f5f5f5"/>
                      <path id="Trazado_645259" data-name="Trazado 645259" d="M432.05,309.712a4.256,4.256,0,0,1,2.169-.287,3.066,3.066,0,0,1,1.506.522.349.349,0,0,0,.45-.049h0a.329.329,0,0,0-.048-.5,3.455,3.455,0,0,0-1.781-.637c-1.329-.054-1.666.227-1.666.227A1.1,1.1,0,0,0,432.05,309.712Z" transform="translate(-430.223 -303.572)" fill="#f5f5f5"/>
                      <path id="Trazado_645260" data-name="Trazado 645260" d="M437.689,303.14a3.285,3.285,0,0,0-1.663.189c-.23.138-.373.512-.22.6a3.063,3.063,0,0,1,1.472-.247,4.385,4.385,0,0,1,1.446.352c.115.047.251.113.371.175a.315.315,0,0,0,.432-.148h0a.3.3,0,0,0-.126-.376A4.258,4.258,0,0,0,437.689,303.14Z" transform="translate(-432.234 -300.504)" fill="#f5f5f5"/>
                    </g>
                    <g id="Grupo_987551" data-name="Grupo 987551" transform="translate(0 51.875)">
                      <path id="Trazado_645261" data-name="Trazado 645261" d="M387.9,300.577a1.43,1.43,0,0,0,.09,1.049,5.262,5.262,0,0,0,3.952.951,9.024,9.024,0,0,0,4.435-1.7,5.187,5.187,0,0,1,2.739-.793c1.071-.093,2.465-.67,2.685-1.179a2.377,2.377,0,0,0-.076-1.365Z" transform="translate(-387.765 -293.177)" fill="#263238"/>
                      <path id="Trazado_645262" data-name="Trazado 645262" d="M396.326,288.438l-.568-.189a.468.468,0,0,0-.322-.028c-.137.056-.186.221-.219.366a5.359,5.359,0,0,1-.209.949,2.353,2.353,0,0,1-.589.657,9.95,9.95,0,0,1-1.7,1.169c-.7.4-1.381.717-2.1,1.068a18.18,18.18,0,0,0-2.291,1,1.563,1.563,0,0,0,.086,2.582,7.658,7.658,0,0,0,5.353.21c1.246-.394,2.6-1.778,4.246-1.956,1.046-.113,3.021-.467,3.672-1.283.239-.361-.128-1.47-.43-2.429-.33-1.046-.493-2.693-.84-2.59-.014.352-.311.563-.487.864a6.192,6.192,0,0,0-.352.849,1.537,1.537,0,0,1-.526.738.7.7,0,0,1-.851-.023c-.319-.309-.153-.875-.389-1.251a1.329,1.329,0,0,0-.754-.462Z" transform="translate(-387.686 -287.962)" fill="#455a64"/>
                      <path id="Trazado_645263" data-name="Trazado 645263" d="M400.849,293.44a.973.973,0,0,1,.759-.542,2.82,2.82,0,0,1,1.865.64.392.392,0,0,1-.037.648h0a.392.392,0,0,1-.449-.036A2.992,2.992,0,0,0,400.849,293.44Z" transform="translate(-394.853 -290.639)" fill="#f5f5f5"/>
                      <path id="Trazado_645264" data-name="Trazado 645264" d="M397.656,295.427a1.121,1.121,0,0,1,.9-.5,3.492,3.492,0,0,1,2.04.7.383.383,0,0,1-.034.626h0a.374.374,0,0,1-.432-.037A3,3,0,0,0,397.656,295.427Z" transform="translate(-393.115 -291.754)" fill="#f5f5f5"/>
                      <path id="Trazado_645265" data-name="Trazado 645265" d="M394.119,297.227a1.256,1.256,0,0,1,.941-.456,3.356,3.356,0,0,1,1.955.705.383.383,0,0,1-.034.626h0a.374.374,0,0,1-.432-.037A2.865,2.865,0,0,0,394.119,297.227Z" transform="translate(-391.189 -292.758)" fill="#f5f5f5"/>
                    </g>
                    <path id="Trazado_645266" data-name="Trazado 645266" d="M420.459,175.738c.519,8.264,1.358,27.819,1.358,27.819.118,1.026.5,3.494.685,7.2.271,5.372-.154,17.231-.154,17.231a5.8,5.8,0,0,1-4.586.363s-3.056-16.912-4.034-22.187c-.859-4.635-2.533-14.689-2.533-14.689l-.783,12.618a37.072,37.072,0,0,1-.182,6.824c-.307,2.45-1.783,13.088-1.783,13.088a9.736,9.736,0,0,1-5.186.041s-.473-17.361-.584-19.618c-.126-2.573-.664-30.348-.664-30.348Z" transform="translate(-395.487 -174.078)" fill="#37474f"/>
                    <path id="Trazado_645267" data-name="Trazado 645267" d="M414.1,201.78l-1.425-6.742s-3.4-.2-5.329-2.031c0,0,.389,1.844,4.685,2.829l1.427,6.822.142,6.343Z" transform="translate(-398.388 -184.385)" fill="#263238"/>
                  </g>
                </g>
              </g>
              <g id="Grupo_987557" data-name="Grupo 987557" transform="translate(6.343)">
                <path id="Trazado_645268" data-name="Trazado 645268" d="M418.681,122.531c1.624.289,1.731,1.094,2.087,2.7a13.206,13.206,0,0,1,.414,3.96l-1.209,9.524.415,10.969c-2.614,2.844-13.067,3.756-18.776-.413,0,0,.062-18.02.325-20.912.46-5.053,2.752-6.848,6.113-6.836l5.751.49Z" transform="translate(-401.612 -102.755)" fill="#ffd76a"/>
                <g id="Grupo_987556" data-name="Grupo 987556" transform="translate(0.561)">
                  <path id="Trazado_645269" data-name="Trazado 645269" d="M413.538,89.57a5.105,5.105,0,1,1-5.088-5.122A5.1,5.1,0,0,1,413.538,89.57Z" transform="translate(-403.108 -82.566)" fill="#263238"/>
                  <g id="Grupo_987554" data-name="Grupo 987554">
                    <path id="Trazado_645270" data-name="Trazado 645270" d="M429.149,94.37l1.09-2.926a1.916,1.916,0,0,1,1.584.563c.678.7.291,2.877-.565,5.008a43.994,43.994,0,0,1-1.175,4.521,1.758,1.758,0,0,1-1.02.817Z" transform="translate(-417.12 -86.367)" fill="#263238"/>
                    <path id="Trazado_645271" data-name="Trazado 645271" d="M416.155,94.309c.312.188.76-.411,1.147-.813a1.356,1.356,0,0,1,2.269.376,2.831,2.831,0,0,1-1.556,3.433c-1.709.53-1.961-.566-1.961-.566L415.9,102.9a5.493,5.493,0,0,1-4.154,3.13c-3.027.4-2.4-2.093-1.4-3.312l.011-1.874a10.758,10.758,0,0,1-2.3.11,3.128,3.128,0,0,1-2.417-2.551c-.6-2.184-.83-3.947-.3-8.237.585-4.7,6.056-4.732,9-2.862S416.155,94.309,416.155,94.309Z" transform="translate(-404.044 -83.489)" fill="#b16668"/>
                    <path id="Trazado_645272" data-name="Trazado 645272" d="M414.923,91.549c.494-.142.853-.932,1.179-1.226.54-.489-.139-4.932-.139-4.932a2.1,2.1,0,0,0-.512-2.248c-.735-.815-1.969-.91-4.075-1.248-1.039-.167-2.264-.249-3.293-.44a10.421,10.421,0,0,1-3.063-.978.937.937,0,0,0-.584-.152.552.552,0,0,0-.368.309,1.035,1.035,0,0,0-.086.485,1.857,1.857,0,0,0,.089.514c.031.1.234.4.191.484-.107.214-.916-.146-1.079-.195a.171.171,0,0,0-.119-.006.157.157,0,0,0-.066.076,1.969,1.969,0,0,0,.093,1.707,5.777,5.777,0,0,0,2.9,2.466,7.961,7.961,0,0,0,3.951.55,7.582,7.582,0,0,0,1.684-.392A4.525,4.525,0,0,0,412,86.9a2.58,2.58,0,0,0,.545.477,2.286,2.286,0,0,0,.656.306c.241.062.47.032.6.292a1.252,1.252,0,0,1,.1.543l.049,1.632a2.654,2.654,0,0,0,.11.818.9.9,0,0,0,.551.578A.546.546,0,0,0,414.923,91.549Z" transform="translate(-402.844 -80.315)" fill="#263238"/>
                    <path id="Trazado_645273" data-name="Trazado 645273" d="M416.711,115.53a21.475,21.475,0,0,0,3.785-1.072,3.227,3.227,0,0,0,1.359-1.335,4.409,4.409,0,0,1-.775,1.577c-.719.913-4.371,1.575-4.371,1.575Z" transform="translate(-410.393 -98.179)" fill="#9a4a4d"/>
                  </g>
                  <g id="Grupo_987555" data-name="Grupo 987555" transform="translate(1.494 7.789)">
                    <path id="Trazado_645274" data-name="Trazado 645274" d="M417.624,101.511a.562.562,0,1,0,.563-.583A.571.571,0,0,0,417.624,101.511Z" transform="translate(-412.385 -99.327)" fill="#263238"/>
                    <path id="Trazado_645275" data-name="Trazado 645275" d="M419.1,97.98l1.244.807a.778.778,0,0,0-.229-1.052A.723.723,0,0,0,419.1,97.98Z" transform="translate(-413.187 -97.526)" fill="#263238"/>
                    <path id="Trazado_645276" data-name="Trazado 645276" d="M417.317,109.705l-1.976.845a1.09,1.09,0,0,0,1.45.575A1.043,1.043,0,0,0,417.317,109.705Z" transform="translate(-411.142 -104.106)" fill="#9a4a4d"/>
                    <path id="Trazado_645277" data-name="Trazado 645277" d="M406.214,98.48l1.182-.717a.664.664,0,0,0-.93-.251A.726.726,0,0,0,406.214,98.48Z" transform="translate(-406.123 -97.414)" fill="#263238"/>
                    <path id="Trazado_645278" data-name="Trazado 645278" d="M407.339,101.123a.562.562,0,1,0,.563-.583A.571.571,0,0,0,407.339,101.123Z" transform="translate(-406.785 -99.116)" fill="#263238"/>
                    <path id="Trazado_645279" data-name="Trazado 645279" d="M411.449,101.158l-.479,3.584-1.829-.788Z" transform="translate(-407.766 -99.453)" fill="#9a4a4d"/>
                  </g>
                </g>
              </g>
            </g>
          </g>
          <path id="Trazado_645280" data-name="Trazado 645280" d="M404.8,123.818l-6.789,14.662s-9.515-.3-12.639-.871c-1.065-.195-.877-.783-1.309-1.925s-1.048-.924-1.048-.924l.01,1.553c.036,1.025-1.6,1.548-2.319,1.829-1.193.464-2.5.759-3.728,1.142a1.811,1.811,0,0,0-1.093.663,1.158,1.158,0,0,0,.037,1.13,3.38,3.38,0,0,0,2.427,1.988,15.068,15.068,0,0,0,4.234-.452,12.651,12.651,0,0,1,4.253-.441c1.5.2,3.695.448,5.185.718,1.716.311,5.4.9,6.9.964,1.077.046,1.821.488,3.032-1.481.843-1.371,2.753-4.951,4.372-8.114,1.668-3.257,2.225-5.3,2.137-7.362C408.418,125.847,407.535,124.036,404.8,123.818Z" transform="translate(-375.756 -104.002)" fill="#b16668"/>
          <path id="Trazado_645281" data-name="Trazado 645281" d="M423.2,123.665a5.809,5.809,0,0,1,3.448.978c.828.7,1.558,1.871.381,5.994s-5.915,11.774-6.614,12.722-1.727.7-3.733.484-6.242-1.118-6.242-1.118a17.081,17.081,0,0,0,.368-4.6l5.929.129L420.472,129A19.386,19.386,0,0,1,423.2,123.665Z" transform="translate(-394.642 -103.919)" fill="#455a64"/>
        </g>
      </g>
    </g>
    <g id="Character_1" data-name="Character 1" transform="translate(59.232 86.962)">
      <g id="Character-3" data-name="Character">
        <g id="Grupo_987569" data-name="Grupo 987569" transform="translate(32.715 63.608)">
          <g id="Grupo_987562" data-name="Grupo 987562" transform="translate(0.087 51.314)">
            <g id="Grupo_987560" data-name="Grupo 987560" transform="translate(1.476)">
              <path id="Trazado_645282" data-name="Trazado 645282" d="M192.009,425.02l-.2-5.293,4.259-2.555s-.444,5.566-.348,6.33,1.078,1.239,1.258,1.756-2.442,5.955-3.981,7.187-4.145-.2-4.414-.758,1.261-.568,2.021-1.048c.271-.171.579-.4.579-.4A47.683,47.683,0,0,0,192.009,425.02Z" transform="translate(-188.552 -417.172)" fill="#ffa8a7"/>
            </g>
            <g id="Grupo_987561" data-name="Grupo 987561" transform="translate(0 7.129)">
              <path id="Trazado_645283" data-name="Trazado 645283" d="M194.516,432.822a10.975,10.975,0,0,0-1.5,3.011c-.651,1.487-1.072,3.089-2.806,4-1.174.617-2.892.164-2.037-.214a4.943,4.943,0,0,0,1.247-.863,4.809,4.809,0,0,1-2.018.737c-.965.131-2.959.723-1.666,2.189.5.565,1.556.882,3.645.9,1.983.014,2.9-.6,3.6-2.044.852-1.747,2.713-3.583,3.328-4.569C197.051,434.772,195.736,433.095,194.516,432.822Z" transform="translate(-185.312 -432.822)" fill="#37474f"/>
            </g>
          </g>
          <g id="Grupo_987565" data-name="Grupo 987565" transform="translate(31.944 38.619)">
            <g id="Grupo_987563" data-name="Grupo 987563">
              <path id="Trazado_645284" data-name="Trazado 645284" d="M258.457,395.772l-3.208-3.4L257.7,389.3l2.811,2.835c.755.572,1.449.363,1.918.645s1.925,6.142,1.527,8.073-3.317,2.495-3.881,2.236.608-1.243.886-2.1c.1-.3.188-.68.188-.68A47.66,47.66,0,0,0,258.457,395.772Z" transform="translate(-255.249 -389.301)" fill="#ffa8a7"/>
            </g>
            <g id="Grupo_987564" data-name="Grupo 987564" transform="translate(3.844 2.949)">
              <path id="Trazado_645285" data-name="Trazado 645285" d="M265.879,396.016a10.984,10.984,0,0,0,.768,3.276c.449,1.56,1.148,3.061.4,4.87-.51,1.225-2.121,1.974-1.7,1.136a4.949,4.949,0,0,0,.408-1.461,4.807,4.807,0,0,1-1.082,1.856c-.659.717-1.865,2.56.088,2.6a5.516,5.516,0,0,0,3.569-1.161,4.278,4.278,0,0,0,1.3-4.2c-.461-1.888-.2-4.49-.357-5.641C269.076,395.9,266.992,395.447,265.879,396.016Z" transform="translate(-263.689 -395.776)" fill="#37474f"/>
            </g>
          </g>
          <g id="Grupo_987568" data-name="Grupo 987568">
            <g id="Grupo_987566" data-name="Grupo 987566" transform="translate(4.158)">
              <path id="Trazado_645286" data-name="Trazado 645286" d="M194.249,309.119s8.721,20.771,9.664,23.092a7.948,7.948,0,0,0,3.111,4.213c1.392.962,16.239,11.123,16.239,11.123,2.769-1.149,2.826-2.952,2.826-2.952s-7.32-9.291-9.267-11.006a16.68,16.68,0,0,0-5.067-2.713l-2.08-15.073c-.611-2.963-.233-6.237-4.642-11.283h0Z" transform="translate(-194.249 -304.519)" fill="#37474f"/>
            </g>
            <path id="Trazado_645287" data-name="Trazado 645287" d="M200.063,304.519l-14.942,1.723s.136,11.933.864,21.563c.8,10.643,3.871,32.085,3.871,32.085a8.315,8.315,0,0,0,4.209-.456s1.929-15.54,1.929-17.767a22.213,22.213,0,0,0-1.091-6.529c.295-4.665,2.02-10.979,2.278-16.378,3.931-1.622,5.369-3.808,5.924-6.741C203.642,309.188,201.119,306.242,200.063,304.519Z" transform="translate(-185.121 -304.519)" fill="#37474f"/>
            <g id="Grupo_987567" data-name="Grupo 987567" transform="translate(11.174 9.793)">
              <path id="Trazado_645288" data-name="Trazado 645288" d="M209.652,337.561l1.285-8s4.043-1.445,5.6-3.545a6.412,6.412,0,0,1-4.311,4.5c-.247.309-2.171,8-2.171,8Z" transform="translate(-209.652 -326.019)" fill="#263238"/>
            </g>
          </g>
        </g>
        <g id="Grupo_987576" data-name="Grupo 987576">
          <path id="Trazado_645289" data-name="Trazado 645289" d="M199.05,212.052c-1.69-1.343-2.579-2.174-3.931-3.408a.875.875,0,0,0-1.362.1l2.7,7.2a4.457,4.457,0,0,1,1.221,1.045c.514.679,2.283,10.959,2.283,10.959l4.941-1.316S201.373,213.9,199.05,212.052Z" transform="translate(-157.105 -188.555)" fill="#ffa8a7"/>
          <g id="Tab-2" data-name="Tab" transform="translate(1.585)">
            <g id="Grupo_987570" data-name="Grupo 987570">
              <path id="Trazado_645290" data-name="Trazado 645290" d="M118.1,222.179l-.34-.2a2.173,2.173,0,0,1-.983-1.7V186.206a2.172,2.172,0,0,1,.983-1.7l33.507-19.391a2.171,2.171,0,0,1,1.965,0l.339.2a2.171,2.171,0,0,1,.983,1.7v34.075a2.173,2.173,0,0,1-.983,1.7l-33.507,19.391A2.171,2.171,0,0,1,118.1,222.179Z" transform="translate(-116.779 -164.878)" fill="#ffd76a"/>
              <path id="Trazado_645291" data-name="Trazado 645291" d="M154.894,166.853c-.067-.51-.478-.695-.973-.412l-33.509,19.4a2.019,2.019,0,0,0-.695.731l-2.3-1.328a1.994,1.994,0,0,1,.695-.736l33.5-19.391a2.169,2.169,0,0,1,1.966,0l.34.2A2.2,2.2,0,0,1,154.894,166.853Z" transform="translate(-117.126 -164.878)" fill="#fff" opacity="0.4"/>
              <path id="Trazado_645292" data-name="Trazado 645292" d="M119.9,246.6a2.181,2.181,0,0,1-1.8-.077l-.345-.2a2.175,2.175,0,0,1-.978-1.7V210.547a1.964,1.964,0,0,1,.288-.968l2.3,1.328a2.055,2.055,0,0,0-.288.967v34.078C119.084,246.513,119.44,246.775,119.9,246.6Z" transform="translate(-116.782 -189.217)" opacity="0.1"/>
            </g>
            <g id="Grupo_987574" data-name="Grupo 987574" transform="translate(9.236 19.505)">
              <g id="Grupo_987571" data-name="Grupo 987571">
                <path id="Trazado_645293" data-name="Trazado 645293" d="M142.55,219.255a23.705,23.705,0,0,0-5.494,14.243,10.226,10.226,0,0,0,1.266,5.314l8.764-11.114Z" transform="translate(-137.056 -213.99)" fill="#37474f"/>
                <path id="Trazado_645294" data-name="Trazado 645294" d="M158.181,207.7a8.37,8.37,0,0,0-4.528,1.289,17.085,17.085,0,0,0-4.536,3.969l4.536,8.442Z" transform="translate(-143.624 -207.697)" fill="#ffd76a"/>
                <path id="Trazado_645295" data-name="Trazado 645295" d="M158.181,207.7a8.37,8.37,0,0,0-4.528,1.289,17.085,17.085,0,0,0-4.536,3.969l4.536,8.442Z" transform="translate(-143.624 -207.697)" opacity="0.45"/>
                <path id="Trazado_645296" data-name="Trazado 645296" d="M168.178,210.918a5.241,5.241,0,0,0-4.575-3.207l-4.528,13.7Z" transform="translate(-149.045 -207.705)" fill="#ffd76a"/>
                <path id="Trazado_645297" data-name="Trazado 645297" d="M157.7,214.751l-9.1,10.494-8.764,11.114c1.721,2.8,5,3.475,8.764,1.3,5.542-3.2,10.038-11.351,10.038-18.213A10.84,10.84,0,0,0,157.7,214.751Z" transform="translate(-138.569 -211.538)" fill="#ffd76a"/>
              </g>
              <g id="Grupo_987572" data-name="Grupo 987572" transform="translate(1.266 0.006)">
                <path id="Trazado_645298" data-name="Trazado 645298" d="M168.178,210.918a5.241,5.241,0,0,0-4.575-3.207l-4.528,13.7Z" transform="translate(-150.311 -207.711)" fill="#455a64"/>
                <path id="Trazado_645299" data-name="Trazado 645299" d="M157.7,214.751l-9.1,10.494-8.764,11.114c1.721,2.8,5,3.475,8.764,1.3,5.542-3.2,10.038-11.351,10.038-18.213A10.84,10.84,0,0,0,157.7,214.751Z" transform="translate(-139.835 -211.544)" fill="#ffd76a"/>
                <path id="Trazado_645300" data-name="Trazado 645300" d="M157.7,214.751l-9.1,10.494-8.764,11.114c1.721,2.8,5,3.475,8.764,1.3,5.542-3.2,10.038-11.351,10.038-18.213A10.84,10.84,0,0,0,157.7,214.751Z" transform="translate(-139.835 -211.544)" opacity="0.25"/>
              </g>
              <g id="Grupo_987573" data-name="Grupo 987573">
                <path id="Trazado_645301" data-name="Trazado 645301" d="M142.55,219.255a23.705,23.705,0,0,0-5.494,14.243,10.226,10.226,0,0,0,1.266,5.314l8.764-11.114Z" transform="translate(-137.056 -213.99)" fill="none" stroke="#fff" stroke-linecap="round" stroke-linejoin="round" stroke-width="1.019"/>
                <path id="Trazado_645302" data-name="Trazado 645302" d="M158.181,207.7a8.37,8.37,0,0,0-4.528,1.289,17.085,17.085,0,0,0-4.536,3.969l4.536,8.442Z" transform="translate(-143.624 -207.697)" fill="none" stroke="#fff" stroke-linecap="round" stroke-linejoin="round" stroke-width="1.019"/>
                <path id="Trazado_645303" data-name="Trazado 645303" d="M168.178,210.918a5.241,5.241,0,0,0-4.575-3.207l-4.528,13.7Z" transform="translate(-149.045 -207.705)" fill="none" stroke="#fff" stroke-linecap="round" stroke-linejoin="round" stroke-width="1.019"/>
                <path id="Trazado_645304" data-name="Trazado 645304" d="M157.7,214.751l-9.1,10.494-8.764,11.114c1.721,2.8,5,3.475,8.764,1.3,5.542-3.2,10.038-11.351,10.038-18.213A10.84,10.84,0,0,0,157.7,214.751Z" transform="translate(-138.569 -211.538)" fill="none" stroke="#fff" stroke-linecap="round" stroke-linejoin="round" stroke-width="1.019"/>
              </g>
            </g>
            <path id="Trazado_645305" data-name="Trazado 645305" d="M145.167,197.626l12.273-7.081c.205-.119.372-.022.372.215v.485a.824.824,0,0,1-.372.645l-12.273,7.081c-.205.119-.372.022-.372-.215v-.485A.824.824,0,0,1,145.167,197.626Z" transform="translate(-132.033 -178.825)" fill="#455a64"/>
          </g>
          <path id="Trazado_645306" data-name="Trazado 645306" d="M132.408,264.573c-3.181.917-4,.42-5.1-.794-.537-.591-7.631-9.546-8.5-10.527a5.184,5.184,0,0,0-2.257-1.852c-1.288-.614-1.694-.707-2.317-1.469-.634-.788-.355-1.113-.386-1.6-.044-.675-.429-1.007-.474-1.512-.057-.631.231-.914.218-1.2a9.3,9.3,0,0,1-.3-1.436c-.014-.287,1.172-1.495,1.585-1.95v2.225c1.305,1.845,3.413,1.673,3.641,1.413s.188-1.589.611-2.348c.408-.738,1.314-1.034,1.239-.289-.038.43.077,1.93.1,2.606a5.444,5.444,0,0,0,.6,2.579c.681,1.2,10.832,10.781,10.832,10.781" transform="translate(-113.3 -206.997)" fill="#ffa8a7"/>
          <g id="Grupo_987575" data-name="Grupo 987575" transform="translate(37.082 22.08)">
            <path id="Trazado_645307" data-name="Trazado 645307" d="M196.974,216.179a3.831,3.831,0,0,0-1.249-1.121c-.8-.431-1.164-1.114-.965-1.564.148-.334.7-.007,1.191.185a8.917,8.917,0,0,1,2.526,1.215c.674.606.87,1.071,1.569,1.008a2.1,2.1,0,0,1-1.448.671A2.708,2.708,0,0,1,196.974,216.179Z" transform="translate(-194.707 -213.351)" fill="#ffa8a7"/>
          </g>
        </g>
        <g id="Grupo_987585" data-name="Grupo 987585" transform="translate(11.641 24.66)">
          <path id="Trazado_645308" data-name="Trazado 645308" d="M138.855,270.711c4.837-2.084,9.767-3.73,14.664-5.671,2.3-.911,3.717-1.472,5.475-1.986a45.364,45.364,0,0,1,5.016-.723c.2-.043.415-.078.637-.114,2.825-.522,7.095-1.309,8.253-1.516.107-.021.207-.036.3-.057a3.13,3.13,0,0,1,.815.029,2.82,2.82,0,0,1,1.745,1.488,5.413,5.413,0,0,1,.286,3.69c-.093.465-.765,1.858-1.194,3.4-.787,2.839-1.516,6.438-2.024,7.79-.029.057-.043.107-.065.15l2.11,3.433s-1.416,1.752-5.621,2.975-9.319-1.259-9.319-1.259-1.08-5.664-1.28-7.252c-.014-.093-.036-.236-.057-.4-.043-.337-.4-2.673-.4-2.673-.155-.462-1.3-.308-4.821.726s-8.211,2.123-8.211,2.123Z" transform="translate(-138.855 -241.673)" fill="#ffa8a7"/>
          <g id="Grupo_987577" data-name="Grupo 987577" transform="translate(28.933 5.508)">
            <path id="Trazado_645309" data-name="Trazado 645309" d="M210.252,241.6c-1.342-5.24-2.616-10.494-2.616-10.494l-5.262,1.749,3.875,16.522,4.382.4C211.579,246.473,210.984,244.459,210.252,241.6Z" transform="translate(-202.374 -231.108)" fill="#ffa8a7"/>
            <path id="Trazado_645310" data-name="Trazado 645310" d="M206.993,256.052c.306-.046.314-.365.126-1.355s-.481-2.242-.481-2.242,3.536-1.5,5.87-.985c0,0,.385,1.422.935,4.308s-.058,4.36-1.771,8.75Z" transform="translate(-204.695 -242.137)" fill="#455a64"/>
          </g>
          <g id="Grupo_987583" data-name="Grupo 987583" transform="translate(19.34)">
            <g id="Grupo_987578" data-name="Grupo 987578" transform="translate(4.867 16.172)">
              <path id="Trazado_645311" data-name="Trazado 645311" d="M192,255.673l.617,5.424,5.345.617-.771-7.195Z" transform="translate(-191.999 -254.519)" fill="#ffa8a7"/>
            </g>
            <g id="Grupo_987579" data-name="Grupo 987579" transform="translate(0.623)">
              <path id="Trazado_645312" data-name="Trazado 645312" d="M183.714,227.862a2.045,2.045,0,0,1-1.032-1.567,2.192,2.192,0,0,1,.756-1.741,2.517,2.517,0,0,1-.7-2.061,2.259,2.259,0,0,1,1.28-1.739,2.051,2.051,0,0,1,2.118.288,1.767,1.767,0,0,1,.891-1.7,2.761,2.761,0,0,1,1.977-.246,6.592,6.592,0,0,1,1.867.8,17.888,17.888,0,0,0,1.681.922c.545.236,1.255.4,1.814.595,2.038.705,4.958,2.621,4.352,7.84-.357,3.067-8.754,4.745-8.707,6.865l-.036-.042-2.288-2.747-1.74-2.089a4.033,4.033,0,0,1-1.213-2.251,1.245,1.245,0,0,0-.113-.634,1.294,1.294,0,0,0-.676-.38A1.933,1.933,0,0,1,183.714,227.862Z" transform="translate(-182.682 -219.015)" fill="#263238"/>
            </g>
            <g id="Grupo_987580" data-name="Grupo 987580" transform="translate(0 10.422)">
              <path id="Trazado_645313" data-name="Trazado 645313" d="M182.472,241.9s-1.3,1.783-1.146,1.984a2.9,2.9,0,0,0,.913.442Z" transform="translate(-181.314 -241.895)" fill="#f28f8f"/>
            </g>
            <g id="Grupo_987581" data-name="Grupo 987581" transform="translate(0.798 4.386)">
              <path id="Trazado_645314" data-name="Trazado 645314" d="M187.4,229.025c-1.208.558-3.3,1.6-4.016,5.922-.736,4.442-.02,5.907.563,6.519.394.413,2.607.514,3.729.219,1.4-.369,4.577-1.45,6.085-3.693,1.773-2.639,2.274-6.238.428-7.739A7.137,7.137,0,0,0,187.4,229.025Z" transform="translate(-183.066 -228.644)" fill="#ffa8a7"/>
            </g>
            <g id="Grupo_987582" data-name="Grupo 987582" transform="translate(2.938 3.536)">
              <path id="Trazado_645315" data-name="Trazado 645315" d="M189.411,227.744c-.244.1-.774.054-.973.229a2.247,2.247,0,0,0-.658,1.875,1.923,1.923,0,0,0,1.25,1.579,5.621,5.621,0,0,0-.088,1.77,2.948,2.948,0,0,0,.564,1.639s.792-1.558,2.139-1.041,1.148,2.349.025,3.238-1.742.163-1.742.163a3.583,3.583,0,0,0,1.562,3.142,4.779,4.779,0,0,0,3.59.9c1.187-1.641,2.774-2.262,4.111-3.57,3.458-3.385,3.22-8.4-1.577-10.237a9.355,9.355,0,0,0-4.382-.605,8.338,8.338,0,0,0-1.626.351q-.33.107-.649.241a2.377,2.377,0,0,1-.77.123A2.823,2.823,0,0,0,189.411,227.744Z" transform="translate(-187.764 -226.778)" fill="#263238"/>
            </g>
            <path id="Trazado_645316" data-name="Trazado 645316" d="M184.907,256.221c.34.357,2.037.48,3.215.318l-.083-.795a9.362,9.362,0,0,1-1.791.461c-1.043.169-1.392-.049-1.41-.061C184.862,256.17,184.885,256.2,184.907,256.221Z" transform="translate(-183.233 -239.014)" fill="#f28f8f"/>
          </g>
          <g id="Grupo_987584" data-name="Grupo 987584" transform="translate(19.241 19.327)">
            <path id="Trazado_645317" data-name="Trazado 645317" d="M197.69,271.414c-.759,2.811-1.381,4.789-1.863,6.071-.029.057-.043.107-.065.15l2.11,3.433s-1.416,1.752-5.621,2.975-9.311-.49-9.311-.49-1.8-10.893-1.844-11.086c5.385-2.4,4.226-9.527,4.226-9.527.379-.065,2.21-.309,2.432-.352,2.467-.436,3.7-.836,5.95-1.137C195.567,261.2,198.926,266.836,197.69,271.414Z" transform="translate(-181.096 -261.445)" fill="#ffd76a"/>
            <path id="Trazado_645318" data-name="Trazado 645318" d="M207.936,293.8a34.256,34.256,0,0,1-5.4,2.809,10.276,10.276,0,0,0,4.9-1.359Z" transform="translate(-192.768 -279.063)" opacity="0.2"/>
          </g>
          <path id="Trazado_645319" data-name="Trazado 645319" d="M177.812,264.731a11.688,11.688,0,0,0-3.548.526c-1.761.487-6.849,2.64-6.849,2.64s-.706,4.86,1.449,7.08c0,0,2.2-.51,3.338-.724.967-.183,1.175-.32,1.384.006a5.411,5.411,0,0,0,3.53-2.881A9.2,9.2,0,0,0,177.812,264.731Z" transform="translate(-154.345 -243.907)" fill="#455a64"/>
        </g>
      </g>
    </g>
  </g>
</svg>
