<svg xmlns="http://www.w3.org/2000/svg" width="81" height="81" viewBox="0 0 81 81">
  <g id="Grupo_988056" data-name="Grupo 988056" transform="translate(-1173 -2988)">
    <rect id="Rectángulo_308874" data-name="Rectángulo 308874" width="81" height="81" rx="12" transform="translate(1173 2988)" fill="#00d843"/>
    <g id="Grupo_983483" data-name="Grupo 983483" transform="translate(1185.487 3000.337)">
      <path id="Trazado_642209" data-name="Trazado 642209" d="M820.181,177.245c.634-2.332,1.241-4.584,1.857-6.833.633-2.313,1.26-4.628,1.921-6.934a1.626,1.626,0,0,0-.172-1.318,27.876,27.876,0,0,1,13.335-38.868c15.874-7.123,34.8,2.479,38.439,19.5a27.928,27.928,0,0,1-21.621,33.416,27.03,27.03,0,0,1-17.969-2.321,2.771,2.771,0,0,0-2.113-.228c-4.418,1.193-8.849,2.338-13.277,3.5C820.484,177.187,820.384,177.2,820.181,177.245Zm6.685-6.6c2.774-.732,5.387-1.409,7.992-2.115a1.724,1.724,0,0,1,1.466.193,22.614,22.614,0,0,0,15.846,3.023,23.2,23.2,0,1,0-23.791-11.092,3.536,3.536,0,0,1,.4,3.146C828.084,166,827.526,168.249,826.866,170.645Z" transform="translate(-820.181 -120.919)" fill="#fcfdfc"/>
      <path id="Trazado_642210" data-name="Trazado 642210" d="M856.389,162.73a8.723,8.723,0,0,1-2.687-.276,26.49,26.49,0,0,1-13.1-8.135,29.071,29.071,0,0,1-5.1-7.3,8.318,8.318,0,0,1,.369-8.3,12.609,12.609,0,0,1,1.039-1.288c1.076-1.279,2.517-1.049,3.913-.9.436.046.67.476.832.861.795,1.878,1.569,3.765,2.36,5.644a1.379,1.379,0,0,1-.106,1.191,9.283,9.283,0,0,1-1.694,2.238,1.169,1.169,0,0,0-.18,1.567,19.168,19.168,0,0,0,9.484,8.177,1.172,1.172,0,0,0,1.536-.349c.688-.865,1.4-1.711,2.074-2.585a1.094,1.094,0,0,1,1.444-.411c1.977.845,3.9,1.8,5.817,2.777a.952.952,0,0,1,.526.944c.056,3.442-2.081,5.316-5.509,6.062A6.409,6.409,0,0,1,856.389,162.73Z" transform="translate(-820.626 -121.399)" fill="#fcfefc"/>
    </g>
  </g>
</svg>
