<svg xmlns="http://www.w3.org/2000/svg" width="50.758" height="73.92" viewBox="0 0 50.758 73.92">
  <g id="Grupo_988043" data-name="Grupo 988043" transform="translate(-545.136 -386.062)">
    <path id="Trazado_645980" data-name="Trazado 645980" d="M570.451,459.981H551.337c-1.289,0-1.635-.34-1.636-1.606,0-1.636,0-3.272,0-4.907,0-.251.051-.461-.334-.582-3.276-1.03-4.66-3.319-4.113-6.8,1.08-6.881,2.187-13.759,3.263-20.641a1.678,1.678,0,0,1,.831-1.259,31.276,31.276,0,0,1,12.772-4.334c.809-.109,1.626-.163,2.438-.252.174-.019.388.045.451-.238.135-.609.289-1.214.447-1.817.079-.3-.146-.354-.333-.46a11.432,11.432,0,0,1-6.173-9.986c-.016-.344-.176-.428-.44-.534a4.606,4.606,0,0,1,.036-8.673c.465-.192.566-.544.189-.833-1.726-1.323-2.309-3.248-2.767-5.228a20.263,20.263,0,0,1-.49-4.364c-.01-.976.414-1.4,1.4-1.4q9.773-.005,19.546,0a4.27,4.27,0,0,1,4.122,2.92.671.671,0,0,0,.808.553,4.987,4.987,0,0,1,1.646.111,3.316,3.316,0,0,1,2.471,3.1,33.749,33.749,0,0,1-.049,5.188,14.6,14.6,0,0,0,0,4.076,4.323,4.323,0,0,1-2.895,4.512.663.663,0,0,0-.533.689,11.316,11.316,0,0,1-5.972,9.731.77.77,0,0,0-.425,1.068c.434,1.565.417,1.535,2,1.695a31.755,31.755,0,0,1,13.993,4.461,1.674,1.674,0,0,1,.843,1.252c1.121,7.167,2.271,14.329,3.4,21.495a5.5,5.5,0,0,1-4.021,5.908c-.475.133-.58.314-.572.768.028,1.635.014,3.271.01,4.907,0,1.083-.395,1.477-1.475,1.478Q580.116,459.983,570.451,459.981ZM577.7,398.9l-.572-1.147c-.165-.5-.342-.995-.491-1.5-.091-.308-.2-.409-.553-.287a15.053,15.053,0,0,1-1.877.488,71.279,71.279,0,0,1-10.877,1.112c-.69.035-1.65-.323-2.006.24-.324.513-.06,1.4-.055,2.117-.008,1.875-.023,3.75-.02,5.625a18.085,18.085,0,0,0,.11,2.734,9.228,9.228,0,0,0,18.065.849,26.626,26.626,0,0,0,.264-6.175c-.024-.534.236-1.129-.16-1.585A26.449,26.449,0,0,1,577.7,398.9Zm14.435,39.71-.643-4.518c-2.746,1.524-5.381,2.991-8.023,4.444a.552.552,0,0,0-.295.585c.015.984.019,1.969.026,2.953v1.091c2.645-1.69,5.546-2.4,8.352-3.333C592.314,439.578,592.426,439.251,592.134,438.611Zm.771,4.741c-.049-.356-.106-.711-.146-1.068-.036-.311-.156-.4-.473-.283-2.262.842-4.66,1.33-6.781,2.537A23.244,23.244,0,0,1,578.8,447c-1.036.222-2.056.519-3.084.782v.167l3.111.676c2.157.557,4.341.989,6.527,1.413a26.345,26.345,0,0,0,4.978.7,3.211,3.211,0,0,0,3.216-3.48C593.383,445.945,593.121,444.651,592.9,443.351ZM558.017,389.74a10.756,10.756,0,0,0,1.265,4.542,1.818,1.818,0,0,0,1.805,1.035,102.449,102.449,0,0,0,10.561-.75,14.912,14.912,0,0,0,4.989-1.308c1.055-.553,1.768-.181,1.933,1a9.794,9.794,0,0,0,2.088,4.911c.678.838,1.319.837,2-.016a2.11,2.11,0,0,0,.507-1.324c0-1.563-.013-3.126-.021-4.689.005-.906-.343-1.289-1.214-1.3-.789-.008-1.578.009-2.367.015-.844-.211-1.046-.841-1.047-1.6a2.12,2.12,0,0,0-2.324-1.879q-8.566,0-17.132,0C557.711,388.375,557.711,388.375,558.017,389.74Zm-10.38,58.854a3.127,3.127,0,0,0,3,2.144,20.1,20.1,0,0,0,3.918-.5c6.988-1.346,13.892-3.06,20.8-4.753.779-.191,1.048-.5.864-1.246.008-1.442,0-2.884.035-4.325.009-.417-.162-.474-.51-.439-1,.1-2.009.178-3.012.279a80.842,80.842,0,0,0-18.565,3.792c-.546.189-.766.053-.845-.443a2.552,2.552,0,0,0-2.147-2.1c-.694-.195-1.389-.372-2.1-.5-.42-.077-.632,0-.7.509-.235,1.736-.552,3.461-.811,5.194A3.49,3.49,0,0,0,547.638,448.594Zm29.532-11.72c1.511,0,2.988,0,4.466-.007a.928.928,0,0,0,.393-.163q4.313-2.391,8.625-4.78a.58.58,0,0,0,.36-.728c-.282-1.582-.521-3.172-.752-4.763a.786.786,0,0,0-.406-.627,27.811,27.811,0,0,0-7.328-2.915c-.348-.088-.527-.033-.514.4.028.936-.026,1.876.019,2.811a1.528,1.528,0,0,1-1.021,1.627c-.93.42-1.828.909-2.834,1.416.766.748,1.461,1.41,2.137,2.09.743.747.748,1.254.042,2.051C579.291,434.486,578.222,435.688,577.169,436.874Zm-14.384-7.744c-1.08-.538-2.038-1.03-3.008-1.5a1.35,1.35,0,0,1-.846-1.37c.022-.962-.017-1.925.015-2.887.015-.457-.1-.607-.563-.483a28.151,28.151,0,0,0-7.2,2.87.9.9,0,0,0-.5.72c-.213,1.522-.444,3.043-.722,4.555a.745.745,0,0,0,.455.951c2.134,1.152,4.275,2.3,6.356,3.54a7.759,7.759,0,0,0,4.924,1.428,12.557,12.557,0,0,1,1.583.065c.168,0,.377.119.536-.124-1.1-1.238-2.2-2.473-3.3-3.717a1.176,1.176,0,0,1,.055-1.889C561.268,430.595,561.982,429.916,562.785,429.13Zm-2.127,28.54c2.666,0,5.333-.015,8,.013.528.005.69-.114.681-.667-.034-2.283-.014-4.567-.014-6.85,0-.819,0-.809-.821-.621-5.329,1.219-10.628,2.585-16.05,3.354-.4.056-.45.233-.447.564.012,1.154.038,2.309-.009,3.461-.024.583.11.772.733.763C555.372,457.648,558.015,457.67,560.657,457.67Zm19.615,0c2.666,0,5.331-.013,8,.012.515,0,.731-.091.691-.661-.054-.765,0-1.537-.019-2.305-.018-.569.254-1.3-.121-1.661-.325-.313-1.036-.224-1.576-.314-.095-.016-.187-.043-.282-.059-4.914-.858-9.766-2-14.612-3.18-.569-.138-.739-.054-.73.565q.05,3.459,0,6.919c-.01.6.193.7.73.695C574.99,457.656,577.631,457.67,580.273,457.67ZM564.546,421.9c-.976.123-1.952.26-2.931.362-.321.033-.381.172-.376.458.015.841.03,1.684-.005,2.524a.7.7,0,0,0,.47.767c1.1.523,2.2,1.076,3.284,1.631,1.026.523,1.163,1.311.37,2.128-.7.725-1.411,1.445-2.14,2.143-.285.273-.379.438-.058.786,1.3,1.413,2.568,2.863,3.848,4.3.095.106.191.256.311.286a1.262,1.262,0,0,0,.759.053c.212-.1,0-.39-.041-.59-.137-.731-.292-1.459-.445-2.187q-1.277-6.058-2.555-12.116C564.978,422.168,565.006,421.821,564.546,421.9Zm15.168,2.153c0-.385-.028-.772.008-1.153.04-.435-.085-.643-.556-.675a19.467,19.467,0,0,1-2.36-.269c-.6-.115-.825.046-.949.653q-1.451,7.124-2.974,14.233c-.1.487-.04.6.445.507a.967.967,0,0,0,.607-.323c1.287-1.46,2.572-2.922,3.887-4.358.3-.325.2-.482-.061-.733-.728-.7-1.438-1.417-2.144-2.138-.807-.825-.687-1.615.324-2.139a20.667,20.667,0,0,1,2.257-1.108C579.4,426.106,580.143,425.458,579.714,424.055ZM549.481,434.1c-.2,1.267-.344,2.408-.559,3.537-.081.426.022.511.424.571a9.771,9.771,0,0,1,4.636,1.6,2.824,2.824,0,0,0,3.2.363c.225-.1.652.006.594-.45-.054-.433.231-.946-.389-1.249-.859-.42-1.679-.917-2.516-1.381Zm21.014-13.428c.642-.162,1.313-.33,1.984-.5,1.227-.314,1.2-.308.919-1.541-.108-.473-.271-.553-.728-.456a10.354,10.354,0,0,1-3.71.115c-1.392-.208-1.391-.189-1.618,1.211-.034.209-.058.384.2.447Zm8.064,23.974c.679-.167,1.277-.335,1.885-.457.357-.072.434-.258.427-.593-.02-.887,0-1.774,0-2.662,0-1.842,0-1.831-1.879-1.653-.334.032-.443.114-.438.462C578.57,441.35,578.559,442.956,578.559,444.648Zm-6.9-13.589.069.01q.587-2.757,1.173-5.513c.04-.188.069-.374-.13-.515-.357-.254-.7-.522-1.111-.825Zm-2.349-6.767c-1.375.763-1.375.764-1.077,2.11.031.14.057.281.087.421q.45,2.118.9,4.235l.088-.018Zm-10.437-20.154V400.31A2.227,2.227,0,0,0,558.875,404.138Zm23.147.077a2.346,2.346,0,0,0,1.108-1.519c.065-.281.16-.651-.03-.831-.225-.212-.508.126-.779.169-.226.036-.31.161-.3.395C582.032,402.975,582.022,403.522,582.022,404.215Z" fill="#020202"/>
    <path id="Trazado_645981" data-name="Trazado 645981" d="M553.17,579.835a3.49,3.49,0,0,1-.066-2.392c.259-1.733.576-3.458.811-5.194.069-.512.281-.586.7-.509.708.13,1.4.308,2.1.5a2.552,2.552,0,0,1,2.147,2.1c.078.5.3.633.844.443A80.845,80.845,0,0,1,578.269,571c1-.1,2.009-.176,3.012-.279.348-.035.519.022.51.439-.032,1.441-.026,2.883-.035,4.325a3.5,3.5,0,0,0-.78.1c-3.132.784-6.256,1.6-9.4,2.313-4.776,1.077-9.536,2.242-14.394,2.908a4.988,4.988,0,0,1-3.214-.531C553.7,580.123,553.544,579.777,553.17,579.835Z" transform="translate(-5.532 -131.241)" fill="#89b9da"/>
    <path id="Trazado_645982" data-name="Trazado 645982" d="M614.8,401.626c.008,1.563.024,3.126.021,4.689a2.108,2.108,0,0,1-.507,1.324c-.685.853-1.326.854-2,.017a9.8,9.8,0,0,1-2.088-4.911c-.165-1.183-.878-1.555-1.933-1a14.911,14.911,0,0,1-4.989,1.308,102.438,102.438,0,0,1-10.561.75,1.818,1.818,0,0,1-1.805-1.035,10.748,10.748,0,0,1-1.265-4.542c.228-.318.568-.206.864-.206,5.473-.006,10.946.011,16.418-.016a5.435,5.435,0,0,1,3.22.738c0,.762.2,1.393,1.047,1.6.2,1.136.2,1.135,1.292,1.136A9.611,9.611,0,0,1,614.8,401.626Z" transform="translate(-31.655 -8.485)" fill="#8e6959"/>
    <path id="Trazado_645983" data-name="Trazado 645983" d="M655.888,527.289c1.053-1.186,2.122-2.388,3.188-3.593.705-.8.7-1.3-.042-2.051-.677-.68-1.371-1.342-2.137-2.09,1.006-.506,1.9-1,2.834-1.415a1.528,1.528,0,0,0,1.021-1.627c-.045-.935.009-1.874-.019-2.811-.013-.43.166-.485.514-.4a27.813,27.813,0,0,1,7.328,2.915.786.786,0,0,1,.406.627c.231,1.591.47,3.181.752,4.763a.58.58,0,0,1-.36.728q-4.319,2.379-8.625,4.78a.926.926,0,0,1-.393.163C658.876,527.293,657.4,527.289,655.888,527.289Z" transform="translate(-78.719 -90.415)" fill="#5a88a6"/>
    <path id="Trazado_645984" data-name="Trazado 645984" d="M574.575,519.545c-.8.785-1.516,1.464-2.209,2.165a1.176,1.176,0,0,0-.055,1.889c1.093,1.244,2.2,2.479,3.3,3.717-.159.242-.368.127-.536.124a12.533,12.533,0,0,0-1.583-.065,7.759,7.759,0,0,1-4.924-1.428c-2.081-1.243-4.222-2.388-6.357-3.541a.745.745,0,0,1-.455-.951c.278-1.512.509-3.032.722-4.555a.9.9,0,0,1,.5-.72,28.157,28.157,0,0,1,7.2-2.87c.462-.123.578.026.563.483-.032.961.007,1.925-.015,2.886a1.35,1.35,0,0,0,.846,1.37C572.538,518.515,573.5,519.006,574.575,519.545Z" transform="translate(-11.791 -90.414)" fill="#6696b7"/>
    <path id="Trazado_645985" data-name="Trazado 645985" d="M577.512,613.416c-2.642,0-5.285-.022-7.927.016-.622.009-.757-.18-.733-.763.047-1.152.021-2.307.009-3.461,0-.331.049-.508.447-.564,5.422-.769,10.721-2.134,16.05-3.354.822-.188.821-.2.821.621,0,2.283-.019,4.567.014,6.85.008.553-.153.672-.681.667C582.845,613.4,580.178,613.416,577.512,613.416Z" transform="translate(-16.854 -155.746)" fill="#6696b8"/>
    <path id="Trazado_645986" data-name="Trazado 645986" d="M645.351,613.429c-2.642,0-5.283-.014-7.924.012-.537.005-.74-.1-.73-.695q.058-3.459,0-6.919c-.009-.619.161-.7.73-.565,4.845,1.175,9.7,2.322,14.612,3.179.094.017.187.043.282.059.54.09,1.251,0,1.576.314.375.361.1,1.092.121,1.661.024.768-.034,1.54.019,2.305.04.57-.176.665-.691.661C650.682,613.415,648.016,613.429,645.351,613.429Z" transform="translate(-65.078 -155.759)" fill="#5a88a7"/>
    <path id="Trazado_645987" data-name="Trazado 645987" d="M675.685,584.135c.216,1.3.478,2.594.638,3.9a3.211,3.211,0,0,1-3.216,3.48,26.353,26.353,0,0,1-4.978-.7c-2.186-.423-4.37-.856-6.527-1.413a.581.581,0,0,1,.5-.346,30.67,30.67,0,0,0,8.208-3.15A28.77,28.77,0,0,1,675.685,584.135Z" transform="translate(-82.78 -140.784)" fill="#75a5ce"/>
    <path id="Trazado_645988" data-name="Trazado 645988" d="M604.1,509.945c.461-.081.432.266.491.543q1.276,6.059,2.555,12.116c.154.728.309,1.456.445,2.187.037.2.253.486.041.59a1.261,1.261,0,0,1-.759-.053c-.12-.03-.216-.18-.311-.286-1.28-1.434-2.544-2.884-3.848-4.3-.321-.348-.227-.513.057-.786.729-.7,1.437-1.418,2.14-2.143.793-.817.656-1.605-.37-2.128-1.089-.555-2.18-1.108-3.284-1.631a.7.7,0,0,1-.47-.767c.035-.84.021-1.683.005-2.524-.005-.286.055-.425.376-.458C602.15,510.205,603.125,510.068,604.1,509.945Z" transform="translate(-39.556 -88.043)" fill="#d9dde6"/>
    <path id="Trazado_645989" data-name="Trazado 645989" d="M647.793,512.181c.43,1.4-.313,2.051-1.517,2.5a20.645,20.645,0,0,0-2.257,1.108c-1.011.523-1.131,1.314-.324,2.139.706.722,1.416,1.44,2.144,2.138.262.251.358.408.061.733-1.315,1.435-2.6,2.9-3.887,4.358a.967.967,0,0,1-.607.323c-.485.089-.549-.02-.445-.507q1.52-7.11,2.974-14.233c.124-.608.347-.769.949-.653a19.463,19.463,0,0,0,2.36.269c.471.032.6.239.556.675C647.765,511.409,647.793,511.8,647.793,512.181Z" transform="translate(-68.079 -88.127)" fill="#d9dde6"/>
    <path id="Trazado_645990" data-name="Trazado 645990" d="M676.673,560.108c-.008-.985-.011-1.969-.026-2.953a.552.552,0,0,1,.295-.585c2.642-1.453,5.276-2.92,8.023-4.444l.643,4.518a1.785,1.785,0,0,0-.355.044A43.368,43.368,0,0,0,676.673,560.108Z" transform="translate(-93.473 -118.033)" fill="#f4cbbe"/>
    <path id="Trazado_645991" data-name="Trazado 645991" d="M553.785,591.564c.374-.058.533.288.795.436a4.988,4.988,0,0,0,3.214.531c4.858-.665,9.618-1.831,14.394-2.908,3.149-.71,6.273-1.528,9.4-2.313a3.489,3.489,0,0,1,.78-.1c.184.745-.085,1.055-.864,1.246-6.909,1.693-13.813,3.407-20.8,4.753a20.1,20.1,0,0,1-3.918.5A3.127,3.127,0,0,1,553.785,591.564Z" transform="translate(-6.147 -142.97)" fill="#75a5ce"/>
    <path id="Trazado_645992" data-name="Trazado 645992" d="M558.719,552.156l5.39,2.99c.837.464,1.658.962,2.516,1.381.62.3.335.816.389,1.249.057.456-.369.349-.594.45a2.824,2.824,0,0,1-3.2-.363,9.77,9.77,0,0,0-4.636-1.6c-.4-.06-.505-.145-.424-.571C558.375,554.564,558.524,553.423,558.719,552.156Z" transform="translate(-9.239 -118.054)" fill="#f4cbbe"/>
    <path id="Trazado_645993" data-name="Trazado 645993" d="M668.04,580.693a28.774,28.774,0,0,0-5.374,1.775,30.667,30.667,0,0,1-8.208,3.15.581.581,0,0,0-.5.346l-3.111-.676v-.167c1.027-.263,2.047-.561,3.084-.782a23.242,23.242,0,0,0,6.709-2.459c2.122-1.207,4.519-1.695,6.781-2.537.317-.118.437-.027.473.283C667.935,579.982,667.991,580.337,668.04,580.693Z" transform="translate(-75.136 -137.341)" fill="#6696b7"/>
    <path id="Trazado_645994" data-name="Trazado 645994" d="M609.767,395.938a5.434,5.434,0,0,0-3.219-.738c-5.473.027-10.945.01-16.418.016-.3,0-.636-.111-.864.206-.307-1.365-.307-1.365,1.046-1.365q8.566,0,17.132,0A2.12,2.12,0,0,1,609.767,395.938Z" transform="translate(-31.247 -5.683)" fill="#855d4f"/>
    <path id="Trazado_645995" data-name="Trazado 645995" d="M625.011,499.5l-2.954-.725c-.258-.063-.233-.238-.2-.447.227-1.4.226-1.419,1.618-1.211a10.354,10.354,0,0,0,3.71-.115c.456-.1.62-.017.728.456.281,1.233.309,1.227-.919,1.541C626.324,499.171,625.653,499.339,625.011,499.5Z" transform="translate(-54.516 -78.827)" fill="#e8a58f"/>
    <path id="Trazado_645996" data-name="Trazado 645996" d="M660.672,575.248c0-1.692.011-3.3-.008-4.9,0-.348.1-.43.438-.462,1.88-.178,1.88-.188,1.879,1.653,0,.887-.017,1.775,0,2.661.007.335-.069.521-.427.593C661.95,574.913,661.351,575.08,660.672,575.248Z" transform="translate(-82.113 -130.6)" fill="#d9dde6"/>
    <path id="Trazado_645997" data-name="Trazado 645997" d="M676.738,571.209a43.368,43.368,0,0,1,8.579-3.421,1.788,1.788,0,0,1,.355-.044c.292.64.181.968-.582,1.222-2.806.937-5.707,1.643-8.352,3.333Z" transform="translate(-93.538 -129.134)" fill="#f1bdaa"/>
    <path id="Trazado_645998" data-name="Trazado 645998" d="M636.841,524.819v-6.844c.407.3.755.571,1.112.825.2.141.17.327.13.515q-.583,2.757-1.173,5.513Z" transform="translate(-65.181 -93.759)" fill="#eaa865"/>
    <path id="Trazado_645999" data-name="Trazado 645999" d="M625.682,518.241v6.747l-.089.018q-.451-2.117-.9-4.235c-.03-.14-.056-.281-.087-.421C624.306,519.005,624.307,519,625.682,518.241Z" transform="translate(-56.37 -93.948)" fill="#eaa865"/>
    <path id="Trazado_646000" data-name="Trazado 646000" d="M667.759,407.342a9.61,9.61,0,0,0-2.289-.148c-1.089,0-1.089,0-1.292-1.136.789-.006,1.578-.023,2.367-.015C667.416,406.053,667.764,406.437,667.759,407.342Z" transform="translate(-84.611 -14.201)" fill="#855d4f"/>
    <path id="Trazado_646001" data-name="Trazado 646001" d="M589.959,439.151a2.227,2.227,0,0,1,0-3.829Z" transform="translate(-31.085 -35.012)" fill="#e8a58f"/>
    <path id="Trazado_646002" data-name="Trazado 646002" d="M659.706,434.508c-.671-.178-.7-.914-1.135-1.3l-.579-1.417-.138-.172v0q-.069-.585-.138-1.17a26.452,26.452,0,0,0,1.829,2.473C659.943,433.379,659.683,433.974,659.706,434.508Z" transform="translate(-80.019 -31.55)" fill="#f1bdaa"/>
    <path id="Trazado_646003" data-name="Trazado 646003" d="M649.9,427.632q.069.585.139,1.17a3.818,3.818,0,0,0-3.319-1.294c.826-.451,1.813-.493,2.608-1.023Z" transform="translate(-72.203 -28.731)" fill="#f4cbbe"/>
    <path id="Trazado_646004" data-name="Trazado 646004" d="M672.653,442.881c0-.693.01-1.24,0-1.786-.006-.234.078-.359.3-.395.271-.043.554-.381.779-.169.19.18.1.55.03.831A2.346,2.346,0,0,1,672.653,442.881Z" transform="translate(-90.631 -38.666)" fill="#e8a58f"/>
    <path id="Trazado_646005" data-name="Trazado 646005" d="M619.07,427.178c-.671-.178-.7-.914-1.136-1.3h0l-.579-1.417-.138-.172v0A3.818,3.818,0,0,0,613.9,423c.826-.451,1.813-.493,2.608-1.023-.165-.5-.342-.995-.491-1.5-.091-.308-.2-.409-.553-.287a15.077,15.077,0,0,1-1.877.488,71.294,71.294,0,0,1-10.877,1.112c-.69.035-1.65-.323-2.006.239-.324.513-.06,1.4-.055,2.117-.008,1.875-.023,3.75-.02,5.625a18.11,18.11,0,0,0,.11,2.734,9.228,9.228,0,0,0,18.065.849A26.629,26.629,0,0,0,619.07,427.178Zm-5.211-4.148a.138.138,0,0,1-.043.021A.138.138,0,0,0,613.859,423.03Zm-.137-.013h0a.224.224,0,0,1-.251.1l-.1.02.1-.02Zm-4.582.645a35.5,35.5,0,0,1,4.139-.508,3.9,3.9,0,0,0-1.957,1.9.345.345,0,0,1-.379.245,1.067,1.067,0,0,0-.215,0c-1.38.226-2.534-.043-3.176-1.442C608.044,423.523,608.613,423.729,609.14,423.662Zm-3.218-.6a3.02,3.02,0,0,0-.629-.082A3.02,3.02,0,0,1,605.922,423.062Zm-3.417,1.229a1.7,1.7,0,0,0-.92-.165,1.7,1.7,0,0,1,.92.165,5.605,5.605,0,0,1,1.24-.923,3.576,3.576,0,0,1,.535-.227,3.576,3.576,0,0,0-.535.227A5.605,5.605,0,0,0,602.505,424.291Zm2.778-1.31a2.884,2.884,0,0,0-.574.048A2.884,2.884,0,0,1,605.284,422.981Zm-1.193,3.483a1.154,1.154,0,1,1,1.146,1.143A1.159,1.159,0,0,1,604.09,426.463Zm10.35,6.431a4.659,4.659,0,0,1-4.477,3.951,4.6,4.6,0,0,1-4.611-3.682c-.2-.935-.2-.935.752-.935h.361a4.443,4.443,0,0,0,.5,0c.38-.044.56.041.653.489a2.289,2.289,0,0,0,4.484-.009c.085-.372.193-.523.585-.485a5.092,5.092,0,0,0,1.151,0C614.419,432.143,614.533,432.363,614.44,432.894Zm-.022-5.288a1.154,1.154,0,1,1,1.213-1.148A1.165,1.165,0,0,1,614.418,427.606Z" transform="translate(-39.383 -24.22)" fill="#f4cbbe"/>
    <path id="Trazado_646006" data-name="Trazado 646006" d="M618.019,461.881a4.435,4.435,0,0,0,.5,0c.38-.044.56.041.653.489a2.289,2.289,0,0,0,4.484-.009c.085-.372.192-.523.584-.485a5.1,5.1,0,0,0,1.152,0c.576-.076.69.144.6.676a4.659,4.659,0,0,1-4.477,3.951,4.6,4.6,0,0,1-4.611-3.682c-.2-.935-.2-.935.752-.935Z" transform="translate(-50.936 -53.873)" fill="#020202"/>
    <path id="Trazado_646007" data-name="Trazado 646007" d="M630.5,430.565a3.9,3.9,0,0,0-1.957,1.9.345.345,0,0,1-.38.245,1.066,1.066,0,0,0-.215,0c-1.38.226-2.534-.043-3.176-1.442.493-.334,1.061-.128,1.589-.2A35.478,35.478,0,0,1,630.5,430.565Z" transform="translate(-56.603 -31.631)" fill="#f4cbbe"/>
    <path id="Trazado_646008" data-name="Trazado 646008" d="M645.489,430.092a.224.224,0,0,1-.251.1Z" transform="translate(-71.149 -31.295)" fill="#f4cbbe"/>
    <path id="Trazado_646009" data-name="Trazado 646009" d="M658.329,434.66l-.138-.172Z" transform="translate(-80.356 -34.42)" fill="#f4cbbe"/>
    <path id="Trazado_646010" data-name="Trazado 646010" d="M613.927,437.984a1.154,1.154,0,1,1-1.124,1.164A1.163,1.163,0,0,1,613.927,437.984Z" transform="translate(-48.095 -36.904)" fill="#020202"/>
    <path id="Trazado_646011" data-name="Trazado 646011" d="M645.9,437.984a1.154,1.154,0,1,1-1.176,1.112A1.162,1.162,0,0,1,645.9,437.984Z" transform="translate(-70.786 -36.905)" fill="#020202"/>
  </g>
</svg>
