<svg xmlns="http://www.w3.org/2000/svg" width="70.936" height="69.791" viewBox="0 0 70.936 69.791">
  <g id="Grupo_988044" data-name="Grupo 988044" transform="translate(-813.87 -363.065)">
    <path id="Trazado_646012" data-name="Trazado 646012" d="M833.559,402.844a1.16,1.16,0,0,1,.642-1.607,16.816,16.816,0,0,0,5.724-5.071c4.42-5.594,8.936-11.113,13.432-16.647a.694.694,0,0,0,.03-1.012,2.763,2.763,0,0,1-.586-2.71,4.447,4.447,0,0,1,3.948-2.294,2.661,2.661,0,0,1,1.79,1.4q4.58,7.448,9.183,14.881,4.556,7.382,9.107,14.766c1.085,1.761.8,2.944-.974,4.041a4.8,4.8,0,0,1-1.533.77,2.4,2.4,0,0,1-2.775-1.452,1.061,1.061,0,0,0-1.4-.613c-6.363,1.417-12.737,2.79-19.107,4.177-.157.034-.31.089-.52.15a3.642,3.642,0,0,1,.8,3.025c-.052.221.143.254.287.319a3.334,3.334,0,0,1,2.129,3.519c-.022.338.117.426.372.538a3.321,3.321,0,0,1,1.938,4.311.541.541,0,0,0,.246.732,3.309,3.309,0,0,1-.081,5.547c-1.122.765-2.3,1.451-3.469,2.142a3.044,3.044,0,0,1-1.564.5,1.716,1.716,0,0,0-.905.295c-1.163.7-2.343,1.379-3.5,2.093a5.959,5.959,0,0,1-4.51.784c-1.06-.221-2.122-.434-3.181-.658-.285-.061-.552-.114-.679.246a.108.108,0,0,1-.041.055c-1.615.975-2.292,2.736-3.426,4.113a3.043,3.043,0,0,1-2.512,1.2c-5.242-.012-10.483,0-15.725-.007a2.523,2.523,0,0,1-2.834-2.8c0-.9.01-1.8,0-2.7a2.57,2.57,0,0,1,1.015-2.169q4.915-3.885,9.833-7.765a1.145,1.145,0,0,1,1.077-.337.993.993,0,0,0,1.137-.351c.336-.315.7-.6,1.057-.894a1.191,1.191,0,0,1,1.069-.379,1.021,1.021,0,0,0,1.216-.529c.885-1.265,1.721-2.564,2.575-3.851.1-.148.272-.314.021-.455-.215-.12-.36-.456-.711-.223a7.961,7.961,0,0,1-1.081.611,2.7,2.7,0,0,1-3.49-.912c-.958-1.436-1.877-2.9-2.728-4.406a2.715,2.715,0,0,1,1-3.742,1.524,1.524,0,0,0,.917-1.648,3.1,3.1,0,0,1,1.418-2.841c.425-.314.9-.567,1.334-.863a1.165,1.165,0,0,1,1.668.152c.263.867.154,1.16-.627,1.651-.31.2-.633.373-.936.578a1.532,1.532,0,0,0-.527,2.259c.567.966,1.187,1.9,1.784,2.851.875,1.436,1.732,2.884,2.632,4.3.448.707.7.706,1.1,0a9.715,9.715,0,0,1,4.031-4.062,9.694,9.694,0,0,0,1.118-.69,5.458,5.458,0,0,1,3.258-1.108l-2.627-4.157c-.821-1.356-1.647-2.709-2.459-4.071-.188-.315-.366-.242-.613-.084-.678.433-1.365.851-2.054,1.267A1.171,1.171,0,0,1,833.559,402.844Zm14.2,11.488a5.63,5.63,0,0,1,.29.542c.2.5.44.426.8.124a1.31,1.31,0,0,0-.2-2.139.932.932,0,0,0-.576-.193,1.122,1.122,0,0,0-1.008.342c-.193.268.192.5.316.754A5.04,5.04,0,0,0,847.761,414.332Zm1.47,6.008c.595-.346,1.206-.668,1.781-1.044a1.283,1.283,0,0,0,.138-2.185,1.544,1.544,0,0,0-.328-.217,1.311,1.311,0,0,0-1.234.141c-.323.236.064.53.044.809a2.4,2.4,0,0,0,.079.533,4.015,4.015,0,0,1-.607,1.848l-.129.185C849.082,420.463,849.172,420.457,849.231,420.34Zm.521,8.977a1.238,1.238,0,0,0,1.9.668c1.139-.653,2.263-1.336,3.357-2.06a1.248,1.248,0,0,0,.015-2.2,1.054,1.054,0,0,0-1.231-.077c-1.191.693-2.377,1.4-3.535,2.144A1.116,1.116,0,0,0,849.753,429.318Zm-1.486-4.576c.425.765,1.092,1.082,1.745.715,1.221-.686,2.431-1.4,3.594-2.177a1.254,1.254,0,0,0,.033-2.136,1.206,1.206,0,0,0-1.522-.066q-1.653.985-3.283,2.009A1.294,1.294,0,0,0,848.266,424.742Zm-15.95,4.848c-.858-1.228-1.9-2.309-2.842-3.465-.693-.846-.694-.828-1.475-.076-.216.208-.221.318-.023.542,1.078,1.226,2.137,2.468,3.2,3.7,1.189,1.409,2.4,2.8,3.555,4.238.372.463.641.518,1,.068.153-.193.668-.254.317-.663C834.8,432.491,833.648,430.964,832.316,429.59Zm39.951-28.405c-.109-.2-.207-.411-.327-.606q-7.419-12.029-14.843-24.055c-.754-1.222-.556-1.17-1.854-.416-.542.314-.551.6-.234,1.1.92,1.435,1.78,2.908,2.7,4.343a1.267,1.267,0,0,1-.077,1.744c-.916.268-1.188.162-1.706-.665-.244-.39-.516-.768-.72-1.178-.245-.493-.41-.444-.732-.041-2.158,2.7-4.338,5.385-6.512,8.074q-4.13,5.109-8.258,10.22c-.177.219-.42.386-.178.76.961,1.488,1.885,3,2.823,4.5,1.058,1.73,2.125,3.455,3.167,5.2.206.344.428.3.75.232,3.06-.676,6.124-1.332,9.186-2q6.924-1.508,13.845-3.021c.282-.062.667-.021.357-.512-1.13-1.793-2.248-3.593-3.371-5.39-.123-.22-.238-.445-.37-.659q-3.513-5.7-7.036-11.387a1.249,1.249,0,0,1,.049-1.739c.848-.308,1.189-.206,1.668.566,1.433,2.306,2.851,4.622,4.282,6.929q2.8,4.514,5.612,9.022c.825,1.359,1.646,2.721,2.475,4.077.769,1.257.773,1.255,2.007.415.038-.026.076-.053.115-.076a.433.433,0,0,0,.156-.695Q873.752,403.556,872.267,401.185Zm-47.049,37.074c2.21.017,4.423-.023,6.63.077a2.032,2.032,0,0,0,1.926-1.033.533.533,0,0,0-.011-.742l-3.663-4.212c-1.426-1.688-2.856-3.372-4.272-5.068-.254-.3-.453-.208-.7-.014q-4.413,3.494-8.834,6.98a.823.823,0,0,0-.344.708c.008.9.007,1.8,0,2.7,0,.427.2.65.623.649Q820.9,438.283,825.218,438.259Zm9.471-9.223c.85,1.025,1.7,2.049,2.547,3.078a.787.787,0,0,0,.517.278c1.647.314,3.289.658,4.934.987a3.886,3.886,0,0,0,2.919-.46c.762-.471,1.543-.913,2.3-1.388.17-.107.539-.139.426-.426-.1-.247-.241-.562-.609-.587-.137-.009-.272-.051-.409-.064a4.268,4.268,0,0,1-3.357-2.129c-.268-.425-.556-.837-.835-1.256-1.046-1.673-2.1-3.341-3.133-5.022-.2-.324-.339-.254-.57-.049a6.777,6.777,0,0,1-.882.658,1.053,1.053,0,0,1-1.477-.185,1.039,1.039,0,0,1,.243-1.463,4.306,4.306,0,0,1,.434-.341,4.187,4.187,0,0,0,1.832-2.808,1.7,1.7,0,0,1,.9-1.289,3.173,3.173,0,0,1,3.03.455l.988,1.345q.21.386.419.772a1.049,1.049,0,0,0,1.35.613,1.539,1.539,0,0,0,1.268-1.524.714.714,0,0,0-.038-.266c-1.008-1.65-1.985-3.321-3.049-4.935a2.008,2.008,0,0,0-2.817-.563c-.838.482-1.635,1.035-2.474,1.516a6.135,6.135,0,0,0-2.111,2.041c-1.61,2.47-3.255,4.917-4.886,7.373a2.643,2.643,0,0,1-.918,1.011c-.292.15-.243.3-.051.525C832.362,426.295,833.523,427.667,834.689,429.035Zm11.412-5.1c.053-.376.057-.393-.352-.555a3.8,3.8,0,0,1-2.074-2.171,20.4,20.4,0,0,0-1.495-2.463c-.108-.17-.29-.324-.526-.19a2.224,2.224,0,0,0-.326,1.716q2.21,3.5,4.432,6.993a2.188,2.188,0,0,0,1.06.952c.291.107.644.329.82-.12.14-.358.387-.749-.132-1.087A3.205,3.205,0,0,1,846.1,423.937Zm-16.07-7.228a1.621,1.621,0,0,0,.96-.6c.219-.288-.158-.536-.3-.774-.819-1.361-1.66-2.709-2.5-4.06-.118-.19-.2-.511-.445-.472a1.616,1.616,0,0,0-1.02.656.774.774,0,0,0,.033.907c.8,1.292,1.592,2.588,2.4,3.878A.879.879,0,0,0,830.031,416.709Z" transform="translate(0 -7.52)" fill="#030303"/>
    <path id="Trazado_646013" data-name="Trazado 646013" d="M872.456,476.052a1.171,1.171,0,0,0,1.721.164c.688-.416,1.376-.834,2.054-1.267.247-.158.426-.231.613.084.812,1.362,1.638,2.715,2.459,4.071a1.861,1.861,0,0,0-.384.134c-1.687,1.038-3.361,2.1-5.057,3.12-1.358.819-2.652,1.745-4.076,2.455-.6-.949-1.217-1.885-1.784-2.851a1.532,1.532,0,0,1,.527-2.259c.3-.205.626-.383.936-.578.78-.492.889-.784.627-1.651Z" transform="translate(-38.896 -80.729)" fill="#ea7762"/>
    <path id="Trazado_646014" data-name="Trazado 646014" d="M1003.264,364.119a3.782,3.782,0,0,1-.116.438q-1.466,3.8-2.942,7.587a1.036,1.036,0,0,1-2.009-.158,1.511,1.511,0,0,1,.179-.864q1.374-3.535,2.75-7.07a2.183,2.183,0,0,1,.32-.605.935.935,0,0,1,1.118-.308A1.075,1.075,0,0,1,1003.264,364.119Z" transform="translate(-133.148)" fill="#050505"/>
    <path id="Trazado_646015" data-name="Trazado 646015" d="M1033.657,446.35c2.594.246,5.189.483,7.782.746.758.077,1.184.543,1.136,1.139-.051.638-.552.993-1.364.92q-3.893-.354-7.784-.734c-.789-.077-1.221-.534-1.154-1.179S1032.792,446.312,1033.657,446.35Z" transform="translate(-157.773 -60.164)" fill="#050505"/>
    <path id="Trazado_646016" data-name="Trazado 646016" d="M1016.36,411.648a1.042,1.042,0,0,1-1.054-.634.964.964,0,0,1,.25-1.133,2.763,2.763,0,0,1,.445-.324q2.526-1.559,5.055-3.112a1.5,1.5,0,0,1,.825-.314,1,1,0,0,1,.979.736.929.929,0,0,1-.413,1.142c-1.89,1.186-3.8,2.344-5.7,3.505A1.661,1.661,0,0,1,1016.36,411.648Z" transform="translate(-145.459 -31.11)" fill="#050505"/>
    <path id="Trazado_646017" data-name="Trazado 646017" d="M925.435,405.51a1.249,1.249,0,0,0-.049,1.739q3.535,5.683,7.036,11.387c.132.214.247.439.37.659-.091.16-.247.171-.409.207-5.65,1.279-11.3,2.575-16.949,3.845-2.189.492-4.362,1.063-6.576,1.441-.938-1.5-1.862-3.015-2.823-4.5-.242-.374,0-.541.178-.76q4.127-5.112,8.258-10.22c2.173-2.689,4.354-5.372,6.512-8.074.322-.4.487-.452.732.041.2.411.475.788.72,1.178.517.827.79.933,1.706.665C924.438,403.986,925.176,404.619,925.435,405.51Z" transform="translate(-66.508 -27.344)" fill="#f4ce75"/>
    <path id="Trazado_646018" data-name="Trazado 646018" d="M916.469,472.619c2.214-.379,4.387-.95,6.576-1.441,5.652-1.271,11.3-2.566,16.949-3.845.162-.037.318-.047.409-.207,1.123,1.8,2.241,3.6,3.371,5.39.309.491-.076.45-.357.512q-6.923,1.509-13.845,3.021c-3.062.667-6.126,1.322-9.186,2-.321.071-.544.113-.75-.232C918.594,476.074,917.527,474.349,916.469,472.619Z" transform="translate(-74.119 -75.174)" fill="#eab464"/>
    <path id="Trazado_646019" data-name="Trazado 646019" d="M889.154,518.97l-.988-1.345a1.835,1.835,0,0,0-1.724-1.718c-1.066.024-1.105.015-1.306,1.263a1.7,1.7,0,0,0-.9,1.289,4.186,4.186,0,0,1-1.832,2.807,4.314,4.314,0,0,0-.434.341,1.039,1.039,0,0,0-.243,1.463,1.053,1.053,0,0,0,1.477.185,6.769,6.769,0,0,0,.882-.658c.231-.2.37-.275.57.049,1.033,1.681,2.087,3.349,3.133,5.022a9.861,9.861,0,0,1-2.206,1.485,4.878,4.878,0,0,1-3.428.732,24.611,24.611,0,0,0-2.8-.251c-1.166-1.368-2.327-2.74-3.5-4.1-.192-.222-.241-.374.051-.525a2.643,2.643,0,0,0,.918-1.011c1.631-2.456,3.276-4.9,4.886-7.373a6.135,6.135,0,0,1,2.111-2.041c.839-.481,1.636-1.033,2.474-1.516a2.008,2.008,0,0,1,2.817.563c1.064,1.614,2.041,3.285,3.049,4.935a.714.714,0,0,1,.038.266A3.618,3.618,0,0,1,889.154,518.97Z" transform="translate(-44.66 -108.118)" fill="#f8e3d0"/>
    <path id="Trazado_646020" data-name="Trazado 646020" d="M830.634,577.78q-4.321.022-8.641.041c-.425,0-.626-.221-.623-.649.006-.9.007-1.8,0-2.7a.823.823,0,0,1,.344-.708q4.422-3.483,8.834-6.98c.245-.194.444-.289.7.015,1.416,1.7,2.847,3.38,4.272,5.068-.934,1.1-1.894,2.169-2.792,3.293A18.314,18.314,0,0,0,830.634,577.78Z" transform="translate(-5.416 -147.041)" fill="#3f5363"/>
    <path id="Trazado_646021" data-name="Trazado 646021" d="M965.439,391.133c-.26-.891-1-1.524-1.3-2.394a1.267,1.267,0,0,0,.078-1.744c-.921-1.435-1.78-2.908-2.7-4.343-.317-.494-.308-.783.234-1.1,1.3-.754,1.1-.806,1.854.416q7.424,12.026,14.843,24.055c.12.195.218.4.326.606A7.467,7.467,0,0,0,977,407.649q-2.806-4.511-5.612-9.022c-1.431-2.307-2.848-4.623-4.281-6.929C966.628,390.927,966.287,390.825,965.439,391.133Z" transform="translate(-106.511 -12.967)" fill="#e87661"/>
    <path id="Trazado_646022" data-name="Trazado 646022" d="M875.181,495.978c1.424-.709,2.718-1.636,4.076-2.455,1.7-1.023,3.37-2.082,5.057-3.12a1.86,1.86,0,0,1,.384-.134l2.627,4.156a5.458,5.458,0,0,0-3.258,1.108,9.7,9.7,0,0,1-1.118.69,9.715,9.715,0,0,0-4.031,4.062c-.409.7-.656.7-1.1,0C876.913,498.862,876.056,497.414,875.181,495.978Z" transform="translate(-44.292 -91.894)" fill="#c5483f"/>
    <path id="Trazado_646023" data-name="Trazado 646023" d="M888.867,568.513a24.611,24.611,0,0,1,2.8.251,4.878,4.878,0,0,0,3.428-.732,9.859,9.859,0,0,0,2.206-1.485c.279.418.567.831.835,1.256a4.269,4.269,0,0,0,3.357,2.129c.137.013.272.054.409.064.369.025.512.34.609.587.114.287-.255.319-.426.426-.76.475-1.541.917-2.3,1.388a3.886,3.886,0,0,1-2.919.46c-1.645-.329-3.287-.673-4.934-.987a.786.786,0,0,1-.517-.278C890.57,570.562,889.717,569.538,888.867,568.513Z" transform="translate(-54.179 -146.998)" fill="#e7d1be"/>
    <path id="Trazado_646024" data-name="Trazado 646024" d="M854.748,591.476a18.324,18.324,0,0,1,2.09-2.617c.9-1.123,1.859-2.2,2.793-3.293l3.663,4.212a.533.533,0,0,1,.011.742,2.032,2.032,0,0,1-1.926,1.033C859.171,591.453,856.958,591.493,854.748,591.476Z" transform="translate(-29.53 -160.738)" fill="#22404c"/>
    <path id="Trazado_646025" data-name="Trazado 646025" d="M917.385,541.132a3.205,3.205,0,0,0,1.407,3.075c.519.338.272.729.132,1.087-.176.449-.529.226-.82.12a2.187,2.187,0,0,1-1.06-.952q-2.23-3.488-4.432-6.993a2.224,2.224,0,0,1,.326-1.716c.236-.134.418.02.526.19a20.394,20.394,0,0,1,1.495,2.463,3.8,3.8,0,0,0,2.074,2.171C917.443,540.739,917.438,540.756,917.385,541.132Z" transform="translate(-71.285 -124.715)" fill="#364858"/>
    <path id="Trazado_646026" data-name="Trazado 646026" d="M1017.839,474.316a7.479,7.479,0,0,1,1.777-1.018q1.488,2.37,2.976,4.74a.433.433,0,0,1-.156.695c-.04.023-.077.051-.115.076-1.234.84-1.238.842-2.007-.415C1019.485,477.037,1018.664,475.675,1017.839,474.316Z" transform="translate(-147.35 -79.634)" fill="#c5483f"/>
    <path id="Trazado_646027" data-name="Trazado 646027" d="M863.149,513.832a.879.879,0,0,1-.872-.469c-.8-1.289-1.6-2.585-2.4-3.878a.774.774,0,0,1-.033-.907,1.616,1.616,0,0,1,1.02-.656c.245-.04.327.281.445.472.836,1.351,1.677,2.7,2.5,4.06.143.238.52.486.3.774A1.621,1.621,0,0,1,863.149,513.832Z" transform="translate(-33.118 -104.644)" fill="#364858"/>
    <path id="Trazado_646028" data-name="Trazado 646028" d="M877.357,575.628c1.332,1.374,2.485,2.9,3.729,4.349.351.409-.164.47-.317.663-.355.45-.624.4-1-.068-1.153-1.438-2.366-2.829-3.555-4.238C876.641,576.168,876.88,575.707,877.357,575.628Z" transform="translate(-45.041 -153.558)" fill="#929da2"/>
    <path id="Trazado_646029" data-name="Trazado 646029" d="M943.152,545.2a1.254,1.254,0,0,1-.033,2.136c-1.163.779-2.373,1.492-3.594,2.177-.653.367-1.319.05-1.745-.715a2.028,2.028,0,0,0,.979-.3q1.507-.9,2.991-1.847C942.329,546.28,942.945,545.934,943.152,545.2Z" transform="translate(-89.515 -131.577)" fill="#e7d1be"/>
    <path id="Trazado_646030" data-name="Trazado 646030" d="M948.4,561.691a1.248,1.248,0,0,1-.015,2.2c-1.094.724-2.219,1.407-3.357,2.06a1.237,1.237,0,0,1-1.9-.668,1.348,1.348,0,0,0,.851-.218c1.137-.686,2.3-1.331,3.4-2.079C947.825,562.689,948.372,562.362,948.4,561.691Z" transform="translate(-93.383 -143.49)" fill="#e7d1be"/>
    <path id="Trazado_646031" data-name="Trazado 646031" d="M942.913,544.41c-.207.733-.823,1.079-1.4,1.447q-1.483.943-2.991,1.847a2.026,2.026,0,0,1-.978.3,1.294,1.294,0,0,1,.567-1.655q1.627-1.027,3.283-2.009A1.206,1.206,0,0,1,942.913,544.41Z" transform="translate(-89.275 -130.787)" fill="#f5e1cd"/>
    <path id="Trazado_646032" data-name="Trazado 646032" d="M868.651,564.953c-.477.079-.716.541-1.138.706-1.065-1.237-2.124-2.479-3.2-3.7-.2-.224-.193-.334.023-.542.781-.752.782-.77,1.475.076C866.755,562.643,867.792,563.725,868.651,564.953Z" transform="translate(-36.335 -142.883)" fill="#c7ced6"/>
    <path id="Trazado_646033" data-name="Trazado 646033" d="M948.057,561.068c-.033.671-.58,1-1.021,1.3-1.1.748-2.26,1.393-3.4,2.079a1.348,1.348,0,0,1-.851.218,1.116,1.116,0,0,1,.5-1.529c1.158-.746,2.344-1.451,3.535-2.144A1.054,1.054,0,0,1,948.057,561.068Z" transform="translate(-93.034 -142.867)" fill="#f5e1cd"/>
    <path id="Trazado_646034" data-name="Trazado 646034" d="M942.847,530.674a1.283,1.283,0,0,1-.138,2.185c-.575.376-1.186.7-1.781,1.044l-.126-.115a4.016,4.016,0,0,0,.607-1.848C942.188,531.859,942.506,531.253,942.847,530.674Z" transform="translate(-91.697 -121.083)" fill="#e7d1be"/>
    <path id="Trazado_646035" data-name="Trazado 646035" d="M909.716,525.446c.2-1.247.24-1.238,1.306-1.263a1.835,1.835,0,0,1,1.724,1.718A3.173,3.173,0,0,0,909.716,525.446Z" transform="translate(-69.24 -116.394)" fill="#e7d1be"/>
    <path id="Trazado_646036" data-name="Trazado 646036" d="M924.191,534.854a3.618,3.618,0,0,0,3.037-.14,1.539,1.539,0,0,1-1.268,1.524,1.049,1.049,0,0,1-1.35-.613Q924.4,535.239,924.191,534.854Z" transform="translate(-79.697 -124.001)" fill="#e7d1be"/>
    <path id="Trazado_646037" data-name="Trazado 646037" d="M936.849,515.354a1.31,1.31,0,0,1,.2,2.139c-.359.3-.595.374-.8-.124a5.724,5.724,0,0,0-.29-.542C936.228,516.318,936.733,515.953,936.849,515.354Z" transform="translate(-88.201 -110.016)" fill="#e7d1be"/>
    <path id="Trazado_646038" data-name="Trazado 646038" d="M943.769,529.874c-.342.578-.659,1.185-1.438,1.266a2.39,2.39,0,0,1-.079-.533c.02-.278-.367-.572-.044-.809a1.311,1.311,0,0,1,1.234-.141A1.548,1.548,0,0,1,943.769,529.874Z" transform="translate(-92.619 -120.283)" fill="#f5e1cd"/>
    <path id="Trazado_646039" data-name="Trazado 646039" d="M934.892,514.84c-.115.6-.621.964-.886,1.473a4.979,4.979,0,0,1-.382-.57c-.124-.25-.51-.486-.317-.754a1.122,1.122,0,0,1,1.008-.342A.933.933,0,0,1,934.892,514.84Z" transform="translate(-86.244 -109.501)" fill="#f5e1cd"/>
    <path id="Trazado_646040" data-name="Trazado 646040" d="M940.592,542.007c-.06.117-.149.123-.255.07l.129-.185Z" transform="translate(-91.361 -129.187)" fill="#e7d1be"/>
  </g>
</svg>
