<svg xmlns="http://www.w3.org/2000/svg" xmlns:xlink="http://www.w3.org/1999/xlink" width="820.001" height="484.864" viewBox="0 0 820.001 484.864">
  <defs>
    <linearGradient id="linear-gradient" x1="0.813" y1="0.102" x2="0.173" y2="0.886" gradientUnits="objectBoundingBox">
      <stop offset="0" stop-color="#ff676a"/>
      <stop offset="0.327" stop-color="#ce42c1"/>
      <stop offset="0.682" stop-color="#8345ff"/>
      <stop offset="1" stop-color="#138dff"/>
    </linearGradient>
  </defs>
  <g id="Grupo_995181" data-name="Grupo 995181" transform="translate(-389.999 -3864.318)">
    <g id="Grupo_985989" data-name="Grupo 985989" transform="translate(505.406 3861.588)">
      <g id="Grupo_985948" data-name="Grupo 985948" transform="translate(163.035 232.272)">
        <g id="Grupo_985947" data-name="Grupo 985947">
          <g id="Grupo_985946" data-name="Grupo 985946" style="isolation: isolate">
            <g id="Grupo_985941" data-name="Grupo 985941" transform="translate(0 14.575)">
              <path id="Trazado_643155" data-name="Trazado 643155" d="M339.9,349.428l1.018,172.695-15.8-10.722L324.1,338.706Z" transform="translate(-324.101 -338.706)" fill="#007c12"/>
            </g>
            <g id="Grupo_985942" data-name="Grupo 985942" transform="translate(102.351 15.408)">
              <path id="Trazado_643156" data-name="Trazado 643156" d="M504.681,340.014,505.7,512.708l-20.043,10.477-1.018-172.693Z" transform="translate(-484.638 -340.014)" fill="#00ad19"/>
            </g>
            <g id="Grupo_985943" data-name="Grupo 985943" transform="translate(15.804 25.297)">
              <path id="Trazado_643157" data-name="Trazado 643157" d="M391.284,360.21,392.3,532.9l-42.395-4.686-1.018-172.695Z" transform="translate(-348.889 -355.523)" fill="#00ad19"/>
            </g>
            <g id="Grupo_985944" data-name="Grupo 985944" transform="translate(58.199 25.887)">
              <path id="Trazado_643158" data-name="Trazado 643158" d="M459.538,356.45l1.018,172.693-44.152,4.1-1.018-172.694Z" transform="translate(-415.386 -356.45)" fill="#12db2f"/>
            </g>
            <g id="Grupo_985945" data-name="Grupo 985945">
              <path id="Trazado_643159" data-name="Trazado 643159" d="M388.3,315.846l42.395,4.686,15.8,10.722-20.043,10.479-44.151,4.1-42.4-4.686L324.1,330.42l20.043-10.478Z" transform="translate(-324.101 -315.846)" fill="#30f44d"/>
            </g>
          </g>
        </g>
      </g>
      <g id="Grupo_985956" data-name="Grupo 985956" transform="translate(22.869 211.303)">
        <g id="Grupo_985955" data-name="Grupo 985955" transform="translate(0 0)">
          <g id="Grupo_985954" data-name="Grupo 985954" style="isolation: isolate">
            <g id="Grupo_985949" data-name="Grupo 985949" transform="translate(0 15.075)">
              <path id="Trazado_643160" data-name="Trazado 643160" d="M120.063,317.746l1.179,192.525-15.813-11.145L104.249,306.6Z" transform="translate(-104.249 -306.601)" fill="#790bdb"/>
            </g>
            <g id="Grupo_985950" data-name="Grupo 985950" transform="translate(102.362 16.047)">
              <path id="Trazado_643161" data-name="Trazado 643161" d="M284.84,308.125l1.179,192.525-20.034,10.86-1.179-192.523Z" transform="translate(-264.805 -308.125)" fill="#9f33ff"/>
            </g>
            <g id="Grupo_985951" data-name="Grupo 985951" transform="translate(15.813 26.22)">
              <path id="Trazado_643162" data-name="Trazado 643162" d="M171.453,328.983l1.178,192.524-42.4-4.9-1.179-192.525Z" transform="translate(-129.053 -324.081)" fill="#9f33ff"/>
            </g>
            <g id="Grupo_985952" data-name="Grupo 985952" transform="translate(58.214 26.908)">
              <path id="Trazado_643163" data-name="Trazado 643163" d="M239.706,325.161l1.179,192.523L196.736,521.9l-1.178-192.524Z" transform="translate(-195.558 -325.161)" fill="#b96aff"/>
            </g>
            <g id="Grupo_985953" data-name="Grupo 985953">
              <path id="Trazado_643164" data-name="Trazado 643164" d="M168.433,282.955l42.4,4.9L226.646,299l-20.035,10.862-44.149,4.214-42.4-4.9L104.249,298.03l20.034-10.861Z" transform="translate(-104.249 -282.955)" fill="#cd95ff"/>
            </g>
          </g>
        </g>
      </g>
      <g id="Grupo_985964" data-name="Grupo 985964" transform="translate(-115.407 85.266)">
        <g id="Grupo_985963" data-name="Grupo 985963">
          <g id="Grupo_985962" data-name="Grupo 985962" style="isolation: isolate">
            <g id="Grupo_985957" data-name="Grupo 985957" transform="translate(0 14.575)">
              <path id="Trazado_643165" data-name="Trazado 643165" d="M-99.6,118.848l.227,319.7-15.8-10.723-.227-319.7Z" transform="translate(115.407 -108.126)" fill="#00b237"/>
            </g>
            <g id="Grupo_985958" data-name="Grupo 985958" transform="translate(102.351 15.408)">
              <path id="Trazado_643166" data-name="Trazado 643166" d="M65.173,109.434l.227,319.7L45.357,439.612l-.227-319.7Z" transform="translate(-45.13 -109.434)" fill="#00d843"/>
            </g>
            <g id="Grupo_985959" data-name="Grupo 985959" transform="translate(15.804 25.297)">
              <path id="Trazado_643167" data-name="Trazado 643167" d="M-48.223,129.63-48,449.33l-42.395-4.686-.227-319.7Z" transform="translate(90.619 -124.943)" fill="#00d843"/>
            </g>
            <g id="Grupo_985960" data-name="Grupo 985960" transform="translate(58.199 25.887)">
              <path id="Trazado_643168" data-name="Trazado 643168" d="M20.03,125.87l.227,319.7-44.152,4.1-.227-319.7Z" transform="translate(24.121 -125.87)" fill="#19f55d"/>
            </g>
            <g id="Grupo_985961" data-name="Grupo 985961">
              <path id="Trazado_643169" data-name="Trazado 643169" d="M-51.212,85.266l42.395,4.686,15.8,10.722-20.043,10.479-44.151,4.1-42.4-4.686-15.8-10.722,20.043-10.478Z" transform="translate(115.407 -85.266)" fill="#4aff82"/>
            </g>
          </g>
        </g>
      </g>
      <g id="Grupo_985972" data-name="Grupo 985972" transform="translate(303.038 303.495)">
        <g id="Grupo_985971" data-name="Grupo 985971">
          <g id="Grupo_985970" data-name="Grupo 985970" style="isolation: isolate">
            <g id="Grupo_985965" data-name="Grupo 985965" transform="translate(0 14.352)">
              <path id="Trazado_643170" data-name="Trazado 643170" d="M559.868,460.848l.313,101.492-15.767-10.777L544.1,450.071Z" transform="translate(-544.101 -450.071)" fill="#c10404"/>
            </g>
            <g id="Grupo_985966" data-name="Grupo 985966" transform="translate(102.311 15.61)">
              <path id="Trazado_643171" data-name="Trazado 643171" d="M724.655,452.044l.313,101.493-20.079,10.409-.313-101.492Z" transform="translate(-704.576 -452.044)" fill="#e81f1f"/>
            </g>
            <g id="Grupo_985967" data-name="Grupo 985967" transform="translate(15.767 25.129)">
              <path id="Trazado_643172" data-name="Trazado 643172" d="M611.209,471.808l.313,101.492-42.378-4.833-.313-101.492Z" transform="translate(-568.831 -466.974)" fill="#e81f1f"/>
            </g>
            <g id="Grupo_985968" data-name="Grupo 985968" transform="translate(58.145 26.019)">
              <path id="Trazado_643173" data-name="Trazado 643173" d="M679.467,468.371l.313,101.492-44.166,3.942L635.3,472.314Z" transform="translate(-635.301 -468.371)" fill="#fd5050"/>
            </g>
            <g id="Grupo_985969" data-name="Grupo 985969">
              <path id="Trazado_643174" data-name="Trazado 643174" d="M608.345,427.559l42.379,4.833,15.767,10.777-20.079,10.409-44.166,3.943-42.378-4.833L544.1,441.912,564.18,431.5Z" transform="translate(-544.101 -427.559)" fill="#ff8383"/>
            </g>
          </g>
        </g>
      </g>
      <g id="Grupo_985980" data-name="Grupo 985980" transform="translate(443.163 324.871)">
        <g id="Grupo_985979" data-name="Grupo 985979" transform="translate(0 0)">
          <g id="Grupo_985978" data-name="Grupo 985978" style="isolation: isolate">
            <g id="Grupo_985973" data-name="Grupo 985973" transform="translate(0 14.203)">
              <path id="Trazado_643175" data-name="Trazado 643175" d="M779.875,494.178l-.033,80.131L764.1,563.5l.033-80.131Z" transform="translate(-764.101 -483.364)" fill="#e3e100"/>
            </g>
            <g id="Grupo_985974" data-name="Grupo 985974" transform="translate(102.284 15.745)">
              <path id="Trazado_643176" data-name="Trazado 643176" d="M944.67,485.782l-.034,80.131-20.1,10.363.034-80.131Z" transform="translate(-924.533 -485.782)" fill="#fffc01"/>
            </g>
            <g id="Grupo_985975" data-name="Grupo 985975" transform="translate(15.741 25.016)">
              <path id="Trazado_643177" data-name="Trazado 643177" d="M831.191,505.256l-.033,80.131-42.367-4.931.033-80.131Z" transform="translate(-788.791 -500.325)" fill="#fffc01"/>
            </g>
            <g id="Grupo_985976" data-name="Grupo 985976" transform="translate(58.109 26.107)">
              <path id="Trazado_643178" data-name="Trazado 643178" d="M899.453,502.036l-.034,80.131-44.175,3.84.033-80.131Z" transform="translate(-855.244 -502.036)" fill="#fffd71"/>
            </g>
            <g id="Grupo_985977" data-name="Grupo 985977" transform="translate(0.033)">
              <path id="Trazado_643179" data-name="Trazado 643179" d="M828.43,461.087l42.367,4.932,15.742,10.813-20.1,10.363-44.176,3.84L779.894,486.1,764.152,475.29l20.1-10.362Z" transform="translate(-764.152 -461.087)" fill="#fffe95"/>
            </g>
          </g>
        </g>
      </g>
      <g id="Grupo_985988" data-name="Grupo 985988" transform="translate(582.173 324.871)">
        <g id="Grupo_985987" data-name="Grupo 985987" transform="translate(0 0)">
          <g id="Grupo_985986" data-name="Grupo 985986" style="isolation: isolate">
            <g id="Grupo_985981" data-name="Grupo 985981" transform="translate(0 14.203)">
              <path id="Trazado_643180" data-name="Trazado 643180" d="M1003.238,494.178l-.033,80.131L987.464,563.5l.033-80.131Z" transform="translate(-987.464 -483.364)" fill="#0982be"/>
            </g>
            <g id="Grupo_985982" data-name="Grupo 985982" transform="translate(102.284 15.745)">
              <path id="Trazado_643181" data-name="Trazado 643181" d="M1168.032,485.782,1168,565.913l-20.1,10.363.034-80.131Z" transform="translate(-1147.896 -485.782)" fill="#23a0dd"/>
            </g>
            <g id="Grupo_985983" data-name="Grupo 985983" transform="translate(15.741 25.016)">
              <path id="Trazado_643182" data-name="Trazado 643182" d="M1054.554,505.256l-.033,80.131-42.367-4.931.033-80.131Z" transform="translate(-1012.154 -500.325)" fill="#23a0dd"/>
            </g>
            <g id="Grupo_985984" data-name="Grupo 985984" transform="translate(58.109 26.107)">
              <path id="Trazado_643183" data-name="Trazado 643183" d="M1122.816,502.036l-.034,80.131-44.175,3.84.033-80.131Z" transform="translate(-1078.607 -502.036)" fill="#4abef7"/>
            </g>
            <g id="Grupo_985985" data-name="Grupo 985985" transform="translate(0.033)">
              <path id="Trazado_643184" data-name="Trazado 643184" d="M1051.793,461.087l42.367,4.932,15.742,10.813-20.1,10.363-44.176,3.84-42.367-4.931L987.515,475.29l20.1-10.362Z" transform="translate(-987.515 -461.087)" fill="#80d5ff"/>
            </g>
          </g>
        </g>
      </g>
    </g>
    <path id="Trazado_647440" data-name="Trazado 647440" d="M12.984,11.414l.219,1.5.32-1.352,2.25-7.937h1.266l2.2,7.938.313,1.375.242-1.531,1.766-7.781h1.508L20.3,15H18.938L16.594,6.711l-.18-.867-.18.867L13.8,15H12.438L9.688,3.625h1.5ZM25.945,7.57a3.073,3.073,0,0,1,2.5-1.18q2.68,0,2.7,3.023V15H29.7V9.406a1.946,1.946,0,0,0-.418-1.352,1.675,1.675,0,0,0-1.277-.437,2.086,2.086,0,0,0-1.234.375,2.546,2.546,0,0,0-.828.984V15H24.5V3h1.445ZM38.531,15a3.036,3.036,0,0,1-.2-.891,3.225,3.225,0,0,1-2.406,1.047,2.984,2.984,0,0,1-2.051-.707,2.287,2.287,0,0,1-.8-1.793,2.39,2.39,0,0,1,1-2.051,4.733,4.733,0,0,1,2.824-.73H38.3V9.211A1.623,1.623,0,0,0,37.852,8a1.821,1.821,0,0,0-1.336-.449,2.107,2.107,0,0,0-1.3.391,1.151,1.151,0,0,0-.523.945H33.242a2,2,0,0,1,.449-1.223,3.066,3.066,0,0,1,1.219-.934A4.1,4.1,0,0,1,36.6,6.391a3.342,3.342,0,0,1,2.289.73,2.635,2.635,0,0,1,.859,2.012v3.891a4.757,4.757,0,0,0,.3,1.852V15Zm-2.4-1.1a2.54,2.54,0,0,0,1.289-.352,2.127,2.127,0,0,0,.883-.914V10.9H37.172q-2.656,0-2.656,1.555a1.316,1.316,0,0,0,.453,1.063A1.742,1.742,0,0,0,36.133,13.9Zm7.844-9.4V6.547h1.578V7.664H43.977v5.249a1.173,1.173,0,0,0,.211.763.888.888,0,0,0,.719.254,3.5,3.5,0,0,0,.688-.094V15a4.215,4.215,0,0,1-1.109.155,1.8,1.8,0,0,1-1.461-.586,2.517,2.517,0,0,1-.492-1.664V7.664H40.992V6.547h1.539V4.5Zm8.188,8.258a1.064,1.064,0,0,0-.441-.91,4.249,4.249,0,0,0-1.539-.559,7.277,7.277,0,0,1-1.742-.562,2.479,2.479,0,0,1-.953-.781,1.869,1.869,0,0,1-.309-1.078,2.193,2.193,0,0,1,.879-1.758A3.432,3.432,0,0,1,50.3,6.391a3.532,3.532,0,0,1,2.332.742,2.357,2.357,0,0,1,.895,1.9H52.078a1.3,1.3,0,0,0-.5-1.023,1.888,1.888,0,0,0-1.27-.43,1.976,1.976,0,0,0-1.234.344,1.082,1.082,0,0,0-.445.9.877.877,0,0,0,.414.789,5.1,5.1,0,0,0,1.5.508,7.8,7.8,0,0,1,1.754.578,2.558,2.558,0,0,1,1,.809,1.988,1.988,0,0,1,.324,1.152,2.163,2.163,0,0,1-.906,1.816,3.8,3.8,0,0,1-2.352.684,4.257,4.257,0,0,1-1.8-.359,2.922,2.922,0,0,1-1.223-1,2.42,2.42,0,0,1-.441-1.395h1.445a1.5,1.5,0,0,0,.582,1.152,2.258,2.258,0,0,0,1.434.426,2.331,2.331,0,0,0,1.316-.332A1.02,1.02,0,0,0,52.164,12.758ZM62,12.023H57.234L56.164,15H54.617L58.961,3.625h1.313L64.625,15H63.086ZM57.688,10.8h3.867l-1.937-5.32Zm15.383.07a5.062,5.062,0,0,1-.883,3.109,2.829,2.829,0,0,1-2.391,1.18,3.1,3.1,0,0,1-2.422-.977v4.07H65.93V6.547h1.32l.07.938a2.977,2.977,0,0,1,2.453-1.094,2.882,2.882,0,0,1,2.41,1.148,5.117,5.117,0,0,1,.887,3.2ZM71.625,10.7a3.735,3.735,0,0,0-.609-2.258,1.963,1.963,0,0,0-1.672-.828,2.125,2.125,0,0,0-1.969,1.164V12.82a2.129,2.129,0,0,0,1.984,1.156,1.954,1.954,0,0,0,1.652-.824A4.077,4.077,0,0,0,71.625,10.7Zm10.422.164a5.062,5.062,0,0,1-.883,3.109,2.829,2.829,0,0,1-2.391,1.18,3.1,3.1,0,0,1-2.422-.977v4.07H74.906V6.547h1.32l.07.938A2.977,2.977,0,0,1,78.75,6.391a2.882,2.882,0,0,1,2.41,1.148,5.117,5.117,0,0,1,.887,3.2ZM80.6,10.7a3.735,3.735,0,0,0-.609-2.258,1.963,1.963,0,0,0-1.672-.828,2.125,2.125,0,0,0-1.969,1.164V12.82a2.129,2.129,0,0,0,1.984,1.156,1.954,1.954,0,0,0,1.652-.824A4.077,4.077,0,0,0,80.6,10.7Z" transform="translate(403 4310.854)" fill="#12263f"/>
    <path id="Trazado_647441" data-name="Trazado 647441" d="M18.859,9.977H14.086V15h-1.5V3.625h7.047V4.852H14.086v3.9h4.773ZM26.156,15a3.036,3.036,0,0,1-.2-.891,3.225,3.225,0,0,1-2.406,1.047,2.984,2.984,0,0,1-2.051-.707,2.287,2.287,0,0,1-.8-1.793,2.39,2.39,0,0,1,1-2.051,4.733,4.733,0,0,1,2.824-.73H25.93V9.211A1.623,1.623,0,0,0,25.477,8a1.821,1.821,0,0,0-1.336-.449,2.108,2.108,0,0,0-1.3.391,1.151,1.151,0,0,0-.523.945H20.867a2,2,0,0,1,.449-1.223,3.066,3.066,0,0,1,1.219-.934,4.1,4.1,0,0,1,1.691-.344,3.342,3.342,0,0,1,2.289.73,2.635,2.635,0,0,1,.859,2.012v3.891a4.757,4.757,0,0,0,.3,1.852V15Zm-2.4-1.1a2.54,2.54,0,0,0,1.289-.352,2.127,2.127,0,0,0,.883-.914V10.9H24.8q-2.656,0-2.656,1.555a1.316,1.316,0,0,0,.453,1.063A1.742,1.742,0,0,0,23.758,13.9Zm9.273.078a2.082,2.082,0,0,0,1.352-.469,1.649,1.649,0,0,0,.641-1.172h1.367a2.621,2.621,0,0,1-.5,1.383,3.293,3.293,0,0,1-1.23,1.047,3.55,3.55,0,0,1-1.629.391A3.482,3.482,0,0,1,30.285,14a4.59,4.59,0,0,1-1.02-3.152v-.242a5.089,5.089,0,0,1,.453-2.2,3.451,3.451,0,0,1,1.3-1.492,3.7,3.7,0,0,1,2-.531,3.39,3.39,0,0,1,2.363.852,3.043,3.043,0,0,1,1,2.211H35.023A1.992,1.992,0,0,0,34.4,8.105a1.932,1.932,0,0,0-1.379-.527,2.023,2.023,0,0,0-1.707.793,3.724,3.724,0,0,0-.605,2.293v.273a3.65,3.65,0,0,0,.6,2.25A2.033,2.033,0,0,0,33.031,13.977Zm8.492,1.18a3.693,3.693,0,0,1-2.8-1.129,4.19,4.19,0,0,1-1.078-3.02v-.266a5.073,5.073,0,0,1,.48-2.246,3.748,3.748,0,0,1,1.344-1.547,3.378,3.378,0,0,1,1.871-.559,3.166,3.166,0,0,1,2.563,1.086,4.7,4.7,0,0,1,.914,3.109v.6H39.094a3,3,0,0,0,.73,2.02,2.3,2.3,0,0,0,1.777.77,2.517,2.517,0,0,0,1.3-.312,3.259,3.259,0,0,0,.93-.828l.883.688A3.55,3.55,0,0,1,41.523,15.156Zm-.18-7.578a1.928,1.928,0,0,0-1.469.637A3.1,3.1,0,0,0,39.141,10h4.234V9.891a2.753,2.753,0,0,0-.594-1.707A1.815,1.815,0,0,0,41.344,7.578Zm12.3,3.289a5.026,5.026,0,0,1-.891,3.113,2.846,2.846,0,0,1-2.391,1.176,2.947,2.947,0,0,1-2.477-1.133L47.82,15H46.492V3h1.445V7.477a2.93,2.93,0,0,1,2.414-1.086A2.863,2.863,0,0,1,52.77,7.555a5.177,5.177,0,0,1,.879,3.188ZM52.2,10.7a3.906,3.906,0,0,0-.57-2.281,1.888,1.888,0,0,0-1.641-.8,2.122,2.122,0,0,0-2.055,1.328V12.6a2.181,2.181,0,0,0,2.07,1.328,1.878,1.878,0,0,0,1.617-.8A4.153,4.153,0,0,0,52.2,10.7Zm2.883-.008a4.993,4.993,0,0,1,.488-2.234A3.643,3.643,0,0,1,56.934,6.93a3.7,3.7,0,0,1,1.988-.539,3.565,3.565,0,0,1,2.793,1.2,4.6,4.6,0,0,1,1.066,3.18v.1a5.036,5.036,0,0,1-.473,2.215,3.589,3.589,0,0,1-1.352,1.527,3.743,3.743,0,0,1-2.02.547,3.556,3.556,0,0,1-2.785-1.2A4.575,4.575,0,0,1,55.086,10.8Zm1.453.172a3.616,3.616,0,0,0,.652,2.258,2.211,2.211,0,0,0,3.5-.012,3.955,3.955,0,0,0,.648-2.418,3.61,3.61,0,0,0-.66-2.254,2.1,2.1,0,0,0-1.754-.863A2.075,2.075,0,0,0,57.2,8.43,3.925,3.925,0,0,0,56.539,10.867Zm7.672-.172A4.993,4.993,0,0,1,64.7,8.461,3.643,3.643,0,0,1,66.059,6.93a3.7,3.7,0,0,1,1.988-.539,3.565,3.565,0,0,1,2.793,1.2,4.6,4.6,0,0,1,1.066,3.18v.1a5.036,5.036,0,0,1-.473,2.215,3.589,3.589,0,0,1-1.352,1.527,3.743,3.743,0,0,1-2.02.547,3.556,3.556,0,0,1-2.785-1.2A4.575,4.575,0,0,1,64.211,10.8Zm1.453.172a3.616,3.616,0,0,0,.652,2.258,2.211,2.211,0,0,0,3.5-.012,3.955,3.955,0,0,0,.648-2.418,3.61,3.61,0,0,0-.66-2.254,2.1,2.1,0,0,0-1.754-.863,2.075,2.075,0,0,0-1.727.852A3.925,3.925,0,0,0,65.664,10.867Zm10.414.219-.906.945V15H73.727V3h1.445v7.258l.773-.93,2.633-2.781h1.758l-3.289,3.531L80.719,15h-1.7ZM9.7,23.625l3.719,9.281,3.719-9.281h1.945V35h-1.5V30.57l.141-4.781L13.988,35H12.84L9.113,25.813l.148,4.758V35h-1.5V23.625ZM25.012,35.156a3.693,3.693,0,0,1-2.8-1.129,4.19,4.19,0,0,1-1.078-3.02v-.266a5.073,5.073,0,0,1,.48-2.246,3.748,3.748,0,0,1,1.344-1.547,3.378,3.378,0,0,1,1.871-.559,3.166,3.166,0,0,1,2.563,1.086,4.7,4.7,0,0,1,.914,3.109v.6H22.582a3,3,0,0,0,.73,2.02,2.3,2.3,0,0,0,1.777.77,2.517,2.517,0,0,0,1.3-.312,3.259,3.259,0,0,0,.93-.828l.883.688A3.55,3.55,0,0,1,25.012,35.156Zm-.18-7.578a1.928,1.928,0,0,0-1.469.637A3.1,3.1,0,0,0,22.629,30h4.234v-.109a2.753,2.753,0,0,0-.594-1.707A1.815,1.815,0,0,0,24.832,27.578Zm10.07,5.18a1.064,1.064,0,0,0-.441-.91,4.249,4.249,0,0,0-1.539-.559,7.277,7.277,0,0,1-1.742-.562,2.479,2.479,0,0,1-.953-.781,1.869,1.869,0,0,1-.309-1.078,2.193,2.193,0,0,1,.879-1.758,3.432,3.432,0,0,1,2.246-.719,3.532,3.532,0,0,1,2.332.742,2.357,2.357,0,0,1,.895,1.9H34.816a1.3,1.3,0,0,0-.5-1.023,1.888,1.888,0,0,0-1.27-.43,1.976,1.976,0,0,0-1.234.344,1.082,1.082,0,0,0-.445.9.877.877,0,0,0,.414.789,5.1,5.1,0,0,0,1.5.508,7.8,7.8,0,0,1,1.754.578,2.558,2.558,0,0,1,1,.809,1.988,1.988,0,0,1,.324,1.152,2.163,2.163,0,0,1-.906,1.816,3.8,3.8,0,0,1-2.352.684,4.257,4.257,0,0,1-1.8-.359,2.922,2.922,0,0,1-1.223-1,2.42,2.42,0,0,1-.441-1.395h1.445a1.5,1.5,0,0,0,.582,1.152,2.258,2.258,0,0,0,1.434.426,2.331,2.331,0,0,0,1.316-.332A1.02,1.02,0,0,0,34.9,32.758Zm8.25,0a1.064,1.064,0,0,0-.441-.91,4.249,4.249,0,0,0-1.539-.559,7.277,7.277,0,0,1-1.742-.562,2.479,2.479,0,0,1-.953-.781,1.869,1.869,0,0,1-.309-1.078,2.193,2.193,0,0,1,.879-1.758,3.432,3.432,0,0,1,2.246-.719,3.532,3.532,0,0,1,2.332.742,2.357,2.357,0,0,1,.895,1.9H43.066a1.3,1.3,0,0,0-.5-1.023,1.888,1.888,0,0,0-1.27-.43,1.976,1.976,0,0,0-1.234.344,1.082,1.082,0,0,0-.445.9.877.877,0,0,0,.414.789,5.1,5.1,0,0,0,1.5.508,7.8,7.8,0,0,1,1.754.578,2.558,2.558,0,0,1,1,.809,1.988,1.988,0,0,1,.324,1.152,2.163,2.163,0,0,1-.906,1.816,3.8,3.8,0,0,1-2.352.684,4.257,4.257,0,0,1-1.8-.359,2.922,2.922,0,0,1-1.223-1,2.42,2.42,0,0,1-.441-1.395h1.445a1.5,1.5,0,0,0,.582,1.152,2.258,2.258,0,0,0,1.434.426,2.331,2.331,0,0,0,1.316-.332A1.02,1.02,0,0,0,43.152,32.758Zm6.836,2.4a3.693,3.693,0,0,1-2.8-1.129,4.19,4.19,0,0,1-1.078-3.02v-.266a5.073,5.073,0,0,1,.48-2.246,3.748,3.748,0,0,1,1.344-1.547,3.378,3.378,0,0,1,1.871-.559,3.166,3.166,0,0,1,2.563,1.086,4.7,4.7,0,0,1,.914,3.109v.6H47.559a3,3,0,0,0,.73,2.02,2.3,2.3,0,0,0,1.777.77,2.517,2.517,0,0,0,1.3-.312,3.258,3.258,0,0,0,.93-.828l.883.688A3.55,3.55,0,0,1,49.988,35.156Zm-.18-7.578a1.928,1.928,0,0,0-1.469.637A3.1,3.1,0,0,0,47.605,30H51.84v-.109a2.753,2.753,0,0,0-.594-1.707A1.815,1.815,0,0,0,49.809,27.578Zm6.516-1.031.047,1.063A3.08,3.08,0,0,1,58.9,26.391q2.68,0,2.7,3.023V35H60.16V29.406a1.946,1.946,0,0,0-.418-1.352,1.675,1.675,0,0,0-1.277-.437,2.086,2.086,0,0,0-1.234.375,2.546,2.546,0,0,0-.828.984V35H54.957V26.547ZM63.441,30.7a4.968,4.968,0,0,1,.914-3.145,3.151,3.151,0,0,1,4.836-.074l.07-.937h1.32V34.8a3.439,3.439,0,0,1-.973,2.586A3.589,3.589,0,0,1,67,38.328a4.348,4.348,0,0,1-1.789-.391,3.08,3.08,0,0,1-1.336-1.07l.75-.867a2.826,2.826,0,0,0,2.273,1.148,2.214,2.214,0,0,0,1.645-.594,2.269,2.269,0,0,0,.59-1.672v-.727a2.971,2.971,0,0,1-2.367,1,2.887,2.887,0,0,1-2.4-1.2A5.224,5.224,0,0,1,63.441,30.7Zm1.453.164a3.79,3.79,0,0,0,.586,2.246,1.9,1.9,0,0,0,1.641.816,2.117,2.117,0,0,0,2.008-1.242V28.828a2.142,2.142,0,0,0-1.992-1.211,1.921,1.921,0,0,0-1.648.82A4.128,4.128,0,0,0,64.895,30.867ZM76.27,35.156a3.693,3.693,0,0,1-2.8-1.129,4.19,4.19,0,0,1-1.078-3.02v-.266a5.073,5.073,0,0,1,.48-2.246,3.748,3.748,0,0,1,1.344-1.547,3.378,3.378,0,0,1,1.871-.559,3.166,3.166,0,0,1,2.563,1.086,4.7,4.7,0,0,1,.914,3.109v.6H73.84a3,3,0,0,0,.73,2.02,2.3,2.3,0,0,0,1.777.77,2.517,2.517,0,0,0,1.3-.312,3.259,3.259,0,0,0,.93-.828l.883.688A3.55,3.55,0,0,1,76.27,35.156Zm-.18-7.578a1.928,1.928,0,0,0-1.469.637A3.1,3.1,0,0,0,73.887,30h4.234v-.109a2.753,2.753,0,0,0-.594-1.707A1.815,1.815,0,0,0,76.09,27.578Zm9.234.266a4.331,4.331,0,0,0-.711-.055A1.9,1.9,0,0,0,82.684,29v6H81.238V26.547h1.406l.023.977a2.251,2.251,0,0,1,2.016-1.133,1.477,1.477,0,0,1,.641.109Z" transform="translate(548 4310.854)" fill="#12263f"/>
    <path id="Trazado_647442" data-name="Trazado 647442" d="M22.574,15H20.316V6.285l-2.7.832V5.3l4.711-1.687h.242Zm3.906-1.109a1.137,1.137,0,0,1,.363-.875,1.412,1.412,0,0,1,1.828,0,1.137,1.137,0,0,1,.363.875,1.121,1.121,0,0,1-.359.863,1.435,1.435,0,0,1-1.836,0A1.121,1.121,0,0,1,26.48,13.891Zm6.734-5.578h1.2a1.7,1.7,0,0,0,1.273-.43,1.574,1.574,0,0,0,.414-1.141,1.392,1.392,0,0,0-.41-1.07,1.59,1.59,0,0,0-1.129-.383,1.666,1.666,0,0,0-1.086.355,1.137,1.137,0,0,0-.437.926H30.785a2.777,2.777,0,0,1,.48-1.6,3.2,3.2,0,0,1,1.344-1.105,4.485,4.485,0,0,1,1.9-.4,4.253,4.253,0,0,1,2.828.863,2.945,2.945,0,0,1,1.023,2.379,2.394,2.394,0,0,1-.477,1.438,3.1,3.1,0,0,1-1.25,1.008,2.826,2.826,0,0,1,1.434,1.031,2.8,2.8,0,0,1,.473,1.625,2.994,2.994,0,0,1-1.105,2.43,4.445,4.445,0,0,1-2.926.914,4.214,4.214,0,0,1-2.785-.9,2.934,2.934,0,0,1-1.082-2.375H32.9a1.308,1.308,0,0,0,.48,1.047,2,2,0,0,0,2.445-.02,1.47,1.47,0,0,0,.457-1.129q0-1.7-1.875-1.7h-1.2ZM47.754,10.3a5.762,5.762,0,0,1-.977,3.609,3.9,3.9,0,0,1-5.7.023,5.594,5.594,0,0,1-1.008-3.516V8.32A5.687,5.687,0,0,1,41.055,4.7a3.91,3.91,0,0,1,5.691-.012A5.576,5.576,0,0,1,47.754,8.2ZM45.5,7.995a4.165,4.165,0,0,0-.387-2.061A1.307,1.307,0,0,0,43.9,5.289a1.284,1.284,0,0,0-1.176.614,3.9,3.9,0,0,0-.4,1.92v2.768a4.372,4.372,0,0,0,.379,2.068,1.29,1.29,0,0,0,1.215.676,1.268,1.268,0,0,0,1.2-.649A4.268,4.268,0,0,0,45.5,10.7Zm11.438,2.3a5.762,5.762,0,0,1-.977,3.609,3.9,3.9,0,0,1-5.7.023,5.594,5.594,0,0,1-1.008-3.516V8.32A5.687,5.687,0,0,1,50.234,4.7a3.91,3.91,0,0,1,5.691-.012A5.576,5.576,0,0,1,56.934,8.2Zm-2.258-2.3a4.165,4.165,0,0,0-.387-2.061,1.307,1.307,0,0,0-1.207-.645,1.284,1.284,0,0,0-1.176.614,3.9,3.9,0,0,0-.4,1.92v2.768a4.372,4.372,0,0,0,.379,2.068,1.29,1.29,0,0,0,1.215.676,1.268,1.268,0,0,0,1.2-.649,4.268,4.268,0,0,0,.383-1.986Zm11.07-4.37,2.922,8.25,2.906-8.25h3.078V15H72.3V11.891l.234-5.367L69.465,15H67.855L64.793,6.531l.234,5.359V15H62.684V3.625Z" transform="translate(548 4035.854)" fill="#12263f"/>
    <path id="Trazado_647443" data-name="Trazado 647443" d="M24.887,15h-7.8V13.453l3.68-3.922a9.078,9.078,0,0,0,1.121-1.445,2.322,2.322,0,0,0,.363-1.172,1.738,1.738,0,0,0-.383-1.191,1.382,1.382,0,0,0-1.094-.434,1.49,1.49,0,0,0-1.207.527A2.089,2.089,0,0,0,19.129,7.2H16.863a3.729,3.729,0,0,1,.5-1.9,3.5,3.5,0,0,1,1.4-1.348,4.262,4.262,0,0,1,2.055-.488,4.036,4.036,0,0,1,2.73.844A2.985,2.985,0,0,1,24.52,6.7a3.825,3.825,0,0,1-.437,1.719,9.551,9.551,0,0,1-1.5,2.039L20,13.18h4.891Zm1.594-1.109a1.137,1.137,0,0,1,.363-.875,1.412,1.412,0,0,1,1.828,0,1.137,1.137,0,0,1,.363.875,1.121,1.121,0,0,1-.359.863,1.435,1.435,0,0,1-1.836,0A1.121,1.121,0,0,1,26.48,13.891ZM38.574,10.3a5.762,5.762,0,0,1-.977,3.609,3.409,3.409,0,0,1-2.859,1.25,3.433,3.433,0,0,1-2.844-1.227,5.594,5.594,0,0,1-1.008-3.516V8.32A5.687,5.687,0,0,1,31.875,4.7a3.434,3.434,0,0,1,2.848-1.234,3.437,3.437,0,0,1,2.844,1.223A5.576,5.576,0,0,1,38.574,8.2Zm-2.258-2.3a4.165,4.165,0,0,0-.387-2.061,1.307,1.307,0,0,0-1.207-.645,1.284,1.284,0,0,0-1.176.614,3.9,3.9,0,0,0-.4,1.92v2.768a4.372,4.372,0,0,0,.379,2.068,1.29,1.29,0,0,0,1.215.676,1.268,1.268,0,0,0,1.2-.649,4.268,4.268,0,0,0,.383-1.986Zm11.438,2.3a5.762,5.762,0,0,1-.977,3.609,3.9,3.9,0,0,1-5.7.023,5.594,5.594,0,0,1-1.008-3.516V8.32A5.687,5.687,0,0,1,41.055,4.7a3.91,3.91,0,0,1,5.691-.012A5.576,5.576,0,0,1,47.754,8.2ZM45.5,7.995a4.165,4.165,0,0,0-.387-2.061A1.307,1.307,0,0,0,43.9,5.289a1.284,1.284,0,0,0-1.176.614,3.9,3.9,0,0,0-.4,1.92v2.768a4.372,4.372,0,0,0,.379,2.068,1.29,1.29,0,0,0,1.215.676,1.268,1.268,0,0,0,1.2-.649A4.268,4.268,0,0,0,45.5,10.7Zm11.438,2.3a5.762,5.762,0,0,1-.977,3.609,3.9,3.9,0,0,1-5.7.023,5.594,5.594,0,0,1-1.008-3.516V8.32A5.687,5.687,0,0,1,50.234,4.7a3.91,3.91,0,0,1,5.691-.012A5.576,5.576,0,0,1,56.934,8.2Zm-2.258-2.3a4.165,4.165,0,0,0-.387-2.061,1.307,1.307,0,0,0-1.207-.645,1.284,1.284,0,0,0-1.176.614,3.9,3.9,0,0,0-.4,1.92v2.768a4.372,4.372,0,0,0,.379,2.068,1.29,1.29,0,0,0,1.215.676,1.268,1.268,0,0,0,1.2-.649,4.268,4.268,0,0,0,.383-1.986Zm11.07-4.37,2.922,8.25,2.906-8.25h3.078V15H72.3V11.891l.234-5.367L69.465,15H67.855L64.793,6.531l.234,5.359V15H62.684V3.625Z" transform="translate(403 3916.854)" fill="#12263f"/>
    <path id="Trazado_647444" data-name="Trazado 647444" d="M22.574,15H20.316V6.285l-2.7.832V5.3l4.711-1.687h.242Zm3.906-1.109a1.137,1.137,0,0,1,.363-.875,1.412,1.412,0,0,1,1.828,0,1.137,1.137,0,0,1,.363.875,1.121,1.121,0,0,1-.359.863,1.435,1.435,0,0,1-1.836,0A1.121,1.121,0,0,1,26.48,13.891ZM38.715,15h-7.8V13.453L34.6,9.531a9.078,9.078,0,0,0,1.121-1.445,2.322,2.322,0,0,0,.363-1.172A1.738,1.738,0,0,0,35.7,5.723a1.382,1.382,0,0,0-1.094-.434,1.49,1.49,0,0,0-1.207.527A2.089,2.089,0,0,0,32.957,7.2H30.691a3.729,3.729,0,0,1,.5-1.9,3.5,3.5,0,0,1,1.4-1.348,4.262,4.262,0,0,1,2.055-.488,4.036,4.036,0,0,1,2.73.844A2.985,2.985,0,0,1,38.348,6.7a3.825,3.825,0,0,1-.437,1.719,9.551,9.551,0,0,1-1.5,2.039L33.824,13.18h4.891Zm6.867,0H43.324V6.285l-2.7.832V5.3L45.34,3.609h.242Zm5.992-6.687h1.2a1.7,1.7,0,0,0,1.273-.43,1.574,1.574,0,0,0,.414-1.141,1.392,1.392,0,0,0-.41-1.07,1.59,1.59,0,0,0-1.129-.383,1.666,1.666,0,0,0-1.086.355,1.137,1.137,0,0,0-.437.926H49.145a2.777,2.777,0,0,1,.48-1.6,3.2,3.2,0,0,1,1.344-1.105,4.485,4.485,0,0,1,1.9-.4,4.253,4.253,0,0,1,2.828.863,2.945,2.945,0,0,1,1.023,2.379,2.394,2.394,0,0,1-.477,1.438A3.1,3.1,0,0,1,55,9.156a2.826,2.826,0,0,1,1.434,1.031,2.8,2.8,0,0,1,.473,1.625,2.994,2.994,0,0,1-1.105,2.43,4.445,4.445,0,0,1-2.926.914,4.214,4.214,0,0,1-2.785-.9A2.934,2.934,0,0,1,49,11.883h2.258a1.308,1.308,0,0,0,.48,1.047,2,2,0,0,0,2.445-.02,1.47,1.47,0,0,0,.457-1.129q0-1.7-1.875-1.7h-1.2ZM65.746,3.625l2.922,8.25,2.906-8.25h3.078V15H72.3V11.891l.234-5.367L69.465,15H67.855L64.793,6.531l.234,5.359V15H62.684V3.625Z" transform="translate(685 4063.854)" fill="#12263f"/>
    <path id="Trazado_647445" data-name="Trazado 647445" d="M30.129,3.508V5.367H29.91a3.836,3.836,0,0,0-2.465.8,3.238,3.238,0,0,0-1.121,2.148,3.075,3.075,0,0,1,2.289-.922,2.9,2.9,0,0,1,2.359,1.063,4.259,4.259,0,0,1,.875,2.8,4.19,4.19,0,0,1-.48,2.008,3.446,3.446,0,0,1-1.359,1.4,3.949,3.949,0,0,1-1.988.5,3.689,3.689,0,0,1-2.9-1.25,4.852,4.852,0,0,1-1.105-3.336V9.758a7.3,7.3,0,0,1,.7-3.27,5.127,5.127,0,0,1,2.008-2.2,5.884,5.884,0,0,1,3.035-.785Zm-2.2,5.7a1.8,1.8,0,0,0-.992.285,1.715,1.715,0,0,0-.656.753v.686a3.04,3.04,0,0,0,.445,1.766,1.439,1.439,0,0,0,1.25.635,1.423,1.423,0,0,0,1.176-.573,2.337,2.337,0,0,0,.449-1.485,2.333,2.333,0,0,0-.453-1.5A1.477,1.477,0,0,0,27.926,9.211ZM38.668,15H36.41V6.285l-2.7.832V5.3l4.711-1.687h.242ZM50.1,4.885,45.7,15H43.316l4.406-9.555H42.066V3.625H50.1Zm8.734-1.26,2.922,8.25,2.906-8.25h3.078V15H65.387V11.891l.234-5.367L62.551,15H60.941L57.879,6.531l.234,5.359V15H55.77V3.625Z" transform="translate(823 4132.854)" fill="#12263f"/>
    <path id="Trazado_647446" data-name="Trazado 647446" d="M30.684,10.719h1.289v1.82H30.684V15H28.426V12.539H23.762l-.1-1.422L28.4,3.625h2.281Zm-4.773,0h2.516V6.7l-.148.258Zm12.555-.266a2.851,2.851,0,0,1-2.062.867,3.049,3.049,0,0,1-2.414-1.035,4.091,4.091,0,0,1-.906-2.793,4.357,4.357,0,0,1,.488-2.051,3.582,3.582,0,0,1,1.363-1.453,3.782,3.782,0,0,1,1.969-.52,3.617,3.617,0,0,1,2,.563,3.7,3.7,0,0,1,1.359,1.617,5.806,5.806,0,0,1,.492,2.414V8.9a6.579,6.579,0,0,1-1.414,4.469A5.346,5.346,0,0,1,35.332,15.1l-.555.008V13.227l.5-.008Q38.223,13.086,38.465,10.453Zm-1.508-.859a1.579,1.579,0,0,0,.941-.281,1.879,1.879,0,0,0,.6-.68V7.7a3.1,3.1,0,0,0-.437-1.781,1.358,1.358,0,0,0-1.172-.633,1.318,1.318,0,0,0-1.117.621,2.641,2.641,0,0,0-.437,1.559A2.57,2.57,0,0,0,35.758,9,1.387,1.387,0,0,0,36.957,9.594Zm12.82-2.945a2.646,2.646,0,0,1-.414,1.469,2.98,2.98,0,0,1-1.141,1.023,3.3,3.3,0,0,1,1.313,1.1,2.816,2.816,0,0,1,.484,1.645,2.981,2.981,0,0,1-1.031,2.395,4.918,4.918,0,0,1-5.617,0,2.974,2.974,0,0,1-1.039-2.391,2.834,2.834,0,0,1,.484-1.648,3.239,3.239,0,0,1,1.3-1.094,2.95,2.95,0,0,1-1.137-1.023,2.664,2.664,0,0,1-.41-1.469,2.948,2.948,0,0,1,.969-2.316A4.457,4.457,0,0,1,48.8,4.324,2.937,2.937,0,0,1,49.777,6.648Zm-2.023,5.07a1.638,1.638,0,0,0-.43-1.187,1.719,1.719,0,0,0-2.3,0,1.635,1.635,0,0,0-.43,1.191,1.634,1.634,0,0,0,.422,1.172,1.762,1.762,0,0,0,2.324.016A1.631,1.631,0,0,0,47.754,11.719ZM47.52,6.758a1.563,1.563,0,0,0-.352-1.066,1.43,1.43,0,0,0-1.977-.012,1.553,1.553,0,0,0-.352,1.078,1.633,1.633,0,0,0,.352,1.094,1.391,1.391,0,0,0,1.98,0A1.645,1.645,0,0,0,47.52,6.758ZM58.832,3.625l2.922,8.25,2.906-8.25h3.078V15H65.387V11.891l.234-5.367L62.551,15H60.941L57.879,6.531l.234,5.359V15H55.77V3.625Z" transform="translate(963 4153.854)" fill="#12263f"/>
    <path id="Trazado_647447" data-name="Trazado 647447" d="M24.34,9.406,25,3.625h6.375V5.508H26.848l-.281,2.445a3.58,3.58,0,0,1,1.711-.43,3.279,3.279,0,0,1,2.547,1.008,4.026,4.026,0,0,1,.922,2.82,4.124,4.124,0,0,1-.465,1.973,3.281,3.281,0,0,1-1.332,1.352,4.158,4.158,0,0,1-2.047.48,4.416,4.416,0,0,1-1.914-.418,3.4,3.4,0,0,1-1.395-1.176,3.2,3.2,0,0,1-.543-1.727h2.234a1.669,1.669,0,0,0,.5,1.105,1.573,1.573,0,0,0,1.113.395,1.388,1.388,0,0,0,1.18-.551,2.551,2.551,0,0,0,.414-1.559,2.11,2.11,0,0,0-.477-1.484,1.749,1.749,0,0,0-1.352-.516,1.954,1.954,0,0,0-1.3.422l-.219.2Zm16.5.891a5.762,5.762,0,0,1-.977,3.609A3.409,3.409,0,0,1,37,15.156,3.433,3.433,0,0,1,34.16,13.93a5.594,5.594,0,0,1-1.008-3.516V8.32A5.687,5.687,0,0,1,34.141,4.7a3.434,3.434,0,0,1,2.848-1.234,3.437,3.437,0,0,1,2.844,1.223A5.576,5.576,0,0,1,40.84,8.2Zm-2.258-2.3A4.165,4.165,0,0,0,38.2,5.934a1.307,1.307,0,0,0-1.207-.645,1.284,1.284,0,0,0-1.176.614,3.9,3.9,0,0,0-.4,1.92v2.768a4.372,4.372,0,0,0,.379,2.068A1.29,1.29,0,0,0,37,13.336a1.268,1.268,0,0,0,1.2-.649,4.268,4.268,0,0,0,.383-1.986ZM50.02,10.3a5.762,5.762,0,0,1-.977,3.609,3.9,3.9,0,0,1-5.7.023,5.594,5.594,0,0,1-1.008-3.516V8.32A5.687,5.687,0,0,1,43.32,4.7a3.91,3.91,0,0,1,5.691-.012A5.576,5.576,0,0,1,50.02,8.2Zm-2.258-2.3a4.165,4.165,0,0,0-.387-2.061,1.307,1.307,0,0,0-1.207-.645,1.284,1.284,0,0,0-1.176.614,3.9,3.9,0,0,0-.4,1.92v2.768a4.372,4.372,0,0,0,.379,2.068,1.29,1.29,0,0,0,1.215.676,1.268,1.268,0,0,0,1.2-.649,4.268,4.268,0,0,0,.383-1.986Zm11.07-4.37,2.922,8.25,2.906-8.25h3.078V15H65.387V11.891l.234-5.367L62.551,15H60.941L57.879,6.531l.234,5.359V15H55.77V3.625Z" transform="translate(1105 4153.854)" fill="#12263f"/>
    <path id="Trazado_647448" data-name="Trazado 647448" d="M21.98,11.414l.219,1.5.32-1.352,2.25-7.937h1.266l2.2,7.938.313,1.375.242-1.531,1.766-7.781h1.508L29.3,15H27.934L25.59,6.711l-.18-.867-.18.867L22.8,15H21.434L18.684,3.625h1.5Zm14.781,3.742a3.693,3.693,0,0,1-2.8-1.129,4.19,4.19,0,0,1-1.078-3.02v-.266a5.073,5.073,0,0,1,.48-2.246,3.748,3.748,0,0,1,1.344-1.547,3.378,3.378,0,0,1,1.871-.559,3.166,3.166,0,0,1,2.563,1.086,4.7,4.7,0,0,1,.914,3.109v.6H34.332a3,3,0,0,0,.73,2.02,2.3,2.3,0,0,0,1.777.77,2.517,2.517,0,0,0,1.3-.312,3.259,3.259,0,0,0,.93-.828l.883.688A3.55,3.55,0,0,1,36.762,15.156Zm-.18-7.578a1.928,1.928,0,0,0-1.469.637A3.1,3.1,0,0,0,34.379,10h4.234V9.891a2.753,2.753,0,0,0-.594-1.707A1.815,1.815,0,0,0,36.582,7.578Zm13.742,3.813a4.185,4.185,0,0,1-1.332,2.785,4.365,4.365,0,0,1-2.98.98,4.008,4.008,0,0,1-3.23-1.445,5.815,5.815,0,0,1-1.215-3.867V8.75a6.481,6.481,0,0,1,.566-2.789,4.231,4.231,0,0,1,1.605-1.848,4.47,4.47,0,0,1,2.406-.645A4.11,4.11,0,0,1,49.051,4.48a4.235,4.235,0,0,1,1.273,2.8H48.816a3.268,3.268,0,0,0-.848-1.975A2.565,2.565,0,0,0,46.145,4.7a2.684,2.684,0,0,0-2.254,1.063,4.882,4.882,0,0,0-.816,3.026v1.1a5.018,5.018,0,0,0,.773,2.948,2.5,2.5,0,0,0,2.164,1.095,2.887,2.887,0,0,0,1.918-.566,3.143,3.143,0,0,0,.887-1.973ZM53.59,7.57a3.073,3.073,0,0,1,2.5-1.18q2.68,0,2.7,3.023V15H57.348V9.406a1.946,1.946,0,0,0-.418-1.352,1.675,1.675,0,0,0-1.277-.437,2.086,2.086,0,0,0-1.234.375,2.546,2.546,0,0,0-.828.984V15H52.145V3H53.59ZM66.176,15a3.036,3.036,0,0,1-.2-.891,3.225,3.225,0,0,1-2.406,1.047,2.984,2.984,0,0,1-2.051-.707,2.287,2.287,0,0,1-.8-1.793,2.39,2.39,0,0,1,1-2.051,4.733,4.733,0,0,1,2.824-.73h1.406V9.211A1.623,1.623,0,0,0,65.5,8a1.821,1.821,0,0,0-1.336-.449,2.107,2.107,0,0,0-1.3.391,1.151,1.151,0,0,0-.523.945H60.887a2,2,0,0,1,.449-1.223,3.066,3.066,0,0,1,1.219-.934,4.1,4.1,0,0,1,1.691-.344,3.342,3.342,0,0,1,2.289.73,2.635,2.635,0,0,1,.859,2.012v3.891a4.757,4.757,0,0,0,.3,1.852V15Zm-2.4-1.1a2.54,2.54,0,0,0,1.289-.352,2.127,2.127,0,0,0,.883-.914V10.9H64.816q-2.656,0-2.656,1.555a1.316,1.316,0,0,0,.453,1.063A1.742,1.742,0,0,0,63.777,13.9Zm7.844-9.4V6.547H73.2V7.664H71.621v5.249a1.173,1.173,0,0,0,.211.763.888.888,0,0,0,.719.254,3.5,3.5,0,0,0,.688-.094V15a4.215,4.215,0,0,1-1.109.155,1.8,1.8,0,0,1-1.461-.586,2.517,2.517,0,0,1-.492-1.664V7.664H68.637V6.547h1.539V4.5Z" transform="translate(685 4310.854)" fill="#12263f"/>
    <path id="Trazado_647449" data-name="Trazado 647449" d="M18.871,9.68a7.026,7.026,0,0,1-.523,2.84,4.388,4.388,0,0,1-1.469,1.863l2.031,1.594-1.023.945-2.4-1.906a4.88,4.88,0,0,1-1.187.141,4.244,4.244,0,0,1-4-2.543,6.752,6.752,0,0,1-.59-2.832v-.82a6.953,6.953,0,0,1,.57-2.9,4.218,4.218,0,0,1,4-2.594,4.4,4.4,0,0,1,2.418.664,4.284,4.284,0,0,1,1.605,1.91,7.016,7.016,0,0,1,.563,2.91Zm-1.5-.734a5.162,5.162,0,0,0-.8-3.1,2.666,2.666,0,0,0-2.285-1.09,2.643,2.643,0,0,0-2.23,1.082,5,5,0,0,0-.84,3V9.68a5.147,5.147,0,0,0,.816,3.078,2.646,2.646,0,0,0,2.27,1.125,2.652,2.652,0,0,0,2.25-1.059,5.079,5.079,0,0,0,.82-3.035Zm12.5.734a7.026,7.026,0,0,1-.523,2.84,4.388,4.388,0,0,1-1.469,1.863l2.031,1.594-1.023.945-2.4-1.906a4.88,4.88,0,0,1-1.187.141,4.244,4.244,0,0,1-4-2.543,6.752,6.752,0,0,1-.59-2.832v-.82a6.953,6.953,0,0,1,.57-2.9,4.218,4.218,0,0,1,4-2.594,4.4,4.4,0,0,1,2.418.664,4.284,4.284,0,0,1,1.605,1.91,7.016,7.016,0,0,1,.563,2.91Zm-1.5-.734a5.162,5.162,0,0,0-.8-3.1,2.89,2.89,0,0,0-4.516-.008,5,5,0,0,0-.84,3V9.68a5.147,5.147,0,0,0,.816,3.078,2.885,2.885,0,0,0,4.52.066,5.079,5.079,0,0,0,.82-3.035Zm9.711-5.32L41.8,12.906,45.52,3.625h1.945V15h-1.5V10.57l.141-4.781L42.371,15H41.223L37.5,5.813l.148,4.758V15h-1.5V3.625ZM49.5,10.7a4.993,4.993,0,0,1,.488-2.234A3.643,3.643,0,0,1,51.352,6.93a3.7,3.7,0,0,1,1.988-.539,3.565,3.565,0,0,1,2.793,1.2,4.6,4.6,0,0,1,1.066,3.18v.1a5.036,5.036,0,0,1-.473,2.215,3.589,3.589,0,0,1-1.352,1.527,3.743,3.743,0,0,1-2.02.547,3.556,3.556,0,0,1-2.785-1.2A4.575,4.575,0,0,1,49.5,10.8Zm1.453.172a3.616,3.616,0,0,0,.652,2.258,2.211,2.211,0,0,0,3.5-.012,3.955,3.955,0,0,0,.648-2.418,3.61,3.61,0,0,0-.66-2.254,2.1,2.1,0,0,0-1.754-.863,2.075,2.075,0,0,0-1.727.852A3.925,3.925,0,0,0,50.957,10.867Zm15.211,0a5.026,5.026,0,0,1-.891,3.113,2.846,2.846,0,0,1-2.391,1.176,2.947,2.947,0,0,1-2.477-1.133L60.34,15H59.012V3h1.445V7.477a2.93,2.93,0,0,1,2.414-1.086,2.863,2.863,0,0,1,2.418,1.164,5.177,5.177,0,0,1,.879,3.188ZM64.723,10.7a3.906,3.906,0,0,0-.57-2.281,1.888,1.888,0,0,0-1.641-.8,2.122,2.122,0,0,0-2.055,1.328V12.6a2.181,2.181,0,0,0,2.07,1.328,1.878,1.878,0,0,0,1.617-.8A4.153,4.153,0,0,0,64.723,10.7ZM69.559,15H68.113V6.547h1.445ZM68,4.3a.863.863,0,0,1,.215-.594.807.807,0,0,1,.637-.242.819.819,0,0,1,.641.242.854.854,0,0,1,.219.594.826.826,0,0,1-.219.586.834.834,0,0,1-.641.234.821.821,0,0,1-.637-.234A.834.834,0,0,1,68,4.3ZM73.441,15H72V3h1.445Zm5.82.156a3.693,3.693,0,0,1-2.8-1.129,4.19,4.19,0,0,1-1.078-3.02v-.266a5.073,5.073,0,0,1,.48-2.246,3.748,3.748,0,0,1,1.344-1.547,3.378,3.378,0,0,1,1.871-.559,3.166,3.166,0,0,1,2.563,1.086,4.7,4.7,0,0,1,.914,3.109v.6H76.832a3,3,0,0,0,.73,2.02,2.3,2.3,0,0,0,1.777.77,2.517,2.517,0,0,0,1.3-.312,3.259,3.259,0,0,0,.93-.828l.883.688A3.55,3.55,0,0,1,79.262,15.156Zm-.18-7.578a1.928,1.928,0,0,0-1.469.637A3.1,3.1,0,0,0,76.879,10h4.234V9.891a2.753,2.753,0,0,0-.594-1.707A1.815,1.815,0,0,0,79.082,7.578Z" transform="translate(830 4310.854)" fill="#12263f"/>
    <path id="Trazado_647450" data-name="Trazado 647450" d="M17.113,9.93A7.053,7.053,0,0,1,14.3,8.566a2.6,2.6,0,0,1-.879-2A2.751,2.751,0,0,1,14.5,4.348a4.269,4.269,0,0,1,2.793-.879,4.66,4.66,0,0,1,2.09.453A3.436,3.436,0,0,1,20.8,5.172a3.2,3.2,0,0,1,.5,1.742H19.8a2.08,2.08,0,0,0-.656-1.627A2.669,2.669,0,0,0,17.293,4.7a2.732,2.732,0,0,0-1.73.489,1.632,1.632,0,0,0-.621,1.358,1.468,1.468,0,0,0,.59,1.178,5.785,5.785,0,0,0,2.008.88,9.316,9.316,0,0,1,2.219.88A3.367,3.367,0,0,1,20.945,10.6a2.861,2.861,0,0,1,.387,1.508,2.658,2.658,0,0,1-1.078,2.215,4.6,4.6,0,0,1-2.883.832,5.347,5.347,0,0,1-2.187-.449,3.681,3.681,0,0,1-1.566-1.23,3,3,0,0,1-.551-1.773h1.508a1.959,1.959,0,0,0,.762,1.629,3.207,3.207,0,0,0,2.035.6,2.948,2.948,0,0,0,1.82-.484,1.573,1.573,0,0,0,.633-1.32,1.545,1.545,0,0,0-.586-1.293A6.755,6.755,0,0,0,17.113,9.93Zm7.281-3.383.047,1.063a3.08,3.08,0,0,1,2.531-1.219q2.68,0,2.7,3.023V15H28.23V9.406a1.946,1.946,0,0,0-.418-1.352,1.675,1.675,0,0,0-1.277-.437,2.086,2.086,0,0,0-1.234.375,2.546,2.546,0,0,0-.828.984V15H23.027V6.547ZM37.074,15a3.036,3.036,0,0,1-.2-.891,3.225,3.225,0,0,1-2.406,1.047,2.984,2.984,0,0,1-2.051-.707,2.287,2.287,0,0,1-.8-1.793,2.39,2.39,0,0,1,1-2.051,4.733,4.733,0,0,1,2.824-.73h1.406V9.211A1.623,1.623,0,0,0,36.395,8a1.821,1.821,0,0,0-1.336-.449,2.107,2.107,0,0,0-1.3.391,1.151,1.151,0,0,0-.523.945H31.785a2,2,0,0,1,.449-1.223,3.066,3.066,0,0,1,1.219-.934,4.1,4.1,0,0,1,1.691-.344,3.342,3.342,0,0,1,2.289.73,2.635,2.635,0,0,1,.859,2.012v3.891a4.757,4.757,0,0,0,.3,1.852V15Zm-2.4-1.1a2.54,2.54,0,0,0,1.289-.352,2.127,2.127,0,0,0,.883-.914V10.9H35.715q-2.656,0-2.656,1.555a1.316,1.316,0,0,0,.453,1.063A1.742,1.742,0,0,0,34.676,13.9ZM47.7,10.867a5.062,5.062,0,0,1-.883,3.109,2.829,2.829,0,0,1-2.391,1.18A3.1,3.1,0,0,1,42,14.18v4.07H40.559V6.547h1.32l.07.938A2.977,2.977,0,0,1,44.4,6.391a2.882,2.882,0,0,1,2.41,1.148,5.117,5.117,0,0,1,.887,3.2ZM46.254,10.7a3.735,3.735,0,0,0-.609-2.258,1.963,1.963,0,0,0-1.672-.828A2.125,2.125,0,0,0,42,8.781V12.82a2.129,2.129,0,0,0,1.984,1.156,1.954,1.954,0,0,0,1.652-.824A4.077,4.077,0,0,0,46.254,10.7Zm6.672,3.273a2.082,2.082,0,0,0,1.352-.469,1.649,1.649,0,0,0,.641-1.172h1.367a2.621,2.621,0,0,1-.5,1.383,3.293,3.293,0,0,1-1.23,1.047,3.55,3.55,0,0,1-1.629.391A3.482,3.482,0,0,1,50.18,14a4.59,4.59,0,0,1-1.02-3.152v-.242a5.089,5.089,0,0,1,.453-2.2,3.451,3.451,0,0,1,1.3-1.492,3.7,3.7,0,0,1,2-.531,3.39,3.39,0,0,1,2.363.852,3.043,3.043,0,0,1,1,2.211H54.918A1.992,1.992,0,0,0,54.3,8.105a1.932,1.932,0,0,0-1.379-.527,2.023,2.023,0,0,0-1.707.793,3.724,3.724,0,0,0-.605,2.293v.273a3.65,3.65,0,0,0,.6,2.25A2.033,2.033,0,0,0,52.926,13.977Zm6.43-6.406a3.073,3.073,0,0,1,2.5-1.18q2.68,0,2.7,3.023V15H63.113V9.406A1.946,1.946,0,0,0,62.7,8.055a1.675,1.675,0,0,0-1.277-.437,2.086,2.086,0,0,0-1.234.375,2.546,2.546,0,0,0-.828.984V15H57.91V3h1.445ZM71.941,15a3.036,3.036,0,0,1-.2-.891,3.225,3.225,0,0,1-2.406,1.047,2.984,2.984,0,0,1-2.051-.707,2.288,2.288,0,0,1-.8-1.793,2.39,2.39,0,0,1,1-2.051,4.733,4.733,0,0,1,2.824-.73h1.406V9.211A1.623,1.623,0,0,0,71.262,8a1.821,1.821,0,0,0-1.336-.449,2.108,2.108,0,0,0-1.3.391,1.151,1.151,0,0,0-.523.945H66.652A2,2,0,0,1,67.1,7.668a3.066,3.066,0,0,1,1.219-.934,4.1,4.1,0,0,1,1.691-.344,3.342,3.342,0,0,1,2.289.73,2.635,2.635,0,0,1,.859,2.012v3.891a4.757,4.757,0,0,0,.3,1.852V15Zm-2.4-1.1a2.54,2.54,0,0,0,1.289-.352,2.127,2.127,0,0,0,.883-.914V10.9H70.582q-2.656,0-2.656,1.555a1.316,1.316,0,0,0,.453,1.063A1.742,1.742,0,0,0,69.543,13.9Zm7.844-9.4V6.547h1.578V7.664H77.387v5.249a1.173,1.173,0,0,0,.211.763.888.888,0,0,0,.719.254A3.5,3.5,0,0,0,79,13.836V15a4.215,4.215,0,0,1-1.109.155,1.8,1.8,0,0,1-1.461-.586,2.517,2.517,0,0,1-.492-1.664V7.664H74.4V6.547h1.539V4.5Z" transform="translate(967 4310.854)" fill="#12263f"/>
    <path id="Trazado_647451" data-name="Trazado 647451" d="M21.973,4.852H18.316V15H16.824V4.852H13.176V3.625h8.8Zm4.2,10.3a3.693,3.693,0,0,1-2.8-1.129,4.19,4.19,0,0,1-1.078-3.02v-.266a5.073,5.073,0,0,1,.48-2.246,3.748,3.748,0,0,1,1.344-1.547,3.378,3.378,0,0,1,1.871-.559,3.166,3.166,0,0,1,2.563,1.086,4.7,4.7,0,0,1,.914,3.109v.6H23.738a3,3,0,0,0,.73,2.02,2.3,2.3,0,0,0,1.777.77,2.517,2.517,0,0,0,1.3-.312,3.259,3.259,0,0,0,.93-.828l.883.688A3.55,3.55,0,0,1,26.168,15.156Zm-.18-7.578a1.928,1.928,0,0,0-1.469.637A3.1,3.1,0,0,0,23.785,10H28.02V9.891a2.753,2.753,0,0,0-.594-1.707A1.815,1.815,0,0,0,25.988,7.578ZM32.707,15H31.262V3h1.445Zm5.82.156a3.693,3.693,0,0,1-2.8-1.129,4.19,4.19,0,0,1-1.078-3.02v-.266a5.073,5.073,0,0,1,.48-2.246,3.748,3.748,0,0,1,1.344-1.547,3.378,3.378,0,0,1,1.871-.559A3.166,3.166,0,0,1,40.91,7.477a4.7,4.7,0,0,1,.914,3.109v.6H36.1a3,3,0,0,0,.73,2.02,2.3,2.3,0,0,0,1.777.77,2.517,2.517,0,0,0,1.3-.312,3.259,3.259,0,0,0,.93-.828l.883.688A3.55,3.55,0,0,1,38.527,15.156Zm-.18-7.578a1.928,1.928,0,0,0-1.469.637A3.1,3.1,0,0,0,36.145,10h4.234V9.891a2.753,2.753,0,0,0-.594-1.707A1.815,1.815,0,0,0,38.348,7.578Zm4.8,3.125a4.968,4.968,0,0,1,.914-3.145A3.151,3.151,0,0,1,48.9,7.484l.07-.937h1.32V14.8a3.439,3.439,0,0,1-.973,2.586,3.589,3.589,0,0,1-2.613.945,4.348,4.348,0,0,1-1.789-.391,3.08,3.08,0,0,1-1.336-1.07l.75-.867a2.826,2.826,0,0,0,2.273,1.148,2.214,2.214,0,0,0,1.645-.594,2.269,2.269,0,0,0,.59-1.672v-.727a2.971,2.971,0,0,1-2.367,1,2.887,2.887,0,0,1-2.4-1.2A5.224,5.224,0,0,1,43.152,10.7Zm1.453.164a3.79,3.79,0,0,0,.586,2.246,1.9,1.9,0,0,0,1.641.816,2.117,2.117,0,0,0,2.008-1.242V8.828a2.142,2.142,0,0,0-1.992-1.211,1.921,1.921,0,0,0-1.648.82A4.128,4.128,0,0,0,44.605,10.867ZM56.559,7.844a4.331,4.331,0,0,0-.711-.055A1.9,1.9,0,0,0,53.918,9v6H52.473V6.547h1.406l.023.977a2.251,2.251,0,0,1,2.016-1.133,1.477,1.477,0,0,1,.641.109ZM62.793,15a3.036,3.036,0,0,1-.2-.891,3.225,3.225,0,0,1-2.406,1.047,2.984,2.984,0,0,1-2.051-.707,2.287,2.287,0,0,1-.8-1.793,2.39,2.39,0,0,1,1-2.051,4.733,4.733,0,0,1,2.824-.73h1.406V9.211A1.623,1.623,0,0,0,62.113,8a1.821,1.821,0,0,0-1.336-.449,2.107,2.107,0,0,0-1.3.391,1.151,1.151,0,0,0-.523.945H57.5a2,2,0,0,1,.449-1.223,3.066,3.066,0,0,1,1.219-.934,4.1,4.1,0,0,1,1.691-.344,3.342,3.342,0,0,1,2.289.73,2.635,2.635,0,0,1,.859,2.012v3.891a4.757,4.757,0,0,0,.3,1.852V15Zm-2.4-1.1a2.54,2.54,0,0,0,1.289-.352,2.127,2.127,0,0,0,.883-.914V10.9H61.434q-2.656,0-2.656,1.555a1.316,1.316,0,0,0,.453,1.063A1.742,1.742,0,0,0,60.395,13.9Zm7.242-7.352.039.938a3.122,3.122,0,0,1,2.508-1.094A2.417,2.417,0,0,1,72.6,7.75a3.2,3.2,0,0,1,1.1-.984,3.242,3.242,0,0,1,1.6-.375q2.781,0,2.828,2.945V15H76.676V9.422a1.941,1.941,0,0,0-.414-1.355,1.823,1.823,0,0,0-1.391-.449,1.916,1.916,0,0,0-1.336.48,1.949,1.949,0,0,0-.617,1.293V15H71.465V9.461a1.613,1.613,0,0,0-1.8-1.844,1.934,1.934,0,0,0-1.945,1.211V15H66.27V6.547Z" transform="translate(1105 4310.854)" fill="#12263f"/>
    <g id="Grupo_985992" data-name="Grupo 985992" transform="translate(712.097 4015.205)">
      <path id="Trazado_643185" data-name="Trazado 643185" d="M2258.355,101.8a4.351,4.351,0,0,0-4.057-3.2c-.113,0-.227,0-.34,0q-17.287,0-34.574,0a4.35,4.35,0,0,0-4.36,3.3,4.1,4.1,0,0,0-.131,1.01q0,8.6,0,17.2c0,.07.009.141.014.212h0c0,1.106-.012,2.211-.013,3.317q0,6.975,0,13.951a4.344,4.344,0,0,0,3.408,4.526c.066.019.144.012.169.1h36.373c.028-.087.106-.071.171-.086a4.3,4.3,0,0,0,3.35-3.16c.033-.111,0-.263.141-.331V102.267C2258.363,102.145,2258.4,101.958,2258.355,101.8Zm-7.062,17.429c0,.008-.019.011-.029.016l-.025-.021.046-.027C2251.289,119.212,2251.3,119.225,2251.293,119.233Zm-18.4,2.6a1.089,1.089,0,0,0-.179.544l-.02.076-.053.176c.061.1.059.189-.053.253a.349.349,0,0,0-.048.262.641.641,0,0,1-.079.5,4.259,4.259,0,0,0-.017,1.284.259.259,0,0,1,.02.334.507.507,0,0,0,.06.349c.142.148.228.305.091.5a1.189,1.189,0,0,0,.171.606c.068.108.089.19-.089.162a15.412,15.412,0,0,1-4.452-.558,1.268,1.268,0,0,0-1.013.191l-2.354,1.359c-.187.108-.379.225-.59.07-.229-.168-.164-.393-.1-.618.176-.642.333-1.289.521-1.927a.792.792,0,0,0-.3-.94,10.829,10.829,0,0,1-3.292-3.883l-.062-.143-.009-.021-.081-.153v-.021a.654.654,0,0,1-.2-.557l-.034-.123a8.258,8.258,0,0,1,.156-5.431,9.193,9.193,0,0,1,2.492-3.681,12.975,12.975,0,0,1,9.741-3.2,12.123,12.123,0,0,1,8.351,3.79,8.879,8.879,0,0,1,2.219,3.955c.125.491.123.487-.379.488a11.789,11.789,0,0,0-8,2.84c-.106.092-.2.2-.292.3h0a.539.539,0,0,0-.232.232c.1.084.2.2.131.32-.116.2-.3,0-.455.036l-.12.147c.091.065.3.078.222.231-.1.2-.289.057-.442.04l-.062.085-.076.1c-.067.058-.169.109-.033.2a.671.671,0,0,1,.145.138c.047.082.019.177-.079.185s-.066-.092-.069-.153,0-.108-.006-.163c-.174-.072-.172.086-.225.172l-.078.131a4.071,4.071,0,0,0-.72,1.45.329.329,0,0,1,.007.048S2232.9,121.83,2232.893,121.833Zm1.278-1.164-.049.018,0-.032c.01,0,.022-.012.031-.01S2234.165,120.66,2234.171,120.668Zm18.384,6.186a7.971,7.971,0,0,1-2.685,3.574c-.6.484-.633.545-.43,1.3.118.439.241.876.359,1.314.048.182.086.367-.1.5-.174.123-.322.028-.471-.059l-1.953-1.129a1.221,1.221,0,0,0-.979-.14,11.642,11.642,0,0,1-6.673-.122,8.669,8.669,0,0,1-6.039-5.808,7.05,7.05,0,0,1-.118-3.329c-.149-.39.022-.784-.052-1.2.176.059.156.271.322.276l0-.027a.3.3,0,0,1,.1-.233l.077-.189.06-.23.172-.358c.011-.021.022-.043.035-.064a1.039,1.039,0,0,0,.4-.547l.1-.134a1.193,1.193,0,0,0,.316-.418.216.216,0,0,1,.168-.188l.085-.105a10.077,10.077,0,0,1,2.589-1.978,11.288,11.288,0,0,1,11.43.467c.072.044.147.083.22.125l.472.358a.964.964,0,0,1,.918.425,1.571,1.571,0,0,1,.211.635,8.658,8.658,0,0,1,1.64,3.065A6.909,6.909,0,0,1,2252.555,126.855Z" transform="translate(-2214.893 -98.605)" fill="#05dd6b"/>
      <path id="Trazado_643186" data-name="Trazado 643186" d="M2230.756,135.409a8.255,8.255,0,0,1,.156-5.431,9.192,9.192,0,0,1,2.492-3.681,12.975,12.975,0,0,1,9.741-3.2,12.122,12.122,0,0,1,8.351,3.79,8.879,8.879,0,0,1,2.219,3.955c.125.491.123.487-.379.488a11.789,11.789,0,0,0-8,2.84c-.106.092-.2.2-.292.3a.538.538,0,0,0-.232.232.891.891,0,0,0-.324.356l-.121.147a.511.511,0,0,0-.22.271l-.062.085-.076.1c-.066.058-.169.109-.033.2l-.009.007c-.174-.071-.171.087-.225.173l-.078.13a4.068,4.068,0,0,0-.72,1.45.036.036,0,0,0-.02.056,1.091,1.091,0,0,0-.179.544.059.059,0,0,0-.02.076l-.053.176-.053.253a.35.35,0,0,0-.048.262.842.842,0,0,0-.079.5,4.259,4.259,0,0,0-.017,1.284.5.5,0,0,0,.02.334.506.506,0,0,0,.06.349.8.8,0,0,0,.09.5,1.189,1.189,0,0,0,.171.606l-.089.162a15.413,15.413,0,0,1-4.453-.558,1.267,1.267,0,0,0-1.013.191l-2.354,1.359c-.187.108-.379.225-.59.07-.229-.168-.164-.393-.1-.619.176-.641.333-1.288.521-1.927a.792.792,0,0,0-.3-.94,10.826,10.826,0,0,1-3.292-3.883.125.125,0,0,0-.062-.143l-.01-.021-.081-.153v-.021a1.649,1.649,0,0,0-.2-.557Zm7.465-7.236a1.57,1.57,0,0,0,.017,3.14,1.57,1.57,0,1,0-.017-3.14Zm7.933,0a1.574,1.574,0,1,0,1.52,1.608A1.572,1.572,0,0,0,2246.154,128.172Z" transform="translate(-2224.923 -114.454)" fill="#fcfdfd"/>
      <path id="Trazado_643187" data-name="Trazado 643187" d="M2269.161,151.979A10.069,10.069,0,0,1,2271.75,150a11.288,11.288,0,0,1,11.43.467c.072.044.147.083.22.125l.472.358,1.13,1.06a8.658,8.658,0,0,1,1.64,3.065,6.909,6.909,0,0,1-.176,4.219,7.97,7.97,0,0,1-2.685,3.574c-.6.484-.633.545-.43,1.3.118.439.241.876.359,1.314.048.182.086.367-.1.5-.174.123-.322.028-.471-.059l-1.953-1.129a1.221,1.221,0,0,0-.979-.14,11.642,11.642,0,0,1-6.673-.122,8.669,8.669,0,0,1-6.039-5.808,7.05,7.05,0,0,1-.118-3.329l.27-.922,0-.027a.306.306,0,0,0,.1-.233l.077-.188a.169.169,0,0,0,.06-.23l.172-.357a.106.106,0,0,0,.035-.065,1.039,1.039,0,0,0,.4-.547l.1-.134a1.193,1.193,0,0,0,.316-.418.322.322,0,0,0,.168-.188Zm12.49,2.3a1.306,1.306,0,1,0-1.292,1.305A1.319,1.319,0,0,0,2281.651,154.275Zm-6.559.029a1.3,1.3,0,1,0-2.6-.035,1.3,1.3,0,0,0,2.6.035Z" transform="translate(-2248.805 -131.044)" fill="#fcfdfd"/>
      <path id="Trazado_643188" data-name="Trazado 643188" d="M2315.622,156.167l-1.13-1.06a.964.964,0,0,1,.919.425A1.571,1.571,0,0,1,2315.622,156.167Z" transform="translate(-2279.425 -135.2)" fill="#05dd6b"/>
      <path id="Trazado_643189" data-name="Trazado 643189" d="M2267.788,164.637l-.271.922c-.148-.39.022-.784-.051-1.2C2267.642,164.42,2267.622,164.632,2267.788,164.637Z" transform="translate(-2248.948 -141.209)" fill="#05dd6b"/>
      <path id="Trazado_643190" data-name="Trazado 643190" d="M2270.459,156.486a.891.891,0,0,1,.324-.356c.1.084.2.2.131.32C2270.8,156.646,2270.612,156.452,2270.459,156.486Z" transform="translate(-2250.895 -135.876)" fill="#05dd6b"/>
      <path id="Trazado_643191" data-name="Trazado 643191" d="M2269.492,157.83a.511.511,0,0,1,.22-.271c.091.065.3.078.222.231C2269.838,157.989,2269.645,157.848,2269.492,157.83Z" transform="translate(-2250.269 -136.802)" fill="#05dd6b"/>
      <path id="Trazado_643192" data-name="Trazado 643192" d="M2265.049,175.819a.8.8,0,0,1-.09-.5C2265.1,175.464,2265.186,175.621,2265.049,175.819Z" transform="translate(-2247.329 -148.307)" fill="#05dd6b"/>
      <path id="Trazado_643193" data-name="Trazado 643193" d="M2231.557,158.471a1.66,1.66,0,0,1,.2.557A.654.654,0,0,1,2231.557,158.471Z" transform="translate(-2225.69 -137.393)" fill="#05dd6b"/>
      <path id="Trazado_643194" data-name="Trazado 643194" d="M2268.988,159.42a.677.677,0,0,1,.145.138c.046.082.019.177-.079.185s-.066-.092-.069-.153,0-.108-.006-.163Z" transform="translate(-2249.936 -138.008)" fill="#05dd6b"/>
      <path id="Trazado_643195" data-name="Trazado 643195" d="M2264.77,168.806a.844.844,0,0,1,.079-.5A.641.641,0,0,1,2264.77,168.806Z" transform="translate(-2247.203 -143.765)" fill="#05dd6b"/>
      <path id="Trazado_643196" data-name="Trazado 643196" d="M2264.721,173.708a.5.5,0,0,1-.02-.334A.259.259,0,0,1,2264.721,173.708Z" transform="translate(-2247.151 -147.049)" fill="#05dd6b"/>
      <path id="Trazado_643197" data-name="Trazado 643197" d="M2265.15,167.095l.053-.254C2265.264,166.942,2265.261,167.03,2265.15,167.095Z" transform="translate(-2247.455 -142.816)" fill="#05dd6b"/>
      <path id="Trazado_643198" data-name="Trazado 643198" d="M2265.454,178.626l.089-.162C2265.612,178.572,2265.633,178.654,2265.454,178.626Z" transform="translate(-2247.652 -150.347)" fill="#05dd6b"/>
      <path id="Trazado_643199" data-name="Trazado 643199" d="M2318.149,157.151l-.025-.021.047-.027c0,.011.011.024.007.032S2318.159,157.146,2318.149,157.151Z" transform="translate(-2281.778 -136.507)" fill="#05dd6b"/>
      <path id="Trazado_643200" data-name="Trazado 643200" d="M2269.5,161.211c.01,0,.022-.012.031-.01s.013.015.02.024l-.049.018Z" transform="translate(-2250.275 -139.162)" fill="#05dd6b"/>
      <path id="Trazado_643201" data-name="Trazado 643201" d="M2268.979,163.219a.169.169,0,0,1-.06.23Z" transform="translate(-2249.897 -140.469)" fill="#05dd6b"/>
      <path id="Trazado_643202" data-name="Trazado 643202" d="M2272.158,158.364a.322.322,0,0,1-.168.188A.216.216,0,0,1,2272.158,158.364Z" transform="translate(-2251.887 -137.324)" fill="#05dd6b"/>
      <path id="Trazado_643203" data-name="Trazado 643203" d="M2232.37,160.607a.125.125,0,0,1,.062.143Z" transform="translate(-2226.217 -138.777)" fill="#05dd6b"/>
      <path id="Trazado_643204" data-name="Trazado 643204" d="M2268.511,164.407a.306.306,0,0,1-.1.233A.306.306,0,0,1,2268.511,164.407Z" transform="translate(-2249.566 -141.239)" fill="#05dd6b"/>
      <path id="Trazado_643205" data-name="Trazado 643205" d="M2269.1,158.67l.076-.1Z" transform="translate(-2250.014 -137.458)" fill="#05dd6b"/>
      <path id="Trazado_643206" data-name="Trazado 643206" d="M2268.118,160.059l.078-.13Z" transform="translate(-2249.378 -138.338)" fill="#05dd6b"/>
      <path id="Trazado_643207" data-name="Trazado 643207" d="M2270.9,160.086l-.1.134Z" transform="translate(-2251.117 -138.439)" fill="#05dd6b"/>
      <path id="Trazado_643208" data-name="Trazado 643208" d="M2269.611,162.02a.1.1,0,0,1-.034.065C2269.588,162.063,2269.6,162.041,2269.611,162.02Z" transform="translate(-2250.323 -139.692)" fill="#05dd6b"/>
      <path id="Trazado_643209" data-name="Trazado 643209" d="M2266,164.474a.036.036,0,0,1,.02-.056.33.33,0,0,1,.008.048S2266.014,164.472,2266,164.474Z" transform="translate(-2248.005 -141.246)" fill="#05dd6b"/>
      <path id="Trazado_643210" data-name="Trazado 643210" d="M2265.44,166.2a.058.058,0,0,1,.02-.076Z" transform="translate(-2247.639 -142.351)" fill="#05dd6b"/>
      <path id="Trazado_643211" data-name="Trazado 643211" d="M2232.114,160.113l.081.153Z" transform="translate(-2226.051 -138.457)" fill="#05dd6b"/>
      <path id="Trazado_643212" data-name="Trazado 643212" d="M2249.817,137.572a1.57,1.57,0,1,1-1.547,1.578A1.574,1.574,0,0,1,2249.817,137.572Z" transform="translate(-2236.519 -123.852)" fill="#05dd6b"/>
      <path id="Trazado_643213" data-name="Trazado 643213" d="M2272.216,137.566a1.574,1.574,0,0,1-.071,3.147,1.574,1.574,0,1,1,.071-3.147Z" transform="translate(-2250.984 -123.848)" fill="#05dd6b"/>
      <path id="Trazado_643214" data-name="Trazado 643214" d="M2303.378,162.156a1.306,1.306,0,1,1-1.317-1.321A1.313,1.313,0,0,1,2303.378,162.156Z" transform="translate(-2270.532 -138.925)" fill="#05dd6b"/>
      <path id="Trazado_643215" data-name="Trazado 643215" d="M2284.763,162.186a1.3,1.3,0,1,1-1.284-1.35A1.309,1.309,0,0,1,2284.763,162.186Z" transform="translate(-2258.476 -138.925)" fill="#05dd6b"/>
    </g>
    <path id="Trazado_643216" data-name="Trazado 643216" d="M2109.969,109.2c-.006-.514-.041-1.025-.066-1.538a12.961,12.961,0,0,0-.215-2.05c-.028-.133-.066-.263-.092-.4a3.071,3.071,0,0,0-.1-.426c-.089-.257-.164-.519-.274-.769-.086-.2-.159-.4-.256-.588-.129-.252-.27-.5-.419-.74a6.644,6.644,0,0,0-.537-.753,8.522,8.522,0,0,0-1.1-1.143,9.544,9.544,0,0,0-1.457-1.006,8.465,8.465,0,0,0-1.622-.654,9.246,9.246,0,0,0-1.008-.251,13,13,0,0,0-1.372-.151c-.4-.033-.8-.051-1.2-.066-.384-.015-.768-.025-1.152-.025q-10.87,0-21.741,0c-.308,0-.617,0-.926.014-.6.023-1.2.047-1.792.094-.32.025-.642.044-.959.094a9.215,9.215,0,0,0-1.434.35,8.147,8.147,0,0,0-1.543.681,8.538,8.538,0,0,0-1.557,1.144,8.4,8.4,0,0,0-1.157,1.327q-.24.343-.447.705a6.7,6.7,0,0,0-.351.674c-.094.219-.181.442-.261.665-.071.2-.125.4-.183.6-.069.244-.135.489-.182.736-.068.365-.09.738-.139,1.107-.028.211-.013.424-.03.634-.032.4-.072.808-.073,1.213q-.007,11.432-.008,22.863a14.4,14.4,0,0,0,.048,1.711c.049.409.013.822.082,1.233.046.272.064.552.107.827a1.592,1.592,0,0,0,.083.34c.047.116.032.242.088.351a1.447,1.447,0,0,1,.1.332,5.463,5.463,0,0,0,.185.543c.075.209.172.412.267.615a6.747,6.747,0,0,0,.4.736,7.871,7.871,0,0,0,.644.892,9.168,9.168,0,0,0,1.324,1.3,8.435,8.435,0,0,0,1.533.964,9.124,9.124,0,0,0,1.7.608,7.914,7.914,0,0,0,1.333.228c.583.049,1.165.1,1.75.1q10.93,0,21.86,0a40.941,40.941,0,0,0,4.167-.085c.26-.027.521-.051.778-.1.36-.066.713-.161,1.065-.261a7.882,7.882,0,0,0,2.254-1.071,8.473,8.473,0,0,0,1.474-1.25,8.691,8.691,0,0,0,1.013-1.32c.152-.243.291-.494.418-.75a4.611,4.611,0,0,0,.334-.777,2.749,2.749,0,0,0,.116-.419h0c0-.014,0-.028.007-.043a.291.291,0,0,0,.065-.192l0-.023a.7.7,0,0,0,.077-.282l0-.043a.522.522,0,0,0,.068-.256h0v-.024a.976.976,0,0,0,.073-.346c0-.038,0-.076,0-.114a1.064,1.064,0,0,0,.07-.446v-.044a.324.324,0,0,0,.013-.217.293.293,0,0,0,.007-.128,1.681,1.681,0,0,0,.053-.584,3.463,3.463,0,0,0,0-.415c.033-.015.03-.045.032-.074.02-.394.056-.788.056-1.183q.005-8.547,0-17.093C2109.978,112.93,2109.992,111.065,2109.969,109.2Zm-36.143,16.349a.655.655,0,0,0-.128-.016.655.655,0,0,1,.128.016.435.435,0,0,1,.124.049h0A.435.435,0,0,0,2073.826,125.548Z" transform="translate(-1214.982 3981.212)" fill="#fefefe"/>
    <g id="Grupo_985993" data-name="Grupo 985993" transform="translate(857.258 4082.778)">
      <path id="Trazado_643217" data-name="Trazado 643217" d="M2094.734,122.865a20.9,20.9,0,0,1,.6-6.586,14.124,14.124,0,0,1,2.535-5.306,10.121,10.121,0,0,1,5.3-3.56,12.427,12.427,0,0,1,5.515-.279,10.248,10.248,0,0,1,7.425,5.149,18.355,18.355,0,0,1,2.227,10.582c-1.418.351-2.839.681-4.282.932a45.41,45.41,0,0,1-6.2.648,40.781,40.781,0,0,1-7.008-.363c-1.234-.17-2.467-.349-3.68-.638Zm11.913-4.3a27.841,27.841,0,0,0-4.962.461,5.665,5.665,0,0,0-2.1.731c-.385.26-.385.442-.009.718a2.5,2.5,0,0,0,.255.161,14.009,14.009,0,0,0,6.609,1.864,14.07,14.07,0,0,0,7.035-2.013c.415-.269.409-.46.008-.739a3.7,3.7,0,0,0-1.1-.466A23.42,23.42,0,0,0,2106.647,118.569Zm5.076-3.548a3.991,3.991,0,0,0-.61-2.512,1.632,1.632,0,0,0-2.7-.182,3.928,3.928,0,0,0-.106,4.712,1.6,1.6,0,0,0,2.483.13A3.272,3.272,0,0,0,2111.723,115.021Zm-6.212-.5a3.669,3.669,0,0,0-.471-1.67,1.726,1.726,0,0,0-3.172-.194,2.929,2.929,0,0,0-.448,1.2,3.588,3.588,0,0,0,1.032,3.459,1.512,1.512,0,0,0,2.073-.031A3.515,3.515,0,0,0,2105.511,114.518Z" transform="translate(-2090.628 -106.949)" fill="#050403"/>
      <path id="Trazado_643218" data-name="Trazado 643218" d="M2112.568,164.212a29.206,29.206,0,0,1,1.318,3.624,22.788,22.788,0,0,1,1.031,4.793,5.87,5.87,0,0,1-.092,2.059c-.126.472-.31.549-.7.248a9.871,9.871,0,0,1-1.864-2.187c-.321-.452-.621-.919-.957-1.419-.1.6-.172,1.165-.3,1.713a10.512,10.512,0,0,1-3.3,5.476c-.053.048-.1.1-.151.154a12.4,12.4,0,0,1-6.358,2.755,5.414,5.414,0,0,0-1.3.169l-.21,0c-.024-.04-.048-.051-.074,0l-1.4,0c-.089-.1-.212-.071-.322-.079a13.087,13.087,0,0,1-5.333-1.492c-.671-.356-1.249-.848-1.9-1.236-.417-.493-.92-.9-1.333-1.4a10.357,10.357,0,0,1-2.439-5.85.771.771,0,0,0-.054-.15,3.571,3.571,0,0,0-.568.8,16.839,16.839,0,0,1-1.933,2.468c-.212.206-.437.519-.748.429s-.3-.488-.349-.775a8.749,8.749,0,0,1,.133-2.872,41,41,0,0,1,2.058-7.038.875.875,0,0,1,.149-.2c.439.125.882.237,1.315.378,1.043.338,2.138.462,3.185.784-.069.671-.174,1.34-.2,2.013a19.407,19.407,0,0,0,.434,6.125,8.88,8.88,0,0,0,2.71,4.556c2.849,2.416,6.126,2.687,9.515,1.536,3.1-1.055,4.729-3.51,5.427-6.6a21.92,21.92,0,0,0,.11-7.635C2109.565,164.981,2111.083,164.66,2112.568,164.212Z" transform="translate(-2083.154 -144.04)" fill="#050403"/>
      <path id="Trazado_643219" data-name="Trazado 643219" d="M2117.01,156.41c-1.486.449-3,.769-4.508,1.141a3.616,3.616,0,0,0-.382.03q-2.291.419-4.6.672a47.1,47.1,0,0,1-5.863.147c-.3,0-.394.072-.391.378.014,1.439,0,2.877.013,4.316,0,.3-.088.392-.378.423a18.524,18.524,0,0,1-4.346-.114c-.423-.054-.522-.234-.516-.64.025-1.525.011-3.049.012-4.575,0-.186.036-.4-.226-.437a7.78,7.78,0,0,0-1.313-.195c-1.046-.322-2.141-.446-3.185-.784-.434-.141-.876-.253-1.315-.378.265-.936.69-1.811,1.042-2.713a9.9,9.9,0,0,1,.651-1.526l2.428.579c1.213.289,2.446.469,3.68.638a40.779,40.779,0,0,0,7.008.363,45.417,45.417,0,0,0,6.2-.648c1.443-.251,2.863-.581,4.282-.932.606,1.266,1.07,2.591,1.6,3.891C2116.947,156.162,2117.037,156.269,2117.01,156.41Z" transform="translate(-2087.595 -136.239)" fill="#e52020"/>
      <path id="Trazado_643220" data-name="Trazado 643220" d="M2130.69,208.233a5.416,5.416,0,0,1,1.3-.169,12.4,12.4,0,0,0,6.358-2.755,7.867,7.867,0,0,0,1.443.611,4.38,4.38,0,0,1,1.741,1.124c.379.513.261.932-.339,1.124a10.274,10.274,0,0,1-2.644.3,60.329,60.329,0,0,1-7.618-.176A1.473,1.473,0,0,1,2130.69,208.233Z" transform="translate(-2113.953 -170.678)" fill="#f3ad0e"/>
      <path id="Trazado_643221" data-name="Trazado 643221" d="M2098.031,205.635c.647.388,1.225.881,1.9,1.236a13.088,13.088,0,0,0,5.334,1.492c.111.007.233-.022.322.079a16.355,16.355,0,0,1-2.9.221,49.917,49.917,0,0,1-5.249.017,9.833,9.833,0,0,1-2.3-.295c-.649-.2-.768-.638-.344-1.169a3.069,3.069,0,0,1,1.075-.765A7.458,7.458,0,0,1,2098.031,205.635Z" transform="translate(-2090.535 -170.889)" fill="#f3ad0e"/>
      <path id="Trazado_643222" data-name="Trazado 643222" d="M2129.882,213.555c.026-.05.05-.039.074,0C2129.931,213.6,2129.906,213.616,2129.882,213.555Z" transform="translate(-2113.43 -175.999)" fill="#f3ad0e"/>
      <path id="Trazado_643223" data-name="Trazado 643223" d="M2115.123,139.954a23.42,23.42,0,0,1,5.733.718,3.7,3.7,0,0,1,1.1.466c.4.28.407.47-.008.739a14.073,14.073,0,0,1-7.035,2.013,14.007,14.007,0,0,1-6.609-1.864,2.471,2.471,0,0,1-.255-.161c-.376-.276-.376-.458.009-.718a5.665,5.665,0,0,1,2.1-.731A27.839,27.839,0,0,1,2115.123,139.954Z" transform="translate(-2099.104 -128.333)" fill="#f3ad0e"/>
      <path id="Trazado_643224" data-name="Trazado 643224" d="M2135.429,123.755a3.273,3.273,0,0,1-.936,2.147,1.6,1.6,0,0,1-2.483-.13,3.929,3.929,0,0,1,.106-4.712,1.631,1.631,0,0,1,2.7.182A3.993,3.993,0,0,1,2135.429,123.755Zm-1.872-.829a1.9,1.9,0,0,0-1.669.708c-.108.132-.2.282-.025.451s.3.03.4-.07a1.422,1.422,0,0,1,1.812-.226.306.306,0,0,0,.488-.145.334.334,0,0,0-.147-.5A1.787,1.787,0,0,0,2133.558,122.926Z" transform="translate(-2114.334 -115.682)" fill="#fdfdfd"/>
      <path id="Trazado_643225" data-name="Trazado 643225" d="M2117.764,123.259a3.516,3.516,0,0,1-.986,2.76,1.512,1.512,0,0,1-2.073.031,3.588,3.588,0,0,1-1.032-3.459,2.926,2.926,0,0,1,.448-1.2,1.726,1.726,0,0,1,3.172.194A3.669,3.669,0,0,1,2117.764,123.259Zm-.583.346a2.128,2.128,0,0,0-.018-.235.982.982,0,0,0-.814-.873c-.4-.03-.711.226-.869.736a1.57,1.57,0,0,0-.078.417c-.014.632.431,1.218.911,1.216S2117.185,124.309,2117.181,123.605Z" transform="translate(-2102.88 -115.689)" fill="#fdfdfd"/>
      <path id="Trazado_643226" data-name="Trazado 643226" d="M2102.322,167.486a7.772,7.772,0,0,1,1.313.195c.262.034.226.251.226.437,0,1.525.014,3.05-.011,4.575-.007.406.093.587.516.64a18.523,18.523,0,0,0,4.346.114c.29-.031.381-.125.378-.423-.016-1.439,0-2.877-.013-4.316,0-.306.09-.383.391-.378a47.091,47.091,0,0,0,5.863-.147q2.316-.251,4.6-.672a3.619,3.619,0,0,1,.382-.03,21.919,21.919,0,0,1-.11,7.635c-.7,3.089-2.325,5.544-5.427,6.6-3.388,1.152-6.666.881-9.515-1.536a8.881,8.881,0,0,1-2.71-4.556,19.414,19.414,0,0,1-.434-6.124C2102.148,168.826,2102.253,168.157,2102.322,167.486Z" transform="translate(-2095.409 -146.169)" fill="#fdfdfd"/>
      <path id="Trazado_643227" data-name="Trazado 643227" d="M2134.454,127.517a1.787,1.787,0,0,1,.862.216.334.334,0,0,1,.147.5.306.306,0,0,1-.488.145,1.422,1.422,0,0,0-1.812.226c-.1.1-.227.239-.4.07s-.084-.32.025-.451A1.9,1.9,0,0,1,2134.454,127.517Z" transform="translate(-2115.23 -120.274)" fill="#050403"/>
      <path id="Trazado_643228" data-name="Trazado 643228" d="M2120.5,127.388c0,.7-.4,1.258-.868,1.26s-.925-.584-.911-1.216a1.57,1.57,0,0,1,.078-.417c.158-.509.467-.766.869-.736a.982.982,0,0,1,.814.873A2.128,2.128,0,0,1,2120.5,127.388Z" transform="translate(-2106.196 -119.472)" fill="#050403"/>
    </g>
    <path id="Trazado_647452" data-name="Trazado 647452" d="M0,0H28.034V19.434H0Z" transform="translate(580.579 3991.935)" fill="#fff"/>
    <path id="Trazado_643229" data-name="Trazado 643229" d="M1962.538,117.8a19.624,19.624,0,0,0-.565-3.793c-.126-.525-.283-1.044-.442-1.561-.135-.439-.311-.864-.476-1.294-.221-.577-.482-1.135-.751-1.689a16.074,16.074,0,0,0-1.158-2q-.648-.957-1.367-1.862a18.377,18.377,0,0,0-2.075-2.171,21.6,21.6,0,0,0-8.3-4.654,23.5,23.5,0,0,0-6.774-1,25.013,25.013,0,0,0-4.007.284,22.932,22.932,0,0,0-5.28,1.48,21.6,21.6,0,0,0-4.534,2.554,20.728,20.728,0,0,0-6.407,7.7c-.031.064-.055.132-.083.2a1.547,1.547,0,0,0,.258-.02,1.547,1.547,0,0,1-.258.02,18.982,18.982,0,0,0-1.32,3.639,21.008,21.008,0,0,0-.664,4.24c-.017.33-.089.656-.078.988v.822c.013.446.069.889.1,1.333a21.366,21.366,0,0,0,2.562,8.713,20.7,20.7,0,0,0,1.642,2.53,19.379,19.379,0,0,0,1.339,1.583c.419.446.857.872,1.311,1.283a1.822,1.822,0,0,1,.627,1.37c.031,1.289.078,2.578.12,3.867a1.774,1.774,0,0,0,1.274,1.648.635.635,0,0,1,.241.084h.519c1.321-.5,2.588-1.121,3.885-1.677.3-.129.6-.264.894-.4a2.036,2.036,0,0,1,1.449-.063,22.719,22.719,0,0,0,3.137.611,24.831,24.831,0,0,0,7.663-.237,22.32,22.32,0,0,0,4.064-1.167,20.116,20.116,0,0,0,1.849-.818c.4-.208.809-.408,1.194-.646.413-.255.817-.524,1.226-.785a19.2,19.2,0,0,0,3.421-2.859c.03-.031.057-.065.085-.1h0c.036-.034.075-.067.109-.1a20.8,20.8,0,0,0,2.663-3.549,20.236,20.236,0,0,0,1.588-3.309,20.918,20.918,0,0,0,.722-2.4c.149-.614.274-1.231.387-1.85.063-.345.1-.7.139-1.044A25.662,25.662,0,0,0,1962.538,117.8Zm-12.873,2.959q-.653,1.028-1.305,2.057c-.357.566-.709,1.136-1.066,1.7a3.509,3.509,0,0,1-1.04,1.1,3.3,3.3,0,0,1-3.756-.062c-.516-.368-1.018-.757-1.525-1.138q-1.835-1.375-3.668-2.751a1.353,1.353,0,0,0-1.221-.255,1.542,1.542,0,0,0-.528.287q-2.083,1.583-4.168,3.165-.973.738-1.949,1.474c-.249.189-.494.383-.745.57a1.021,1.021,0,0,1-1.457-.11,1,1,0,0,1-.186-1.1,2.494,2.494,0,0,1,.127-.226q3.215-5.1,6.429-10.207a3.318,3.318,0,0,1,4.835-.939c.87.642,1.731,1.3,2.6,1.944q1.272.954,2.543,1.908a1.338,1.338,0,0,0,1.224.239,1.293,1.293,0,0,0,.447-.247c.332-.259.675-.5,1.011-.756.1-.076.2-.162.3-.243a.481.481,0,0,0,.179-.116l3.634-2.756q.764-.579,1.526-1.159a3.512,3.512,0,0,1,.445-.325,1.026,1.026,0,0,1,1.251.181,1.011,1.011,0,0,1,.178,1.25c-.194.336-.409.66-.616.989q-.454.721-.91,1.441l-2.177,3.45-.4.635a.219.219,0,0,1,.144.043A.219.219,0,0,0,1949.665,120.76Z" transform="translate(-1346.412 3882.08)" fill="url(#linear-gradient)"/>
    <path id="Trazado_643230" data-name="Trazado 643230" d="M1806.854,136.3a2.793,2.793,0,0,1-.117.419,4.63,4.63,0,0,1-.334.777c-.127.256-.266.507-.418.75a8.69,8.69,0,0,1-1.013,1.32,8.466,8.466,0,0,1-1.475,1.25,7.877,7.877,0,0,1-2.254,1.071c-.352.1-.706.194-1.065.261-.257.047-.518.072-.778.1a40.938,40.938,0,0,1-4.167.085q-10.93.008-21.86,0c-.585,0-1.167-.054-1.75-.1a7.951,7.951,0,0,1-1.333-.227,9.15,9.15,0,0,1-1.7-.609,8.431,8.431,0,0,1-1.533-.964,9.175,9.175,0,0,1-1.324-1.3,7.856,7.856,0,0,1-.644-.892,6.7,6.7,0,0,1-.4-.737c-.1-.2-.192-.406-.267-.615a5.59,5.59,0,0,1-.184-.543,1.477,1.477,0,0,0-.1-.332c-.057-.109-.041-.235-.089-.351a1.57,1.57,0,0,1-.083-.34c-.043-.274-.061-.555-.107-.827-.069-.411-.033-.824-.082-1.233a14.371,14.371,0,0,1-.048-1.711q0-11.431.008-22.863c0-.4.04-.809.073-1.213.017-.211,0-.423.03-.634.049-.369.071-.742.14-1.107.046-.247.112-.493.181-.736.057-.2.112-.406.183-.6.081-.224.167-.446.261-.665a6.653,6.653,0,0,1,.351-.674q.207-.362.447-.705a8.362,8.362,0,0,1,1.158-1.327,8.512,8.512,0,0,1,1.557-1.143,8.126,8.126,0,0,1,1.543-.682,9.221,9.221,0,0,1,1.434-.35c.317-.05.639-.068.959-.094.6-.047,1.194-.071,1.792-.094.309-.012.618-.014.926-.014q10.871,0,21.741,0c.384,0,.769.01,1.152.024.4.016.8.033,1.2.066a12.989,12.989,0,0,1,1.372.151,9.218,9.218,0,0,1,1.008.251,8.477,8.477,0,0,1,1.622.654,9.53,9.53,0,0,1,1.457,1.006,8.491,8.491,0,0,1,1.1,1.143,6.645,6.645,0,0,1,.537.753c.149.242.291.488.419.74.1.19.17.392.256.588.11.25.184.512.274.769a3.143,3.143,0,0,1,.1.426c.026.133.064.264.092.4a12.961,12.961,0,0,1,.215,2.05c.024.512.059,1.024.066,1.538.023,1.866.009,3.731.01,5.6q0,8.547,0,17.093c0,.394-.036.788-.056,1.183,0,.028,0,.059-.032.074a.522.522,0,0,1-.015-.192c0-.441.056-.881.057-1.319,0-.91.032-1.821-.025-2.732-.047-.746-.007-1.5-.025-2.247-.011-.5-.015-.994-.069-1.49-.008-.077-.04-.1-.117-.1q-3.132,0-6.265,0a.62.62,0,0,1,.015-.062,15.671,15.671,0,0,0,.557-7.456,15.36,15.36,0,0,0-1.361-4.246,15.6,15.6,0,0,0-4.582-5.58,15.267,15.267,0,0,0-4.59-2.418,15.816,15.816,0,0,0-6.345-.7,15.361,15.361,0,0,0-2.706.5,15.715,15.715,0,0,0-10.37,9.379,14.8,14.8,0,0,0-.512,1.549,15.639,15.639,0,0,0-.516,3.074,15.851,15.851,0,0,0,.053,2.7,15.637,15.637,0,0,0,.587,2.9c.092.3.192.6.288.9a.937.937,0,0,0-.51-.059q-3.413,0-6.827,0c-.029,0-.057,0-.086,0-.055,0-.074.023-.1.075a1.281,1.281,0,0,0-.053.508c-.007.607-.021,1.214-.026,1.82,0,.359-.007.719,0,1.078.026,1.18-.062,2.362.057,3.541.031.3.015.609.02.914,0,.191.044.376.057.565.019.269.03.538.066.807a2.971,2.971,0,0,1,.1.652.038.038,0,0,0,.007.02,2.534,2.534,0,0,1,.13.458,3.294,3.294,0,0,1,.093.323,5.31,5.31,0,0,0,.222.637,1.783,1.783,0,0,0,.081.207c.119.217.221.444.334.664.122.238.273.457.41.684a5.379,5.379,0,0,0,.368.5,6.4,6.4,0,0,0,.668.752,9.1,9.1,0,0,0,.853.732c.231.168.474.315.7.482a1.85,1.85,0,0,0,.247.148c.232.118.46.241.7.342a9.571,9.571,0,0,0,.974.355c.205.061.411.12.619.168a5.639,5.639,0,0,0,.682.132c.256.027.512.054.768.076.342.029.684.072,1.026.073q12.634.006,25.268,0c.036,0,.072,0,.108,0,.349-.027.7-.057,1.047-.081a3.768,3.768,0,0,0,.394-.04c.211-.036.423-.062.634-.106q.41-.086.808-.207c.165-.051.322-.132.488-.178s.313-.115.468-.174c.2-.077.385-.188.58-.28a6.088,6.088,0,0,0,.588-.343,7.858,7.858,0,0,0,.675-.481,7.016,7.016,0,0,0,.725-.633,8.54,8.54,0,0,0,.995-1.2,10.832,10.832,0,0,0,.579-.971,5.443,5.443,0,0,0,.292-.655.9.9,0,0,0,.078-.215c.011-.115.106-.2.1-.325C1806.78,136.328,1806.817,136.3,1806.854,136.3Z" transform="translate(-1332.394 3765.677)" fill="#29d147"/>
    <path id="Trazado_643231" data-name="Trazado 643231" d="M1800.907,173.684q3.132,0,6.265,0c.077,0,.109.026.117.1.054.5.058.992.069,1.49.018.749-.022,1.5.025,2.247.057.912.027,1.822.025,2.732,0,.439-.057.878-.057,1.319a.522.522,0,0,0,.015.192,3.463,3.463,0,0,1,0,.415c-.062.056-.056.138-.065.207a.743.743,0,0,0,.012.377.293.293,0,0,1-.008.128.174.174,0,0,0-.013.217l0,.044a.049.049,0,0,0-.058.036.868.868,0,0,0-.012.41c0,.038,0,.076,0,.114a.315.315,0,0,0-.072.346v.024a.181.181,0,0,0-.068.256l0,.043a.229.229,0,0,0-.077.282l0,.023c-.092.036-.112.1-.065.192l-.007.043c-.038,0-.074.027-.073.054.006.121-.088.21-.1.325a.9.9,0,0,1-.078.215,5.4,5.4,0,0,1-.292.655,10.778,10.778,0,0,1-.58.971,8.514,8.514,0,0,1-.995,1.2,6.992,6.992,0,0,1-.725.633,7.841,7.841,0,0,1-.675.481,6.055,6.055,0,0,1-.588.343c-.194.092-.38.2-.579.28-.155.059-.306.129-.468.174s-.323.127-.488.179q-.4.122-.808.207c-.211.044-.422.07-.634.106a3.767,3.767,0,0,1-.394.04c-.349.023-.7.054-1.047.081-.036,0-.072,0-.108,0q-12.634,0-25.268,0c-.342,0-.685-.043-1.026-.073-.256-.022-.512-.049-.768-.076a5.628,5.628,0,0,1-.682-.132c-.209-.048-.414-.107-.619-.168a9.609,9.609,0,0,1-.975-.355c-.241-.1-.469-.224-.7-.342a1.865,1.865,0,0,1-.247-.148c-.231-.167-.474-.314-.7-.482a9.07,9.07,0,0,1-.854-.732,6.386,6.386,0,0,1-.667-.752,5.315,5.315,0,0,1-.368-.5c-.137-.227-.288-.446-.41-.684-.113-.22-.214-.447-.334-.664a1.76,1.76,0,0,1-.081-.207,5.289,5.289,0,0,1-.223-.637,3.294,3.294,0,0,0-.093-.323,2.514,2.514,0,0,0-.13-.458.038.038,0,0,1-.007-.02,2.971,2.971,0,0,0-.1-.652c-.036-.269-.047-.538-.066-.807-.014-.189-.054-.374-.057-.565-.006-.3.01-.612-.021-.914-.119-1.179-.031-2.361-.057-3.541-.008-.359,0-.719,0-1.078,0-.607.019-1.213.026-1.82a1.281,1.281,0,0,1,.053-.508c.022-.052.042-.078.1-.075.029,0,.057,0,.086,0q3.413,0,6.827,0a.936.936,0,0,1,.51.059c.143.381.3.757.469,1.124s.371.748.582,1.109a.309.309,0,0,1,.033.261q-1.082,3.938-2.158,7.878c-.006.023-.023.046,0,.069a.134.134,0,0,0,.021,0q4.039-1.059,8.077-2.122a.4.4,0,0,1,.313.04,15.5,15.5,0,0,0,7.184,1.821,15.54,15.54,0,0,0,9.215-2.924,15.63,15.63,0,0,0,4.543-5.075A15.863,15.863,0,0,0,1800.907,173.684Z" transform="translate(-1332.458 3717.058)" fill="#29d147"/>
    <path id="Trazado_643232" data-name="Trazado 643232" d="M1887.284,198.4a.743.743,0,0,1-.012-.377c.009-.069,0-.151.065-.207A1.678,1.678,0,0,1,1887.284,198.4Z" transform="translate(-1412.432 3701.418)" fill="#54f270"/>
    <path id="Trazado_643233" data-name="Trazado 643233" d="M1887.039,201.027a.868.868,0,0,1,.012-.41.049.049,0,0,1,.058-.036A1.064,1.064,0,0,1,1887.039,201.027Z" transform="translate(-1412.279 3699.628)" fill="#54f270"/>
    <path id="Trazado_643234" data-name="Trazado 643234" d="M1886.821,202.517a.315.315,0,0,1,.072-.346A.984.984,0,0,1,1886.821,202.517Z" transform="translate(-1412.136 3698.599)" fill="#54f270"/>
    <path id="Trazado_643235" data-name="Trazado 643235" d="M1886.4,204.353a.229.229,0,0,1,.077-.282A.7.7,0,0,1,1886.4,204.353Z" transform="translate(-1411.865 3697.367)" fill="#54f270"/>
    <path id="Trazado_643236" data-name="Trazado 643236" d="M1886.624,203.478a.181.181,0,0,1,.068-.256A.523.523,0,0,1,1886.624,203.478Z" transform="translate(-1412.008 3697.917)" fill="#54f270"/>
    <path id="Trazado_643237" data-name="Trazado 643237" d="M1886.2,205.129c-.047-.1-.027-.156.065-.192A.293.293,0,0,1,1886.2,205.129Z" transform="translate(-1411.734 3696.807)" fill="#54f270"/>
    <path id="Trazado_643238" data-name="Trazado 643238" d="M1887.224,200.059a.173.173,0,0,1,.013-.217A.328.328,0,0,1,1887.224,200.059Z" transform="translate(-1412.393 3700.107)" fill="#54f270"/>
    <path id="Trazado_643239" data-name="Trazado 643239" d="M1812.9,135.9a15.872,15.872,0,0,1-1.2,2.712,15.63,15.63,0,0,1-4.543,5.075,15.584,15.584,0,0,1-16.4,1.1.4.4,0,0,0-.313-.04q-4.037,1.065-8.076,2.122a.139.139,0,0,1-.021,0c-.024-.023-.006-.046,0-.069q1.078-3.939,2.158-7.878a.309.309,0,0,0-.033-.261q-.316-.541-.582-1.109c-.173-.367-.326-.744-.469-1.124-.1-.3-.2-.6-.288-.9a15.637,15.637,0,0,1-.587-2.9,15.851,15.851,0,0,1-.053-2.7,15.639,15.639,0,0,1,.516-3.074,14.8,14.8,0,0,1,.512-1.549,15.69,15.69,0,0,1,10.37-9.379,15.362,15.362,0,0,1,2.706-.5,15.815,15.815,0,0,1,6.345.7,15.267,15.267,0,0,1,4.59,2.418,15.6,15.6,0,0,1,4.582,5.58,15.36,15.36,0,0,1,1.361,4.246,15.671,15.671,0,0,1-.557,7.456A.621.621,0,0,0,1812.9,135.9Zm-2.336-1.4a.184.184,0,0,0,.014-.029,12.71,12.71,0,0,0,.441-2.552,13.4,13.4,0,0,0-.016-2.057,12.726,12.726,0,0,0-.429-2.38,12.876,12.876,0,0,0-3.714-6.044,12.666,12.666,0,0,0-3.023-2.086,12.89,12.89,0,0,0-6.9-1.293,12.351,12.351,0,0,0-2.7.527,13.027,13.027,0,0,0-9.142,11.935,12.685,12.685,0,0,0,.235,2.979,7.809,7.809,0,0,0,.252,1.021c.055.238.136.468.214.7a13.438,13.438,0,0,0,1.527,3.066.231.231,0,0,1,.032.209q-.582,2.1-1.157,4.2a3,3,0,0,0-.119.47l1.115-.293q1.839-.482,3.677-.965a.249.249,0,0,1,.212.033,13.4,13.4,0,0,0,3.095,1.436,13.036,13.036,0,0,0,5.735.461,12.611,12.611,0,0,0,3.56-1.057,12.919,12.919,0,0,0,2.581-1.582c.347-.274.681-.563,1-.863a11.825,11.825,0,0,0,1.452-1.648,12.93,12.93,0,0,0,1.442-2.508A16.751,16.751,0,0,0,1810.566,134.5Z" transform="translate(-1344.454 3754.838)" fill="#fefefe"/>
    <path id="Trazado_643240" data-name="Trazado 643240" d="M1790.657,139.383a7.791,7.791,0,0,1-.252-1.021,12.96,12.96,0,0,1,2.439-10.4,12.859,12.859,0,0,1,6.468-4.518,12.351,12.351,0,0,1,2.7-.527,12.89,12.89,0,0,1,6.9,1.293,12.671,12.671,0,0,1,3.023,2.086,12.872,12.872,0,0,1,3.713,6.044,12.716,12.716,0,0,1,.429,2.38,13.419,13.419,0,0,1,.017,2.057,12.7,12.7,0,0,1-.441,2.552.164.164,0,0,1-.014.029.471.471,0,0,0-.147-.024q-2.261,0-4.521,0a.221.221,0,0,0-.157.05.077.077,0,0,1-.021,0q-1.282-.65-2.583-1.262a5.091,5.091,0,0,0-.824-.341.508.508,0,0,0-.629.218c-.388.546-.823,1.053-1.258,1.561a.536.536,0,0,1-.71.176,14.743,14.743,0,0,1-1.553-.744,10.357,10.357,0,0,1-3.307-3.04c-.212-.3-.414-.6-.6-.922a.509.509,0,0,1,.075-.7c.026-.03.056-.056.082-.086a5.466,5.466,0,0,0,.977-1.319.744.744,0,0,0,.016-.634c-.423-.971-.813-1.955-1.219-2.933a2.1,2.1,0,0,0-.238-.445.622.622,0,0,0-.524-.271l-.873-.009a1.343,1.343,0,0,0-.839.292,3.453,3.453,0,0,0-.455.458,4.244,4.244,0,0,0-1.117,2.832,5.123,5.123,0,0,0,.326,1.9,7.352,7.352,0,0,0,.615,1.3,21.259,21.259,0,0,0,2.332,3.121c.275.308.568.6.853.9-.1.01-.171-.062-.268-.062Q1794.864,139.384,1790.657,139.383Z" transform="translate(-1349.523 3749.978)" fill="#29d147"/>
    <path id="Trazado_643241" data-name="Trazado 643241" d="M1811.726,169.689a.221.221,0,0,1,.157-.05q2.26,0,4.521,0a.472.472,0,0,1,.147.024,16.751,16.751,0,0,1-.61,1.686,12.923,12.923,0,0,1-1.442,2.508,11.849,11.849,0,0,1-1.452,1.648c-.323.3-.657.589-1,.863a12.912,12.912,0,0,1-2.581,1.582,12.607,12.607,0,0,1-3.56,1.057,13.037,13.037,0,0,1-5.735-.461,13.4,13.4,0,0,1-3.095-1.436.248.248,0,0,0-.212-.033q-1.838.484-3.677.965l-1.115.293a2.978,2.978,0,0,1,.119-.47q.575-2.1,1.157-4.2a.231.231,0,0,0-.032-.209,13.423,13.423,0,0,1-1.527-3.066c-.078-.231-.159-.461-.214-.7q4.207,0,8.413,0c.1,0,.172.073.268.062.024.022.049.043.072.065a16.161,16.161,0,0,0,2.352,1.884,13.483,13.483,0,0,0,2.865,1.377,7.99,7.99,0,0,0,2.145.572,4.694,4.694,0,0,0,1.626-.118,4.507,4.507,0,0,0,1.993-1.191,1.586,1.586,0,0,0,.37-.551,4.546,4.546,0,0,0,.305-1.6A.5.5,0,0,0,1811.726,169.689Z" transform="translate(-1350.438 3719.677)" fill="#29d147"/>
    <path id="Trazado_643242" data-name="Trazado 643242" d="M1820.106,150a.5.5,0,0,1,.256.493,4.549,4.549,0,0,1-.305,1.6,1.583,1.583,0,0,1-.37.551,4.507,4.507,0,0,1-1.993,1.191,4.693,4.693,0,0,1-1.626.118,7.991,7.991,0,0,1-2.145-.572,13.477,13.477,0,0,1-2.865-1.377,16.148,16.148,0,0,1-2.352-1.884c-.023-.022-.048-.043-.072-.065-.285-.3-.579-.589-.854-.9a21.268,21.268,0,0,1-2.332-3.121,7.342,7.342,0,0,1-.614-1.3,5.123,5.123,0,0,1-.326-1.9,4.245,4.245,0,0,1,1.118-2.832,3.45,3.45,0,0,1,.455-.458,1.343,1.343,0,0,1,.839-.292l.873.009a.622.622,0,0,1,.524.271,2.107,2.107,0,0,1,.238.445c.406.978.8,1.962,1.219,2.933a.744.744,0,0,1-.016.634,5.469,5.469,0,0,1-.977,1.319c-.026.03-.055.056-.082.086a.509.509,0,0,0-.075.7c.183.318.386.623.6.922a10.357,10.357,0,0,0,3.307,3.04,14.741,14.741,0,0,0,1.553.744.536.536,0,0,0,.71-.176c.434-.508.87-1.015,1.258-1.561a.508.508,0,0,1,.629-.218,5.09,5.09,0,0,1,.825.341q1.3.613,2.583,1.262A.079.079,0,0,0,1820.106,150Z" transform="translate(-1358.818 3739.367)" fill="#fefefe"/>
    <path id="Trazado_643243" data-name="Trazado 643243" d="M1639.886,98.816q6.529,0,13.057,0a8.363,8.363,0,0,1,2.63.456,8.727,8.727,0,0,1,2.863,1.591,8.95,8.95,0,0,1,3.163,5.69,7.12,7.12,0,0,1,.073.995q0,13.117-.006,26.234a8.009,8.009,0,0,1-.437,2.47,8.736,8.736,0,0,1-1.061,2.178,9.063,9.063,0,0,1-1.555,1.76,8.889,8.889,0,0,1-4.825,2.148,9.12,9.12,0,0,1-1.056.057q-12.871,0-25.742,0a8.942,8.942,0,0,1-8.805-7.6,8.658,8.658,0,0,1-.095-1.351q0-12.886,0-25.771a8.705,8.705,0,0,1,.8-3.624,8.956,8.956,0,0,1,5.434-4.821,9.051,9.051,0,0,1,2.757-.416Q1633.484,98.822,1639.886,98.816Zm8.872,15.9a18.25,18.25,0,0,0-.045-1.894,6.812,6.812,0,0,0-.59-2.449,8.3,8.3,0,0,0-5.211-4.527,10.348,10.348,0,0,0-5.308-.195,8.3,8.3,0,0,0-4.648,2.7,7.648,7.648,0,0,0-1.656,2.94,11.026,11.026,0,0,0-.3,3.049c.005,1.125.08,2.246.163,3.367.01.134-.036.184-.157.211a1.981,1.981,0,0,1-.712.013,5.558,5.558,0,0,1-1.122-.35,1.673,1.673,0,0,0-1.729.325,1.079,1.079,0,0,0-.422,1.163,1.457,1.457,0,0,0,.576.794,4.5,4.5,0,0,0,1.34.673,8.042,8.042,0,0,1,1.281.485,1.067,1.067,0,0,1,.553,1.6,10.563,10.563,0,0,1-2.468,3.481,6.99,6.99,0,0,1-3.168,1.8,5.509,5.509,0,0,0-.905.246.764.764,0,0,0-.422,1.083,1.232,1.232,0,0,0,.181.29,2.457,2.457,0,0,0,.932.653,11.647,11.647,0,0,0,2.77.753c.4.07.4.067.494.466.079.339.152.679.243,1.015a.823.823,0,0,0,.9.669,1.841,1.841,0,0,0,.282-.024,15.085,15.085,0,0,1,1.859-.265,4.712,4.712,0,0,1,3.1.814c.441.323.9.617,1.349.935a6.762,6.762,0,0,0,7.774.113c.618-.391,1.185-.856,1.813-1.232a3.8,3.8,0,0,1,1.3-.529,7.634,7.634,0,0,1,2.773.049,3.622,3.622,0,0,0,1.034.108.771.771,0,0,0,.672-.5,1.872,1.872,0,0,0,.091-.283c.092-.371.184-.743.268-1.116a.224.224,0,0,1,.22-.193c.433-.062.863-.146,1.288-.247a7.54,7.54,0,0,0,2.032-.715,1.876,1.876,0,0,0,.695-.619.81.81,0,0,0-.561-1.3,6.68,6.68,0,0,1-2.619-1.027,9.96,9.96,0,0,1-3.169-3.391,6.222,6.222,0,0,1-.647-1.357.912.912,0,0,1,.371-1.1,2.435,2.435,0,0,1,.423-.25,5.877,5.877,0,0,1,.779-.3,6.9,6.9,0,0,0,1.207-.471,2.638,2.638,0,0,0,.835-.639,1.147,1.147,0,0,0-.147-1.663,1.825,1.825,0,0,0-1.451-.4,6.043,6.043,0,0,0-1.113.328,1.85,1.85,0,0,1-.98.115c-.214-.046-.211-.047-.2-.263C1648.673,116.684,1648.737,115.7,1648.758,114.717Z" transform="translate(-631.383 3998.402)" fill="#f5ea20"/>
    <path id="Trazado_643244" data-name="Trazado 643244" d="M1659.121,126.833c-.021.985-.085,1.967-.152,2.95-.014.216-.017.217.2.263a1.851,1.851,0,0,0,.981-.115,6.033,6.033,0,0,1,1.113-.328,1.824,1.824,0,0,1,1.451.4,1.147,1.147,0,0,1,.148,1.663,2.639,2.639,0,0,1-.836.639,6.9,6.9,0,0,1-1.207.471,5.868,5.868,0,0,0-.779.3,2.435,2.435,0,0,0-.423.25.912.912,0,0,0-.371,1.1,6.222,6.222,0,0,0,.647,1.357,9.958,9.958,0,0,0,3.169,3.391,6.679,6.679,0,0,0,2.619,1.027.81.81,0,0,1,.561,1.3,1.877,1.877,0,0,1-.7.619,7.54,7.54,0,0,1-2.031.715c-.426.1-.855.184-1.288.247a.224.224,0,0,0-.22.193c-.085.373-.176.745-.268,1.116a1.884,1.884,0,0,1-.09.283.772.772,0,0,1-.672.5,3.622,3.622,0,0,1-1.034-.108,7.635,7.635,0,0,0-2.773-.049,3.8,3.8,0,0,0-1.3.529c-.627.377-1.195.841-1.813,1.232a6.762,6.762,0,0,1-7.774-.113c-.446-.318-.908-.612-1.349-.935a4.712,4.712,0,0,0-3.1-.814,15.088,15.088,0,0,0-1.859.265,1.845,1.845,0,0,1-.282.024.823.823,0,0,1-.9-.669c-.091-.336-.163-.676-.243-1.015-.094-.4-.094-.4-.494-.466a11.644,11.644,0,0,1-2.77-.753,2.458,2.458,0,0,1-.932-.653,1.232,1.232,0,0,1-.181-.29.764.764,0,0,1,.422-1.083,5.5,5.5,0,0,1,.905-.246,6.99,6.99,0,0,0,3.168-1.8,10.558,10.558,0,0,0,2.468-3.481,1.067,1.067,0,0,0-.553-1.6,8.041,8.041,0,0,0-1.281-.485,4.5,4.5,0,0,1-1.34-.673,1.458,1.458,0,0,1-.576-.794,1.079,1.079,0,0,1,.422-1.163,1.673,1.673,0,0,1,1.729-.325,5.56,5.56,0,0,0,1.122.35,1.982,1.982,0,0,0,.712-.013c.121-.027.167-.077.157-.211-.083-1.121-.157-2.243-.163-3.367a11.026,11.026,0,0,1,.3-3.049,7.645,7.645,0,0,1,1.656-2.94,8.3,8.3,0,0,1,4.647-2.7,10.349,10.349,0,0,1,5.308.195,8.3,8.3,0,0,1,5.211,4.527,6.812,6.812,0,0,1,.59,2.449A18.284,18.284,0,0,1,1659.121,126.833Zm-.755-.037c0-.565.008-1.1-.029-1.628a6.37,6.37,0,0,0-.652-2.6,7.636,7.636,0,0,0-5.309-4.066,10.234,10.234,0,0,0-3.057-.17,7.947,7.947,0,0,0-4.341,1.609,7.461,7.461,0,0,0-2.526,3.474,7.664,7.664,0,0,0-.326,2.429c-.03,1.389.071,2.773.174,4.157a.55.55,0,0,1-.308.591,2.064,2.064,0,0,1-1.24.232,4.687,4.687,0,0,1-1.386-.389,1,1,0,0,0-1.052.157.374.374,0,0,0-.061.614,1.922,1.922,0,0,0,.52.4,6.116,6.116,0,0,0,1.232.485,4.758,4.758,0,0,1,1.2.545,1.7,1.7,0,0,1,.843,1.335,2.323,2.323,0,0,1-.24,1.111,11.451,11.451,0,0,1-2.184,3.253,8.471,8.471,0,0,1-4.607,2.608c-.2.038-.214.075-.077.231a1.251,1.251,0,0,0,.2.179,2.707,2.707,0,0,0,.617.329,12.363,12.363,0,0,0,2.744.678.744.744,0,0,1,.618.47,2.511,2.511,0,0,1,.141.424c.08.333.155.668.237,1,.051.208.062.213.275.19.025,0,.049-.008.073-.012.569-.094,1.132-.218,1.709-.26a5.641,5.641,0,0,1,3.948,1.031c.5.371,1.016.715,1.536,1.056a6.018,6.018,0,0,0,6.26.088c.587-.366,1.145-.774,1.717-1.16a5.43,5.43,0,0,1,1.614-.821,7.6,7.6,0,0,1,3.093-.107c.359.052.711.146,1.075.168.1.006.157-.024.179-.127.028-.136.068-.269.1-.4a7.443,7.443,0,0,1,.268-1.023.757.757,0,0,1,.649-.517,13.472,13.472,0,0,0,1.507-.293,6.356,6.356,0,0,0,1.7-.619,1.161,1.161,0,0,0,.374-.314c.089-.124.079-.149-.067-.176a7.845,7.845,0,0,1-2.259-.783,10.052,10.052,0,0,1-3.572-3.294,9.751,9.751,0,0,1-1.095-2.013,1.726,1.726,0,0,1,.767-2.273,5.008,5.008,0,0,1,1.116-.492,7.081,7.081,0,0,0,1.2-.454,1.9,1.9,0,0,0,.554-.4.42.42,0,0,0-.137-.737,1.3,1.3,0,0,0-1.15-.074,5.966,5.966,0,0,1-.97.337,2.034,2.034,0,0,1-1.422-.149.578.578,0,0,1-.35-.639C1658.277,128.909,1658.345,127.837,1658.366,126.8Z" transform="translate(-641.746 3986.286)" fill="#070806"/>
    <path id="Trazado_643245" data-name="Trazado 643245" d="M1659.78,128.233c-.021,1.041-.089,2.114-.174,3.184a.578.578,0,0,0,.35.639,2.034,2.034,0,0,0,1.422.149,5.978,5.978,0,0,0,.97-.337,1.3,1.3,0,0,1,1.15.074.42.42,0,0,1,.137.737,1.9,1.9,0,0,1-.554.4,7.081,7.081,0,0,1-1.2.454,5.011,5.011,0,0,0-1.116.492A1.726,1.726,0,0,0,1660,136.3a9.739,9.739,0,0,0,1.095,2.013,10.052,10.052,0,0,0,3.572,3.294,7.847,7.847,0,0,0,2.259.783c.146.027.156.052.067.176a1.165,1.165,0,0,1-.374.314,6.354,6.354,0,0,1-1.7.619,13.474,13.474,0,0,1-1.507.293.757.757,0,0,0-.648.517,7.408,7.408,0,0,0-.268,1.023c-.033.135-.073.269-.1.4-.022.1-.076.133-.179.127-.364-.021-.716-.115-1.075-.168a7.6,7.6,0,0,0-3.094.107,5.43,5.43,0,0,0-1.614.821c-.573.386-1.13.794-1.717,1.16a6.018,6.018,0,0,1-6.26-.088c-.52-.341-1.039-.684-1.536-1.056a5.641,5.641,0,0,0-3.948-1.031c-.577.042-1.14.165-1.709.26-.024,0-.049.01-.073.012-.212.023-.224.018-.275-.19-.081-.333-.157-.668-.237-1a2.522,2.522,0,0,0-.141-.424.744.744,0,0,0-.618-.47,12.361,12.361,0,0,1-2.743-.678,2.7,2.7,0,0,1-.616-.329,1.247,1.247,0,0,1-.2-.179c-.137-.156-.123-.193.077-.231a8.471,8.471,0,0,0,4.607-2.608,11.458,11.458,0,0,0,2.184-3.253,2.326,2.326,0,0,0,.239-1.111,1.7,1.7,0,0,0-.843-1.335,4.759,4.759,0,0,0-1.2-.545,6.115,6.115,0,0,1-1.232-.485,1.922,1.922,0,0,1-.52-.4.374.374,0,0,1,.061-.614,1,1,0,0,1,1.052-.157,4.685,4.685,0,0,0,1.386.389,2.063,2.063,0,0,0,1.24-.232.55.55,0,0,0,.308-.591c-.1-1.383-.2-2.768-.174-4.157a7.661,7.661,0,0,1,.326-2.429,7.46,7.46,0,0,1,2.526-3.474,7.947,7.947,0,0,1,4.341-1.609,10.235,10.235,0,0,1,3.057.17,7.637,7.637,0,0,1,5.309,4.066,6.368,6.368,0,0,1,.652,2.6C1659.788,127.136,1659.781,127.668,1659.78,128.233Z" transform="translate(-643.16 3984.849)" fill="#fefefe"/>
    <path id="Trazado_643250" data-name="Trazado 643250" d="M1502.994,112.719a18.675,18.675,0,0,0-.929-4.43,23.848,23.848,0,0,0-16.5-15.96,22.135,22.135,0,0,0-4.422-.8c-.1-.009-.23.043-.306-.08H1477.3a5.047,5.047,0,0,1-1.349.207,24.07,24.07,0,0,0-20.42,19.06,15.756,15.756,0,0,0-.305,2,23.732,23.732,0,0,0,5.218,17.956,23.237,23.237,0,0,0,8.593,6.692,23.984,23.984,0,0,0,12.756,2.048,23.208,23.208,0,0,0,8.894-2.845,22.212,22.212,0,0,0,3.481-2.349,26.141,26.141,0,0,0,2.247-2,24.005,24.005,0,0,0,6.571-13.678,4.378,4.378,0,0,1,.165-1.092v-3.908C1503,113.289,1503.088,112.987,1502.994,112.719Zm-13.968,3.74c-.493,2.986-.984,5.973-1.569,8.943a4.525,4.525,0,0,1-.395,1.17,1.552,1.552,0,0,1-1.979.919,4.55,4.55,0,0,1-1.517-.719q-3.546-2.4-7.087-4.8a3.278,3.278,0,0,1-.651-.564,1.114,1.114,0,0,1-.088-1.536,4.561,4.561,0,0,1,.648-.728q3.1-2.951,6.2-5.9c.388-.372.743-.779,1.113-1.169a.415.415,0,0,0-.5-.662,8.714,8.714,0,0,0-.933.559q-4.451,2.968-8.9,5.943c-.063.042-.125.084-.185.129a4.526,4.526,0,0,1-4.216.774c-1.319-.388-2.651-.733-3.937-1.224-.409-.156-.849-.339-.88-.866-.03-.505.373-.744.737-.957a29.712,29.712,0,0,1,2.9-1.321c.911-.411,1.829-.808,2.743-1.211.013-.106.018-.221.15-.252.089-.021.123.048.152.115a.811.811,0,0,0,.374-.161c1.425-.609,2.851-1.214,4.275-1.826,3.63-1.562,7.259-3.124,10.955-4.527a9.18,9.18,0,0,1,2.229-.644c1.035-.115,1.522.267,1.574,1.3a17.288,17.288,0,0,1-.283,2.948c-.1.844-.222,1.686-.334,2.529C1489.43,113.966,1489.231,115.213,1489.026,116.459Z" transform="translate(-329.488 4004.018)" fill="#28a7e8"/>
    <path id="Trazado_643251" data-name="Trazado 643251" d="M1488.286,140.125c1.425-.609,2.851-1.214,4.275-1.826,3.63-1.562,7.26-3.124,10.955-4.527a9.18,9.18,0,0,1,2.229-.644c1.035-.115,1.522.267,1.574,1.3a17.276,17.276,0,0,1-.283,2.948c-.1.844-.222,1.686-.334,2.529-.2,1.247-.4,2.494-.605,3.74-.493,2.986-.984,5.973-1.569,8.943a4.526,4.526,0,0,1-.395,1.17,1.552,1.552,0,0,1-1.979.919,4.548,4.548,0,0,1-1.517-.719q-3.546-2.4-7.087-4.8a3.274,3.274,0,0,1-.651-.564,1.115,1.115,0,0,1-.088-1.537,4.582,4.582,0,0,1,.648-.727q3.1-2.951,6.2-5.9c.388-.372.743-.779,1.113-1.169a.415.415,0,0,0-.5-.662,8.788,8.788,0,0,0-.933.559q-4.451,2.968-8.9,5.943c-.062.042-.125.084-.185.129a4.525,4.525,0,0,1-4.216.774c-1.319-.388-2.651-.733-3.937-1.224-.409-.156-.849-.339-.88-.866-.03-.505.373-.744.737-.957a29.7,29.7,0,0,1,2.9-1.321c.911-.411,1.829-.808,2.743-1.211a.546.546,0,0,0,.3-.137A.812.812,0,0,0,1488.286,140.125Z" transform="translate(-346.56 3976.831)" fill="#fdfefe"/>
    <path id="Trazado_643252" data-name="Trazado 643252" d="M1499.9,153.548a.547.547,0,0,1-.3.137c.013-.106.018-.221.15-.251C1499.837,153.411,1499.871,153.48,1499.9,153.548Z" transform="translate(-358.548 3963.568)" fill="#28a7e8"/>
  </g>
</svg>
