<svg xmlns="http://www.w3.org/2000/svg" width="295" height="271.699" viewBox="0 0 295 271.699">
  <g id="Grupo_986040" data-name="Grupo 986040" transform="translate(411.24 -255.8)">
    <g id="Grupo_986004" data-name="Grupo 986004" transform="translate(-380.963 245.204)">
      <g id="Grupo_986001" data-name="Grupo 986001" transform="translate(228.947 50.447)">
        <path id="Trazado_643253" data-name="Trazado 643253" d="M-164.745,297.833l6.2,1.836a.863.863,0,0,1,0,1.654l-6.2,1.837a.5.5,0,0,0-.337.337l-1.836,6.2a.863.863,0,0,1-1.655,0l-1.836-6.2a.5.5,0,0,0-.337-.337l-6.2-1.837a.862.862,0,0,1,0-1.654l6.2-1.836a.5.5,0,0,0,.337-.337l1.836-6.2a.863.863,0,0,1,1.655,0l1.836,6.2A.5.5,0,0,0-164.745,297.833Z" transform="translate(177.562 -290.68)" fill="#fff"/>
      </g>
      <g id="Grupo_986002" data-name="Grupo 986002" transform="translate(0 203.567)">
        <path id="Trazado_643254" data-name="Trazado 643254" d="M-371.13,435.863l6.2,1.836a.862.862,0,0,1,0,1.654l-6.2,1.837a.5.5,0,0,0-.337.337l-1.836,6.2a.863.863,0,0,1-1.654,0l-1.837-6.2a.5.5,0,0,0-.337-.337l-6.2-1.837a.863.863,0,0,1,0-1.654l6.2-1.836a.5.5,0,0,0,.337-.337l1.837-6.2a.862.862,0,0,1,1.654,0l1.836,6.2A.5.5,0,0,0-371.13,435.863Z" transform="translate(383.946 -428.71)" fill="#fff"/>
      </g>
      <g id="Grupo_986003" data-name="Grupo 986003" transform="translate(83.296 75)">
        <path id="Trazado_643255" data-name="Trazado 643255" d="M-314.072,252.357l6.2,1.836a.863.863,0,0,1,0,1.654l-6.2,1.837a.5.5,0,0,0-.337.337l-1.836,6.2a.863.863,0,0,1-1.654,0l-1.836-6.2a.5.5,0,0,0-.337-.337l-6.2-1.837a.863.863,0,0,1,0-1.654l6.2-1.836a.5.5,0,0,0,.337-.337l1.836-6.2a.863.863,0,0,1,1.654,0l1.836,6.2A.5.5,0,0,0-314.072,252.357Z" transform="translate(326.889 -245.204)" fill="#fff"/>
      </g>
    </g>
    <g id="Grupo_986035" data-name="Grupo 986035" transform="translate(-318.119 255.8)">
      <g id="Grupo_986007" data-name="Grupo 986007" transform="translate(25.876 98.446)">
        <g id="Grupo_986005" data-name="Grupo 986005" transform="translate(0 9.436)">
          <path id="Trazado_643256" data-name="Trazado 643256" d="M-281.287,459.29l-22.683-11.105,18.6-33.692-13.789-3,27.144-44.266.008.229a34.118,34.118,0,0,1,27.6-14.035h46.756l-.107-1.413,18.269.2c17,.324,32.321,11.33,37.019,27.67q.285.99.518,2l10.534,57.94-31.343-2.553,6.135,78.561H-283.41l2.123-56.533Z" transform="translate(303.97 -352.006)" fill="#006475"/>
          <path id="Trazado_643257" data-name="Trazado 643257" d="M-283.918,469.233a.466.466,0,0,0,.46-.4l11.632-83.581a.465.465,0,0,0-.4-.525.467.467,0,0,0-.526.4L-284.38,468.7a.466.466,0,0,0,.4.526C-283.961,469.23-283.939,469.233-283.918,469.233Z" transform="translate(306.111 -348.43)" fill="#52344e"/>
        </g>
        <g id="Grupo_986006" data-name="Grupo 986006" transform="translate(69.836)">
          <path id="Trazado_643258" data-name="Trazado 643258" d="M-233.922,357.268h42.041a6.694,6.694,0,0,0,6.674-6.675h0a6.693,6.693,0,0,0-6.674-6.674h-42.041a6.693,6.693,0,0,0-6.674,6.674h0A6.694,6.694,0,0,0-233.922,357.268Z" transform="translate(241.062 -343.454)" fill="#00c1ab"/>
          <path id="Trazado_643259" data-name="Trazado 643259" d="M-241.016,350.64a7.147,7.147,0,0,1,7.14-7.14h42.041a7.147,7.147,0,0,1,7.14,7.14,7.147,7.147,0,0,1-7.14,7.14h-42.041A7.147,7.147,0,0,1-241.016,350.64Zm7.14-6.208a6.216,6.216,0,0,0-6.209,6.208,6.216,6.216,0,0,0,6.209,6.209h42.041a6.216,6.216,0,0,0,6.209-6.209,6.216,6.216,0,0,0-6.209-6.208Z" transform="translate(241.016 -343.5)" fill="#00c1ab"/>
        </g>
        <path id="Trazado_643260" data-name="Trazado 643260" d="M-248.887,367.522l-11.048,147.66,58.516-.356-7.26-145.547,7.618-8.149L-217,363.26Z" transform="translate(308.784 -341.929)" fill="#00c1ab"/>
      </g>
      <g id="Grupo_986013" data-name="Grupo 986013" transform="translate(0 149.832)">
        <path id="Trazado_643310" data-name="Trazado 643310" d="M5.622,0H26.334a5.622,5.622,0,0,1,5.622,5.622V45.229a5.622,5.622,0,0,1-5.622,5.622H5.622A5.622,5.622,0,0,1,0,45.229V5.622A5.622,5.622,0,0,1,5.622,0Z" transform="translate(57.832 50.851) rotate(-180)" fill="#12263f"/>
        <g id="Grupo_986009" data-name="Grupo 986009" transform="translate(0 11.465)">
          <g id="Grupo_986008" data-name="Grupo 986008">
            <path id="Trazado_643261" data-name="Trazado 643261" d="M-277.329,410.143c-1.286-6.832-9.753-3.717-15.047-2.46-2.454.768-4.707,1.441-6.818,2.058a20.173,20.173,0,0,0,2.247-6.993,2.57,2.57,0,0,0-.655-2.2,2.069,2.069,0,0,0-1.775-.325,5.594,5.594,0,0,0-1.676.8c-4.889,3.092-17.209,14.591-17.21,14.591a28.888,28.888,0,0,0-7.33,11.913c-1.4,4.142-2.876,9.757-.266,13.718a11.431,11.431,0,0,0,6.494,4.265,25.6,25.6,0,0,0,12.341.248,52.2,52.2,0,0,0,10.626-3.829c3.446-1.54,7.094-2.777,10.626-4.148,3.972-1.319,5.821-6.251,2.691-6.936,3.254-.224,6.738-1.6,6.044-5.442-.13-2.163-1.721-2.8-3.589-2.9,2.97-.277,5.811-1.1,5.484-4.331.164-3.553-2.752-4.26-5.689-4.209C-278.819,413.545-277.091,412.552-277.329,410.143Z" transform="translate(327.296 -400.158)" fill="#e8ac9e"/>
            <path id="Trazado_643262" data-name="Trazado 643262" d="M-300.828,409.207l-11.517,4.435s11.06-7.987,13.214-8.6Z" transform="translate(328.931 -399.624)" fill="#ff6969" opacity="0.36"/>
          </g>
          <path id="Trazado_643263" data-name="Trazado 643263" d="M-291.711,415.438a.435.435,0,0,0,.139-.021,72.963,72.963,0,0,1,8.022-2.163.465.465,0,0,0,.455-.476.5.5,0,0,0-.476-.455c-1.23.03-7.559,1.982-8.277,2.205a.466.466,0,0,0-.307.582A.466.466,0,0,0-291.711,415.438Z" transform="translate(331.135 -398.828)" fill="#ff6969"/>
          <path id="Trazado_643264" data-name="Trazado 643264" d="M-290.435,423.177a.481.481,0,0,0,.13-.018l6.452-1.878a.465.465,0,0,0,.317-.577.464.464,0,0,0-.578-.317l-6.452,1.877a.468.468,0,0,0-.317.578A.468.468,0,0,0-290.435,423.177Z" transform="translate(331.275 -397.948)" fill="#ff6969"/>
          <path id="Trazado_643265" data-name="Trazado 643265" d="M-290.544,430.041a.5.5,0,0,0,.12-.016l3.5-.934a.466.466,0,0,0,.331-.57.47.47,0,0,0-.57-.331l-3.5.935a.466.466,0,0,0-.331.57A.466.466,0,0,0-290.544,430.041Z" transform="translate(331.263 -397.095)" fill="#ff6969"/>
        </g>
        <g id="Grupo_986011" data-name="Grupo 986011" transform="translate(30.322 7.794)">
          <g id="Grupo_986010" data-name="Grupo 986010">
            <path id="Trazado_643266" data-name="Trazado 643266" d="M-293.273,412.444c-3.351-.159-6.706.572-6.64,4.748-.485,3.777,2.731,4.842,6.111,5.267-2.135.057-3.975.752-4.2,3.287-.925,4.482,3.005,6.217,6.711,6.59-3.6.7-1.657,6.547,2.832,8.229l23.883,10.358c5.106,2.368,16.025-1.228,19.53-2.287a3.269,3.269,0,0,0,1.795-1.317c4.789-7.269.681-21.8-7.345-31.672,0,0-13.668-13.91-19.144-17.7a6.305,6.305,0,0,0-1.885-1,2.314,2.314,0,0,0-2.039.322,3.072,3.072,0,0,0-.822,2.557c.1,2.884,1.211,5.6,2.323,8.282-2.388-.794-4.938-1.661-7.713-2.645-6-1.653-15.558-5.594-17.262,2.381C-297.492,410.663-295.554,411.887-293.273,412.444Z" transform="translate(299.962 -396.849)" fill="#fcbba9"/>
            <path id="Trazado_643267" data-name="Trazado 643267" d="M-274.723,407.487l13,5.593s-12.35-9.746-14.789-10.543Z" transform="translate(302.525 -396.227)" fill="#ff6969" opacity="0.36"/>
          </g>
          <path id="Trazado_643268" data-name="Trazado 643268" d="M-285.788,413.918a.464.464,0,0,0,.439-.314.464.464,0,0,0-.288-.591c-.812-.278-7.964-2.719-9.355-2.793a.443.443,0,0,0-.49.439.464.464,0,0,0,.439.489,88.351,88.351,0,0,1,9.1,2.744A.46.46,0,0,0-285.788,413.918Z" transform="translate(300.452 -395.387)" fill="#ff6969"/>
          <path id="Trazado_643269" data-name="Trazado 643269" d="M-287.7,422.7a.468.468,0,0,0,.444-.322.466.466,0,0,0-.3-.587l-7.3-2.362a.466.466,0,0,0-.587.3.466.466,0,0,0,.3.587l7.3,2.362A.5.5,0,0,0-287.7,422.7Z" transform="translate(300.454 -394.382)" fill="#ff6969"/>
          <path id="Trazado_643270" data-name="Trazado 643270" d="M-288.135,430.535a.465.465,0,0,0,.446-.332.466.466,0,0,0-.313-.58l-3.961-1.185a.466.466,0,0,0-.58.313.466.466,0,0,0,.313.58l3.961,1.185A.509.509,0,0,0-288.135,430.535Z" transform="translate(300.771 -393.397)" fill="#ff6969"/>
        </g>
        <path id="Trazado_643271" data-name="Trazado 643271" d="M-189.307,427.536l-1.6,4.532-47.885-13.523-5.671-1.6a3.292,3.292,0,0,0-3.943,1.925l-12.875,31.571a4.046,4.046,0,0,0,2.282,5.3l55.822,21.672,21.718,8.433a48.862,48.862,0,0,0,18.522,1.606c18.045-2.041,31.061-15,30.3-31.888l-3.939-26.294Z" transform="translate(334.48 -386.871)" fill="#006475"/>
        <g id="Grupo_986012" data-name="Grupo 986012" transform="translate(72.292 11)">
          <path id="Trazado_643272" data-name="Trazado 643272" d="M-246.409,437.342a.465.465,0,0,0,.441-.317l6.065-18.106a.464.464,0,0,0-.293-.589.461.461,0,0,0-.589.293l-6.065,18.105a.465.465,0,0,0,.293.59A.457.457,0,0,0-246.409,437.342Z" transform="translate(263.796 -397.708)" fill="#52344e"/>
          <path id="Trazado_643273" data-name="Trazado 643273" d="M-257.03,445.86a2.055,2.055,0,0,1,2.052-2.052,2.054,2.054,0,0,1,2.052,2.052,2.053,2.053,0,0,1-2.052,2.052A2.054,2.054,0,0,1-257.03,445.86Zm.931,0a1.123,1.123,0,0,0,1.122,1.122,1.122,1.122,0,0,0,1.121-1.122,1.123,1.123,0,0,0-1.121-1.122A1.123,1.123,0,0,0-256.1,445.86Z" transform="translate(262.686 -394.92)" fill="#52344e"/>
          <path id="Trazado_643274" data-name="Trazado 643274" d="M-175.047,437.216a.465.465,0,0,0,.449-.342.465.465,0,0,0-.325-.572c-.382-.1-38.088-10.464-38.531-10.591a.467.467,0,0,0-.576.322.467.467,0,0,0,.321.576c.449.128,36.984,10.164,38.539,10.592A.474.474,0,0,0-175.047,437.216Z" transform="translate(267.385 -396.9)" fill="#52344e"/>
          <path id="Trazado_643275" data-name="Trazado 643275" d="M-190.475,436.487h.02a.467.467,0,0,0,.446-.485l-1.474-35.817a.469.469,0,0,0-.484-.447.468.468,0,0,0-.447.485l1.474,35.817A.467.467,0,0,0-190.475,436.487Z" transform="translate(269.75 -399.738)" fill="#52344e"/>
          <path id="Trazado_643276" data-name="Trazado 643276" d="M-254.42,455.058a.466.466,0,0,0,.435-.3.465.465,0,0,0-.268-.6l-4.948-1.892a3.079,3.079,0,0,1-1.735-1.655,3.079,3.079,0,0,1-.033-2.4l1.707-4.229a.468.468,0,0,0-.257-.607.468.468,0,0,0-.607.257l-1.707,4.23a4.01,4.01,0,0,0,.043,3.119,4.006,4.006,0,0,0,2.256,2.153l4.948,1.893A.46.46,0,0,0-254.42,455.058Z" transform="translate(262.128 -394.971)" fill="#52344e"/>
        </g>
        <path id="Trazado_643277" data-name="Trazado 643277" d="M-173.835,482.51a39.967,39.967,0,0,0,5.6-.393.466.466,0,0,0,.4-.527.47.47,0,0,0-.527-.395,39.321,39.321,0,0,1-19.482-2.2l-24-9.166a.467.467,0,0,0-.6.268.466.466,0,0,0,.267.6l24,9.166A40.27,40.27,0,0,0-173.835,482.51Z" transform="translate(339.848 -381.079)" fill="#52344e"/>
      </g>
      <g id="Grupo_986034" data-name="Grupo 986034" transform="translate(52.299)">
        <path id="Trazado_643278" data-name="Trazado 643278" d="M-274.789,271.254l3.83.707a.745.745,0,0,0,.879-.792l-.393-4.905a3.377,3.377,0,0,1,4.719-3.369,47.968,47.968,0,0,0,6.118,2.27,12.45,12.45,0,0,1,10.613-5.946h0c.386,0,.767.021,1.144.058a19.565,19.565,0,0,1,12.533-4.519h7.647a18.378,18.378,0,0,1,18.213,15.983c.142.041.287.072.426.119,5.825,1.932,8.949,8.3,7.564,14.28l-2.949,12.734a10.024,10.024,0,0,0-1.968-.038l-6.34.507-6.434.516L-220.5,282.5h-6.412c-4.25,4.777-13.162,11.313-29.507,9.857a37.15,37.15,0,0,1-9.809-2.128c-8.021-3.013-11.812-8.4-13.6-12.855A4.527,4.527,0,0,1-274.789,271.254Z" transform="translate(280.151 -254.756)" fill="#12263f"/>
        <g id="Grupo_986028" data-name="Grupo 986028" transform="translate(13.927 23.298)">
          <g id="Grupo_986014" data-name="Grupo 986014">
            <path id="Trazado_643279" data-name="Trazado 643279" d="M-225.344,276.137a.731.731,0,0,1,.926-.323,15.792,15.792,0,0,0,2.257.744l1.6,20,6.434-.516,6.34-.507a10.024,10.024,0,0,1,1.968.038,10.143,10.143,0,0,1,8.911,9.228l.194,2.434a10.135,10.135,0,0,1-9.266,10.879l-3.564.285,5.949,36.92a17.917,17.917,0,0,1-14.838,20.538l-4.273.689a17.917,17.917,0,0,1-20.538-14.838l-2.361-14.65-.83.067a16.372,16.372,0,0,1-17.627-15.015l-3.537-44.178a37.15,37.15,0,0,0,9.809,2.128C-235.438,292.054-226.975,279.1-225.344,276.137Z" transform="translate(267.596 -275.758)" fill="#fcbba9"/>
          </g>
          <path id="Trazado_643280" data-name="Trazado 643280" d="M-211.7,307.923a.465.465,0,0,0,.409-.244.466.466,0,0,0-.187-.631l-3.409-1.853,3.266-4.278a.466.466,0,0,0-.087-.652.465.465,0,0,0-.653.088l-3.6,4.709a.464.464,0,0,0-.085.379.463.463,0,0,0,.234.312l3.886,2.113A.475.475,0,0,0-211.7,307.923Z" transform="translate(273.231 -273.089)" fill="none" stroke="#12263f" stroke-width="1"/>
          <g id="Grupo_986027" data-name="Grupo 986027" transform="translate(0.279 14.512)">
            <path id="Trazado_643281" data-name="Trazado 643281" d="M-249.85,313.281c.111,0,.222,0,.334-.013l3.016-.241a.466.466,0,0,0,.427-.5.471.471,0,0,0-.5-.427l-3.017.242a3.2,3.2,0,0,1-2.546-.948,3.2,3.2,0,0,1-.91-2.559l1.015-10.738a.465.465,0,0,0-.419-.507.469.469,0,0,0-.508.42l-1.015,10.738a4.135,4.135,0,0,0,1.175,3.3A4.132,4.132,0,0,0-249.85,313.281Z" transform="translate(268.804 -287.884)" fill="#12263f"/>
            <g id="Grupo_986026" data-name="Grupo 986026">
              <path id="Trazado_643282" data-name="Trazado 643282" d="M-261.279,304.474a2.2,2.2,0,0,0,1.97,2.407,2.2,2.2,0,0,0,2.407-1.971,2.2,2.2,0,0,0-1.97-2.407A2.2,2.2,0,0,0-261.279,304.474Z" transform="translate(268.006 -287.348)" fill="#12263f"/>
              <g id="Grupo_986016" data-name="Grupo 986016" transform="translate(22.41 43.678)">
                <g id="Grupo_986015" data-name="Grupo 986015">
                  <path id="Trazado_643283" data-name="Trazado 643283" d="M-246.766,329.651a.452.452,0,0,0,.3-.05,3.9,3.9,0,0,1,4.372.446.457.457,0,0,0,.647-.033.458.458,0,0,0-.033-.647,4.894,4.894,0,0,0-5.431-.566.457.457,0,0,0-.175.621A.452.452,0,0,0-246.766,329.651Z" transform="translate(247.142 -328.213)" fill="#12263f"/>
                </g>
              </g>
              <g id="Grupo_986023" data-name="Grupo 986023">
                <g id="Grupo_986022" data-name="Grupo 986022">
                  <g id="Grupo_986021" data-name="Grupo 986021">
                    <g id="Grupo_986018" data-name="Grupo 986018" transform="translate(21.941)">
                      <g id="Grupo_986017" data-name="Grupo 986017">
                        <path id="Trazado_643284" data-name="Trazado 643284" d="M-231.153,295.8a9.3,9.3,0,0,1-3.857-.016c-1.361-.186-2.732-.339-3.928-.43s-2.578-.151-3.951-.174a9.243,9.243,0,0,1-3.807-.575c-1-.514-1.318-1.792.018-3.229,1.257-1.4,4.373-2.8,8.339-2.5,3.96.314,6.778,2.162,7.762,3.736C-229.527,294.239-230.078,295.449-231.153,295.8Z" transform="translate(247.565 -288.84)" fill="#12263f"/>
                      </g>
                    </g>
                    <g id="Grupo_986020" data-name="Grupo 986020" transform="translate(0 3.643)">
                      <g id="Grupo_986019" data-name="Grupo 986019">
                        <path id="Trazado_643285" data-name="Trazado 643285" d="M-266.318,298.566a5.626,5.626,0,0,0,2.624-.45c.9-.3,1.812-.574,2.612-.781s1.733-.409,2.664-.584a5.634,5.634,0,0,0,2.509-.877c.6-.51.643-1.536-.47-2.5a6.881,6.881,0,0,0-6.03-.985,6.753,6.753,0,0,0-4.751,3.774C-267.646,297.54-267.1,298.414-266.318,298.566Z" transform="translate(267.344 -292.124)" fill="#12263f"/>
                      </g>
                    </g>
                  </g>
                </g>
              </g>
              <path id="Trazado_643286" data-name="Trazado 643286" d="M-244.015,303.86a2.407,2.407,0,0,0,2.75,2.007,2.407,2.407,0,0,0,2.007-2.75,2.407,2.407,0,0,0-2.75-2.006A2.406,2.406,0,0,0-244.015,303.86Z" transform="translate(269.891 -287.502)" fill="#12263f"/>
              <g id="Grupo_986024" data-name="Grupo 986024" transform="translate(26.269 17.384)">
                <path id="Trazado_643287" data-name="Trazado 643287" d="M-239.047,305.386a3.427,3.427,0,0,0-4.2.633" transform="translate(243.71 -304.465)" fill="#12263f"/>
                <path id="Trazado_643288" data-name="Trazado 643288" d="M-243.2,306.531a.461.461,0,0,0,.335-.143,2.922,2.922,0,0,1,3.621-.558.465.465,0,0,0,.639-.158.464.464,0,0,0-.158-.639,3.864,3.864,0,0,0-4.773.709.466.466,0,0,0,.013.658A.46.46,0,0,0-243.2,306.531Z" transform="translate(243.664 -304.51)" fill="#12263f"/>
              </g>
              <g id="Grupo_986025" data-name="Grupo 986025" transform="translate(6.633 19.055)">
                <path id="Trazado_643289" data-name="Trazado 643289" d="M-257.218,306.674a4.767,4.767,0,0,0-3.727.337" transform="translate(261.41 -305.971)" fill="#12263f"/>
                <path id="Trazado_643290" data-name="Trazado 643290" d="M-260.9,307.523a.458.458,0,0,0,.243-.069,4.324,4.324,0,0,1,3.33-.3.466.466,0,0,0,.592-.285.466.466,0,0,0-.283-.594,5.21,5.21,0,0,0-4.126.379.466.466,0,0,0-.154.64A.467.467,0,0,0-260.9,307.523Z" transform="translate(261.364 -306.017)" fill="#12263f"/>
              </g>
            </g>
            <path id="Trazado_643291" data-name="Trazado 643291" d="M-246.661,318.4c1.017,1.772,3.574,4.425,8.242,1.763,5.686-3.244,4.33-7.18,2.282-8.318" transform="translate(269.605 -286.325)" fill="none" stroke="#12263f" stroke-linecap="round" stroke-linejoin="round" stroke-width="1"/>
            <path id="Trazado_643292" data-name="Trazado 643292" d="M-247.664,340.955s19.714-.3,23.919-8.637c0,0-1.3,17.622-22.161,19.544Z" transform="translate(269.496 -284.087)" fill="#12263f"/>
          </g>
        </g>
        <g id="Grupo_986033" data-name="Grupo 986033" transform="translate(24.553 99.773)">
          <g id="Grupo_986032" data-name="Grupo 986032" transform="translate(0 0.975)">
            <g id="Grupo_986031" data-name="Grupo 986031">
              <g id="Grupo_986029" data-name="Grupo 986029" transform="translate(0 2.535)">
                <path id="Trazado_643293" data-name="Trazado 643293" d="M-252.63,350.888l-4.69,12.053a4.083,4.083,0,0,0,.749,4.183l12.152,13.9a2.1,2.1,0,0,0,3.728.216l10.489-12.95-18.44-19.283C-250.117,347.448-252.453,348.549-252.63,350.888Z" transform="translate(258.063 -347.814)" fill="#00c1ab"/>
                <path id="Trazado_643294" data-name="Trazado 643294" d="M-242.553,382.78a2.711,2.711,0,0,1-2.2-1.44l-12.12-13.864a4.557,4.557,0,0,1-.831-4.659l4.666-11.99a3.232,3.232,0,0,1,2.015-2.819,2.56,2.56,0,0,1,2.768.723l18.44,19.283a.468.468,0,0,1,.026.616l-10.464,12.916a2.624,2.624,0,0,1-2.18,1.236C-242.478,382.783-242.515,382.783-242.553,382.78Zm-6.382-33.407a1.635,1.635,0,0,0-1.783-.486,2.318,2.318,0,0,0-1.4,2.082.457.457,0,0,1-.031.133l-4.69,12.053a3.626,3.626,0,0,0,.664,3.707l12.153,13.9a.4.4,0,0,1,.058.083,1.774,1.774,0,0,0,1.455,1,1.729,1.729,0,0,0,1.5-.856l10.23-12.631Z" transform="translate(258.017 -347.86)" fill="#00c1ab"/>
              </g>
              <g id="Grupo_986030" data-name="Grupo 986030" transform="translate(25.021)">
                <path id="Trazado_643295" data-name="Trazado 643295" d="M-207.881,346.43l-27.162,22.208,16.016,15.743a4.137,4.137,0,0,0,5.643-.394l14.979-17.792a4.276,4.276,0,0,0,.572-4.63l-7.131-14.623A1.961,1.961,0,0,0-207.881,346.43Z" transform="translate(235.508 -345.53)" fill="#00c1ab"/>
                <path id="Trazado_643296" data-name="Trazado 643296" d="M-219.308,384.758l-16.015-15.742a.47.47,0,0,1-.139-.354.463.463,0,0,1,.171-.339l27.161-22.208a2.481,2.481,0,0,1,2.092-.481,2.191,2.191,0,0,1,1.539,1.15l7.132,14.622A4.747,4.747,0,0,1-198,366.54l-14.98,17.792a4.357,4.357,0,0,1-2.976,1.47q-.2.017-.4.017A4.542,4.542,0,0,1-219.308,384.758Zm11.77-37.924,0,0-26.76,21.879,15.621,15.356a3.618,3.618,0,0,0,2.645.8,3.419,3.419,0,0,0,2.34-1.143l14.98-17.791a3.816,3.816,0,0,0,.51-4.127l-7.132-14.622a1.268,1.268,0,0,0-.9-.648,1.668,1.668,0,0,0-.353-.039A1.494,1.494,0,0,0-207.538,346.834Z" transform="translate(235.462 -345.576)" fill="#00c1ab"/>
              </g>
            </g>
          </g>
          <path id="Trazado_643297" data-name="Trazado 643297" d="M-214.871,383.888c.1,0,.19,0,.285-.008a4.792,4.792,0,0,0,3.424-1.758l10.182-12.533a.466.466,0,0,0-.068-.656.464.464,0,0,0-.655.068l-10.181,12.533a3.812,3.812,0,0,1-2.759,1.417,3.835,3.835,0,0,1-2.908-1.075L-230.968,368.9a1.959,1.959,0,0,0-1.524-.541,1.951,1.951,0,0,0-1.407.8l-7.265,9.985a2.78,2.78,0,0,1-2.2,1.151,2.8,2.8,0,0,1-2.25-1.043l-4.449-5.524a.464.464,0,0,0-.655-.071.465.465,0,0,0-.071.654l4.449,5.524a3.674,3.674,0,0,0,3,1.39,3.705,3.705,0,0,0,2.926-1.534l7.264-9.985a1.019,1.019,0,0,1,.736-.415,1.019,1.019,0,0,1,.8.282l13.419,12.974A4.8,4.8,0,0,0-214.871,383.888Z" transform="translate(258.797 -342.11)" fill="#fce9e5"/>
          <path id="Trazado_643298" data-name="Trazado 643298" d="M-220.783,376.338a2.5,2.5,0,0,1,2.5-2.5,2.5,2.5,0,0,1,2.5,2.5,2.5,2.5,0,0,1-2.5,2.5A2.5,2.5,0,0,1-220.783,376.338Zm.931,0a1.57,1.57,0,0,0,1.569,1.567,1.57,1.57,0,0,0,1.569-1.567,1.57,1.57,0,0,0-1.569-1.569A1.571,1.571,0,0,0-219.852,376.338Z" transform="translate(262.088 -341.51)" fill="#fce9e5"/>
          <path id="Trazado_643299" data-name="Trazado 643299" d="M-217.124,397.035a.467.467,0,0,0,.466-.45.467.467,0,0,0-.45-.48,4.753,4.753,0,0,1-3.966-2.867,7.711,7.711,0,0,1-.217-5.233,19.372,19.372,0,0,1,2.407-4.964c1.067-1.7,2.528-4.025,1.773-6.291a2.029,2.029,0,0,0-1.144-1.341.463.463,0,0,0-.6.275.465.465,0,0,0,.275.6,1.161,1.161,0,0,1,.582.762c.618,1.85-.654,3.875-1.677,5.5a20.135,20.135,0,0,0-2.515,5.211,8.64,8.64,0,0,0,.266,5.868,5.7,5.7,0,0,0,4.782,3.411Z" transform="translate(261.892 -341.342)" fill="#fce9e5"/>
          <path id="Trazado_643300" data-name="Trazado 643300" d="M-247.331,375.538a2.5,2.5,0,0,1,2.5-2.5,2.5,2.5,0,0,1,2.5,2.5,2.5,2.5,0,0,1-2.5,2.5A2.5,2.5,0,0,1-247.331,375.538Zm.931,0a1.571,1.571,0,0,0,1.569,1.569,1.57,1.57,0,0,0,1.569-1.569,1.571,1.571,0,0,0-1.569-1.569A1.571,1.571,0,0,0-246.4,375.538Z" transform="translate(259.186 -341.598)" fill="#fce9e5"/>
          <path id="Trazado_643301" data-name="Trazado 643301" d="M-243.672,404.629a.465.465,0,0,0,.465-.445.464.464,0,0,0-.444-.486c-1.594-.072-3.182-1.716-3.951-4.089a15.4,15.4,0,0,1-.23-7.564A33.182,33.182,0,0,1-245.4,385c1.045-2.335,2.476-5.534,1.754-8.581a2.663,2.663,0,0,0-1.1-1.784.467.467,0,0,0-.628.2.465.465,0,0,0,.2.628,1.843,1.843,0,0,1,.625,1.171c.65,2.74-.651,5.649-1.7,7.987a33.859,33.859,0,0,0-2.494,7.246,16.335,16.335,0,0,0,.256,8.033c.89,2.74,2.817,4.643,4.8,4.731Z" transform="translate(258.99 -341.429)" fill="#fce9e5"/>
          <path id="Trazado_643302" data-name="Trazado 643302" d="M-209.558,366.338a.466.466,0,0,0,.321-.128,75.857,75.857,0,0,0,5.516-5.816,5.2,5.2,0,0,0,1.6-3.355,4.838,4.838,0,0,0-.387-1.606,93.156,93.156,0,0,0-5.691-10.549.466.466,0,0,0-.65-.1.465.465,0,0,0-.1.651,94.123,94.123,0,0,1,5.571,10.328,4,4,0,0,1,.325,1.3,4.458,4.458,0,0,1-1.38,2.729,74.384,74.384,0,0,1-5.447,5.744.467.467,0,0,0-.018.659A.466.466,0,0,0-209.558,366.338Z" transform="translate(263.264 -344.696)" fill="#fce9e5"/>
          <path id="Trazado_643303" data-name="Trazado 643303" d="M-213.364,349.139a.473.473,0,0,0,.261-.08l5.206-3.511a.464.464,0,0,0,.125-.647.466.466,0,0,0-.646-.125l-5.206,3.511a.464.464,0,0,0-.125.647A.463.463,0,0,0-213.364,349.139Z" transform="translate(262.848 -344.696)" fill="#fce9e5"/>
          <path id="Trazado_643304" data-name="Trazado 643304" d="M-251.352,366.222a.466.466,0,0,0,.339-.146.465.465,0,0,0-.021-.658l-4.857-4.579a2.612,2.612,0,0,1-.63-.753,2.544,2.544,0,0,1,.381-2.021,48.145,48.145,0,0,1,2.545-4.5.465.465,0,0,0-.141-.643.466.466,0,0,0-.642.142,48.639,48.639,0,0,0-2.6,4.594,3.337,3.337,0,0,0-.395,2.813,3.37,3.37,0,0,0,.841,1.052l4.858,4.579A.46.46,0,0,0-251.352,366.222Z" transform="translate(258.068 -343.805)" fill="#fce9e5"/>
        </g>
      </g>
    </g>
    <g id="Grupo_986036" data-name="Grupo 986036" transform="translate(-380.54 353.18)">
      <path id="Trazado_643305" data-name="Trazado 643305" d="M-360.265,349.154a210.363,210.363,0,0,1,30.242-6.218c5.9-.676,12.21-.733,17.487,1.81a17.4,17.4,0,0,1,4.931,3.535,26.1,26.1,0,0,1,6.842,15.377,22.068,22.068,0,0,1-1.538,11.693c-3.365,7.272-11.779,11.4-20.044,14.1A33.874,33.874,0,0,0-308.1,399.813a88.413,88.413,0,0,1-20.587-8.517c-1.468.387-2.885.741-4.214,1.069-11.9,2.946-31.511,8.2-42.1-.8-4.178-3.551-5.868-9.164-7.164-14.492a37.278,37.278,0,0,1-1.394-9.615C-383.277,355.506-369.749,351.688-360.265,349.154Z" transform="translate(383.565 -342.539)" fill="#00d843"/>
    </g>
    <g id="Grupo_986038" data-name="Grupo 986038" transform="translate(-411.24 272.043)">
      <g id="Grupo_986037" data-name="Grupo 986037">
        <path id="Trazado_643306" data-name="Trazado 643306" d="M-382.75,269.4a28.489,28.489,0,0,0-28.49,28.49,28.479,28.479,0,0,0,15.14,25.168,31.168,31.168,0,0,1-12.028,11.6,34.986,34.986,0,0,0,18.212-9.185,28.53,28.53,0,0,0,7.166.911,28.489,28.489,0,0,0,28.49-28.49A28.489,28.489,0,0,0-382.75,269.4Z" transform="translate(411.24 -269.398)" fill="#ffd76a"/>
      </g>
    </g>
    <g id="Grupo_986039" data-name="Grupo 986039" transform="translate(-357.551 371.946)">
      <path id="Trazado_643307" data-name="Trazado 643307" d="M-354.094,370.016a4.374,4.374,0,0,1-4.411,4.337,4.375,4.375,0,0,1-4.337-4.411,4.375,4.375,0,0,1,4.411-4.337A4.374,4.374,0,0,1-354.094,370.016Z" transform="translate(362.842 -358.784)" fill="#fff"/>
      <path id="Trazado_643308" data-name="Trazado 643308" d="M-341.624,367.056a4.375,4.375,0,0,1-4.411,4.337,4.375,4.375,0,0,1-4.337-4.411,4.375,4.375,0,0,1,4.411-4.337A4.374,4.374,0,0,1-341.624,367.056Z" transform="translate(364.205 -359.107)" fill="#fff"/>
      <path id="Trazado_643309" data-name="Trazado 643309" d="M-329.759,363.867a4.373,4.373,0,0,1-4.411,4.336,4.373,4.373,0,0,1-4.336-4.411,4.373,4.373,0,0,1,4.411-4.336A4.373,4.373,0,0,1-329.759,363.867Z" transform="translate(365.503 -359.456)" fill="#fff"/>
    </g>
  </g>
</svg>
