<svg xmlns="http://www.w3.org/2000/svg" width="85" height="85" viewBox="0 0 85 85">
  <g id="Grupo_983520" data-name="Grupo 983520" transform="translate(-180 -6099)">
    <rect id="Rectángulo_34178" data-name="Rectángulo 34178" width="85" height="85" transform="translate(180 6099)" fill="none"/>
    <g id="Grupo_985935" data-name="Grupo 985935" transform="translate(1076.417 5888.155)">
      <path id="Trazado_643112" data-name="Trazado 643112" d="M-877,275.792c-.788-.211-.992-.461-.994-1.279-.006-2.107-.013-4.214.007-6.321,0-.416-.094-.582-.532-.541a9.006,9.006,0,0,1-1.3.01,2.1,2.1,0,0,1-2.091-2.14c-.016-4.605-.04-9.211.01-13.815a4.812,4.812,0,0,1,4.508-4.781c.625-.059,1.259-.025,1.888-.051.174-.007.417.116.507-.147.081-.237-.058-.4-.232-.556a4.088,4.088,0,0,1-1.5-2.378,24.155,24.155,0,0,1-.365-6.029,5.411,5.411,0,0,1,7.451-4.228,7.747,7.747,0,0,0,3.009.215c.394.011.233-.379.093-.574a7.065,7.065,0,0,0-.555-.547,4.182,4.182,0,0,1-1.2-2.672c-.077-1.817-.5-3.627-.222-5.45a5.446,5.446,0,0,1,5.8-4.508,5.408,5.408,0,0,1,5.015,5.3c-.007,1.625-.165,3.252-.31,4.873a4.355,4.355,0,0,1-1.517,2.8c-.19.178-.456.336-.344.638.125.337.451.153.681.166a19.162,19.162,0,0,1,2.276.085.875.875,0,0,0,.546-.163,5.455,5.455,0,0,1,4.894,0,1.408,1.408,0,0,0,.74.138c.8-.047,1.606-.036,2.409-.055.139,0,.328.059.37-.158a.428.428,0,0,0-.1-.424c-.158-.149-.318-.3-.471-.45a4.3,4.3,0,0,1-1.316-2.693c-.127-1.492-.26-2.988-.3-4.484a5.428,5.428,0,0,1,4.813-5.552,5.505,5.505,0,0,1,5.945,4.093,10.973,10.973,0,0,1,.038,3.433c-.033.78-.129,1.558-.179,2.338a4.5,4.5,0,0,1-1.577,3.107c-.2.187-.4.366-.294.654s.379.128.57.13a10.144,10.144,0,0,0,3.236-.421,5.382,5.382,0,0,1,6.909,5.309c-.035,1.561-.172,3.123-.324,4.678a4.316,4.316,0,0,1-1.5,2.739c-.186.174-.452.331-.34.638s.415.151.626.156a11.657,11.657,0,0,1,2.529.162,4.987,4.987,0,0,1,3.766,5.313,1.05,1.05,0,0,1-.985,1.03c-.807-.231-.96-.43-.966-1.292a2.9,2.9,0,0,0-1.675-2.9,2.555,2.555,0,0,0-1.492-.343c-.781-.015-1.562-.007-2.343-.005a1.276,1.276,0,0,1-1.366-.97c-.084-.3-.2-.324-.452-.246a3.128,3.128,0,0,1-1.92-.014c-.239-.076-.32-.041-.39.224a1.3,1.3,0,0,1-1.4,1.008c-.781,0-1.563-.015-2.343.005a2.451,2.451,0,0,0-1.543.394,5.456,5.456,0,0,1,3.572,5.4c-.022,1.407-.206,2.811-.3,4.217a4.535,4.535,0,0,1-1.5,3.011c-.093.09-.2.169-.29.261a.442.442,0,0,0-.069.486c.056.16.22.1.339.1.434.007.868,0,1.3,0a4.891,4.891,0,0,1,5.251,5.23c0,4.209,0,8.419.005,12.628a2.983,2.983,0,0,1-.619,2.314c-.056.057-.019.2-.025.31-.008.368,0,.738-.03,1.1s.086.49.462.475a19.485,19.485,0,0,1,2.211,0c.579.044.713-.136.711-.709-.023-6.463-.014-12.925-.016-19.388,0-.216-.02-.432-.031-.647q.015-4.906.03-9.812a5.16,5.16,0,0,1,.022-.713.883.883,0,0,1,.817-.8.911.911,0,0,1,1.027.614,2.125,2.125,0,0,1,.086.834q.016,4.223.032,8.446c-.01.584-.028,1.168-.03,1.753,0,1.37,0,1.348,1.361,1.363.493.005.623-.147.619-.628-.022-2.645,0-5.291-.016-7.936a1.06,1.06,0,0,1,.973-1.222,1.072,1.072,0,0,1,.989,1.221c-.005,2.757.007,5.515-.007,8.271a2.121,2.121,0,0,1-2.2,2.236,9.733,9.733,0,0,1-1.237-.007c-.417-.04-.5.117-.5.507.019,2.193.009,4.385.009,6.578q0,4.852,0,9.7c0,1.639-.639,2.272-2.289,2.272H-875.7c-1.653,0-2.293-.632-2.294-2.267,0-1.606,0-3.213,0-4.82,0-.818.207-1.069.994-1.277a1.065,1.065,0,0,1,.961,1.237c-.019,1.562,0,3.125-.009,4.688,0,.285,0,.5.4.49.868-.024,1.736-.017,2.6,0,.289.005.378-.1.367-.377-.03-.719.135-1.462-.431-2.089a1.367,1.367,0,0,1-.236-.929c0-.477-.013-.954-.021-1.431.007-.238.021-.477.021-.715,0-3.888-.011-7.775.008-11.663a4.836,4.836,0,0,1,3.815-4.735,14.476,14.476,0,0,1,2.6-.121c.171-.009.418.118.49-.168a.478.478,0,0,0-.19-.517,5.875,5.875,0,0,1-1.467-1.964l-.267-1.231c-.077-1.233-.129-2.469-.237-3.7a5.6,5.6,0,0,1,1.654-4.678,6.312,6.312,0,0,1,2-1.257c-1.5-.6-2.946-.273-4.353-.37a1.29,1.29,0,0,1-1.024-.98c-.068-.328-.205-.306-.444-.232a3.1,3.1,0,0,1-1.858.007c-.238-.072-.379-.06-.466.245a1.307,1.307,0,0,1-1.437.968c-.673-.01-1.346,0-2.018,0-2.252.005-3.42,1.166-3.42,3.4q0,6.121,0,12.242c0,1.238,0,1.2,1.231,1.25.611.024.756-.168.752-.76-.026-3.668-.016-7.336-.011-11,0-.821.36-1.262.991-1.26.608,0,.957.429.958,1.209q0,10.321.008,20.642A1.073,1.073,0,0,1-877,275.792Zm38.718-31.038a2.93,2.93,0,0,0,.946.662,3.285,3.285,0,0,0,4.4-2.366c.143-1.443.254-2.892.31-4.341a3.244,3.244,0,0,0-1.718-3.121,3.268,3.268,0,0,0-3.563-.026,3.351,3.351,0,0,0-1.73,3.263c.068,1.319.21,2.635.287,3.954A2.542,2.542,0,0,0-838.286,244.754Zm-35.577,0c.185.146.359.307.556.435a3.176,3.176,0,0,0,4.812-2.4c.111-1.318.236-2.637.3-3.958a3.283,3.283,0,0,0-1.63-3.173,3.245,3.245,0,0,0-3.555-.147,3.306,3.306,0,0,0-1.83,3.258c.063,1.318.209,2.631.277,3.949A2.579,2.579,0,0,0-873.862,244.752Zm26.974-13.161a3.2,3.2,0,0,0,2.415,1.049,3.623,3.623,0,0,0,3.015-3.047c.12-1.293.228-2.588.282-3.884a3.344,3.344,0,0,0-1.673-3.213,3.255,3.255,0,0,0-3.51-.127,3.182,3.182,0,0,0-1.826,2.94c.017,1.407.184,2.812.252,4.219A2.616,2.616,0,0,0-846.888,231.591Zm-5.206,4.032a3.1,3.1,0,0,0-2.664-.446,3.414,3.414,0,0,0-2.672,3.472c.046,1.43.17,2.859.29,4.286a2.446,2.446,0,0,0,1.094,1.836c.819.66,1.661,1.324,2.8.876,1.227-.483,2.332-1.192,2.516-2.625a38.421,38.421,0,0,0,.306-4.593A3.064,3.064,0,0,0-852.095,235.623Zm5.2,24.9a3.1,3.1,0,0,0,2.478,1.041,3.6,3.6,0,0,0,2.975-3.228c.092-1.187.193-2.373.258-3.562a3.417,3.417,0,0,0-1.67-3.346,3.267,3.267,0,0,0-3.512-.125,3.177,3.177,0,0,0-1.824,2.939c.016,1.407.184,2.811.252,4.218A2.614,2.614,0,0,0-846.891,260.526Zm-14.462-38.054a3.238,3.238,0,0,0-3.505-.081,3.309,3.309,0,0,0-1.81,3.155c.046,1.406.192,2.81.3,4.214a2.47,2.47,0,0,0,1.054,1.855c.816.666,1.654,1.334,2.8.912,1.22-.45,2.344-1.142,2.535-2.53a28.246,28.246,0,0,0,.32-4.791A3.112,3.112,0,0,0-861.352,222.472Zm0,28.938a3.246,3.246,0,0,0-3.506-.081,3.308,3.308,0,0,0-1.807,3.154c.043,1.406.191,2.809.3,4.212a2.474,2.474,0,0,0,1.05,1.856c.817.664,1.656,1.335,2.8.916,1.221-.448,2.345-1.143,2.537-2.531a28.054,28.054,0,0,0,.321-4.793A3.108,3.108,0,0,0-861.353,251.411Zm20.361-6.928-.326-1.42c-.012-.215-.031-.429-.034-.644-.031-2.215-.789-4.476.531-6.666-.915-.053-1.818.14-2.394-.681-.08-.5-.256-.733-.846-.523a2.373,2.373,0,0,1-1.535-.056c-.253-.085-.4-.037-.478.241a1.366,1.366,0,0,1-1.489.995h-1.677a5.677,5.677,0,0,1,.788,3.214c-.071,1.079-.2,2.157-.235,3.237a5.89,5.89,0,0,1-.836,3.085,7.111,7.111,0,0,0-.515.58c-.2.283-.77.419-.579.841s.7.179,1.053.173a5.6,5.6,0,0,1,4.326,1.4c.21.208.324.079.478-.061a4.826,4.826,0,0,1,2.216-1.173,12.409,12.409,0,0,1,2.592-.154c.176,0,.416.1.508-.154s-.054-.405-.232-.555A6.625,6.625,0,0,1-840.992,244.483Zm-18.139-1.423c-.013-.43-.017-.862-.041-1.291-.113-2.022-.646-4.076.558-6.007-.845-.088-1.6.042-2.35-.107-.6-.185-.629-1.074-1.062-1.149-.524-.091-1.137.167-1.726.068a2.16,2.16,0,0,1-.313-.085c-.231-.076-.372-.084-.459.229a1.364,1.364,0,0,1-1.485,1.011h-1.013a5.588,5.588,0,0,1,.783,3.041c-.07,1.3-.215,2.6-.273,3.9a5.417,5.417,0,0,1-.713,2.47c-.32.349-.63.71-.966,1.044-.168.167-.3.332-.2.563s.341.116.519.132a5.8,5.8,0,0,0,.716,0,5.315,5.315,0,0,1,4.133,1.374c.256.25.366.05.521-.089a4.712,4.712,0,0,1,3-1.247c.606-.028,1.215-.017,1.821-.043.171-.007.415.117.491-.164a.461.461,0,0,0-.209-.5,5.854,5.854,0,0,1-1.439-1.9Zm9.582,17.178a7.709,7.709,0,0,1-.35-1.538c-.077-1.144-.138-2.289-.233-3.431a5.569,5.569,0,0,1,3.057-5.813c.028-.015.038-.065.074-.131-1.2-.716-2.516-.465-3.8-.451-.832-.014-1.564-.185-1.79-1.144-.07-.3-.269-.142-.4-.1a3.14,3.14,0,0,1-1.857-.011c-.262-.085-.37-.031-.45.242a1.314,1.314,0,0,1-1.427.98c-.759-.008-1.518-.012-2.276,0a2.885,2.885,0,0,0-1.853.536,2.008,2.008,0,0,0,.215.163A5.392,5.392,0,0,1-857.7,254.9c-.06,1.1-.214,2.2-.232,3.307a4.868,4.868,0,0,1-1.7,3.783c-.175.153-.324.318-.242.554.1.29.371.156.563.159a10.14,10.14,0,0,1,3.281.306,5.623,5.623,0,0,1,1.82,1.323c.224.282.352.26.587,0a4.742,4.742,0,0,1,3.685-1.621c.477,0,.954.013,1.43-.007.19-.008.461.134.549-.176.07-.245-.086-.4-.258-.55A5.721,5.721,0,0,1-849.549,260.238Zm-9.32,19.705c.012-.259.033-.519.034-.778q0-4.689,0-9.378c0-.806.371-1.279.978-1.286s.968.459.972,1.272,0,1.606,0,2.41q.013,3.092.03,6.184c-.012.583-.032,1.165-.034,1.748-.005,1.416,0,1.393,1.386,1.411.492.006.631-.148.625-.625-.022-1.839.01-3.679-.018-5.518a1.133,1.133,0,0,1,.969-1.306,1.143,1.143,0,0,1,.989,1.306c-.016,1.628,0,3.257,0,4.885,0,1.247,0,1.212,1.277,1.258.6.022.713-.189.709-.739-.023-3.6-.012-7.208-.011-10.813a4.771,4.771,0,0,1,.023-.65.892.892,0,0,1,.88-.811.917.917,0,0,1,.963.63,2.154,2.154,0,0,1,.085.836q0,6.123,0,12.246c0,.325.023.649.035.974-.011.39-.01.78-.037,1.168-.022.322.119.406.419.4q1.269-.022,2.539,0c.285,0,.389-.1.37-.378a2.017,2.017,0,0,1,.217-1.2,1.07,1.07,0,0,1,1.555.018,1.737,1.737,0,0,1,.175,1.068c-.026.351.074.5.461.492.82-.026,1.642-.02,2.463,0,.324.007.458-.07.451-.427-.025-1.468-.023-2.937-.03-4.405q.012-4.983.024-9.965a3.367,3.367,0,0,1,.021-.65.926.926,0,0,1,.955-.814.93.93,0,0,1,.958.811,2.9,2.9,0,0,1,.021.584q.012,4.3.021,8.6c-.007.519-.019,1.039-.02,1.558,0,1.528,0,1.518,1.514,1.458.331-.013.453-.1.453-.445-.011-4.549.009-9.1-.027-13.648A2.575,2.575,0,0,0-838,265.045a2.2,2.2,0,0,0-1.352-.372c-.825,0-1.65,0-2.474,0a1.379,1.379,0,0,1-1.488-1.012c-.089-.309-.229-.3-.465-.231a3.1,3.1,0,0,1-1.8.008c-.237-.069-.407-.087-.491.215a1.391,1.391,0,0,1-1.543,1.02c-.738,0-1.476,0-2.214,0a2.907,2.907,0,0,0-3.108,3.083c-.013.868,0,1.737-.005,2.6a1.032,1.032,0,0,1-.976,1.159c-.783-.2-.955-.409-.963-1.214-.009-.843.011-1.686-.006-2.528a2.9,2.9,0,0,0-1.649-2.789,2.518,2.518,0,0,0-1.311-.315c-.825,0-1.65.008-2.475,0a1.344,1.344,0,0,1-1.44-.98c-.093-.323-.256-.33-.529-.247a3,3,0,0,1-1.732,0c-.254-.074-.414-.106-.512.238a1.351,1.351,0,0,1-1.437.989c-.716.007-1.433,0-2.149,0a2.941,2.941,0,0,0-3.273,3.247q0,6.154,0,12.309c0,1.289,0,1.26,1.293,1.3.546.015.685-.145.682-.685-.024-3.625-.013-7.251-.013-10.876,0-.174-.01-.349.006-.521a1,1,0,0,1,.979-.944,1,1,0,0,1,.965.96c.018.194.006.391.006.586q.012,6.577.023,13.154c-.008.366,0,.733-.029,1.1s.088.491.464.478c.775-.027,1.552-.031,2.326,0,.438.018.648-.093.581-.564a2.385,2.385,0,0,1,.134-1.012,1.139,1.139,0,0,1,1.6,0,2.046,2.046,0,0,1,.215,1.2c-.02.28.094.379.374.375.846-.013,1.691-.014,2.537,0,.3.005.422-.09.417-.406C-858.854,282.89-858.859,281.416-858.869,279.943Zm3,4.822a5.114,5.114,0,0,1,.583,0c.468.054.437-.278.381-.539s.3-.761-.348-.767c-.432,0-.865,0-1.3,0-.126,0-.248-.007-.319.148a.769.769,0,0,0,.74,1.155Zm3.93-1.3c-1.109,0-1.1,0-1.015.96.021.235.07.356.334.348.453-.015.908,0,1.362,0,.109,0,.263,0,.271-.117a3.386,3.386,0,0,0-.005-1.03c-.073-.3-.408-.109-.623-.151A1.718,1.718,0,0,0-851.94,283.461Zm-17.516.666c.154-.52-.048-.688-.608-.686-.522,0-.725.1-.688.669.029.45.048.72.619.669C-869.692,284.74-869.263,284.815-869.456,284.127Zm31.666.615c.476.124.737.018.7-.582-.029-.451,0-.771-.623-.717-.448.039-.786,0-.71.624C-838.375,284.485-838.491,284.947-837.79,284.742Z" transform="translate(0 0)" fill="#030303"/>
      <path id="Trazado_643113" data-name="Trazado 643113" d="M-862.794,337.077l.267,1.231c-.26.8-.489.979-1.3.984-.521,0-1.043-.02-1.563.005a4.433,4.433,0,0,0-2.157.617,4.213,4.213,0,0,0-1.907,3.891c-.029,4.211-.013,8.423-.008,12.634,0,1.217.407,1.633,1.661,1.752.008.477.022.954.021,1.431a1.367,1.367,0,0,0,.236.929c.565.627.4,1.369.431,2.089.011.278-.078.382-.367.377-.868-.015-1.737-.022-2.6,0-.4.011-.4-.2-.4-.49.006-1.563-.011-3.126.009-4.688a1.065,1.065,0,0,0-.961-1.237v-2.565a1.073,1.073,0,0,0,.961-1.238q-.015-10.321-.008-20.642c0-.78-.35-1.207-.958-1.209-.631,0-.99.439-.991,1.26,0,3.668-.015,7.337.011,11,0,.591-.141.784-.752.76-1.23-.048-1.231-.012-1.231-1.25q0-6.121,0-12.242c0-2.236,1.169-3.4,3.42-3.4.673,0,1.346-.009,2.018,0a1.307,1.307,0,0,0,1.437-.968c.087-.305.228-.317.466-.245a3.1,3.1,0,0,0,1.858-.007c.238-.074.376-.1.443.232a1.29,1.29,0,0,0,1.025.98,2.785,2.785,0,0,1-.226.534,4.142,4.142,0,0,0-.683,2.713c.078,1.247.222,2.493.245,3.741A3.594,3.594,0,0,0-862.794,337.077Z" transform="translate(-5.57 -78.247)" fill="#d18386"/>
      <path id="Trazado_643114" data-name="Trazado 643114" d="M-679.214,338.76a1.06,1.06,0,0,0-.973,1.222c.016,2.645-.005,5.291.016,7.936,0,.482-.126.634-.619.628-1.362-.015-1.365.007-1.361-1.363,0-.584.02-1.169.03-1.753a1.576,1.576,0,0,0,.265-1.1q0-6.163,0-12.325a2.9,2.9,0,0,1,1.675,2.9c.006.862.159,1.06.966,1.291Q-679.214,337.479-679.214,338.76Z" transform="translate(-147.691 -82.823)" fill="#eacf55"/>
      <path id="Trazado_643115" data-name="Trazado 643115" d="M-764.484,406.306a1.07,1.07,0,0,0-1.555-.018l-3.508.005c-.012-.325-.035-.649-.035-.974q0-6.123,0-12.246a2.154,2.154,0,0,0-.085-.836.917.917,0,0,0-.963-.63.892.892,0,0,0-.88.811,4.771,4.771,0,0,0-.023.65c0,3.6-.012,7.209.011,10.813,0,.55-.106.761-.709.74-1.276-.046-1.277-.01-1.277-1.258,0-1.628-.011-3.257,0-4.885a1.143,1.143,0,0,0-.989-1.306l0-2.558a1.032,1.032,0,0,0,.976-1.159c0-.868-.007-1.737.005-2.6a2.907,2.907,0,0,1,3.108-3.083c.738,0,1.476,0,2.214,0a1.391,1.391,0,0,0,1.543-1.02c.084-.3.254-.284.491-.215a3.1,3.1,0,0,0,1.8-.008c.235-.071.376-.078.465.23a1.379,1.379,0,0,0,1.488,1.012c.825,0,1.65,0,2.475,0a2.2,2.2,0,0,1,1.352.372q-.009,5.99-.017,11.979a2.428,2.428,0,0,1-.368,1.478q-.011-4.3-.021-8.6a2.908,2.908,0,0,0-.021-.584.93.93,0,0,0-.958-.811.926.926,0,0,0-.955.814,3.362,3.362,0,0,0-.021.65q-.013,4.982-.024,9.965c-1.05.015-1.516.406-1.542,1.294C-762.547,405.7-763.086,406.239-764.484,406.306Z" transform="translate(-79.425 -123.093)" fill="#d38386"/>
      <path id="Trazado_643116" data-name="Trazado 643116" d="M-826.965,401.479q-.015-3.092-.03-6.184c0-.8,0-1.607,0-2.41s-.365-1.279-.972-1.272-.977.479-.978,1.286q-.007,4.689,0,9.378c0,.259-.022.519-.034.778-1.09,0-1.588.467-1.557,1.557a1.487,1.487,0,0,1-.826,1.48,4.046,4.046,0,0,1-1.123.217,1.139,1.139,0,0,0-1.6,0h-3.477q-.012-6.577-.023-13.154c0-.2.011-.392-.006-.586a1,1,0,0,0-.965-.96,1,1,0,0,0-.979.944c-.017.172-.006.347-.006.521,0,3.625-.012,7.251.013,10.876,0,.54-.136.7-.682.685-1.292-.036-1.293-.007-1.293-1.3q0-6.154,0-12.309a2.941,2.941,0,0,1,3.273-3.247c.717,0,1.433,0,2.149,0a1.351,1.351,0,0,0,1.438-.989c.1-.344.258-.312.512-.238a3,3,0,0,0,1.732,0c.273-.083.436-.075.529.247a1.344,1.344,0,0,0,1.44.98c.825.01,1.65.005,2.475,0a2.517,2.517,0,0,1,1.311.316q0,6.163,0,12.326A1.25,1.25,0,0,1-826.965,401.479Z" transform="translate(-29.884 -123.114)" fill="#8cb995"/>
      <path id="Trazado_643117" data-name="Trazado 643117" d="M-718.594,327.429q0,6.163,0,12.325a1.576,1.576,0,0,1-.265,1.1q-.016-4.223-.032-8.446a2.122,2.122,0,0,0-.086-.834.911.911,0,0,0-1.027-.614.883.883,0,0,0-.817.8,5.15,5.15,0,0,0-.022.713q-.016,4.906-.03,9.812a1.517,1.517,0,0,0-1.63,1.742q0,8.133.007,16.267c0,.626-.215.967-.849,1.08a5.055,5.055,0,0,1-.835.072c.006-.105-.031-.253.025-.31a2.983,2.983,0,0,0,.619-2.314c-.01-4.21,0-8.419-.005-12.628a4.891,4.891,0,0,0-5.251-5.23c-.434,0-.868,0-1.3,0-.119,0-.283.057-.339-.1a.442.442,0,0,1,.069-.486c.091-.092.2-.171.29-.261a4.536,4.536,0,0,0,1.5-3.011c.1-1.406.28-2.81.3-4.217a5.456,5.456,0,0,0-3.572-5.4,2.451,2.451,0,0,1,1.543-.394c.781-.02,1.562-.009,2.343-.005a1.3,1.3,0,0,0,1.4-1.008c.07-.265.15-.3.39-.224a3.128,3.128,0,0,0,1.92.014c.247-.077.368-.056.452.246a1.276,1.276,0,0,0,1.366.97c.781,0,1.562-.01,2.343.005A2.555,2.555,0,0,1-718.594,327.429Z" transform="translate(-110.953 -78.246)" fill="#f0df78"/>
      <path id="Trazado_643118" data-name="Trazado 643118" d="M-790.141,336.894a7.709,7.709,0,0,0,.35,1.538,2.11,2.11,0,0,1-2.1.819,5.154,5.154,0,0,0-2.651.423,6.382,6.382,0,0,0-1.732,1.534,10.14,10.14,0,0,0-3.281-.306c-.193,0-.464.131-.563-.159-.081-.236.068-.4.242-.554a4.869,4.869,0,0,0,1.7-3.783c.018-1.1.173-2.2.232-3.307a5.392,5.392,0,0,0-2.941-5.366,2.006,2.006,0,0,1-.215-.163,2.885,2.885,0,0,1,1.853-.536c.759-.014,1.518-.011,2.276,0a1.314,1.314,0,0,0,1.427-.98c.081-.273.188-.328.45-.242a3.14,3.14,0,0,0,1.857.011c.135-.038.334-.195.4.1.226.959.958,1.13,1.79,1.144-.05.094-.095.191-.152.28a4.705,4.705,0,0,0-.856,2.927c.086,1.028.195,2.056.222,3.085A4.3,4.3,0,0,0-790.141,336.894Z" transform="translate(-59.759 -78.194)" fill="#a2c4f4"/>
      <path id="Trazado_643119" data-name="Trazado 643119" d="M-825.523,286.169a5.416,5.416,0,0,0,.713-2.47c.058-1.3.2-2.6.273-3.9a5.589,5.589,0,0,0-.783-3.041h1.013a1.364,1.364,0,0,0,1.485-1.011c.088-.313.228-.3.459-.229a2.167,2.167,0,0,0,.313.085c.589.1,1.2-.158,1.726-.068.433.075.461.963,1.062,1.149-.079,1.254.117,2.5.147,3.749a4.157,4.157,0,0,0,1.687,3.657l.286,1.245a1.461,1.461,0,0,1-1.562.981c-2.049-.037-4.1-.01-6.15-.016C-825.082,286.3-825.336,286.386-825.523,286.169Z" transform="translate(-41.703 -41.035)" fill="#f1df78"/>
      <path id="Trazado_643120" data-name="Trazado 643120" d="M-757.635,286.331a5.89,5.89,0,0,0,.836-3.085c.036-1.081.164-2.158.235-3.237a5.678,5.678,0,0,0-.788-3.214h1.677a1.366,1.366,0,0,0,1.489-.995c.081-.278.225-.327.478-.241a2.373,2.373,0,0,0,1.535.056c.59-.21.766.022.846.523a44.215,44.215,0,0,0,.278,5.281,3.3,3.3,0,0,0,1.62,2.711l.326,1.42a1.841,1.841,0,0,1-1.517.8C-752.958,286.319-755.3,286.333-757.635,286.331Z" transform="translate(-91.889 -41.066)" fill="#8cb995"/>
      <path id="Trazado_643121" data-name="Trazado 643121" d="M-853.824,393.608c-1.254-.119-1.659-.535-1.661-1.752-.005-4.211-.022-8.423.008-12.634a4.213,4.213,0,0,1,1.907-3.891,4.433,4.433,0,0,1,2.157-.617c.52-.025,1.042,0,1.563-.005.811,0,1.04-.18,1.3-.984a5.878,5.878,0,0,0,1.467,1.964.478.478,0,0,1,.19.517c-.073.286-.319.159-.49.168a14.478,14.478,0,0,0-2.6.121,4.836,4.836,0,0,0-3.815,4.735c-.019,3.888-.006,7.776-.008,11.663C-853.8,393.132-853.817,393.37-853.824,393.608Z" transform="translate(-19.547 -113.664)" fill="#cc696f"/>
      <path id="Trazado_643122" data-name="Trazado 643122" d="M-822.032,348.118a2.474,2.474,0,0,1-1.05-1.856c-.108-1.4-.256-2.806-.3-4.212a3.308,3.308,0,0,1,1.807-3.154,3.246,3.246,0,0,1,3.506.081,6.972,6.972,0,0,1,.126,1.543,30.842,30.842,0,0,0-.259,3.348A4.474,4.474,0,0,1-822.032,348.118Z" transform="translate(-43.285 -87.566)" fill="#f5cbbe"/>
      <path id="Trazado_643123" data-name="Trazado 643123" d="M-822.033,237.134a2.47,2.47,0,0,1-1.054-1.855c-.108-1.4-.254-2.807-.3-4.214a3.309,3.309,0,0,1,1.81-3.155,3.238,3.238,0,0,1,3.505.081,8.673,8.673,0,0,1,.128,1.413,32.7,32.7,0,0,0-.263,3.477A4.467,4.467,0,0,1-822.033,237.134Z" transform="translate(-43.28 -5.518)" fill="#f5cbbe"/>
      <path id="Trazado_643124" data-name="Trazado 643124" d="M-751.205,348.092a2.614,2.614,0,0,1-1.043-2.063c-.067-1.407-.235-2.811-.252-4.218a3.177,3.177,0,0,1,1.824-2.939,3.267,3.267,0,0,1,3.512.125c.067,1.7-.144,3.393-.237,5.09A4.482,4.482,0,0,1-751.205,348.092Z" transform="translate(-95.685 -87.565)" fill="#f5cbbe"/>
      <path id="Trazado_643125" data-name="Trazado 643125" d="M-786.573,287.561a2.446,2.446,0,0,1-1.094-1.836c-.12-1.427-.245-2.856-.29-4.286a3.414,3.414,0,0,1,2.672-3.472,3.1,3.1,0,0,1,2.664.446,24.5,24.5,0,0,1-.16,4.435,4.71,4.71,0,0,1-.386,2.144A5.1,5.1,0,0,1-786.573,287.561Z" transform="translate(-69.471 -42.79)" fill="#f5cbbe"/>
      <path id="Trazado_643126" data-name="Trazado 643126" d="M-751.2,237.11a2.616,2.616,0,0,1-1.045-2.063c-.069-1.408-.235-2.812-.252-4.219a3.182,3.182,0,0,1,1.826-2.94,3.255,3.255,0,0,1,3.51.127c.068,1.713-.263,3.421-.2,5.115C-747.31,234.854-749.554,237.082-751.2,237.11Z" transform="translate(-95.685 -5.519)" fill="#f5cbbe"/>
      <path id="Trazado_643127" data-name="Trazado 643127" d="M-854.817,287.5a2.579,2.579,0,0,1-1.074-2.038c-.068-1.318-.214-2.631-.277-3.949a3.306,3.306,0,0,1,1.83-3.258,3.245,3.245,0,0,1,3.555.147c.073,1.6-.245,3.18-.228,4.766A4.574,4.574,0,0,1-854.817,287.5Z" transform="translate(-19.045 -42.747)" fill="#f5cbbe"/>
      <path id="Trazado_643128" data-name="Trazado 643128" d="M-718.4,287.5a2.542,2.542,0,0,1-1.072-1.975c-.077-1.319-.219-2.635-.287-3.954a3.351,3.351,0,0,1,1.73-3.263,3.268,3.268,0,0,1,3.563.026,4.349,4.349,0,0,1,.107,1.414,31.4,31.4,0,0,0-.234,3.345A4.57,4.57,0,0,1-718.4,287.5Z" transform="translate(-119.883 -42.744)" fill="#f5cbbe"/>
      <path id="Trazado_643129" data-name="Trazado 643129" d="M-702.542,408.123a5.055,5.055,0,0,0,.835-.072c.634-.113.851-.454.849-1.08q-.021-8.133-.007-16.267a1.517,1.517,0,0,1,1.63-1.742c.011.216.031.432.031.647,0,6.463-.007,12.925.016,19.388,0,.573-.131.753-.711.71a19.485,19.485,0,0,0-2.211,0c-.376.014-.495-.113-.462-.475S-702.55,408.491-702.542,408.123Z" transform="translate(-132.591 -124.928)" fill="#e4cb54"/>
      <path id="Trazado_643130" data-name="Trazado 643130" d="M-785.827,405.995a1.25,1.25,0,0,0,.318-1.053q.007-6.163,0-12.326a2.9,2.9,0,0,1,1.649,2.789c.017.842,0,1.686.006,2.529.009.8.18,1.012.963,1.214q0,1.279,0,2.558a1.133,1.133,0,0,0-.969,1.306c.027,1.839,0,3.679.018,5.518.006.477-.133.63-.625.624-1.388-.017-1.392.005-1.386-1.411C-785.859,407.16-785.839,406.577-785.827,405.995Z" transform="translate(-71.022 -127.629)" fill="#74a57f"/>
      <path id="Trazado_643131" data-name="Trazado 643131" d="M-714.99,406.295a2.428,2.428,0,0,0,.368-1.478q.009-5.99.017-11.979a2.575,2.575,0,0,1,1.535,2.381c.036,4.549.016,9.1.027,13.648,0,.345-.122.432-.453.445-1.516.06-1.517.071-1.514-1.458C-715.008,407.333-715,406.814-714.99,406.295Z" transform="translate(-123.4 -127.792)" fill="#cc696f"/>
      <path id="Trazado_643132" data-name="Trazado 643132" d="M-828.936,314.125c.188.217.441.135.669.136,2.05.006,4.1-.021,6.15.016a1.461,1.461,0,0,0,1.562-.981,5.854,5.854,0,0,0,1.439,1.9.461.461,0,0,1,.209.5c-.076.282-.32.157-.491.164-.607.026-1.215.015-1.821.043a4.712,4.712,0,0,0-3,1.247c-.155.139-.265.339-.521.089a5.315,5.315,0,0,0-4.133-1.374,5.8,5.8,0,0,1-.716,0c-.178-.016-.417.111-.519-.132s.037-.4.2-.563C-829.566,314.835-829.256,314.475-828.936,314.125Z" transform="translate(-38.29 -68.992)" fill="#eacf55"/>
      <path id="Trazado_643133" data-name="Trazado 643133" d="M-760.848,314.762c2.338,0,4.677-.011,7.015.018a1.84,1.84,0,0,0,1.517-.8A6.625,6.625,0,0,0-751,315.656c.177.15.319.314.232.555s-.332.152-.508.154a12.408,12.408,0,0,0-2.592.154,4.826,4.826,0,0,0-2.216,1.173c-.154.14-.268.269-.478.061a5.6,5.6,0,0,0-4.326-1.4c-.354.006-.863.249-1.053-.173s.376-.558.579-.841A7.111,7.111,0,0,1-760.848,314.762Z" transform="translate(-88.676 -69.496)" fill="#77aa83"/>
      <path id="Trazado_643134" data-name="Trazado 643134" d="M-747.525,238.752c1.65-.028,3.893-2.256,3.834-3.98-.058-1.694.273-3.4.2-5.115a3.344,3.344,0,0,1,1.673,3.213c-.054,1.3-.162,2.592-.282,3.884a3.623,3.623,0,0,1-3.015,3.047A3.2,3.2,0,0,1-747.525,238.752Z" transform="translate(-99.363 -7.161)" fill="#deac9e"/>
      <path id="Trazado_643135" data-name="Trazado 643135" d="M-850.973,289.217a4.574,4.574,0,0,0,3.806-4.333c-.016-1.586.3-3.169.228-4.766a3.283,3.283,0,0,1,1.63,3.173c-.06,1.321-.186,2.639-.3,3.958a3.176,3.176,0,0,1-4.812,2.4C-850.614,289.524-850.788,289.362-850.973,289.217Z" transform="translate(-22.889 -44.465)" fill="#deac9e"/>
      <path id="Trazado_643136" data-name="Trazado 643136" d="M-747.534,349.725a4.482,4.482,0,0,0,3.8-4c.092-1.7.3-3.386.237-5.09a3.417,3.417,0,0,1,1.67,3.346c-.065,1.188-.166,2.375-.258,3.562a3.6,3.6,0,0,1-2.975,3.228A3.1,3.1,0,0,1-747.534,349.725Z" transform="translate(-99.356 -89.199)" fill="#deac9e"/>
      <path id="Trazado_643137" data-name="Trazado 643137" d="M-782.642,289.151a5.1,5.1,0,0,0,3.4-2.569,4.71,4.71,0,0,0,.386-2.144,24.5,24.5,0,0,0,.16-4.435,3.064,3.064,0,0,1,1.669,2.807,38.422,38.422,0,0,1-.306,4.593c-.183,1.432-1.288,2.142-2.515,2.625C-780.981,290.475-781.823,289.812-782.642,289.151Z" transform="translate(-73.403 -44.38)" fill="#deac9e"/>
      <path id="Trazado_643138" data-name="Trazado 643138" d="M-818.187,238.711a4.467,4.467,0,0,0,3.826-4.253,32.7,32.7,0,0,1,.263-3.477,8.673,8.673,0,0,0-.128-1.413,3.112,3.112,0,0,1,1.692,2.734,28.246,28.246,0,0,1-.32,4.791c-.191,1.388-1.316,2.08-2.535,2.53C-816.533,240.045-817.371,239.377-818.187,238.711Z" transform="translate(-47.126 -7.096)" fill="#deac9e"/>
      <path id="Trazado_643139" data-name="Trazado 643139" d="M-818.2,349.692a4.474,4.474,0,0,0,3.831-4.251,30.842,30.842,0,0,1,.259-3.348,6.972,6.972,0,0,0-.126-1.543,3.108,3.108,0,0,1,1.693,2.734,28.054,28.054,0,0,1-.321,4.793c-.192,1.387-1.316,2.083-2.537,2.531C-816.548,351.026-817.387,350.356-818.2,349.692Z" transform="translate(-47.114 -89.139)" fill="#deac9e"/>
      <path id="Trazado_643140" data-name="Trazado 643140" d="M-714.533,289.034a4.57,4.57,0,0,0,3.808-4.407,31.381,31.381,0,0,1,.234-3.345,4.35,4.35,0,0,0-.107-1.414,3.244,3.244,0,0,1,1.718,3.121c-.056,1.449-.167,2.9-.31,4.341a3.285,3.285,0,0,1-4.4,2.366A2.93,2.93,0,0,1-714.533,289.034Z" transform="translate(-123.753 -44.28)" fill="#deac9e"/>
      <path id="Trazado_643141" data-name="Trazado 643141" d="M-835.158,340.629a3.594,3.594,0,0,1-1.6-3.015c-.024-1.248-.167-2.494-.245-3.741a4.142,4.142,0,0,1,.683-2.713,2.785,2.785,0,0,0,.226-.534c1.407.1,2.854-.233,4.353.37a6.314,6.314,0,0,0-2,1.257,5.6,5.6,0,0,0-1.654,4.678C-835.287,338.161-835.235,339.4-835.158,340.629Z" transform="translate(-33.206 -81.799)" fill="#cc696f"/>
      <path id="Trazado_643142" data-name="Trazado 643142" d="M-764.521,340.492a4.3,4.3,0,0,1-1.686-3.534c-.027-1.029-.135-2.057-.222-3.085a4.7,4.7,0,0,1,.856-2.927c.057-.089.1-.186.152-.28,1.282-.014,2.594-.264,3.8.451-.036.066-.045.116-.073.131a5.569,5.569,0,0,0-3.057,5.813C-764.659,338.2-764.6,339.348-764.521,340.492Z" transform="translate(-85.379 -81.792)" fill="#87b0f0"/>
      <path id="Trazado_643143" data-name="Trazado 643143" d="M-782.595,377.178a6.381,6.381,0,0,1,1.732-1.534,5.154,5.154,0,0,1,2.651-.423,2.11,2.11,0,0,0,2.1-.819,5.721,5.721,0,0,0,1.33,1.744c.173.147.328.305.258.55-.088.311-.359.168-.549.176-.476.02-.953.009-1.43.007a4.742,4.742,0,0,0-3.685,1.621c-.236.26-.363.282-.587,0A5.623,5.623,0,0,0-782.595,377.178Z" transform="translate(-73.438 -114.164)" fill="#87b0f0"/>
      <path id="Trazado_643144" data-name="Trazado 643144" d="M-736.1,453.228c1.4-.067,1.938-.607,1.978-1.981.026-.888.492-1.279,1.542-1.294.008,1.469.005,2.937.03,4.405.006.357-.128.434-.451.427-.821-.018-1.642-.024-2.463,0-.387.013-.487-.14-.461-.492A1.737,1.737,0,0,0-736.1,453.228Z" transform="translate(-107.808 -170.016)" fill="#cc696f"/>
      <path id="Trazado_643145" data-name="Trazado 643145" d="M-731.625,285.877a3.3,3.3,0,0,1-1.62-2.71,44.215,44.215,0,0,1-.278-5.281c.576.821,1.479.628,2.394.681-1.32,2.19-.562,4.452-.531,6.666C-731.656,285.448-731.637,285.663-731.625,285.877Z" transform="translate(-109.694 -42.815)" fill="#77aa83"/>
      <path id="Trazado_643146" data-name="Trazado 643146" d="M-806.921,453.228a4.045,4.045,0,0,0,1.123-.217,1.487,1.487,0,0,0,.826-1.48c-.031-1.09.467-1.555,1.557-1.557.011,1.473.015,2.947.037,4.42,0,.315-.113.411-.417.406-.845-.015-1.691-.014-2.537,0-.28,0-.394-.095-.374-.375A2.046,2.046,0,0,0-806.921,453.228Z" transform="translate(-55.455 -170.03)" fill="#77aa83"/>
      <path id="Trazado_643147" data-name="Trazado 643147" d="M-799.73,287.526a4.157,4.157,0,0,1-1.687-3.657c-.03-1.251-.226-2.495-.147-3.749.745.149,1.5.019,2.35.107-1.2,1.931-.671,3.985-.558,6.007C-799.747,286.664-799.743,287.1-799.73,287.526Z" transform="translate(-59.402 -44.466)" fill="#eacf55"/>
      <path id="Trazado_643148" data-name="Trazado 643148" d="M-826.486,462.453h3.477a2.384,2.384,0,0,0-.134,1.011c.066.471-.144.582-.581.564-.774-.032-1.552-.028-2.326,0-.376.013-.495-.118-.464-.478S-826.494,462.819-826.486,462.453Z" transform="translate(-40.967 -179.256)" fill="#77aa83"/>
      <path id="Trazado_643149" data-name="Trazado 643149" d="M-755.631,462.447l3.508-.005a2.018,2.018,0,0,0-.217,1.2c.019.277-.085.383-.37.378q-1.27-.02-2.539,0c-.3.005-.441-.08-.419-.4C-755.641,463.227-755.642,462.837-755.631,462.447Z" transform="translate(-93.341 -179.248)" fill="#cc696f"/>
      <path id="Trazado_643150" data-name="Trazado 643150" d="M-785.077,464.767h-.259a.769.769,0,0,1-.741-1.155c.071-.155.193-.147.319-.148.432,0,.864,0,1.3,0,.643.006.29.5.348.767s.087.593-.381.539A5.114,5.114,0,0,0-785.077,464.767Z" transform="translate(-70.792 -180.002)" fill="#87b0f0"/>
      <path id="Trazado_643151" data-name="Trazado 643151" d="M-769.874,463.415a1.715,1.715,0,0,1,.324,0c.215.042.549-.149.623.151a3.386,3.386,0,0,1,.005,1.03c-.009.114-.162.117-.271.117-.454,0-.908-.01-1.362,0-.263.009-.313-.113-.334-.348C-770.974,463.414-770.983,463.415-769.874,463.415Z" transform="translate(-82.066 -179.954)" fill="#87b0f0"/>
      <path id="Trazado_643152" data-name="Trazado 643152" d="M-837.759,464.077c.193.687-.237.613-.677.653-.57.051-.59-.219-.619-.669-.036-.567.167-.668.688-.669C-837.807,463.39-837.605,463.558-837.759,464.077Z" transform="translate(-31.697 -179.95)" fill="#d38386"/>
      <path id="Trazado_643153" data-name="Trazado 643153" d="M-714.463,464.678c-.7.2-.585-.257-.635-.675-.075-.626.262-.585.71-.624.627-.055.594.266.623.717C-713.726,464.7-713.987,464.8-714.463,464.678Z" transform="translate(-123.327 -179.936)" fill="#eacf55"/>
    </g>
  </g>
</svg>
