<svg xmlns="http://www.w3.org/2000/svg" width="111.679" height="111.679" viewBox="0 0 111.679 111.679">
  <g id="Grupo_985932" data-name="Grupo 985932" transform="translate(-428.233 -1365.16)">
    <g id="Grupo_983517" data-name="Grupo 983517" transform="translate(-6.767 -2975.84)">
      <circle id="Elipse_7706" data-name="Elipse 7706" cx="55.839" cy="55.839" r="55.839" transform="translate(435 4341)" fill="#006475"/>
    </g>
    <g id="Grupo_985924" data-name="Grupo 985924" transform="translate(438.318 1373.988)">
      <path id="Trazado_643037" data-name="Trazado 643037" d="M-366.264,68.824a11.107,11.107,0,0,1-5.415-8.959c-.03-.518-.23-.561-.649-.563-4.9-.024-7.226-5.073-5.124-9.008a1.375,1.375,0,0,0,.15-1.016c-.246-1.177-.464-2.36-.677-3.544a12.926,12.926,0,0,1,2.236-10.188,12.416,12.416,0,0,1,6.466-4.476,11.746,11.746,0,0,1,3.95-.527c3.11,0,6.221.017,9.331-.006a12.537,12.537,0,0,1,8.592,3.315,1.3,1.3,0,0,0,1.641.239c2.638-1.137,5.249-2.37,7.971-3.266a8.033,8.033,0,0,1,5.1.183c3,1.007,5.866,2.339,8.789,3.527,1.317.535,2.556,1.257,3.88,1.8.454.185.72.219,1.061-.207a15.4,15.4,0,0,1,8.4-5.07,19.534,19.534,0,0,1,8.734-.246,15.167,15.167,0,0,1,8,3.87,16.838,16.838,0,0,1,5.415,11.539,38.809,38.809,0,0,1-.111,7.131,11.854,11.854,0,0,1-.761,2.3,1.994,1.994,0,0,0,.072,1.648,8.23,8.23,0,0,1-.019,7.312,2.01,2.01,0,0,0,.01,1.729,8.455,8.455,0,0,1-1.233,9.373,3.445,3.445,0,0,0-.95,2.138,6.382,6.382,0,0,1-.257,1.51,6.091,6.091,0,0,0,.08,3.969,5.872,5.872,0,0,1-5.616,7.819c-.437,0-.729-.015-.855.583a10.13,10.13,0,0,1-5.55,7.448c-.226.111-.427.21-.321.533.216.655.422,1.315.609,1.978.1.356.372.419.672.5a15.792,15.792,0,0,1,4.244,1.749,20.459,20.459,0,0,1,9.647,13.819,30.2,30.2,0,0,1,.4,6.123c0,.413-.082.631-.54.562a3.087,3.087,0,0,0-.452,0q-43.938,0-87.875.017c-.788,0-1.019-.152-1.042-1A23.065,23.065,0,0,1-375.9,112.1a35.044,35.044,0,0,1,2.313-3.536c.2-.3.266-.464-.013-.744a10.817,10.817,0,0,1-2.469-3.939.8.8,0,0,0-.912-.623c-.868.038-2.045.317-2.53-.123-.561-.508-.165-1.7-.166-2.591q-.022-10.583-.007-21.166c0-3.839,2.272-6.153,6.12-6.336a5.2,5.2,0,0,0,4-1.71A11.768,11.768,0,0,1-366.264,68.824Zm18.811,10.167c.6.013,1.208.064,1.808.029.564-.032.779.108.762.731-.059,2.139-.037,4.28-.071,6.42A15.437,15.437,0,0,1-350.37,98a.646.646,0,0,0-.222.84c.3.849.541,1.718.808,2.578.1.314.171.626.571.732a15.765,15.765,0,0,1,7,3.7c.326.309.553.256.8-.08a16.4,16.4,0,0,0,2.025-3.385.7.7,0,0,0-.033-.675,23.315,23.315,0,0,1-2.607-12.1,64.448,64.448,0,0,0-.142-9.483c-.609-4.819-4.783-9.346-9.564-9.978A57.223,57.223,0,0,0-359.418,70a10.552,10.552,0,0,0-6.746,2.311,12.153,12.153,0,0,0-4.816,9.936c-.032,2.924-.047,5.849,0,8.772a21.3,21.3,0,0,1-2.535,10.58.877.877,0,0,0-.067.841,18.764,18.764,0,0,0,1.923,3.24c.315.466.609.464,1,.077a14.778,14.778,0,0,1,4.622-2.875c.891-.392,2.11-.3,2.65-1.127a14.232,14.232,0,0,0,.983-2.884.7.7,0,0,0-.261-.908,16.073,16.073,0,0,1-4.718-7.211c-.959-3.128-.763-6.321-.622-9.5a5.261,5.261,0,0,1,2.245-3.968,11.443,11.443,0,0,1,2.839-1.288c.374-.153.705-.055.637.506a7.451,7.451,0,0,0,.02,1.082,1.611,1.611,0,0,0-.025.358c.1.7-.022,1.114-.875,1.266a2.615,2.615,0,0,0-1.989,2.692,27.8,27.8,0,0,0,.185,6.487,11.56,11.56,0,0,0,4.581,7.5c2.08,1.489,4.237,2,6.654.668a11.059,11.059,0,0,0,5.743-8.852c.338-2.632.123-5.294.2-7.942C-347.781,79.482-348,79.056-347.453,78.991Zm-1.8,26.352c0,.963.029,1.8-.005,2.639a4.318,4.318,0,0,1-4.218,4.324q-3.032.063-6.066,0a4.248,4.248,0,0,1-4.069-3.457,12.8,12.8,0,0,1-.128-2.519c-.021-1.021-.012-1.035-.956-.665a16.472,16.472,0,0,0-9.3,9.3,18.515,18.515,0,0,0-1.329,5.775c-.04.446.046.645.559.635,1.539-.032,3.079-.029,4.617,0,.471.008.629-.121.613-.6-.035-1.053-.01-2.109-.01-3.164,0-2.33,0-2.31,2.331-2.227.512.018.585.208.577.642-.023,1.145-.008,2.29-.008,3.435,0,1.908,0,1.908,1.911,1.908,5.855,0,11.71-.013,17.565.018.693,0,.871-.185.832-.85-.059-.991-.015-1.988-.015-2.982,0-2.2,0-2.18,2.207-2.17.55,0,.723.13.708.7-.042,1.536.015,3.074-.029,4.61-.017.581.176.7.716.689q2.172-.053,4.345,0c.584.015.78-.125.723-.744a17.435,17.435,0,0,0-4.82-11.006c-.187-.191-.34-.415-.528-.605A15.127,15.127,0,0,0-349.248,105.343Zm49.541,1.382c-.7,1.82-1.4,3.575-2.058,5.347-.2.54-.406.663-.969.427-2.166-.907-4.364-1.737-6.53-2.645a2.026,2.026,0,0,0-1.713.016c-2.167.9-4.363,1.739-6.533,2.637-.5.208-.726.155-.919-.38-.549-1.527-1.2-3.019-1.713-4.557-.284-.852-.609-.787-1.225-.351a17.691,17.691,0,0,0-5.82,6.851,19.385,19.385,0,0,0-1.739,6.59c-.056.55.081.732.663.716,1.478-.042,2.959-.03,4.438,0,.472.008.709-.062.685-.621-.045-1.053-.013-2.11-.013-3.165,0-2.261,0-2.242,2.259-2.208.514.008.664.142.653.656-.033,1.507.015,3.015-.025,4.522-.016.592.085.826.763.823q9.42-.042,18.84-.005c.532,0,.748-.095.718-.683-.053-1.023-.015-2.049-.015-3.074,0-2.326,0-2.307,2.319-2.238.5.015.6.174.59.626-.024,1.537.015,3.076-.022,4.612-.013.568.112.784.732.762a39.156,39.156,0,0,1,4.074.008c.964.065,1.052-.32.968-1.125a17.928,17.928,0,0,0-2.3-7.341A15.926,15.926,0,0,0-299.707,106.725Zm-10.1-9.425c1.456-.093,3.152.145,4.81-.78a7.312,7.312,0,0,0,4.163-5.738c.372-3.352.61-6.719.859-10.082.084-1.143-.473-1.663-1.619-1.668-2.2-.009-4.407.015-6.611-.007A7.974,7.974,0,0,1-314.931,76a.369.369,0,0,0-.614-.046,10.075,10.075,0,0,1-2.559,1.437c-1.81.938-2.284,1.778-2.112,3.841.243,2.912.538,5.822.689,8.739a7.732,7.732,0,0,0,7.922,7.331C-311.094,97.276-310.579,97.3-309.812,97.3Zm-16.874,2.894q4.8,0,9.595,0c.337,0,.643.032.777-.4.106-.349-.033-.486-.311-.622a10.161,10.161,0,0,1-5.545-7.455c-.113-.528-.345-.587-.785-.572a5.877,5.877,0,0,1-3.5-1.027,6.265,6.265,0,0,1-1.994-7.417c.161-.331.431-.631-.056-1-1.458-1.1-2.886-2.242-4.3-3.4a.661.661,0,0,0-1,.006q-2.452,1.974-4.95,3.89a.925.925,0,0,0-.347.859c.01,3.163-.047,6.328.037,9.489a15.808,15.808,0,0,0,1.849,7,1.07,1.07,0,0,0,1.114.659C-332.962,100.18-329.824,100.2-326.686,100.2ZM-360.895,66.9c4.743.225,7.695-3.075,8.012-7.247.21-2.764.407-5.528.647-8.289.209-2.408-.281-3.352-2.439-4.309-1.87-.83-3.766-1.6-5.642-2.42a1.156,1.156,0,0,0-1.023-.01c-1.874.822-3.77,1.594-5.642,2.418-2.163.952-2.673,1.912-2.465,4.3.244,2.791.393,5.59.664,8.378.3,3.127,1.694,5.544,4.773,6.735A7.486,7.486,0,0,0-360.895,66.9Zm69.065,5.526a5.585,5.585,0,0,0-.067-4.977,4.744,4.744,0,0,1,.038-4.186,5.325,5.325,0,0,0-.022-4.863,4.622,4.622,0,0,1,.007-4.179,4.467,4.467,0,0,0,.58-1.886,42.493,42.493,0,0,0-.158-7.217A13.347,13.347,0,0,0-300.877,34.1c-2.093-.716-4.3-.46-6.467-.472-3.769-.021-6.737,1.711-9.331,4.264-.292.287-.287.464-.039.819a9.554,9.554,0,0,1,2.116,4.9c.027.476.185.668.661.308C-312.465,42.8-311,41.7-311.55,39.5a2.7,2.7,0,0,1-.007-.631c0-2.285,0-2.27,2.3-2.185.48.018.618.161.61.626-.025,1.356-.01,2.712-.008,4.068,0,.326-.048.655.271.9a15.715,15.715,0,0,0,2.975,2.151,15.007,15.007,0,0,0,6.769,1.319,3.974,3.974,0,0,1,3.856,2.17,6.065,6.065,0,0,1,.544,3.68q-.353,4-.647,8.011a11.5,11.5,0,0,1-1.723,5.628c-.307.467-.18.643.211.9a8.726,8.726,0,0,1,2.112,1.929A13.593,13.593,0,0,1-291.83,72.43Zm-26.843-8.413c-.272,0-.544,0-.815,0-2.946-.019-4.5,2.423-3.212,5.071.381.786.759,1.576,1.182,2.339a.663.663,0,0,1-.279,1.037c-.968.613-1.92,1.253-2.867,1.9a3.216,3.216,0,0,0-1.364,3.067,2.457,2.457,0,0,0,.807,1.77c.4.337.847-.156,1.273-.115.751.073.975-.327,1.234-.958a5.791,5.791,0,0,1,2.991-3.338c.58-.254,1.136-.56,1.7-.843,1.254-.625,1.254-.625,1.027-1.957-.29-1.7-.281-1.666,1.435-2.09.826-.2,1.152-.061,1.311.843.609,3.479,2.744,5.21,6.277,5.213,1.993,0,3.986-.009,5.979,0a4.735,4.735,0,0,1,4.483,2.594.744.744,0,0,0,.758.491,4.08,4.08,0,0,1,1.5.294c.415.148.6.019.713-.394,1.291-4.871-.807-9.595-5.473-11.422A54.545,54.545,0,0,0-318.673,64.017Zm-41.7-30.4c-2.135,0-3.855.035-5.574-.008a8.969,8.969,0,0,0-7.45,3.7,8.941,8.941,0,0,0-1.077,1.859c-1.278,2.69-.862,5.394-.24,8.125.1.423.266.476.62.31a3.79,3.79,0,0,1,2.07-.427c.383.044.489-.3.659-.53a5.561,5.561,0,0,1,2.209-1.817c2.18-1,4.39-1.932,6.529-3.009a3.533,3.533,0,0,1,3.537-.026c2.127,1.1,4.342,2.027,6.528,3.01.185.083.468.442.626-.065a5.785,5.785,0,0,1,2.925-3.5.472.472,0,0,0,.223-.735,4.192,4.192,0,0,1-.2-3.414.631.631,0,0,0-.187-.787,8.568,8.568,0,0,0-4.745-2.549C-356.211,33.466-358.5,33.73-360.373,33.619Zm57.2,29.661a20.829,20.829,0,0,1,2.933,1.061c.357.1.654.123.853-.242a8.995,8.995,0,0,0,1.452-3.455c.287-3.271.557-6.543.833-9.815.128-1.52-.336-2.049-1.891-2.006a15.416,15.416,0,0,1-9.191-2.611c-.707-.469-1.342-1.437-2.138-1.292-.771.14-1.416.962-2.121,1.48a4.626,4.626,0,0,0-1.982,4.454c.146,1.529.24,3.064.37,4.595q.223,2.61.473,5.218c.027.284,0,.608.448.652.847.082,1.69.207,2.591.322-.973-1.632-.973-1.632.694-2.466a.849.849,0,0,0,.165-.073c.63-.513,1.038-.328,1.355.374a2.559,2.559,0,0,0,2.595,1.439,2.586,2.586,0,0,0,2.575-1.482c.3-.657.664-.782,1.3-.367.439.289.9.546,1.345.837.357.233.336.4.168.7A6.732,6.732,0,0,1-303.169,63.28Zm-14.182-18.337a6.124,6.124,0,0,0-3.025-5.417,23.052,23.052,0,0,0-3.311-1.6,61.589,61.589,0,0,1-6.487-2.758,9.87,9.87,0,0,0-9.235-.654c-.763.333-1.48.773-2.239,1.116-1.236.559-2.5,1.065-3.735,1.617a1.384,1.384,0,0,0-.511,2.351c.443.494.924.954,1.406,1.409.3.287.37.474-.039.755-1.212.83-2.389,1.711-3.592,2.556a2.069,2.069,0,0,0-.845,2.879c.21.518.445.606.954.423a3.321,3.321,0,0,1,1.8-.435.965.965,0,0,0,1.038-.518,5.2,5.2,0,0,1,3.24-2.153,5.092,5.092,0,0,0,2.206-.975,18.839,18.839,0,0,1,2.553-1.675.674.674,0,0,0,.325-1.029,10.123,10.123,0,0,1-.777-3.417c-.027-.29-.163-.785.384-.7.83.124,1.757-.435,2.492.339.016.017.007.058.008.088a8.3,8.3,0,0,0,3.185,6.144c1.028.859,2.237,1.666,3.7,1.281a5.761,5.761,0,0,1,6.5,2.17c.164.208.276.492.616.446a4.344,4.344,0,0,1,2.248.459c.348.142.526.087.652-.32A7.74,7.74,0,0,0-317.351,44.943Zm-25.617,10.976c.1,1.414.136,2.736.289,4.045.425,3.651,2.667,6.407,6.306,6.857a25.466,25.466,0,0,0,6.142,0,6.748,6.748,0,0,0,5.155-3.37c1.438-2.339,1.127-4.918,1.468-7.486a4.83,4.83,0,0,0-.527.1,5.227,5.227,0,0,1-6.733-2.613,2.56,2.56,0,0,0-2.971-1.563.957.957,0,0,1-.271,0c-.589-.1-.872.12-1.11.712A6.157,6.157,0,0,1-339,56.189,5.817,5.817,0,0,1-342.968,55.919Zm22.24,47.442a1.317,1.317,0,0,0-.258-.085c-5.038,0-10.076,0-15.114-.015a.709.709,0,0,0-.782.539,11.481,11.481,0,0,1-2.5,4.025c-.161.166-.372.3-.132.6.3.367.53.79.814,1.17a19.85,19.85,0,0,1,3.79,9.793c.076.646-.053,1.55.315,1.864.388.332,1.263.061,1.918.125s.847-.112.882-.8a20.364,20.364,0,0,1,4.6-11.982A19.023,19.023,0,0,1-320.728,103.361Zm-35.795,6.061c.874,0,1.747.006,2.62,0a1.668,1.668,0,0,0,1.757-1.708,16.8,16.8,0,0,0-.958-7.338c-.207-.509-.359-.708-.945-.53a8.3,8.3,0,0,1-4.895.013c-.6-.18-.746.042-.943.545a16.975,16.975,0,0,0-.955,7.249,1.689,1.689,0,0,0,1.789,1.77C-358.209,109.427-357.366,109.422-356.523,109.422Zm3.433-42.522a13.07,13.07,0,0,1,5.493,1.472A22.715,22.715,0,0,1-343.92,70.8c.417.362.721,1.11,1.242,1.032.613-.092,1.109-.676,1.571-1.155a8.882,8.882,0,0,0,.6-.676c.732-.934.74-.956-.281-1.565-.32-.191-.483-.507-.762-.718a10.437,10.437,0,0,1-4.057-7.927c-.015-.185.1-.451-.243-.481a20.007,20.007,0,0,0-3.853-.007c-.332.035-.258.26-.274.456A10.776,10.776,0,0,1-353.089,66.9Zm-23.695,22.321c0,3.406-.006,6.811.012,10.216,0,.248-.234.637.228.749.439.106.54-.261.7-.544a14.483,14.483,0,0,0,1.774-5.547,84.673,84.673,0,0,0,.166-9.753c.016-2.689,0-5.367,1.106-7.9.169-.385.07-.5-.374-.527a3.477,3.477,0,0,0-3.648,3.449C-376.7,82.648-376.784,85.936-376.784,89.221Zm66.661,10.961c-.9,0-1.806.009-2.708-.005-.314,0-.6-.041-.7.362-.164.607-.349,1.209-.543,1.807a.547.547,0,0,0,.254.683,23.392,23.392,0,0,1,3.131,2.52.708.708,0,0,0,1.2-.025,11.185,11.185,0,0,1,1.76-1.494c1.731-1.3,1.72-1.3,1.1-3.35-.115-.381-.273-.528-.688-.512C-308.257,100.2-309.19,100.18-310.124,100.182Zm-15.948-52.993a3.354,3.354,0,0,0-2.883,3.055A2.954,2.954,0,0,0-326,53.337a2.965,2.965,0,0,0,2.841-3.127A3.265,3.265,0,0,0-326.071,47.189Zm-14.435,6.148a2.941,2.941,0,0,0,2.857-3.1,3.262,3.262,0,0,0-2.885-3.05,3.262,3.262,0,0,0-2.908,3.026A2.957,2.957,0,0,0-340.506,53.337ZM-333.6,69.9v0c-.993,0-1.987.03-2.978-.009-.859-.034-.783.77-1.122,1.185s.226.426.4.6a24.547,24.547,0,0,0,3.429,2.256.882.882,0,0,0,1.143,0,25.3,25.3,0,0,0,3.432-2.254c.182-.175.741-.194.419-.6-.334-.417-.252-1.222-1.112-1.2C-331.192,69.931-332.4,69.9-333.6,69.9Zm10.985,17.418c-.125-1.589-.272-3.115-.349-4.644-.03-.587-.291-.623-.746-.532a2.961,2.961,0,0,0-2.34,3.1,2.95,2.95,0,0,0,2.565,2.815C-322.857,88.143-322.379,88.094-322.615,87.321Zm25.026-.1c.107.273-.39.875.49.87a2.991,2.991,0,0,0,2.929-2.65,3.015,3.015,0,0,0-2.411-3.31c-.46-.073-.636.044-.664.538C-297.329,84.165-297.467,85.661-297.589,87.219Zm-39.565-41.813a3.835,3.835,0,0,1,1.6,1.858,1.8,1.8,0,0,0,2.425,1.554.964.964,0,0,1,.18,0c1.466,0,1.454,0,1.85-1.445.086-.314.074-.446-.26-.6a10.186,10.186,0,0,1-3.343-2.4.4.4,0,0,0-.6-.093C-335.885,44.656-336.479,45-337.154,45.406Zm19.8,7.91a3.032,3.032,0,0,0-2.271-2.994c-.433-.1-.64-.069-.67.473-.095,1.71-.237,3.418-.4,5.123-.042.437.106.5.48.5A3.113,3.113,0,0,0-317.355,53.315Zm-28.634,1.373c-.083-.989-.235-2.426-.31-3.866-.031-.6-.279-.6-.733-.484a3.024,3.024,0,0,0-2.206,2.766,3.37,3.37,0,0,0,1.693,3.048C-346.241,56.748-345.89,56.523-345.989,54.689Zm-26.091,0c-.081-.963-.228-2.4-.309-3.84-.031-.549-.209-.65-.71-.519a3.04,3.04,0,0,0-2.228,2.751,3.346,3.346,0,0,0,1.75,3.1C-372.3,56.73-371.982,56.518-372.081,54.687Zm36.057,21.73a.575.575,0,0,0-.4-.63c-1-.606-2.028-1.166-3-1.819-.586-.4-.887.032-1.248.286-.458.323.034.563.142.809.227.516.506,1.011.782,1.5,1.013,1.811,1.016,1.81,2.657.58.264-.2.522-.4.792-.592A1.27,1.27,0,0,1-336.024,76.417Zm28.942,30.98a8.04,8.04,0,0,0,.8.368c.875.287,1.876,1.178,2.544.811.639-.352.8-1.592,1.14-2.452.085-.213.379-.6-.017-.66-.545-.076-.958-.944-1.5-.439C-305.016,105.87-306.1,106.466-307.081,107.4Zm-5.969.009c-1.032-.78-1.976-1.429-2.835-2.174-.351-.3-.507-.3-.952-.159-1.121.347-.941.923-.539,1.693a12.438,12.438,0,0,1,.6,1.5c.133.364.293.543.726.354C-315.117,108.216-314.165,107.855-313.051,107.406Zm-5.79-46.433v-.025c.09,0,.181.008.27,0,.679-.069,1.616.377,1.962-.064.316-.4-.025-1.306-.038-1.989-.012-.572-.123-.788-.708-.4a4.035,4.035,0,0,1-2.457.771c-1.031-.079-1.269.365-1.281,1.245-.005.384-.008.533.453.482A16.454,16.454,0,0,1-318.84,60.974ZM-328.6,74.822c-.717.538-1.732.67-1.89,1.4-.1.451.852.793,1.352,1.159.027.02.1-.028.187-.053A8.011,8.011,0,0,1-328.6,74.822Zm3.435-4a19.309,19.309,0,0,1-.792-2.228c-.734.15-.873.467-.41,1.026A4.4,4.4,0,0,0-325.169,70.826Z" transform="translate(379.81 -30.433)" fill="#020202"/>
      <path id="Trazado_643038" data-name="Trazado 643038" d="M-351.437,147.073a7.451,7.451,0,0,1-.02-1.082c.068-.561-.264-.659-.637-.506a11.442,11.442,0,0,0-2.839,1.288,5.261,5.261,0,0,0-2.245,3.968c-.141,3.182-.337,6.374.622,9.5a16.074,16.074,0,0,0,4.718,7.211.7.7,0,0,1,.261.908,14.233,14.233,0,0,1-.983,2.884c-.54.832-1.758.735-2.65,1.127a14.778,14.778,0,0,0-4.622,2.875c-.391.387-.685.389-1-.077a18.768,18.768,0,0,1-1.923-3.24.877.877,0,0,1,.067-.841,21.3,21.3,0,0,0,2.535-10.58c-.05-2.923-.036-5.848,0-8.772a12.153,12.153,0,0,1,4.816-9.936,10.552,10.552,0,0,1,6.746-2.311,57.223,57.223,0,0,1,7.688.143c4.782.632,8.956,5.159,9.564,9.978a64.448,64.448,0,0,1,.142,9.483,23.315,23.315,0,0,0,2.607,12.1.7.7,0,0,1,.033.675,16.4,16.4,0,0,1-2.025,3.385c-.245.336-.473.389-.8.08a15.765,15.765,0,0,0-7-3.7c-.4-.107-.473-.418-.571-.732-.267-.861-.51-1.729-.808-2.578a.646.646,0,0,1,.222-.84,15.437,15.437,0,0,0,5.416-11.831c.035-2.14.013-4.281.071-6.42.017-.623-.2-.764-.762-.732-.6.034-1.205-.016-1.808-.029a4.057,4.057,0,0,0-2.769-1.393,3.62,3.62,0,0,0-.217-.674c-.225-.41.109-1.163-.526-1.245a3.68,3.68,0,0,0-1.546.382c-.713.253-1.187.671-.767,1.517l-2.734.02a4.258,4.258,0,0,0-.22-.668c-.215-.415.086-1.16-.515-1.25a3.985,3.985,0,0,0-1.534.384c-.071.021-.116.179-.175.181-1.063.028-.758.705-.628,1.3Z" transform="translate(368.988 -99.923)" fill="#f8d46f"/>
      <path id="Trazado_643039" data-name="Trazado 643039" d="M-341.36,237.092a15.127,15.127,0,0,1,6.224,3.676c.187.19.341.414.528.605a17.435,17.435,0,0,1,4.82,11.006c.058.619-.139.759-.723.744q-2.172-.057-4.345,0c-.539.013-.732-.108-.716-.689.044-1.535-.013-3.074.029-4.61.015-.568-.157-.7-.708-.7-2.207-.009-2.207-.03-2.207,2.17,0,.994-.044,1.991.015,2.982.039.666-.139.854-.832.85-5.855-.031-11.71-.018-17.565-.018-1.911,0-1.911,0-1.911-1.908,0-1.145-.015-2.291.008-3.435.009-.434-.065-.623-.577-.642-2.332-.083-2.331-.1-2.331,2.227,0,1.055-.024,2.11.01,3.164.016.484-.142.613-.613.6-1.539-.028-3.079-.031-4.617,0-.514.01-.6-.189-.559-.635a18.515,18.515,0,0,1,1.329-5.775,16.472,16.472,0,0,1,9.3-9.3c.944-.369.934-.356.956.665a12.8,12.8,0,0,0,.128,2.519,4.248,4.248,0,0,0,4.069,3.457q3.032.061,6.066,0a4.318,4.318,0,0,0,4.218-4.324C-341.331,238.895-341.36,238.055-341.36,237.092Z" transform="translate(371.922 -162.182)" fill="#fc816d"/>
      <path id="Trazado_643040" data-name="Trazado 643040" d="M-210.234,240.9a15.926,15.926,0,0,1,6.107,6.194,17.928,17.928,0,0,1,2.3,7.341c.084.8,0,1.19-.968,1.125a39.157,39.157,0,0,0-4.074-.008c-.62.022-.746-.194-.732-.762.037-1.537,0-3.075.022-4.612.007-.452-.094-.611-.59-.626-2.32-.069-2.319-.087-2.319,2.238,0,1.025-.038,2.052.014,3.074.03.589-.186.685-.718.683q-9.42-.026-18.84.005c-.678,0-.778-.231-.763-.823.04-1.506-.008-3.015.025-4.522.011-.514-.139-.648-.653-.656-2.259-.035-2.259-.053-2.259,2.208,0,1.055-.032,2.111.013,3.165.024.559-.213.629-.685.621-1.479-.025-2.96-.037-4.438,0-.581.016-.719-.166-.663-.716a19.386,19.386,0,0,1,1.739-6.59,17.691,17.691,0,0,1,5.82-6.851c.616-.436.941-.5,1.225.351.512,1.539,1.164,3.03,1.713,4.557.192.534.417.587.919.38,2.17-.9,4.366-1.732,6.533-2.637a2.026,2.026,0,0,1,1.713-.016c2.166.908,4.364,1.738,6.53,2.645.563.236.77.113.969-.427C-211.639,244.48-210.939,242.725-210.234,240.9Z" transform="translate(290.337 -164.612)" fill="#74b0f0"/>
      <path id="Trazado_643041" data-name="Trazado 643041" d="M-205.06,177.114c-.767,0-1.282-.025-1.794,0a7.732,7.732,0,0,1-7.922-7.331c-.151-2.917-.447-5.827-.689-8.739-.172-2.063.3-2.9,2.112-3.841a10.075,10.075,0,0,0,2.559-1.437.369.369,0,0,1,.614.046,7.974,7.974,0,0,0,6.721,3.022c2.2.022,4.407,0,6.611.007,1.146,0,1.7.525,1.619,1.668-.249,3.364-.488,6.731-.859,10.082a7.312,7.312,0,0,1-4.163,5.738C-201.908,177.259-203.6,177.021-205.06,177.114Zm-1.249-3.075c.753,0,1.507-.02,2.26,0a5.98,5.98,0,0,0,5.919-5.333c.089-.571.014-.913-.7-.833a9.289,9.289,0,0,1-1.625,0c-.423-.028-.524.105-.588.534a2.862,2.862,0,0,1-3,2.547c-1.085.012-2.17-.014-3.254.008-.775.016-1.812-.338-2.257.133-.481.509-.1,1.542-.149,2.344,0,.03,0,.061,0,.09-.058.392.1.522.5.512C-208.238,174.022-207.273,174.039-206.309,174.039Z" transform="translate(275.058 -110.246)" fill="#eeceb1"/>
      <path id="Trazado_643042" data-name="Trazado 643042" d="M-255.1,183.992c-3.138,0-6.276-.016-9.413.014a1.07,1.07,0,0,1-1.114-.659,15.808,15.808,0,0,1-1.849-7c-.084-3.161-.027-6.326-.037-9.489a.925.925,0,0,1,.347-.859q2.5-1.917,4.95-3.89a.661.661,0,0,1,1-.006c1.415,1.155,2.844,2.3,4.3,3.4.487.368.217.668.056,1a6.265,6.265,0,0,0,1.994,7.417,5.878,5.878,0,0,0,3.5,1.027c.44-.016.671.044.785.572a10.161,10.161,0,0,0,5.545,7.455c.277.136.417.273.311.622-.133.437-.44.405-.777.4Q-250.305,183.988-255.1,183.992Z" transform="translate(308.227 -114.229)" fill="#b2db7e"/>
      <path id="Trazado_643043" data-name="Trazado 643043" d="M-342.745,91.669a7.486,7.486,0,0,1-3.115-.449c-3.079-1.191-4.468-3.608-4.773-6.735-.272-2.788-.421-5.587-.664-8.378-.208-2.383.3-3.344,2.465-4.3,1.873-.824,3.768-1.6,5.642-2.418a1.156,1.156,0,0,1,1.023.01c1.876.818,3.772,1.589,5.642,2.42,2.158.958,2.648,1.9,2.439,4.309-.24,2.761-.437,5.526-.647,8.289C-335.05,88.593-338,91.894-342.745,91.669Zm.038-2.866a5.822,5.822,0,0,0,2.306-.667,5.675,5.675,0,0,0,2.786-2.211c.4-.567.718-1.04-.159-1.518a5.026,5.026,0,0,0-1.748-.838c-.44-.038-.521.71-.795,1.083a2.2,2.2,0,0,1-.4.368,3.081,3.081,0,0,1-4.638-.9c-.243-.547-.539-.71-1.084-.357-.493.32-1.026.565-1.512.914-.361.258-.3.426-.149.709C-346.927,87.52-344.954,88.379-342.706,88.8Z" transform="translate(361.66 -55.198)" fill="#edceb1"/>
      <path id="Trazado_643044" data-name="Trazado 643044" d="M-181.183,77.98a13.592,13.592,0,0,0-2.457-4.362,8.725,8.725,0,0,0-2.112-1.929c-.391-.261-.518-.436-.211-.9a11.5,11.5,0,0,0,1.723-5.628q.289-4.008.647-8.011a6.065,6.065,0,0,0-.544-3.68,3.974,3.974,0,0,0-3.856-2.17,15.007,15.007,0,0,1-6.769-1.319,15.715,15.715,0,0,1-2.975-2.151c-.319-.247-.271-.576-.271-.9,0-1.356-.017-2.712.008-4.068.009-.465-.13-.608-.61-.626-2.3-.085-2.3-.1-2.3,2.185a2.7,2.7,0,0,0,.007.631c.551,2.2-.915,3.3-2.388,4.413-.476.359-.634.168-.661-.308a9.554,9.554,0,0,0-2.116-4.9c-.248-.355-.253-.532.039-.819,2.595-2.552,5.562-4.285,9.331-4.264,2.167.012,4.375-.244,6.467.472A13.347,13.347,0,0,1-180.8,50.671a42.483,42.483,0,0,1,.158,7.217,4.466,4.466,0,0,1-.58,1.886,4.622,4.622,0,0,0-.007,4.179,5.325,5.325,0,0,1,.022,4.863A4.744,4.744,0,0,0-181.249,73,5.584,5.584,0,0,1-181.183,77.98Z" transform="translate(269.163 -35.983)" fill="#b07844"/>
      <path id="Trazado_643045" data-name="Trazado 643045" d="M-224.1,123.082a54.545,54.545,0,0,1,18.664,3.5c4.666,1.828,6.764,6.551,5.473,11.422-.109.413-.3.542-.713.394a4.08,4.08,0,0,0-1.5-.294.744.744,0,0,1-.758-.491,4.735,4.735,0,0,0-4.483-2.594c-1.993-.011-3.986,0-5.979,0-3.533,0-5.668-1.733-6.277-5.212-.158-.9-.485-1.047-1.311-.843-1.715.423-1.725.385-1.435,2.09.227,1.332.227,1.332-1.027,1.957-.567.283-1.123.589-1.7.843a5.79,5.79,0,0,0-2.991,3.338c-.26.631-.484,1.031-1.234.958-.426-.041-.874.452-1.273.115a2.457,2.457,0,0,1-.807-1.77,3.216,3.216,0,0,1,1.364-3.067c.948-.645,1.9-1.285,2.867-1.9a.663.663,0,0,0,.279-1.037c-.423-.764-.8-1.553-1.182-2.339-1.283-2.648.266-5.09,3.212-5.071C-224.644,123.084-224.372,123.082-224.1,123.082Z" transform="translate(285.237 -89.498)" fill="#646c77"/>
      <path id="Trazado_643046" data-name="Trazado 643046" d="M-352.455,39.205c1.871.11,4.162-.153,6.45.142A8.568,8.568,0,0,1-341.26,41.9a.631.631,0,0,1,.187.787,4.192,4.192,0,0,0,.2,3.414.472.472,0,0,1-.223.735,5.785,5.785,0,0,0-2.925,3.5c-.158.507-.442.148-.626.065-2.186-.983-4.4-1.913-6.528-3.01a3.533,3.533,0,0,0-3.537.026c-2.139,1.077-4.349,2.013-6.529,3.009a5.561,5.561,0,0,0-2.209,1.817c-.171.233-.277.574-.659.53a3.79,3.79,0,0,0-2.07.427c-.354.166-.523.114-.619-.31-.622-2.731-1.038-5.436.24-8.125a8.942,8.942,0,0,1,1.077-1.859,8.969,8.969,0,0,1,7.45-3.7C-356.31,39.24-354.59,39.205-352.455,39.205Z" transform="translate(371.892 -36.019)" fill="#b07844"/>
      <path id="Trazado_643047" data-name="Trazado 643047" d="M-336.647,160.443l3.175-.037c.227.9.485,1.8.676,2.71.469,2.227.457,2.229,2.65,1.662.058-.015.119-.022.178-.033.408-.074.5-.258.388-.687-.31-1.19-.552-2.4-.821-3.6l2.733-.02c.221.871.474,1.735.658,2.614.493,2.353.476,2.337,2.769,1.717.526-.142.55-.365.437-.814-.293-1.16-.54-2.331-.806-3.5a4.057,4.057,0,0,1,2.769,1.393c-.544.064-.328.49-.336.768-.074,2.648.141,5.31-.2,7.942a11.059,11.059,0,0,1-5.743,8.852c-2.416,1.332-4.574.822-6.654-.668a11.56,11.56,0,0,1-4.581-7.5,27.8,27.8,0,0,1-.185-6.487,2.615,2.615,0,0,1,1.989-2.692c.853-.152.979-.567.875-1.266A1.61,1.61,0,0,1-336.647,160.443Zm5.736,16.643a5.954,5.954,0,0,0,5.262-3.069c.419-.65.343-.979-.377-1.223a4.44,4.44,0,0,1-.972-.473c-.537-.345-.838-.363-1.256.285a3.059,3.059,0,0,1-4.957.32c-.725-.982-1.246-.892-2.053-.355a4.789,4.789,0,0,1-.806.4c-.336.141-.451.3-.243.667A5.982,5.982,0,0,0-330.911,177.086Z" transform="translate(354.197 -113.293)" fill="#edcdb1"/>
      <path id="Trazado_643048" data-name="Trazado 643048" d="M-188.216,88.736a6.732,6.732,0,0,0,2.821-2.677c.168-.3.188-.467-.168-.7-.443-.29-.905-.548-1.345-.837-.631-.415-1-.29-1.3.367a2.586,2.586,0,0,1-2.575,1.482,2.559,2.559,0,0,1-2.595-1.439c-.317-.7-.725-.887-1.355-.374a.85.85,0,0,1-.165.073c-1.667.834-1.667.835-.694,2.466-.9-.115-1.744-.24-2.591-.322-.45-.044-.421-.368-.448-.652q-.247-2.608-.473-5.218c-.13-1.531-.224-3.066-.37-4.595a4.626,4.626,0,0,1,1.982-4.454c.7-.517,1.35-1.339,2.121-1.48.8-.145,1.43.823,2.138,1.292a15.416,15.416,0,0,0,9.191,2.611c1.555-.044,2.019.486,1.891,2.006-.275,3.272-.546,6.544-.833,9.815a9,9,0,0,1-1.452,3.455c-.2.365-.5.337-.853.242A20.833,20.833,0,0,0-188.216,88.736Z" transform="translate(264.858 -55.888)" fill="#edceb1"/>
      <path id="Trazado_643049" data-name="Trazado 643049" d="M-263.561,50.612a7.739,7.739,0,0,1-.494,2.378c-.126.407-.3.463-.652.32a4.344,4.344,0,0,0-2.248-.459c-.34.046-.452-.238-.616-.446a5.76,5.76,0,0,0-6.5-2.17c-1.464.385-2.673-.422-3.7-1.281a8.3,8.3,0,0,1-3.185-6.144c0-.03.008-.071-.008-.088-.735-.774-1.662-.215-2.492-.339-.547-.082-.411.413-.384.7a10.121,10.121,0,0,0,.777,3.417.674.674,0,0,1-.325,1.029,18.842,18.842,0,0,0-2.553,1.675,5.091,5.091,0,0,1-2.206.975,5.2,5.2,0,0,0-3.24,2.153.965.965,0,0,1-1.038.518,3.321,3.321,0,0,0-1.8.435c-.509.182-.744.094-.954-.423a2.069,2.069,0,0,1,.845-2.879c1.2-.845,2.38-1.725,3.592-2.556.409-.281.343-.468.039-.755-.482-.455-.963-.916-1.406-1.409a1.384,1.384,0,0,1,.511-2.351c1.239-.552,2.5-1.058,3.735-1.617.759-.343,1.476-.783,2.239-1.116a9.87,9.87,0,0,1,9.235.654,61.589,61.589,0,0,0,6.487,2.758,23.053,23.053,0,0,1,3.311,1.6A6.124,6.124,0,0,1-263.561,50.612Z" transform="translate(326.02 -36.102)" fill="#646c77"/>
      <path id="Trazado_643050" data-name="Trazado 643050" d="M-278.172,93.583a5.817,5.817,0,0,0,3.971.27,6.157,6.157,0,0,0,3.776-3.588c.238-.592.522-.808,1.11-.712a.957.957,0,0,0,.271,0,2.56,2.56,0,0,1,2.971,1.563,5.227,5.227,0,0,0,6.733,2.613,4.828,4.828,0,0,1,.527-.1c-.341,2.567-.03,5.147-1.468,7.486a6.748,6.748,0,0,1-5.155,3.37,25.466,25.466,0,0,1-6.142,0c-3.64-.45-5.882-3.206-6.306-6.857C-278.036,96.319-278.074,95-278.172,93.583Zm9.576,8.106c.785.157,1.388-.34,2.059-.539a5.735,5.735,0,0,0,3.26-2.572c.28-.443.547-.793-.209-1.164a8.636,8.636,0,0,1-1.2-.718c-.54-.387-.842-.283-1.169.316a2.994,2.994,0,0,1-3.931,1.318,3.365,3.365,0,0,1-1.5-1.472c-.671-1.068-1.24.064-1.746.285-.331.144-1.38.254-.823,1.23C-272.685,100.428-270.762,101.252-268.6,101.689Z" transform="translate(315.014 -68.097)" fill="#edcdb1"/>
      <path id="Trazado_643051" data-name="Trazado 643051" d="M-323.233,231.387c-.843,0-1.687.005-2.53,0a1.689,1.689,0,0,1-1.789-1.77,16.976,16.976,0,0,1,.955-7.249c.2-.5.348-.725.943-.545a8.3,8.3,0,0,0,4.895-.013c.587-.178.739.021.945.53a16.8,16.8,0,0,1,.958,7.338,1.669,1.669,0,0,1-1.757,1.708C-321.486,231.393-322.36,231.387-323.233,231.387Z" transform="translate(346.521 -152.398)" fill="#eeceb1"/>
      <path id="Trazado_643052" data-name="Trazado 643052" d="M-371.545,169.207c0-3.285.086-6.573-.033-9.853a3.477,3.477,0,0,1,3.648-3.449c.444.029.543.142.374.527-1.109,2.53-1.09,5.207-1.106,7.9a84.666,84.666,0,0,1-.166,9.753,14.484,14.484,0,0,1-1.774,5.547c-.163.283-.264.65-.7.544-.463-.112-.227-.5-.228-.749C-371.551,176.018-371.545,172.613-371.545,169.207Z" transform="translate(374.571 -110.419)" fill="#74b0f0"/>
      <path id="Trazado_643053" data-name="Trazado 643053" d="M-194.585,222.826c.933,0,1.867.024,2.8-.013.416-.016.573.13.688.512.622,2.055.633,2.053-1.1,3.35a11.186,11.186,0,0,0-1.76,1.494.708.708,0,0,1-1.2.025,23.392,23.392,0,0,0-3.131-2.52.547.547,0,0,1-.254-.683c.194-.6.38-1.2.543-1.807.109-.4.391-.366.7-.362C-196.391,222.836-195.488,222.827-194.585,222.826Z" transform="translate(264.272 -153.078)" fill="#edcdb1"/>
      <path id="Trazado_643054" data-name="Trazado 643054" d="M-236.628,76.659a3.265,3.265,0,0,1,2.915,3.021,2.965,2.965,0,0,1-2.841,3.127,2.954,2.954,0,0,1-2.956-3.093A3.354,3.354,0,0,1-236.628,76.659Z" transform="translate(290.367 -59.903)" fill="#67d1ee"/>
      <path id="Trazado_643055" data-name="Trazado 643055" d="M-276.544,82.807a2.957,2.957,0,0,1-2.936-3.123,3.262,3.262,0,0,1,2.908-3.026,3.262,3.262,0,0,1,2.885,3.05A2.941,2.941,0,0,1-276.544,82.807Z" transform="translate(315.848 -59.903)" fill="#67d1ee"/>
      <path id="Trazado_643056" data-name="Trazado 643056" d="M-259.73,139.3c1.2,0,2.408.028,3.611-.009.861-.027.778.778,1.112,1.2.322.4-.238.42-.419.6a25.3,25.3,0,0,1-3.432,2.254.882.882,0,0,1-1.143,0,24.546,24.546,0,0,1-3.429-2.256c-.175-.17-.745-.175-.4-.6s.262-1.219,1.122-1.185c.991.04,1.985.009,2.979.009Z" transform="translate(305.94 -99.834)" fill="#edcdb1"/>
      <path id="Trazado_643057" data-name="Trazado 643057" d="M-228.067,178.2c.236.773-.242.821-.87.742a2.95,2.95,0,0,1-2.565-2.815,2.961,2.961,0,0,1,2.34-3.1c.455-.091.717-.055.746.532C-228.34,175.089-228.192,176.615-228.067,178.2Z" transform="translate(285.263 -121.316)" fill="#e9caae"/>
      <path id="Trazado_643058" data-name="Trazado 643058" d="M-153.061,178.1c.122-1.558.26-3.054.344-4.552.028-.494.2-.611.664-.538a3.015,3.015,0,0,1,2.411,3.31,2.991,2.991,0,0,1-2.929,2.65C-153.451,178.98-152.954,178.377-153.061,178.1Z" transform="translate(235.282 -121.318)" fill="#e9caae"/>
      <path id="Trazado_643059" data-name="Trazado 643059" d="M-262.132,69.591c.675-.408,1.269-.75,1.843-1.122a.4.4,0,0,1,.6.093,10.187,10.187,0,0,0,3.343,2.4c.333.149.345.282.26.6-.4,1.442-.384,1.445-1.85,1.445a.964.964,0,0,0-.18,0,1.8,1.8,0,0,1-2.425-1.554A3.835,3.835,0,0,0-262.132,69.591Z" transform="translate(304.788 -54.618)" fill="#edcdb1"/>
      <path id="Trazado_643060" data-name="Trazado 643060" d="M-213.4,88.215a3.113,3.113,0,0,1-2.863,3.106c-.374-.006-.522-.067-.48-.5.165-1.7.307-3.413.4-5.123.03-.543.237-.575.67-.473A3.032,3.032,0,0,1-213.4,88.215Z" transform="translate(275.858 -65.332)" fill="#e9caae"/>
      <path id="Trazado_643061" data-name="Trazado 643061" d="M-292.233,89.59c.1,1.835-.252,2.06-1.555,1.463A3.37,3.37,0,0,1-295.481,88a3.024,3.024,0,0,1,2.206-2.766c.453-.12.7-.113.733.484C-292.468,87.164-292.316,88.6-292.233,89.59Z" transform="translate(326.054 -65.334)" fill="#e9caae"/>
      <path id="Trazado_643062" data-name="Trazado 643062" d="M-364.213,89.587c.1,1.831-.217,2.043-1.5,1.494a3.346,3.346,0,0,1-1.75-3.1,3.04,3.04,0,0,1,2.228-2.751c.5-.131.679-.029.71.519C-364.441,87.188-364.294,88.624-364.213,89.587Z" transform="translate(371.942 -65.333)" fill="#e9caae"/>
      <path id="Trazado_643063" data-name="Trazado 643063" d="M-267.516,152.7a1.269,1.269,0,0,0-.269.137c-.27.188-.528.395-.792.592-1.641,1.23-1.644,1.232-2.657-.58-.276-.493-.555-.988-.782-1.5-.108-.246-.6-.486-.142-.809.361-.255.662-.682,1.248-.286.967.652,2,1.213,3,1.819A.575.575,0,0,1-267.516,152.7Z" transform="translate(311.303 -106.718)" fill="#b2db7e"/>
      <path id="Trazado_643064" data-name="Trazado 643064" d="M-179.169,238.312c.979-.931,2.065-1.527,2.967-2.371.54-.506.953.362,1.5.439.4.055.1.447.017.66-.344.859-.5,2.1-1.14,2.452-.668.368-1.669-.524-2.544-.811A8.038,8.038,0,0,1-179.169,238.312Z" transform="translate(251.898 -161.347)" fill="#5a97e4"/>
      <path id="Trazado_643065" data-name="Trazado 643065" d="M-203.788,238.519c-1.114.448-2.067.809-3,1.217-.432.189-.592.01-.726-.354a12.442,12.442,0,0,0-.6-1.5c-.4-.77-.582-1.346.539-1.693.445-.138.6-.145.952.159C-205.764,237.091-204.82,237.739-203.788,238.519Z" transform="translate(270.548 -161.546)" fill="#5a97e4"/>
      <path id="Trazado_643066" data-name="Trazado 643066" d="M-215.572,109.983a16.453,16.453,0,0,0-1.8.016c-.461.051-.458-.1-.453-.482.012-.88.25-1.323,1.281-1.245a4.035,4.035,0,0,0,2.457-.771c.585-.384.7-.169.708.4.014.683.355,1.585.038,1.989-.346.44-1.283,0-1.962.064-.09.009-.18,0-.27,0Z" transform="translate(276.542 -79.442)" fill="#b07844"/>
      <path id="Trazado_643067" data-name="Trazado 643067" d="M-241.881,152.893a8.01,8.01,0,0,0-.351,2.508c-.084.025-.16.072-.187.053-.5-.366-1.45-.708-1.352-1.159C-243.613,153.563-242.6,153.431-241.881,152.893Z" transform="translate(293.088 -108.503)" fill="#b2db7e"/>
      <path id="Trazado_643068" data-name="Trazado 643068" d="M-231.652,137.95a4.4,4.4,0,0,1-1.2-1.2c-.463-.559-.324-.875.41-1.026A19.313,19.313,0,0,0-231.652,137.95Z" transform="translate(286.294 -97.556)" fill="#f5f7f8"/>
      <path id="Trazado_643069" data-name="Trazado 643069" d="M-303.839,157.16c.266,1.166.513,2.338.806,3.5.113.449.089.672-.437.814-2.292.619-2.275.636-2.769-1.717-.184-.879-.437-1.743-.658-2.614-.42-.846.054-1.263.767-1.517a3.68,3.68,0,0,1,1.546-.382c.636.082.3.834.526,1.245A3.62,3.62,0,0,1-303.839,157.16Z" transform="translate(333.427 -109.994)" fill="#050404"/>
      <path id="Trazado_643070" data-name="Trazado 643070" d="M-319.813,157.16c.269,1.2.51,2.409.821,3.6.112.429.02.614-.388.687-.059.011-.12.018-.178.033-2.193.567-2.181.564-2.65-1.662-.192-.911-.449-1.807-.676-2.71-.13-.595-.436-1.272.628-1.3.059,0,.1-.16.175-.181a3.984,3.984,0,0,1,1.534-.384c.6.09.3.834.515,1.25A4.257,4.257,0,0,1-319.813,157.16Z" transform="translate(343.61 -109.994)" fill="#050404"/>
      <path id="Trazado_643071" data-name="Trazado 643071" d="M-196.29,195.562c-.964,0-1.929-.017-2.893.008-.4.011-.56-.12-.5-.512,0-.029,0-.06,0-.09.046-.8-.332-1.835.149-2.344.445-.471,1.481-.117,2.257-.133,1.084-.022,2.169,0,3.254-.008a2.862,2.862,0,0,0,3-2.547c.065-.429.166-.562.588-.534a9.29,9.29,0,0,0,1.625,0c.713-.08.788.262.7.833a5.98,5.98,0,0,1-5.919,5.333C-194.783,195.542-195.537,195.562-196.29,195.562Z" transform="translate(265.039 -131.769)" fill="#020202"/>
      <path id="Trazado_643072" data-name="Trazado 643072" d="M-337.213,113.932c-2.248-.424-4.221-1.282-5.389-3.42-.155-.284-.212-.451.149-.709.485-.349,1.019-.594,1.512-.914.545-.353.841-.19,1.084.357a3.081,3.081,0,0,0,4.638.9,2.2,2.2,0,0,0,.4-.368c.274-.374.355-1.122.795-1.083a5.026,5.026,0,0,1,1.748.838c.878.478.564.951.159,1.518a5.675,5.675,0,0,1-2.786,2.211A5.823,5.823,0,0,1-337.213,113.932Z" transform="translate(356.166 -80.327)" fill="#050404"/>
      <path id="Trazado_643073" data-name="Trazado 643073" d="M-325.252,197.625a5.98,5.98,0,0,1-5.4-3.443c-.208-.365-.093-.526.243-.667a4.788,4.788,0,0,0,.806-.4c.807-.537,1.328-.626,2.053.355a3.059,3.059,0,0,0,4.957-.32c.417-.648.719-.631,1.256-.285a4.442,4.442,0,0,0,.972.473c.72.243.8.572.377,1.223A5.951,5.951,0,0,1-325.252,197.625Z" transform="translate(348.538 -133.833)" fill="#050404"/>
      <path id="Trazado_643074" data-name="Trazado 643074" d="M-261.29,113.818c-2.165-.437-4.088-1.261-5.261-3.315-.557-.975.492-1.086.823-1.23.506-.221,1.076-1.352,1.746-.285a3.365,3.365,0,0,0,1.5,1.472,3,3,0,0,0,3.931-1.318c.327-.6.63-.7,1.169-.316a8.636,8.636,0,0,0,1.2.718c.756.371.489.72.209,1.164a5.735,5.735,0,0,1-3.26,2.572C-259.9,113.478-260.505,113.974-261.29,113.818Z" transform="translate(307.708 -80.226)" fill="#050404"/>
    </g>
  </g>
</svg>
