<svg xmlns="http://www.w3.org/2000/svg" xmlns:xlink="http://www.w3.org/1999/xlink" width="285.89" height="285" viewBox="0 0 285.89 285">
  <defs>
    <clipPath id="clip-path">
      <path id="Trazado_644640" data-name="Trazado 644640" d="M413.968,345.809l-3.336-8.247L392.8,344.774a10.03,10.03,0,0,1-12.309-4.086,10.026,10.026,0,0,1,6.1-11.131l10.333-4.179,7.545-2.921-1.3-3.363-1.953-5.045-1.3-3.363-.124.05v0l-17.833,7.212A18.917,18.917,0,0,0,371.5,342.574c.183.451.4.875.615,1.3a19.125,19.125,0,0,0,.688,2.058,18.94,18.94,0,0,0,24.63,10.447l17.834-7.212-1.352-3.342Z" transform="translate(-370.114 -310.686)" fill="none"/>
    </clipPath>
    <clipPath id="clip-path-2">
      <circle id="Elipse_7926" data-name="Elipse 7926" cx="31.756" cy="31.756" r="31.756" fill="none"/>
    </clipPath>
    <clipPath id="clip-path-3">
      <path id="Trazado_644714" data-name="Trazado 644714" d="M352.821,116.78c-7.576,10.145-25.81,13.837-25.81,13.837l2.606,11.9c12.106-2,30.872,5.265,30.872,5.265Z" transform="translate(-327.011 -116.78)" fill="none"/>
    </clipPath>
    <clipPath id="clip-path-4">
      <path id="Trazado_644729" data-name="Trazado 644729" d="M277.466,263.466c-8.652-3.043-36.566-.046-55.988,2.557l-.323-5.447-20.653,8-6.7,44.884,65.649-12.465-1.509,62.852L288,364.1s3.877-63.562,4.99-73.483S290.888,268.187,277.466,263.466Z" transform="translate(-193.803 -260.577)" fill="#006475"/>
    </clipPath>
  </defs>
  <g id="Grupo_986866" data-name="Grupo 986866" transform="translate(-31.06 -32.933)">
    <g id="Grupo_986807" data-name="Grupo 986807" transform="translate(43.8 39.847)">
      <g id="Grupo_986806" data-name="Grupo 986806" transform="translate(0 0)">
        <circle id="Elipse_7919" data-name="Elipse 7919" cx="19.874" cy="19.874" r="19.874" transform="translate(0 32.592) rotate(-55.082)" fill="#00c1ab"/>
        <g id="Grupo_986805" data-name="Grupo 986805" transform="translate(21.279 17.078)">
          <path id="Trazado_644631" data-name="Trazado 644631" d="M83.431,90.1,87.7,91.278,90.642,80.59l2.978.82,1.3-3.491-3.3-.907.561-2.038c.233-.844.494-1.13,1.31-.906l2.31.636L96.83,70.99l-2.955-.813c-3.176-.875-4.993.13-5.731,2.807l-.785,2.853-2.22-.611-1,3.623,2.22.611Z" transform="translate(-83.431 -69.869)" fill="#fff"/>
        </g>
      </g>
    </g>
    <g id="Grupo_986814" data-name="Grupo 986814" transform="translate(251.301 213.355)">
      <g id="Grupo_986813" data-name="Grupo 986813">
        <g id="Grupo_986808" data-name="Grupo 986808" transform="translate(1.302 3.411)">
          <path id="Trazado_644632" data-name="Trazado 644632" d="M385.045,358.617a18.911,18.911,0,0,1-1.09-35.468l17.833-7.212,3.336,8.247L387.29,331.4a10.021,10.021,0,1,0,7.513,18.581l17.833-7.212,3.336,8.247-17.834,7.212A18.838,18.838,0,0,1,385.045,358.617Z" transform="translate(-372.119 -315.937)" fill="#fd625f"/>
        </g>
        <g id="Grupo_986809" data-name="Grupo 986809" transform="translate(1.302 3.411)" opacity="0.3">
          <path id="Trazado_644633" data-name="Trazado 644633" d="M385.045,358.617a18.911,18.911,0,0,1-1.09-35.468l17.833-7.212,3.336,8.247L387.29,331.4a10.021,10.021,0,1,0,7.513,18.581l17.833-7.212,3.336,8.247-17.834,7.212A18.838,18.838,0,0,1,385.045,358.617Z" transform="translate(-372.119 -315.937)"/>
        </g>
        <rect id="Rectángulo_308839" data-name="Rectángulo 308839" width="8.091" height="9.016" transform="matrix(0.933, -0.361, 0.361, 0.933, 23.551, 6.284)" fill="#c1bfbf"/>
        <path id="Trazado_644634" data-name="Trazado 644634" d="M422.8,360.309l3.3,8.308,7.631-3.134-3.336-8.247Z" transform="translate(-388.576 -326.999)" fill="#c1bfbf"/>
        <g id="Grupo_986810" data-name="Grupo 986810" transform="translate(0 0.048)">
          <path id="Trazado_644635" data-name="Trazado 644635" d="M383.041,353.44a18.911,18.911,0,0,1-1.089-35.468l17.833-7.212,3.336,8.247-17.834,7.212A10.021,10.021,0,1,0,392.8,344.8l17.833-7.212,3.336,8.247-17.834,7.212A18.84,18.84,0,0,1,383.041,353.44Z" transform="translate(-370.114 -310.76)" fill="#fd625f"/>
        </g>
        <path id="Trazado_644636" data-name="Trazado 644636" d="M404.432,313.718l3.212,8.3,7.545-2.921-3.255-8.408Z" transform="translate(-382.14 -310.686)" fill="#e0e0e0"/>
        <path id="Trazado_644637" data-name="Trazado 644637" d="M420.8,355.132l3.3,8.308,7.631-3.133-3.336-8.247Z" transform="translate(-387.874 -325.185)" fill="#e0e0e0"/>
        <g id="Grupo_986812" data-name="Grupo 986812" transform="translate(0 0)">
          <g id="Grupo_986811" data-name="Grupo 986811" clip-path="url(#clip-path)">
            <path id="Trazado_644638" data-name="Trazado 644638" d="M395.728,317.415l-1.258,38.526a12.538,12.538,0,0,0,5.064.144l.626-40.246Z" transform="translate(-378.649 -312.492)" fill="#fff" opacity="0.3"/>
            <path id="Trazado_644639" data-name="Trazado 644639" d="M391.174,319.827l-1.312,37.058-2.759-1.23,2-35.026Z" transform="translate(-376.067 -313.889)" fill="#fff" opacity="0.3"/>
          </g>
        </g>
      </g>
      <path id="Trazado_644641" data-name="Trazado 644641" d="M427.289,343.779l8.409-6.391a.135.135,0,0,1,.213.075l.571,2.356a.134.134,0,0,0,.157.1l6.538-1.276a.135.135,0,0,1,.1.248l-8.735,5.34a.135.135,0,0,1-.2-.075l-.6-1.9a.136.136,0,0,0-.168-.089l-6.166,1.851A.135.135,0,0,1,427.289,343.779Z" transform="translate(-390.131 -320.033)" fill="#ffd76a"/>
      <path id="Trazado_644642" data-name="Trazado 644642" d="M431.292,327.326l12-9.117a.193.193,0,0,1,.3.108l.814,3.361a.193.193,0,0,0,.224.144L453.958,320a.193.193,0,0,1,.137.354l-12.461,7.617a.193.193,0,0,1-.285-.107l-.849-2.715a.193.193,0,0,0-.24-.127l-8.8,2.641A.193.193,0,0,1,431.292,327.326Z" transform="translate(-391.525 -313.308)" fill="#ffd76a"/>
    </g>
    <g id="Grupo_986815" data-name="Grupo 986815" transform="translate(272.336 50.69)">
      <path id="Trazado_644643" data-name="Trazado 644643" d="M419.506,65.88a4.481,4.481,0,1,1-3.207-5.465A4.48,4.48,0,0,1,419.506,65.88Z" transform="translate(-405.367 -60.269)" fill="#eaf4f2"/>
      <path id="Trazado_644644" data-name="Trazado 644644" d="M402.5,77.468s2.358-7.071,8.867-5.376c6.777,1.765,5.267,9.057,5.267,9.057Z" transform="translate(-402.496 -64.32)" fill="#eaf4f2"/>
    </g>
    <g id="Grupo_986818" data-name="Grupo 986818" transform="translate(43.541 156.146)">
      <path id="Trazado_644645" data-name="Trazado 644645" d="M50.332,226.485l6.843,31.656a3.818,3.818,0,0,0,3.662,3.1l46.686.107c1.679,0,4.5-3.069,4.1-4.8l-8.806-29.856a2.589,2.589,0,0,0-2.485-2.064l-47.115-1.977C50.319,222.652,50.13,225.548,50.332,226.485Z" transform="translate(-50.274 -222.628)" fill="#bed3cf"/>
      <path id="Trazado_644646" data-name="Trazado 644646" d="M52.666,224.47l6.842,31.656a3.818,3.818,0,0,0,3.663,3.1l46.685.107a2.71,2.71,0,0,0,2.52-3.394l-7.225-31.259a2.588,2.588,0,0,0-2.484-2.064l-48.624.024A1.479,1.479,0,0,0,52.666,224.47Z" transform="translate(-51.1 -222.615)" fill="#eaf4f2"/>
      <path id="Trazado_644647" data-name="Trazado 644647" d="M53.667,229.043l-.96-4.554a1.48,1.48,0,0,1,1.373-1.85l48.582-.024a2.589,2.589,0,0,1,2.489,2.086l.919,3.9Z" transform="translate(-51.113 -222.615)" fill="#2e4e5f"/>
      <path id="Trazado_644648" data-name="Trazado 644648" d="M61.711,226.874a1.368,1.368,0,1,1-1.368-1.368A1.368,1.368,0,0,1,61.711,226.874Z" transform="translate(-53.323 -223.628)" fill="#fd625f"/>
      <path id="Trazado_644649" data-name="Trazado 644649" d="M67.238,226.874a1.368,1.368,0,1,1-1.368-1.368A1.368,1.368,0,0,1,67.238,226.874Z" transform="translate(-55.26 -223.628)" fill="#ffd76a"/>
      <path id="Trazado_644650" data-name="Trazado 644650" d="M72.765,226.874a1.368,1.368,0,1,1-1.368-1.368A1.368,1.368,0,0,1,72.765,226.874Z" transform="translate(-57.197 -223.628)" fill="#00c1ab"/>
      <path id="Trazado_644651" data-name="Trazado 644651" d="M64.5,243.417H83.824" transform="translate(-55.26 -229.905)" fill="none" stroke="#2e4e5f" stroke-miterlimit="10" stroke-width="0.05"/>
      <path id="Trazado_644652" data-name="Trazado 644652" d="M68.891,258.171H88.214" transform="translate(-56.798 -235.075)" fill="none" stroke="#2e4e5f" stroke-miterlimit="10" stroke-width="0.05"/>
      <path id="Trazado_644653" data-name="Trazado 644653" d="M71.431,266.234H90.753" transform="translate(-57.688 -237.9)" fill="none" stroke="#2e4e5f" stroke-miterlimit="10" stroke-width="0.05"/>
      <path id="Trazado_644654" data-name="Trazado 644654" d="M66.608,250.877H85.93" transform="translate(-55.998 -232.519)" fill="none" stroke="#2e4e5f" stroke-miterlimit="10" stroke-width="0.05"/>
      <g id="Grupo_986817" data-name="Grupo 986817" transform="translate(34.821 12.091)">
        <path id="Trazado_644655" data-name="Trazado 644655" d="M120.655,259.138H110.521a5.111,5.111,0,0,1-4.77-4.1l-1.8-9.7a3.316,3.316,0,0,1,3.343-4.1h10.379a5.013,5.013,0,0,1,4.767,4.1l1.564,9.7A3.368,3.368,0,0,1,120.655,259.138Z" transform="translate(-103.879 -241.229)" fill="none" stroke="#73ac9d" stroke-miterlimit="10" stroke-width="1"/>
        <g id="Grupo_986816" data-name="Grupo 986816" transform="translate(1.652 5.907)">
          <path id="Trazado_644656" data-name="Trazado 644656" d="M123.99,251.76a8.078,8.078,0,0,0-5.426-1.382c-1.674.236-2.467,1.1-3.2,2.686-.429.939-.84,3.209-1.822,3.553-.82.287-2.268-1.078-3.344-1.425a3.366,3.366,0,0,0-3.78,1.64l.475,2.561a3.65,3.65,0,0,0,3.406,2.931h12.351a2.411,2.411,0,0,0,2.379-3Z" transform="translate(-106.422 -250.323)" fill="#73ac9d"/>
        </g>
        <path id="Trazado_644657" data-name="Trazado 644657" d="M112.5,247.379a1.846,1.846,0,0,1-1.851,2.272,2.837,2.837,0,0,1-2.665-2.272,1.839,1.839,0,0,1,1.851-2.272A2.824,2.824,0,0,1,112.5,247.379Z" transform="translate(-105.303 -242.588)" fill="#73ac9d"/>
      </g>
    </g>
    <g id="Grupo_986819" data-name="Grupo 986819" transform="translate(51.595 205.586)">
      <path id="Trazado_644658" data-name="Trazado 644658" d="M62.673,299.874l8.392,30.338h9.771l1.714-1.148L71.868,298.891l-7.481-.165Z" transform="translate(-62.673 -298.726)" fill="#fd625f"/>
      <path id="Trazado_644659" data-name="Trazado 644659" d="M85.417,313.723,91.568,335h8.894l2.556-1.443-9.2-20.021-6.763-1.443Z" transform="translate(-70.643 -303.408)" fill="#fd625f"/>
      <path id="Trazado_644660" data-name="Trazado 644660" d="M107.126,329.334l3.478,11.4h9.771l2.038-1.456-4.7-9.946-8.546-1.456Z" transform="translate(-78.251 -308.941)" fill="#fd625f"/>
      <path id="Trazado_644661" data-name="Trazado 644661" d="M62.673,299.874l8.392,30.338h9.771l1.714-1.148L71.868,298.891l-7.481-.165Z" transform="translate(-62.673 -298.726)" opacity="0.3"/>
      <path id="Trazado_644662" data-name="Trazado 644662" d="M85.417,313.723,91.568,335h8.894l2.556-1.443-9.2-20.021-6.763-1.443Z" transform="translate(-70.643 -303.408)" opacity="0.3"/>
      <path id="Trazado_644663" data-name="Trazado 644663" d="M107.126,329.334l3.478,11.4h9.771l2.038-1.456-4.7-9.946-8.546-1.456Z" transform="translate(-78.251 -308.941)" opacity="0.3"/>
      <path id="Trazado_644664" data-name="Trazado 644664" d="M65.312,298.726,73.7,329.064h9.771l-8.844-30.338Z" transform="translate(-63.598 -298.726)" fill="#fd625f"/>
      <path id="Trazado_644665" data-name="Trazado 644665" d="M87.944,312.088l6.189,21.464H103.9l-6.641-21.464Z" transform="translate(-71.529 -303.408)" fill="#fd625f"/>
      <path id="Trazado_644666" data-name="Trazado 644666" d="M110.265,327.878l3.478,11.4h9.771l-2.665-11.4Z" transform="translate(-79.35 -308.941)" fill="#fd625f"/>
    </g>
    <g id="Grupo_986820" data-name="Grupo 986820" transform="translate(55.931 112.362)">
      <path id="Trazado_644667" data-name="Trazado 644667" d="M69.349,156.947l6.417,22.225,33.948-.754,1.074-1.2-7.044-20.61-33.321-.86Z" transform="translate(-69.349 -155.398)" fill="#ffd76a"/>
      <path id="Trazado_644668" data-name="Trazado 644668" d="M69.349,156.947l6.417,22.225,33.948-.754,1.074-1.2-7.044-20.61-33.321-.86Z" transform="translate(-69.349 -155.398)" opacity="0.3"/>
      <path id="Trazado_644669" data-name="Trazado 644669" d="M71,155.556l6.417,22.225,33.948-.754L105.4,155.212Z" transform="translate(-69.928 -155.212)" fill="#ffd76a"/>
      <path id="Trazado_644670" data-name="Trazado 644670" d="M71,155.556l22.026,14.355,12.369-14.7" transform="translate(-69.928 -155.212)" fill="none" stroke="#000" stroke-miterlimit="10" stroke-width="0.05"/>
      <line id="Línea_970" data-name="Línea 970" y1="12.427" x2="8.615" transform="translate(7.491 10.142)" fill="none" stroke="#000" stroke-miterlimit="10" stroke-width="0.05"/>
      <line id="Línea_971" data-name="Línea 971" x1="13.289" y1="13.118" transform="translate(28.15 8.697)" fill="none" stroke="#000" stroke-miterlimit="10" stroke-width="0.05"/>
      <path id="Trazado_644671" data-name="Trazado 644671" d="M74.922,155.356" transform="translate(-71.302 -155.262)" fill="none" stroke="#000" stroke-miterlimit="10" stroke-width="1" opacity="0.3"/>
    </g>
    <g id="Grupo_986825" data-name="Grupo 986825" transform="translate(175.8 32.933)">
      <g id="Grupo_986821" data-name="Grupo 986821">
        <circle id="Elipse_7920" data-name="Elipse 7920" cx="31.756" cy="31.756" r="31.756" fill="#fd625f"/>
        <circle id="Elipse_7921" data-name="Elipse 7921" cx="31.756" cy="31.756" r="31.756" opacity="0.3"/>
      </g>
      <circle id="Elipse_7922" data-name="Elipse 7922" cx="31.756" cy="31.756" r="31.756" transform="translate(4.301 0)" fill="#fd625f"/>
      <g id="Grupo_986824" data-name="Grupo 986824" transform="translate(4.301 0)">
        <g id="Grupo_986823" data-name="Grupo 986823" clip-path="url(#clip-path-2)">
          <g id="Grupo_986822" data-name="Grupo 986822" transform="translate(-4.301 0)">
            <circle id="Elipse_7923" data-name="Elipse 7923" cx="31.756" cy="31.756" r="31.756" fill="#fd625f"/>
            <circle id="Elipse_7924" data-name="Elipse 7924" cx="31.756" cy="31.756" r="31.756" opacity="0.3"/>
          </g>
          <circle id="Elipse_7925" data-name="Elipse 7925" cx="31.756" cy="31.756" r="31.756" fill="#fd625f"/>
        </g>
      </g>
      <circle id="Elipse_7927" data-name="Elipse 7927" cx="23.072" cy="23.072" r="23.072" transform="translate(12.984 8.683)" fill="#fff"/>
      <circle id="Elipse_7928" data-name="Elipse 7928" cx="14.953" cy="14.953" r="14.953" transform="translate(21.103 16.802)" fill="#fd625f"/>
      <circle id="Elipse_7929" data-name="Elipse 7929" cx="6.842" cy="6.842" r="6.842" transform="translate(27.831 36.851) rotate(-76.778)" fill="#fff"/>
      <line id="Línea_972" data-name="Línea 972" y1="25.645" x2="40.324" transform="translate(36.056 6.111)" fill="none" stroke="#2e4e5f" stroke-linecap="round" stroke-linejoin="round" stroke-width="2"/>
      <path id="Trazado_644672" data-name="Trazado 644672" d="M357.412,45.551l.561-6.988,6.156-4.8-.3,7.764Z" transform="translate(-290.162 -33.226)" fill="#2e4e5f"/>
      <path id="Trazado_644673" data-name="Trazado 644673" d="M370.845,47.089l-6.71-2.031-6.714,3.979,7.335,2.56Z" transform="translate(-290.165 -37.182)" fill="#2e4e5f"/>
      <path id="Trazado_644674" data-name="Trazado 644674" d="M307.613,76.624a4.043,4.043,0,0,0,4.973,5.065" transform="translate(-272.653 -48.244)" fill="none" stroke="#000" stroke-linecap="round" stroke-linejoin="round" stroke-width="0.05"/>
    </g>
    <g id="Grupo_986826" data-name="Grupo 986826" transform="translate(77.188 72.418)">
      <path id="Trazado_644675" data-name="Trazado 644675" d="M102.376,112.668l55.613,197.711c2.849,10.179,11.818,15.453,22.369,14.808l91.347-4.961a11.2,11.2,0,0,0,10.058-14.31L222.336,101.789a11.2,11.2,0,0,0-11.021-8.066l-96.459,2.292C107.608,96.187,100.507,105.663,102.376,112.668Z" transform="translate(-102.073 -93.719)" fill="#2e4e5f"/>
      <path id="Trazado_644676" data-name="Trazado 644676" d="M106.1,108.2l55.776,202.5c1.295,4.539,3.735,10.814,8.415,13.307,4.125,2.2,8.3,2.945,13.928,2.665,13.126-.653,97.213-5.911,97.213-5.911" transform="translate(-103.485 -98.795)" fill="none" stroke="#fff" stroke-linecap="round" stroke-linejoin="round" stroke-width="0.05"/>
      <path id="Trazado_644677" data-name="Trazado 644677" d="M206.2,104.8l-34.5,1.011a1.174,1.174,0,0,1-1.208-1.139h0a1.174,1.174,0,0,1,1.139-1.208l34.5-1.012a1.175,1.175,0,0,1,1.208,1.139h0A1.174,1.174,0,0,1,206.2,104.8Z" transform="translate(-126.045 -96.78)" fill="#fff"/>
      <path id="Trazado_644678" data-name="Trazado 644678" d="M220.32,112.8l-93.792,1.237a2.578,2.578,0,0,0-2.448,3.273l51.268,184.031a10.51,10.51,0,0,0,10.518,7.683l88.24-3.3a6.424,6.424,0,0,0,5.937-8.183L229.2,119.4A9.114,9.114,0,0,0,220.32,112.8Z" transform="translate(-109.751 -100.404)" fill="#eaf4f2"/>
      <path id="Trazado_644679" data-name="Trazado 644679" d="M177.852,113.735,141.958,158.5l3.245,11.794,43.666-56.645Z" transform="translate(-116.049 -100.703)" fill="#fff" opacity="0.5"/>
      <path id="Trazado_644680" data-name="Trazado 644680" d="M170.415,113.905l-32.063,38.334-1.1-3.962,29.973-34.33Z" transform="translate(-114.399 -100.793)" fill="#fff" opacity="0.5"/>
      <path id="Trazado_644681" data-name="Trazado 644681" d="M266.96,400.606V329.37l-36.384,6.523-.386-16.645,48.856-3.845-3.322,84.728Z" transform="translate(-146.968 -171.403)" opacity="0.3"/>
    </g>
    <g id="Grupo_986847" data-name="Grupo 986847" transform="translate(104.675 73.286)">
      <g id="Grupo_986830" data-name="Grupo 986830" transform="translate(38.676 0)">
        <path id="Trazado_644682" data-name="Trazado 644682" d="M267.267,147.172a10.361,10.361,0,0,1-4.847-5.13A15.969,15.969,0,0,0,271.57,144c.206-2.119.157-1.613.362-3.732-3.738-1.032-7.547-2.1-10.771-4.25s-7.573-5.788-8.333-9.59c-.567-2.836,2.329-4.06,3.952-8.541,1.369-3.779.728-7.287-1.485-10.836a28.234,28.234,0,0,0-3.821-4.713A11.1,11.1,0,0,0,240.9,99.1c-3.927-3.81-14.766-2.524-19.273-.418s-6.506,2.624-9.369,6.692c-4.822,6.852-9.219,18.474-8.176,26.788s6.167,16.247,13.794,19.719c3.832,1.745,8.07,2.335,12.228,3.007s8.392,1.476,12.039,3.581,6.655,5.768,6.881,9.973A43.168,43.168,0,0,0,270.9,148.413S270.267,148.743,267.267,147.172Z" transform="translate(-203.929 -95.619)" fill="#511f39"/>
        <g id="Grupo_986829" data-name="Grupo 986829" transform="translate(5.115)">
          <g id="Grupo_986828" data-name="Grupo 986828">
            <path id="Trazado_644683" data-name="Trazado 644683" d="M220.508,146.339h0l3.3-19.1L228.28,111.6l17.363-7.917,2.308,1.082c5.335,2.5,9.918,7.509,8.585,13.8l0,.1s-2.928,14.832-5.663,19.411c-3.41,5.708-7.875,4.869-9.566,7.069a10.052,10.052,0,0,0-1.625,4.7,6.813,6.813,0,0,1-5.555,5.873C230.221,156.394,224.887,155.174,220.508,146.339Z" transform="translate(-214.853 -98.079)" fill="#f5b08b"/>
            <path id="Trazado_644684" data-name="Trazado 644684" d="M270.477,123.751a1.277,1.277,0,0,0-.633-.587,3.283,3.283,0,0,0-.82-.272c-.027-.006-.053-.008-.079-.014a3.288,3.288,0,0,0-.436-.058,2.989,2.989,0,0,0-.523.011c-.018,0-.037,0-.055,0a3.3,3.3,0,0,0-.576.123c-.021.006-.043.007-.064.014h.008c-.031.01-.061.012-.092.023a1.793,1.793,0,0,0-.9.616,1,1,0,0,0-.078,1.1,1.062,1.062,0,0,0,.582.334l.928.288a4.285,4.285,0,0,0,1.23.253,1.646,1.646,0,0,0,1.2-.462A1.323,1.323,0,0,0,270.477,123.751Z" transform="translate(-230.828 -104.782)" fill="#511f39"/>
            <path id="Trazado_644685" data-name="Trazado 644685" d="M252.731,121.043a1.284,1.284,0,0,0-.632-.587,3.286,3.286,0,0,0-.821-.272c-.027-.006-.053-.008-.079-.014a3.429,3.429,0,0,0-.437-.058,2.99,2.99,0,0,0-.523.01c-.018,0-.036,0-.055,0a3.319,3.319,0,0,0-.576.124c-.021.006-.043.007-.064.014h.009c-.031.01-.062.013-.093.023a1.791,1.791,0,0,0-.9.616,1,1,0,0,0-.078,1.1,1.06,1.06,0,0,0,.582.334l.928.288a4.263,4.263,0,0,0,1.23.253,1.643,1.643,0,0,0,1.2-.462A1.32,1.32,0,0,0,252.731,121.043Z" transform="translate(-224.609 -103.833)" fill="#511f39"/>
            <path id="Trazado_644686" data-name="Trazado 644686" d="M247.811,129.589c.143-.506.166-1.127.59-1.5l.107-.045a1.313,1.313,0,0,1,1.127.179,1.22,1.22,0,0,1,.329,1,4.316,4.316,0,0,1-.451,1.439,2.951,2.951,0,0,1-.392.7.813.813,0,0,1-1.492-.475A3.056,3.056,0,0,1,247.811,129.589Z" transform="translate(-224.35 -106.6)"/>
            <path id="Trazado_644687" data-name="Trazado 644687" d="M264.481,133.926c.144-.505.166-1.127.59-1.5l.107-.045a1.311,1.311,0,0,1,1.126.179,1.217,1.217,0,0,1,.329,1,4.327,4.327,0,0,1-.45,1.439,2.963,2.963,0,0,1-.392.7.813.813,0,0,1-1.492-.475A3.066,3.066,0,0,1,264.481,133.926Z" transform="translate(-230.192 -108.119)"/>
            <path id="Trazado_644688" data-name="Trazado 644688" d="M250.816,162.467l-2.11,1.02a4.831,4.831,0,0,0-2.361,2.227l-.016.031c-4.027-1.619-7.112-3.071-9.436-6.737C241.552,161.715,244.8,163.036,250.816,162.467Z" transform="translate(-220.595 -117.466)" fill="#f07b54"/>
            <path id="Trazado_644689" data-name="Trazado 644689" d="M255.939,132.627q-.294,1.681-.588,3.362l2.439.016c.175,0,.393.032.446.2a.4.4,0,0,1-.057.289,4.831,4.831,0,0,1-3.809,2.634" transform="translate(-226.719 -108.221)" fill="none" stroke="#000" stroke-miterlimit="10" stroke-width="0.05"/>
            <path id="Trazado_644690" data-name="Trazado 644690" d="M214.6,105.44c-5.663,8.828-2.162,14.975,5.481,22.158l3.273-8.976c9.894-3.208,17.091-11.073,20.914-20.073C232.65,91.084,220.261,96.612,214.6,105.44Z" transform="translate(-211.802 -95.055)" fill="#511f39"/>
            <g id="Grupo_986827" data-name="Grupo 986827" transform="translate(5.478 20.801)">
              <path id="Trazado_644691" data-name="Trazado 644691" d="M226.8,140.1a8.749,8.749,0,0,1-5.425-3.2,6.549,6.549,0,0,1-.94-5.3,5.84,5.84,0,0,1,3.773-4.329,4.36,4.36,0,0,1,5.115,2.073" transform="translate(-220.235 -127.078)" fill="#f5b08b"/>
              <path id="Trazado_644692" data-name="Trazado 644692" d="M226.135,131.588a1.362,1.362,0,0,0-1.343.2,2.992,2.992,0,0,0-.853,1.125,4.843,4.843,0,0,0-.45,3.518,2.8,2.8,0,0,0,2.68,2.041.765.765,0,0,0,.616-.285c.172-.273.013-.624-.1-.926a3.336,3.336,0,0,1-.116-2.043,1.58,1.58,0,0,1,.406-.765.78.78,0,0,1,.808-.185c.183.078.354.248.544.194.281-.079.222-.5.081-.751a5.224,5.224,0,0,0-2.275-2.157" transform="translate(-221.318 -128.623)" fill="#f07b54"/>
              <path id="Trazado_644693" data-name="Trazado 644693" d="M226.818,131.353a5.919,5.919,0,0,1,3.747,4.507,3.75,3.75,0,0,0-.633-1.258,1.273,1.273,0,0,0-1.261-.455c-.628.186-.874.936-.959,1.586a3.446,3.446,0,0,0,.035,1.36,1.513,1.513,0,0,0,.838,1.023" transform="translate(-222.542 -128.576)" fill="none" stroke="#000" stroke-miterlimit="10" stroke-width="0.05"/>
            </g>
          </g>
          <path id="Trazado_644694" data-name="Trazado 644694" d="M248.838,143.369a1.383,1.383,0,0,0-1.124-.257,1.107,1.107,0,0,0-.588.874,2.739,2.739,0,0,0,2.492,3.246l.037-.008a2.955,2.955,0,0,0,2.219-2.129h0Z" transform="translate(-224.164 -111.879)" fill="#f07b54"/>
          <path id="Trazado_644695" data-name="Trazado 644695" d="M251.873,145.1l-3.035-1.727a1.383,1.383,0,0,0-1.124-.257,1.108,1.108,0,0,0-.588.874,2.739,2.739,0,0,0,2.492,3.246" transform="translate(-224.164 -111.879)" fill="none" stroke="#000" stroke-miterlimit="10" stroke-width="0.05"/>
          <path id="Trazado_644696" data-name="Trazado 644696" d="M243.5,136.915c-.647,1.12-2.591,1.21-4.34.2s-2.644-2.739-2-3.859,2.591-1.211,4.341-.2S244.146,135.794,243.5,136.915Z" transform="translate(-220.615 -108.125)" fill="#f07b54" opacity="0.56"/>
          <path id="Trazado_644697" data-name="Trazado 644697" d="M266.391,141.564c-1.964-.476-3.8.157-4.109,1.415s1.04,2.664,3,3.14a5.092,5.092,0,0,0,2.28.054l1.037-3.519A7.977,7.977,0,0,0,266.391,141.564Z" transform="translate(-229.477 -111.297)" fill="#f07b54" opacity="0.56"/>
        </g>
      </g>
      <g id="Grupo_986831" data-name="Grupo 986831" transform="translate(6.32 47.365)">
        <path id="Trazado_644698" data-name="Trazado 644698" d="M250.418,195.894l-2.707,6.24-13.8-19.088a27.29,27.29,0,0,0-10.1-7.032l-7.5-3.154c-6.745,4.112-13.273,2.6-19.145-3.958l-12.311-.846-1.222-.084a11.628,11.628,0,0,0-5.332,1.378,15.774,15.774,0,0,0-6.275,6c-2.116,3.528-14.843,25.992-17.9,31.536l5.568,19.712c3.338.178,7.7-.9,10.043-5.217l7.581-19.19-3.439,25.256,37.286,8.621,8.577-15.461s4.279-5.805,5.284-9.62a24.065,24.065,0,0,0,.951-6.457c2.713,3.239,9.3,11.338,15.092,16.86,3.165,3.021,10.013,7.395,14.628,2.217,5.205-5.838,8.3-18.091,8.3-18.091Z" transform="translate(-154.118 -167.973)" fill="#00c1ab"/>
        <path id="Trazado_644699" data-name="Trazado 644699" d="M184.932,233.278c1.153-7.271,4.851-37.514,6.286-45.837" transform="translate(-164.916 -174.795)" fill="none" stroke="#000" stroke-miterlimit="10" stroke-width="0.05"/>
        <path id="Trazado_644700" data-name="Trazado 644700" d="M298.494,220.235a52.273,52.273,0,0,1,2.43,10.137" transform="translate(-204.711 -186.287)" fill="none" stroke="#2e4e5f" stroke-miterlimit="10" stroke-width="0.05"/>
        <path id="Trazado_644701" data-name="Trazado 644701" d="M266.489,207.056l-2.2-4.95a49.86,49.86,0,0,1,.414,14.387l3.441,3.743S268.657,212.442,266.489,207.056Z" transform="translate(-192.726 -179.934)"/>
      </g>
      <g id="Grupo_986834" data-name="Grupo 986834" transform="translate(104.286 11.854)">
        <path id="Trazado_644702" data-name="Trazado 644702" d="M375.295,138.379a6.576,6.576,0,1,1-4.748-8A6.577,6.577,0,0,1,375.295,138.379Z" transform="translate(-325.051 -119.217)" fill="#00c1ab"/>
        <path id="Trazado_644703" data-name="Trazado 644703" d="M326.488,166.639c-.333-1.517-1.858-1.479-2.791-1.241-.346.089-4.47,1.22-7.71,2.147.056-.409.678-5.16-.214-6.412-.933-1.309-1.993-.576-2.051,1.469s-1.3,3.645-2.159,5.744.233,8.441.233,8.441l-.168,1.4-6.7,16.065,10.2,8.1,6.095-20.964s5.469-2.908,6-4.308a1.687,1.687,0,0,0-.548-2.082,1.585,1.585,0,0,0,1.173-1.373,1.557,1.557,0,0,0-.661-1.66,2.391,2.391,0,0,0,.544-1.685c-.12-1.184-1.606-1.692-1.606-1.692S326.8,168.058,326.488,166.639Z" transform="translate(-304.933 -129.835)" fill="#f5b08b"/>
        <path id="Trazado_644704" data-name="Trazado 644704" d="M323.955,151.023l-2.835-12.942-7.19,2.127c-2.706.64-4.2,4.4-3.6,7.11a5.078,5.078,0,0,0,6.164,3.822l.485-.057,3.291,19.891a2.125,2.125,0,0,0,2.6,1.721c2.439-.59,6.177-1.284,6.177-1.284C329.268,171.625,324.24,152.124,323.955,151.023Z" transform="translate(-306.779 -121.986)" fill="#2e4e5f"/>
        <path id="Trazado_644705" data-name="Trazado 644705" d="M321.714,171.167c-.208.581-.275,1.462-.484,2.044a10.523,10.523,0,0,1,1.652,4.349,7.093,7.093,0,0,1-.8,5.356" transform="translate(-310.644 -133.58)" fill="none" stroke="#f07b54" stroke-miterlimit="10" stroke-width="0.05"/>
        <path id="Trazado_644706" data-name="Trazado 644706" d="M332.74,171.184s-3.691,1.009-5.828,1.669a5.287,5.287,0,0,1-1.691.359,1.613,1.613,0,0,1-1.353-1.1,2.36,2.36,0,0,1,1.751-2.593l5.895-1.641" transform="translate(-311.548 -132.429)" fill="#f5b08b"/>
        <path id="Trazado_644707" data-name="Trazado 644707" d="M334.565,176.331s-3.691,1.009-5.828,1.669a5.309,5.309,0,0,1-1.691.359,1.613,1.613,0,0,1-1.353-1.1,2.36,2.36,0,0,1,1.751-2.594l5.894-1.641" transform="translate(-312.188 -134.232)" fill="#f5b08b"/>
        <path id="Trazado_644708" data-name="Trazado 644708" d="M335.563,185.372a14.37,14.37,0,0,1-3.429,1.12,5.67,5.67,0,0,1-1.522.231,1.205,1.205,0,0,1-1.165-.646,1.266,1.266,0,0,1,.974-1.561l5.243-1.528S337.009,184.375,335.563,185.372Z" transform="translate(-313.502 -137.723)" fill="#f5b08b"/>
        <path id="Trazado_644709" data-name="Trazado 644709" d="M334.858,181.126a17.806,17.806,0,0,1-4.261,1.392,7.1,7.1,0,0,1-1.892.288,1.5,1.5,0,0,1-1.447-.8,1.574,1.574,0,0,1,1.21-1.94l6.516-1.9S336.655,179.888,334.858,181.126Z" transform="translate(-312.73 -136.033)" fill="#f5b08b"/>
        <path id="Trazado_644710" data-name="Trazado 644710" d="M327.878,174.775l6.42-1.856" transform="translate(-312.973 -134.194)" fill="none" stroke="#f07b54" stroke-miterlimit="10" stroke-width="0.05"/>
        <path id="Trazado_644711" data-name="Trazado 644711" d="M328.68,180.029l6.876-1.9" transform="translate(-313.255 -136.021)" fill="none" stroke="#f07b54" stroke-miterlimit="10" stroke-width="0.05"/>
        <path id="Trazado_644712" data-name="Trazado 644712" d="M330.976,184.313l5.07-1.607" transform="translate(-314.059 -137.624)" fill="none" stroke="#f07b54" stroke-miterlimit="10" stroke-width="0.05"/>
        <g id="Grupo_986833" data-name="Grupo 986833" transform="translate(14.341 2.258)">
          <g id="Grupo_986832" data-name="Grupo 986832" clip-path="url(#clip-path-3)">
            <path id="Trazado_644713" data-name="Trazado 644713" d="M352.821,116.78c-7.576,10.145-25.81,13.837-25.81,13.837l2.606,11.9c12.106-2,30.872,5.265,30.872,5.265Z" transform="translate(-327.011 -116.78)" fill="#73ac9d"/>
          </g>
        </g>
        <path id="Trazado_644715" data-name="Trazado 644715" d="M373.54,148.336h0a1.788,1.788,0,0,1-2.139-1.35l-7.123-31.5a1.789,1.789,0,0,1,1.35-2.14h0a1.79,1.79,0,0,1,2.14,1.35l7.122,31.5A1.788,1.788,0,0,1,373.54,148.336Z" transform="translate(-325.713 -113.304)" fill="#2e4e5f"/>
      </g>
      <g id="Grupo_986838" data-name="Grupo 986838" transform="translate(97.237 203.149)">
        <g id="Grupo_986836" data-name="Grupo 986836">
          <path id="Trazado_644716" data-name="Trazado 644716" d="M300.543,421.442V407.8h21.135l-.877,19.975-13.976,5.31-6.281-7.538Z" transform="translate(-296.345 -407.796)" fill="#fff"/>
          <g id="Grupo_986835" data-name="Grupo 986835" transform="translate(0 12.788)">
            <path id="Trazado_644717" data-name="Trazado 644717" d="M294.091,456.046c-.133-8.63,1.065-14.05.933-22.681-.024-1.571.085-3.412,1.388-4.29a3.549,3.549,0,0,1,3.958.478,38.471,38.471,0,0,1,2.991,3.017,9.45,9.45,0,0,0,15.726-5.087l29.474,17.732c2.012,1.211,4.091,2.483,5.4,4.434s1.608,4.789.047,6.544Z" transform="translate(-294.081 -427.483)" fill="#fd625f"/>
            <path id="Trazado_644718" data-name="Trazado 644718" d="M355.078,464.673,294.15,464.3l-.053,4.648,59.916.147S356.189,466.8,355.078,464.673Z" transform="translate(-294.087 -440.385)" fill="#2e4e5f"/>
          </g>
        </g>
        <g id="Grupo_986837" data-name="Grupo 986837" transform="translate(28.913 17.952)">
          <path id="Trazado_644719" data-name="Trazado 644719" d="M340.31,441.289a.859.859,0,1,1-.859-.859A.859.859,0,0,1,340.31,441.289Z" transform="translate(-338.592 -437.184)" fill="#fff"/>
          <path id="Trazado_644720" data-name="Trazado 644720" d="M347.646,445.464a.859.859,0,1,1-.859-.859A.858.858,0,0,1,347.646,445.464Z" transform="translate(-341.163 -438.647)" fill="#fff"/>
          <path id="Trazado_644721" data-name="Trazado 644721" d="M355.258,449.593a.859.859,0,1,1-.859-.858A.859.859,0,0,1,355.258,449.593Z" transform="translate(-343.83 -440.094)" fill="#fff"/>
          <path id="Trazado_644722" data-name="Trazado 644722" d="M358,444.1a5.546,5.546,0,0,0-3.134,4.045" transform="translate(-344.293 -438.47)" fill="none" stroke="#fff" stroke-linecap="round" stroke-linejoin="round" stroke-width="0.05"/>
          <path id="Trazado_644723" data-name="Trazado 644723" d="M350.715,439.479a5.549,5.549,0,0,0-3.134,4.045" transform="translate(-341.742 -436.851)" fill="none" stroke="#fff" stroke-linecap="round" stroke-linejoin="round" stroke-width="0.05"/>
          <path id="Trazado_644724" data-name="Trazado 644724" d="M343.479,435.433a5.549,5.549,0,0,0-3.134,4.045" transform="translate(-339.206 -435.433)" fill="none" stroke="#fff" stroke-linecap="round" stroke-linejoin="round" stroke-width="0.05"/>
        </g>
        <path id="Trazado_644725" data-name="Trazado 644725" d="M300.543,419.622l20.788.21-.163,3.706-20.625-1.853Z" transform="translate(-296.346 -411.94)"/>
        <path id="Trazado_644726" data-name="Trazado 644726" d="M294.678,464.368c20.474,0,40.129.329,60.6.329" transform="translate(-294.29 -427.62)" fill="none" stroke="#2e4e5f" stroke-miterlimit="10" stroke-width="0.05"/>
      </g>
      <g id="Grupo_986845" data-name="Grupo 986845" transform="translate(14.135 47.381)">
        <g id="Grupo_986841" data-name="Grupo 986841" transform="translate(17.964 60.138)">
          <path id="Trazado_644727" data-name="Trazado 644727" d="M277.466,263.466c-8.652-3.043-36.566-.046-55.988,2.557l-.323-5.447-20.653,8-6.7,44.884,65.649-12.465-1.509,62.852L288,364.1s3.877-63.562,4.99-73.483S290.888,268.187,277.466,263.466Z" transform="translate(-193.803 -260.577)" fill="#006475"/>
          <g id="Grupo_986840" data-name="Grupo 986840" clip-path="url(#clip-path-4)">
            <g id="Grupo_986839" data-name="Grupo 986839">
              <path id="Trazado_644728" data-name="Trazado 644728" d="M277.466,263.466c-8.652-3.043-36.566-.046-55.988,2.557l-.323-5.447-20.653,8-6.7,44.884,65.649-12.465-1.509,62.852L288,364.1s3.877-63.562,4.99-73.483S290.888,268.187,277.466,263.466Z" transform="translate(-193.803 -260.577)" fill="#006475"/>
            </g>
          </g>
        </g>
        <g id="Grupo_986844" data-name="Grupo 986844">
          <path id="Trazado_644730" data-name="Trazado 644730" d="M190.547,201.17s-10.518,37.347-10.294,37.4l-1.9-.485s-10.545,6.716-12.2,8.153c0,0,1.68,6.574,4.178,15.686,1.475,5.38,3.478,11.043,5.212,18.022l10.175,36.524L190,331.863a14.3,14.3,0,0,0,2.016,4.092c2.5,3.048,6.255,5.873,9.443.735,5.306-8.55,10.643-77.147,10.643-77.147l4.059-5.132c5.564-13.92,11.227-33.136,11.412-43.8Z" transform="translate(-166.148 -179.622)" fill="#006475"/>
          <path id="Trazado_644731" data-name="Trazado 644731" d="M203,191.7,203.738,168l4.078.28-.268,23.538Z" transform="translate(-179.06 -167.997)" fill="#006475"/>
          <path id="Trazado_644732" data-name="Trazado 644732" d="M253.431,203.013l2.666-25.1,4.043,2.068-2.96,23.991Z" transform="translate(-196.734 -171.471)" fill="#006475"/>
          <g id="Grupo_986842" data-name="Grupo 986842" transform="translate(25.05 24.745)">
            <path id="Trazado_644733" data-name="Trazado 644733" d="M207.95,208.142a1.644,1.644,0,1,1-1.187-2A1.644,1.644,0,0,1,207.95,208.142Z" transform="translate(-204.712 -206.091)" fill="#fff"/>
            <path id="Trazado_644734" data-name="Trazado 644734" d="M206.568,208.23a.25.25,0,1,1-.181-.3A.25.25,0,0,1,206.568,208.23Z" transform="translate(-205.189 -206.731)" fill="#73ac9d"/>
            <path id="Trazado_644735" data-name="Trazado 644735" d="M207.93,208.865a.25.25,0,1,1-.181-.3A.251.251,0,0,1,207.93,208.865Z" transform="translate(-205.667 -206.954)" fill="#73ac9d"/>
          </g>
          <g id="Grupo_986843" data-name="Grupo 986843" transform="translate(54.851 32.341)">
            <path id="Trazado_644736" data-name="Trazado 644736" d="M253.828,219.836a1.645,1.645,0,1,1-1.187-2A1.645,1.645,0,0,1,253.828,219.836Z" transform="translate(-250.589 -217.785)" fill="#fff"/>
            <path id="Trazado_644737" data-name="Trazado 644737" d="M252.446,219.924a.251.251,0,1,1-.181-.3A.251.251,0,0,1,252.446,219.924Z" transform="translate(-251.067 -218.425)" fill="#73ac9d"/>
            <path id="Trazado_644738" data-name="Trazado 644738" d="M253.808,220.56a.251.251,0,1,1-.181-.3A.251.251,0,0,1,253.808,220.56Z" transform="translate(-251.544 -218.648)" fill="#73ac9d"/>
          </g>
          <path id="Trazado_644739" data-name="Trazado 644739" d="M229.618,331.359c1.058-5.568,6.76-43.431,7.4-49.131" transform="translate(-188.389 -208.026)" fill="none" stroke="#000" stroke-miterlimit="10" stroke-width="0.05"/>
          <path id="Trazado_644740" data-name="Trazado 644740" d="M294.967,315.779a48.8,48.8,0,0,1,8.291-14.588" transform="translate(-211.289 -214.671)" fill="none" stroke="#000" stroke-miterlimit="10" stroke-width="0.05"/>
          <path id="Trazado_644741" data-name="Trazado 644741" d="M294.87,318.571l12.289-8.433" transform="translate(-211.255 -217.807)" fill="none" stroke="#000" stroke-miterlimit="10" stroke-width="0.05"/>
          <path id="Trazado_644742" data-name="Trazado 644742" d="M175.648,279.039a18.629,18.629,0,0,0,16.247-5.123" transform="translate(-169.477 -205.114)" fill="none" stroke="#000" stroke-miterlimit="10" stroke-width="0.05"/>
        </g>
      </g>
      <g id="Grupo_986846" data-name="Grupo 986846" transform="translate(0 70.299)">
        <path id="Trazado_644743" data-name="Trazado 644743" d="M152.872,203.387c-1.279-.438-3.549.493-5.33,2.187l-1.35,1.263a5.7,5.7,0,0,0-1.761,2.928,2.686,2.686,0,0,0,2.036,2.887,5.832,5.832,0,0,0,3.784-.493,8.741,8.741,0,0,0,3.083-2.456,4.883,4.883,0,0,0,1.619-3.491A3.045,3.045,0,0,0,152.872,203.387Z" transform="translate(-144.388 -203.279)" fill="#f5b08b"/>
        <path id="Trazado_644744" data-name="Trazado 644744" d="M156.133,212.394c-1.279-.438-3.549.493-5.329,2.187l-1.351,1.263a5.7,5.7,0,0,0-1.761,2.927,2.686,2.686,0,0,0,2.036,2.887,5.832,5.832,0,0,0,3.784-.493,8.734,8.734,0,0,0,3.083-2.456,4.883,4.883,0,0,0,1.619-3.491A3.045,3.045,0,0,0,156.133,212.394Z" transform="translate(-145.531 -206.435)" fill="#f5b08b"/>
        <path id="Trazado_644745" data-name="Trazado 644745" d="M159.722,220.821c-1.279-.439-3.549.492-5.329,2.187l-1.351,1.263a5.692,5.692,0,0,0-1.76,2.928,2.686,2.686,0,0,0,2.036,2.887,5.834,5.834,0,0,0,3.783-.493,8.735,8.735,0,0,0,3.083-2.456,4.888,4.888,0,0,0,1.62-3.491A3.045,3.045,0,0,0,159.722,220.821Z" transform="translate(-146.789 -209.388)" fill="#f5b08b"/>
        <path id="Trazado_644746" data-name="Trazado 644746" d="M149.093,216.227l6.7-4.749" transform="translate(-146.037 -206.152)" fill="none" stroke="#f07b54" stroke-miterlimit="10" stroke-width="0.05"/>
        <path id="Trazado_644747" data-name="Trazado 644747" d="M152.86,225.253a42,42,0,0,0,5.745-4.4" transform="translate(-147.357 -209.437)" fill="none" stroke="#f07b54" stroke-miterlimit="10" stroke-width="0.05"/>
      </g>
    </g>
    <g id="Grupo_986850" data-name="Grupo 986850" transform="translate(235.731 146.598)">
      <path id="Trazado_644748" data-name="Trazado 644748" d="M346.221,213.036l9.053,41.882a5.05,5.05,0,0,0,4.845,4.1l61.768.142c2.222.005,5.954-4.06,5.426-6.346l-11.652-39.5a3.424,3.424,0,0,0-3.286-2.731l-62.336-2.615C346.2,207.966,345.953,211.8,346.221,213.036Z" transform="translate(-346.144 -207.934)" fill="#bed3cf"/>
      <path id="Trazado_644749" data-name="Trazado 644749" d="M349.309,210.371l9.052,41.882a5.052,5.052,0,0,0,4.846,4.1l61.767.142a3.586,3.586,0,0,0,3.334-4.49l-9.56-41.357a3.425,3.425,0,0,0-3.287-2.731l-64.331.032A1.956,1.956,0,0,0,349.309,210.371Z" transform="translate(-347.237 -207.916)" fill="#eaf4f2"/>
      <path id="Trazado_644750" data-name="Trazado 644750" d="M350.634,216.42l-1.27-6.024a1.958,1.958,0,0,1,1.816-2.448l64.277-.032a3.426,3.426,0,0,1,3.293,2.759l1.217,5.163Z" transform="translate(-347.254 -207.916)" fill="#2e4e5f"/>
      <path id="Trazado_644751" data-name="Trazado 644751" d="M361.276,213.551a1.81,1.81,0,1,1-1.81-1.81A1.811,1.811,0,0,1,361.276,213.551Z" transform="translate(-350.178 -209.256)" fill="#fd625f"/>
      <path id="Trazado_644752" data-name="Trazado 644752" d="M368.588,213.551a1.81,1.81,0,1,1-1.81-1.81A1.81,1.81,0,0,1,368.588,213.551Z" transform="translate(-352.741 -209.256)" fill="#ffd76a"/>
      <path id="Trazado_644753" data-name="Trazado 644753" d="M375.9,213.551a1.81,1.81,0,1,1-1.81-1.81A1.811,1.811,0,0,1,375.9,213.551Z" transform="translate(-355.303 -209.256)" fill="#00c1ab"/>
      <path id="Trazado_644754" data-name="Trazado 644754" d="M364.968,235.438h25.565" transform="translate(-352.741 -217.56)" fill="none" stroke="#2e4e5f" stroke-miterlimit="10" stroke-width="0.05"/>
      <path id="Trazado_644755" data-name="Trazado 644755" d="M370.776,254.959h25.565" transform="translate(-354.776 -224.401)" fill="none" stroke="#2e4e5f" stroke-miterlimit="10" stroke-width="0.05"/>
      <path id="Trazado_644756" data-name="Trazado 644756" d="M374.136,265.626H399.7" transform="translate(-355.953 -228.139)" fill="none" stroke="#2e4e5f" stroke-miterlimit="10" stroke-width="0.05"/>
      <path id="Trazado_644757" data-name="Trazado 644757" d="M367.755,245.308H393.32" transform="translate(-353.717 -221.019)" fill="none" stroke="#2e4e5f" stroke-miterlimit="10" stroke-width="0.05"/>
      <g id="Grupo_986849" data-name="Grupo 986849" transform="translate(46.069 15.997)">
        <path id="Trazado_644758" data-name="Trazado 644758" d="M439.262,256.238H425.854a6.763,6.763,0,0,1-6.311-5.43l-2.383-12.834a4.387,4.387,0,0,1,4.422-5.43h13.732a6.632,6.632,0,0,1,6.306,5.43l2.068,12.834A4.455,4.455,0,0,1,439.262,256.238Z" transform="translate(-417.067 -232.543)" fill="none" stroke="#73ac9d" stroke-miterlimit="10" stroke-width="1"/>
        <g id="Grupo_986848" data-name="Grupo 986848" transform="translate(2.185 7.815)">
          <path id="Trazado_644759" data-name="Trazado 644759" d="M443.675,246.477a10.681,10.681,0,0,0-7.179-1.829c-2.214.312-3.264,1.456-4.229,3.554-.568,1.243-1.111,4.246-2.411,4.7-1.084.38-3-1.426-4.424-1.886a4.454,4.454,0,0,0-5,2.17l.629,3.389a4.83,4.83,0,0,0,4.506,3.878h16.341a3.19,3.19,0,0,0,3.147-3.965Z" transform="translate(-420.431 -244.574)" fill="#73ac9d"/>
        </g>
        <path id="Trazado_644760" data-name="Trazado 644760" d="M428.469,240.68a2.442,2.442,0,0,1-2.448,3.006,3.754,3.754,0,0,1-3.527-3.006,2.433,2.433,0,0,1,2.448-3.006A3.737,3.737,0,0,1,428.469,240.68Z" transform="translate(-418.951 -234.341)" fill="#73ac9d"/>
      </g>
    </g>
    <g id="Grupo_986854" data-name="Grupo 986854" transform="translate(107.775 47.278)">
      <g id="Grupo_986853" data-name="Grupo 986853">
        <g id="Grupo_986851" data-name="Grupo 986851" transform="translate(17.571 23.253)">
          <path id="Trazado_644761" data-name="Trazado 644761" d="M176.226,90.813l.069,4.528a1.1,1.1,0,0,1,.84-.867,1.753,1.753,0,0,1,1.235.211,4.55,4.55,0,0,1,.994.8" transform="translate(-176.216 -90.813)" fill="none" stroke="#000" stroke-miterlimit="10" stroke-width="0.05"/>
          <path id="Trazado_644762" data-name="Trazado 644762" d="M176.21,97.8a1.178,1.178,0,0,1,1.409.364,2.8,2.8,0,0,1,.525,1.465" transform="translate(-176.21 -93.223)" fill="none" stroke="#000" stroke-miterlimit="10" stroke-width="0.05"/>
        </g>
        <g id="Grupo_986852" data-name="Grupo 986852" transform="translate(23.97 22.367)">
          <path id="Trazado_644763" data-name="Trazado 644763" d="M186.077,89.45l.07,4.527a1.1,1.1,0,0,1,.84-.866,1.756,1.756,0,0,1,1.235.21,4.588,4.588,0,0,1,.994.8" transform="translate(-186.067 -89.45)" fill="none" stroke="#000" stroke-miterlimit="10" stroke-width="0.05"/>
          <path id="Trazado_644764" data-name="Trazado 644764" d="M186.062,96.437a1.178,1.178,0,0,1,1.408.364A2.8,2.8,0,0,1,188,98.266" transform="translate(-186.062 -91.86)" fill="none" stroke="#000" stroke-miterlimit="10" stroke-width="0.05"/>
        </g>
        <path id="Trazado_644765" data-name="Trazado 644765" d="M180.834,60.612c.14-.068,1.816-1.293,1.816-1.293s-2.421-.516-2.626-.541a7.446,7.446,0,0,0,1.324-2.515l-2.9,1.035c-1.294-1.977-3.833-2.57-6.16-2.157-1.939.344-4.218,2.492-5.044,4.271a36.254,36.254,0,0,0-1.828,4.466l1.307,2.793-11.3,4.4h0A27.739,27.739,0,0,0,164.1,76.9a16.508,16.508,0,0,0,7.728,1.732,12.263,12.263,0,0,0,8.557-4.713c1.681-2.421,1.977-4.611,2.011-8.007A9.914,9.914,0,0,0,180.834,60.612Z" transform="translate(-151.354 -55.016)" fill="#ffd76a"/>
        <path id="Trazado_644766" data-name="Trazado 644766" d="M166.351,67.333l-15.718,1.25a1.883,1.883,0,0,0-1.1.325,1.756,1.756,0,0,0-.209,1.873,10.343,10.343,0,0,0,8.884,6.988c3.989.287,11.175-1.382,12.665-7.819" transform="translate(-149.161 -59.332)" fill="#ffd76a" stroke="#fff" stroke-miterlimit="10" stroke-width="0.05"/>
        <path id="Trazado_644767" data-name="Trazado 644767" d="M186.666,62.561a.893.893,0,1,1,1.119-.587A.893.893,0,0,1,186.666,62.561Z" transform="translate(-162.084 -57.048)"/>
      </g>
      <path id="Trazado_644768" data-name="Trazado 644768" d="M190.864,57.97l2.389,3.314,1.816-1.293-2.625-.541,1.324-2.515Z" transform="translate(-163.775 -55.689)" fill="#f07b54"/>
    </g>
    <g id="Grupo_986858" data-name="Grupo 986858" transform="translate(260.181 127.323)">
      <g id="Grupo_986857" data-name="Grupo 986857">
        <g id="Grupo_986855" data-name="Grupo 986855" transform="translate(12.149 16.789)">
          <path id="Trazado_644769" data-name="Trazado 644769" d="M403.381,204.09l1.238,3.225a.837.837,0,0,0-.841-.374,1.335,1.335,0,0,0-.815.5,3.492,3.492,0,0,0-.476.851" transform="translate(-402.488 -204.09)" fill="none" stroke="#000" stroke-miterlimit="10" stroke-width="0.05"/>
          <path id="Trazado_644770" data-name="Trazado 644770" d="M405.36,209.072a.9.9,0,0,0-.894.659,2.137,2.137,0,0,0,.044,1.187" transform="translate(-403.158 -205.834)" fill="none" stroke="#000" stroke-miterlimit="10" stroke-width="0.05"/>
        </g>
        <g id="Grupo_986856" data-name="Grupo 986856" transform="translate(6.231 17.057)">
          <path id="Trazado_644771" data-name="Trazado 644771" d="M394.27,204.5l1.238,3.225a.836.836,0,0,0-.841-.375,1.336,1.336,0,0,0-.815.5,3.476,3.476,0,0,0-.476.851" transform="translate(-393.377 -204.502)" fill="none" stroke="#000" stroke-miterlimit="10" stroke-width="0.05"/>
          <path id="Trazado_644772" data-name="Trazado 644772" d="M396.248,209.484a.9.9,0,0,0-.894.658,2.139,2.139,0,0,0,.045,1.187" transform="translate(-394.046 -206.246)" fill="none" stroke="#000" stroke-miterlimit="10" stroke-width="0.05"/>
        </g>
        <path id="Trazado_644773" data-name="Trazado 644773" d="M385.88,181.649c-.1-.068-1.208-1.2-1.208-1.2s1.886-.091,2.044-.084a5.674,5.674,0,0,1-.687-2.057l2.059,1.137a4.542,4.542,0,0,1,4.9-.867,6.379,6.379,0,0,1,3.273,3.837,27.569,27.569,0,0,1,.827,3.588l-1.328,1.942,7.965,4.707h0a21.16,21.16,0,0,1-7.256,3.321,12.593,12.593,0,0,1-6.032.353,9.357,9.357,0,0,1-5.862-4.6c-.968-2.029-.921-3.715-.529-6.276A9.55,9.55,0,0,1,385.88,181.649Z" transform="translate(-383.784 -178.243)" fill="#ffd76a"/>
        <path id="Trazado_644774" data-name="Trazado 644774" d="M398.317,186.448l10-6.684a1.437,1.437,0,0,1,.812-.325c.509.019.831.546,1.011,1.022a7.89,7.89,0,0,1-2.016,8.385c-2.253,2.059-7.343,4.457-11.28,1.307" transform="translate(-388.361 -178.662)" fill="#ffd76a" stroke="#fff" stroke-miterlimit="10" stroke-width="0.05"/>
        <path id="Trazado_644775" data-name="Trazado 644775" d="M392.282,183.587a.681.681,0,1,0-.77-.579A.681.681,0,0,0,392.282,183.587Z" transform="translate(-386.49 -179.641)" stroke="#fff" stroke-miterlimit="10" stroke-width="0.05"/>
      </g>
      <path id="Trazado_644776" data-name="Trazado 644776" d="M388.627,179.52l-2.268,2.167-1.208-1.2,2.043-.084-.687-2.057Z" transform="translate(-384.263 -178.28)" fill="#f07b54"/>
    </g>
    <g id="Grupo_986861" data-name="Grupo 986861" transform="translate(280.315 88.289)">
      <g id="Grupo_986859" data-name="Grupo 986859" transform="translate(0 0)">
        <path id="Trazado_644777" data-name="Trazado 644777" d="M418.174,122.765c2.907-3.431,6.93-4.355,11.422-4.574,3.423-.167,7.028.164,9.909,2.018a11.652,11.652,0,0,1,4.489,12.847,14.257,14.257,0,0,1-10.38,9.586h-.395a13.023,13.023,0,0,0,4.6,6.9,7.791,7.791,0,0,1-7.9-6.416,13.709,13.709,0,0,1-12.826-5.139C414.011,134.185,413.663,128.087,418.174,122.765Z" transform="translate(-414.78 -118.152)" fill="#eaf4f2"/>
        <path id="Trazado_644778" data-name="Trazado 644778" d="M436.887,131.917a2.758,2.758,0,0,0-2.081,2.354,2.833,2.833,0,0,0-1.957-2.3c-1.421-.548-3.134.859-3.261,2.57a6.154,6.154,0,0,0,1.323,3.693,18.709,18.709,0,0,0,4.133,3.748c-.238,0,2.533-2.031,3.656-3.748a6.163,6.163,0,0,0,1.323-3.693A2.79,2.79,0,0,0,436.887,131.917Z" transform="translate(-419.965 -122.953)" fill="#eaf4f2"/>
      </g>
      <g id="Grupo_986860" data-name="Grupo 986860" transform="translate(9.613 8.9)">
        <path id="Trazado_644779" data-name="Trazado 644779" d="M436.887,131.917a2.758,2.758,0,0,0-2.081,2.354,2.833,2.833,0,0,0-1.957-2.3c-1.421-.548-3.134.859-3.261,2.57a6.154,6.154,0,0,0,1.323,3.693,18.709,18.709,0,0,0,4.133,3.748c-.238,0,2.533-2.031,3.656-3.748a6.163,6.163,0,0,0,1.323-3.693A2.79,2.79,0,0,0,436.887,131.917Z" transform="translate(-429.578 -131.853)" fill="#fd625f"/>
      </g>
    </g>
    <g id="Grupo_986862" data-name="Grupo 986862" transform="translate(150.769 45.212)">
      <path id="Trazado_644780" data-name="Trazado 644780" d="M226.154,55.627a4.268,4.268,0,1,1-4.718-3.765A4.268,4.268,0,0,1,226.154,55.627Z" transform="translate(-216.153 -51.835)" fill="#eaf4f2"/>
      <path id="Trazado_644781" data-name="Trazado 644781" d="M215.351,71.182s-.318-7.093,6.049-7.809c6.629-.745,7.777,6.255,7.777,6.255Z" transform="translate(-215.348 -55.859)" fill="#eaf4f2"/>
    </g>
    <g id="Grupo_986864" data-name="Grupo 986864" transform="translate(35.088 254.702)">
      <g id="Grupo_986863" data-name="Grupo 986863" transform="translate(0)">
        <path id="Trazado_644782" data-name="Trazado 644782" d="M70.145,379.044c-4.057-4.085-9.284-4.858-15.039-4.683-4.385.133-8.952.919-12.443,3.577-4.956,3.775-6.68,11.039-4.43,16.849a18.254,18.254,0,0,0,14.215,11.186l.5-.04a16.668,16.668,0,0,1-5.175,9.276,9.973,9.973,0,0,0,9.434-8.986c6.241.615,12.3-2.685,15.85-7.854S76.439,385.382,70.145,379.044Z" transform="translate(-37.261 -374.338)" fill="#eaf4f2"/>
      </g>
      <path id="Trazado_644783" data-name="Trazado 644783" d="M65,393.95a4.642,4.642,0,1,0-4.973-.015c-4.674,1.525-5.067,7.34-5.067,7.34h15.13S69.8,395.5,65,393.95Z" transform="translate(-43.464 -378.21)" fill="#fff"/>
    </g>
    <g id="Grupo_986865" data-name="Grupo 986865" transform="translate(85.007 257.315)">
      <path id="Trazado_644784" data-name="Trazado 644784" d="M137.811,407.628c-4.714.1-12.807.338-17.5-.133a5.874,5.874,0,0,1-3.084-.923,2.1,2.1,0,0,1-.558-2.861,3.33,3.33,0,0,1-1.417-5.76,3.444,3.444,0,0,1,.243-5.327c-1.558-1.686-.242-4.669,1.868-5.573s4.527-.388,6.76.14c-.272-2.012-.451-4.846.425-6.678s3.068-2.815,4.725-1.641c1.521,1.077.65,3.227.859,5.078.385,3.4,5.879,4.268,7.676,4.759Z" transform="translate(-114.109 -378.362)" fill="#fff" stroke="#2e4e5f" stroke-miterlimit="10" stroke-width="0.05"/>
      <rect id="Rectángulo_308840" data-name="Rectángulo 308840" width="8.177" height="23.429" rx="1.54" transform="translate(32.917 31.066) rotate(180)" fill="#2e4e5f"/>
      <path id="Trazado_644785" data-name="Trazado 644785" d="M156.747,395.764a1.367,1.367,0,1,0,1.367-1.367A1.367,1.367,0,0,0,156.747,395.764Z" transform="translate(-129.051 -383.981)" fill="#fff"/>
      <path id="Trazado_644786" data-name="Trazado 644786" d="M121.515,400a6.208,6.208,0,0,0-5.6.409" transform="translate(-114.742 -385.776)" fill="none" stroke="#2e4e5f" stroke-miterlimit="10" stroke-width="0.05"/>
      <path id="Trazado_644787" data-name="Trazado 644787" d="M119.654,408.715a6.791,6.791,0,0,0-4.148-.114" transform="translate(-114.599 -388.864)" fill="none" stroke="#2e4e5f" stroke-miterlimit="10" stroke-width="0.05"/>
      <path id="Trazado_644788" data-name="Trazado 644788" d="M120.411,417.214a5.182,5.182,0,0,0-3.871-.022" transform="translate(-114.961 -391.841)" fill="none" stroke="#2e4e5f" stroke-miterlimit="10" stroke-width="0.05"/>
    </g>
    <path id="Trazado_644789" data-name="Trazado 644789" d="M43.736,184.482a4.782,4.782,0,0,0-3.61,4.082,4.911,4.911,0,0,0-3.395-3.986c-2.465-.951-5.436,1.491-5.655,4.459-.174,2.353,1.059,4.514,2.295,6.405,1.947,2.98,7.169,6.5,7.169,6.5-.414,0,4.394-3.521,6.342-6.5,1.236-1.892,2.468-4.052,2.294-6.405A4.838,4.838,0,0,0,43.736,184.482Z" transform="translate(0 -53.067)" fill="#eaf4f2"/>
  </g>
</svg>
