<svg xmlns="http://www.w3.org/2000/svg" width="85" height="85" viewBox="0 0 85 85">
  <g id="Grupo_983521" data-name="Grupo 983521" transform="translate(-180 -6099)">
    <rect id="Rectángulo_34178" data-name="Rectángulo 34178" width="85" height="85" transform="translate(180 6099)" fill="none"/>
    <g id="Grupo_986044" data-name="Grupo 986044" transform="translate(931.757 5914.246)">
      <path id="Trazado_643336" data-name="Trazado 643336" d="M-698.947,220.241c.734-.706,1.02-.757,1.936-.208,7.432,4.451,11.7,10.975,12.379,19.618a24.626,24.626,0,0,1-18.85,25.91,24.761,24.761,0,0,1-30.064-19.552,24.677,24.677,0,0,1,14.162-27.043c.2-.092.4-.191.635-.3-.154-.218-.366-.132-.538-.133-2.36-.007-4.72,0-7.08-.006A4.673,4.673,0,0,1-731.4,213.5q-.005-10.126,0-20.251a4.644,4.644,0,0,1,4.976-4.993q17.166,0,34.332,0a4.674,4.674,0,0,1,5.018,5.044q0,10.088,0,20.175a4.7,4.7,0,0,1-5.027,5.052q-5.631.023-11.263.036c-1.277-.364-1.932.5-2.607,1.322-.942.921-1.879,1.847-2.826,2.763a1.675,1.675,0,0,1-2.659.008c-.818-.8-1.644-1.588-2.414-2.43a1.122,1.122,0,0,0-1.32-.36,22.325,22.325,0,0,0-13.991,11.361,17.543,17.543,0,0,0-1.709,4.521c4.313,0,8.551.009,12.788-.007a2.29,2.29,0,0,1,2.122.931c.28.431.429.238.664.01q1.091-1.062,2.2-2.107a4.191,4.191,0,0,0,1.385-3.25c-.019-1.472-.015-2.944,0-4.415a1.691,1.691,0,0,1,1.5-1.8,5.033,5.033,0,0,1,5.783,5.075c.018,1.548.026,3.1-.009,4.644-.012.517.1.693.653.678,1.521-.041,3.044-.016,4.567-.014,3.485.005,5.518,2.727,4.512,6.047q-1.166,3.85-2.351,7.694a5.74,5.74,0,0,1-6.061,4.49q-5.938,0-11.876,0c-.28,0-.593-.116-.79.262a2.336,2.336,0,0,1-2.357,1.2q-2.739-.048-5.48-.039a1.216,1.216,0,0,1-1.385-1.1c.194-.916.514-1.192,1.454-1.192,1.649,0,3.3-.006,4.946.041.591.017.83-.079.824-.761-.034-4.465-.027-8.931,0-13.4,0-.55-.111-.729-.7-.725q-6.089.042-12.177,0c-.668-.006-.791.277-.849.825a23.1,23.1,0,0,0,0,5.239,21.546,21.546,0,0,0,3.747,9.991,21.819,21.819,0,0,0,11.212,8.635,20.3,20.3,0,0,0,8.8,1.154l.15-.025.3-.029a12.761,12.761,0,0,0,3.3-.476,22.415,22.415,0,0,0,17.061-24.375,22.018,22.018,0,0,0-11.17-16.934C-699.038,221.483-699.181,221.192-698.947,220.241Zm-4.406,17.562c-.713-.087-1.437-.229-1.6.815-.027.178-.292.319-.446.476-1.183.142-1.8-.342-1.6-1.357.512-2.569.184-5.158.238-7.736a2.629,2.629,0,0,0-2.08-2.581c-.414-.086-.646-.052-.627.493.043,1.216.022,2.435.01,3.653a5.852,5.852,0,0,1-1.616,4.151,38.537,38.537,0,0,1-4.271,3.991.513.513,0,0,0-.191.515c0,3.552,0,7.1-.012,10.656,0,.428.117.563.554.561,4.11-.016,8.22.015,12.33-.023a3.139,3.139,0,0,0,3.164-2.194c.962-2.906,1.842-5.841,2.674-8.787a2.058,2.058,0,0,0-2.04-2.653C-700.36,237.752-701.857,237.794-703.353,237.8Zm8.212-47.238c-.2-.008-.4-.023-.607-.023q-15.33,0-30.66,0a2.4,2.4,0,0,0-2.707,2.714q0,10.119,0,20.239a2.421,2.421,0,0,0,2.693,2.743c3.778.009,7.557,0,11.335,0a2.425,2.425,0,0,1,1.2.755c1.053,1.063,2.136,2.1,3.161,3.185.429.455.676.557,1.156.03.989-1.086,2.087-2.073,3.1-3.141a2.548,2.548,0,0,1,2.02-.832c4.133.028,8.266.019,12.4.009a2.437,2.437,0,0,0,2.688-2.688q.007-3.88,0-7.759,0-6.352,0-12.7a2.377,2.377,0,0,0-2.508-2.544C-692.961,190.537-694.051,190.557-695.141,190.566Z" transform="translate(0)" fill="#030303"/>
      <path id="Trazado_643337" data-name="Trazado 643337" d="M-645.333,288.693c.674-.824,1.33-1.686,2.607-1.322.987.355,1.978.7,2.96,1.069.493.184.972.4,1.458.609-.234.951-.091,1.242.813,1.78a22.019,22.019,0,0,1,11.17,16.934,22.415,22.415,0,0,1-17.061,24.375,12.76,12.76,0,0,1-3.3.476c.038-.363.35-.376.6-.484a24.114,24.114,0,0,0,6.94-4.415,23.726,23.726,0,0,0,5.576-7.763,22.841,22.841,0,0,0,1.6-14.335,23.136,23.136,0,0,0-10.134-14.97C-643.152,289.951-644.256,289.342-645.333,288.693Z" transform="translate(-60.639 -68.808)" fill="#e6d8fa"/>
      <path id="Trazado_643338" data-name="Trazado 643338" d="M-698.99,291.678c1.077.649,2.181,1.258,3.227,1.955A23.136,23.136,0,0,1-685.63,308.6a22.842,22.842,0,0,1-1.6,14.335A23.726,23.726,0,0,1-692.8,330.7a24.113,24.113,0,0,1-6.94,4.415c-.25.108-.562.121-.6.484l-.3.029c-.076-.147-.12-.1-.15.025a20.3,20.3,0,0,1-8.8-1.154,21.819,21.819,0,0,1-11.212-8.636l2.757-.017a1.216,1.216,0,0,0,1.385,1.1q2.74-.008,5.48.039a2.336,2.336,0,0,0,2.357-1.2c.2-.378.51-.262.79-.262q5.938-.01,11.876,0a5.74,5.74,0,0,0,6.061-4.49q1.177-3.847,2.351-7.694c1.006-3.32-1.028-6.041-4.512-6.047-1.523,0-3.046-.027-4.567.014-.553.015-.665-.161-.653-.678.035-1.547.027-3.1.009-4.644a5.032,5.032,0,0,0-5.783-5.075,1.691,1.691,0,0,0-1.5,1.8c-.015,1.472-.019,2.944,0,4.415a4.191,4.191,0,0,1-1.385,3.25q-1.109,1.043-2.2,2.107c-.235.229-.384.421-.664-.01a2.29,2.29,0,0,0-2.122-.931c-4.237.016-8.474.007-12.788.007a17.543,17.543,0,0,1,1.709-4.521,22.325,22.325,0,0,1,13.991-11.361,1.122,1.122,0,0,1,1.32.36c.77.842,1.6,1.634,2.414,2.43a1.675,1.675,0,0,0,2.659-.008C-700.869,293.525-699.932,292.6-698.99,291.678Z" transform="translate(-6.982 -71.793)" fill="#f4ecfc"/>
      <path id="Trazado_643339" data-name="Trazado 643339" d="M-704.063,221.441c-3.779,0-7.557.014-11.335,0a2.421,2.421,0,0,1-2.693-2.743q0-10.12,0-20.239a2.4,2.4,0,0,1,2.707-2.714q15.33,0,30.66,0c.2,0,.4.015.607.023-.079,2.682.186,5.37-.145,8.047a16,16,0,0,1-5.72,10.525,15.787,15.787,0,0,1-10.324,3.941,1.46,1.46,0,0,0-1.086.449Q-702.722,220.093-704.063,221.441Zm14.8-15.781a4.977,4.977,0,0,0-2.956-4.095,5.058,5.058,0,0,0-5.524.456.663.663,0,0,1-.956,0,5.288,5.288,0,0,0-7.247.891,5.273,5.273,0,0,0,.293,7.18c1.88,1.921,3.789,3.813,5.7,5.7a2.337,2.337,0,0,0,3.459.006q2.9-2.854,5.753-5.757A5.581,5.581,0,0,0-689.263,205.66Z" transform="translate(-11.024 -5.207)" fill="#ed716d"/>
      <path id="Trazado_643340" data-name="Trazado 643340" d="M-672.122,221.444q1.336-1.352,2.671-2.706a1.46,1.46,0,0,1,1.086-.449,15.787,15.787,0,0,0,10.324-3.941,16,16,0,0,0,5.72-10.525c.331-2.676.066-5.365.145-8.047,1.09-.008,2.18-.029,3.269-.021A2.377,2.377,0,0,1-646.4,198.3q.013,6.352,0,12.7,0,3.88,0,7.759a2.437,2.437,0,0,1-2.688,2.688c-4.133.009-8.266.018-12.4-.009a2.548,2.548,0,0,0-2.02.832c-1.01,1.068-2.108,2.055-3.1,3.141-.48.527-.727.426-1.156-.03-1.025-1.089-2.109-2.123-3.161-3.185A2.425,2.425,0,0,0-672.122,221.444Z" transform="translate(-42.965 -5.21)" fill="#ea564f"/>
      <path id="Trazado_643341" data-name="Trazado 643341" d="M-661.435,326.894c1.5-.009,2.993-.051,4.488-.018a2.058,2.058,0,0,1,2.04,2.653c-.832,2.946-1.712,5.881-2.674,8.787a3.139,3.139,0,0,1-3.164,2.194c-4.11.038-8.22.008-12.33.023-.437,0-.555-.133-.554-.561.015-3.552.007-7.1.012-10.656a.513.513,0,0,1,.191-.515,38.535,38.535,0,0,0,4.271-3.991,5.852,5.852,0,0,0,1.616-4.151c.012-1.218.032-2.437-.01-3.653-.019-.545.213-.579.627-.493a2.629,2.629,0,0,1,2.08,2.581c-.054,2.578.274,5.167-.238,7.736-.2,1.015.417,1.5,1.6,1.357C-662.137,328.573-661.595,328.231-661.435,326.894Z" transform="translate(-41.918 -89.091)" fill="#88a9f6"/>
      <path id="Trazado_643342" data-name="Trazado 643342" d="M-719.858,367.346l-2.757.017a21.546,21.546,0,0,1-3.747-9.991,23.1,23.1,0,0,1,0-5.239c.058-.548.18-.831.849-.825q6.088.054,12.177,0c.589,0,.7.175.7.725-.022,4.465-.029,8.931,0,13.4.005.682-.233.778-.824.761-1.648-.047-3.3-.041-4.946-.041C-719.345,366.154-719.664,366.43-719.858,367.346Z" transform="translate(-5.173 -113.293)" fill="#4b7cf5"/>
      <path id="Trazado_643343" data-name="Trazado 643343" d="M-638.33,350.475c-.16,1.336-.7,1.679-2.045,1.292.155-.158.419-.3.446-.476C-639.768,350.246-639.044,350.388-638.33,350.475Z" transform="translate(-65.023 -112.672)" fill="#688ce2"/>
      <path id="Trazado_643344" data-name="Trazado 643344" d="M-648.164,435.725c.03-.127.074-.172.15-.025Z" transform="translate(-59.611 -171.865)" fill="#e6d8fa"/>
      <path id="Trazado_643345" data-name="Trazado 643345" d="M-664.5,217.5a5.582,5.582,0,0,1-1.477,4.387q-2.852,2.9-5.753,5.757a2.337,2.337,0,0,1-3.459-.006c-1.911-1.889-3.82-3.782-5.7-5.7a5.273,5.273,0,0,1-.293-7.18,5.288,5.288,0,0,1,7.247-.891.663.663,0,0,0,.956,0,5.058,5.058,0,0,1,5.524-.456A4.977,4.977,0,0,1-664.5,217.5Zm-2.276.84a3.105,3.105,0,0,0-3.692-3.163,4.108,4.108,0,0,0-2.057,1.347,1.157,1.157,0,0,1-1.853.021c-.167-.155-.321-.323-.486-.482a3.032,3.032,0,0,0-4.41-.01,3.013,3.013,0,0,0,.076,4.352c1.764,1.784,3.553,3.541,5.313,5.329.311.316.49.382.835.029,1.772-1.81,3.576-3.59,5.362-5.387A2.84,2.84,0,0,0-666.78,218.344Z" transform="translate(-35.783 -17.051)" fill="#040202"/>
      <path id="Trazado_643346" data-name="Trazado 643346" d="M-661.569,223.618a2.839,2.839,0,0,1-.911,2.035c-1.786,1.8-3.59,3.577-5.362,5.387-.345.353-.524.287-.835-.029-1.76-1.787-3.549-3.545-5.313-5.329a3.013,3.013,0,0,1-.076-4.352,3.032,3.032,0,0,1,4.41.01c.164.158.319.327.486.482a1.157,1.157,0,0,0,1.853-.021,4.109,4.109,0,0,1,2.057-1.347A3.105,3.105,0,0,1-661.569,223.618Z" transform="translate(-40.994 -22.325)" fill="#f9e8e8"/>
    </g>
  </g>
</svg>
