<svg id="Grupo_988698" data-name="Grupo 988698" xmlns="http://www.w3.org/2000/svg" width="44.698" height="53.836" viewBox="0 0 44.698 53.836">
  <path id="Trazado_646611" data-name="Trazado 646611" d="M1205.211,539.872a.919.919,0,0,1-.78-1.06c.015-2.856,0-5.712.01-8.568a4.17,4.17,0,0,1,4.416-4.358q13.977,0,27.955,0a4.2,4.2,0,0,1,4.422,4.418q.008,19.605,0,39.211a4.207,4.207,0,0,1-4.428,4.415c-3.906,0-7.812.007-11.718-.008a1.539,1.539,0,0,0-1.115.415,13.794,13.794,0,0,1-5.536,2.753,1.436,1.436,0,0,0-.935.67c-.315.524-.691,1.011-1.03,1.52a.928.928,0,0,1-.838.439q-9.09-.005-18.181-.005c-.79,0-1.131-.564-.771-1.275.734-1.449,1.456-2.906,2.236-4.33a10.692,10.692,0,0,0,1.1-7.566c-.161-.77-.267-1.551-.385-2.329a7.416,7.416,0,0,1,.882-4.659q1.854-3.525,3.71-7.049a1.839,1.839,0,0,0,.218-.9q-.011-4.573,0-9.146c0-.7.136-.878.771-1.045.632.147.806.354.808,1.02.005,1.98,0,3.96,0,5.939a.822.822,0,0,0,.077.54,1.878,1.878,0,0,1,.733-.738c.364-.155.391-.411.39-.749q-.012-7.727-.005-15.453c0-.764.26-1.046.98-1.046q14.634,0,29.269,0c.682,0,.963.277.963.95q0,11.3,0,22.6c0,.647-.187.858-.837.982-.6-.121-.746-.526-.746-1.083.008-7.112,0-14.224.015-21.336,0-.428-.088-.547-.534-.545-5.2.018-10.4.012-15.6.012h-11.453c-.263,0-.49-.059-.488.377q.026,7.331.008,14.662a.426.426,0,0,0,.288.48,2.334,2.334,0,0,1,1.034.94,4.591,4.591,0,0,1,.611,3.525c-.421,2.252-.932,4.484-1.453,6.714a.726.726,0,0,0,.055.644,16.449,16.449,0,0,1,2.121,4.655c.02.1.039.2.061.307.16.743.16.743.913.743h23.4c1.071,0,1.071,0,1.007-1.087.007-2.124.025-4.248.012-6.371a.961.961,0,0,1,.745-1.091c.718.189.841.346.841,1.1q0,3.888,0,7.776c0,1.085-.166,1.254-1.233,1.254H1212.51c-.122,0-.246.009-.367,0-.217-.02-.321.047-.309.289a11.617,11.617,0,0,1-.556,3.771l-.5,1.161h26.057c.123,0,.245,0,.367-.008a2.548,2.548,0,0,0,2.372-2.2,1.812,1.812,0,0,0,.078-.726q0-19.527,0-39.054a2.65,2.65,0,0,0-2.9-2.906q-13.925,0-27.85,0a2.631,2.631,0,0,0-2.885,2.906q0,4.2,0,8.41C1206.017,539.482,1205.878,539.662,1205.211,539.872Zm3.834,35.093c-.1.1-.188.206-.288.3a.817.817,0,0,1-1.133.082.79.79,0,0,1-.047-1.129c.118-.152.252-.291.375-.439a9.2,9.2,0,0,0,2.308-5.99,12.779,12.779,0,0,0-2.412-7.3,1.347,1.347,0,0,1-.235-1.172c.569-2.326,1.095-4.662,1.541-7.015a3.134,3.134,0,0,0-.34-2.429c-.455-.687-1.072-.672-1.452.049q-2.782,5.287-5.55,10.582a5.592,5.592,0,0,0-.609,3.556c.126.777.235,1.557.388,2.329a11.947,11.947,0,0,1-1.075,8.053q-.856,1.652-1.7,3.309c-.056.11-.2.217-.079.389q8.156,0,16.328.006a.491.491,0,0,0,.457-.267c.328-.5.686-.973,1-1.477a1.45,1.45,0,0,1,.99-.7,10.628,10.628,0,0,0,1.993-.636,8.139,8.139,0,0,0,2.224-1.139h-.5c-3.389,0-6.778.034-10.166-.023a1.877,1.877,0,0,0-1.969.966C1209.08,574.906,1209.062,574.935,1209.046,574.966Z" transform="translate(-1196.539 -525.885)" fill="#030303"/>
  <path id="Trazado_646612" data-name="Trazado 646612" d="M1243.756,577.105a11.611,11.611,0,0,0,.556-3.771c-.011-.241.092-.308.309-.289.122.011.245,0,.368,0h24.688c1.068,0,1.233-.169,1.233-1.254q0-3.888,0-7.776c0-.752-.123-.909-.841-1.1q0-.771,0-1.543c.65-.124.837-.334.837-.982q0-11.3,0-22.6c0-.673-.281-.949-.964-.95q-14.634,0-29.268,0c-.72,0-.98.282-.98,1.046q0,7.727,0,15.453c0,.338-.026.594-.39.749a1.878,1.878,0,0,0-.733.738.819.819,0,0,1-.077-.54c0-1.98,0-3.96,0-5.939,0-.666-.176-.873-.808-1.02q0-.772,0-1.545c.667-.21.806-.39.807-1.092q0-4.2,0-8.41a2.631,2.631,0,0,1,2.885-2.906q13.925,0,27.85,0a2.65,2.65,0,0,1,2.9,2.906q0,19.527,0,39.054a1.81,1.81,0,0,1-.078.726c-.2,0-.3.163-.427.276a2.769,2.769,0,0,1-1.792.765c-4.318.016-8.635,0-12.953,0,.091-.126.187-.25.274-.38a2.221,2.221,0,0,0-3.177-3.008,2.271,2.271,0,0,0-.225,3.4Zm12.986-42.791c-.524,0-1.049-.01-1.573,0a.781.781,0,0,0-.057,1.561q1.624.037,3.25,0a.782.782,0,1,0-.047-1.562C1257.792,534.3,1257.267,534.314,1256.743,534.314Zm-4.284,1.581a.8.8,0,0,0,.79-.807.79.79,0,0,0-1.579,0A.8.8,0,0,0,1252.459,535.9Z" transform="translate(-1229.018 -531.797)" fill="#e1eaf4"/>
  <path id="Trazado_646613" data-name="Trazado 646613" d="M1283.466,580.242q0,.771,0,1.543a.961.961,0,0,0-.745,1.091c.013,2.124-.005,4.247-.012,6.371q-12.3,0-24.6,0c-.261,0-.523.023-.784.035a16.456,16.456,0,0,0-2.12-4.655.726.726,0,0,1-.055-.644c.522-2.23,1.033-4.462,1.454-6.714a4.59,4.59,0,0,0-.611-3.525,2.334,2.334,0,0,0-1.033-.94.427.427,0,0,1-.289-.479q.007-7.331-.008-14.662c0-.436.225-.377.488-.377H1266.6c5.2,0,10.4.006,15.6-.012.446,0,.535.117.534.545q-.021,10.668-.015,21.336C1282.72,579.716,1282.867,580.121,1283.466,580.242Zm-14.758-2.964q4.6,0,9.191,0a1.788,1.788,0,0,0,1.879-1.777q.021-6.068,0-12.135a1.788,1.788,0,0,0-1.763-1.788,3.345,3.345,0,0,0-.473,0,4.119,4.119,0,0,1-2.3-.507,6.1,6.1,0,0,0-6.338.107.331.331,0,0,1-.418-.006,6,6,0,0,0-6.195-.16,5.484,5.484,0,0,1-2.653.575,1.827,1.827,0,0,0-2.031,2.053q0,5.779,0,11.557a1.86,1.86,0,0,0,2.064,2.083Q1264.192,577.28,1268.708,577.278Zm-.031,8.688q3.991,0,7.982,0c.606,0,.979-.3.99-.781s-.356-.784-.963-.8c-.07,0-.14,0-.21,0h-15.543a4.008,4.008,0,0,0-.472.013.706.706,0,0,0-.678.678.715.715,0,0,0,.553.835,2.1,2.1,0,0,0,.57.051Q1264.791,585.969,1268.677,585.966Zm-.007-4.067h4.988c1.068,0,2.135.009,3.2-.007a.768.768,0,0,0,.785-.755.811.811,0,0,0-.742-.81,3.041,3.041,0,0,0-.367-.006h-15.647a2.417,2.417,0,0,0-.471.018.79.79,0,0,0-.479,1.266.922.922,0,0,0,.8.3Q1264.705,581.895,1268.669,581.9Z" transform="translate(-1242.413 -550.663)" fill="#97d8f9"/>
  <path id="Trazado_646614" data-name="Trazado 646614" d="M1227.553,663.049a10.626,10.626,0,0,1-1.993.636,1.451,1.451,0,0,0-.989.7c-.314.5-.672.981-1,1.477a.491.491,0,0,1-.457.267q-8.169-.011-16.328-.006c-.12-.171.023-.278.079-.389q.843-1.659,1.7-3.309a11.947,11.947,0,0,0,1.075-8.053c-.153-.772-.262-1.552-.388-2.329a5.592,5.592,0,0,1,.609-3.556q2.765-5.3,5.55-10.582c.379-.721,1-.736,1.452-.049a3.133,3.133,0,0,1,.34,2.429c-.447,2.353-.973,4.689-1.541,7.015a1.348,1.348,0,0,0,.236,1.172,12.778,12.778,0,0,1,2.412,7.3,9.2,9.2,0,0,1-2.308,5.99c-.124.148-.258.287-.375.439a.79.79,0,0,0,.047,1.13.817.817,0,0,0,1.133-.082c.1-.1.192-.2.288-.3q4.925.011,9.85.024C1227.149,662.969,1227.368,662.9,1227.553,663.049Z" transform="translate(-1204.59 -613.863)" fill="#f8dfcc"/>
  <path id="Trazado_646615" data-name="Trazado 646615" d="M1277.749,737.016c4.318,0,8.635.02,12.953,0a2.767,2.767,0,0,0,1.792-.766c.13-.113.227-.273.427-.276a2.548,2.548,0,0,1-2.372,2.2c-.122.009-.245.008-.367.008h-26.057l.5-1.161,10,.011A2.291,2.291,0,0,0,1277.749,737.016Z" transform="translate(-1249.884 -691.713)" fill="#d4dded"/>
  <path id="Trazado_646616" data-name="Trazado 646616" d="M1267.293,709.055c.261-.012.523-.035.784-.035q12.3,0,24.6,0c.064,1.087.064,1.087-1.007,1.087h-23.4c-.753,0-.753,0-.913-.743C1267.332,709.26,1267.313,709.157,1267.293,709.055Z" transform="translate(-1252.386 -670.433)" fill="#74c7e8"/>
  <path id="Trazado_646617" data-name="Trazado 646617" d="M1266.353,754.978c-.186-.149-.4-.081-.607-.081q-4.925-.017-9.85-.024c.017-.03.035-.06.051-.091a1.877,1.877,0,0,1,1.969-.966c3.388.057,6.777.023,10.166.023h.5A8.136,8.136,0,0,1,1266.353,754.978Z" transform="translate(-1243.39 -705.792)" fill="#f5cdb6"/>
  <path id="Trazado_646618" data-name="Trazado 646618" d="M1314.627,726.568a2.236,2.236,0,1,1-2.9-3.388,2.22,2.22,0,0,1,3.177,3.008C1314.814,726.317,1314.718,726.441,1314.627,726.568Zm-2.186-1.549a.565.565,0,0,0,.628.579.61.61,0,0,0,.62-.649.577.577,0,0,0-.651-.6C1312.628,724.362,1312.44,724.581,1312.441,725.018Z" transform="translate(-1286.762 -681.265)" fill="#030303"/>
  <path id="Trazado_646619" data-name="Trazado 646619" d="M1319.217,537.819c.524,0,1.049-.011,1.573,0a.782.782,0,1,1,.047,1.562q-1.624.033-3.25,0a.781.781,0,0,1,.057-1.561C1318.168,537.809,1318.693,537.819,1319.217,537.819Z" transform="translate(-1291.493 -535.302)" fill="#030303"/>
  <path id="Trazado_646620" data-name="Trazado 646620" d="M1304.835,539.417a.8.8,0,0,1-.789-.808.79.79,0,0,1,1.579,0A.8.8,0,0,1,1304.835,539.417Z" transform="translate(-1281.395 -535.318)" fill="#030506"/>
  <path id="Trazado_646621" data-name="Trazado 646621" d="M1279.763,588.333q-4.516,0-9.033,0a1.86,1.86,0,0,1-2.064-2.084q0-5.779,0-11.557a1.827,1.827,0,0,1,2.031-2.053,5.484,5.484,0,0,0,2.653-.575,6,6,0,0,1,6.2.161.331.331,0,0,0,.418.006,6.1,6.1,0,0,1,6.337-.107,4.119,4.119,0,0,0,2.3.507,3.351,3.351,0,0,1,.472,0,1.788,1.788,0,0,1,1.763,1.788q.018,6.068,0,12.135a1.787,1.787,0,0,1-1.879,1.777Q1284.359,588.34,1279.763,588.333Zm-6.541-2.648c-.43.034-.859.351-1.291,0a1.376,1.376,0,0,1-.242-.889q.011-4.859,0-9.717c0-.984.154-.837-.854-.875-.459-.017-.611.14-.605.6.021,1.821.006,3.642.01,5.463,0,1.8.015,3.606.022,5.409-.082,1.067-.082,1.067.991,1.067h6.674c1.065,0,1.065,0,1.015-1.062.08-.35-.2-.452-.416-.58a5.077,5.077,0,0,0-5.168.368C1273.3,585.512,1273.268,585.614,1273.223,585.685Zm13.093-.1a6.3,6.3,0,0,0-2-.865,4.2,4.2,0,0,0-3.464.478c-.182.114-.367.223-.294.489-.006.1-.016.209-.017.314-.011.744-.01.745.717.745,2.327,0,4.654.007,6.981,0,1.016,0,1.062.228,1.006-1.055q.008-4.12.015-8.24c0-.909-.01-1.82,0-2.729.006-.354-.112-.531-.483-.5a1.926,1.926,0,0,1-.419,0c-.407-.056-.5.133-.494.511.023.874.017,1.749,0,2.624-.01.719-.218.973-.852,1.1a.825.825,0,0,1-.765-.949q0-.972,0-1.945c0-1.978-.06-2.058-2.03-2.534a4.2,4.2,0,0,0-3.377.5.527.527,0,0,0-.313.489c.018,2.8.019,5.606.024,8.409v1.113a6.542,6.542,0,0,1,5.676.173,2.372,2.372,0,0,0,.022-.243c-.007-.278-.019-.556-.029-.834.009-.524.034-1.049.023-1.573a.928.928,0,0,1,.779-1.065c.662.227.839.454.843,1.147.007,1.209,0,2.418,0,3.627a1.663,1.663,0,0,1-.2.8A.991.991,0,0,1,1286.316,585.585Zm-7.371-3.051q.01-3.991.019-7.982c0-.93-.053-1.02-.938-1.363a5.33,5.33,0,0,0-4.576.558c-.176.091-.184.226-.183.388q.013,4.254.021,8.507v1.075a6.521,6.521,0,0,1,5.657-.186Z" transform="translate(-1253.469 -561.718)" fill="#020202"/>
  <path id="Trazado_646622" data-name="Trazado 646622" d="M1287.851,687.526q-3.886,0-7.771,0a2.1,2.1,0,0,1-.57-.051.715.715,0,0,1-.553-.835.706.706,0,0,1,.678-.678,4.013,4.013,0,0,1,.472-.013h15.543c.07,0,.14,0,.21,0,.606.013.973.316.963.8s-.383.78-.99.781Q1291.841,687.529,1287.851,687.526Z" transform="translate(-1261.587 -652.222)" fill="#030506"/>
  <path id="Trazado_646623" data-name="Trazado 646623" d="M1287.811,668.221q-3.965,0-7.929,0a.922.922,0,0,1-.8-.3.79.79,0,0,1,.479-1.266,2.413,2.413,0,0,1,.471-.018h15.647a3.064,3.064,0,0,1,.367.006.811.811,0,0,1,.742.81.768.768,0,0,1-.785.755c-1.067.016-2.135.007-3.2.007Z" transform="translate(-1261.554 -636.984)" fill="#020202"/>
  <path id="Trazado_646624" data-name="Trazado 646624" d="M1318.416,731.053c0-.437.187-.657.6-.666a.577.577,0,0,1,.651.6.61.61,0,0,1-.62.649A.565.565,0,0,1,1318.416,731.053Z" transform="translate(-1292.738 -687.3)" fill="#435968"/>
  <path id="Trazado_646625" data-name="Trazado 646625" d="M1331.5,586a.928.928,0,0,0-.779,1.065c.011.524-.014,1.049-.023,1.573-.215-.068-.437-.121-.645-.206a5.675,5.675,0,0,0-4.721-.062,1.307,1.307,0,0,1-.3.059c-.005-2.8-.006-5.606-.024-8.409a.527.527,0,0,1,.313-.489,4.2,4.2,0,0,1,3.377-.5c1.97.476,2.03.556,2.031,2.534q0,.972,0,1.945a.825.825,0,0,0,.765.949Q1331.494,585.225,1331.5,586Z" transform="translate(-1297.937 -567.714)" fill="#f2fbfd"/>
  <path id="Trazado_646626" data-name="Trazado 646626" d="M1290.525,588.645q-.01-4.254-.022-8.507c0-.163.008-.3.183-.389a5.331,5.331,0,0,1,4.576-.558c.885.343.94.433.938,1.363q-.008,3.991-.019,7.982a5.313,5.313,0,0,0-3.629-.537C1291.843,588.125,1291.214,588.474,1290.525,588.645Z" transform="translate(-1270.706 -567.721)" fill="#f2fbfd"/>
  <path id="Trazado_646627" data-name="Trazado 646627" d="M1355.8,590.961q0-.771-.01-1.542c.635-.132.842-.385.852-1.1.012-.875.019-1.75,0-2.624-.01-.379.087-.567.494-.511a1.925,1.925,0,0,0,.419,0c.371-.031.488.146.482.5-.015.909,0,1.82,0,2.729q-.007,4.12-.015,8.24c-.522-.059-1.062.139-1.571-.111a1.663,1.663,0,0,0,.2-.8c0-1.209,0-2.418,0-3.627C1356.636,591.415,1356.459,591.187,1355.8,590.961Z" transform="translate(-1322.235 -572.679)" fill="#314252"/>
  <path id="Trazado_646628" data-name="Trazado 646628" d="M1276.135,596.638c-.008-1.8-.019-3.606-.022-5.409,0-1.821.012-3.642-.009-5.463-.005-.461.147-.619.605-.6,1.008.038.852-.109.854.875q.01,4.859,0,9.717a1.38,1.38,0,0,0,.242.889Z" transform="translate(-1259.34 -572.675)" fill="#435968"/>
  <path id="Trazado_646629" data-name="Trazado 646629" d="M1332.148,639.128c.509.25,1.049.052,1.571.111.055,1.283.009,1.051-1.006,1.055-2.327.01-4.654,0-6.981,0-.727,0-.728,0-.717-.745,0-.1.011-.209.017-.314q2.636,0,5.271,0c.167,0,.353.055.489-.1A.992.992,0,0,0,1332.148,639.128Z" transform="translate(-1297.944 -615.269)" fill="#293845"/>
  <path id="Trazado_646630" data-name="Trazado 646630" d="M1276.137,639.623l1.668.008c.432.346.861.029,1.291,0h5.722c.049,1.062.049,1.062-1.015,1.062h-6.674C1276.055,640.69,1276.055,640.69,1276.137,639.623Z" transform="translate(-1259.341 -615.659)" fill="#314252"/>
  <path id="Trazado_646631" data-name="Trazado 646631" d="M1325.117,622.145a1.312,1.312,0,0,0,.3-.059,5.676,5.676,0,0,1,4.721.061c.208.086.429.138.645.206.01.278.021.556.029.834a2.346,2.346,0,0,1-.022.243,6.543,6.543,0,0,0-5.677-.173Z" transform="translate(-1298.027 -601.434)" fill="#d0e2ea"/>
  <path id="Trazado_646632" data-name="Trazado 646632" d="M1290.6,622.391c.689-.172,1.318-.52,2.028-.646a5.314,5.314,0,0,1,3.629.537v1a6.52,6.52,0,0,0-5.657.186Z" transform="translate(-1270.786 -601.467)" fill="#d4e8f1"/>
  <path id="Trazado_646633" data-name="Trazado 646633" d="M1296.021,635.387H1290.3c.045-.072.073-.173.138-.211a5.077,5.077,0,0,1,5.168-.368C1295.824,634.935,1296.1,635.037,1296.021,635.387Z" transform="translate(-1270.544 -611.418)" fill="#435968"/>
  <path id="Trazado_646634" data-name="Trazado 646634" d="M1330.8,635.278c-.136.159-.322.1-.489.1q-2.636,0-5.271,0c-.073-.266.113-.375.295-.489a4.2,4.2,0,0,1,3.464-.478A6.305,6.305,0,0,1,1330.8,635.278Z" transform="translate(-1297.955 -611.411)" fill="#314252"/>
</svg>
