<svg xmlns="http://www.w3.org/2000/svg" width="111.679" height="111.679" viewBox="0 0 111.679 111.679">
  <g id="Grupo_988728" data-name="Grupo 988728" transform="translate(-742.161 -7484.768)">
    <g id="Grupo_988722" data-name="Grupo 988722" transform="translate(-2 6119.607)">
      <g id="Grupo_985926" data-name="Grupo 985926" transform="translate(309.161 -2975.84)">
        <circle id="Elipse_7706" data-name="Elipse 7706" cx="55.839" cy="55.839" r="55.839" transform="translate(435 4341)" fill="#006475"/>
      </g>
    </g>
    <g id="Grupo_988725" data-name="Grupo 988725" transform="translate(748.458 7486.656)">
      <path id="Trazado_646834" data-name="Trazado 646834" d="M1315.228-59.817a14.529,14.529,0,0,1,13.312-11.161c6.839-.295,11.619,3.206,14.73,10.732a9.956,9.956,0,0,1,4.278-2.411,5.44,5.44,0,0,1,1.07-.22c5.3-.132,10.63-.692,15.742,1.436a20.739,20.739,0,0,1,12.836,18.93c.044,20.075.013,40.15.034,60.226,0,.677-.2.8-.83.8q-13.577-.029-27.154,0c-.675,0-.806-.2-.8-.83.026-4.528,0-9.055.029-13.583a1.056,1.056,0,0,0-.731-1.19A11.77,11.77,0,0,1,1343.924.25c-2.164-2.166-4.345-4.316-6.482-6.508-.482-.495-.753-.471-1.273-.038-3.374,2.81-6.783,5.578-10.181,8.359a7.822,7.822,0,0,1-11.12-.523c-.465-.463-.885-.972-1.359-1.5a1.472,1.472,0,0,0-.19,1.08c-.009,5.493-.023,10.986.013,16.48,0,.745-.172.922-.919.92q-16.672-.041-33.344,0c-.74,0-.925-.165-.922-.917.032-7.591.012-15.181.021-22.772a19.229,19.229,0,0,1,15.451-19.173,3.821,3.821,0,0,1,.587-.107.421.421,0,0,0,.414-.359c.076-.3-.209-.292-.358-.364-.566-.275-1.173-.473-1.713-.79a9.305,9.305,0,0,1-4.486-5.965c-.134-.541-.324-.7-.892-.756a6.336,6.336,0,0,1-4.781-9.751,1.425,1.425,0,0,0,.176-1.2c-.363-1.517-.824-3.01-1.06-4.558a12.963,12.963,0,0,1,12.43-14.8c4.325-.065,8.652-.04,12.978,0A12.868,12.868,0,0,1,1315.228-59.817ZM1349.57-9.143a1.507,1.507,0,0,0,.22-.3,23.15,23.15,0,0,1,4.731-8.005,1.342,1.342,0,0,0,.33-.994c-.009-2.363-.019-4.726.007-7.088.006-.522-.1-.694-.674-.771a6.29,6.29,0,0,1-5.445-4.477,7.5,7.5,0,0,1-.273-2.864c.025-.478-.128-.59-.606-.615-3.693-.2-5.336-3.5-3.3-6.606q.956-1.459,1.932-2.9c.2-.3.387-.573-.086-.791a10.085,10.085,0,0,1-4.879-4.547,15.979,15.979,0,0,1-4.608,4.7,2.949,2.949,0,0,0-1.238,2.591c0,1.5.028,3-.011,4.492a4.778,4.778,0,0,1-4.658,4.665c-1.1.032-2.2.022-3.293,0a4.788,4.788,0,0,1-4.815-4.815c-.019-1.43-.006-2.862,0-4.293a3.026,3.026,0,0,0-.768-2.2c-.871-.9-2.013-1.452-2.921-2.479-.273,1.092-.469,1.967-.715,2.828a1.36,1.36,0,0,0,.189,1.193,6.332,6.332,0,0,1-4.809,9.731c-.591.06-.747.259-.879.774a9.464,9.464,0,0,1-5.282,6.38c-.267.13-.567.2-.83.332-.172.089-.514.038-.436.4.06.276.265.349.52.363a2.423,2.423,0,0,1,.39.08c7.716,1.772,12.673,6.481,14.885,14.068.208.712.35.7.854.281q3.724-3.09,7.483-6.135a1.65,1.65,0,0,0,.56-.894,6.028,6.028,0,0,1,2.233-3.215,5.679,5.679,0,0,1,9.043,2.737c.266.785.525,1.573.784,2.361a1.789,1.789,0,0,0,.4.895Q1346.575-11.7,1349.57-9.143Zm-56.648,2.374c-.476-4.3-.936-8.4-1.379-12.5-.122-1.125-.1-1.128-1.138-.626a16.241,16.241,0,0,0-9.058,15.436c.03.507.2.6.648.59,1.663-.02,3.328-.035,4.991.006.607.016.792-.137.78-.766-.041-2.23-.016-4.461-.016-6.691,0-2.149,0-2.089,2.165-2.174.944-.037,1.051.3,1.049,1.113-.028,8.922-.008,17.844-.035,26.766,0,.73.152.942.916.937q8.635-.055,17.27,0c.844.006,1.023-.219,1.02-1.037-.033-8.456-.02-16.912-.02-25.368,0-2.478,0-2.462,2.526-2.4.5.012.725.112.68.66s.013,1.132-.017,1.7c-.027.5.055.722.649.581a23.111,23.111,0,0,0,3.688-1.2c.531-.225.595-.459.331-.967a16.209,16.209,0,0,0-7.611-7.346c-.51-.244-.754-.238-.819.423-.252,2.549-.542,5.094-.823,7.64-.185,1.671-.377,3.342-.566,5.014l-.307.192a5.043,5.043,0,0,0-.55-.83c-2.013-2.035-4.069-4.028-6.049-6.1-.6-.625-.9-.549-1.459.03C1297.593-11.408,1295.341-9.193,1292.922-6.769Zm53.889-41.321c.078-.289.158-.568.228-.849a5.492,5.492,0,0,1,4.438-4.346,5.192,5.192,0,0,1,5.645,2.111,28.89,28.89,0,0,0,7.1,6.795,3.428,3.428,0,0,0,1.425.628,6.123,6.123,0,0,1,5.16,6.561,6.629,6.629,0,0,1-2.385,4.463c-.376.345-.815.638-.8,1.292.038,2.13.025,4.261.006,6.391,0,.449.149.7.589.746a10.645,10.645,0,0,1,5.808,2.472v-.756q0-9.986,0-19.973a15.97,15.97,0,0,0-.4-3.36,17.5,17.5,0,0,0-14.941-13.722,72.5,72.5,0,0,0-9.17-.134,5.734,5.734,0,0,0-3.545,1.439C1342.614-55.634,1343.064-49.957,1346.811-48.089Zm27.206,40.81c-4.568,3.048-9.025,6-13.456,8.988a13.054,13.054,0,0,1-8.173,2.384c-.551-.029-.751.077-.747.676q.041,4.944,0,9.889c0,.545.181.658.686.657q10.534-.022,21.067,0c.462,0,.633-.112.632-.607C1374.012,7.417,1374.017.129,1374.017-7.28Zm-43.132-39.913q0,2.2,0,4.392c0,.308-.026.681.432.555.407-.112,1.091.433,1.2-.394.312-2.29,1.675-3.765,3.483-5.081a11.014,11.014,0,0,0,3.783-12.737,11.2,11.2,0,0,0-11.3-7.327,11.262,11.262,0,0,0-10.1,8.674,5.335,5.335,0,0,0,.3,4.15,5.88,5.88,0,0,1,.776,2.661,4.92,4.92,0,0,0,1.452,3.077,8.984,8.984,0,0,0,1.924,1.729A6.359,6.359,0,0,1,1326-42.778c.123.934.783.452,1.212.534.624.119.472-.385.473-.712.007-2.729-.013-5.457.016-8.186a1.276,1.276,0,0,0-.783-1.369,4.655,4.655,0,0,1-2.321-5.07,4.831,4.831,0,0,1,4.217-3.811,4.812,4.812,0,0,1,4.877,2.915,4.268,4.268,0,0,1-1.308,5.369c-1.521.942-1.594,2.086-1.508,3.52C1330.924-48.793,1330.885-47.992,1330.885-47.193ZM1301.2-59.8c-2.81,0-5.009-.061-7.2.015a9.351,9.351,0,0,0-7.193,3.555,9.8,9.8,0,0,0-1.821,9.205c.51,1.914.482,1.908,2.417,1.618a.589.589,0,0,0,.586-.514,7.989,7.989,0,0,1,5.629-5.817c.273-.086.683-.139.573-.544-.343-1.254.458-1.171,1.255-1.137a9.791,9.791,0,0,0,1.2,0c.483-.039.651.125.758.63a3.563,3.563,0,0,0,3.348,3.048c1.751.19,3.5.388,5.258.527a7.873,7.873,0,0,1,5.175,2.026,5.889,5.889,0,0,0,3.536,1.95,1.368,1.368,0,0,1,.291.067c.416.2.6.041.69-.381.155-.714.355-1.418.522-2.13a9.727,9.727,0,0,0-7.96-11.957C1305.72-60.055,1303.147-59.7,1301.2-59.8Zm-10.257,20.7c0,1.631-.02,3.262,0,4.893a6.378,6.378,0,0,0,6.35,6.359c2.129.029,4.258.024,6.388,0a6.376,6.376,0,0,0,6.42-6.39c.029-2.629.02-5.259,0-7.889a3.59,3.59,0,0,0-3.274-3.746c-1.778-.239-3.568-.413-5.357-.549a7.833,7.833,0,0,1-5.474-2.267c-.154-.166-.28-.325-.576-.3a5.21,5.21,0,0,0-4.476,4.89C1290.923-42.434,1290.948-40.77,1290.948-39.105Zm67.1,18.323a24.383,24.383,0,0,1,5.99-3.226c.455-.164.4-.458.4-.779a51.657,51.657,0,0,0-.032-5.19c-.228-2.282.22-4.174,2.225-5.5a.783.783,0,0,0,.14-.142,2.839,2.839,0,0,0,.61-3.225,2.839,2.839,0,0,0-2.759-1.783,1.885,1.885,0,0,1-1.2-.361c-3.237-2.4-6.523-4.727-8.772-8.195a2.324,2.324,0,0,0-2.732-.925,2.517,2.517,0,0,0-1.851,2.44c-.028.764-.039,1.533,0,2.3a5.734,5.734,0,0,1-1.141,3.735c-.543.755-1.045,1.541-1.548,2.324-.277.431-.732.829-.385,1.433.314.544.847.433,1.336.437a21.5,21.5,0,0,0,2.394-.016c.834-.087.984.257.949,1-.057,1.2-.023,2.4-.013,3.6a3.2,3.2,0,0,0,3.445,3.417c1.8.01,3.595.033,5.391-.014.633-.016.824.173.755.78-.088.783.332,1.826-.172,2.288-.424.389-1.447.123-2.2.146a.592.592,0,0,1-.1,0c-.534-.081-.757.086-.74.684C1358.071-24.035,1358.043-22.5,1358.043-20.783Zm15.975,6.219a5.111,5.111,0,0,0-.216-1.679,6.737,6.737,0,0,0-8.212-4.869c-6.62,2.119-10.889,6.87-13.05,13.5A1.134,1.134,0,0,0,1353-6.175c.538.428.794-.046,1.1-.257q6.137-4.27,12.254-8.569c1.995-1.4,1.966-1.373,3.362.6.419.593.227.818-.258,1.146-1.377.929-2.731,1.893-4.093,2.844-2.321,1.621-2.355,1.831-.681,4.181.1.135.218.253.306.393.244.387.5.427.893.157,1.835-1.26,3.719-2.45,5.527-3.748A6.294,6.294,0,0,0,1374.018-14.563Zm-13.45,7.521c-2.267,1.585-4.488,3.107-6.668,4.683a.929.929,0,0,1-1.411-.042c-2.852-2.5-5.659-5.064-8.655-7.382a10.7,10.7,0,0,1-4.439-6.655,2.982,2.982,0,0,0-.328-.83,1.818,1.818,0,0,0-1.423-.975,3.052,3.052,0,0,0-3.2,1.537,2.81,2.81,0,0,0,.551,3.474c3.847,3.87,7.674,7.764,11.594,11.559a9.254,9.254,0,0,0,11.157,1.346c1.554-.89,3-1.961,4.508-2.939.3-.193.432-.351.152-.679A14.115,14.115,0,0,1,1360.567-7.043Zm-41.354-1.879a21.072,21.072,0,0,1-5.5,1.654c-.166.024-.306.047-.388.236a4.727,4.727,0,0,0,.5,3c1.174,1.178,2.338,2.366,3.529,3.527a4.606,4.606,0,0,0,6.258.359c3.5-2.812,6.946-5.688,10.437-8.51.486-.392.407-.594.019-.975a10.064,10.064,0,0,1-2.189-2.439c-.344-.68-.607-.539-1.072-.155q-5.231,4.319-10.487,8.607c-1.208.991-1.2.994-2.181-.21-1.047-1.292-1.047-1.292.3-2.389C1319.764-7.293,1319.764-7.293,1319.214-8.921ZM1281.362,7.211c0,2.461.016,4.922-.012,7.383-.006.556.138.736.711.723q2.492-.056,4.986,0c.565.012.719-.154.716-.717q-.032-7.283,0-14.566c0-.555-.137-.736-.71-.723q-2.492.056-4.986,0c-.565-.012-.724.153-.717.717C1281.379,2.422,1281.362,4.817,1281.362,7.211Zm47.866-43.049h.8c2.064,0,2.585-.572,2.468-2.628-.024-.413-.109-.583-.558-.578q-2.64.033-5.28,0c-.428,0-.55.124-.576.56-.123,2.057.4,2.644,2.452,2.645ZM1300.6-24.651c-.564,0-1.13-.031-1.69.011-.379.028-.872-.252-1.089.366a1.347,1.347,0,0,0,.126,1.538c.752.88,1.434,1.824,2.1,2.775.353.508.553.636.961.03a30.309,30.309,0,0,1,2.152-2.856c.483-.56.236-1.023.054-1.543-.2-.565-.671-.278-1.02-.309C1301.662-24.686,1301.129-24.651,1300.6-24.651Zm12.713-14.456c0,.9.024,1.793-.009,2.688-.019.5.132.632.622.536a3.291,3.291,0,0,0,2.579-3.13,3.288,3.288,0,0,0-2.536-3.163c-.546-.12-.693.044-.667.581C1313.341-40.768,1313.311-39.937,1313.311-39.107Zm-25.56.07c0-.863-.022-1.727.009-2.589.016-.465-.075-.664-.6-.57a3.29,3.29,0,0,0-2.6,3.112,3.278,3.278,0,0,0,2.608,3.2c.4.069.613.023.594-.469C1287.727-37.243,1287.751-38.141,1287.751-39.037Zm7.622,25.294c1-1,1.838-1.883,2.717-2.723.35-.334.184-.553-.03-.835-.9-1.186-1.789-2.38-2.684-3.57-.156-.208-.3-.485-.619-.385-.383.118-.191.447-.166.672C1294.832-18.382,1295.092-16.181,1295.374-13.743Zm10.309.037c.288-2.49.55-4.722.8-6.957.022-.2.17-.478-.154-.593-.275-.1-.431.1-.571.283-.934,1.244-1.854,2.5-2.8,3.729-.263.341-.213.546.076.83C1303.871-15.583,1304.688-14.724,1305.682-13.706Zm23.652-44.505a1.611,1.611,0,0,0-1.642,1.523,1.616,1.616,0,0,0,1.5,1.667,1.614,1.614,0,0,0,1.693-1.572A1.611,1.611,0,0,0,1329.334-58.212Z" transform="translate(-1278.146 80.633)" fill="#020202"/>
      <path id="Trazado_646835" data-name="Trazado 646835" d="M1384.911-85.667c-.837.368-1.674.732-2.507,1.1-.463.206-.567-.113-.684-.443-.077-.217-.186-.423-.274-.637-.557-1.344-1.095-2.7-1.677-4.028-.192-.439-.208-.652.307-.882,2.366-1.058,2.355-1.077,3.339,1.3C1383.882-88.121,1384.357-86.994,1384.911-85.667Z" transform="translate(-1339.02 92.773)" fill="#060606"/>
      <path id="Trazado_646836" data-name="Trazado 646836" d="M1424.871-90.36c-.054.122-.111.241-.161.363-.644,1.559-1.308,3.109-1.917,4.681-.207.535-.416.6-.945.385-2.311-.917-2.319-.9-1.379-3.172.429-1.039.879-2.07,1.269-3.124.185-.5.417-.568.87-.35.6.286,1.216.518,1.824.778C1424.633-90.713,1424.9-90.684,1424.871-90.36Z" transform="translate(-1363.152 93.047)" fill="#060606"/>
      <path id="Trazado_646837" data-name="Trazado 646837" d="M1405.111-91.736v.7c0,2.643,0,2.633-2.695,2.412-.38-.031-.513-.12-.509-.512q.026-2.7,0-5.391c0-.387.114-.559.506-.5a.557.557,0,0,0,.1,0c2.6-.13,2.6-.13,2.6,2.5Z" transform="translate(-1352.371 95.074)" fill="#020202"/>
      <path id="Trazado_646838" data-name="Trazado 646838" d="M1297.677,69.326c2.419-2.424,4.671-4.639,6.867-6.91.56-.579.861-.655,1.459-.03,1.979,2.067,4.036,4.06,6.048,6.1a5.027,5.027,0,0,1,.55.83l.307-.192c.189-1.671.381-3.342.566-5.014.281-2.546.571-5.091.823-7.64.065-.66.309-.667.819-.423a16.208,16.208,0,0,1,7.611,7.346c.264.509.2.742-.331.967a23.118,23.118,0,0,1-3.688,1.2c-.594.141-.676-.083-.649-.581.03-.564-.029-1.135.017-1.7s-.177-.647-.68-.66c-2.527-.064-2.526-.08-2.526,2.4,0,8.456-.013,16.912.02,25.368,0,.818-.176,1.043-1.02,1.037q-8.635-.063-17.27,0c-.764,0-.918-.207-.916-.937.026-8.922.007-17.844.035-26.766,0-.816-.1-1.15-1.049-1.113-2.163.084-2.165.024-2.165,2.174,0,2.231-.025,4.462.016,6.691.012.63-.173.782-.78.766-1.663-.042-3.328-.026-4.991-.006-.445.006-.618-.083-.648-.59A16.241,16.241,0,0,1,1295.16,56.2c1.041-.5,1.016-.5,1.138.626C1296.74,60.926,1297.2,65.023,1297.677,69.326Zm7.537-.3c1.671,0,1.671,0,1.671-1.626,0-1.572,0-1.572-1.525-1.572-1.671,0-1.671,0-1.671,1.626C1303.688,69.025,1303.688,69.025,1305.214,69.025Zm.139,3.195c-1.665,0-1.665,0-1.665,1.632,0,1.566,0,1.566,1.532,1.566,1.664,0,1.664,0,1.664-1.632C1306.884,72.22,1306.884,72.22,1305.353,72.22Zm-.114,9.591c1.646,0,1.646,0,1.646-1.65,0-1.547,0-1.547-1.55-1.547-1.646,0-1.646,0-1.646,1.65C1303.688,81.811,1303.688,81.811,1305.239,81.811Z" transform="translate(-1282.901 4.538)" fill="#80b0eb"/>
      <path id="Trazado_646839" data-name="Trazado 646839" d="M1445.045-31.394c-3.746-1.867-4.2-7.545-.853-10.245a5.734,5.734,0,0,1,3.545-1.439,72.5,72.5,0,0,1,9.17.134,17.5,17.5,0,0,1,14.941,13.722,15.97,15.97,0,0,1,.4,3.36q0,9.987,0,19.973v.756a10.645,10.645,0,0,0-5.808-2.472c-.44-.043-.593-.3-.589-.746.019-2.13.032-4.261-.006-6.391-.011-.654.428-.948.8-1.292a6.629,6.629,0,0,0,2.385-4.463,6.123,6.123,0,0,0-5.16-6.561,3.428,3.428,0,0,1-1.425-.628,28.89,28.89,0,0,1-7.1-6.795,5.192,5.192,0,0,0-5.645-2.111,5.492,5.492,0,0,0-4.438,4.346C1445.2-31.962,1445.122-31.683,1445.045-31.394Z" transform="translate(-1376.38 63.937)" fill="#656c76"/>
      <path id="Trazado_646840" data-name="Trazado 646840" d="M1484.143,88.193c0,7.409,0,14.7.01,21.985,0,.494-.171.608-.632.607q-10.534-.018-21.067,0c-.5,0-.69-.112-.686-.657q.036-4.944,0-9.889c0-.6.2-.7.746-.676a13.054,13.054,0,0,0,8.173-2.384C1475.119,94.192,1479.575,91.241,1484.143,88.193Z" transform="translate(-1388.272 -14.84)" fill="#ee8773"/>
      <path id="Trazado_646841" data-name="Trazado 646841" d="M1390.775-42.419c0-.8.039-1.6-.009-2.4-.086-1.434-.012-2.578,1.508-3.52a4.268,4.268,0,0,0,1.308-5.369,4.812,4.812,0,0,0-4.877-2.915,4.831,4.831,0,0,0-4.217,3.811,4.655,4.655,0,0,0,2.321,5.07,1.276,1.276,0,0,1,.783,1.369c-.029,2.728-.009,5.457-.016,8.186,0,.328.152.832-.473.712-.428-.082-1.088.4-1.212-.534a6.359,6.359,0,0,0-3.158-4.717,8.987,8.987,0,0,1-1.925-1.729,4.923,4.923,0,0,1-1.452-3.077,5.877,5.877,0,0,0-.776-2.661,5.336,5.336,0,0,1-.3-4.15,11.263,11.263,0,0,1,10.1-8.674,11.2,11.2,0,0,1,11.3,7.327,11.014,11.014,0,0,1-3.783,12.737c-1.808,1.316-3.171,2.791-3.483,5.081-.113.828-.8.282-1.2.394-.459.126-.433-.247-.432-.555Q1390.778-40.223,1390.775-42.419Z" transform="translate(-1338.037 75.859)" fill="#f9e7ad"/>
      <path id="Trazado_646842" data-name="Trazado 646842" d="M1310.822-43.1c1.943.107,4.516-.253,7.058.156a9.727,9.727,0,0,1,7.96,11.957c-.166.712-.366,1.416-.521,2.13-.092.421-.274.582-.69.381a1.369,1.369,0,0,0-.291-.067,5.889,5.889,0,0,1-3.536-1.95,7.873,7.873,0,0,0-5.175-2.026c-1.755-.138-3.507-.337-5.258-.527a3.563,3.563,0,0,1-3.348-3.048c-.107-.5-.275-.669-.758-.63a9.791,9.791,0,0,1-1.2,0c-.8-.034-1.6-.118-1.255,1.137.11.405-.3.457-.573.544a7.989,7.989,0,0,0-5.629,5.817.589.589,0,0,1-.586.514c-1.934.29-1.906.3-2.417-1.618a9.8,9.8,0,0,1,1.821-9.205,9.352,9.352,0,0,1,7.193-3.555C1305.813-43.161,1308.012-43.1,1310.822-43.1Z" transform="translate(-1287.764 63.929)" fill="#a87a4d"/>
      <path id="Trazado_646843" data-name="Trazado 646843" d="M1310.116-6.134c0-1.664-.025-3.329.006-4.992a5.21,5.21,0,0,1,4.476-4.89c.3-.03.422.13.576.3a7.833,7.833,0,0,0,5.474,2.267c1.79.136,3.579.309,5.357.549a3.589,3.589,0,0,1,3.274,3.746c.018,2.63.027,5.259,0,7.889a6.376,6.376,0,0,1-6.42,6.39c-2.129.022-4.259.028-6.387,0a6.378,6.378,0,0,1-6.35-6.359C1310.1-2.872,1310.116-4.5,1310.116-6.134Zm8.485,8.062v0c.963,0,1.927.028,2.889-.006a4.82,4.82,0,0,0,4.381-3.348c.43-1.383.391-1.437-1.012-1.438-.332,0-.666.018-1,0-.548-.036-.966-.022-1.172.679a1.463,1.463,0,0,1-1.6.926c-1.262-.009-2.524,0-3.785,0-2.537,0-2.521,0-2.411,2.6.021.477.146.625.62.61C1316.542,1.906,1317.572,1.928,1318.6,1.928Zm7.484-9.616a1.6,1.6,0,0,0-1.594-1.569,1.6,1.6,0,0,0-1.593,1.668,1.61,1.61,0,0,0,1.642,1.521A1.611,1.611,0,0,0,1326.085-7.688Zm-9.585.064a1.607,1.607,0,0,0-1.53-1.633,1.606,1.606,0,0,0-1.656,1.5,1.608,1.608,0,0,0,1.577,1.684A1.611,1.611,0,0,0,1316.5-7.624Z" transform="translate(-1297.314 47.661)" fill="#e9cfb6"/>
      <path id="Trazado_646844" data-name="Trazado 646844" d="M1461.012,10.334c0-1.72.029-3.252-.014-4.782-.017-.6.206-.766.74-.684a.592.592,0,0,0,.1,0c.758-.024,1.78.242,2.2-.146.5-.462.084-1.5.172-2.288.068-.607-.122-.8-.755-.78-1.8.047-3.594.024-5.391.014a3.2,3.2,0,0,1-3.445-3.417c-.01-1.2-.043-2.4.013-3.6.035-.738-.115-1.082-.949-1a21.5,21.5,0,0,1-2.394.016c-.489,0-1.022.107-1.336-.437-.347-.6.108-1,.385-1.433.5-.783,1-1.569,1.548-2.324a5.734,5.734,0,0,0,1.141-3.735c-.037-.764-.026-1.532,0-2.3a2.517,2.517,0,0,1,1.851-2.44,2.324,2.324,0,0,1,2.732.925c2.249,3.468,5.535,5.8,8.772,8.195a1.884,1.884,0,0,0,1.2.361,2.839,2.839,0,0,1,2.759,1.783,2.838,2.838,0,0,1-.61,3.225.783.783,0,0,1-.14.142c-2.005,1.323-2.453,3.215-2.225,5.5a51.657,51.657,0,0,1,.032,5.19c0,.321.056.615-.4.779A24.383,24.383,0,0,0,1461.012,10.334Z" transform="translate(-1381.115 49.516)" fill="#e9cfb6"/>
      <path id="Trazado_646845" data-name="Trazado 646845" d="M1485.355,59.811a6.294,6.294,0,0,1-2.613,5.137c-1.807,1.3-3.691,2.488-5.527,3.748-.394.27-.648.23-.892-.157-.088-.14-.21-.258-.306-.393-1.673-2.35-1.639-2.56.681-4.181,1.362-.951,2.716-1.915,4.093-2.844.485-.327.676-.552.258-1.146-1.4-1.976-1.367-2-3.362-.6q-6.125,4.287-12.254,8.569c-.3.212-.562.685-1.1.257a1.134,1.134,0,0,1-.456-1.438c2.161-6.629,6.429-11.38,13.049-13.5a6.737,6.737,0,0,1,8.212,4.869A5.108,5.108,0,0,1,1485.355,59.811Z" transform="translate(-1389.483 6.259)" fill="#ec8672"/>
      <path id="Trazado_646846" data-name="Trazado 646846" d="M1444.366,71.949a14.119,14.119,0,0,0,1.834,3.1c.28.328.145.486-.152.679-1.5.977-2.954,2.049-4.508,2.939a9.254,9.254,0,0,1-11.157-1.346c-3.921-3.8-7.747-7.688-11.594-11.559a2.81,2.81,0,0,1-.551-3.474,3.052,3.052,0,0,1,3.2-1.537,1.818,1.818,0,0,1,1.422.975,2.982,2.982,0,0,1,.329.83,10.7,10.7,0,0,0,4.439,6.655c3,2.318,5.8,4.881,8.655,7.382a.929.929,0,0,0,1.411.042C1439.878,75.055,1442.1,73.534,1444.366,71.949Z" transform="translate(-1361.944 1.641)" fill="#e7ceb4"/>
      <path id="Trazado_646847" data-name="Trazado 646847" d="M1371.809,78.661c.55,1.628.551,1.628-.772,2.7-1.351,1.1-1.351,1.1-.3,2.389.976,1.2.974,1.2,2.181.21q5.245-4.3,10.487-8.607c.465-.384.728-.524,1.072.155a10.063,10.063,0,0,0,2.189,2.439c.388.381.467.583-.019.975-3.491,2.822-6.938,5.7-10.437,8.51a4.606,4.606,0,0,1-6.257-.359c-1.191-1.16-2.356-2.349-3.53-3.527a4.727,4.727,0,0,1-.5-3c.082-.189.222-.212.388-.236A21.07,21.07,0,0,0,1371.809,78.661Z" transform="translate(-1330.741 -6.95)" fill="#e7ceb4"/>
      <path id="Trazado_646848" data-name="Trazado 646848" d="M1286.161,112.558c0-2.394.017-4.789-.013-7.183-.007-.564.152-.73.717-.717q2.492.055,4.986,0c.573-.013.713.168.71.723q-.031,7.283,0,14.566c0,.563-.151.73-.716.717q-2.492-.054-4.986,0c-.573.013-.717-.167-.711-.723C1286.178,117.48,1286.161,115.019,1286.161,112.558Z" transform="translate(-1282.945 -24.714)" fill="#ead0b6"/>
      <path id="Trazado_646849" data-name="Trazado 646849" d="M1401.027,12.039h-.7c-2.049,0-2.575-.588-2.452-2.645.026-.435.148-.565.576-.56q2.64.03,5.28,0c.449-.006.534.164.558.578.117,2.056-.4,2.627-2.468,2.628Z" transform="translate(-1349.946 32.755)" fill="#a9b0b9"/>
      <path id="Trazado_646850" data-name="Trazado 646850" d="M1329.807,44.742c.53,0,1.064-.034,1.59.012.349.031.822-.256,1.02.309.182.52.429.983-.054,1.543a30.309,30.309,0,0,0-2.153,2.856c-.407.605-.608.477-.961-.03-.662-.952-1.344-1.9-2.1-2.775a1.347,1.347,0,0,1-.126-1.538c.218-.618.71-.337,1.09-.366C1328.678,44.711,1329.244,44.742,1329.807,44.742Z" transform="translate(-1307.355 11.239)" fill="#e7ceb4"/>
      <path id="Trazado_646851" data-name="Trazado 646851" d="M1365.984,4.019c0-.83.03-1.661-.01-2.489-.026-.537.122-.7.667-.581a3.288,3.288,0,0,1,2.536,3.163,3.291,3.291,0,0,1-2.579,3.13c-.49.1-.641-.038-.623-.536C1366.009,5.812,1365.984,4.915,1365.984,4.019Z" transform="translate(-1330.819 37.507)" fill="#e7ceb4"/>
      <path id="Trazado_646852" data-name="Trazado 646852" d="M1297.359,4.082c0,.9-.025,1.794.01,2.689.018.493-.193.538-.594.469a3.278,3.278,0,0,1-2.608-3.2,3.29,3.29,0,0,1,2.6-3.112c.523-.095.615.1.6.57C1297.337,2.355,1297.359,3.219,1297.359,4.082Z" transform="translate(-1287.754 37.513)" fill="#e7ceb4"/>
      <path id="Trazado_646853" data-name="Trazado 646853" d="M1319.913,60.755c-.281-2.438-.541-4.639-.781-6.841-.025-.225-.217-.554.166-.672.322-.1.463.177.619.385.895,1.19,1.784,2.384,2.684,3.57.213.282.379.5.03.835C1321.752,58.872,1320.91,59.75,1319.913,60.755Z" transform="translate(-1302.686 6.134)" fill="#6798e0"/>
      <path id="Trazado_646854" data-name="Trazado 646854" d="M1342.594,60.785c-.994-1.018-1.812-1.877-2.656-2.708-.288-.283-.339-.489-.076-.83.951-1.23,1.87-2.485,2.8-3.729.141-.187.3-.381.571-.283.324.115.176.393.154.593C1343.144,56.063,1342.881,58.3,1342.594,60.785Z" transform="translate(-1315.057 6.141)" fill="#6798e0"/>
      <path id="Trazado_646855" data-name="Trazado 646855" d="M1403.574-39.058a1.611,1.611,0,0,1,1.547,1.619,1.614,1.614,0,0,1-1.693,1.572,1.616,1.616,0,0,1-1.5-1.667A1.611,1.611,0,0,1,1403.574-39.058Z" transform="translate(-1352.385 61.479)" fill="#eacc79"/>
      <path id="Trazado_646856" data-name="Trazado 646856" d="M1331.607,83.927c-1.526,0-1.526,0-1.526-1.572,0-1.626,0-1.626,1.671-1.626,1.526,0,1.526,0,1.526,1.572C1333.278,83.927,1333.278,83.927,1331.607,83.927Z" transform="translate(-1309.294 -10.364)" fill="#020202"/>
      <path id="Trazado_646857" data-name="Trazado 646857" d="M1331.746,96.7c1.532,0,1.532,0,1.532,1.566,0,1.632,0,1.632-1.664,1.632-1.532,0-1.532,0-1.532-1.566C1330.081,96.7,1330.081,96.7,1331.746,96.7Z" transform="translate(-1309.294 -19.943)" fill="#020202"/>
      <path id="Trazado_646858" data-name="Trazado 646858" d="M1331.632,115.872c-1.551,0-1.551,0-1.551-1.547,0-1.65,0-1.65,1.646-1.65,1.55,0,1.55,0,1.55,1.547C1333.278,115.872,1333.278,115.872,1331.632,115.872Z" transform="translate(-1309.294 -29.523)" fill="#020202"/>
      <path id="Trazado_646859" data-name="Trazado 646859" d="M1325.72,21.614c-1.03,0-2.059-.022-3.088.01-.475.015-.6-.133-.62-.61-.11-2.6-.126-2.6,2.411-2.6,1.262,0,2.524-.006,3.786,0a1.463,1.463,0,0,0,1.6-.926c.206-.7.624-.714,1.172-.679.331.022.664,0,1,0,1.4,0,1.442.055,1.012,1.438a4.82,4.82,0,0,1-4.381,3.348c-.962.034-1.926.006-2.889.006Z" transform="translate(-1304.433 27.976)" fill="#020202"/>
      <path id="Trazado_646860" data-name="Trazado 646860" d="M1345.251,2.447a1.594,1.594,0,1,1-1.594-1.569A1.611,1.611,0,0,1,1345.251,2.447Z" transform="translate(-1316.48 37.527)" fill="#060606"/>
      <path id="Trazado_646861" data-name="Trazado 646861" d="M1321.3,2.509a1.594,1.594,0,1,1-3.186-.128,1.594,1.594,0,0,1,3.186.128Z" transform="translate(-1302.117 37.529)" fill="#060606"/>
    </g>
  </g>
</svg>
