<svg xmlns="http://www.w3.org/2000/svg" width="111.679" height="111.679" viewBox="0 0 111.679 111.679">
  <g id="Grupo_988729" data-name="Grupo 988729" transform="translate(-1051.661 -7484.768)">
    <g id="Grupo_988723" data-name="Grupo 988723" transform="translate(-2 6119.607)">
      <g id="Grupo_985927" data-name="Grupo 985927" transform="translate(618.661 -2975.84)">
        <circle id="Elipse_7706" data-name="Elipse 7706" cx="55.839" cy="55.839" r="55.839" transform="translate(435 4341)" fill="#006475"/>
      </g>
    </g>
    <g id="Grupo_988726" data-name="Grupo 988726" transform="translate(1055.58 7488.705)">
      <path id="Trazado_646862" data-name="Trazado 646862" d="M1074.43,297.228a9.816,9.816,0,0,1,3.343,4.222,9.233,9.233,0,0,1-.874,8.687c-.908,1.431-1.969,2.754-2.264,4.52a5.5,5.5,0,0,1-1.5,2.449,15.268,15.268,0,0,1,8.685,14.7c-.017.533-.2.615-.668.615q-14.439-.018-28.878,0c-.536,0-.609-.2-.617-.664-.116-6.349,2.5-11.161,8.052-14.3.559-.316.588-.485.171-.939a4.806,4.806,0,0,1-1.245-2.492,5.733,5.733,0,0,0-1.1-2.439,12.307,12.307,0,0,1-2.287-4.533,9.278,9.278,0,0,1,2.927-9.1c.243-.229.5-.44.827-.722a20.04,20.04,0,0,1-3.676-2.3c-.358-.3-.536-.106-.771.13q-6.729,6.736-13.474,13.455c-.407.4-.257.687-.08,1.093a6.655,6.655,0,0,1-8.761,8.83,6.66,6.66,0,0,1,5.13-12.291,1.316,1.316,0,0,0,1.75-.376q6.373-6.426,12.8-12.8c.507-.5.6-.787.129-1.419a18.17,18.17,0,0,1,.026-22.137c.443-.59.364-.857-.12-1.336q-6.5-6.441-12.952-12.941a1.116,1.116,0,0,0-1.493-.328,6.546,6.546,0,0,1-8.12-2.346,6.692,6.692,0,0,1,9.274-9.314,6.542,6.542,0,0,1,2.384,8.111,1.113,1.113,0,0,0,.289,1.5c3.23,3.181,6.427,6.4,9.624,9.611.188.19.277.479.549.633a24.425,24.425,0,0,1,1.416-5.236c.486-1.121,1.589-2.087,1.675-3.174.083-1.047-.809-2.178-1.006-3.348-.507-3.013-.162-6.055-.254-9.083a12.391,12.391,0,0,1,.384-3.312,13.437,13.437,0,0,1,13.75-10.23,13.2,13.2,0,0,1,12.434,11.38,38.543,38.543,0,0,1-.192,11.763c-.19,1.006-.937,2-.843,2.94.091.909.966,1.726,1.442,2.613a10.916,10.916,0,0,1,1,2.739c.208.915.337,1.847.5,2.786.307.1.4-.2.542-.343,3.287-3.273,6.558-6.561,9.855-9.823a.991.991,0,0,0,.244-1.334,6.55,6.55,0,0,1,1.851-7.828,6.69,6.69,0,1,1,3.843,11.869,5.631,5.631,0,0,1-2.4-.653.757.757,0,0,0-1.069.2q-6.643,6.673-13.319,13.313c-.363.361-.4.569-.083,1.014,5.195,7.213,5.2,15.3.017,22.483-.3.416-.344.629.047,1.017q6.683,6.633,13.315,13.319c.465.47.785.335,1.26.128a6.585,6.585,0,0,1,7.824,1.9,6.693,6.693,0,1,1-11.876,3.684,4.779,4.779,0,0,1,.576-2.1c.375-.618.161-.963-.291-1.411q-6.534-6.487-13.016-13.025c-.51-.516-.817-.514-1.344-.068A15.741,15.741,0,0,1,1074.43,297.228Zm-22.758-16.758a15.067,15.067,0,1,0,15.163-15.02A15.1,15.1,0,0,0,1051.672,280.47Zm25.129-35.19a45.132,45.132,0,0,0-.193-5.017,10.076,10.076,0,0,0-9.338-8.281,9.884,9.884,0,0,0-10.179,7.462c-.819,3.491-.382,7.064-.267,10.606a9.521,9.521,0,0,0,.22,1.124c.1.658.325.859.933.382a9.2,9.2,0,0,1,1.682-1.045c.565-.271.6-.487.2-.972a6.616,6.616,0,0,1-1.5-4.558c.028-.835,0-1.672.007-2.509a4.865,4.865,0,0,1,2.7-4.5c1.688-.9,3.423-1.717,5.126-2.593a1.052,1.052,0,0,1,1.07-.013c1.7.875,3.425,1.714,5.125,2.592a4.2,4.2,0,0,1,2.357,2.67,12.726,12.726,0,0,1-.275,7.589c-.279.731-1.342,1.3-1.025,1.972.284.6,1.325.816,1.953,1.3.666.518.873.37,1.071-.4C1076.961,249.2,1076.7,247.278,1076.8,245.279Zm-17.287,9.314a11.764,11.764,0,0,0-4.234,6.7c-.117.492-.159.824.577.822q10.869-.038,21.739,0c.682,0,.737-.253.608-.8a11.982,11.982,0,0,0-3.774-6.356c-.383-.34-.543-.32-.831.119a8.061,8.061,0,0,1-3.271,2.842A8.359,8.359,0,0,1,1059.514,254.594Zm14.45,66.965c-3.789,5.822-11.166,5.11-14.137.4-.295-.467-.479-.287-.768-.036a11.911,11.911,0,0,0-3.789,6.344c-.165.676.057.808.708.806q10.765-.033,21.53,0c.667,0,.86-.151.7-.813A11.849,11.849,0,0,0,1073.964,321.559Zm-7.27-72.851c3.877.313,5.247-1.225,5.126-5.054a3.549,3.549,0,0,0-2.1-3.385,5.113,5.113,0,0,0-5.883-.035,3.686,3.686,0,0,0-2.182,3.54C1061.553,247.436,1062.937,249.023,1066.694,248.708Zm.058,66.961c.523,0,1.046.009,1.568,0a3.357,3.357,0,0,0,3.439-3.435,12.676,12.676,0,0,1,.016-1.671c.268-1.7-.64-2.464-2.011-3.311a5.181,5.181,0,0,0-6.075.012,3.511,3.511,0,0,0-2.029,3.323C1061.518,314.547,1063,315.973,1066.751,315.669Zm7.839-8.533a5.892,5.892,0,0,0-4.008-7.986c-2.021-.482-4.093-.186-6.14-.2a5.849,5.849,0,0,0-5.314,3.118,4.978,4.978,0,0,0-.23,4.894c1.268-1.594,1.266-1.6,4.041-2.982,1.245-.621,2.475-1.66,3.75-1.722,1.325-.065,2.564,1.1,3.842,1.722C1072.058,304.718,1073.7,305.323,1074.59,307.135Zm-39.673-61.775a3.347,3.347,0,1,0,3.358,3.388A3.365,3.365,0,0,0,1034.917,245.361Zm63.588,6.695a3.348,3.348,0,1,0-3.3-3.443A3.382,3.382,0,0,0,1098.505,252.055Zm-63.613,56.919a3.347,3.347,0,1,0,3.384,3.362A3.366,3.366,0,0,0,1034.892,308.974Zm63.6,0a3.348,3.348,0,1,0,3.4,3.346A3.364,3.364,0,0,0,1098.5,308.974Zm-31.764-56.921a12.606,12.606,0,0,0-3.674.606c-.515.161-.592.323-.271.776a5,5,0,0,0,7.914-.01c.331-.476.2-.614-.292-.769A12.5,12.5,0,0,0,1066.732,252.053Zm.431,66.966a13.034,13.034,0,0,0-4.179.623c-.5.158-.471.355-.213.733a5,5,0,0,0,7.911.032c.305-.428.294-.615-.248-.783A12.5,12.5,0,0,0,1067.163,319.019ZM1054.2,265.482c.776.974.776.974,1.741,0Zm23.223-.007c.709.678,1.279,1.262,1.8,0Z" transform="translate(-1014.823 -228.619)" fill="#030302"/>
      <path id="Trazado_646863" data-name="Trazado 646863" d="M1186.949,345.288c-4.708,0-9.417-.016-14.125.018-.71.005-.917-.141-.929-.894a15.434,15.434,0,0,1,2.8-9.442.9.9,0,0,0,.092-1.033,13.435,13.435,0,0,1-1.192-6.2c.093-2.68-.2-5.371.191-8.042a13.418,13.418,0,0,1,13.242-11.239,13.216,13.216,0,0,1,13.132,11.317,40.964,40.964,0,0,1-.151,11.768c-.176,1.037-1.005,2-.91,2.943s1.018,1.778,1.484,2.708a15.9,15.9,0,0,1,1.5,7.5c-.011.8-.495.587-.9.587Q1194.064,345.295,1186.949,345.288Zm-10.023-20.172a32.852,32.852,0,0,0,.242,5.465c.284,1.3.286,1.306,1.359.6a11.33,11.33,0,0,1,1.432-.859c.517-.241.577-.426.193-.891a6.757,6.757,0,0,1-1.542-4.758c.034-.8-.01-1.6.01-2.406a4.854,4.854,0,0,1,2.658-4.43c1.718-.922,3.484-1.755,5.219-2.645a.969.969,0,0,1,.976-.008c1.767.905,3.552,1.774,5.309,2.7a3.989,3.989,0,0,1,2.156,2.453,12.207,12.207,0,0,1-.307,7.875c-.273.665-1.226,1.21-.975,1.794.234.546,1.178.774,1.787,1.175,1.075.707,1.175.721,1.342-.6a40.632,40.632,0,0,0,.035-10.421,9.85,9.85,0,0,0-9.78-8.351,10.057,10.057,0,0,0-9.934,8.343A46.424,46.424,0,0,0,1176.926,325.116Zm17.3,9.33a8.388,8.388,0,0,1-14.446.039,11.5,11.5,0,0,0-4.27,6.709c-.112.621.067.759.668.757q10.814-.027,21.627,0c.6,0,.809-.135.662-.756A11.766,11.766,0,0,0,1194.221,334.446Zm-7.283-5.9c3.981.326,5.215-1.366,5.134-4.947a3.667,3.667,0,0,0-2.2-3.538,5.069,5.069,0,0,0-5.789.011,3.659,3.659,0,0,0-2.186,3.537C1181.8,327.284,1183.192,328.862,1186.939,328.547Zm.034,3.347a12.506,12.506,0,0,0-3.677.606c-.535.161-.57.343-.257.78a4.994,4.994,0,0,0,7.851.057c.324-.428.4-.655-.239-.849A12.977,12.977,0,0,0,1186.973,331.894Z" transform="translate(-1098.238 -274.977)" fill="#020202"/>
      <path id="Trazado_646864" data-name="Trazado 646864" d="M1017.727,329.866a15.3,15.3,0,0,1,8.145,9.731,17.662,17.662,0,0,1,.543,5.071c0,.4-.111.586-.528.533a3.309,3.309,0,0,0-.418,0c-9.412,0-18.824-.015-28.236.024-.882,0-.98-.3-.98-1.05a15.008,15.008,0,0,1,8.281-14.059,4.535,4.535,0,0,0,.378-.266,8.3,8.3,0,0,1-1.9-3.895c-.258-1.12-1.167-1.955-1.777-2.921a9.083,9.083,0,0,1-.616-9.423,8.946,8.946,0,0,1,8.189-5.21,32.225,32.225,0,0,1,6.469.138,9.346,9.346,0,0,1,6.6,13.747c-.3.547-.653,1.069-1,1.587a7.958,7.958,0,0,0-1.51,3.158A5.643,5.643,0,0,1,1017.727,329.866Zm-13.621,4.477a11.967,11.967,0,0,0-4.216,6.608c-.2.792.063.923.791.913,2.89-.036,5.781-.015,8.672-.015q6.373,0,12.746,0c.39,0,.894.145.735-.587a11.6,11.6,0,0,0-4.276-6.906A8.382,8.382,0,0,1,1004.106,334.343Zm7.3-5.892c.555,0,1.184.032,1.809-.006a3.326,3.326,0,0,0,3.125-3.1c.061-1.077.029-2.161.01-3.24a1.567,1.567,0,0,0-.9-1.426,8.364,8.364,0,0,1-1.2-.626c-1.949-1.478-3.756-1.292-5.852-.061a3.606,3.606,0,0,0-2.143,3.462C1006.138,327.238,1007.551,328.77,1011.406,328.452Zm-7.94-8.522a6.4,6.4,0,0,1,3.3-2.781,16.241,16.241,0,0,0,2.6-1.324,3.2,3.2,0,0,1,3.982.021c1.993,1.272,4.528,1.718,5.857,4.01,1.653-3.545-1.11-7.9-5.124-8.11-1.808-.1-3.628-.086-5.437,0A5.954,5.954,0,0,0,1003.467,319.929Zm7.872,11.873a12.817,12.817,0,0,0-3.577.57c-.594.176-.741.347-.32.89a5,5,0,0,0,7.791,0c.416-.538.284-.712-.317-.889A12.884,12.884,0,0,0,1011.339,331.8Z" transform="translate(-996.254 -274.888)" fill="#020202"/>
      <path id="Trazado_646865" data-name="Trazado 646865" d="M1084.126,331.465a15.067,15.067,0,1,1,14.97,15.111A15.093,15.093,0,0,1,1084.126,331.465Zm14.854,1.654v.067c.593,0,1.186-.018,1.778,0a1.67,1.67,0,1,1,.017,3.334c-1.08.03-2.161.011-3.242,0-.6,0-1.249-.234-1.371-.773-.236-1.041-.931-.91-1.647-.9a8.871,8.871,0,0,1-1.254-.008c-.681-.085-.854.174-.715.814a5.191,5.191,0,0,0,3.255,3.921c.558.233,1.415-.032,1.658.549a5.5,5.5,0,0,1,.059,1.966.726.726,0,0,1,0,.1c-.121.767.107,1.071.978,1.049,2.363-.061,2.386-.015,2.357-2.372-.008-.678.08-.973.882-1.11a4.964,4.964,0,0,0,4.133-5.43,5.06,5.06,0,0,0-5.053-4.5c-1.08-.015-2.162.022-3.242-.013a1.665,1.665,0,1,1-.014-3.328c1.079-.034,2.161-.007,3.242-.008a1.39,1.39,0,0,1,1.457.82c.263.919.847.908,1.561.858a8.023,8.023,0,0,1,1.358,0c.62.062.8-.163.669-.763a5.187,5.187,0,0,0-3.118-3.913c-.607-.27-1.536,0-1.8-.661a4.7,4.7,0,0,1-.044-2.069c.065-.741-.109-1.015-.939-1-2.41.052-2.433.008-2.408,2.425.007.647-.08.916-.834,1.039a5,5,0,0,0-.013,9.868A14.226,14.226,0,0,0,1098.979,333.119Z" transform="translate(-1047.276 -279.615)" fill="#f3d57e"/>
      <path id="Trazado_646866" data-name="Trazado 646866" d="M1116.083,249.921c-.1,2,.16,3.918-.328,5.811-.2.769-.4.917-1.071.4-.627-.488-1.668-.7-1.953-1.3-.316-.671.746-1.24,1.025-1.972a12.726,12.726,0,0,0,.275-7.589,4.2,4.2,0,0,0-2.357-2.67c-1.7-.879-3.422-1.717-5.125-2.592a1.052,1.052,0,0,0-1.07.013c-1.7.876-3.438,1.689-5.126,2.593a4.865,4.865,0,0,0-2.7,4.5c-.011.836.021,1.673-.007,2.509a6.616,6.616,0,0,0,1.5,4.558c.4.484.361.7-.2.972a9.2,9.2,0,0,0-1.682,1.045c-.608.477-.83.276-.934-.382a9.545,9.545,0,0,1-.22-1.124c-.115-3.541-.552-7.115.267-10.606a9.884,9.884,0,0,1,10.179-7.462,10.076,10.076,0,0,1,9.338,8.281A45.132,45.132,0,0,1,1116.083,249.921Z" transform="translate(-1054.105 -233.261)" fill="#646b75"/>
      <path id="Trazado_646867" data-name="Trazado 646867" d="M1096.871,290.558a8.359,8.359,0,0,0,10.814,3.33,8.061,8.061,0,0,0,3.271-2.842c.288-.439.447-.459.831-.119a11.981,11.981,0,0,1,3.774,6.356c.129.543.074.8-.609.8q-10.869-.035-21.739,0c-.735,0-.694-.33-.577-.822A11.763,11.763,0,0,1,1096.871,290.558Z" transform="translate(-1052.18 -264.584)" fill="#bad988"/>
      <path id="Trazado_646868" data-name="Trazado 646868" d="M1111.326,450.244a11.85,11.85,0,0,1,4.24,6.7c.163.662-.03.815-.7.813q-10.765-.035-21.53,0c-.651,0-.873-.129-.708-.806a11.91,11.91,0,0,1,3.789-6.344c.289-.251.473-.431.768.036C1100.16,455.354,1107.537,456.066,1111.326,450.244Z" transform="translate(-1052.185 -357.305)" fill="#bad988"/>
      <path id="Trazado_646869" data-name="Trazado 646869" d="M1112.962,263.524c-3.757.315-5.141-1.271-5.039-4.934a3.687,3.687,0,0,1,2.182-3.54,5.113,5.113,0,0,1,5.883.035,3.55,3.55,0,0,1,2.1,3.385C1118.209,262.3,1116.839,263.837,1112.962,263.524Z" transform="translate(-1061.091 -243.435)" fill="#e8cfb5"/>
      <path id="Trazado_646870" data-name="Trazado 646870" d="M1113.021,423.188c-3.747.3-5.234-1.122-5.092-5.085a3.511,3.511,0,0,1,2.029-3.323,5.181,5.181,0,0,1,6.075-.012c1.371.848,2.28,1.607,2.011,3.311a12.655,12.655,0,0,0-.016,1.671,3.357,3.357,0,0,1-3.439,3.435C1114.067,423.2,1113.544,423.188,1113.021,423.188Z" transform="translate(-1061.092 -336.138)" fill="#e8cfb5"/>
      <path id="Trazado_646871" data-name="Trazado 646871" d="M1116.3,404.408c-.89-1.813-2.532-2.417-4.058-3.159-1.279-.622-2.517-1.786-3.842-1.722-1.275.063-2.506,1.1-3.75,1.722-2.775,1.386-2.774,1.388-4.041,2.982a4.978,4.978,0,0,1,.23-4.894,5.849,5.849,0,0,1,5.314-3.118c2.047.016,4.119-.28,6.14.2A5.892,5.892,0,0,1,1116.3,404.408Z" transform="translate(-1056.536 -325.892)" fill="#646b75"/>
      <path id="Trazado_646872" data-name="Trazado 646872" d="M1039.553,268.541a3.347,3.347,0,1,1-3.336,3.3A3.373,3.373,0,0,1,1039.553,268.541Z" transform="translate(-1019.458 -251.8)" fill="#f0d27c"/>
      <path id="Trazado_646873" data-name="Trazado 646873" d="M1191.229,275.235a3.348,3.348,0,1,1,3.39-3.253A3.377,3.377,0,0,1,1191.229,275.235Z" transform="translate(-1107.547 -251.799)" fill="#f0d27c"/>
      <path id="Trazado_646874" data-name="Trazado 646874" d="M1039.527,420.235a3.348,3.348,0,1,1-3.31,3.331A3.374,3.374,0,0,1,1039.527,420.235Z" transform="translate(-1019.458 -339.88)" fill="#f0d27c"/>
      <path id="Trazado_646875" data-name="Trazado 646875" d="M1191.221,420.235a3.348,3.348,0,1,1-3.294,3.347A3.375,3.375,0,0,1,1191.221,420.235Z" transform="translate(-1107.548 -339.88)" fill="#f0d27c"/>
      <path id="Trazado_646876" data-name="Trazado 646876" d="M1114.309,284.5a12.508,12.508,0,0,1,3.675.6c.491.155.623.292.292.769a5,5,0,0,1-7.914.01c-.321-.453-.243-.615.271-.776A12.62,12.62,0,0,1,1114.309,284.5Z" transform="translate(-1062.4 -261.066)" fill="#e4cbb2"/>
      <path id="Trazado_646877" data-name="Trazado 646877" d="M1114.732,444.187a12.5,12.5,0,0,1,3.272.605c.542.168.553.355.248.783a5,5,0,0,1-7.911-.032c-.258-.377-.287-.575.213-.733A13.035,13.035,0,0,1,1114.732,444.187Z" transform="translate(-1062.392 -353.788)" fill="#e4cbb2"/>
      <path id="Trazado_646878" data-name="Trazado 646878" d="M1090.158,316.523h1.741C1090.934,317.5,1090.934,317.5,1090.158,316.523Z" transform="translate(-1050.779 -279.66)" fill="#e9ebec"/>
      <path id="Trazado_646879" data-name="Trazado 646879" d="M1145.537,316.507h1.8C1146.816,317.769,1146.246,317.185,1145.537,316.507Z" transform="translate(-1082.934 -279.651)" fill="#e9ebec"/>
      <path id="Trazado_646880" data-name="Trazado 646880" d="M1183.9,329.755a46.424,46.424,0,0,1,.179-4.965,10.057,10.057,0,0,1,9.934-8.343,9.85,9.85,0,0,1,9.78,8.351,40.643,40.643,0,0,1-.035,10.421c-.167,1.319-.267,1.305-1.342.6-.609-.4-1.553-.629-1.787-1.175-.25-.585.7-1.13.975-1.794a12.205,12.205,0,0,0,.307-7.875,3.989,3.989,0,0,0-2.156-2.453c-1.757-.924-3.542-1.793-5.309-2.7a.969.969,0,0,0-.976.008c-1.735.89-3.5,1.723-5.219,2.645a4.853,4.853,0,0,0-2.658,4.43c-.021.8.024,1.6-.01,2.406a6.757,6.757,0,0,0,1.542,4.758c.385.464.324.65-.193.891a11.33,11.33,0,0,0-1.432.859c-1.073.709-1.075.706-1.359-.6A32.852,32.852,0,0,1,1183.9,329.755Z" transform="translate(-1105.207 -279.616)" fill="#a7794c"/>
      <path id="Trazado_646881" data-name="Trazado 646881" d="M1199.179,370.429a11.766,11.766,0,0,1,4.241,6.749c.148.621-.063.757-.662.756q-10.814-.026-21.627,0c-.6,0-.78-.136-.668-.757a11.5,11.5,0,0,1,4.27-6.709A8.388,8.388,0,0,0,1199.179,370.429Z" transform="translate(-1103.196 -310.96)" fill="#ec8673"/>
      <path id="Trazado_646882" data-name="Trazado 646882" d="M1200.79,343.365c-3.746.315-5.139-1.263-5.037-4.937a3.659,3.659,0,0,1,2.186-3.537,5.069,5.069,0,0,1,5.789-.011,3.667,3.667,0,0,1,2.2,3.538C1206,342,1204.771,343.691,1200.79,343.365Z" transform="translate(-1112.089 -289.795)" fill="#e8cfb5"/>
      <path id="Trazado_646883" data-name="Trazado 646883" d="M1202.13,364.343a12.976,12.976,0,0,1,3.678.595c.638.194.562.421.239.849a4.994,4.994,0,0,1-7.851-.057c-.312-.437-.278-.619.257-.78A12.5,12.5,0,0,1,1202.13,364.343Z" transform="translate(-1113.395 -307.427)" fill="#e4cbb2"/>
      <path id="Trazado_646884" data-name="Trazado 646884" d="M1009.049,370.4a8.383,8.383,0,0,0,14.452.011,11.6,11.6,0,0,1,4.276,6.906c.159.732-.345.588-.735.588q-6.373,0-12.746,0c-2.891,0-5.782-.021-8.672.015-.728.009-.994-.122-.791-.913A11.967,11.967,0,0,1,1009.049,370.4Z" transform="translate(-1001.197 -310.942)" fill="#ec8673"/>
      <path id="Trazado_646885" data-name="Trazado 646885" d="M1025.244,343.277c-3.855.319-5.268-1.214-5.151-4.992a3.606,3.606,0,0,1,2.143-3.462c2.1-1.232,3.9-1.417,5.852.061a8.36,8.36,0,0,0,1.2.626,1.567,1.567,0,0,1,.9,1.426c.02,1.08.051,2.163-.01,3.24a3.326,3.326,0,0,1-3.125,3.1C1026.428,343.309,1025.8,343.277,1025.244,343.277Z" transform="translate(-1010.092 -289.713)" fill="#e8cfb5"/>
      <path id="Trazado_646886" data-name="Trazado 646886" d="M1012.848,324.6a5.954,5.954,0,0,1,5.179-8.188c1.809-.082,3.63-.092,5.437,0,4.014.212,6.777,4.565,5.124,8.11-1.329-2.292-3.864-2.738-5.857-4.01a3.2,3.2,0,0,0-3.982-.021,16.244,16.244,0,0,1-2.6,1.324A6.4,6.4,0,0,0,1012.848,324.6Z" transform="translate(-1005.635 -279.557)" fill="#a7794d"/>
      <path id="Trazado_646887" data-name="Trazado 646887" d="M1026.5,364.339a12.885,12.885,0,0,1,3.577.571c.6.177.733.351.317.889a5,5,0,0,1-7.791,0c-.422-.543-.275-.715.32-.89A12.819,12.819,0,0,1,1026.5,364.339Z" transform="translate(-1011.412 -307.424)" fill="#e4cbb2"/>
      <path id="Trazado_646888" data-name="Trazado 646888" d="M1110.571,337.719a14.226,14.226,0,0,1-2.293-.019,5,5,0,0,1,.013-9.868c.754-.123.841-.391.834-1.039-.025-2.418,0-2.374,2.408-2.425.83-.018,1,.256.939,1a4.7,4.7,0,0,0,.044,2.069c.268.656,1.2.391,1.8.661a5.187,5.187,0,0,1,3.118,3.913c.127.6-.049.825-.669.763a8.023,8.023,0,0,0-1.358,0c-.714.05-1.3.061-1.561-.858a1.39,1.39,0,0,0-1.457-.82c-1.081,0-2.162-.026-3.242.008a1.665,1.665,0,1,0,.014,3.328c1.079.035,2.161,0,3.242.013a5.06,5.06,0,0,1,5.053,4.5,4.964,4.964,0,0,1-4.133,5.43c-.8.138-.891.433-.882,1.11.029,2.358.006,2.311-2.357,2.372-.871.023-1.1-.281-.978-1.049a.726.726,0,0,0,0-.1,5.5,5.5,0,0,0-.059-1.966c-.243-.581-1.1-.316-1.658-.549a5.191,5.191,0,0,1-3.255-3.921c-.139-.641.034-.9.715-.814a8.871,8.871,0,0,0,1.254.008c.715-.013,1.411-.144,1.647.9.122.539.77.769,1.371.773,1.08.008,2.162.026,3.242,0a1.67,1.67,0,1,0-.017-3.334c-.592-.022-1.185,0-1.778,0Z" transform="translate(-1058.868 -284.215)" fill="#020201"/>
    </g>
  </g>
</svg>
