<svg id="Grupo_988699" data-name="Grupo 988699" xmlns="http://www.w3.org/2000/svg" width="50.638" height="48.528" viewBox="0 0 50.638 48.528">
  <path id="Trazado_646635" data-name="Trazado 646635" d="M875.216,572.347a.8.8,0,0,1-.938.73c-.873-.011-1.747.008-2.62-.009a.783.783,0,0,0-.675.306c-1.075,1.248-2.164,2.483-3.253,3.719a2.626,2.626,0,0,1-2.977.853,2.657,2.657,0,0,1-1.719-2.624c0-.593-.021-1.187.007-1.779.016-.35-.065-.473-.448-.5a6.821,6.821,0,0,1-6.357-5.4,6.713,6.713,0,0,1-.159-1.518c0-2.6,0-5.205,0-7.807a6.87,6.87,0,0,1,6.884-6.971c.442-.007,1.014.185,1.292-.075.306-.287.083-.871.1-1.324a34.967,34.967,0,0,1,.125-4.29,7.813,7.813,0,0,1,.662-2.015c-1.141,0-2.207.007-3.274,0a4.527,4.527,0,0,1-3.787-1.875,3.839,3.839,0,0,1-.824-2.081,43.064,43.064,0,0,1,.009-6.119,4.347,4.347,0,0,1,4.2-3.929q5.239-.081,10.48,0a4.37,4.37,0,0,1,4.219,4.125c.087,1.758.046,3.524.035,5.286,0,.34.061.452.42.449q2.917-.025,5.834,0c.329,0,.418-.093.415-.418-.014-1.383-.031-2.768.009-4.151a5.418,5.418,0,0,1,5.23-5.288q6.45-.1,12.9-.012a5.337,5.337,0,0,1,5.438,5.125,48.018,48.018,0,0,1-.036,7.4,5.434,5.434,0,0,1-4.917,4.758c-.417.033-.476.179-.461.528a10.387,10.387,0,0,1-.018,1.382,2.192,2.192,0,0,1-3.543,1.612c-.074-.052-.124-.16-.3-.121v2.535c0,.642.018,1.285-.007,1.927-.014.344.091.448.44.443,1.4-.019,2.8-.01,4.2-.007a4.676,4.676,0,0,1,4.908,4.9q0,2.372,0,4.744a4.671,4.671,0,0,1-4.821,4.834c-1.417.007-2.834.011-4.251-.007a.828.828,0,0,0-.716.325c-.605.718-1.23,1.419-1.849,2.124a1.953,1.953,0,0,1-3.529-1.283c-.007-.361.1-.79-.057-1.065s-.63-.144-.955-.242a4.657,4.657,0,0,1-1.811-.969c-.183-.165-.307-.212-.539-.059a2.651,2.651,0,0,1-2.54.289c-.268-.105-.325,0-.422.207a6.81,6.81,0,0,1-5.185,3.976,13.141,13.141,0,0,1-2.664.082c-.448-.011-.668-.3-.735-.725a.81.81,0,0,1,.921-.757c.56,0,1.123.025,1.68-.019a5.3,5.3,0,0,0,4.752-3.457.683.683,0,0,0-.132-.833c-1.047-1.162-2.074-2.344-3.093-3.531a.844.844,0,0,0-.718-.322c-2.719.011-5.438.036-8.157,0a7.523,7.523,0,0,1-7.526-7.606q-.011-1.309,0-2.619c0-.242-.054-.37-.327-.356-.509.025-1.02.029-1.53.042a2.2,2.2,0,0,0-.295,0,5.386,5.386,0,0,0-4.642,5.276c-.025,2.7-.009,5.4,0,8.1a5.992,5.992,0,0,0,.095.931,5.35,5.35,0,0,0,4.843,4.346c.373.015.747.038,1.12.042a.827.827,0,0,1,.9.655c0,1.053-.014,2.105-.01,3.157a1.12,1.12,0,0,0,.755,1.154,1.085,1.085,0,0,0,1.3-.426c.158-.166.323-.327.474-.5,1.054-1.2,2.11-2.4,3.155-3.608a1.1,1.1,0,0,1,.893-.435c1.071.01,2.142,0,3.213.006C874.883,571.591,875.071,571.76,875.216,572.347ZM861,542.023l.126.047c.294.028.588.078.882.08,1.482.008,2.963.013,4.445,0a1.208,1.208,0,0,1,1.026.463c.653.783,1.341,1.538,2.01,2.308.176.2.345.435.655.312s.272-.414.27-.679q0-.691,0-1.382c0-.8.216-1.005,1.03-1.016a3.075,3.075,0,0,0,3.276-3.323q.007-2.222,0-4.443a3.055,3.055,0,0,0-3.291-3.3q-4.717-.011-9.434,0a2.006,2.006,0,0,0-.967.116,2.967,2.967,0,0,0-2.343,2.955q-.041,2.466,0,4.932A2.975,2.975,0,0,0,861,542.028Zm28.479,23.387a10.819,10.819,0,0,1-.146,1.547c-.039.111.03.189.1.257a2.52,2.52,0,0,0,1.262.785.032.032,0,0,0,.045.023l.155.052A2.815,2.815,0,0,0,892,568.2c.678.009.847.13,1.056.774q-.012.986-.024,1.971a.452.452,0,0,0,.3.466.442.442,0,0,0,.528-.155c.074-.086.137-.181.206-.272.688-.774,1.388-1.538,2.06-2.326a1.234,1.234,0,0,1,1.03-.464q2.4.021,4.793,0a3.178,3.178,0,0,0,3.279-3.266q.014-2.469,0-4.939a3.177,3.177,0,0,0-3.3-3.3c-1.449-.008-2.9.017-4.348-.014-.4-.009-.483.155-.543.484a7.537,7.537,0,0,1-7.233,6.242c-.28.01-.37.095-.357.371C889.472,564.324,889.467,564.867,889.474,565.409Zm-1.552-34.274a3.989,3.989,0,0,0-3.56,3.678c-.046,1.116-.019,2.235-.021,3.353,0,1.456,0,1.456,1.51,1.289,1.277.011,2.553.017,3.83.034.641.008.841.2.928.823-.129.533-.5.664-1,.663-4.416-.008-8.832,0-13.247-.011a.784.784,0,0,0-.812.44,4.422,4.422,0,0,1-2.756,2.091c-.293.083-.713-.052-.856.233a2.284,2.284,0,0,0-.04.924,1.948,1.948,0,0,1-1.254,1.982,2.02,2.02,0,0,1-2.274-.7l-1.68-1.984a5.8,5.8,0,0,0-.842,3.1q0,4.417,0,8.833a6.015,6.015,0,0,0,5.965,6.015c.213.013.425.038.638.038,2.668,0,5.337.014,8.005-.009a1.4,1.4,0,0,1,1.182.55c1.285,1.5,2.6,2.976,3.9,4.465a1.316,1.316,0,0,0,1.536.474,1.281,1.281,0,0,0,.891-1.379c.008-.872,0-1.745,0-2.618,0-1.432.037-1.47,1.456-1.482a6.094,6.094,0,0,0,6.265-6.272c.009-2.8,0-5.6,0-8.4a5.993,5.993,0,0,0-3.264-5.616.826.826,0,0,1-.5-.921c.325-.58.662-.69,1.249-.361a7.15,7.15,0,0,1,3.944,6.237,3.248,3.248,0,0,0,1.059,2.451c.275.256.533.441.914.293a.749.749,0,0,0,.461-.795q0-.963,0-1.926c0-1,.175-1.168,1.184-1.172a4.079,4.079,0,0,0,4.278-4.282c.006-1.942,0-3.884,0-5.826a4.727,4.727,0,0,0-.133-1.173,3.978,3.978,0,0,0-3.917-3.08c-4.182-.031-8.365-.011-12.547-.009C888.25,531.094,888.086,531.121,887.923,531.135Z" transform="translate(-856.076 -529.585)" fill="#040404"/>
  <path id="Trazado_646636" data-name="Trazado 646636" d="M889.179,666.455c-.145-.587-.332-.757-.911-.762-1.071-.009-2.142,0-3.213-.006a1.1,1.1,0,0,0-.893.435c-1.045,1.208-2.1,2.408-3.155,3.608-.151.172-.316.333-.474.5a2.733,2.733,0,0,1-.111-.869c.009-.818-.014-1.637.011-2.455.012-.377-.121-.49-.481-.465a5.066,5.066,0,0,1-1.46-.1.827.827,0,0,0-.9-.655c-.374,0-.747-.027-1.12-.042a1.322,1.322,0,0,0-.17-.173,6.136,6.136,0,0,1-2.81-5.429c.052-2.65.019-5.3.009-7.952a5.766,5.766,0,0,1,.91-3.02,8.636,8.636,0,0,1,2.06-2.088c.51-.013,1.021-.017,1.53-.042.273-.013.33.115.327.356q-.014,1.309,0,2.619a7.523,7.523,0,0,0,7.526,7.606c2.718.04,5.438.015,8.157,0a.843.843,0,0,1,.718.322c1.019,1.187,2.046,2.369,3.093,3.531a.683.683,0,0,1,.132.833,5.3,5.3,0,0,1-4.752,3.458c-.557.044-1.12.019-1.68.019a.81.81,0,0,0-.921.757Z" transform="translate(-870.039 -623.692)" fill="#d47e6a"/>
  <path id="Trazado_646637" data-name="Trazado 646637" d="M941.559,584.164a.826.826,0,0,0,.5.921,5.993,5.993,0,0,1,3.264,5.616c0,2.8.007,5.6,0,8.4a6.094,6.094,0,0,1-6.265,6.272c-1.419.012-1.456.049-1.456,1.482,0,.872.006,1.745,0,2.618a1.281,1.281,0,0,1-.891,1.379,1.316,1.316,0,0,1-1.536-.474c-1.3-1.489-2.612-2.964-3.9-4.465a1.4,1.4,0,0,0-1.182-.55c-2.668.023-5.337.011-8.005.009-.213,0-.425-.025-.638-.038-.063-.172-.235-.222-.365-.312a6.715,6.715,0,0,1-3.1-5.775c0-.922,0-1.843,0-2.765q.011-3.554.026-7.109a2.02,2.02,0,0,0,2.274.7,1.948,1.948,0,0,0,1.254-1.983,2.283,2.283,0,0,1,.04-.924c.143-.285.563-.15.856-.233a4.422,4.422,0,0,0,2.756-2.091.784.784,0,0,1,.812-.44c4.416.011,8.831,0,13.247.011.5,0,.875-.13,1-.663A2.329,2.329,0,0,1,941.559,584.164Zm-9.529,11.075a4.806,4.806,0,0,0,6.706,4.423c.726-.324,1.252-.59,1.823.209.23.322.675.231.96-.076a.683.683,0,0,0,.015-.981,2.215,2.215,0,0,0-.379-.388c-.324-.239-.322-.448-.111-.8a4.749,4.749,0,0,0-.48-5.479,4.835,4.835,0,0,0-8.534,3.1Zm-.211,3.991c-.033-.115-.063-.26-.115-.4q-1.461-3.864-2.923-7.728a.956.956,0,0,0-1.873.015c-.321.86-.652,1.716-.978,2.574-.659,1.731-1.322,3.461-1.975,5.195a.745.745,0,1,0,1.377.536c.151-.363.3-.727.422-1.1a.424.424,0,0,1,.49-.35c1.053.02,2.106.018,3.159,0,.288,0,.445.068.535.358a10.715,10.715,0,0,0,.471,1.24.68.68,0,0,0,.866.378A.753.753,0,0,0,931.82,599.231Zm-12.751-3.976c0,1.3,0,2.6,0,3.9,0,.538.284.872.722.885.455.013.756-.335.759-.9,0-.972.009-1.944,0-2.915,0-.252.055-.345.325-.335.592.021,1.186.008,1.78.006s.921-.266.932-.72-.346-.757-.951-.761-1.187-.011-1.78,0c-.236.006-.312-.062-.3-.3.016-.609.027-1.22,0-1.828-.016-.326.106-.377.392-.368.659.02,1.318.01,1.977.005.585,0,.911-.268.918-.733s-.307-.744-.894-.748q-1.459-.008-2.917,0c-.7,0-.949.249-.951.949C919.067,592.685,919.068,593.97,919.068,595.254Z" transform="translate(-905.716 -573.013)" fill="#f6f4f7"/>
  <path id="Trazado_646638" data-name="Trazado 646638" d="M1012.4,546.811a2.33,2.33,0,0,0-1.31-.422c-.086-.628-.287-.815-.928-.823-1.277-.017-2.553-.023-3.83-.034,0-1.366-.026-2.732,0-4.1a4.71,4.71,0,0,1,1.492-3.618c.207-.186.387-.4.579-.6.164-.015.327-.042.491-.042,4.182,0,8.365-.022,12.547.008a3.978,3.978,0,0,1,3.917,3.08,4.734,4.734,0,0,1,.133,1.173c0,1.942,0,3.884,0,5.826a4.079,4.079,0,0,1-4.278,4.282c-1.009,0-1.183.176-1.184,1.172q0,.963,0,1.926a.749.749,0,0,1-.461.795c-.381.148-.639-.037-.914-.293a3.249,3.249,0,0,1-1.059-2.451,7.149,7.149,0,0,0-3.944-6.237C1013.058,546.121,1012.721,546.23,1012.4,546.811Z" transform="translate(-976.552 -535.66)" fill="#a3c5f4"/>
  <path id="Trazado_646639" data-name="Trazado 646639" d="M875.82,537.289a2,2,0,0,1,.967-.116q4.717-.009,9.433,0a3.055,3.055,0,0,1,3.291,3.3q.008,2.222,0,4.443a3.075,3.075,0,0,1-3.276,3.323c-.814.011-1.028.221-1.03,1.016q0,.691,0,1.382c0,.264.037.556-.27.679s-.479-.109-.655-.312c-.669-.77-1.357-1.525-2.01-2.308a1.208,1.208,0,0,0-1.026-.463c-1.482.015-2.963.01-4.445,0-.294,0-.588-.052-.882-.08l-.126-.047.005.005a.877.877,0,0,0-.111-.211,4.136,4.136,0,0,1-1.158-3.035c.021-1.544,0-3.089.007-4.633a4.478,4.478,0,0,1,.042-.537A4.645,4.645,0,0,1,875.82,537.289Z" transform="translate(-870.871 -535.665)" fill="#bbe0a5"/>
  <path id="Trazado_646640" data-name="Trazado 646640" d="M1025.811,677.717a.032.032,0,0,1-.045-.023.851.851,0,0,0-.276-.5,4.212,4.212,0,0,1-.781-1.5c-.063-.194.07-.439-.157-.584-.007-.542,0-1.085-.027-1.627-.012-.276.077-.361.357-.371a7.537,7.537,0,0,0,7.233-6.242c.06-.33.144-.493.543-.484,1.448.031,2.9.006,4.348.014a3.177,3.177,0,0,1,3.3,3.3q.011,2.47,0,4.939a3.178,3.178,0,0,1-3.28,3.266q-2.4.014-4.793,0a1.234,1.234,0,0,0-1.03.463c-.672.788-1.372,1.552-2.06,2.326,0-.344-.01-.687-.01-1.031,0-.979,0-.979-.995-.979-.21-.644-.378-.766-1.057-.774a2.814,2.814,0,0,1-1.11-.129Z" transform="translate(-991.152 -639.281)" fill="#f8df8a"/>
  <path id="Trazado_646641" data-name="Trazado 646641" d="M907.9,604.111q-.013,3.554-.026,7.109c0,.922,0,1.843,0,2.765a6.715,6.715,0,0,0,3.1,5.775c.129.091.3.14.365.312a6.015,6.015,0,0,1-5.965-6.015q0-4.417,0-8.833a5.8,5.8,0,0,1,.842-3.1Z" transform="translate(-895.613 -587.756)" fill="#dad8e7"/>
  <path id="Trazado_646642" data-name="Trazado 646642" d="M868.5,647.148a8.64,8.64,0,0,0-2.06,2.088,5.766,5.766,0,0,0-.91,3.02c.01,2.651.043,5.3-.009,7.952a6.136,6.136,0,0,0,2.81,5.429,1.33,1.33,0,0,1,.17.173,5.35,5.35,0,0,1-4.843-4.346,6.022,6.022,0,0,1-.095-.931c-.008-2.7-.024-5.4,0-8.1a5.386,5.386,0,0,1,4.642-5.276A2.215,2.215,0,0,1,868.5,647.148Z" transform="translate(-862.067 -623.856)" fill="#cc696f"/>
  <path id="Trazado_646643" data-name="Trazado 646643" d="M1002.311,537.413c-.192.2-.372.419-.58.6a4.71,4.71,0,0,0-1.492,3.618c-.026,1.366,0,2.732,0,4.1-1.511.166-1.513.166-1.51-1.289,0-1.118-.025-2.237.021-3.353A3.989,3.989,0,0,1,1002.311,537.413Z" transform="translate(-970.464 -535.862)" fill="#87b0ee"/>
  <path id="Trazado_646644" data-name="Trazado 646644" d="M871.487,537.782a4.645,4.645,0,0,0-1.244,2.4,4.5,4.5,0,0,0-.042.537c0,1.544.014,3.089-.007,4.633a4.136,4.136,0,0,0,1.158,3.035.878.878,0,0,1,.111.211,2.975,2.975,0,0,1-2.318-2.932q-.045-2.465,0-4.932A2.967,2.967,0,0,1,871.487,537.782Z" transform="translate(-866.539 -536.158)" fill="#9ecda3"/>
  <path id="Trazado_646645" data-name="Trazado 646645" d="M898.7,744.88a5.061,5.061,0,0,0,1.46.1c.36-.025.493.088.481.465-.025.818,0,1.637-.011,2.455a2.73,2.73,0,0,0,.111.869,1.085,1.085,0,0,1-1.3.426,1.12,1.12,0,0,1-.755-1.154C898.684,746.985,898.694,745.932,898.7,744.88Z" transform="translate(-890.245 -702.229)" fill="#cc696f"/>
  <path id="Trazado_646646" data-name="Trazado 646646" d="M1042.651,728.43c.994,0,.994,0,.995.979,0,.344.007.687.01,1.03-.068.091-.132.186-.206.272a.442.442,0,0,1-.528.155.452.452,0,0,1-.3-.466Q1042.639,729.416,1042.651,728.43Z" transform="translate(-1005.67 -689.038)" fill="#f5ce75"/>
  <path id="Trazado_646647" data-name="Trazado 646647" d="M1024.028,710.42c.228.145.094.391.158.584a4.211,4.211,0,0,0,.781,1.5.85.85,0,0,1,.276.5,2.519,2.519,0,0,1-1.262-.785c-.069-.067-.138-.146-.1-.257A10.793,10.793,0,0,0,1024.028,710.42Z" transform="translate(-990.629 -674.596)" fill="#dcb968"/>
  <path id="Trazado_646648" data-name="Trazado 646648" d="M880.91,592.369l.126.047Z" transform="translate(-875.99 -579.931)" fill="#9ecda3"/>
  <path id="Trazado_646649" data-name="Trazado 646649" d="M1031.029,723.605l.155.052Z" transform="translate(-996.37 -685.169)" fill="#dcb968"/>
  <path id="Trazado_646650" data-name="Trazado 646650" d="M988.908,622.267a4.835,4.835,0,0,1,8.534-3.1,4.749,4.749,0,0,1,.48,5.479c-.211.356-.213.565.111.8a2.226,2.226,0,0,1,.379.388.684.684,0,0,1-.015.981c-.285.308-.73.4-.96.076-.571-.8-1.1-.533-1.823-.209A4.806,4.806,0,0,1,988.908,622.267Zm4.826,3.338a3.305,3.305,0,0,0,1.566-.376c.247-.121.23-.209.048-.373a7.448,7.448,0,0,1-.626-.631.743.743,0,0,1-.006-1.026.732.732,0,0,1,1.061,0,3.661,3.661,0,0,1,.489.489c.293.378.416.229.561-.123a3.351,3.351,0,1,0-3.093,2.039Z" transform="translate(-962.593 -600.04)" fill="#040404"/>
  <path id="Trazado_646651" data-name="Trazado 646651" d="M955.711,625.981a.753.753,0,0,1-.544.721.68.68,0,0,1-.866-.378,10.718,10.718,0,0,1-.471-1.24c-.09-.29-.247-.362-.535-.358-1.053.017-2.107.018-3.159,0a.424.424,0,0,0-.489.35c-.118.374-.271.739-.422,1.1a.745.745,0,1,1-1.377-.537c.652-1.734,1.315-3.463,1.975-5.195.327-.858.657-1.714.978-2.574a.956.956,0,0,1,1.873-.016q1.454,3.867,2.923,7.728C955.648,625.721,955.679,625.865,955.711,625.981Zm-3.971-6.392-1.385,3.642h2.76Z" transform="translate(-929.607 -599.764)" fill="#030303"/>
  <path id="Trazado_646652" data-name="Trazado 646652" d="M923.474,622.4c0-1.285,0-2.57,0-3.854,0-.7.247-.946.951-.949q1.458-.006,2.917,0c.588,0,.9.272.894.748s-.333.729-.918.733c-.659,0-1.319.014-1.977-.005-.286-.009-.408.042-.392.368.03.608.019,1.219,0,1.828-.006.24.069.308.3.3.593-.015,1.186-.008,1.78,0s.962.294.951.761-.348.718-.932.721-1.187.015-1.78-.006c-.27-.009-.328.083-.325.335.014.972.009,1.944,0,2.915,0,.561-.3.909-.759.9-.438-.013-.72-.347-.722-.885C923.471,625,923.474,623.7,923.474,622.4Z" transform="translate(-910.122 -600.156)" fill="#020202"/>
  <path id="Trazado_646653" data-name="Trazado 646653" d="M999.758,631.628a3.336,3.336,0,1,1,3.093-2.04c-.145.352-.269.5-.561.123a3.647,3.647,0,0,0-.489-.489.732.732,0,0,0-1.061,0,.743.743,0,0,0,.005,1.026,7.465,7.465,0,0,0,.626.631c.182.164.2.253-.048.373A3.313,3.313,0,0,1,999.758,631.628Z" transform="translate(-968.617 -606.062)" fill="#f5f3f6"/>
  <path id="Trazado_646654" data-name="Trazado 646654" d="M962.193,629.661l1.375,3.642h-2.76Z" transform="translate(-940.06 -609.835)" fill="#f5f3f6"/>
</svg>
