<svg id="Grupo_988702" data-name="Grupo 988702" xmlns="http://www.w3.org/2000/svg" width="45.363" height="45.342" viewBox="0 0 45.363 45.342">
  <path id="Trazado_646710" data-name="Trazado 646710" d="M848.8,228.907q0-.754,0-1.509a.81.81,0,0,0,.664-.939c-.027-.735-.008-1.472-.007-2.209a1.629,1.629,0,0,1,1.8-1.808q4.022,0,8.044,0c1.62,0,3.24.01,4.861.016a3.361,3.361,0,0,1,.54,2.337q-.019,6.279,0,12.558a3.361,3.361,0,0,1-.54,2.337c-.147.006-.294.016-.441.016q-6.213,0-12.426,0a1.636,1.636,0,0,1-1.835-1.818c0-2.682-.009-5.363.007-8.045A.817.817,0,0,0,848.8,228.907Zm9.117,1.5H854.99c-.768,0-1.535-.009-2.3,0a.658.658,0,0,0-.66.954.763.763,0,0,0,.786.374q3.5-.007,7,0c1.063,0,2.126,0,3.189,0,.48,0,.759-.268.749-.681s-.29-.643-.786-.644Q860.438,230.406,857.913,230.41Zm-.089,4.162q2.547,0,5.093,0c.532,0,.819-.228.831-.645.012-.437-.283-.682-.837-.682q-5.049,0-10.1,0c-.548,0-.868.25-.865.666s.321.66.871.661Q855.322,234.574,857.824,234.572Zm1.373-7q-1.837,0-3.673,0c-.562,0-.856.232-.856.664s.295.663.857.663q3.7,0,7.391,0c.531,0,.82-.228.832-.643.013-.437-.282-.683-.834-.684Q861.056,227.574,859.2,227.577Z" transform="translate(-848.12 -221.109)" fill="#ec6237"/>
  <path id="Trazado_646711" data-name="Trazado 646711" d="M991.793,377.872q0-.742,0-1.484c.552-.1.706-.288.706-.871q0-4.069,0-8.137a1.609,1.609,0,0,1,1.742-1.729q3.429,0,6.858,0,3.008,0,6.016.014a2.224,2.224,0,0,1,.629,1.721q-.024,6.9,0,13.8a2.223,2.223,0,0,1-.629,1.721c-4.349,0-8.7.015-13.046.008a1.571,1.571,0,0,1-1.568-1.586c-.015-.84,0-1.68,0-2.52C992.5,378.172,992.39,378.033,991.793,377.872Zm6.1-.506a.98.98,0,0,0,1.391,1.013c.535-.244,1.054-.525,1.565-.816a.493.493,0,0,1,.562-.008c.445.258.911.481,1.362.729a1.036,1.036,0,0,0,1.2,0,1.055,1.055,0,0,0,.369-1.148c-.09-.508-.154-1.021-.271-1.522a.491.491,0,0,1,.185-.532c.408-.384.805-.78,1.2-1.175a.943.943,0,0,0,.275-1.008.961.961,0,0,0-.83-.7c-.451-.07-.9-.156-1.357-.188a.905.905,0,0,1-.912-.651,11.707,11.707,0,0,0-.576-1.19,1,1,0,0,0-1.857-.005c-.225.463-.471.916-.679,1.386a.6.6,0,0,1-.542.419c-.513.049-1.02.157-1.532.216a.994.994,0,0,0-.922.7.978.978,0,0,0,.329,1.072c.394.378.776.768,1.175,1.14a.469.469,0,0,1,.157.5C998.069,376.215,997.984,376.828,997.894,377.366Z" transform="translate(-965.741 -338.905)" fill="#c8f6fd"/>
  <path id="Trazado_646712" data-name="Trazado 646712" d="M1006.516,218.924l1.486,0a.788.788,0,0,0,.905.629c.493-.022.988,0,1.483.008a2.223,2.223,0,0,1,.629,1.721c-.019,3.612-.009,7.224-.009,10.835-.438.106-.567-.048-.55-.506.039-1.076.016-2.153.011-3.23a1.064,1.064,0,0,0-1.2-1.2c-.649-.006-1.3-.025-1.947.008-.35.018-.408-.105-.4-.42.021-.929.015-1.859,0-2.788a.988.988,0,0,0-.982-1.082q-1.461-.027-2.922,0a.962.962,0,0,0-.961.959,6.233,6.233,0,0,0,0,.973c.038.353-.105.415-.421.4-.6-.024-1.21-.008-1.815-.007-.955,0-1.315.357-1.315,1.3,0,1.755-.006,3.511.006,5.266,0,.269-.061.368-.34.346a3.488,3.488,0,0,0-.793.026.615.615,0,0,0-.534.571.636.636,0,0,0,.357.657,1.066,1.066,0,0,0,.563.068q5.135,0,10.271,0c.988,0,1.976.012,2.964.018,0,.531-.022,1.064.009,1.593a2.1,2.1,0,0,1-.627,1.723c-.132,0-.265.013-.4.013q-6.194,0-12.389,0a1.631,1.631,0,0,1-1.831-1.82q0-6.811,0-13.621a1.629,1.629,0,0,1,1.827-1.824c2.684,0,5.368,0,8.052,0C1006.113,219.555,1006.42,219.4,1006.516,218.924Z" transform="translate(-969.015 -218.217)" fill="#c8f6fd"/>
  <path id="Trazado_646713" data-name="Trazado 646713" d="M845.663,222.736a.817.817,0,0,1,.665.938c-.015,2.681-.008,5.363-.007,8.045a1.636,1.636,0,0,0,1.835,1.818q6.213,0,12.426,0c.147,0,.294-.01.441-.016.31.005.619.02.929.015a1.608,1.608,0,0,0,1.641-1.66c.007-.59,0-1.18,0-1.77q0-6.064,0-12.127a1.608,1.608,0,0,0-1.685-1.7c-.295,0-.59.01-.884.015-1.62-.006-3.24-.015-4.861-.016q-4.022,0-8.044,0a1.629,1.629,0,0,0-1.8,1.808c0,.736-.021,1.473.007,2.209a.809.809,0,0,1-.664.939c-.581-.2-.671-.326-.672-.925,0-.811-.009-1.623,0-2.434a2.918,2.918,0,0,1,2.931-2.922q7.04-.016,14.079,0a2.908,2.908,0,0,1,2.914,2.937q.021,2.987,0,5.975c0,.3.063.4.381.389.835-.025,1.671-.008,2.57-.008-.195-.309-.366-.56-.516-.824a.661.661,0,0,1,.2-.927.633.633,0,0,1,.895.2c.411.611.8,1.238,1.187,1.863a.669.669,0,0,1-.02.751c-.377.6-.75,1.2-1.143,1.786a.645.645,0,0,1-.921.231.668.668,0,0,1-.177-.965c.145-.249.3-.489.488-.784-.943,0-1.824.01-2.7-.006-.257,0-.239.13-.239.3q0,1.792,0,3.585c0,.826.008,1.652,0,2.478A2.915,2.915,0,0,1,862,234.86q-7.04.018-14.079,0A2.908,2.908,0,0,1,845,231.934c-.013-2.788,0-5.576-.009-8.364A.761.761,0,0,1,845.663,222.736Z" transform="translate(-844.987 -214.939)" fill="#010101"/>
  <path id="Trazado_646714" data-name="Trazado 646714" d="M1000.34,215.646c-.1.475-.4.631-.864.629-2.684-.009-5.368-.005-8.053,0A1.629,1.629,0,0,0,989.6,218.1q0,6.811,0,13.621a1.631,1.631,0,0,0,1.831,1.82h12.389c.132,0,.265-.009.4-.013.339,0,.678.018,1.017.012a1.608,1.608,0,0,0,1.638-1.66c.006-.369,0-.738,0-1.107q0-6.285,0-12.57c0-1.345-.589-1.928-1.948-1.927-.236,0-.472.009-.707.014-.494,0-.99-.03-1.483-.008a.788.788,0,0,1-.905-.629c.168-.6.3-.7.933-.705.841,0,1.683-.01,2.524,0a2.911,2.911,0,0,1,2.909,2.9q.02,7.061,0,14.123a2.9,2.9,0,0,1-2.915,2.893q-2.945.023-5.891,0c-.317,0-.431.054-.416.4.031.745.01,1.493.01,2.315.278-.176.5-.317.716-.453a.694.694,0,0,1,1.016.121.666.666,0,0,1-.272.979c-.566.373-1.144.727-1.715,1.093a.7.7,0,0,1-.827,0c-.582-.375-1.173-.737-1.751-1.118a.646.646,0,0,1-.262-.913.659.659,0,0,1,.958-.21c.252.142.494.3.806.5,0-.885,0-1.7,0-2.52,0-.29-.221-.179-.352-.18-1.3-.008-2.6,0-3.9,0-.723,0-1.447.006-2.17,0a2.923,2.923,0,0,1-2.96-2.94q-.015-7.017,0-14.034a2.912,2.912,0,0,1,2.955-2.943c2.761-.011,5.522,0,8.282,0C1000.05,214.944,1000.234,215.105,1000.34,215.646Z" transform="translate(-962.839 -214.939)" fill="#010101"/>
  <path id="Trazado_646715" data-name="Trazado 646715" d="M982.958,359.495q-3.008-.007-6.016-.014-3.429,0-6.858,0a1.609,1.609,0,0,0-1.743,1.729q0,4.069,0,8.137c0,.583-.154.768-.706.871a.691.691,0,0,1-.618-.82c.028-.29-.068-.371-.358-.362-.737.022-1.476.009-2.214.012-.023,0-.047.022-.1.052.154.247.314.487.457.737a.669.669,0,0,1-.2.964.645.645,0,0,1-.916-.252c-.391-.589-.764-1.19-1.143-1.787a.679.679,0,0,1,.016-.788c.375-.582.737-1.173,1.119-1.75a.654.654,0,0,1,.95-.249.68.68,0,0,1,.157.976c-.139.237-.292.467-.479.765.883,0,1.7,0,2.518,0,.3,0,.184-.215.185-.345.008-1.24,0-2.479,0-3.719,0-.856-.008-1.712,0-2.567a2.917,2.917,0,0,1,2.926-2.928q7.042-.017,14.084,0a2.9,2.9,0,0,1,2.913,2.893q.021,7.061,0,14.122a2.9,2.9,0,0,1-2.908,2.9q-7.042.019-14.084,0a2.918,2.918,0,0,1-2.931-2.924c-.011-.841.014-1.683-.009-2.523a.793.793,0,0,1,.63-.92c.6.161.7.3.7.931,0,.84-.01,1.68,0,2.52a1.571,1.571,0,0,0,1.568,1.586c4.349.007,8.7,0,13.046-.008.31,0,.619.015.929.013a1.616,1.616,0,0,0,1.727-1.706c0-.443,0-.885,0-1.328q0-6.152,0-12.3c0-1.344-.589-1.928-1.948-1.927C983.429,359.481,983.193,359.49,982.958,359.495Z" transform="translate(-941.583 -332.736)" fill="#010101"/>
  <path id="Trazado_646716" data-name="Trazado 646716" d="M864.938,368.148q0,3.408,0,6.816a2.943,2.943,0,0,1-3.136,3.122q-6.841,0-13.682,0a2.94,2.94,0,0,1-3.111-3.1q0-6.86,0-13.72a2.939,2.939,0,0,1,3.114-3.1q6.863,0,13.726,0a2.934,2.934,0,0,1,3.089,3.079Q864.944,364.7,864.938,368.148Zm-3.985-8.642c-.118,0-.236-.014-.353-.014q-6.245,0-12.49,0a1.621,1.621,0,0,0-1.774,1.792q0,6.84,0,13.68a1.627,1.627,0,0,0,1.818,1.793q2.414,0,4.828,0,3.986-.005,7.971-.014c.309,0,.619.015.928.013a1.618,1.618,0,0,0,1.727-1.706c0-.516,0-1.033,0-1.549q0-6.063,0-12.125a1.653,1.653,0,0,0-1.9-1.884C861.454,359.493,861.2,359.5,860.953,359.507Z" transform="translate(-845.002 -332.748)" fill="#010101"/>
  <path id="Trazado_646717" data-name="Trazado 646717" d="M935.357,222.468c.295-.006.59-.018.884-.015a1.608,1.608,0,0,1,1.685,1.7q.005,6.064,0,12.128c0,.59.006,1.18,0,1.77a1.608,1.608,0,0,1-1.641,1.66c-.309,0-.619-.009-.929-.015a3.361,3.361,0,0,0,.54-2.337q-.019-6.279,0-12.558A3.361,3.361,0,0,0,935.357,222.468Z" transform="translate(-919.321 -221.119)" fill="#d65430"/>
  <path id="Trazado_646718" data-name="Trazado 646718" d="M872.527,267.338q2.524,0,5.049,0c.5,0,.776.238.786.644s-.269.678-.749.681c-1.063.007-2.126,0-3.189,0q-3.5,0-7,0a.763.763,0,0,1-.786-.374.658.658,0,0,1,.66-.954c.768-.012,1.535,0,2.3,0Z" transform="translate(-862.734 -258.038)" fill="#010101"/>
  <path id="Trazado_646719" data-name="Trazado 646719" d="M872.437,284.648q-2.5,0-5,0c-.551,0-.869-.245-.871-.661s.317-.666.865-.666q5.049,0,10.1,0c.554,0,.849.245.837.682-.011.417-.3.644-.831.645Q874.984,284.65,872.437,284.648Z" transform="translate(-862.733 -271.185)" fill="#010101"/>
  <path id="Trazado_646720" data-name="Trazado 646720" d="M886.417,251.383q1.859,0,3.718,0c.552,0,.847.247.834.684-.013.415-.3.642-.833.643q-3.7,0-7.391,0c-.562,0-.856-.232-.857-.663s.293-.663.856-.664Q884.58,251.38,886.417,251.383Z" transform="translate(-875.34 -244.915)" fill="#010101"/>
  <path id="Trazado_646721" data-name="Trazado 646721" d="M1019.631,395.423c.089-.539.175-1.152.3-1.757a.469.469,0,0,0-.157-.5c-.4-.372-.781-.762-1.175-1.14a.978.978,0,0,1-.329-1.072.994.994,0,0,1,.922-.7c.512-.06,1.019-.167,1.532-.216a.6.6,0,0,0,.542-.419c.208-.47.453-.924.679-1.386a1,1,0,0,1,1.857.005,11.767,11.767,0,0,1,.576,1.19.9.9,0,0,0,.912.651c.455.032.906.118,1.357.188a.961.961,0,0,1,.83.7.943.943,0,0,1-.275,1.008c-.4.395-.8.791-1.2,1.175a.491.491,0,0,0-.185.532c.116.5.18,1.014.27,1.522a1.055,1.055,0,0,1-.369,1.148,1.036,1.036,0,0,1-1.2,0c-.451-.249-.916-.472-1.362-.729a.493.493,0,0,0-.562.008c-.511.291-1.03.571-1.565.816A.98.98,0,0,1,1019.631,395.423Zm3.24-6.065c-.188.382-.367.688-.494,1.016a1.394,1.394,0,0,1-1.342.957,2.826,2.826,0,0,0-1.012.182c.31.318.583.627.887.9a1.191,1.191,0,0,1,.375,1.237c-.085.393-.136.793-.213,1.26.436-.225.81-.393,1.16-.6a1.164,1.164,0,0,1,1.288,0c.356.206.731.378,1.156.594-.083-.48-.136-.873-.22-1.259a1.165,1.165,0,0,1,.387-1.231c.316-.271.612-.566,1-.924-.557-.08-.977-.147-1.4-.2a1.154,1.154,0,0,1-.976-.724C1023.288,390.178,1023.089,389.8,1022.871,389.358Z" transform="translate(-987.478 -356.961)" fill="#030303"/>
  <path id="Trazado_646722" data-name="Trazado 646722" d="M1078.149,365.672c.236,0,.472-.013.707-.013,1.359,0,1.948.582,1.948,1.927q0,6.152,0,12.3c0,.443,0,.885,0,1.328a1.616,1.616,0,0,1-1.726,1.706c-.31,0-.619-.008-.929-.013a2.223,2.223,0,0,0,.629-1.72q-.025-6.9,0-13.8A2.224,2.224,0,0,0,1078.149,365.672Z" transform="translate(-1036.775 -338.914)" fill="#a3effc"/>
  <path id="Trazado_646723" data-name="Trazado 646723" d="M1015.981,251.878c-.988-.006-1.976-.017-2.964-.018q-5.136,0-10.271,0a1.067,1.067,0,0,1-.564-.068.636.636,0,0,1-.357-.657.615.615,0,0,1,.534-.571,3.485,3.485,0,0,1,.793-.026c.279.022.342-.077.34-.346-.012-1.755-.007-3.511-.006-5.266,0-.943.36-1.3,1.315-1.3.605,0,1.211-.018,1.815.007.315.013.459-.048.42-.4a6.233,6.233,0,0,1,0-.973.962.962,0,0,1,.961-.959q1.461-.026,2.922,0a.988.988,0,0,1,.982,1.082c.01.929.016,1.859,0,2.788-.007.315.051.438.4.42.648-.033,1.3-.014,1.948-.008a1.064,1.064,0,0,1,1.2,1.2c0,1.077.028,2.155-.011,3.23-.017.459.112.613.55.506a4.173,4.173,0,0,1,.567.046.62.62,0,0,1,.542.691.612.612,0,0,1-.63.608C1016.3,251.866,1016.142,251.871,1015.981,251.878Zm-7.622-5.348c0,1.225.005,2.449,0,3.674,0,.238.047.342.313.332.531-.02,1.063-.013,1.594,0,.211,0,.318-.032.317-.284q-.013-3.674,0-7.347c0-.251-.1-.289-.316-.285-.516.01-1.034.022-1.549,0-.306-.015-.362.1-.359.377C1008.367,244.17,1008.359,245.35,1008.359,246.531Zm-1.329,1.235c0-.826-.006-1.651,0-2.477,0-.229-.029-.353-.306-.342-.545.021-1.092.014-1.637,0-.21,0-.28.062-.28.275q.01,2.521,0,5.043c0,.22.077.273.281.268.516-.012,1.033-.021,1.549,0,.3.014.407-.065.4-.384C1007.014,249.359,1007.03,248.562,1007.03,247.766Zm7.086.98c0-.486-.02-.974.007-1.458.018-.322-.1-.4-.4-.388-.5.023-1,.013-1.5,0-.213,0-.322.038-.319.288.012,1.017.008,2.033,0,3.05,0,.194.037.3.264.292.56-.013,1.12-.011,1.68,0,.215,0,.28-.077.275-.284C1014.108,249.748,1014.116,249.247,1014.116,248.746Z" transform="translate(-973.99 -236.61)" fill="#020202"/>
  <path id="Trazado_646724" data-name="Trazado 646724" d="M1078.765,236.383c.161-.007.321-.012.482-.022a.612.612,0,0,0,.63-.608.62.62,0,0,0-.542-.691,4.163,4.163,0,0,0-.567-.046c0-3.612-.009-7.223.009-10.835a2.223,2.223,0,0,0-.629-1.721c.236,0,.471-.013.707-.014,1.359,0,1.948.582,1.948,1.927q0,6.285,0,12.57c0,.369,0,.738,0,1.107a1.607,1.607,0,0,1-1.638,1.66c-.339.006-.678-.008-1.017-.012a2.1,2.1,0,0,0,.627-1.722C1078.743,237.447,1078.766,236.914,1078.765,236.383Z" transform="translate(-1036.773 -221.115)" fill="#a2ecf9"/>
  <path id="Trazado_646725" data-name="Trazado 646725" d="M867.116,382.905q-3.986.007-7.971.014-2.414,0-4.828,0a1.627,1.627,0,0,1-1.818-1.793q0-6.84,0-13.68a1.621,1.621,0,0,1,1.774-1.792q6.245,0,12.49,0c.118,0,.236.009.354.014a2.362,2.362,0,0,1,.631,1.723q-.034,6.9,0,13.792A2.355,2.355,0,0,1,867.116,382.905Zm-8.479-10.442h0c0,.3-.009.591,0,.885a1.561,1.561,0,0,0,1.635,1.6c.531.005,1.063.012,1.594,0,.3-.008.443.1.439.4-.006.516,0,1.033,0,1.549,0,.254-.108.376-.375.371q-.8-.015-1.594,0c-.271,0-.371-.125-.369-.376s.007-.532-.007-.8a.605.605,0,0,0-.606-.632.619.619,0,0,0-.7.586,4.35,4.35,0,0,0,.035,1.322,1.241,1.241,0,0,0,.969,1.093c.766.078.885.436.832,1.088-.03.363.256.584.628.612a.651.651,0,0,0,.678-.621,3.579,3.579,0,0,0,0-.619c-.019-.238.048-.324.309-.34a1.534,1.534,0,0,0,1.525-1.571c.022-.6.024-1.211,0-1.815a1.57,1.57,0,0,0-1.665-1.578c-.531,0-1.063-.007-1.594,0-.245,0-.4-.06-.4-.337,0-.546,0-1.092,0-1.638a.3.3,0,0,1,.352-.345c.339.007.679,0,1.019,0,1.058.011.964-.148.967.972,0,.059,0,.118,0,.177a.656.656,0,0,0,1.311.044,4.5,4.5,0,0,0-.033-1.279,1.252,1.252,0,0,0-.954-1.109c-.757-.1-.927-.427-.856-1.117.036-.356-.272-.588-.645-.585a.622.622,0,0,0-.651.6,2.886,2.886,0,0,0-.005.619c.022.256-.045.35-.331.364a1.531,1.531,0,0,0-1.5,1.545C858.623,371.842,858.637,372.153,858.637,372.463Z" transform="translate(-851.166 -338.909)" fill="#f6c94f"/>
  <path id="Trazado_646726" data-name="Trazado 646726" d="M934.875,382.91a2.355,2.355,0,0,0,.631-1.722q-.033-6.9,0-13.792a2.361,2.361,0,0,0-.631-1.723c.25,0,.5-.013.751-.013a1.653,1.653,0,0,1,1.9,1.884q0,6.063,0,12.125c0,.516,0,1.033,0,1.549a1.618,1.618,0,0,1-1.727,1.707C935.494,382.925,935.184,382.915,934.875,382.91Z" transform="translate(-918.925 -338.914)" fill="#f3b43f"/>
  <path id="Trazado_646727" data-name="Trazado 646727" d="M1031.241,397.511c.218.443.417.82.592,1.207a1.154,1.154,0,0,0,.976.724c.422.051.842.119,1.4.2-.384.358-.68.653-1,.924a1.166,1.166,0,0,0-.387,1.231c.084.386.137.779.22,1.259-.425-.216-.8-.388-1.156-.594a1.165,1.165,0,0,0-1.288,0c-.349.211-.724.379-1.16.6.078-.467.128-.867.213-1.26a1.191,1.191,0,0,0-.375-1.237c-.3-.275-.578-.585-.887-.9a2.823,2.823,0,0,1,1.012-.182,1.394,1.394,0,0,0,1.342-.957C1030.874,398.2,1031.053,397.893,1031.241,397.511Z" transform="translate(-995.848 -365.114)" fill="#f4d165"/>
  <path id="Trazado_646728" data-name="Trazado 646728" d="M1038.647,252.678c0-1.18.008-2.361-.006-3.541,0-.275.054-.392.359-.377.515.026,1.033.014,1.549,0,.212,0,.317.034.316.285q-.013,3.674,0,7.347c0,.252-.106.288-.317.284-.531-.01-1.063-.017-1.594,0-.265.01-.315-.094-.313-.332C1038.653,255.127,1038.647,253.9,1038.647,252.678Z" transform="translate(-1004.278 -242.757)" fill="#5ba4ed"/>
  <path id="Trazado_646729" data-name="Trazado 646729" d="M1020.9,264.736c0,.8-.016,1.593.008,2.388.01.319-.1.4-.4.384-.515-.024-1.033-.015-1.549,0-.2,0-.283-.048-.281-.268q.012-2.521,0-5.043c0-.213.07-.28.28-.275.546.012,1.092.018,1.637,0,.277-.011.309.113.306.342C1020.891,263.085,1020.9,263.91,1020.9,264.736Z" transform="translate(-987.857 -253.58)" fill="#f4d165"/>
  <path id="Trazado_646730" data-name="Trazado 646730" d="M1060.836,274.766c0,.5-.008,1,0,1.5,0,.207-.06.288-.275.284-.56-.011-1.121-.012-1.681,0-.227.005-.265-.1-.264-.292.006-1.017.01-2.034,0-3.05,0-.25.106-.292.319-.288.5.01,1,.02,1.5,0,.3-.013.421.065.4.388C1060.816,273.793,1060.836,274.28,1060.836,274.766Z" transform="translate(-1020.709 -262.631)" fill="#ec6237"/>
  <path id="Trazado_646731" data-name="Trazado 646731" d="M887.015,385.237c0-.31-.014-.62,0-.929a1.531,1.531,0,0,1,1.5-1.545c.286-.013.353-.108.331-.364a2.882,2.882,0,0,1,.005-.619.622.622,0,0,1,.651-.6c.373,0,.681.229.645.585-.07.689.1,1.021.856,1.117a1.253,1.253,0,0,1,.954,1.109,4.5,4.5,0,0,1,.033,1.279.656.656,0,0,1-1.311-.044c0-.059,0-.118,0-.177,0-1.12.091-.961-.967-.972-.339,0-.679.005-1.019,0a.3.3,0,0,0-.352.345c0,.546,0,1.092,0,1.638,0,.277.159.342.4.337.531-.009,1.063-.006,1.594,0a1.57,1.57,0,0,1,1.665,1.578c.024.6.022,1.21,0,1.815a1.534,1.534,0,0,1-1.525,1.571c-.26.016-.328.1-.309.34a3.572,3.572,0,0,1,0,.619.651.651,0,0,1-.678.621c-.372-.028-.657-.249-.628-.612.053-.652-.065-1.01-.832-1.088a1.241,1.241,0,0,1-.969-1.093,4.352,4.352,0,0,1-.035-1.322.619.619,0,0,1,.7-.586.605.605,0,0,1,.606.632c.015.265.009.531.007.8s.1.381.369.376q.8-.014,1.594,0c.267,0,.376-.117.375-.371,0-.516,0-1.033,0-1.549,0-.307-.143-.411-.44-.4-.531.015-1.063.008-1.594,0a1.561,1.561,0,0,1-1.636-1.6c-.01-.295,0-.59,0-.885Z" transform="translate(-879.544 -351.684)" fill="#050401"/>
</svg>
