<svg id="Grupo_988701" data-name="Grupo 988701" xmlns="http://www.w3.org/2000/svg" width="52.137" height="52.148" viewBox="0 0 52.137 52.148">
  <path id="Trazado_646692" data-name="Trazado 646692" d="M1274.268-42.041a2.953,2.953,0,0,0,1.676-2.64c.024-.84.02-1.682,0-2.523-.008-.326.058-.444.419-.441,1.271.009,1.282-.007,1.267,1.265a14.051,14.051,0,0,1-.073,2.464,4.489,4.489,0,0,1-2.889,3.522.528.528,0,0,0-.407.59q.02,6.019.008,12.037A5.059,5.059,0,0,1,1268.9-22.4c-3.383,0-6.765.008-10.148-.01-.394,0-.5.092-.484.485.034.822.018,1.647.006,2.47,0,.273.008.41.368.446a4.186,4.186,0,0,1,3.842,4.24c0,.473,0,.946,0,1.419-.006.749-.3,1.042-1.057,1.042q-4.417,0-8.833,0-3.759,0-7.519,0c-.821,0-1.1-.28-1.1-1.1a15.157,15.157,0,0,1,.039-1.942,4.161,4.161,0,0,1,3.81-3.659c.3-.031.367-.116.362-.4-.017-.858-.026-1.718,0-2.575.012-.36-.111-.422-.439-.421q-5.1.017-10.2.007a5.061,5.061,0,0,1-5.355-5.372q0-10.618,0-21.236a5.062,5.062,0,0,1,5.372-5.353h31.336a5.06,5.06,0,0,1,5.356,5.369C1274.269-46.7,1274.268-44.413,1274.268-42.041Zm-6.1-4.425c-.252-.4-.66-.325-1.036-.326-1.3-.005-1.3,0-1.274-1.307a.7.7,0,0,0,0-.105c-.024-.195.041-.284.257-.276a7.079,7.079,0,0,1,2.543.235,2.7,2.7,0,0,1,1.411,2.667,9.578,9.578,0,0,0,0,1.051,2.827,2.827,0,0,0,2.5,2.679c0-2.609.069-5.219-.024-7.823a3.23,3.23,0,0,0-3.329-2.992c-.069-.006-.139-.018-.209-.018q-15.873,0-31.747,0a3.338,3.338,0,0,0-3.373,3.366c-.014,1.664-.005,3.328,0,4.992q.007,4.913.017,9.825c-.006,1.068.007,2.137-.027,3.2-.013.391.088.487.484.487q18.87-.018,37.739,0c.371,0,.5-.057.5-.472-.022-2.785-.018-5.57,0-8.355,0-.348-.093-.465-.44-.535a4.5,4.5,0,0,1-3.583-3.232,7.462,7.462,0,0,1-.192-2.292C1268.376-45.968,1268.413-46.257,1268.165-46.466Zm-14.9,17.335q-9.016,0-18.032,0c-.432,0-1-.19-1.263.079s-.077.831-.078,1.264a3.383,3.383,0,0,0,3.678,3.7H1262.7c2.155,0,4.311.007,6.466,0A3.335,3.335,0,0,0,1272.547-27c.073-.516,0-1.052.047-1.573.043-.458-.093-.575-.563-.574Q1262.647-29.116,1253.263-29.131Zm-.08,15.139h1.681c1.839,0,3.678,0,5.516,0,.183,0,.4.1.436-.263a2.641,2.641,0,0,0-2.826-3.1h-9.457a2.583,2.583,0,0,0-2.88,2.887c0,.394.1.491.49.487C1248.489-14,1250.836-13.991,1253.183-13.991Zm.051-8.411c-1,0-2,.011-2.993-.007-.3-.005-.383.082-.377.379q.028,1.312,0,2.624c-.007.3.089.376.381.374q2.993-.018,5.986,0c.3,0,.383-.082.377-.378q-.028-1.312,0-2.624c.007-.3-.088-.379-.381-.374C1255.229-22.391,1254.231-22.4,1253.234-22.4Z" transform="translate(-1232.203 64.456)" fill="#010101"/>
  <path id="Trazado_646693" data-name="Trazado 646693" d="M1428.46-102.263a.851.851,0,0,1,.828,1.228q-1.068,3.036-2.156,6.065c-.639,1.791-1.291,3.577-1.921,5.371-.159.453-.387.8-.911.783s-.72-.392-.848-.853c-.436-1.581-.906-3.153-1.337-4.736a.758.758,0,0,0-.611-.6c-1.6-.441-3.189-.913-4.788-1.356-.454-.126-.772-.354-.785-.846-.012-.468.283-.712.7-.862q5.722-2.037,11.441-4.085C1428.223-102.2,1428.376-102.239,1428.46-102.263Zm-8.759,4.889-.005.118c.831.237,1.666.462,2.491.718.225.07.321-.045.443-.167l1.445-1.443,1-1-.079-.111Zm4.668,4.791.117.008,1.9-5.321-.121-.074c-.845.85-1.687,1.7-2.539,2.548-.147.146-.085.274-.041.426C1423.917-94.193,1424.142-93.388,1424.369-92.583Z" transform="translate(-1377.222 102.263)" fill="#040303"/>
  <path id="Trazado_646694" data-name="Trazado 646694" d="M1441.525-37.528c0,.816,0,.816-.814.816-.869,0-.869,0-.869-.866,0-.816,0-.816.814-.816C1441.525-38.394,1441.525-38.394,1441.525-37.528Z" transform="translate(-1396.095 51.851)"/>
  <path id="Trazado_646695" data-name="Trazado 646695" d="M1240.192-28.193q-.009-4.912-.017-9.825c0-1.664-.011-3.328,0-4.992a3.337,3.337,0,0,1,3.373-3.366q15.873-.012,31.747,0c.07,0,.139.012.209.018a14.912,14.912,0,0,1-.12,2.977c-.1.486.044,1.069-.444,1.441a7.079,7.079,0,0,0-2.543-.235c-.216-.009-.281.081-.257.276a.755.755,0,0,1,0,.105c-.03,1.3-.03,1.3,1.274,1.307.376,0,.784-.077,1.036.326a1.667,1.667,0,0,1-.08.351,15.813,15.813,0,0,1-3.9,5.312q-.008-3.676-.017-7.353c0-.9-.258-1.162-1.146-1.162h-19.6c-.863,0-1.13.266-1.13,1.124q0,6.435,0,12.869c0,.888.262,1.144,1.162,1.147l7.354.018a31.787,31.787,0,0,1-6.451.81,30.325,30.325,0,0,1-4.348-.1c-.726-.068-1.449-.175-2.172-.272C1242.8-27.6,1241.5-27.886,1240.192-28.193Z" transform="translate(-1238.492 58.155)" fill="#cafafc"/>
  <path id="Trazado_646696" data-name="Trazado 646696" d="M1240.168-4.9c1.3.308,2.611.6,3.941.775.723.1,1.446.2,2.172.272a30.325,30.325,0,0,0,4.348.1,31.788,31.788,0,0,0,6.451-.81c.192-.006.384-.017.576-.017H1269.3c.862,0,1.133-.269,1.136-1.119q.01-2.753.017-5.506a15.815,15.815,0,0,0,3.9-5.312,1.667,1.667,0,0,0,.08-.351c.248.209.211.5.214.775a7.462,7.462,0,0,0,.192,2.292,4.5,4.5,0,0,0,3.583,3.232c.347.07.442.187.44.535-.015,2.785-.019,5.57,0,8.355,0,.415-.127.472-.5.472q-18.87-.015-37.739,0c-.4,0-.5-.1-.483-.487C1240.176-2.768,1240.163-3.836,1240.168-4.9Z" transform="translate(-1238.468 34.866)" fill="#aeecf2"/>
  <path id="Trazado_646697" data-name="Trazado 646697" d="M1259.342,65.172q9.384,0,18.768-.012c.47,0,.605.116.563.574-.048.521.026,1.057-.047,1.573a3.336,3.336,0,0,1-3.384,2.909c-2.156.01-4.311,0-6.466,0h-25.129a3.383,3.383,0,0,1-3.678-3.7c0-.433-.189-1,.078-1.264s.831-.078,1.263-.079Q1250.326,65.168,1259.342,65.172Zm12.592,2.554c0-.872,0-.872-.863-.872-.82,0-.82,0-.82.81,0,.872,0,.872.863.872C1271.934,68.537,1271.934,68.537,1271.934,67.726Zm3.365-.021c0-.851,0-.851-.831-.851-.852,0-.852,0-.852.831,0,.851,0,.851.831.851C1275.3,68.537,1275.3,68.537,1275.3,67.706Z" transform="translate(-1238.281 -29.847)" fill="#b2b2b2"/>
  <path id="Trazado_646698" data-name="Trazado 646698" d="M1303.573,124.654c-2.347,0-4.693-.01-7.04.01-.392,0-.492-.093-.489-.487a2.583,2.583,0,0,1,2.88-2.887h9.457a2.641,2.641,0,0,1,2.826,3.1c-.033.363-.253.262-.436.263-1.839.005-3.678,0-5.516,0Z" transform="translate(-1282.593 -74.189)" fill="#b2b2b2"/>
  <path id="Trazado_646699" data-name="Trazado 646699" d="M1405.21-41.872c.487-.373.346-.955.443-1.441a14.876,14.876,0,0,0,.12-2.977A3.23,3.23,0,0,1,1409.1-43.3c.094,2.6.024,5.214.024,7.823a2.827,2.827,0,0,1-2.5-2.679,9.488,9.488,0,0,1,0-1.051A2.7,2.7,0,0,0,1405.21-41.872Z" transform="translate(-1368.759 58.084)" fill="#adebf1"/>
  <path id="Trazado_646700" data-name="Trazado 646700" d="M1319.4,97.312c1,0,2,.011,2.993-.007.293-.005.388.073.381.374q-.03,1.312,0,2.624c.006.3-.08.38-.377.378q-2.992-.019-5.985,0c-.292,0-.388-.072-.381-.374q.03-1.312,0-2.624c-.006-.3.079-.384.377-.379C1317.4,97.323,1318.4,97.312,1319.4,97.312Z" transform="translate(-1298.364 -55.258)" fill="#cbcbcb"/>
  <path id="Trazado_646701" data-name="Trazado 646701" d="M1433.8-86.1l5.29-1.881.079.111-1,1-1.445,1.443c-.122.122-.217.237-.443.167-.825-.256-1.66-.481-2.491-.718Z" transform="translate(-1391.321 90.993)" fill="#ebc77c"/>
  <path id="Trazado_646702" data-name="Trazado 646702" d="M1453.221-76.5c-.228-.8-.453-1.609-.685-2.412-.044-.152-.106-.28.041-.426.851-.844,1.694-1.7,2.539-2.548l.121.074-1.9,5.321Z" transform="translate(-1406.073 86.18)" fill="#ebc77c"/>
  <path id="Trazado_646703" data-name="Trazado 646703" d="M1302.01-21.9q-.009,2.753-.017,5.506c0,.85-.274,1.119-1.135,1.119h-11.646c-.192,0-.384.011-.576.017l-7.354-.018c-.9,0-1.162-.258-1.162-1.147q0-6.435,0-12.869c0-.858.268-1.124,1.131-1.124h19.6c.888,0,1.144.262,1.146,1.162Q1302-25.572,1302.01-21.9Zm-18.565-6.82-.06.1a2.009,2.009,0,0,1,.17.115c2.394,1.994,4.793,3.984,7.175,5.992.293.247.454.166.7-.039q3.48-2.92,6.972-5.826c.107-.089.281-.14.276-.34Zm-.119,11.733h15.437c-.169-.153-.278-.258-.394-.354q-2.237-1.866-4.476-3.73c-.818-.68-.819-.679-1.649.018-1.179.99-1.179.99-2.361.008-.842-.7-.845-.7-1.691,0C1286.595-19.712,1285-18.379,1283.327-16.983Zm-1.5-10.766v9.723c.045.009.067.02.075.013q2.811-2.329,5.623-4.657c.184-.152.126-.236-.022-.359C1285.636-24.582,1283.768-26.138,1281.831-27.75Zm18.452,0c-1.937,1.613-3.8,3.172-5.675,4.721-.208.172-.14.255.024.39.771.634,1.534,1.277,2.3,1.915l3.35,2.786Z" transform="translate(-1270.023 45.55)" fill="#010101"/>
  <path id="Trazado_646704" data-name="Trazado 646704" d="M1385.623,74.257c0,.81,0,.81-.82.81-.863,0-.863,0-.863-.872,0-.81,0-.81.82-.81C1385.623,73.385,1385.623,73.385,1385.623,74.257Z" transform="translate(-1351.97 -36.377)"/>
  <path id="Trazado_646705" data-name="Trazado 646705" d="M1401.594,74.236c0,.831,0,.831-.852.831-.831,0-.831,0-.831-.851,0-.831,0-.831.852-.831C1401.594,73.385,1401.594,73.385,1401.594,74.236Z" transform="translate(-1364.577 -36.377)"/>
  <path id="Trazado_646706" data-name="Trazado 646706" d="M1295.684-22.365h15.232c0,.2-.17.251-.276.34q-3.484,2.915-6.972,5.826c-.245.205-.406.285-.7.039-2.382-2.008-4.781-4-7.175-5.992a2.008,2.008,0,0,0-.17-.115Z" transform="translate(-1282.262 39.199)" fill="#e9b15b"/>
  <path id="Trazado_646707" data-name="Trazado 646707" d="M1295.343,16.12c1.674-1.4,3.268-2.729,4.866-4.057.846-.7.849-.7,1.691,0,1.182.982,1.182.982,2.361-.008.83-.7.831-.7,1.649-.018q2.24,1.863,4.476,3.73c.116.1.224.2.394.354Z" transform="translate(-1282.04 12.447)" fill="#e9b15b"/>
  <path id="Trazado_646708" data-name="Trazado 646708" d="M1288.245-17.779c1.937,1.612,3.8,3.168,5.676,4.721.148.123.206.206.021.359q-2.815,2.324-5.622,4.657c-.008.006-.03,0-.075-.013Z" transform="translate(-1276.437 35.579)" fill="#f4deaf"/>
  <path id="Trazado_646709" data-name="Trazado 646709" d="M1354.08-17.773v9.812l-3.35-2.786c-.767-.638-1.53-1.281-2.3-1.915-.164-.135-.232-.218-.024-.39C1350.278-14.6,1352.144-16.16,1354.08-17.773Z" transform="translate(-1323.82 35.574)" fill="#f5dfaf"/>
</svg>
