<svg id="Grupo_988700" data-name="Grupo 988700" xmlns="http://www.w3.org/2000/svg" width="46.529" height="46.526" viewBox="0 0 46.529 46.526">
  <path id="Trazado_646655" data-name="Trazado 646655" d="M1250.932,212.191c.165-.6.313-.715.917-.715q5.247,0,10.494,0a1.337,1.337,0,0,1,1.5,1.511c0,2.089.01,4.178-.009,6.267,0,.345.086.433.422.416.6-.03,1.212-.022,1.816,0,.267.009.324-.084.32-.332-.014-.8-.009-1.6,0-2.407a1.322,1.322,0,0,1,1.465-1.457q9.54,0,19.08,0a1.315,1.315,0,0,1,1.444,1.432q0,6.472,0,12.944a1.313,1.313,0,0,1-1.427,1.447c-.454.006-.909.015-1.363,0-.244-.01-.307.073-.3.307.012.863-.006,1.726.009,2.589a1.1,1.1,0,0,1-.618,1.2c-.553.236-.944-.033-1.32-.415-1.126-1.143-2.271-2.268-3.4-3.411a.8.8,0,0,0-.631-.268c-1.8.011-3.6.015-5.406,0-.334,0-.465.072-.43.423a6.466,6.466,0,0,1,0,.953,1.414,1.414,0,0,0,.609,1.469,1.742,1.742,0,0,1-.2,2.859c-.14.094-.4.1-.392.322.016.385-.141.8.094,1.148.123.181.12.5.507.478s.715.042.67-.552a.651.651,0,0,1,.7-.683c.726-.019,1.453-.013,2.179,0a.66.66,0,0,1,.677.506c.06.241.177.255.374.259a1.739,1.739,0,0,1,1.953,2c0,.257,0,.515,0,.772a1.687,1.687,0,0,1-1.8,1.824c-.421,0-.487.126-.48.5.023,1.317.02,2.634,0,3.951a10.62,10.62,0,0,1-10.495,10.469q-2.816.029-5.633,0a10.61,10.61,0,0,1-10.327-9.332c-.193-1.7-.053-3.418-.078-5.127,0-.327-.045-.464-.429-.461a1.7,1.7,0,0,1-1.854-1.866c0-.3,0-.606,0-.908a1.7,1.7,0,0,1,1.811-1.82c.268,0,.465-.005.554-.336a.643.643,0,0,1,.678-.436c.7-.008,1.394-.018,2.089,0,.5.016.744.306.783.819.01.134-.1.365.092.388a1.171,1.171,0,0,0,.836-.051,2.361,2.361,0,0,0,.308-1.623c-.042-.069-.144-.1-.221-.147a1.807,1.807,0,0,1,.018-3.254.379.379,0,0,0,.223-.386q-.008-2.907,0-5.813c0-.251-.063-.34-.328-.338q-2.817.016-5.633,0a.654.654,0,0,0-.493.266q-1.782,1.783-3.566,3.565a1.016,1.016,0,0,1-1.777-.743c0-.091,0-.182,0-.273v-2.044c0-.766,0-.766-.789-.766-.272,0-.545,0-.817,0a1.324,1.324,0,0,1-1.482-1.483q0-5.813,0-11.627c0-.439-.005-.878,0-1.317a1.3,1.3,0,0,1,1.388-1.4c1.7-.008,3.392-.005,5.088,0,.517,0,.7.171.819.711a.764.764,0,0,1-.879.655c-1.556-.012-3.112.006-4.668-.013-.323,0-.407.086-.394.4.026.618.007,1.238.008,1.857q.007,4.87.015,9.741c0,.272,0,.546-.019.816-.022.255.093.3.316.295.484-.013.969,0,1.454,0,.988,0,1.323.341,1.324,1.342,0,.746,0,1.492,0,2.335,1.117-1.118,2.16-2.149,3.185-3.2a1.511,1.511,0,0,1,1.168-.486c1.893.015,3.786,0,5.678.012.291,0,.414-.046.441-.379a6.653,6.653,0,0,1,.492-1.878c.118-.3.531-.637.306-.877-.161-.171-.658-.027-1.006-.024-.316-.01-.635,0-.949-.035a.66.66,0,0,1-.477-1.025.818.818,0,0,1,.754-.326c.74,0,1.479-.014,2.219-.021.323,0,.668.138.956-.109a6.549,6.549,0,0,1,3.151-1.49c.214-.039.259-.122.259-.323q-.011-3.172,0-6.344c0-.223-.073-.28-.285-.276-.876.015-1.752.014-2.628.019-2.569-.005-5.137-.018-7.706-.009A.823.823,0,0,1,1250.932,212.191Zm18.274,26a22.227,22.227,0,0,0,2.7.03c.4-.005.17-.37.214-.569s.013-.361-.262-.353c-.887.027-1.775-.041-2.662.036a1.1,1.1,0,0,0-.178-.029c-3.524,0-7.049,0-10.573-.011-.4,0-.342.224-.347.465s-.036.462.352.458c1.8-.019,3.6-.006,5.4-.009Q1266.53,238.2,1269.207,238.189Zm-.436-15.99c.193-.143.5-.319.463-.5-.043-.236-.4-.263-.633-.35a1.62,1.62,0,0,0-.3-.054c-.211-.158-.3.048-.4.151q-4.784,4.775-9.562,9.556c-.1.1-.233.2-.228.373a9.829,9.829,0,0,0,.052,1.443c.258-.245.48-.444.69-.655q4.8-4.794,9.591-9.59C1268.557,222.452,1268.661,222.323,1268.771,222.2Zm-8.191,10.176-1.214,1.251c.547,0,1.009,0,1.471,0a.426.426,0,0,0,.317-.151q.489-.5.979-1.006c.122-.112.248-.22.365-.337q2.328-2.324,4.652-4.651a.836.836,0,0,1,.745-.346.657.657,0,0,1,.551.48.732.732,0,0,1-.27.766q-1.986,1.991-3.968,3.986l-1.244,1.259c.579,0,1.042,0,1.5,0a.424.424,0,0,0,.316-.153l.979-1.008,3.449-3.452c.785-.774,1.529-1.6,2.368-2.305a1.421,1.421,0,0,0,.4-1.691c-.088-.315-.187-.277-.374-.082-.312.328-.635.648-.961.962-.374.36-.713.37-1.025.044a.649.649,0,0,1,.066-1c.357-.37.725-.728,1.088-1.091.516-.516.517-.516,0-1.056a.826.826,0,0,1-.062-.066c-.153-.2-.295-.208-.474-.012-.335.368-.688.718-1.034,1.076a6.084,6.084,0,0,0-.99.927Q1264.393,228.545,1260.58,232.376Zm-2.791,8.44c-.076,1.136-.076,1.136,1.043,1.136.121,0,.242,0,.363,0,.525.02.692.169.775.684-.01.451-.279.645-.692.674a6.344,6.344,0,0,1-.813.01c-.271-.016-.37.074-.366.356.016,1.146-.034,2.294.025,3.438a4.991,4.991,0,0,0,2.092,3.879,4.906,4.906,0,0,0,3.013,1.082c1.254.03,2.51.023,3.764,0a5.273,5.273,0,0,0,5.036-4.3,30.7,30.7,0,0,0,.1-4.253c.006-.184-.1-.231-.26-.227-.92.021-1.842-.047-2.761.037-.18-.011-.36-.032-.539-.032-1.959,0-3.919,0-5.879,0-.6,0-.746-.116-.889-.675a.731.731,0,0,1,.852-.678c.423.009.846,0,1.269,0,2.7,0,5.409,0,8.113.006.316,0,.462-.048.44-.414-.035-.557-.016-1.117-.005-1.676,0-.209-.054-.3-.279-.3-.936.016-1.871.02-2.807.028-.166-.008-.331-.022-.5-.022h-9.978C1257.711,239.578,1257.711,239.578,1257.789,240.816Zm15.732-11.991a5.063,5.063,0,0,1-.025.542c-.065.438.066.59.549.581,1.815-.034,3.631,0,5.447-.022a1.68,1.68,0,0,1,1.322.557c.914.947,1.855,1.868,2.791,2.794.086.085.142.232.324.219,0-.823-.006-1.638,0-2.454a1.018,1.018,0,0,1,1.1-1.106c.514-.01,1.03-.023,1.543,0,.344.019.458-.069.453-.438-.021-1.785-.01-3.57-.01-5.355,0-2.314-.005-4.629.007-6.943,0-.3-.077-.383-.375-.374-.846.025-1.694.017-2.541.023q-8.038-.008-16.075-.021c-.266,0-.286.114-.283.324.009.741.021,1.484-.005,2.224-.01.3.1.387.366.423a5.5,5.5,0,0,1,1.3.386c.115.047.234.165.368.019a.917.917,0,0,1,.763-.2h7.9a2.588,2.588,0,0,1,.363.008.673.673,0,0,1,.11,1.314,1.5,1.5,0,0,1-.448.039q-3.315,0-6.63,0h-.468c.971,1.292.971,1.292,2.414,1.34.06,0,.121,0,.181.01a.622.622,0,0,1,.606.619.649.649,0,0,1-.556.715c-.279.075-.7-.14-.813.135-.094.223.147.568.173.865.028.319.19.347.45.346,1.771-.008,3.542,0,5.313,0,.591,0,1.181-.012,1.771,0,.531.015.836.344.755.8s-.39.563-.8.562c-2.286,0-4.571.011-6.857-.013-.435,0-.541.132-.513.534C1273.529,227.8,1273.514,228.311,1273.521,228.825Zm3.506,14.887c0-1.423,0-2.846,0-4.268,0-.125.08-.328-.076-.363a1.69,1.69,0,0,0-.718-.007c-.22.05-.105.284-.106.43-.009,2.694.013,5.388-.014,8.082a8.226,8.226,0,0,1-6.26,7.845c-2.728.607-5.516.238-8.279.232a2.929,2.929,0,0,1-.54-.067,8.346,8.346,0,0,1-6.911-8.342c-.006-2.588-.009-5.177.008-7.765,0-.364-.1-.445-.45-.449-.364,0-.482.07-.479.465.02,2.618,0,5.237.013,7.855a9.252,9.252,0,0,0,9.257,9.266q2.634.016,5.269,0a9.257,9.257,0,0,0,9.289-9.281C1277.034,246.133,1277.027,244.922,1277.027,243.712Zm-12.208,10.641c1.253,0,2.222.017,3.191,0a6.953,6.953,0,0,0,6.649-5.912,54.009,54.009,0,0,0,.1-5.625c0-.113-.013-.183-.16-.212a.854.854,0,0,0-1.1.905c0,1.211.022,2.423-.017,3.633a6.63,6.63,0,0,1-5.653,6.223,33.638,33.638,0,0,1-4.31.078,6.637,6.637,0,0,1-6.781-6.771c0-1.014-.026-2.029.012-3.042a1.339,1.339,0,0,0-.319-.9c-.207-.262-.567-.116-.85-.1-.2.015-.1.251-.1.383-.006,1.559-.028,3.119.005,4.678a7,7,0,0,0,5.937,6.586C1262.652,254.435,1263.879,254.3,1264.82,254.352Zm.274-18.409h7.443c.37,0,.769.026.836-.473.044-.324-.254-.494-.81-.494h-14.885c-.559,0-.854.167-.813.491.064.5.463.476.833.476Zm1.189-14.918c-.365,0-.68.025-.99-.006a1.175,1.175,0,0,0-1.03.416c-1.88,1.908-3.752,3.824-5.69,5.672-.685.653-.387,1.344-.457,2.083Zm5.843,7.224-5.388,5.379c.373,0,.775-.008,1.176,0a.77.77,0,0,0,.6-.259q1.7-1.708,3.4-3.405a.523.523,0,0,0,.209-.384C1272.121,229.117,1272.125,228.651,1272.125,228.249Zm-13.888-2.839,4.266-4.27A5.06,5.06,0,0,0,1258.237,225.41Zm12.139,8.213c.5,0,1.029,0,1.563,0a.161.161,0,0,0,.178-.164c0-.555,0-1.111,0-1.585Zm-18.531,7.156c0-.211,0-.422,0-.633,0-.1.045-.259-.059-.29a1.053,1.053,0,0,0-.622,0,.356.356,0,0,0-.231.4c.006.317.015.634,0,.95-.023.418.212.486.564.514.442.035.347-.247.35-.488C1251.848,241.081,1251.846,240.93,1251.846,240.78Zm26.545-.007c0,.166-.007.332,0,.5.011.2-.1.476.3.447.318-.023.624-.011.615-.458-.006-.3-.017-.6,0-.9.029-.436-.2-.518-.583-.538-.462-.025-.314.281-.331.5C1278.382,240.47,1278.391,240.622,1278.391,240.773Zm-22.892-.017c-.11.366.011.514.436.5.356-.008.5-.07.485-.462-.016-.34-.012-.563-.469-.522C1255.619,240.306,1255.375,240.309,1255.5,240.756Zm18.342-.007c-.073.351.007.522.421.511.366-.01.544-.052.509-.483-.026-.321-.016-.526-.444-.5C1273.974,240.3,1273.718,240.305,1273.84,240.748Z" transform="translate(-1241.854 -211.473)" fill="#020303"/>
  <path id="Trazado_646656" data-name="Trazado 646656" d="M1264.218,224.591c-.74.007-1.479.017-2.219.021a.818.818,0,0,0-.754.326.66.66,0,0,0,.476,1.025c.314.036.633.025.949.035a.4.4,0,0,1-.207.375,8.161,8.161,0,0,1-4.879,1.661c-2.751.037-5.5.009-8.254.009q-.007-4.87-.015-9.741c0-.619.018-1.239-.008-1.857-.013-.314.07-.4.394-.4,1.556.018,3.112,0,4.668.013a.764.764,0,0,0,.879-.655l1.78,0a.823.823,0,0,0,.937.654c2.568-.009,5.137,0,7.706.009q0,1.569,0,3.138c-.166.006-.332.017-.5.017h-12.994a3.163,3.163,0,0,0-.454.01.635.635,0,0,0-.583.6.644.644,0,0,0,.453.705,1.388,1.388,0,0,0,.539.046q4.293,0,8.587,0c1.62,0,3.24.011,4.86.016a5.146,5.146,0,0,1-.182,1.3l-5.895.016c-.589,0-1.18-.009-1.768.009a.67.67,0,0,0-.683.647.7.7,0,0,0,.64.7,3.53,3.53,0,0,0,.453.011l6.71.024C1264.762,223.8,1264.356,224.129,1264.218,224.591Zm-8.538,1.387c1.24,0,2.479,0,3.718,0,.514,0,.8-.234.823-.64.019-.426-.285-.719-.8-.721q-3.74-.011-7.481,0c-.5,0-.795.274-.8.678-.007.421.3.681.828.683C1253.2,225.98,1254.441,225.978,1255.68,225.978Zm-2.049-2.686c.574,0,1.149.009,1.723,0,.5-.01.784-.27.784-.688s-.278-.671-.789-.675q-1.7-.013-3.4,0c-.506,0-.8.254-.812.658-.012.425.294.7.817.706C1252.512,223.3,1253.071,223.292,1253.63,223.291Z" transform="translate(-1247.95 -214.686)" fill="#8dccdb"/>
  <path id="Trazado_646657" data-name="Trazado 646657" d="M1389.856,252.9c-.007-.514.008-1.029-.029-1.541-.029-.4.078-.538.512-.534,2.286.024,4.572.009,6.858.014.41,0,.721-.121.8-.562s-.223-.784-.755-.8c-.59-.017-1.181,0-1.771,0-1.771,0-3.542,0-5.313,0-.26,0-.422-.026-.45-.346-.026-.3-.267-.642-.173-.865.116-.276.535-.06.814-.135a.649.649,0,0,0,.556-.715.622.622,0,0,0-.606-.619c-.06-.007-.121-.008-.181-.01-1.443-.048-1.443-.048-2.414-1.34h.468q3.315,0,6.63,0a1.5,1.5,0,0,0,.448-.039.673.673,0,0,0-.11-1.314,2.585,2.585,0,0,0-.363-.008h-7.9a.916.916,0,0,0-.763.2c-.134.146-.252.028-.368-.019a5.506,5.506,0,0,0-1.3-.386c-.262-.037-.377-.126-.366-.423.026-.741.014-1.483.005-2.224,0-.21.017-.325.283-.324q8.037.019,16.075.021v3.138c-1,.006-1.995.016-2.993.016a.737.737,0,0,0-.644.26.636.636,0,0,0-.09.682.7.7,0,0,0,.689.422l3.038.019q0,.644,0,1.287c-.18.011-.36.032-.54.032q-3.607,0-7.214,0c-.556,0-.883.272-.868.7s.332.664.864.665c1.437,0,2.874,0,4.31,0,1.149,0,2.3.016,3.446.024a6.767,6.767,0,0,1-.142,1.886,3.564,3.564,0,0,1-3.552,2.834C1394.453,252.919,1392.155,252.9,1389.856,252.9Z" transform="translate(-1358.188 -235.546)" fill="#9eebab"/>
  <path id="Trazado_646658" data-name="Trazado 646658" d="M1415.626,252.889c2.3,0,4.6.023,6.9,0a3.564,3.564,0,0,0,3.552-2.834,6.758,6.758,0,0,0,.142-1.886c.165-.014.333-.015.5-.045a.673.673,0,0,0-.043-1.34c-.15-.017-.3-.027-.45-.039q0-.644,0-1.287c.163-.009.329,0,.49-.03a.67.67,0,0,0,.594-.719.65.65,0,0,0-.639-.628c-.148-.014-.3-.016-.446-.023v-3.138c.847-.005,1.694,0,2.541-.023.3-.009.377.078.375.374-.012,2.314-.007,4.629-.007,6.943,0,1.785-.012,3.57.01,5.355,0,.369-.109.457-.453.438-.513-.028-1.029-.015-1.543,0a1.019,1.019,0,0,0-1.1,1.106c-.008.815,0,1.63,0,2.454-.182.013-.238-.134-.324-.219-.935-.926-1.876-1.847-2.79-2.794a1.68,1.68,0,0,0-1.322-.557c-1.816.022-3.632-.012-5.447.022-.483.009-.615-.143-.549-.581A5.1,5.1,0,0,0,1415.626,252.889Z" transform="translate(-1383.958 -235.538)" fill="#96dca1"/>
  <path id="Trazado_646659" data-name="Trazado 646659" d="M1333.186,390.981a4.991,4.991,0,0,1-2.092-3.879c-.059-1.143-.009-2.292-.025-3.437,0-.282.1-.372.366-.356a6.343,6.343,0,0,0,.813-.01c.413-.029.682-.222.692-.674l1.833-.008c.143.559.285.674.889.675,1.959,0,3.919,0,5.879,0,.179,0,.359.021.539.032a4.008,4.008,0,0,1,0,.678,8.181,8.181,0,0,1-3.381,5.452A9.047,9.047,0,0,1,1333.186,390.981Zm4.9-2.519a2.158,2.158,0,0,0,2.191-2.182,2.184,2.184,0,1,0-4.368-.015A2.16,2.16,0,0,0,1338.082,388.462Z" transform="translate(-1314.824 -351.462)" fill="#5767c2"/>
  <path id="Trazado_646660" data-name="Trazado 646660" d="M1328,367.567c0,1.211.006,2.422,0,3.633a9.257,9.257,0,0,1-9.289,9.281q-2.634.013-5.269,0a9.252,9.252,0,0,1-9.257-9.266c-.014-2.618.007-5.237-.013-7.855,0-.395.115-.468.479-.465.348,0,.453.085.45.449-.017,2.588-.014,5.176-.008,7.765a8.346,8.346,0,0,0,6.911,8.342,2.931,2.931,0,0,0,.54.067c2.763.006,5.551.376,8.279-.232a8.226,8.226,0,0,0,6.26-7.845c.027-2.694.005-5.388.014-8.082,0-.146-.114-.38.106-.43a1.69,1.69,0,0,1,.718.008c.156.035.076.238.077.363C1328.005,364.721,1328,366.144,1328,367.567Z" transform="translate(-1292.829 -335.328)" fill="#eceff1"/>
  <path id="Trazado_646661" data-name="Trazado 646661" d="M1342.72,393.979a9.048,9.048,0,0,0,5.511-1.523,8.181,8.181,0,0,0,3.381-5.452,3.97,3.97,0,0,0,0-.678c.92-.083,1.841-.015,2.762-.036.158,0,.265.044.259.227a30.7,30.7,0,0,1-.1,4.253,5.273,5.273,0,0,1-5.036,4.3c-1.255.019-2.51.026-3.764,0A4.906,4.906,0,0,1,1342.72,393.979Z" transform="translate(-1324.358 -354.459)" fill="#3e51b9"/>
  <path id="Trazado_646662" data-name="Trazado 646662" d="M1325.956,394.067c-.941-.048-2.168.083-3.391-.078a6.994,6.994,0,0,1-5.937-6.586c-.033-1.559-.012-3.118-.005-4.678,0-.132-.1-.368.1-.383.284-.021.644-.167.85.1a1.34,1.34,0,0,1,.319.9c-.038,1.013-.017,2.028-.012,3.042a6.638,6.638,0,0,0,6.781,6.771,33.642,33.642,0,0,0,4.31-.078,6.631,6.631,0,0,0,5.653-6.224c.039-1.21.011-2.422.016-3.633a.854.854,0,0,1,1.1-.905c.147.029.163.1.16.212a54.144,54.144,0,0,1-.1,5.625,6.953,6.953,0,0,1-6.649,5.912C1328.178,394.084,1327.208,394.067,1325.956,394.067Z" transform="translate(-1302.989 -351.188)" fill="#f3f5f6"/>
  <path id="Trazado_646663" data-name="Trazado 646663" d="M1249.34,275.386c2.751,0,5.5.028,8.253-.009a8.161,8.161,0,0,0,4.879-1.661.4.4,0,0,0,.207-.375c.347,0,.845-.148,1.005.024.224.24-.188.577-.306.877a6.645,6.645,0,0,0-.491,1.878c-.027.333-.15.38-.441.379-1.893-.012-3.786,0-5.678-.012a1.511,1.511,0,0,0-1.168.486c-1.025,1.048-2.068,2.078-3.185,3.2,0-.843,0-1.589,0-2.335,0-1-.336-1.341-1.324-1.342-.485,0-.969-.009-1.454,0-.223.006-.338-.04-.316-.295C1249.344,275.931,1249.335,275.658,1249.34,275.386Z" transform="translate(-1247.959 -262.029)" fill="#83c2d5"/>
  <path id="Trazado_646664" data-name="Trazado 646664" d="M1333.277,368.887l-1.833.008c-.082-.515-.25-.664-.775-.684-.121,0-.242,0-.363,0-1.119,0-1.119,0-1.043-1.136q5.018,0,10.035,0a1.517,1.517,0,0,0,1.561-1.217c.936-.008,1.871-.011,2.807-.028.225,0,.283.087.278.3-.011.559-.029,1.119.005,1.676.023.365-.124.415-.44.414-2.7-.011-5.408-.006-8.113-.006-.423,0-.846.007-1.269,0A.731.731,0,0,0,1333.277,368.887Z" transform="translate(-1313.328 -337.732)" fill="#b4c9ce"/>
  <path id="Trazado_646665" data-name="Trazado 646665" d="M1353.353,284.389l-3.45,3.452a5.6,5.6,0,0,1-1.555-.1q1.984-1.993,3.968-3.986a.732.732,0,0,0,.27-.766.657.657,0,0,0-.551-.48.836.836,0,0,0-.745.346q-2.323,2.328-4.652,4.651c-.117.117-.243.225-.365.337a6.394,6.394,0,0,1-1.552-.1q3.817-3.827,7.636-7.652a6.079,6.079,0,0,1,.99-.927Q1353.35,281.78,1353.353,284.389Z" transform="translate(-1325.995 -266.847)" fill="#62737c"/>
  <path id="Trazado_646666" data-name="Trazado 646666" d="M1332.669,222.113q0-1.569,0-3.138c.876-.005,1.752,0,2.628-.019.212,0,.286.053.285.276q-.011,3.172,0,6.344c0,.2-.045.285-.259.323a6.55,6.55,0,0,0-3.151,1.49c-.288.247-.633.106-.956.109.138-.462.544-.79.636-1.275.423-.011.848,0,1.268-.038a.653.653,0,0,0,.633-.7.639.639,0,0,0-.632-.646c-.241-.021-.483-.019-.725-.027a5.152,5.152,0,0,0,.182-1.3c.181-.007.364,0,.543-.024a.678.678,0,0,0-.046-1.354C1332.941,222.123,1332.8,222.12,1332.669,222.113Z" transform="translate(-1314.948 -217.593)" fill="#83c2d5"/>
  <path id="Trazado_646667" data-name="Trazado 646667" d="M1341.8,266.053c-.11.123-.214.253-.331.37q-4.794,4.8-9.591,9.59c-.21.21-.432.41-.69.655a9.829,9.829,0,0,1-.051-1.443c0-.177.124-.268.228-.373q4.779-4.78,9.561-9.556c.1-.1.189-.309.4-.151A3.33,3.33,0,0,0,1341.8,266.053Z" transform="translate(-1314.878 -255.326)" fill="#64767f"/>
  <path id="Trazado_646668" data-name="Trazado 646668" d="M1332.522,341.545h-7.4c-.37,0-.769.025-.832-.476-.041-.324.254-.491.813-.491h14.885c.557,0,.854.17.81.494-.068.5-.467.473-.836.473Z" transform="translate(-1309.282 -317.075)" fill="#d2e0e5"/>
  <path id="Trazado_646669" data-name="Trazado 646669" d="M1340.86,365.882a1.517,1.517,0,0,1-1.561,1.217q-5.018,0-10.036,0c-.078-1.238-.078-1.238,1.122-1.238q4.989,0,9.978,0C1340.528,365.86,1340.694,365.874,1340.86,365.882Z" transform="translate(-1313.328 -337.754)" fill="#d2e0e5"/>
  <path id="Trazado_646670" data-name="Trazado 646670" d="M1339.322,263.885l-8.167,8.164c.071-.739-.227-1.431.457-2.083,1.938-1.848,3.811-3.764,5.69-5.672a1.176,1.176,0,0,1,1.03-.416C1338.642,263.91,1338.958,263.885,1339.322,263.885Z" transform="translate(-1314.893 -254.333)" fill="#64767f"/>
  <path id="Trazado_646671" data-name="Trazado 646671" d="M1342.2,354.209q-2.677.01-5.353.019c-1.8,0-3.6-.01-5.4.009-.388,0-.358-.208-.352-.458s-.053-.467.347-.465c3.524.015,7.048.009,10.573.011a1.1,1.1,0,0,1,.178.029Q1342.2,353.782,1342.2,354.209Z" transform="translate(-1314.85 -327.493)" fill="#5767c2"/>
  <path id="Trazado_646672" data-name="Trazado 646672" d="M1392.111,278.912q0-2.609-.005-5.218c.346-.358.7-.709,1.034-1.076.179-.2.32-.188.474.012a.82.82,0,0,0,.062.066c.519.54.518.54,0,1.056-.363.363-.732.722-1.088,1.091a.649.649,0,0,0-.066,1c.312.326.651.317,1.025-.044.326-.314.648-.634.961-.962.186-.2.286-.233.374.082a1.42,1.42,0,0,1-.4,1.691C1393.64,277.316,1392.9,278.138,1392.111,278.912Z" transform="translate(-1364.753 -261.371)" fill="#475556"/>
  <path id="Trazado_646673" data-name="Trazado 646673" d="M1383.933,303.627c0,.4,0,.868,0,1.334a.521.521,0,0,1-.209.384q-1.7,1.7-3.4,3.405a.77.77,0,0,1-.6.259c-.4-.011-.8,0-1.176,0Z" transform="translate(-1353.661 -286.851)" fill="#475556"/>
  <path id="Trazado_646674" data-name="Trazado 646674" d="M1331.851,268.849a5.061,5.061,0,0,1,4.266-4.27Z" transform="translate(-1315.467 -254.911)" fill="#62737c"/>
  <path id="Trazado_646675" data-name="Trazado 646675" d="M1392.08,354.216q0-.428-.007-.855c.886-.078,1.775-.01,2.662-.036.276-.008.3.168.262.353s.188.564-.214.569A22.231,22.231,0,0,1,1392.08,354.216Z" transform="translate(-1364.727 -327.5)" fill="#3e51b9"/>
  <path id="Trazado_646676" data-name="Trazado 646676" d="M1359.056,326.254a5.6,5.6,0,0,0,1.555.1q-.49.5-.979,1.008a.424.424,0,0,1-.316.153c-.462,0-.925,0-1.5,0Z" transform="translate(-1336.703 -305.359)" fill="#475556"/>
  <path id="Trazado_646677" data-name="Trazado 646677" d="M1339.265,326.3a6.392,6.392,0,0,0,1.552.1q-.49.5-.979,1.006a.426.426,0,0,1-.317.151c-.462,0-.924,0-1.471,0Z" transform="translate(-1320.539 -305.393)" fill="#475556"/>
  <path id="Trazado_646678" data-name="Trazado 646678" d="M1398.535,325.288l1.743-1.75c0,.474,0,1.029,0,1.585a.161.161,0,0,1-.178.164C1399.564,325.289,1399.03,325.288,1398.535,325.288Z" transform="translate(-1370.012 -303.137)" fill="#475556"/>
  <path id="Trazado_646679" data-name="Trazado 646679" d="M1292.626,368.108c0,.151,0,.3,0,.452,0,.241.092.524-.35.488-.352-.028-.587-.1-.564-.514.017-.316.008-.633,0-.95a.356.356,0,0,1,.231-.4,1.052,1.052,0,0,1,.622,0c.1.031.057.188.059.29C1292.629,367.685,1292.626,367.9,1292.626,368.108Z" transform="translate(-1282.634 -338.801)" fill="#d2e0e5"/>
  <path id="Trazado_646680" data-name="Trazado 646680" d="M1442.524,368.12c0-.151-.009-.3,0-.452.017-.223-.131-.528.331-.5.381.02.611.1.583.538-.02.3-.009.6,0,.9.009.447-.3.434-.615.458-.4.029-.285-.245-.3-.447C1442.518,368.452,1442.524,368.286,1442.524,368.12Z" transform="translate(-1405.987 -338.82)" fill="#d2e0e5"/>
  <path id="Trazado_646681" data-name="Trazado 646681" d="M1316.636,370.147c-.123-.447.12-.45.452-.48.457-.042.453.182.469.522.019.393-.13.454-.485.462C1316.647,370.661,1316.526,370.513,1316.636,370.147Z" transform="translate(-1302.991 -340.865)" fill="#b4c9ce"/>
  <path id="Trazado_646682" data-name="Trazado 646682" d="M1417.424,370.154c-.122-.443.134-.451.485-.473.428-.026.418.179.444.5.035.432-.143.473-.509.483C1417.431,370.677,1417.352,370.506,1417.424,370.154Z" transform="translate(-1385.438 -340.879)" fill="#b4c9ce"/>
  <path id="Trazado_646683" data-name="Trazado 646683" d="M1387.588,266.312a3.32,3.32,0,0,1-.474-.909,1.625,1.625,0,0,1,.3.054c.234.088.59.115.633.35C1388.084,265.993,1387.781,266.169,1387.588,266.312Z" transform="translate(-1360.67 -255.586)" fill="#475556"/>
  <path id="Trazado_646684" data-name="Trazado 646684" d="M1273.9,236.3c.136.007.272.01.407.02a.678.678,0,0,1,.046,1.354c-.179.022-.362.017-.543.024-1.62-.006-3.24-.015-4.86-.016q-4.293,0-8.587,0a1.388,1.388,0,0,1-.539-.046.644.644,0,0,1-.453-.705.635.635,0,0,1,.583-.6,3.164,3.164,0,0,1,.454-.01H1273.4C1273.564,236.319,1273.73,236.308,1273.9,236.3Z" transform="translate(-1256.175 -231.782)" fill="#020303"/>
  <path id="Trazado_646685" data-name="Trazado 646685" d="M1300.2,251.152c.242.008.484.005.725.027a.639.639,0,0,1,.632.646.653.653,0,0,1-.633.7c-.421.036-.845.027-1.268.038l-6.71-.024a3.542,3.542,0,0,1-.453-.011.7.7,0,0,1-.64-.7.669.669,0,0,1,.683-.647c.589-.019,1.179-.008,1.768-.009Z" transform="translate(-1282.749 -243.929)" fill="#040606"/>
  <path id="Trazado_646686" data-name="Trazado 646686" d="M1263.891,267.356c-1.239,0-2.478,0-3.718,0-.528,0-.835-.262-.828-.683.007-.4.3-.677.8-.678q3.741-.011,7.481,0c.518,0,.822.3.8.721-.018.406-.308.638-.823.64C1266.369,267.359,1265.13,267.356,1263.891,267.356Z" transform="translate(-1256.161 -256.064)" fill="#040606"/>
  <path id="Trazado_646687" data-name="Trazado 646687" d="M1261.842,252.581c-.559,0-1.119.007-1.678,0-.524-.009-.829-.281-.818-.706.011-.4.306-.655.812-.658q1.7-.011,3.4,0c.511,0,.789.255.789.675s-.282.678-.784.688C1262.991,252.59,1262.416,252.581,1261.842,252.581Z" transform="translate(-1256.162 -243.976)" fill="#040606"/>
  <path id="Trazado_646688" data-name="Trazado 646688" d="M1435.248,273.018c.15.013.3.023.45.039a.673.673,0,0,1,.043,1.34c-.162.03-.33.031-.5.045-1.149-.008-2.3-.021-3.446-.024-1.437,0-2.874,0-4.31,0-.532,0-.849-.255-.864-.665s.313-.7.868-.7q3.607,0,7.214,0C1434.888,273.05,1435.068,273.029,1435.248,273.018Z" transform="translate(-1392.989 -261.814)" fill="#040606"/>
  <path id="Trazado_646689" data-name="Trazado 646689" d="M1456.952,258.258c.149.007.3.009.446.023a.65.65,0,0,1,.639.628.67.67,0,0,1-.594.719c-.161.025-.326.021-.49.03l-3.038-.019a.7.7,0,0,1-.689-.422.636.636,0,0,1,.09-.682.737.737,0,0,1,.644-.26C1454.957,258.274,1455.954,258.264,1456.952,258.258Z" transform="translate(-1414.697 -249.741)" fill="#020303"/>
  <path id="Trazado_646690" data-name="Trazado 646690" d="M1359.83,395.076a2.16,2.16,0,0,1-2.177-2.2,2.184,2.184,0,1,1,4.368.015A2.158,2.158,0,0,1,1359.83,395.076Zm.834-2.193a.827.827,0,1,0-1.654.03.827.827,0,0,0,1.654-.03Z" transform="translate(-1336.572 -358.075)" fill="#020303"/>
  <path id="Trazado_646691" data-name="Trazado 646691" d="M1366.76,398.981a.827.827,0,0,1-1.654.03.827.827,0,1,1,1.654-.03Z" transform="translate(-1342.668 -364.173)" fill="#64767f"/>
</svg>
