<svg id="Grupo_988705" data-name="Grupo 988705" xmlns="http://www.w3.org/2000/svg" width="45.291" height="50.989" viewBox="0 0 45.291 50.989">
  <path id="Trazado_646749" data-name="Trazado 646749" d="M1859.386,360.327c.287-.272.567-.552.864-.814.2-.172.152-.389.152-.6q0-5.077,0-10.154c0-.723.105-.87.758-1.087.643.224.735.348.736,1.052q0,4.254,0,8.507a.73.73,0,0,0,.1.554c1.377-1.388,2.724-2.759,4.09-4.109a.987.987,0,0,0,.317-.78c-.009-3.9.045-7.795-.028-11.691a2.472,2.472,0,0,1,2.7-2.725c4.394.063,8.789.023,13.184.022,1.094,0,2.188-.01,3.282-.015.447.005.9-.011,1.341.023.325.024.379-.105.376-.4-.014-1.309,0-2.618-.007-3.928a2.323,2.323,0,0,0-2.7-2.537c-.066-.005-.132-.015-.2-.015q-10.05,0-20.1,0a2.4,2.4,0,0,0-.494.044,2.337,2.337,0,0,0-1.868,2.514q-.006,5.5,0,10.995c0,.707-.116.861-.742,1.035a.82.82,0,0,1-.753-.934c0-3.766-.024-7.533.012-11.3a3.762,3.762,0,0,1,3.941-3.849q10.229-.007,20.458,0a3.781,3.781,0,0,1,3.945,3.943c.008,1.228,0,2.455,0,3.683,0,.734,0,.742.717.734a2.417,2.417,0,0,1,1.2.256,2.208,2.208,0,0,1,1.221,2.071q.012,6.62,0,13.239a2.256,2.256,0,0,1-2.357,2.347,1.729,1.729,0,0,1-.3,0c-.386-.062-.493.084-.492.48.015,4.662-.047,9.325.033,13.986a4.019,4.019,0,0,1-4.2,4.19c-5.84-.065-11.68-.019-17.521-.024a6.142,6.142,0,0,0-2.044.273,5.5,5.5,0,0,1-3.745-.242c-.231-.085-.465-.214-.711.072-.215.25-.34.381-.089.718a1.624,1.624,0,0,1-.171,2.1c-.392.427-.8.841-1.231,1.232a1.689,1.689,0,0,1-2.269.055c-.272-.233-.4-.2-.621.042-.437.476-.9.926-1.368,1.376a1.24,1.24,0,0,1-1.924,0q-2.911-2.9-5.808-5.806a1.246,1.246,0,0,1,.015-1.958c.477-.486.955-.97,1.445-1.441.166-.159.175-.246.019-.435a1.713,1.713,0,0,1,.108-2.491c.348-.356.7-.713,1.058-1.053a1.672,1.672,0,0,1,2.224-.173c.255.187.368.155.55-.063a2.542,2.542,0,0,0,.559-2.187,4.3,4.3,0,0,1,.066-1.872q.863-3.34,1.743-6.675a2.02,2.02,0,0,1,2.707-1.518,2.977,2.977,0,0,1,2.121,3.676c-.129.53-.262,1.059-.393,1.589-.028.052-.048.1.007.153Zm-4.88,16.705q-1.122-1.142-2.243-2.284a.774.774,0,1,1,1.057-1.055q1.688,1.667,3.37,3.339c.308.319.62.636.925.958.206.218.387.191.585-.018.295-.311.6-.614.909-.909a.32.32,0,0,0,0-.541c-.347-.327-.685-.662-1.026-.994q-3.419-3.432-6.834-6.868c-.237-.239-.4-.211-.614.019-.269.293-.548.578-.843.844-.264.238-.234.428.01.658.374.352.73.722,1.092,1.087.478.482.5.659.176,1.262-.268.145-.606.312-.833.094-.448-.431-.662-.1-.931.18-.287.3-.575.593-.878.874-.17.158-.172.261,0,.429q2.241,2.206,4.466,4.428c.064.074.123.153.192.222.763.772.763.771,1.519.016C1855.506,377.87,1855.506,377.87,1854.505,377.032Zm30.145-3.505a2.278,2.278,0,0,0,2.585-1.98c.062-.757.016-1.522.018-2.283,0-.2-.024-.354-.274-.184a5.4,5.4,0,0,1-1.421.556c-.348.009-.7.025-1.044.025-4.064,0-8.129.012-12.193-.011-.6,0-1.1.023-1.359.67a1.6,1.6,0,0,1-.4.441c-.82.823-1.643,1.641-2.46,2.467-.08.082-.241.136-.176.323H1884.2C1884.353,373.55,1884.5,373.535,1884.65,373.527Zm-16.621-5.019a.733.733,0,0,1-.874-.4.764.764,0,0,1,.229-.939c.392-.38.775-.77,1.16-1.159.11-.112.271-.2.111-.406-.327-.425-.635-.864-.982-1.342-.281.3-.512.559-.761.8a.744.744,0,0,1-1.138.08c-.323-.326-.285-.729.087-1.139.3-.327.86-.583.843-.973s-.448-.744-.726-1.092a1.588,1.588,0,0,1-.391-1.515c.166-.2.317-.423.5-.609,1.012-1.024,2.038-2.035,3.049-3.06a1.352,1.352,0,0,0,.3-1.745,1.383,1.383,0,0,0-2.357-.214q-4.14,4.131-8.272,8.269c-.105.106-.206.217-.321.313a.757.757,0,0,1-1.141-.091.96.96,0,0,1-.136-.982c.338-1.3.682-2.593,1.014-3.892a1.518,1.518,0,0,0-.935-1.939c-.6-.218-.85-.087-1.012.536q-.833,3.195-1.666,6.39a2.88,2.88,0,0,0-.105,1.279,4.018,4.018,0,0,1-1.041,3.72c-.149.158-.138.246.014.4q2.354,2.324,4.694,4.662c.076.086.147.175.228.256.741.738.752.748,1.48.011a.994.994,0,0,1,1.162-.283c.48.176.976.315,1.47.451a3.581,3.581,0,0,0,3.531-.774c1.272-1.161,2.472-2.4,3.668-3.644a1.778,1.778,0,0,0,.173-2.167c-.148-.236-.25-.283-.474-.064A7.031,7.031,0,0,1,1868.029,368.508Zm17.571-.465a2.191,2.191,0,0,0,1.655-2.1c.017-3.062.006-6.124.014-9.187,0-.247-.05-.36-.325-.345-.462.026-.926.018-1.388.025-1.958-.007-3.916-.006-5.873-.028-.3,0-.346.191-.446.373a5.316,5.316,0,0,1-6.352,2.494c-.368-.126-.684-.288-.734-.711-.047-.4.217-.629.518-.836a3.233,3.233,0,0,0,1.15-1.313c-.781,0-1.508.015-2.234-.006-.362-.011-.613.026-.727.45a2.383,2.383,0,0,1-.713,1c-.917.914-1.819,1.843-2.754,2.737-.27.259-.243.412-.039.688,1.2,1.626,2.385,3.268,3.578,4.9a3.129,3.129,0,0,1,.678,1.525c.035.359.15.46.516.459,4.215-.014,8.43-.009,12.646-.008A2.28,2.28,0,0,0,1885.6,368.043Zm-7.491-12.4a1.56,1.56,0,0,1,1.473-.73c1.21.027,2.421.011,3.631.007q2.759-.009,5.52-.025c.1.009.2.025.3.026,1.214.02,1.383-.145,1.383-1.352q0-5.988,0-11.977c0-1.553-.128-1.674-1.675-1.574a.666.666,0,0,0-.1-.014q-9.955,0-19.91,0a.733.733,0,0,0-.82.838c-.006,3.849,0,7.7-.009,11.547,0,.271.066.358.355.369a2.816,2.816,0,0,1,2.659,1.829.451.451,0,0,0,.5.343c.9-.02,1.792-.022,2.688,0a1.331,1.331,0,0,1,1.208,1.9,4.956,4.956,0,0,1-.583.98c-.231.315.02.221.177.2A3.63,3.63,0,0,0,1878.108,355.642Z" transform="translate(-1846.614 -330.138)" fill="#030303"/>
  <path id="Trazado_646750" data-name="Trazado 646750" d="M1919.489,352.226c.626-.173.742-.327.742-1.035q0-5.5,0-10.995a2.337,2.337,0,0,1,1.869-2.514,2.4,2.4,0,0,1,.494-.044q10.05,0,20.1,0c.066,0,.132.01.2.015a3.437,3.437,0,0,1,1.009,2.73c-.047,1.368-.014,2.738-.015,4.107-1.094.005-2.188.015-3.282.015-4.395,0-8.79.041-13.184-.022a2.472,2.472,0,0,0-2.7,2.725c.072,3.9.019,7.794.027,11.691a.987.987,0,0,1-.317.78c-1.367,1.35-2.713,2.721-4.09,4.109a.73.73,0,0,1-.1-.554q-.006-4.254,0-8.507c0-.7-.092-.828-.736-1.052Q1919.493,352.951,1919.489,352.226Zm21.65-11.191h.743c.033,0,.066,0,.1,0a.716.716,0,0,0,.733-.71.706.706,0,0,0-.679-.766c-.592-.033-1.189-.03-1.782,0a.74.74,0,1,0,.044,1.479C1940.578,341.044,1940.859,341.033,1941.139,341.035Z" transform="translate(-1904.949 -336.141)" fill="#bee2f2"/>
  <path id="Trazado_646751" data-name="Trazado 646751" d="M1960.29,397.576c-.157.017-.408.111-.177-.2a4.976,4.976,0,0,0,.583-.98,1.331,1.331,0,0,0-1.209-1.9c-.9-.02-1.792-.018-2.688,0a.451.451,0,0,1-.5-.343,2.816,2.816,0,0,0-2.658-1.829c-.29-.01-.356-.1-.355-.369.007-3.849,0-7.7.009-11.547a.733.733,0,0,1,.82-.838q9.955,0,19.91,0a.659.659,0,0,1,.1.014,4.019,4.019,0,0,1,.11,1.228q0,6.286,0,12.571a3.734,3.734,0,0,1-.116,1.078q-2.759.013-5.519.025c-1.21,0-2.421.02-3.631-.007a1.56,1.56,0,0,0-1.474.73c-.312,0-.625-.01-.938-.006a.683.683,0,0,0-.676.412A5.119,5.119,0,0,1,1960.29,397.576Zm-2.775-8.58a2.028,2.028,0,0,1-.745.374,1.047,1.047,0,0,0,.041,2.021c.544.2,1.087.4,1.632.593a6.627,6.627,0,0,0,8.683-4.023c.127-.338.174-.783.418-.981.266-.216.689.064,1.048.094a.749.749,0,0,0,.865-.564.738.738,0,0,0-.579-.895,4.422,4.422,0,0,1-.98-.244c.352-.07.679-.119,1-.2a.688.688,0,0,0,.56-.858.67.67,0,0,0-.787-.588,3.564,3.564,0,0,0-.636.1c-.3.076-.459-.012-.618-.3a3.641,3.641,0,0,0-6.43.029,1,1,0,0,1-.965.584,6.06,6.06,0,0,1-3.525-.818.945.945,0,0,0-1.451.4,1.953,1.953,0,0,0-.074.787A5.522,5.522,0,0,0,1957.516,389Zm13.825-2.573a.707.707,0,0,0-.676.374.646.646,0,0,0,.05.79,7.156,7.156,0,0,0,.879.874.655.655,0,0,0,.943-.08.682.682,0,0,0,.045-.986,10.015,10.015,0,0,0-.8-.811A.585.585,0,0,0,1971.34,386.423Zm.654-4.825a.712.712,0,0,0-.257.064,3.461,3.461,0,0,0-1.1,1.116.635.635,0,0,0,.213.841.671.671,0,0,0,.912.013,7.178,7.178,0,0,0,.843-.84.684.684,0,0,0,.068-.792A.749.749,0,0,0,1971.995,381.6Zm.891,4.247c.149,0,.3.007.446,0a.757.757,0,0,0,.781-.73.769.769,0,0,0-.76-.758c-.148-.012-.3,0-.446,0-.811,0-1.16.221-1.167.74S1972.089,385.847,1972.886,385.845Z" transform="translate(-1932.004 -369.702)" fill="#6aa1e2"/>
  <path id="Trazado_646752" data-name="Trazado 646752" d="M1968.156,473.428a2.276,2.276,0,0,1-.831.12c-4.215,0-8.431-.006-12.646.008-.365,0-.48-.1-.516-.459a3.127,3.127,0,0,0-.678-1.525c-1.193-1.633-2.374-3.275-3.578-4.9-.2-.276-.231-.43.039-.688.935-.895,1.837-1.824,2.754-2.737a2.38,2.38,0,0,0,.713-1c.114-.424.365-.461.727-.45.726.021,1.453.006,2.234.006a3.232,3.232,0,0,1-1.15,1.313c-.3.207-.565.434-.518.836.05.423.365.585.734.711a5.316,5.316,0,0,0,6.352-2.494c.1-.182.149-.376.446-.373,1.957.021,3.915.021,5.873.028q0,5.458,0,10.917C1968.115,472.967,1968.141,473.2,1968.156,473.428Z" transform="translate(-1929.17 -435.523)" fill="#bfe2f3"/>
  <path id="Trazado_646753" data-name="Trazado 646753" d="M1885.244,470.128q-2.345-2.333-4.694-4.662c-.152-.15-.162-.238-.014-.4a4.019,4.019,0,0,0,1.041-3.72,2.877,2.877,0,0,1,.105-1.279q.834-3.195,1.666-6.39c.162-.622.413-.754,1.012-.536a1.518,1.518,0,0,1,.936,1.939c-.332,1.3-.676,2.594-1.014,3.892a.96.96,0,0,0,.136.982.758.758,0,0,0,1.141.091c.114-.1.215-.207.32-.313q4.136-4.135,8.272-8.269a1.383,1.383,0,0,1,2.357.214,2.089,2.089,0,0,1-.636,1.2q-1.582,1.575-3.156,3.159c-.4.4-.4.657-.061,1.054a1.588,1.588,0,0,0,.391,1.515c.278.348.708.716.725,1.092s-.546.646-.843.973c-.372.41-.41.813-.087,1.139a.744.744,0,0,0,1.138-.08c.249-.242.479-.5.761-.8.348.477.656.917.983,1.342.16.207,0,.294-.111.406-.385.388-.768.778-1.16,1.159a.764.764,0,0,0-.229.939.733.733,0,0,0,.874.4,1.05,1.05,0,0,1-.14.256c-1.076,1.082-2.1,2.223-3.253,3.218a4.325,4.325,0,0,1-3.627,1.093c-.525-.085-1.033-.225-1.544-.349a.537.537,0,0,0-.57.149C1885.738,469.757,1885.592,470.071,1885.244,470.128Z" transform="translate(-1873.683 -426.812)" fill="#efc4ad"/>
  <path id="Trazado_646754" data-name="Trazado 646754" d="M1970.11,531.988c-.149.008-.3.023-.447.023h-16.273c-.066-.187.095-.241.175-.323.816-.825,1.64-1.644,2.46-2.467a1.608,1.608,0,0,0,.4-.441c.261-.646.757-.673,1.359-.67,4.064.023,8.128.013,12.193.011.348,0,.7-.016,1.044-.025,0,.348-.011.7,0,1.045a3.529,3.529,0,0,1-.289,1.84C1970.542,531.327,1970.317,531.653,1970.11,531.988Zm-10.023-2.669c-.48,0-.961-.008-1.441,0-.508.01-.77.25-.789.7a.725.725,0,0,0,.765.789q1.44.026,2.881,0a.743.743,0,1,0-.026-1.484C1961.014,529.311,1960.551,529.32,1960.087,529.319Z" transform="translate(-1932.073 -488.599)" fill="#49506e"/>
  <path id="Trazado_646755" data-name="Trazado 646755" d="M1868.69,530.9q-1.685-1.669-3.37-3.339a.811.811,0,0,0-1.219-.162l-1.031-1c.324-.6.3-.78-.176-1.262-.361-.365-.718-.735-1.092-1.087-.244-.229-.274-.42-.009-.658.3-.266.574-.551.843-.844.21-.229.377-.258.614-.018q3.41,3.441,6.835,6.868A5.7,5.7,0,0,1,1868.69,530.9Z" transform="translate(-1858.614 -484.011)" fill="#e5e5e6"/>
  <path id="Trazado_646756" data-name="Trazado 646756" d="M1904.558,521.728c.347-.058.493-.372.719-.579a.537.537,0,0,1,.57-.149c.512.124,1.02.264,1.544.349a4.325,4.325,0,0,0,3.627-1.093c1.152-1,2.177-2.136,3.253-3.218a1.05,1.05,0,0,0,.14-.256,7.023,7.023,0,0,0,1.385-1.269c.224-.219.325-.172.474.064a1.778,1.778,0,0,1-.173,2.167c-1.2,1.241-2.4,2.483-3.668,3.644a3.581,3.581,0,0,1-3.531.774c-.495-.136-.99-.274-1.47-.451a.994.994,0,0,0-1.162.283c-.727.737-.738.727-1.479-.011C1904.705,521.9,1904.634,521.813,1904.558,521.728Z" transform="translate(-1892.996 -478.412)" fill="#d99c85"/>
  <path id="Trazado_646757" data-name="Trazado 646757" d="M2041.823,473.435c-.014-.23-.041-.461-.041-.691q0-5.458,0-10.917c.463-.007.927,0,1.389-.025.275-.015.326.1.325.345-.008,3.062,0,6.124-.014,9.187A2.191,2.191,0,0,1,2041.823,473.435Z" transform="translate(-2002.837 -435.53)" fill="#91c5d5"/>
  <path id="Trazado_646758" data-name="Trazado 646758" d="M1857.828,542.144l1.031,1a.814.814,0,0,0,.162,1.217q1.12,1.143,2.243,2.284l-1.613,1.5q-2.231-2.216-4.466-4.427c-.171-.168-.17-.271,0-.429.3-.281.591-.577.878-.874.269-.278.482-.611.931-.18C1857.222,542.456,1857.56,542.289,1857.828,542.144Z" transform="translate(-1853.373 -499.753)" fill="#6aa1e1"/>
  <path id="Trazado_646759" data-name="Trazado 646759" d="M2037.785,344.533c0-1.369-.033-2.74.015-4.107a3.437,3.437,0,0,0-1.008-2.73,2.323,2.323,0,0,1,2.7,2.537c0,1.309-.008,2.619.006,3.928,0,.29-.051.42-.376.4C2038.681,344.522,2038.232,344.538,2037.785,344.533Z" transform="translate(-1998.846 -336.183)" fill="#91c5d5"/>
  <path id="Trazado_646760" data-name="Trazado 646760" d="M2037.246,529.465c.208-.335.433-.66.619-1.007a3.527,3.527,0,0,0,.29-1.84c-.011-.348,0-.7,0-1.044a5.412,5.412,0,0,0,1.421-.556c.25-.171.274-.013.274.184,0,.761.043,1.527-.018,2.283A2.278,2.278,0,0,1,2037.246,529.465Z" transform="translate(-1999.209 -486.076)" fill="#2a3657"/>
  <path id="Trazado_646761" data-name="Trazado 646761" d="M1940.708,460.192c-.344-.4-.338-.651.061-1.054q1.571-1.587,3.156-3.159a2.088,2.088,0,0,0,.636-1.2,1.352,1.352,0,0,1-.3,1.745c-1.012,1.025-2.036,2.036-3.049,3.06C1941.024,459.769,1940.874,459.988,1940.708,460.192Z" transform="translate(-1921.734 -429.909)" fill="#d99c85"/>
  <path id="Trazado_646762" data-name="Trazado 646762" d="M1897.112,559.127a5.7,5.7,0,0,0,1.393-1.5c.342.332.68.668,1.026.994a.32.32,0,0,1,0,.541c-.31.3-.615.6-.91.909-.2.209-.378.236-.585.018C1897.732,559.763,1897.421,559.447,1897.112,559.127Z" transform="translate(-1887.036 -512.234)" fill="#c1c0c7"/>
  <path id="Trazado_646763" data-name="Trazado 646763" d="M1878.081,566.666l1.613-1.5c1,.838,1,.838.1,1.74-.755.755-.756.755-1.519-.016C1878.2,566.819,1878.145,566.74,1878.081,566.666Z" transform="translate(-1871.802 -518.27)" fill="#4680bb"/>
  <path id="Trazado_646764" data-name="Trazado 646764" d="M1988.382,460.3a5.118,5.118,0,0,0,1.594-1.965.682.682,0,0,1,.676-.412c.313,0,.625,0,.938.006A3.629,3.629,0,0,1,1988.382,460.3Z" transform="translate(-1960.095 -432.425)" fill="#4680bb"/>
  <path id="Trazado_646765" data-name="Trazado 646765" d="M1910.188,481.173l-.074.087c-.055-.049-.035-.1-.007-.153Z" transform="translate(-1897.417 -450.984)" fill="#f7f9fa"/>
  <path id="Trazado_646766" data-name="Trazado 646766" d="M2021.543,348.635c-.28,0-.562.01-.842,0a.74.74,0,1,1-.044-1.479c.593-.026,1.189-.029,1.782,0a.706.706,0,0,1,.679.766.716.716,0,0,1-.733.71c-.033,0-.066,0-.1,0Z" transform="translate(-1985.352 -343.742)" fill="#020303"/>
  <path id="Trazado_646767" data-name="Trazado 646767" d="M1964.23,397.213a5.522,5.522,0,0,1-2.546-4.481,1.951,1.951,0,0,1,.074-.787.945.945,0,0,1,1.451-.4,6.061,6.061,0,0,0,3.526.819,1,1,0,0,0,.965-.584,3.641,3.641,0,0,1,6.43-.029c.158.288.317.377.617.3a3.564,3.564,0,0,1,.636-.1.67.67,0,0,1,.787.588.689.689,0,0,1-.56.858c-.319.082-.646.131-1,.2a4.417,4.417,0,0,0,.98.244.738.738,0,0,1,.579.895.75.75,0,0,1-.865.564c-.359-.03-.782-.31-1.048-.094-.244.2-.291.643-.418.981a6.627,6.627,0,0,1-8.683,4.023c-.545-.2-1.088-.4-1.632-.593a1.047,1.047,0,0,1-.041-2.021A2.028,2.028,0,0,0,1964.23,397.213Zm.824,1.358c.352.126.627.24.912.325a5.045,5.045,0,0,0,4.935-.973,6.937,6.937,0,0,0,2.147-4.255,2.074,2.074,0,0,0-2.057-2.354,2.227,2.227,0,0,0-2.176,1.572,1.112,1.112,0,0,1-.9.8,8.157,8.157,0,0,1-2.812.1,13.162,13.162,0,0,1-1.868-.51,4.039,4.039,0,0,0,2.627,3.065c.769.294.883.9.261,1.429C1965.8,398.04,1965.445,398.278,1965.054,398.571Z" transform="translate(-1938.718 -377.919)" fill="#020303"/>
  <path id="Trazado_646768" data-name="Trazado 646768" d="M2040.608,413.94a.585.585,0,0,1,.436.162,10.029,10.029,0,0,1,.8.811.682.682,0,0,1-.045.986.655.655,0,0,1-.942.08,7.186,7.186,0,0,1-.879-.874.646.646,0,0,1-.049-.79A.707.707,0,0,1,2040.608,413.94Z" transform="translate(-2001.271 -397.219)" fill="#020303"/>
  <path id="Trazado_646769" data-name="Trazado 646769" d="M2041.243,389.759a.749.749,0,0,1,.673.4.684.684,0,0,1-.067.792,7.166,7.166,0,0,1-.843.84.671.671,0,0,1-.912-.013.635.635,0,0,1-.212-.841,3.458,3.458,0,0,1,1.1-1.116A.715.715,0,0,1,2041.243,389.759Z" transform="translate(-2001.252 -377.863)" fill="#020303"/>
  <path id="Trazado_646770" data-name="Trazado 646770" d="M2046.908,405.044c-.8,0-1.154-.233-1.146-.753s.357-.74,1.168-.74c.148,0,.3-.009.446,0a.77.77,0,0,1,.76.758.757.757,0,0,1-.781.73C2047.206,405.051,2047.056,405.044,2046.908,405.044Z" transform="translate(-2006.026 -388.901)" fill="#020303"/>
  <path id="Trazado_646771" data-name="Trazado 646771" d="M1978.063,534.211c.464,0,.928-.009,1.391,0a.743.743,0,1,1,.026,1.484q-1.44.028-2.881,0a.725.725,0,0,1-.765-.789c.019-.448.281-.687.789-.7C1977.1,534.2,1977.583,534.21,1978.063,534.211Z" transform="translate(-1950.05 -493.49)" fill="#030303"/>
  <path id="Trazado_646772" data-name="Trazado 646772" d="M1971.292,404.526c.39-.293.744-.531,1.065-.806.621-.53.507-1.135-.261-1.429a4.039,4.039,0,0,1-2.627-3.064,13.166,13.166,0,0,0,1.868.51,8.156,8.156,0,0,0,2.812-.1,1.113,1.113,0,0,0,.9-.8,2.227,2.227,0,0,1,2.176-1.573,2.074,2.074,0,0,1,2.057,2.354,6.939,6.939,0,0,1-2.147,4.255,5.045,5.045,0,0,1-4.935.973C1971.919,404.766,1971.643,404.652,1971.292,404.526Z" transform="translate(-1944.956 -383.874)" fill="#e6e6e7"/>
</svg>
