<svg id="Grupo_988696" data-name="Grupo 988696" xmlns="http://www.w3.org/2000/svg" width="51.261" height="51.242" viewBox="0 0 51.261 51.242">
  <path id="Trazado_646558" data-name="Trazado 646558" d="M967.444-58.022v2.263c-.643.116-.8.318-.8,1.03q0,10.978,0,21.955c0,1.266-.4,1.672-1.668,1.672H929.407c-.2,0-.4-.015-.6-.023a7.89,7.89,0,0,1-.311-1.5q.019-15,.01-30c.2-.007.4-.02.6-.02h31.08c2.018,0,4.037.008,6.056-.008.331,0,.414.09.408.413-.021,1.034-.008,2.068-.007,3.1C966.644-58.392,966.741-58.258,967.444-58.022Zm-20.77,10.6q6.6,0,13.209,0a1.762,1.762,0,0,0,1.955-1.942q0-4.452,0-8.9a1.769,1.769,0,0,0-1.974-1.974q-13.209,0-26.418,0a1.758,1.758,0,0,0-1.975,1.968q-.007,4.427,0,8.854a1.767,1.767,0,0,0,1.995,2Zm-9.157,12.75c1.383,0,2.766,0,4.15,0a1.759,1.759,0,0,0,1.954-1.941q0-3.624,0-7.247a1.78,1.78,0,0,0-1.951-1.954q-4.125-.007-8.249,0a1.767,1.767,0,0,0-1.95,1.952q-.009,3.623,0,7.247a1.751,1.751,0,0,0,1.947,1.944C934.784-34.664,936.15-34.667,937.517-34.667Zm16.018-1.41q3.7,0,7.4,0c.562,0,.886-.269.9-.715.018-.467-.32-.765-.894-.786-.083,0-.167,0-.25,0q-7.2,0-14.4,0a2.255,2.255,0,0,0-.593.054.726.726,0,0,0-.433,1.079.867.867,0,0,0,.867.371Q949.835-36.08,953.535-36.077Zm-.061-6.821q3.7,0,7.4,0c.623,0,.971-.28.963-.756s-.356-.74-.984-.747h-.15q-7.2,0-14.4,0a2.416,2.416,0,0,0-.547.029.741.741,0,0,0-.466,1.137.866.866,0,0,0,.833.338Q949.8-42.9,953.474-42.9Zm.019,3.409h4.6c.983,0,1.967.008,2.95,0a.736.736,0,0,0,.794-.72.76.76,0,0,0-.752-.774,2.873,2.873,0,0,0-.3,0H946.235a1.525,1.525,0,0,0-.591.067.744.744,0,0,0-.247,1.232.963.963,0,0,0,.747.2Z" transform="translate(-916.894 71.242)" fill="#e7ebef"/>
  <path id="Trazado_646559" data-name="Trazado 646559" d="M926.406,7.392q.009.248.019.5c-.62.185-.759.356-.763.989-.006,1.05,0,2.1,0,3.15,0,1.281-.391,1.674-1.666,1.674h-35.46c-.183,0-.366-.01-.549-.016a1.876,1.876,0,0,1-.4-1.25q.008-15.124,0-30.248c.682-.007,1.365-.012,2.047-.021.611-.008.806-.167.968-.781a.184.184,0,0,1,.092.024q0,10.776,0,21.552a4.09,4.09,0,0,0,.182,1.123,4.534,4.534,0,0,0,4.566,3.3Q910.926,7.411,926.406,7.392Z" transform="translate(-884.181 36.039)" fill="#bce1a5"/>
  <path id="Trazado_646560" data-name="Trazado 646560" d="M954.024-92.289c-.7-.236-.8-.37-.8-1.11,0-1.034-.013-2.068.007-3.1.006-.323-.077-.416-.408-.413-2.018.016-4.037.008-6.056.008h-31.08c-.2,0-.4.013-.6.02a12.689,12.689,0,0,1-1.3-.029c-.486-.058-.554.149-.554.577.011,9.66.028,19.32-.009,28.98-.007,1.787.623,2.121,2.16,1.965.2.008.4.023.6.023h35.567c1.264,0,1.668-.406,1.668-1.672q0-10.978,0-21.955c0-.712.159-.914.8-1.03a.82.82,0,0,1,.7.931q-.008,11.226-.007,22.452a2.724,2.724,0,0,1-2.8,2.772c-2.067.017-4.134.015-6.2.021-.2-.006-.4-.016-.6-.017q-15.106,0-30.212,0a4.868,4.868,0,0,1-.946-.053,2.736,2.736,0,0,1-2.221-2.9q0-10.327,0-20.653c0-.2-.02-.4-.031-.6.063-2.377.051-4.755.006-7.132q.012-3.626.024-7.252a3.631,3.631,0,0,1,.13-1.137,2.748,2.748,0,0,1,2.549-1.908c.534-.013,1.068,0,1.6,0H951.6a2.8,2.8,0,0,1,3.12,3.111c0,2.985-.012,5.971.011,8.956A1.017,1.017,0,0,1,954.024-92.289ZM953.2-98.5c.006-1.266.015-2.532.018-3.8,0-1.3-.4-1.707-1.683-1.707h-35.5c-.183,0-.366.01-.549.015-.332-.005-.665-.025-1-.013a1.205,1.205,0,0,0-1.236,1.232c-.024,1.346-.007,2.694-.015,4.04,0,.223.048.336.3.326.515-.021,1.03-.018,1.545-.024.133.006.266.017.4.017h37.238c.133,0,.266-.01.4-.016C953.192-98.405,953.214-98.434,953.2-98.5Z" transform="translate(-903.474 105.509)" fill="#020202"/>
  <path id="Trazado_646561" data-name="Trazado 646561" d="M877.046-49.807c-.163.614-.357.773-.968.781-.682.009-1.364.014-2.047.021-.449-.007-.9.017-1.347-.028-.462-.048-.566.116-.565.566q.02,14.694.01,29.388c0,.117,0,.234,0,.35a1.247,1.247,0,0,0,1.25,1.234c.349.013.7-.007,1.049-.012.183.006.366.016.549.016h35.46c1.274,0,1.665-.392,1.666-1.674,0-1.05,0-2.1,0-3.15,0-.633.143-.8.763-.989a.84.84,0,0,1,.743.955c-.014,1.167.008,2.335-.008,3.5a2.74,2.74,0,0,1-2.919,2.856q-18.567,0-37.133,0a2.751,2.751,0,0,1-2.926-2.9q0-17.912,0-35.823a2.744,2.744,0,0,1,2.915-2.909q1.251-.008,2.5,0c.617,0,.795.145.937.724-.113.588-.317.766-.9.775s-1.165.015-1.748.023c-.3-.007-.6-.027-.894-.02a1.24,1.24,0,0,0-1.31,1.315c-.011,1.311,0,2.623-.007,3.934,0,.238.036.369.321.355.53-.025,1.061-.019,1.592-.025.682.006,1.365.031,2.046.012A.833.833,0,0,1,877.046-49.807Z" transform="translate(-870.627 67.23)" fill="#010101"/>
  <path id="Trazado_646562" data-name="Trazado 646562" d="M904.818-18.611c.011.2.031.4.032.6q0,10.327,0,20.653a2.736,2.736,0,0,0,2.221,2.9,4.867,4.867,0,0,0,.945.053q15.106,0,30.212,0c.2,0,.4.011.6.017q-.013.886-.025,1.772-15.481,0-30.961,0a4.534,4.534,0,0,1-4.566-3.3,4.085,4.085,0,0,1-.182-1.123q-.014-10.776,0-21.552l0-.026Z" transform="translate(-896.579 36.047)" fill="#a0d0a5"/>
  <path id="Trazado_646563" data-name="Trazado 646563" d="M890.576-46.907a.833.833,0,0,0-.964-.725c-.681.019-1.364-.006-2.046-.012,0-1.243.006-2.485-.014-3.728a3.745,3.745,0,0,1,.313-1.832c.583-.007,1.165-.013,1.748-.023s.787-.188.9-.775l.162.023q0,3.535,0,7.07l0,.026A.186.186,0,0,0,890.576-46.907Zm-1.509-4.046v-.006c-.133,0-.266-.01-.4,0a.715.715,0,0,0-.729.724.7.7,0,0,0,.693.756,4.19,4.19,0,0,0,.893-.006.675.675,0,0,0,.653-.737.683.683,0,0,0-.665-.728A3.427,3.427,0,0,0,889.068-50.953Z" transform="translate(-884.157 64.331)" fill="#f4cd73"/>
  <path id="Trazado_646564" data-name="Trazado 646564" d="M903.118-47.049q0-3.535,0-7.07l1.589-.014c.038.037.065.037.076-.022a.037.037,0,0,1,.061-.011c.045,2.377.057,4.755-.006,7.132Z" transform="translate(-896.603 64.47)" fill="#d7aa59"/>
  <path id="Trazado_646565" data-name="Trazado 646565" d="M911.134-54.066c-.011.059-.038.059-.076.022A.126.126,0,0,1,911.134-54.066Z" transform="translate(-902.951 64.381)" fill="#f4cd73"/>
  <path id="Trazado_646566" data-name="Trazado 646566" d="M958.514-37.812H945.3a1.767,1.767,0,0,1-1.995-2q0-4.427,0-8.854a1.758,1.758,0,0,1,1.975-1.968q13.209,0,26.418,0a1.769,1.769,0,0,1,1.974,1.974q0,4.452,0,8.9a1.762,1.762,0,0,1-1.955,1.942Q965.118-37.81,958.514-37.812Zm-.057-1.5c4.368,0,8.736-.007,13.1.01.476,0,.63-.125.626-.615-.021-2.85-.01-5.7-.011-8.551,0-.66,0-.661-.662-.661q-13.029,0-26.058-.011c-.5,0-.657.133-.653.643q.034,4.275,0,8.55c0,.507.142.648.649.646C949.787-39.322,954.122-39.313,958.456-39.313Z" transform="translate(-928.734 61.636)" fill="#020202"/>
  <path id="Trazado_646567" data-name="Trazado 646567" d="M949.351,32.45c-1.367,0-2.733,0-4.1,0a1.752,1.752,0,0,1-1.947-1.944q-.009-3.624,0-7.247a1.768,1.768,0,0,1,1.95-1.952q4.124-.007,8.249,0a1.78,1.78,0,0,1,1.951,1.954q0,3.624,0,7.247a1.759,1.759,0,0,1-1.954,1.941C952.117,32.453,950.734,32.45,949.351,32.45Zm-.012-1.509c1.349,0,2.7-.014,4.048.008.432.007.577-.126.574-.569q-.029-3.5,0-6.995c0-.429-.123-.588-.567-.585q-4.023.023-8.046,0c-.421,0-.545.148-.543.554q.02,3.522,0,7.045c0,.406.116.557.538.55C946.674,30.927,948.007,30.941,949.339,30.941Z" transform="translate(-928.728 4.124)" fill="#030303"/>
  <path id="Trazado_646568" data-name="Trazado 646568" d="M921.436-31.165c-1.538.156-2.167-.178-2.16-1.965.036-9.66.02-19.32.009-28.98,0-.428.068-.635.554-.577a12.683,12.683,0,0,0,1.3.029q0,15-.01,30A7.891,7.891,0,0,0,921.436-31.165Z" transform="translate(-909.521 71.282)" fill="#c6d2db"/>
  <path id="Trazado_646569" data-name="Trazado 646569" d="M1019.987,63.862q-3.7,0-7.4,0a.868.868,0,0,1-.867-.371.726.726,0,0,1,.433-1.079,2.256,2.256,0,0,1,.593-.054q7.2,0,14.4,0c.083,0,.167,0,.25,0,.574.021.912.319.894.786-.017.446-.341.714-.9.715Q1023.687,63.866,1019.987,63.862Z" transform="translate(-983.347 -28.697)" fill="#050506"/>
  <path id="Trazado_646570" data-name="Trazado 646570" d="M1019.935,29.85q-3.675,0-7.35,0a.867.867,0,0,1-.833-.338.741.741,0,0,1,.466-1.137,2.417,2.417,0,0,1,.547-.029q7.2,0,14.4,0h.15c.628.006.977.271.984.747s-.34.755-.963.756Q1023.634,29.853,1019.935,29.85Z" transform="translate(-983.354 -1.507)" fill="#050506"/>
  <path id="Trazado_646571" data-name="Trazado 646571" d="M1019.956,46.848h-7.349a.963.963,0,0,1-.747-.2.744.744,0,0,1,.247-1.232,1.525,1.525,0,0,1,.591-.067h14.548a2.87,2.87,0,0,1,.3,0,.76.76,0,0,1,.752.774.736.736,0,0,1-.794.72c-.983.013-1.966,0-2.949,0Z" transform="translate(-983.357 -15.095)" fill="#050506"/>
  <path id="Trazado_646572" data-name="Trazado 646572" d="M880.379,16.735c-.35.005-.7.025-1.049.012a1.247,1.247,0,0,1-1.25-1.234c-.007-.116,0-.233,0-.35q0-14.694-.01-29.388c0-.451.1-.614.565-.566.445.046.9.022,1.347.028q0,15.124,0,30.248A1.876,1.876,0,0,0,880.379,16.735Z" transform="translate(-876.575 32.988)" fill="#a3d2a7"/>
  <path id="Trazado_646573" data-name="Trazado 646573" d="M966.533-92.423c-.133.005-.266.016-.4.016H928.9c-.133,0-.266-.011-.4-.017,0-1.216.02-2.432-.012-3.647a3.635,3.635,0,0,1,.411-1.914c.183-.005.366-.015.549-.015h35.5c1.286,0,1.686.4,1.683,1.707,0,1.266-.012,2.532-.018,3.8Zm-29.008-3.314c-.067,0-.133,0-.2,0-.575.015-.923.3-.915.759s.353.733.934.747c.066,0,.133,0,.2,0,.756,0,1.129-.242,1.142-.742S938.316-95.739,937.525-95.737Zm-7.493,1.512v-.009c.133,0,.267.011.4,0a.772.772,0,0,0,.757-.77.759.759,0,0,0-.794-.725,5.816,5.816,0,0,0-.748,0,.734.734,0,0,0-.73.732.733.733,0,0,0,.668.747A3.6,3.6,0,0,0,930.032-94.225Zm3.785-1.52a4.437,4.437,0,0,0-.546.035.666.666,0,0,0-.588.642.665.665,0,0,0,.484.772,2.225,2.225,0,0,0,1.277,0,.665.665,0,0,0,.469-.781.668.668,0,0,0-.6-.631A4.74,4.74,0,0,0,933.817-95.746Z" transform="translate(-916.883 99.507)" fill="#9ed6f4"/>
  <path id="Trazado_646574" data-name="Trazado 646574" d="M921.584-97.989a3.634,3.634,0,0,0-.411,1.914c.031,1.215.01,2.431.011,3.647-.515.006-1.03,0-1.545.024-.254.01-.3-.1-.3-.326.008-1.347-.009-2.694.015-4.04A1.205,1.205,0,0,1,920.588-98C920.919-98.014,921.252-97.995,921.584-97.989Z" transform="translate(-909.57 99.51)" fill="#88c6eb"/>
  <path id="Trazado_646575" data-name="Trazado 646575" d="M1118.241-70.474l.079-.074C1118.331-70.483,1118.309-70.455,1118.241-70.474Z" transform="translate(-1068.591 77.558)" fill="#88c6eb"/>
  <path id="Trazado_646576" data-name="Trazado 646576" d="M880.3-50.107a3.745,3.745,0,0,0-.313,1.832c.021,1.242.011,2.485.014,3.728-.531.007-1.062,0-1.592.025-.284.014-.322-.117-.321-.355.008-1.312,0-2.623.007-3.934a1.24,1.24,0,0,1,1.31-1.315C879.706-50.134,880-50.115,880.3-50.107Z" transform="translate(-876.594 61.233)" fill="#d7aa59"/>
  <path id="Trazado_646577" data-name="Trazado 646577" d="M890.621-38.834a3.427,3.427,0,0,1,.447,0,.683.683,0,0,1,.665.728.675.675,0,0,1-.653.737,4.19,4.19,0,0,1-.893.006.7.7,0,0,1-.693-.756.715.715,0,0,1,.729-.724c.132-.012.265,0,.4,0Z" transform="translate(-885.711 52.212)" fill="#050506"/>
  <path id="Trazado_646578" data-name="Trazado 646578" d="M964.419-33.366c-4.335,0-8.669-.008-13,.011-.507,0-.653-.139-.649-.646q.034-4.275,0-8.55c0-.511.15-.644.653-.643q13.029.022,26.058.011c.661,0,.662,0,.662.661,0,2.85-.011,5.7.011,8.551,0,.49-.151.617-.626.615C973.155-33.373,968.787-33.366,964.419-33.366ZM962.4-38.293a3.386,3.386,0,0,0,3.378,3.41,3.383,3.383,0,0,0,3.367-3.372,3.379,3.379,0,0,0-3.378-3.408A3.381,3.381,0,0,0,962.4-38.293Zm12.414-.733a6.471,6.471,0,0,0-.664,0,.726.726,0,0,0-.748.768c.01.43.295.686.786.733.205.019.529-.11.589.09.076.25-.174.479-.362.669a1.192,1.192,0,0,1-.513.3,1.867,1.867,0,0,1-2.258-1.242,1.9,1.9,0,0,1,1.225-2.359,1.993,1.993,0,0,1,1.63.228.735.735,0,0,0,1.046-.23.76.76,0,0,0-.309-1.071,2.74,2.74,0,0,0-.261-.147,3.353,3.353,0,0,0-4.059.765,3.363,3.363,0,0,0-.319,4.076,3.366,3.366,0,0,0,3.31,1.514,2.872,2.872,0,0,0,2.449-2.436C976.676-38.887,976.285-39.109,974.816-39.027Zm-22.384.722c0,.85-.01,1.7,0,2.549a.781.781,0,0,0,.866.871c.566.012,1.134.018,1.7-.008a2.1,2.1,0,0,0,1.944-1.26,2.065,2.065,0,0,0-.3-2.292.5.5,0,0,1-.1-.567,1.947,1.947,0,0,0-1.833-2.65c-.433-.012-.866,0-1.3,0-.707.005-.973.262-.979.959C952.427-39.9,952.432-39.1,952.432-38.3Zm7.577-.438h0c0-.717.016-1.434-.006-2.15a.755.755,0,0,0-.762-.767.744.744,0,0,0-.727.791c-.009,1.734,0,3.467,0,5.2a.684.684,0,0,0,.648.756,14.3,14.3,0,0,0,2.047-.006.663.663,0,0,0,.624-.769.684.684,0,0,0-.7-.7,4.924,4.924,0,0,0-.75,0c-.282.024-.379-.074-.371-.362C960.022-37.408,960.01-38.075,960.01-38.742Z" transform="translate(-934.697 55.689)" fill="#9faab7"/>
  <path id="Trazado_646579" data-name="Trazado 646579" d="M955.335,36.905c-1.333,0-2.666-.014-4,.008-.422.007-.54-.144-.538-.55q.022-3.522,0-7.045c0-.406.122-.556.543-.554q4.023.022,8.046,0c.444,0,.57.156.567.585q-.025,3.5,0,6.995c0,.443-.142.576-.574.569C958.034,36.892,956.684,36.905,955.335,36.905Zm-2.915-4.075c0,.584-.016,1.168,0,1.751a1.207,1.207,0,0,0,1.722,1.123c1.2-.55,2.375-1.137,3.531-1.764a1.217,1.217,0,0,0-.015-2.188q-1.717-.92-3.483-1.747a1.217,1.217,0,0,0-1.757,1.124C952.4,31.7,952.419,32.263,952.419,32.83Z" transform="translate(-934.723 -1.84)" fill="#cb696f"/>
  <path id="Trazado_646580" data-name="Trazado 646580" d="M969.129-86.709c.791,0,1.175.251,1.162.765s-.386.742-1.142.742c-.067,0-.133,0-.2,0-.582-.014-.926-.29-.934-.747s.34-.743.915-.759C969-86.71,969.062-86.709,969.129-86.709Z" transform="translate(-948.487 90.479)" fill="#050506"/>
  <path id="Trazado_646581" data-name="Trazado 646581" d="M931.755-85.211a3.6,3.6,0,0,1-.447-.022.733.733,0,0,1-.668-.747.734.734,0,0,1,.73-.732,5.812,5.812,0,0,1,.748,0,.759.759,0,0,1,.794.725.772.772,0,0,1-.758.77c-.132.013-.266,0-.4,0Z" transform="translate(-918.606 90.493)" fill="#050506"/>
  <path id="Trazado_646582" data-name="Trazado 646582" d="M950.54-86.748a4.637,4.637,0,0,1,.5.032.668.668,0,0,1,.6.631.665.665,0,0,1-.469.781,2.225,2.225,0,0,1-1.277,0,.665.665,0,0,1-.484-.772.666.666,0,0,1,.588-.642A4.362,4.362,0,0,1,950.54-86.748Z" transform="translate(-933.605 90.51)" fill="#050506"/>
  <path id="Trazado_646583" data-name="Trazado 646583" d="M1008.8-32.186a3.381,3.381,0,0,1,3.367-3.369,3.378,3.378,0,0,1,3.378,3.408,3.383,3.383,0,0,1-3.367,3.372A3.386,3.386,0,0,1,1008.8-32.186Zm5.242,0a1.878,1.878,0,0,0-1.879-1.864,1.876,1.876,0,0,0-1.861,1.882,1.88,1.88,0,0,0,1.853,1.892A1.885,1.885,0,0,0,1014.039-32.188Z" transform="translate(-981.092 49.582)" fill="#030303"/>
  <path id="Trazado_646584" data-name="Trazado 646584" d="M1051.745-32.918c1.469-.082,1.86.14,1.544,1.66a2.872,2.872,0,0,1-2.449,2.436,3.366,3.366,0,0,1-3.311-1.514,3.363,3.363,0,0,1,.319-4.076,3.353,3.353,0,0,1,4.059-.765,2.734,2.734,0,0,1,.261.147.76.76,0,0,1,.309,1.071.735.735,0,0,1-1.046.23,1.994,1.994,0,0,0-1.63-.228,1.9,1.9,0,0,0-1.225,2.359,1.867,1.867,0,0,0,2.258,1.242,1.191,1.191,0,0,0,.513-.3c.188-.19.437-.419.362-.669-.06-.2-.384-.07-.589-.09-.492-.047-.776-.3-.786-.733a.726.726,0,0,1,.747-.768A6.474,6.474,0,0,1,1051.745-32.918Z" transform="translate(-1011.626 49.58)" fill="#030303"/>
  <path id="Trazado_646585" data-name="Trazado 646585" d="M959.064-32.222c0-.8-.005-1.6,0-2.4.006-.7.272-.954.979-.959.433,0,.867-.011,1.3,0a1.947,1.947,0,0,1,1.833,2.65.5.5,0,0,0,.1.567,2.065,2.065,0,0,1,.3,2.292,2.094,2.094,0,0,1-1.944,1.26c-.565.026-1.133.02-1.7.008a.781.781,0,0,1-.866-.871C959.055-30.523,959.064-31.372,959.064-32.222Zm1.5,1.321c-.017.29-.1.668.566.611.829-.071,1.149-.208,1.138-.709-.011-.469-.319-.657-1.076-.658C960.567-31.657,960.567-31.657,960.567-30.9ZM961-33.155c.394.006.807.018.8-.474-.01-.442-.392-.435-.741-.458-.382-.025-.512.082-.507.486C960.555-33.213,960.678-33.088,961-33.155Z" transform="translate(-941.328 49.606)" fill="#030303"/>
  <path id="Trazado_646586" data-name="Trazado 646586" d="M990.871-32.625c0,.667.013,1.334-.006,2-.008.289.089.386.371.362a4.922,4.922,0,0,1,.749,0,.685.685,0,0,1,.7.7.663.663,0,0,1-.624.769,14.3,14.3,0,0,1-2.047.006.684.684,0,0,1-.648-.756c0-1.734-.006-3.468,0-5.2a.744.744,0,0,1,.727-.791.756.756,0,0,1,.763.767c.022.716.006,1.433.006,2.15Z" transform="translate(-965.558 49.572)" fill="#030303"/>
  <path id="Trazado_646587" data-name="Trazado 646587" d="M958.856,37.268c0-.567-.015-1.135,0-1.7a1.217,1.217,0,0,1,1.757-1.124q1.764.826,3.483,1.747a1.217,1.217,0,0,1,.015,2.188q-1.735.941-3.531,1.764a1.207,1.207,0,0,1-1.723-1.123C958.84,38.436,958.856,37.852,958.856,37.268Zm4.105.017-2.607-1.3c0,.812.005,1.558,0,2.3,0,.27.107.263.3.165C961.388,38.076,962.127,37.705,962.961,37.285Z" transform="translate(-941.16 -6.278)" fill="#030303"/>
  <path id="Trazado_646588" data-name="Trazado 646588" d="M1020.032-26.2a1.885,1.885,0,0,1-1.886,1.909,1.88,1.88,0,0,1-1.853-1.892,1.876,1.876,0,0,1,1.861-1.882A1.878,1.878,0,0,1,1020.032-26.2Z" transform="translate(-987.084 43.59)" fill="#9faab7"/>
  <path id="Trazado_646589" data-name="Trazado 646589" d="M966.521-15.236c0-.756,0-.756.628-.756.757,0,1.065.189,1.076.658.012.5-.309.638-1.138.709C966.421-14.568,966.5-14.947,966.521-15.236Z" transform="translate(-947.283 33.941)" fill="#9faab7"/>
  <path id="Trazado_646590" data-name="Trazado 646590" d="M966.945-27.192c-.325.067-.448-.059-.453-.445,0-.4.125-.512.507-.486.348.023.731.016.741.458C967.752-27.174,967.339-27.186,966.945-27.192Z" transform="translate(-947.27 43.643)" fill="#9faab7"/>
  <path id="Trazado_646591" data-name="Trazado 646591" d="M968.947,43.937c-.834.42-1.573.791-2.31,1.167-.193.1-.3.106-.3-.165.008-.746,0-1.492,0-2.3Z" transform="translate(-947.145 -12.93)" fill="#e7ebef"/>
</svg>
