<svg xmlns="http://www.w3.org/2000/svg" xmlns:xlink="http://www.w3.org/1999/xlink" width="715" height="401" viewBox="0 0 715 401">
  <defs>
    <clipPath id="clip-path">
      <rect id="Rectángulo_308997" data-name="Rectángulo 308997" width="715" height="401" rx="14" transform="translate(-9386 -9320)" fill="#00c1ab"/>
    </clipPath>
  </defs>
  <g id="Grupo_995180" data-name="Grupo 995180" transform="translate(9754 7238)">
    <g id="Enmascarar_grupo_878494" data-name="Enmascarar grupo 878494" transform="translate(-368 2082)" clip-path="url(#clip-path)">
      <rect id="Rectángulo_308996" data-name="Rectángulo 308996" width="715" height="401" transform="translate(-9386 -9320)" fill="#00c1ab"/>
    </g>
    <g id="Grupo_989397" data-name="Grupo 989397" transform="translate(-11701.318 -7548.233)">
      <rect id="Rectángulo_308677" data-name="Rectángulo 308677" width="183.857" height="183.857" rx="10" transform="translate(2062.484 418.805)" fill="#00d843" stroke="#10193d" stroke-miterlimit="10" stroke-width="1"/>
      <rect id="Rectángulo_308678" data-name="Rectángulo 308678" width="183.857" height="183.857" rx="10" transform="translate(2363.296 418.805)" fill="#00d843" stroke="#10193d" stroke-miterlimit="10" stroke-width="1"/>
      <g id="Grupo_985910" data-name="Grupo 985910" transform="translate(2398.089 452.493)">
        <path id="Trazado_642958" data-name="Trazado 642958" d="M2729.749,535.359c-.859,1.69-.752,3.583-1.095,5.377a56.074,56.074,0,0,1-77.99,40.66,5.775,5.775,0,0,0-4.572-.288c-9.338,3.074-18.72,6.015-28.089,9-.786.25-1.585.46-2.4.693-.37-.884.137-1.583.348-2.287q4.25-14.221,8.583-28.417a3.68,3.68,0,0,0-.233-3.1,56,56,0,0,1,38.636-81.73c1.284-.259,2.677-.118,3.822-.944h13.219c.277.653.889.385,1.35.458,24.585,3.886,42.8,21.438,47.438,45.686.3,1.6.155,3.3.976,4.79v2.333a2.263,2.263,0,0,0,0,1.945Zm-58.37,48.05a3.944,3.944,0,0,0,4.382-.018c.254-.042.507-.1.762-.123,30.681-2.349,51.969-27.655,49.006-58.255-2.758-28.468-29.906-49.715-58.692-45.936a52.347,52.347,0,0,0-39.049,77.5,3.472,3.472,0,0,1,.315,3.076c-2.725,8.231-5.384,16.484-8.053,24.734-.147.455-.576.9-.124,1.488q13.377-4.285,26.771-8.58a2.518,2.518,0,0,1,2.212-.061A54.178,54.178,0,0,0,2671.379,583.409Z" transform="translate(-2615.477 -474.315)" fill="#fff"/>
        <path id="Trazado_642959" data-name="Trazado 642959" d="M2803.626,564.03a2.26,2.26,0,0,1,0-1.944Z" transform="translate(-2689.354 -508.819)" fill="#fff"/>
        <path id="Trazado_642960" data-name="Trazado 642960" d="M2707.589,654.064l4.382-.017A3.944,3.944,0,0,1,2707.589,654.064Z" transform="translate(-2651.688 -544.97)" fill="#fff"/>
        <path id="Trazado_642961" data-name="Trazado 642961" d="M2641.972,581.376c1.7-5.018,3.231-9.671,4.86-14.29a2.814,2.814,0,0,0-.382-2.838A43.607,43.607,0,0,1,2673.315,497c24.535-5.5,49.406,11.775,52.4,36.7,2.17,18.049-4.355,32.658-19.586,42.513-15.092,9.764-30.885,9.534-46.484.6a3.179,3.179,0,0,0-2.887-.267C2651.978,578.144,2647.174,579.684,2641.972,581.376Zm23.2-40.9q0,10.2,0,20.4c.007,3.4,1.058,4.49,4.359,4.5,6.672.018,13.343,0,20.013.006a12.268,12.268,0,0,0,3.64-.509c9.661-2.962,13.437-15.832,6.9-23.513-.417-.49-1.2-.826-.466-1.736,2.52-3.113,2.646-6.839,2.3-10.544-.643-6.97-5.927-13.24-14.062-12.922-6.145.24-12.3.044-18.458.049-3.419,0-4.227.811-4.23,4.251Q2665.164,530.472,2665.173,540.48Z" transform="translate(-2624.658 -482.831)" fill="#fff"/>
        <path id="Trazado_642962" data-name="Trazado 642962" d="M2705.957,588.123c-2.263,0-4.526-.037-6.787.018-.936.023-1.225-.3-1.206-1.221.05-2.585.055-5.172,0-7.757-.022-.981.232-1.358,1.284-1.346,4.329.052,8.662-.025,12.992.039,3.143.046,4.5,1.775,4.465,5.467-.027,3.146-1.542,4.761-4.54,4.794C2710.094,588.142,2708.026,588.123,2705.957,588.123Z" transform="translate(-2647.902 -515.003)" fill="#fff"/>
        <path id="Trazado_642963" data-name="Trazado 642963" d="M2705.413,544.842c2,0,4.01-.045,6.012.012,2.733.077,4.274,1.853,4.331,4.884.064,3.35-1.367,5.346-4.174,5.423-4.135.114-8.275.01-12.412.049-.942.009-1.227-.325-1.212-1.24q.072-3.976,0-7.952c-.019-.961.355-1.212,1.249-1.192C2701.275,544.874,2703.344,544.841,2705.413,544.842Z" transform="translate(-2647.901 -502.033)" fill="#fff"/>
      </g>
      <g id="Grupo_985911" data-name="Grupo 985911" transform="translate(2098.139 454.159)">
        <path id="Trazado_642964" data-name="Trazado 642964" d="M2121.235,590.209c1.271-4.684,2.493-9.206,3.729-13.726,1.271-4.647,2.53-9.3,3.858-13.929a3.27,3.27,0,0,0-.344-2.646,56,56,0,0,1,26.787-78.079c31.889-14.308,69.908,4.979,77.219,39.174a56.1,56.1,0,0,1-43.433,67.127,54.287,54.287,0,0,1-36.1-4.663,5.562,5.562,0,0,0-4.242-.458c-8.876,2.4-17.777,4.7-26.671,7.03C2121.843,590.091,2121.641,590.124,2121.235,590.209Zm13.429-13.259c5.573-1.469,10.822-2.829,16.054-4.249a3.465,3.465,0,0,1,2.946.388,45.422,45.422,0,0,0,31.832,6.074,46.541,46.541,0,0,0,38.393-52.394c-3.656-27.557-31.3-45.934-58.089-38.619a46.517,46.517,0,0,0-28.1,68.732,7.1,7.1,0,0,1,.795,6.318C2137.109,567.625,2135.989,572.136,2134.664,576.949Z" transform="translate(-2121.235 -477.06)" fill="#fcfdfc"/>
        <path id="Trazado_642965" data-name="Trazado 642965" d="M2211.218,579.622a17.547,17.547,0,0,1-5.4-.555,53.2,53.2,0,0,1-26.323-16.343c-3.966-4.5-7.789-9.114-10.248-14.669-2.511-5.672-2.694-11.269.741-16.671a25.259,25.259,0,0,1,2.086-2.587c2.161-2.569,5.056-2.105,7.86-1.8.877.1,1.346.956,1.672,1.729,1.6,3.772,3.152,7.562,4.741,11.338a2.78,2.78,0,0,1-.212,2.393,18.677,18.677,0,0,1-3.4,4.495,2.346,2.346,0,0,0-.364,3.147,38.5,38.5,0,0,0,19.052,16.426,2.353,2.353,0,0,0,3.086-.7c1.382-1.737,2.811-3.436,4.166-5.194a2.2,2.2,0,0,1,2.9-.825c3.973,1.7,7.841,3.615,11.687,5.58a1.917,1.917,0,0,1,1.057,1.9c.113,6.914-4.182,10.679-11.067,12.178A12.919,12.919,0,0,1,2211.218,579.622Z" transform="translate(-2139.376 -496.596)" fill="#fcfefc"/>
      </g>
      <g id="Grupo_985912" data-name="Grupo 985912" transform="translate(2275.546 479.675)">
        <path id="Trazado_642966" data-name="Trazado 642966" d="M2393.236,530.629a31.067,31.067,0,1,1,31,31.108A31.071,31.071,0,0,1,2393.236,530.629Zm3.036.04a28.01,28.01,0,1,0,28.1-27.977A27.966,27.966,0,0,0,2396.272,530.67Z" transform="translate(-2393.236 -499.618)" fill="#081421"/>
        <path id="Trazado_642967" data-name="Trazado 642967" d="M2400.143,534.59a28.01,28.01,0,1,1,27.906,27.988A27.984,27.984,0,0,1,2400.143,534.59Zm37.25.007c.14-.734-.415-1.123-.876-1.528-1.755-1.543-3.537-3.055-5.3-4.593-2.122-1.858-4.228-3.736-6.347-5.6a1.751,1.751,0,0,0-1.8-.588c-1.266.438-1.438,1.844-.344,2.793.791.686,1.6,1.352,2.388,2.041q3.9,3.4,7.78,6.806c.738.647.713.745-.1,1.431-1.229,1.042-2.432,2.114-3.65,3.17-1.126.977-2.259,1.945-3.382,2.925s-2.227,1.926-3.3,2.928a1.458,1.458,0,0,0-.086,2.073,1.439,1.439,0,0,0,2.06.172c1.023-.85,2.009-1.744,3.011-2.618q2.733-2.382,5.47-4.762c1.155-1,2.323-1.995,3.464-3.015C2436.874,535.8,2437.5,535.431,2437.394,534.6Z" transform="translate(-2397.107 -503.538)" fill="#fff"/>
        <path id="Trazado_642968" data-name="Trazado 642968" d="M2465.253,554.483c.107.834-.52,1.206-1,1.639-1.14,1.02-2.309,2.01-3.464,3.015q-2.737,2.379-5.47,4.762c-1,.874-1.989,1.768-3.011,2.617a1.439,1.439,0,0,1-2.06-.172,1.459,1.459,0,0,1,.086-2.073c1.076-1,2.194-1.96,3.3-2.928s2.256-1.948,3.382-2.925c1.217-1.056,2.421-2.129,3.65-3.171.81-.686.834-.784.1-1.431q-3.89-3.4-7.78-6.806c-.789-.689-1.6-1.355-2.388-2.041-1.094-.949-.921-2.355.344-2.793a1.751,1.751,0,0,1,1.8.588c2.119,1.862,4.226,3.74,6.348,5.6,1.759,1.539,3.541,3.05,5.3,4.593C2464.838,553.36,2465.393,553.748,2465.253,554.483Z" transform="translate(-2424.967 -523.424)" fill="#081421"/>
      </g>
    </g>
  </g>
</svg>
