<svg xmlns="http://www.w3.org/2000/svg" xmlns:xlink="http://www.w3.org/1999/xlink" width="400" height="257.338" viewBox="0 0 400 257.338">
  <defs>
    <clipPath id="clip-path">
      <rect id="Rectángulo_308830" data-name="Rectángulo 308830" width="400" height="257.338" fill="none"/>
    </clipPath>
  </defs>
  <g id="Grupo_986798" data-name="Grupo 986798" clip-path="url(#clip-path)">
    <g id="Grupo_986753" data-name="Grupo 986753" transform="translate(10.768 11.984)">
      <ellipse id="Elipse_7914" data-name="Elipse 7914" cx="92.455" cy="7.695" rx="92.455" ry="7.695" transform="translate(0 312.357)" fill="#cde4ff" opacity="0.7" style="mix-blend-mode: multiply;isolation: isolate"/>
      <g id="Grupo_986731" data-name="Grupo 986731" transform="translate(0.085)">
        <g id="Grupo_986729" data-name="Grupo 986729">
          <path id="Trazado_644455" data-name="Trazado 644455" d="M105.166,173.422C90.354,170.646,74,164.865,62.179,146.384c-17.635-27.56-16.631-44.476-13.34-52.3l3.565-.649s.076-9.94,1.486-9.959c1.683-.022,2.656,10.165,2.656,10.165s1.078-11.881,4.035-10.781c1.18.44-1.075,16.027.241,15.563s4.8,6.079-1.892,11.953c0,0,10.944,31.212,45.532,38.373C130.234,154.084,124.945,177.129,105.166,173.422Z" transform="translate(-46.916 -82.787)" fill="#e4af9a"/>
          <path id="Trazado_644456" data-name="Trazado 644456" d="M104.218,146.915a62.051,62.051,0,0,1-14-4.667c-2.785,3.011-3.981,8.245-4.935,11.629-1.423,5.046-4.658,5.563-14.306-1.222-4.617-3.248-11.792-14.074-18.019-24.479a127.381,127.381,0,0,0,8.976,16.375c11.825,18.481,28.175,24.262,42.987,27.038C124.7,175.295,129.99,152.25,104.218,146.915Z" transform="translate(-46.671 -80.953)" fill="#dd9e89" opacity="0.3" style="mix-blend-mode: multiply;isolation: isolate"/>
          <path id="Trazado_644457" data-name="Trazado 644457" d="M49.239,91.824c-1.193,1.016,3.308,8.345,4.469,7.472S51.858,89.592,49.239,91.824Z" transform="translate(-46.83 -82.436)" fill="#e4af9a"/>
          <path id="Trazado_644458" data-name="Trazado 644458" d="M51.558,101.768c-1.5,1.435-4.979-7.86-3.621-8.928S54.693,98.76,51.558,101.768Z" transform="translate(-46.887 -82.385)" fill="#e4af9a"/>
          <path id="Trazado_644459" data-name="Trazado 644459" d="M47.761,95.208c.561,3.015,2.7,7.655,3.791,6.611a3.468,3.468,0,0,0,.9-3.135c.546.546,1.026.824,1.308.612.747-.563-.237-4.434-1.734-6.515-.824-1.147-1.8-1.75-2.734-.957" transform="translate(-46.881 -82.436)" fill="none" stroke="#5f3732" stroke-miterlimit="10" stroke-width="1.067"/>
          <line id="Línea_953" data-name="Línea 953" x2="2.36" y2="4.166" transform="translate(3.276 12.98)" fill="none" stroke="#5f3732" stroke-miterlimit="10" stroke-width="1.067"/>
          <path id="Trazado_644460" data-name="Trazado 644460" d="M57.117,100.734c-3.842-.562-8.491-2.58-4.731-3.571s8.4-.361,9.718,1.992S60.317,101.2,57.117,100.734Z" transform="translate(-46.751 -82.224)" fill="#e4af9a"/>
          <path id="Trazado_644461" data-name="Trazado 644461" d="M61.16,101.022a17.776,17.776,0,0,1-4.043-.288c-3.842-.562-8.491-2.58-4.731-3.571a12.182,12.182,0,0,1,8.009.463" transform="translate(-46.751 -82.224)" fill="none" stroke="#5f3732" stroke-miterlimit="10" stroke-width="1.067"/>
        </g>
        <g id="Grupo_986730" data-name="Grupo 986730" transform="translate(39.597 61.028)">
          <path id="Trazado_644462" data-name="Trazado 644462" d="M90.981,141.445s-8.8,14.22-5.1,26c0,0,18.089,6.92,30.679,3.609s7.951-19.953-1.313-22.992S90.981,141.445,90.981,141.445Z" transform="translate(-84.974 -141.445)" fill="#fff"/>
          <path id="Trazado_644463" data-name="Trazado 644463" d="M88.6,168.38s-1.778-16.3,6.619-25.9" transform="translate(-84.834 -141.403)" fill="none" stroke="#00d843" stroke-miterlimit="10" stroke-width="1.067"/>
        </g>
      </g>
      <g id="Grupo_986735" data-name="Grupo 986735" transform="translate(113.706 18.155)">
        <path id="Trazado_644464" data-name="Trazado 644464" d="M179.45,149.257s56.412-17.668,59.912-19.282,13.879-4.424,8.751,5.509c-7.482,14.491-58.65,31.893-65.3,33.39S179.45,149.257,179.45,149.257Z" transform="translate(-155.215 -99.101)" fill="#e4af9a"/>
        <path id="Trazado_644465" data-name="Trazado 644465" d="M195.1,157.312c-4.112-3.561-4.849-9.26-4.948-12.1-6.353,2-10.7,3.363-10.7,3.363s-3.289,21.115,3.362,19.617c4.689-1.056,31.5-10.017,49.538-20.289C218.872,153.289,198.787,160.506,195.1,157.312Z" transform="translate(-155.215 -98.42)" fill="#dd9e89" opacity="0.3" style="mix-blend-mode: multiply;isolation: isolate"/>
        <path id="Trazado_644466" data-name="Trazado 644466" d="M220.452,141.82l14.142-.558a1.982,1.982,0,0,0,1.972-1.773l4.521-28.342s-2.283-1.542-3.41-1.612l-14.231-.923a1.982,1.982,0,0,0-2.093,1.774l-2.988,28.687C218.242,140.244,220.452,141.82,220.452,141.82Z" transform="translate(-153.61 -99.899)" fill="#4f3a6e"/>
        <path id="Trazado_644467" data-name="Trazado 644467" d="M221.755,142.329h15a1.982,1.982,0,0,0,1.972-1.772l2.96-27.764a1.984,1.984,0,0,0-1.85-2.19l-14.976-.923a1.983,1.983,0,0,0-2.094,1.774l-2.987,28.687A1.982,1.982,0,0,0,221.755,142.329Z" transform="translate(-153.553 -99.856)" fill="#3d2853"/>
        <g id="Grupo_986732" data-name="Grupo 986732" transform="translate(58.137)">
          <line id="Línea_954" data-name="Línea 954" x2="8.264" y2="1.079" transform="translate(0 9.052)" fill="none" stroke="#fff" stroke-miterlimit="10" stroke-width="1.067"/>
          <line id="Línea_955" data-name="Línea 955" x1="5.434" y1="6.178" transform="translate(3.698 1.144)" fill="none" stroke="#fff" stroke-miterlimit="10" stroke-width="1.067"/>
          <line id="Línea_956" data-name="Línea 956" y1="7.322" x2="1.423" transform="translate(11.801)" fill="none" stroke="#fff" stroke-miterlimit="10" stroke-width="1.067"/>
        </g>
        <g id="Grupo_986733" data-name="Grupo 986733" transform="translate(66.003 15.766)">
          <path id="Trazado_644468" data-name="Trazado 644468" d="M240.458,123.688s-1.078-6.926.921-8.128,1.364,4.269,4.888,6.907,6.581,14.954-9.44,15.876c-5.283.3-11.942,2.04-12.366.275s5.734-3.291,7.67-3.748c0,0-11.041,1.752-11.4-.114s8.033-3.455,9.844-3.553c0,0-11-.184-11.014-2.116S230,127.4,230,127.4s-8.085-1-7.673-2.637S240.458,123.688,240.458,123.688Z" transform="translate(-219.564 -115.39)" fill="#e4af9a"/>
        </g>
        <g id="Grupo_986734" data-name="Grupo 986734" transform="translate(0 45.71)">
          <path id="Trazado_644469" data-name="Trazado 644469" d="M188.291,144.172s4.2,16.193,2.275,24.139c0,0-17.1,4.656-28.266.5s-5.425-18.892,3.288-20.816S188.291,144.172,188.291,144.172Z" transform="translate(-156.125 -144.172)" fill="#fff"/>
          <path id="Trazado_644470" data-name="Trazado 644470" d="M186.421,168.992a88.237,88.237,0,0,0-2.487-24.38" transform="translate(-155.001 -144.154)" fill="none" stroke="#00d843" stroke-miterlimit="10" stroke-width="1.067"/>
        </g>
      </g>
      <g id="Grupo_986741" data-name="Grupo 986741" transform="translate(26.332 164.653)">
        <path id="Trazado_644471" data-name="Trazado 644471" d="M110.53,385.433H90.121c0-93.626,19.075-144.388,19.075-144.388h57.467c18.349,50.155,8.413,142.772,8.413,142.772H154.75c-.582-55.2-15.752-108.8-15.752-108.8S109.365,344.424,110.53,385.433Z" transform="translate(-71.417 -241.045)" fill="#12263f"/>
        <path id="Trazado_644472" data-name="Trazado 644472" d="M168.373,248.33q-1.1-3.772-2.377-7.285H108.529s-.748,2.535-1.907,7.506C114.223,251.712,141.136,261.066,168.373,248.33Z" transform="translate(-70.75 -241.045)" fill="#422a3f" opacity="0.4" style="mix-blend-mode: multiply;isolation: isolate"/>
        <g id="Grupo_986736" data-name="Grupo 986736" transform="translate(20.839 0.209)">
          <path id="Trazado_644473" data-name="Trazado 644473" d="M105.644,252.279s15.672.87,15.154-11.033" transform="translate(-91.629 -241.246)" fill="none" stroke="#33506c" stroke-miterlimit="10" stroke-width="1.067"/>
          <path id="Trazado_644474" data-name="Trazado 644474" d="M151.05,241.246s4.143,15.328,17.468,14.521" transform="translate(-89.794 -241.246)" fill="none" stroke="#33506c" stroke-miterlimit="10" stroke-width="1.067"/>
          <path id="Trazado_644475" data-name="Trazado 644475" d="M92.173,383.38s3.81-88.38,19.465-131.516" transform="translate(-92.173 -240.817)" fill="none" stroke="#33506c" stroke-miterlimit="10" stroke-width="1.067"/>
          <path id="Trazado_644476" data-name="Trazado 644476" d="M163.984,255.233s13.2,51.323,4.012,129.428" transform="translate(-89.271 -240.681)" fill="none" stroke="#33506c" stroke-miterlimit="10" stroke-width="1.067"/>
          <path id="Trazado_644477" data-name="Trazado 644477" d="M131.409,243.484V263.41c0,3.623,8.928,3.882,8.928,0V243.484" transform="translate(-90.588 -241.156)" fill="none" stroke="#33506c" stroke-miterlimit="10" stroke-width="1.067"/>
        </g>
        <g id="Grupo_986738" data-name="Grupo 986738" transform="translate(83.333 142.772)">
          <rect id="Rectángulo_308826" data-name="Rectángulo 308826" width="38.963" height="2.48" transform="translate(0 13.904)" fill="#fff"/>
          <g id="Grupo_986737" data-name="Grupo 986737">
            <path id="Trazado_644478" data-name="Trazado 644478" d="M191.2,392.176s-10.789-10.961-18.638-13.9H152.24v13.9Z" transform="translate(-152.24 -378.272)" fill="#1c2b3c"/>
          </g>
          <line id="Línea_957" data-name="Línea 957" x2="13.619" transform="translate(11.475 2.462)" fill="none" stroke="#fff" stroke-linecap="round" stroke-linejoin="round" stroke-width="1.349"/>
          <line id="Línea_958" data-name="Línea 958" x1="11.832" transform="translate(18.125 5.917)" fill="none" stroke="#fff" stroke-linecap="round" stroke-linejoin="round" stroke-width="1.349"/>
        </g>
        <g id="Grupo_986740" data-name="Grupo 986740" transform="translate(0 142.772)">
          <rect id="Rectángulo_308827" data-name="Rectángulo 308827" width="38.963" height="2.48" transform="translate(38.963 16.385) rotate(180)" fill="#fff"/>
          <g id="Grupo_986739" data-name="Grupo 986739" transform="translate(0)">
            <path id="Trazado_644479" data-name="Trazado 644479" d="M72.144,392.176s10.789-10.961,18.637-13.9h20.325v13.9Z" transform="translate(-72.144 -378.272)" fill="#1c2b3c"/>
          </g>
          <line id="Línea_959" data-name="Línea 959" x1="13.619" transform="translate(13.869 2.462)" fill="none" stroke="#fff" stroke-linecap="round" stroke-linejoin="round" stroke-width="1.349"/>
          <line id="Línea_960" data-name="Línea 960" x2="11.832" transform="translate(9.006 5.917)" fill="none" stroke="#fff" stroke-linecap="round" stroke-linejoin="round" stroke-width="1.349"/>
        </g>
      </g>
      <g id="Grupo_986742" data-name="Grupo 986742" transform="translate(60.072 64.723)">
        <path id="Trazado_644480" data-name="Trazado 644480" d="M105.9,245.459s28.917,20.96,64.627,0c0,0-6.477-39.344-4.748-47.5s10.868-51.355,10.868-51.355-19.893,2.12-36.619.835C121.517,146.021,104.573,145,104.573,145s6.758,48.7,7.147,55.1S107.838,239.83,105.9,245.459Z" transform="translate(-104.573 -144.996)" fill="#fff"/>
        <path id="Trazado_644481" data-name="Trazado 644481" d="M165.516,196.089c.056-.262.12-.563.19-.9L161,191.936l-4.431,7.777-6.66-6.065-5.423,7.252-5.979-6.868-6.223,6.692-5.293-7.49-6.874,6.1-4.582-7.961-4.426,3.243c.184,1.646.308,2.892.352,3.608a71.959,71.959,0,0,1-.464,8.717l1.483-1.087,5.127,8.906,7.687-6.82,5.943,8.411,7.029-7.56,6.805,7.818,6.232-8.337,7.736,7.047,5.2-9.133,1.315.909C165.171,202.223,165.075,198.172,165.516,196.089Z" transform="translate(-104.313 -143.122)" fill="#00d843"/>
        <path id="Trazado_644482" data-name="Trazado 644482" d="M128.1,146.564s-4.431,10.693,11.584,10.693c14.074,0,9.387-9.475,9.387-9.475" transform="translate(-103.645 -144.933)" fill="none" stroke="#62d359" stroke-miterlimit="10" stroke-width="1.067"/>
        <path id="Trazado_644483" data-name="Trazado 644483" d="M106.444,239.312s29.906,18.818,63.877,0" transform="translate(-104.497 -141.185)" fill="none" stroke="#62d359" stroke-miterlimit="10" stroke-width="1.067"/>
      </g>
      <g id="Grupo_986752" data-name="Grupo 986752" transform="translate(63.634 1.457)">
        <g id="Grupo_986743" data-name="Grupo 986743" transform="translate(9.657 23.597)">
          <path id="Trazado_644484" data-name="Trazado 644484" d="M123.814,109.19s.452,18.981-6.535,23.251c0,0,2.42,2.24,4.9.829,0,0-1.6,4.569-4.9,5.752,0,0,11.9,6.508,19.213,0s0-32.155,0-32.155Z" transform="translate(-117.279 -106.868)" fill="#564748"/>
          <path id="Trazado_644485" data-name="Trazado 644485" d="M129.572,151.651s.507,3.646,8.812,3.646,8.812-3.646,8.812-3.646V121.562H129.572Z" transform="translate(-116.782 -106.274)" fill="#e4af9a"/>
          <path id="Trazado_644486" data-name="Trazado 644486" d="M147.148,120.88v27.537c-12.76-1.046-16.365-8.456-16.365-19.467v-8.07Z" transform="translate(-116.733 -106.302)" fill="#dd9e89" opacity="0.5" style="mix-blend-mode: multiply;isolation: isolate"/>
        </g>
        <g id="Grupo_986745" data-name="Grupo 986745" transform="translate(14.554 4.484)">
          <path id="Trazado_644487" data-name="Trazado 644487" d="M169.008,101.715v25.557c0,9.693-4.406,19.607-19.828,19.607s-19.607-7.71-19.607-19.607V101.715c0-5.507,7.046-13.218,20.7-13.218S169.008,95.327,169.008,101.715Z" transform="translate(-121.679 -88.497)" fill="#e4af9a"/>
          <path id="Trazado_644488" data-name="Trazado 644488" d="M128.85,116.837s7.768,1.985,8.474-7.271H128.85Z" transform="translate(-121.709 -87.646)" fill="#564748"/>
          <g id="Grupo_986744" data-name="Grupo 986744" transform="translate(0 26.202)">
            <ellipse id="Elipse_7915" data-name="Elipse 7915" cx="5.669" cy="6.228" rx="5.669" ry="6.228" fill="#e4af9a"/>
            <path id="Trazado_644489" data-name="Trazado 644489" d="M123.56,117.425s2.933-3.731,5.5-.427c0,0-2.7,1.262-2.35,3.673.4,2.813,2.224,3.107,2.224,3.107" transform="translate(-121.922 -113.603)" fill="none" stroke="#5f3732" stroke-miterlimit="10" stroke-width="0.606"/>
          </g>
        </g>
        <g id="Grupo_986750" data-name="Grupo 986750" transform="translate(32.327 24.463)">
          <g id="Grupo_986748" data-name="Grupo 986748" transform="translate(3.949 3.737)">
            <g id="Grupo_986746" data-name="Grupo 986746" transform="translate(15.463)">
              <path id="Trazado_644490" data-name="Trazado 644490" d="M157.727,114.947c0,2.019.8,3.655,1.785,3.655s1.785-1.636,1.785-3.655-.8-3.655-1.785-3.655S157.727,112.929,157.727,114.947Z" transform="translate(-157.727 -111.292)" fill="#3c2d21"/>
            </g>
            <g id="Grupo_986747" data-name="Grupo 986747">
              <path id="Trazado_644491" data-name="Trazado 644491" d="M146.436,114.947c0,2.019-.8,3.655-1.785,3.655s-1.785-1.636-1.785-3.655.8-3.655,1.785-3.655S146.436,112.929,146.436,114.947Z" transform="translate(-142.865 -111.292)" fill="#3c2d21"/>
            </g>
          </g>
          <path id="Trazado_644492" data-name="Trazado 644492" d="M155.976,115.5s-1.652,5.4.221,6.94,4.754-.992,6.122,1.1-2.817,6.94-8.215,3.194" transform="translate(-138.462 -107.385)" fill="none" stroke="#5f3732" stroke-miterlimit="10" stroke-width="1.212"/>
          <path id="Trazado_644493" data-name="Trazado 644493" d="M139.069,110.872s7.221-4.321,10-1.631S146.478,109.261,139.069,110.872Z" transform="translate(-139.069 -107.673)" fill="#564748"/>
          <path id="Trazado_644494" data-name="Trazado 644494" d="M166.235,110.213s-7.221-4.32-10-1.631S158.825,108.6,166.235,110.213Z" transform="translate(-138.405 -107.7)" fill="#564748"/>
          <g id="Grupo_986749" data-name="Grupo 986749" transform="translate(0.443 20.647)">
            <path id="Trazado_644495" data-name="Trazado 644495" d="M153.517,131.272c-3.161-1.186-9.656-5.236-12.58-3.128s-1.219,6.46,3.47,8.432,11.15-.406,12.645-1.9S157.324,132.7,153.517,131.272Z" transform="translate(-139.495 -127.545)" fill="#fff"/>
            <path id="Trazado_644496" data-name="Trazado 644496" d="M149.164,133.515s-4.283-1.565-5.439-2.925a6.057,6.057,0,0,1-1.075-3.027,3.342,3.342,0,0,0-1.714.578c-1.911,1.379-1.834,3.712-.251,5.716a5.142,5.142,0,0,1,2.222-2.18S144.812,133.854,149.164,133.515Z" transform="translate(-139.495 -127.545)" fill="#422a3f"/>
          </g>
        </g>
        <path id="Trazado_644497" data-name="Trazado 644497" d="M169.255,109.692v-7.976c0-6.389-5.072-13.219-18.731-13.219s-20.7,7.711-20.7,13.219v7.071l-6.255,1.145s.045,1.85-.108,4.524Z" transform="translate(-107.373 -84.013)" fill="#dd9e89" opacity="0.5" style="mix-blend-mode: multiply;isolation: isolate"/>
        <g id="Grupo_986751" data-name="Grupo 986751">
          <path id="Trazado_644498" data-name="Trazado 644498" d="M169.879,106.289s-50.673,5.562-57.271,6.726-5.434-2.263-.776-3.364,58.047-7.116,58.047-7.116Z" transform="translate(-107.997 -83.446)" fill="#006475"/>
          <path id="Trazado_644499" data-name="Trazado 644499" d="M169.25,103.276V96.55c0-4.658-10.111-15.914-27-11.256s-18.7,14.167-18.7,17.854v5.5Z" transform="translate(-107.368 -84.187)" fill="#00c1ab"/>
          <path id="Trazado_644500" data-name="Trazado 644500" d="M168.272,96.55c0-4.025-7.556-12.971-20.505-12.322,16.718,1.978,14.413,15.718,15.069,19.645l1.311-.112,4.125-.485Z" transform="translate(-106.39 -84.187)" fill="#fff"/>
          <path id="Trazado_644501" data-name="Trazado 644501" d="M147.026,84.359a30.856,30.856,0,0,0-4.771.928c-16.885,4.658-18.7,14.167-18.7,17.854v5.5l11.032-1.3C134.436,103.131,130.529,88.664,147.026,84.359Z" transform="translate(-107.368 -84.18)" fill="#fff"/>
          <path id="Trazado_644502" data-name="Trazado 644502" d="M157.4,101.682l-11.669.962a1.445,1.445,0,0,1-1.56-1.321h0a1.445,1.445,0,0,1,1.322-1.559L157.16,98.8a1.445,1.445,0,0,1,1.559,1.321h0A1.446,1.446,0,0,1,157.4,101.682Z" transform="translate(-106.536 -83.597)" fill="#e4af9a"/>
        </g>
        <path id="Trazado_644503" data-name="Trazado 644503" d="M121.986,113.682" transform="translate(-107.432 -82.995)" fill="#564748"/>
      </g>
    </g>
    <g id="Grupo_986777" data-name="Grupo 986777" transform="translate(171.125 15.006)">
      <ellipse id="Elipse_7916" data-name="Elipse 7916" cx="61.236" cy="7.695" rx="61.236" ry="7.695" transform="translate(18.899 308.059)" fill="#cde4ff" opacity="0.7" style="mix-blend-mode: multiply;isolation: isolate"/>
      <g id="Grupo_986756" data-name="Grupo 986756" transform="translate(49.358 155.139)">
        <path id="Trazado_644504" data-name="Trazado 644504" d="M288.343,352.443l11.011,20.449,12.85-4.6-9.913-22.075Z" transform="translate(-246.79 -230.304)" fill="#e4af9a"/>
        <g id="Grupo_986754" data-name="Grupo 986754">
          <path id="Trazado_644505" data-name="Trazado 644505" d="M250.951,234.806s-17.613,20.761,39.8,128.208c0,0,11.518,1.349,16.339-7.343,0,0-26.68-33.187-26.747-104.468Z" transform="translate(-248.404 -234.806)" fill="#00c1ab"/>
        </g>
        <path id="Trazado_644506" data-name="Trazado 644506" d="M266.006,311.309c5.083,12.492,11.5,26.494,19.58,42.141,1.381-4.93,5.334-18.934,8.345-28.456-4.626-13.752-7.007-41.9-9.7-63.427H268.017l6.05,7.916Z" transform="translate(-247.693 -233.725)" fill="#79a4bf" opacity="0.4" style="mix-blend-mode: multiply;isolation: isolate"/>
        <g id="Grupo_986755" data-name="Grupo 986755" transform="translate(36.536 137.682)">
          <path id="Trazado_644507" data-name="Trazado 644507" d="M304.5,390.074l13.783-7.037c1.139-5.108-4.14-15.9-4.14-15.9l-17.322,2.992-1.836,9.97-11.466,8.238a5,5,0,0,1,.077,1.732Z" transform="translate(-283.521 -367.141)" fill="#422a3f"/>
          <path id="Trazado_644508" data-name="Trazado 644508" d="M303.217,389.46H283.6v3.2h19.622l15.226-7.135v-3.2Z" transform="translate(-283.518 -366.527)" fill="#fff"/>
          <line id="Línea_961" data-name="Línea 961" x2="11.101" transform="translate(11.902 10.597)" fill="none" stroke="#fff" stroke-linecap="round" stroke-linejoin="round" stroke-width="1.01"/>
          <line id="Línea_962" data-name="Línea 962" x2="11.101" transform="translate(11.902 7.109)" fill="none" stroke="#fff" stroke-linecap="round" stroke-linejoin="round" stroke-width="1.01"/>
        </g>
        <path id="Trazado_644509" data-name="Trazado 644509" d="M285.122,356.71s12.834-3.666,18.954-11.486l3.753,8.439s-2.914,10.589-16.931,11.825Z" transform="translate(-246.92 -230.344)" fill="#90c0d5"/>
      </g>
      <g id="Grupo_986760" data-name="Grupo 986760" transform="translate(39.45 154.149)">
        <path id="Trazado_644510" data-name="Trazado 644510" d="M259.444,373.815l5.1-21.25h15.42l-6.817,25.254Z" transform="translate(-238.05 -229.057)" fill="#e4af9a"/>
        <g id="Grupo_986757" data-name="Grupo 986757" transform="translate(0 144.757)">
          <path id="Trazado_644511" data-name="Trazado 644511" d="M273.153,390.281l.823-13.287-13.7-4-7.293,7.6-14.1,7.961a5.006,5.006,0,0,1,.077,1.732Z" transform="translate(-238.881 -372.989)" fill="#422a3f"/>
          <rect id="Rectángulo_308828" data-name="Rectángulo 308828" width="34.246" height="3.314" transform="translate(0.077 17.292)" fill="#fff"/>
          <line id="Línea_963" data-name="Línea 963" x2="10.043" y2="2.397" transform="translate(18.529 2.985)" fill="none" stroke="#fff" stroke-linecap="round" stroke-linejoin="round" stroke-width="1.01"/>
          <line id="Línea_964" data-name="Línea 964" x2="11.055" y2="2.592" transform="translate(15.698 5.986)" fill="none" stroke="#fff" stroke-linecap="round" stroke-linejoin="round" stroke-width="1.01"/>
        </g>
        <g id="Grupo_986759" data-name="Grupo 986759" transform="translate(10.395)">
          <path id="Trazado_644512" data-name="Trazado 644512" d="M250.483,233.854h60.048s7.128,9.485,0,43.109c-7.492,35.339-31.4,91.78-31.4,91.78-9.913,3.783-17.725-1.774-17.99-2.2,7.665-51.719,15.456-90.736,18.245-101.628C279.382,264.912,244.488,262.341,250.483,233.854Z" transform="translate(-248.835 -233.854)" fill="#00c1ab"/>
          <path id="Trazado_644513" data-name="Trazado 644513" d="M310.568,233.854H250.52c-.728,3.458-1.648,9.533-1.648,9.533,11.934,6.1,37.229,9.776,64.533.788C312.595,236.555,310.568,233.854,310.568,233.854Z" transform="translate(-248.872 -233.854)" fill="#00c1ab" opacity="0.4" style="mix-blend-mode: multiply;isolation: isolate"/>
          <g id="Grupo_986758" data-name="Grupo 986758" transform="translate(13.809 3.522)">
            <path id="Trazado_644514" data-name="Trazado 644514" d="M292.339,237.239s.594,15.18,19.633,14.2" transform="translate(-260.925 -237.239)" fill="#00c1ab" stroke="#426a7a" stroke-miterlimit="10" stroke-width="1.01"/>
            <path id="Trazado_644515" data-name="Trazado 644515" d="M272.613,367.2s30.6-68.245,35.721-116.266" transform="translate(-261.722 -236.686)" fill="#00c1ab" stroke="#426a7a" stroke-miterlimit="10" stroke-width="1.01"/>
            <path id="Trazado_644516" data-name="Trazado 644516" d="M262.145,355.282l16.738-91.466a33.4,33.4,0,0,1-12.174-2.83" transform="translate(-262.145 -236.279)" fill="#00c1ab" stroke="#426a7a" stroke-miterlimit="10" stroke-width="1.01"/>
          </g>
          <path id="Trazado_644517" data-name="Trazado 644517" d="M261.258,351.62s12,5.845,21.778,4.113l-2.844,8.787s-9.242,5.933-20.5-2.508Z" transform="translate(-248.435 -229.096)" fill="#00c1ab"/>
        </g>
      </g>
      <path id="Trazado_644518" data-name="Trazado 644518" d="M247.227,90.251c-15.172,8.921-15.027,25.288-8.488,36.676s7.051,23.9-.131,35.976,7.936,32.966,40.044,26.947,41.731-25.738,34.044-36.531-15.916-13.4-13.334-24.7-3.933-28.991-16.977-37.95C273.894,84.833,258.814,83.437,247.227,90.251Z" transform="translate(-199.607 -85.692)" fill="#006475"/>
      <path id="Trazado_644519" data-name="Trazado 644519" d="M262.654,143.916c-5.013,1.627-10.762,1.588-15.1,12.787s-3.232,48.113-3.232,48.113l-28.271-12.132s10.1,12.85,21.845,20.009,18.054,11.015,20.867,7.16S262.654,143.916,262.654,143.916Z" transform="translate(-200.353 -83.339)" fill="#dba08d"/>
      <g id="Grupo_986761" data-name="Grupo 986761" transform="translate(45.498 59.156)">
        <path id="Trazado_644520" data-name="Trazado 644520" d="M275.907,142.622c-10.631-.6-20.316,2.693-21.54,4.283s-10.892,24.844-9.546,30.229S257.182,201,257.917,204.3s-8.69,30.962-11.871,36.225c0,0,37.658,14.733,67.923,0,0,0-9.057-36.592-9.18-41.977s-2.2-40.631-2.325-44.424S295.489,143.724,275.907,142.622Z" transform="translate(-244.694 -142.55)" fill="#12263f"/>
        <path id="Trazado_644522" data-name="Trazado 644522" d="M304.408,220.01A9.683,9.683,0,0,0,307.989,216c-1.889-8.323-3.544-16.2-3.6-18.48-.05-2.217-.433-9.5-.874-17.565l-16.752-12s-4.562,23.455-6.839,25.832c-1.751,1.829-17.7,3.275-24.964,3.845a35.5,35.5,0,0,1,2.555,5.644c.3,1.343-1.082,6.713-3.04,12.967C266.434,218.716,296.756,224.388,304.408,220.01Z" transform="translate(-244.298 -141.524)" fill="#422a3f" opacity="0.6" style="mix-blend-mode: multiply;isolation: isolate"/>
      </g>
      <g id="Grupo_986762" data-name="Grupo 986762" transform="translate(6.341 65.289)">
        <path id="Trazado_644523" data-name="Trazado 644523" d="M230.739,193.222s-15.42-12.667-15.971-12.667-7.709,5.507-7.709,5.507L227.8,198.729l7.894-1.835Z" transform="translate(-207.058 -147.147)" fill="#422a3f"/>
        <path id="Trazado_644524" data-name="Trazado 644524" d="M286.553,196.9s1.469-31.573,3.121-39.651,12.36-16.78,17.6,4.535c3.773,15.357-.157,53.291-2.727,56.045s-34.585,1.1-58.688-7.894-30.9-15.42-29.8-17.439,12.85,4.4,12.85,4.4-5.507-8.81-2.57-10.278,11.015,8.44,13.952,10.278S286.37,200.593,286.553,196.9Z" transform="translate(-206.699 -148.445)" fill="#e4af9a"/>
        <path id="Trazado_644525" data-name="Trazado 644525" d="M241.774,195.639s-1.494-3.58-3.972,2.523c-2.019,4.972-1.341,10.6,2.779,8.211" transform="translate(-205.86 -146.58)" fill="none" stroke="#d5597d" stroke-miterlimit="10" stroke-width="1.01"/>
        <path id="Trazado_644526" data-name="Trazado 644526" d="M245.182,195.941s-1.091-3.278-3.57,2.825c-2.018,4.972-2.424,10.548,1.7,8.155" transform="translate(-205.722 -146.561)" fill="none" stroke="#79a4bf" stroke-miterlimit="10" stroke-width="1.01"/>
      </g>
      <g id="Grupo_986765" data-name="Grupo 986765" transform="translate(0 62.837)">
        <g id="Grupo_986763" data-name="Grupo 986763">
          <path id="Trazado_644527" data-name="Trazado 644527" d="M227.515,159.365a13.276,13.276,0,1,0-16.1,12.969l4.41,7.591,1-7.54A13.278,13.278,0,0,0,227.515,159.365Z" transform="translate(-200.963 -146.088)" fill="#fff"/>
        </g>
        <g id="Grupo_986764" data-name="Grupo 986764" transform="translate(6.79 4.659)">
          <path id="Trazado_644528" data-name="Trazado 644528" d="M209.865,154.166l-2.274-2.973.8-.6,2.053,2.873,2.032-2.841.749.566-2.2,2.922,2.406,3.155-.778.6-2.235-3.034-2.164,3.014-.758-.576Z" transform="translate(-207.489 -150.565)" fill="#87c2a7"/>
          <path id="Trazado_644529" data-name="Trazado 644529" d="M216.871,150.566a3.676,3.676,0,1,1-3.337,3.651C213.534,152.144,214.777,150.566,216.871,150.566Zm0,6.492c1.557,0,2.366-1.224,2.366-2.841a2.573,2.573,0,0,0-2.366-2.822c-1.487,0-2.357,1.224-2.357,2.822A2.572,2.572,0,0,0,216.871,157.058Z" transform="translate(-207.245 -150.566)" fill="#87c2a7"/>
          <path id="Trazado_644530" data-name="Trazado 644530" d="M209.865,162.837l-2.274-2.973.8-.6,2.053,2.872,2.032-2.841.749.566-2.2,2.923,2.406,3.155-.778.6-2.235-3.033-2.164,3.013-.758-.576Z" transform="translate(-207.489 -150.214)" fill="#87c2a7"/>
          <path id="Trazado_644531" data-name="Trazado 644531" d="M216.871,159.237a3.676,3.676,0,1,1-3.337,3.651C213.534,160.815,214.777,159.237,216.871,159.237Zm0,6.492c1.557,0,2.366-1.224,2.366-2.841a2.572,2.572,0,0,0-2.366-2.821c-1.487,0-2.357,1.224-2.357,2.821A2.571,2.571,0,0,0,216.871,165.729Z" transform="translate(-207.245 -150.216)" fill="#87c2a7"/>
        </g>
      </g>
      <g id="Grupo_986776" data-name="Grupo 986776" transform="translate(39.194 3.048)">
        <g id="Grupo_986766" data-name="Grupo 986766" transform="translate(24.869 30.857)">
          <path id="Trazado_644532" data-name="Trazado 644532" d="M282.515,147.05s-.071,3.48-7.872,4.4-8.683-2.444-8.683-2.444l-3.346-28.264,16.555-1.96Z" transform="translate(-262.535 -118.26)" fill="#e4af9a"/>
          <path id="Trazado_644533" data-name="Trazado 644533" d="M262.538,120.1l3.062,25.867c11.87-2.4,14.431-9.764,13.207-20.107-.324-2.733-.622-5.253-.9-7.58Z" transform="translate(-262.538 -118.28)" fill="#e4af9a" opacity="0.5" style="mix-blend-mode: multiply;isolation: isolate"/>
        </g>
        <g id="Grupo_986769" data-name="Grupo 986769" transform="translate(2.027 1.148)">
          <path id="Trazado_644534" data-name="Trazado 644534" d="M240.661,104.45s1.763,14.9,2.842,24.005,6.319,17.927,20.8,16.213,17.56-9.424,16.237-20.6-2.23-18.831-2.841-24.005-8.089-11.633-20.919-10.114S239.95,98.449,240.661,104.45Z" transform="translate(-240.582 -89.724)" fill="#e4af9a"/>
          <path id="Trazado_644535" data-name="Trazado 644535" d="M256.784,89.95c-12.83,1.519-16.834,8.5-16.123,14.5,0,0,.649,5.487,1.4,11.835,1.729.069,4.554-.722,8.311-4.83,0,0,5.078,4.772,16.093-2.019,0,0,.262,9.035,13.226,7.422-.873-7.373-1.518-12.82-1.988-16.794C277.091,94.891,269.615,88.431,256.784,89.95Z" transform="translate(-240.582 -89.724)" fill="#e4af9a" opacity="0.5" style="mix-blend-mode: multiply;isolation: isolate"/>
          <g id="Grupo_986768" data-name="Grupo 986768" transform="translate(35.975 22.254)">
            <path id="Trazado_644536" data-name="Trazado 644536" d="M275.206,117.629a5.386,5.386,0,1,0,4.632-6.481A5.646,5.646,0,0,0,275.206,117.629Z" transform="translate(-275.16 -111.114)" fill="#e4af9a"/>
            <g id="Grupo_986767" data-name="Grupo 986767" transform="translate(4.845 10.634)">
              <path id="Trazado_644537" data-name="Trazado 644537" d="M282.342,122.443a1.267,1.267,0,1,1-1.407-1.108" transform="translate(-279.817 -121.335)" fill="none" stroke="#fff" stroke-miterlimit="10" stroke-width="0.382"/>
            </g>
            <path id="Trazado_644538" data-name="Trazado 644538" d="M283.908,114.218s-3.17-3.178-5.217.212c0,0,2.672.884,2.616,3.187-.067,2.688-1.744,3.167-1.744,3.167" transform="translate(-275.018 -111.043)" fill="none" stroke="#5f3732" stroke-miterlimit="10" stroke-width="0.573"/>
          </g>
        </g>
        <g id="Grupo_986775" data-name="Grupo 986775" transform="translate(3.425 22.392)">
          <g id="Grupo_986773" data-name="Grupo 986773" transform="translate(5.897 4.047)">
            <path id="Trazado_644539" data-name="Trazado 644539" d="M256.845,119.881s.895,3.484.095,4.526-3.892-.061-4,1.749,4.395,3.929,7.4.4" transform="translate(-247.379 -113.797)" fill="none" stroke="#5f3732" stroke-miterlimit="10" stroke-width="1.01"/>
            <g id="Grupo_986772" data-name="Grupo 986772">
              <g id="Grupo_986770" data-name="Grupo 986770" transform="translate(14.524)">
                <path id="Trazado_644540" data-name="Trazado 644540" d="M261.6,117.671c.225,1.9,1.158,3.344,2.084,3.235s1.5-1.735,1.27-3.632-1.157-3.344-2.083-3.235S261.38,115.776,261.6,117.671Z" transform="translate(-261.555 -114.033)" fill="#3c2d21"/>
              </g>
              <g id="Grupo_986771" data-name="Grupo 986771" transform="translate(0 1.72)">
                <path id="Trazado_644541" data-name="Trazado 644541" d="M251,118.927c.225,1.9-.344,3.523-1.27,3.632s-1.859-1.339-2.084-3.235.344-3.522,1.27-3.632S250.773,117.031,251,118.927Z" transform="translate(-247.595 -115.686)" fill="#3c2d21"/>
              </g>
            </g>
          </g>
          <path id="Trazado_644542" data-name="Trazado 644542" d="M252.709,133.112c4.372-3.475,10.846-1.284,10.846-1.284s1.136,5.688-4.732,6.475S252.709,133.112,252.709,133.112Z" transform="translate(-241.491 -109.295)" fill="#fff"/>
          <path id="Trazado_644543" data-name="Trazado 644543" d="M252.944,113.963c2.662,2.969-3.516-.023-9.41,2.491C243.534,116.454,250.282,110.994,252.944,113.963Z" transform="translate(-241.862 -110.025)" fill="#c3537d"/>
          <path id="Trazado_644544" data-name="Trazado 644544" d="M259.007,113.228c-1.9,3.509,3.411-.844,9.731.225C268.738,113.453,260.9,109.72,259.007,113.228Z" transform="translate(-241.252 -110.08)" fill="#c3537d"/>
          <g id="Grupo_986774" data-name="Grupo 986774">
            <path id="Trazado_644545" data-name="Trazado 644545" d="M255.88,118.244a7,7,0,1,1-7.775-6.129A7,7,0,0,1,255.88,118.244Z" transform="translate(-241.927 -110.066)" fill="none" stroke="#1c2b3c" stroke-linecap="round" stroke-linejoin="round" stroke-width="0.505"/>
            <path id="Trazado_644546" data-name="Trazado 644546" d="M272.116,116.322a7,7,0,1,1-7.775-6.129A7,7,0,0,1,272.116,116.322Z" transform="translate(-241.271 -110.144)" fill="none" stroke="#1c2b3c" stroke-linecap="round" stroke-linejoin="round" stroke-width="0.505"/>
            <line id="Línea_965" data-name="Línea 965" y1="0.354" x2="2.988" transform="translate(13.915 7.498)" fill="none" stroke="#1c2b3c" stroke-linecap="round" stroke-linejoin="round" stroke-width="0.505"/>
            <line id="Línea_966" data-name="Línea 966" y1="0.665" x2="5.62" transform="translate(30.806 5.186)" fill="none" stroke="#1c2b3c" stroke-linecap="round" stroke-linejoin="round" stroke-width="0.505"/>
          </g>
        </g>
        <path id="Trazado_644547" data-name="Trazado 644547" d="M238.636,112.652c.151-5.6-.663-20.989,17.055-23.525,24.94-3.569,25.687,12.4,24.618,26.283,0,0-9.465,2.3-12.635-7.306,0,0-17.54,6.945-15.465.537C252.21,108.642,238.462,119.06,238.636,112.652Z" transform="translate(-238.634 -88.621)" fill="#006475"/>
      </g>
    </g>
    <g id="Grupo_986797" data-name="Grupo 986797" transform="translate(288.559 0)">
      <ellipse id="Elipse_7917" data-name="Elipse 7917" cx="36.573" cy="7.695" rx="36.573" ry="7.695" transform="translate(26.045 323.066)" fill="#cde4ff" opacity="0.7" style="mix-blend-mode: multiply;isolation: isolate"/>
      <g id="Grupo_986782" data-name="Grupo 986782" transform="translate(38.761 160.431)">
        <g id="Grupo_986779" data-name="Grupo 986779">
          <path id="Trazado_644548" data-name="Trazado 644548" d="M354.293,250.992s-2.218,54.7,17.207,131.147h20.325s3.335-86.959,10.212-123.148Z" transform="translate(-350.967 -224.437)" fill="#1c2b3c"/>
          <path id="Trazado_644549" data-name="Trazado 644549" d="M351.093,226.7s2.052,15.131,2.657,23.621,13.115,20.377,32.966,19.212c22.585-1.324,24-19.628,24.154-22.938s-3.975-21.126-3.975-21.126Z" transform="translate(-351.093 -225.468)" fill="#1c2b3c"/>
          <g id="Grupo_986778" data-name="Grupo 986778" transform="translate(8.781 20.605)">
            <line id="Línea_967" data-name="Línea 967" y1="135.191" transform="translate(19.486 1.558)" fill="none" stroke="#33506c" stroke-miterlimit="10" stroke-width="1.067"/>
            <path id="Trazado_644550" data-name="Trazado 644550" d="M359.533,245.273s1.7,16.861,19.486,15.89" transform="translate(-359.533 -245.273)" fill="none" stroke="#33506c" stroke-miterlimit="10" stroke-width="1.067"/>
          </g>
        </g>
        <g id="Grupo_986781" data-name="Grupo 986781" transform="translate(1.896 157.703)">
          <rect id="Rectángulo_308829" data-name="Rectángulo 308829" width="38.963" height="2.48" transform="translate(38.963 16.385) rotate(180)" fill="#fff"/>
          <g id="Grupo_986780" data-name="Grupo 986780">
            <path id="Trazado_644551" data-name="Trazado 644551" d="M352.915,390.95s10.79-10.961,18.638-13.9h20.325v13.9Z" transform="translate(-352.915 -377.046)" fill="#f4d975"/>
          </g>
          <path id="Trazado_644552" data-name="Trazado 644552" d="M385.444,383.914a4.783,4.783,0,1,1-4.784-4.783A4.784,4.784,0,0,1,385.444,383.914Z" transform="translate(-351.987 -376.962)" fill="#fff"/>
          <line id="Línea_968" data-name="Línea 968" x1="3.986" transform="translate(13.869 2.462)" fill="none" stroke="#fff" stroke-linecap="round" stroke-linejoin="round" stroke-width="1.349"/>
          <line id="Línea_969" data-name="Línea 969" x2="3.897" transform="translate(9.007 5.917)" fill="none" stroke="#fff" stroke-linecap="round" stroke-linejoin="round" stroke-width="1.349"/>
        </g>
      </g>
      <g id="Grupo_986783" data-name="Grupo 986783" transform="translate(90.567 82.371)">
        <path id="Trazado_644553" data-name="Trazado 644553" d="M406.58,150.44s12.032,26.454,15.4,39.1-15.4,36.659-15.4,36.659S393.771,189.788,406.58,150.44Z" transform="translate(-400.887 -150.44)" fill="#00c1ab"/>
        <path id="Trazado_644554" data-name="Trazado 644554" d="M409.917,189.528c2.368-18.917-2.656-37.241-2.656-37.241s-1,1.757-2.613,4.748c-9.452,36.7,1.932,69.085,1.932,69.085a121.991,121.991,0,0,0,7.657-11.347A46.839,46.839,0,0,1,409.917,189.528Z" transform="translate(-400.887 -150.365)" fill="#87c2a7" opacity="0.5" style="mix-blend-mode: multiply;isolation: isolate"/>
      </g>
      <g id="Grupo_986785" data-name="Grupo 986785" transform="translate(37.208 164.737)">
        <path id="Trazado_644555" data-name="Trazado 644555" d="M350.373,232.357s-1.738,8.056,0,10.758,14.935,10.913,33.05,9.913,29.5-8.242,30.276-11.491-1.811-11.929-1.811-11.929Z" transform="translate(-349.6 -229.607)" fill="#87c2a7"/>
        <g id="Grupo_986784" data-name="Grupo 986784" transform="translate(2.613 0.061)" opacity="0.6" style="mix-blend-mode: multiply;isolation: isolate">
          <path id="Trazado_644556" data-name="Trazado 644556" d="M364.727,235.075l-1.221-.376c-1.74,5.65-1.24,11.807-.664,15.487.447.149.906.292,1.373.432C363.633,247.155,362.979,240.751,364.727,235.075Z" transform="translate(-351.7 -229.463)" fill="#87c2a7"/>
          <path id="Trazado_644557" data-name="Trazado 644557" d="M369.826,238.1l-1.221-.376a30.482,30.482,0,0,0-.744,13.774q.671.148,1.362.282A29.543,29.543,0,0,1,369.826,238.1Z" transform="translate(-351.494 -229.34)" fill="#87c2a7"/>
          <path id="Trazado_644558" data-name="Trazado 644558" d="M378.262,237.743c.006.106.532,8.858.268,15.034.422.005.85,0,1.281,0,.262-6.184-.248-14.68-.274-15.112Z" transform="translate(-351.055 -229.343)" fill="#87c2a7"/>
          <path id="Trazado_644559" data-name="Trazado 644559" d="M386.156,252.337a62.049,62.049,0,0,0-.532-14.536l-1.261.212a61.782,61.782,0,0,1,.494,14.463C385.3,252.434,385.725,252.385,386.156,252.337Z" transform="translate(-350.809 -229.337)" fill="#87c2a7"/>
          <path id="Trazado_644560" data-name="Trazado 644560" d="M373.954,237.983l-1.269-.154a61.676,61.676,0,0,0,.088,14.54c.435.054.876.1,1.319.144A61.154,61.154,0,0,1,373.954,237.983Z" transform="translate(-351.297 -229.336)" fill="#87c2a7"/>
          <path id="Trazado_644561" data-name="Trazado 644561" d="M407.014,230.032c.024.078,2.3,7.81,1.14,15.046a16.682,16.682,0,0,0,1.444-1.149,40.588,40.588,0,0,0-1.361-14.264Z" transform="translate(-349.893 -229.666)" fill="#87c2a7"/>
          <path id="Trazado_644562" data-name="Trazado 644562" d="M405.711,246.649a30.848,30.848,0,0,0-2.355-15.049l-1.16.536c.035.079,3.408,7.538,2.118,15.248C404.8,247.139,405.265,246.9,405.711,246.649Z" transform="translate(-350.088 -229.588)" fill="#87c2a7"/>
          <path id="Trazado_644563" data-name="Trazado 644563" d="M401.287,248.7a40.6,40.6,0,0,0-1.154-14.9l-1.227.358a39.639,39.639,0,0,1,1.019,15.054C400.387,249.047,400.85,248.878,401.287,248.7Z" transform="translate(-350.221 -229.499)" fill="#87c2a7"/>
          <path id="Trazado_644564" data-name="Trazado 644564" d="M357.934,248.3c.461.212.934.424,1.43.633-.581-2.868-1.747-10.349.263-16.883l-.588-.181-.694.031C356.5,238.117,357.312,244.9,357.934,248.3Z" transform="translate(-351.906 -229.577)" fill="#87c2a7"/>
          <path id="Trazado_644565" data-name="Trazado 644565" d="M397.45,250a41.607,41.607,0,0,0-1.221-13.795l-1.228.354a41.244,41.244,0,0,1,1.116,13.839C396.574,250.274,397.011,250.139,397.45,250Z" transform="translate(-350.379 -229.402)" fill="#87c2a7"/>
          <path id="Trazado_644566" data-name="Trazado 644566" d="M353.79,232.1l-1.3.058a40.767,40.767,0,0,0,.381,13.183c.452.314.954.64,1.508.973A40.762,40.762,0,0,1,353.79,232.1Z" transform="translate(-352.112 -229.568)" fill="#87c2a7"/>
          <path id="Trazado_644567" data-name="Trazado 644567" d="M392.629,251.241a41.756,41.756,0,0,0-1.252-13.424l-1.228.354a41.243,41.243,0,0,1,1.17,13.354C391.77,251.437,392.192,251.336,392.629,251.241Z" transform="translate(-350.575 -229.337)" fill="#87c2a7"/>
        </g>
        <path id="Trazado_644568" data-name="Trazado 644568" d="M349.637,237.879c8.349,4.9,36.306,18.425,63.967-.653a63.108,63.108,0,0,0-1.719-7.619l-61.514,2.75A40.293,40.293,0,0,0,349.637,237.879Z" transform="translate(-349.599 -229.607)" fill="#87c2a7" opacity="0.5" style="mix-blend-mode: multiply;isolation: isolate"/>
      </g>
      <g id="Grupo_986791" data-name="Grupo 986791" transform="translate(30.33 3.284)">
        <g id="Grupo_986786" data-name="Grupo 986786" transform="translate(31.027 33.69)">
          <path id="Trazado_644569" data-name="Trazado 644569" d="M390.435,137.578s-.508,3.645-8.812,3.645-8.812-3.645-8.812-3.645v-30.09h17.624Z" transform="translate(-372.811 -106.778)" fill="#b18373"/>
          <path id="Trazado_644570" data-name="Trazado 644570" d="M372.811,106.806v27.537c12.76-1.045,16.365-8.456,16.365-19.467v-8.07Z" transform="translate(-372.811 -106.806)" fill="#b18373" opacity="0.5" style="mix-blend-mode: multiply;isolation: isolate"/>
        </g>
        <g id="Grupo_986790" data-name="Grupo 986790">
          <path id="Trazado_644571" data-name="Trazado 644571" d="M370.774,74.424c-13.658,0-18.73,6.829-18.73,13.218,0,0-.069,19.23-.11,19.264-1.873,1.542-3.323-.175-4.691,1.917-1.2,1.836,2.031,4.466,4.861,3.387.563,9.049,5.352,20.6,19.769,20.6,15.422,0,19.607-7.711,19.607-19.609V87.642C391.479,82.134,384.433,74.424,370.774,74.424Z" transform="translate(-342.828 -74.424)" fill="#b18373"/>
          <path id="Trazado_644572" data-name="Trazado 644572" d="M391.284,113.2V87.642c0-5.508-7.046-13.218-20.705-13.218s-18.73,6.829-18.73,13.218c0,0-.012,3.612-.031,7.707a16.282,16.282,0,0,0,3.856-1.079s-2.025,8.83,4.569,4.755c0,0-.393,10.246,6.788,4.589,0,0,7.835,13.75,4.357,29.183.1,0,.191.008.289.008C387.1,132.806,391.284,125.095,391.284,113.2Z" transform="translate(-342.633 -74.424)" fill="#b18373" opacity="0.5" style="mix-blend-mode: multiply;isolation: isolate"/>
          <path id="Trazado_644573" data-name="Trazado 644573" d="M356.181,76.156s-24.025-6.562-4.127,6.506c0,0-8.022.382-8.976,3.745s5.855,7.037,15.47,6.276c0,0-3.784,6.12,3.381,3.429,0,0-1.152,10.9,6.746,4.51,0,0,2.334,12.472,8.674,2.008C377.349,102.63,370.2,81.5,356.181,76.156Z" transform="translate(-342.989 -74.421)" fill="#1c2b3c"/>
          <g id="Grupo_986789" data-name="Grupo 986789" transform="translate(10.188 22.568)">
            <g id="Grupo_986788" data-name="Grupo 986788" transform="translate(2.852 2.967)">
              <g id="Grupo_986787" data-name="Grupo 986787">
                <ellipse id="Elipse_7918" data-name="Elipse 7918" cx="1.785" cy="3.655" rx="1.785" ry="3.655" fill="#3c2d21"/>
              </g>
            </g>
            <path id="Trazado_644574" data-name="Trazado 644574" d="M353.677,119.184s5.385,1.93,8.879-5.445" transform="translate(-352.746 -95.404)" fill="none" stroke="#5f3732" stroke-miterlimit="10" stroke-width="1.212"/>
            <path id="Trazado_644575" data-name="Trazado 644575" d="M363.524,98.629s-7.221-4.32-10-1.631S356.114,97.018,363.524,98.629Z" transform="translate(-352.782 -96.116)" fill="#1c2b3c"/>
          </g>
        </g>
        <path id="Trazado_644576" data-name="Trazado 644576" d="M397.337,99.608" transform="translate(-340.793 -73.406)" fill="#564748"/>
      </g>
      <path id="Trazado_644577" data-name="Trazado 644577" d="M371.236,140.239s9.578-26.091-1.445-44.727-15.914-18.237-13.779-21,29.112-5.481,46.772,7.717,6.017,46.5-7.374,60.417C395.41,142.647,377.836,143.276,371.236,140.239Z" transform="translate(-312.153 -71.229)" fill="#00c1ab"/>
      <path id="Trazado_644578" data-name="Trazado 644578" d="M403.1,82.473c5.322,9.83,6.061,24.018,3.085,34.018-5.451,18.315-28.335,25.294-27.559,9s-11.256-33.588-11.256-33.588h0c.624,1,1.27,2.057,1.94,3.19,11.023,18.636,1.445,44.726,1.445,44.726,6.6,3.038,24.174,2.409,24.174,2.409C408.11,128.539,419.576,96.078,403.1,82.473Z" transform="translate(-311.674 -70.815)" fill="#87c2a7" opacity="0.5" style="mix-blend-mode: multiply;isolation: isolate"/>
      <g id="Grupo_986793" data-name="Grupo 986793">
        <g id="Grupo_986792" data-name="Grupo 986792">
          <path id="Trazado_644579" data-name="Trazado 644579" d="M341.909,85.3a14.036,14.036,0,1,0-17.017,13.712l4.663,8.025,1.056-7.972A14.038,14.038,0,0,0,341.909,85.3Z" transform="translate(-313.837 -71.268)" fill="#fff"/>
        </g>
        <path id="Trazado_644580" data-name="Trazado 644580" d="M334.165,82.166c1.654.011,1.333,2.376-.211,2.621l-.067.244c1.655.466.777,2.365-.411,2.488l-.055.244c1.577.4.822,2.354-.411,2.488l-.055.244c1.288.21.977,2.41-.978,2.41l-9.728.011a8.172,8.172,0,0,1-2.266-.789V84.553c.556-.344,4.37-4.959,4.7-6.031a25.713,25.713,0,0,0,.454-4.086s.566-.733,1.844-.2a8.489,8.489,0,0,1,1.177,3.61,11.9,11.9,0,0,1-.744,4.32Z" transform="translate(-313.589 -71.156)" fill="#79a4bf"/>
      </g>
      <g id="Grupo_986794" data-name="Grupo 986794" transform="translate(34.666 67.064)">
        <path id="Trazado_644581" data-name="Trazado 644581" d="M380.33,248.588c-17.025-1.341-35.625-8.16-32.908-14.211s8.531-35.138,8.439-55.236.6-33.055,8.877-38.615,18.589-5.9,28.1-3.008,13.2,8.227,15.914,13.516,1.94,26.209,0,49.81,10.285,34.965,5.434,38.21S399.086,250.066,380.33,248.588Z" transform="translate(-347.156 -135.727)" fill="#ffd76a"/>
        <path id="Trazado_644582" data-name="Trazado 644582" d="M355.672,170.086c-.044,2.69-.053,5.522-.038,8.535a200.744,200.744,0,0,1-2.846,30.948,14.316,14.316,0,0,0,4.631-2.765c11.513-9.855,19.6-35.43,17.9-54.789C374.457,142.189,364.888,155.044,355.672,170.086Z" transform="translate(-346.929 -135.208)" fill="#f4d975" style="mix-blend-mode: multiply;isolation: isolate"/>
        <path id="Trazado_644583" data-name="Trazado 644583" d="M408.628,199.807c1.232-14.982,1.993-28.875,1.691-38.384-2.281,17.519-8.624,43.372-7.384,52.156,1.682,11.91,6.857,22.444-17.192,28.75a51.36,51.36,0,0,1-35.546-3.357c5.707,4.1,18.232,7.652,30.009,8.579,18.755,1.477,29-6.287,33.855-9.533S406.687,223.407,408.628,199.807Z" transform="translate(-347.034 -134.689)" fill="#f4d975" style="mix-blend-mode: multiply;isolation: isolate"/>
      </g>
      <g id="Grupo_986796" data-name="Grupo 986796" transform="translate(7.202 41.138)">
        <g id="Grupo_986795" data-name="Grupo 986795" transform="translate(3.308)">
          <path id="Trazado_644584" data-name="Trazado 644584" d="M325.509,114.271l13.085-3.4a6.152,6.152,0,0,1,2.894.429l7.827,27.715a2.1,2.1,0,0,1-1.369,2.612l-12.431,4.524s-2.993-.64-3.327-1.763L324.026,116.9A2.1,2.1,0,0,1,325.509,114.271Z" transform="translate(-323.939 -110.808)" fill="#4f3a6e"/>
          <path id="Trazado_644585" data-name="Trazado 644585" d="M326.887,114.531l13.085-3.4a2.1,2.1,0,0,1,2.531,1.415l8.191,26.729a2.1,2.1,0,0,1-1.37,2.612l-13.114,4.161a2.1,2.1,0,0,1-2.644-1.4L325.4,117.155A2.1,2.1,0,0,1,326.887,114.531Z" transform="translate(-323.883 -110.798)" fill="#3d2853"/>
          <path id="Trazado_644586" data-name="Trazado 644586" d="M327.328,117.168l13.133-3.429,7.575,25.566-12.686,4.312Z" transform="translate(-323.802 -110.69)" fill="#fff"/>
          <path id="Trazado_644587" data-name="Trazado 644587" d="M328.883,118.21l10.582-3.04,2.55,8.41-10.658,2.851Zm3.351,10.825,10.492-2.909-.485-1.431-10.48,2.862Zm.922,2.814,10.492-2.909-.485-1.432-10.48,2.863Zm.922,2.814,10.492-2.909-.485-1.432-10.48,2.863Zm.922,2.813,10.492-2.908-.485-1.432L334.527,136Zm.922,2.814,10.492-2.908-.485-1.432-10.48,2.862Z" transform="translate(-323.739 -110.632)" fill="#add9ed" style="mix-blend-mode: multiply;isolation: isolate"/>
        </g>
        <path id="Trazado_644588" data-name="Trazado 644588" d="M326.289,152.507s2.225-7.614-2.221-13.049-3.247-7.786-2.894-11.533c.561-5.968,2.623-10.691,4.328-9.7l3.71,12.341c1.976,1.483,3.171-4.242,4.324-3.089s0,10.376,1.811,14.657,4.447,9.059,4.447,9.059Z" transform="translate(-320.759 -110.514)" fill="#b18373"/>
        <path id="Trazado_644589" data-name="Trazado 644589" d="M326.074,151.634l15.81-3.952,7.906,21.739s9.852-32.794,19.569-29.5,8.9,24.433,1.817,40.9-19.41,32.4-27.973,18.571S326.074,151.634,326.074,151.634Z" transform="translate(-320.544 -109.641)" fill="#00c1ab"/>
        <path id="Trazado_644590" data-name="Trazado 644590" d="M323.939,149.733l2.221,6.484,18.61-6.484-1.844-4.951Z" transform="translate(-320.63 -109.436)" fill="#ffd76a"/>
      </g>
    </g>
  </g>
</svg>
