<svg id="Grupo_988703" data-name="Grupo 988703" xmlns="http://www.w3.org/2000/svg" width="45.875" height="45.866" viewBox="0 0 45.875 45.866">
  <path id="Trazado_646773" data-name="Trazado 646773" d="M1617.831-211.926q0,6.628,0,13.255a3.372,3.372,0,0,1-3.631,3.626q-7.435,0-14.87,0c-.555,0-.562,0-.5.528.123.976.26,1.951.378,2.928.032.267.127.362.417.361,1.189-.006,1.514.254,1.831,1.394.271.975.546,1.949.81,2.926a1.383,1.383,0,0,1-1.423,1.855q-5.957.006-11.914,0a1.384,1.384,0,0,1-1.412-1.864c.276-1.02.558-2.038.839-3.057a1.432,1.432,0,0,1,1.675-1.252c.406.013.525-.116.563-.505q.147-1.468.384-2.927c.056-.348-.05-.394-.354-.392-1.732.011-3.464.005-5.2.005q-4.949,0-9.9,0a3.362,3.362,0,0,1-3.539-2.876,4.021,4.021,0,0,1-.037-.669q0-12.449,0-24.9a3.366,3.366,0,0,1,3.6-3.572c1.344,0,2.688-.009,4.031.007.3,0,.417-.056.4-.383-.03-.536-.015-1.074-.006-1.612a1.745,1.745,0,0,1,1.88-1.866q13.034,0,26.067,0a1.754,1.754,0,0,1,1.885,1.909c.011.777.011.777.794.777q2.15,0,4.3,0a2.76,2.76,0,0,1,2.925,2.912Q1617.834-218.621,1617.831-211.926Zm-23.024,4.039a3.148,3.148,0,0,0,2.059-.584c.161-.1.232-.189.086-.381a2.147,2.147,0,0,1-.452-1.239c-.008-.225-.1-.23-.283-.173a5.562,5.562,0,0,1-1.766.2c-.3-.067-.609-.117-.9-.207-.219-.067-.252.017-.261.2a2.1,2.1,0,0,1-.435,1.193c-.154.2-.1.3.08.414A3.1,3.1,0,0,0,1594.807-207.887Zm1.519-10.68a1.054,1.054,0,0,1,.725.472,1.828,1.828,0,0,0,.953.7c.224.074.329.022.325-.236-.011-.789.013-1.579-.017-2.367a1.4,1.4,0,0,0-1.361-1.34c-.386-.018-.773.005-1.16.01-.925-.006-1.849-.022-2.773-.017a1.447,1.447,0,0,0-1.554,1.571c-.008.716.012,1.432-.008,2.148-.009.311.088.411.4.408a6.9,6.9,0,0,0,3.732-1.059A1.447,1.447,0,0,1,1596.326-218.567Zm0,1.718c-.1-.228-.236-.152-.391-.065a8.769,8.769,0,0,1-3.3,1.023c-.391.049-.948-.237-1.144.2a2.778,2.778,0,0,0,0,1.279,3.344,3.344,0,0,0,2.564,2.863,3.4,3.4,0,0,0,4.148-2.361,7.412,7.412,0,0,0,.129-1.818c0-.173-.069-.227-.229-.252A3.588,3.588,0,0,1,1596.328-216.849Zm2.686,30.438c.567.005,1.134.006,1.7.017.207,0,.3-.038.233-.281-.286-.986-.565-1.975-.829-2.968a.289.289,0,0,0-.344-.25c-.552.012-1.1.013-1.655.018q-4.052-.008-8.1-.021c-.229,0-.3.095-.355.3q-.387,1.446-.8,2.884c-.067.229-.052.324.218.323Q1594.043-186.408,1599.013-186.411Zm10.128-18.111c.531.137.663.29.667.837q.011,1.474,0,2.949c0,.212.03.332.287.322.579-.024,1.159-.024,1.738-.034.507.009,1.015-.007,1.519.036.383.033.458-.1.457-.463q-.019-8.308-.009-16.616a2.073,2.073,0,0,1,0-.224c.019-.174-.052-.234-.227-.23-.582.015-1.163.016-1.745.023-.506-.007-1.013.012-1.516-.029-.409-.034-.513.1-.511.507.018,3.393.011,6.787.01,10.18,0,.67-.082.785-.67.983-.575-.19-.673-.319-.673-.936q0-4.844,0-9.688c0-.152-.013-.3-.024-.552-.312.32-.541.571-.787.8-.375.352-.669.807-1.2.964-.767-.085-1.069-.391-1.08-1.088-.006-.37.124-.863-.063-1.079-.219-.252-.726-.077-1.106-.081a2.8,2.8,0,0,1-2.932-2.919c-.006-.984-.014-1.968.007-2.952.006-.306-.063-.4-.384-.4-1.8.017-3.609.006-5.413.01a.693.693,0,0,1-.8-.6c.079-.589.246-.741.84-.742,1.761,0,3.522-.008,5.283.006.318,0,.459-.069.528-.409a2.718,2.718,0,0,1,2.83-2.285c1.3,0,2.6-.009,3.9,0,.281,0,.424-.067.385-.372a2.052,2.052,0,0,1,0-.4c.031-.431-.179-.572-.592-.571q-12.962.008-25.924,0c-.422,0-.593.16-.587.582.014.985.028,1.97-.007,2.954-.015.433.141.508.531.506,3.388-.014,6.776-.009,10.164-.007.594,0,.761.153.84.742-.084.478-.405.605-.845.6-3.433-.005-6.866,0-10.3-.009-.285,0-.409.028-.408.371q.017,11.506,0,23.011c0,.3.06.411.387.407q2.261-.026,4.522,0c.293,0,.376-.079.372-.372q-.025-1.768,0-3.537a4.37,4.37,0,0,1,2.907-4.2c.566-.225,1.141-.431,1.7-.679a1.351,1.351,0,0,0,.384-2.206,4.624,4.624,0,0,1-1.466-3.393c-.01-1.671-.019-3.343,0-5.014a2.777,2.777,0,0,1,2.887-2.87q1.88-.02,3.761,0a2.777,2.777,0,0,1,2.9,2.854c.023,1.671.013,3.343,0,5.014a4.667,4.667,0,0,1-1.584,3.521.849.849,0,0,0-.237.256,1.5,1.5,0,0,0,.8,1.875c.481.2.97.378,1.456.564a4.44,4.44,0,0,1,3.088,4.49q0,1.679,0,3.358c0,.185-.025.348.26.342,1-.023,2-.023,3-.033.549.009,1.1,0,1.648.033.3.016.375-.089.371-.376-.016-.967-.011-1.934,0-2.9C1608.472-204.235,1608.607-204.389,1609.141-204.522Zm4.834-14.785c.372.007.744.034,1.115.015a1.406,1.406,0,0,0,1.392-1.405q.021-2.391,0-4.782a1.4,1.4,0,0,0-1.39-1.4c-.342-.011-.684.008-1.027.013-3.356-.005-6.713-.017-10.069-.01a1.4,1.4,0,0,0-1.378,1.464q-.019,2.327,0,4.654a1.427,1.427,0,0,0,1.471,1.472c.492.012.985-.008,1.477.009a1.149,1.149,0,0,1,1.149,1.133.891.891,0,0,0,.071.493,6.577,6.577,0,0,0,.514-.551,2.733,2.733,0,0,1,2.6-1.1C1611.257-219.223,1612.618-219.3,1613.976-219.307Zm-17.11,12.4a4.859,4.859,0,0,1-5.185-.849.311.311,0,0,0-.365-.045c-.552.223-1.121.412-1.655.672a2.809,2.809,0,0,0-1.678,2.37c-.121,1.354-.022,2.715-.049,4.072,0,.239.127.261.313.26.672,0,1.344-.017,2.016.005.311.01.374-.115.364-.391-.017-.477-.019-.956,0-1.433a.691.691,0,0,1,.708-.709.681.681,0,0,1,.627.735q.016.738,0,1.478c-.005.227.066.317.3.316q2.62-.011,5.24,0c.272,0,.324-.114.318-.35-.012-.477-.01-.955,0-1.433a.682.682,0,0,1,.658-.748.7.7,0,0,1,.679.741c.016.388,0,.776,0,1.164,0,.652,0,.652.657.6.565.007,1.13,0,1.694.027.292.013.344-.118.342-.372-.01-1.176.015-2.352-.01-3.527a3.017,3.017,0,0,0-2.045-2.952c-.414-.165-.827-.332-1.243-.492-.148-.057-.295-.141-.45.012A6.532,6.532,0,0,1,1596.865-206.9Zm17.649,7.778c-.3.023-.594.066-.891.066q-18.725.005-37.45,0a4.19,4.19,0,0,1-.492-.016,1.037,1.037,0,0,1-1.035-1.161q0-11.488,0-22.976a1.046,1.046,0,0,1,1.161-1.163c1.075,0,2.15,0,3.225,0,.945,0,.926,0,.937-.941,0-.361-.138-.411-.447-.408-1.329.014-2.658.005-3.987.006a2.036,2.036,0,0,0-2.234,2.216q0,12.451,0,24.9a3.125,3.125,0,0,0,.031.535,2.1,2.1,0,0,0,2.255,1.674q18.792-.033,37.584-.014c.179,0,.357-.013.536-.021.149.006.3.005.446.018a2.127,2.127,0,0,0,2.346-2.33c-.037-6.339-.017-12.678-.017-19.018v-.523a5,5,0,0,1-.877.258c-.411.04-.473.246-.473.613.011,5.668,0,11.336.017,17A1.333,1.333,0,0,1,1614.514-199.126Zm-38.524-12.622c0,3.642.005,7.283-.009,10.925,0,.341.087.418.418.411,1.059-.023,2.12-.018,3.179,0,.3,0,.408-.065.408-.39q-.014-10.925,0-21.85c0-.331-.112-.386-.408-.381-1.045.017-2.09.024-3.134,0-.367-.01-.466.076-.464.455C1576-218.971,1575.99-215.359,1575.99-211.748Zm18.84,20.512v0c.9,0,1.792-.008,2.687.005.274,0,.378-.078.339-.358-.149-1.046-.294-2.093-.426-3.141-.03-.235-.142-.284-.354-.285q-2.148-.013-4.3-.048c-.264,0-.4.046-.432.35q-.181,1.575-.426,3.142c-.048.3.046.347.312.343C1593.1-191.244,1593.964-191.236,1594.83-191.236Z" transform="translate(-1571.957 230.916)" fill="#030303"/>
  <path id="Trazado_646774" data-name="Trazado 646774" d="M1649.225-172.709c-1,.009-2,.01-3,.033-.285.006-.261-.157-.26-.342q0-1.679,0-3.358a4.44,4.44,0,0,0-3.088-4.49c-.486-.186-.975-.366-1.456-.564a1.5,1.5,0,0,1-.8-1.875.849.849,0,0,1,.237-.256,4.666,4.666,0,0,0,1.584-3.521c.011-1.671.022-3.343,0-5.014a2.777,2.777,0,0,0-2.9-2.854q-1.88-.018-3.761,0a2.777,2.777,0,0,0-2.887,2.87c-.02,1.671-.011,3.343,0,5.014a4.623,4.623,0,0,0,1.466,3.393,1.351,1.351,0,0,1-.385,2.206c-.556.248-1.131.454-1.7.679a4.371,4.371,0,0,0-2.907,4.2q-.022,1.768,0,3.536c0,.293-.079.375-.372.372q-2.261-.022-4.522,0c-.327,0-.387-.107-.387-.407q.012-11.506,0-23.011c0-.343.123-.372.408-.371,3.433.009,6.866,0,10.3.009.44,0,.761-.127.845-.6a8.508,8.508,0,0,1,1.815,0,.693.693,0,0,0,.8.6c1.8,0,3.609.007,5.413-.01.321,0,.39.09.384.4-.021.984-.013,1.968-.007,2.952a2.8,2.8,0,0,0,2.932,2.919c.381,0,.887-.171,1.106.081.187.216.057.708.063,1.079.011.7.313,1,1.081,1.088Q1649.225-180.33,1649.225-172.709Z" transform="translate(-1614.729 203.176)" fill="#fdfdfd"/>
  <path id="Trazado_646775" data-name="Trazado 646775" d="M1619.858-172.686c-.179.007-.358.021-.536.021q-18.792,0-37.584.014a2.1,2.1,0,0,1-2.255-1.674,3.113,3.113,0,0,1-.031-.535q0-12.451,0-24.9a2.036,2.036,0,0,1,2.234-2.216c1.329,0,2.658.008,3.987-.006.309,0,.451.046.447.408-.011.941.008.941-.937.941-1.075,0-2.15,0-3.225,0a1.046,1.046,0,0,0-1.161,1.163q0,11.488,0,22.976a1.037,1.037,0,0,0,1.035,1.161,4.2,4.2,0,0,0,.492.016q18.725,0,37.45,0c.3,0,.594-.043.891-.066a4.215,4.215,0,0,1-.4,2.078C1620.148-173.084,1619.874-172.969,1619.858-172.686Z" transform="translate(-1578.105 207.177)" fill="#546b8b"/>
  <path id="Trazado_646776" data-name="Trazado 646776" d="M1594.377-175.744c0-3.612.007-7.224-.01-10.836,0-.379.1-.465.464-.455,1.044.027,2.09.02,3.135,0,.3,0,.408.05.408.381q-.015,10.925,0,21.85c0,.325-.107.4-.408.39-1.06-.016-2.12-.021-3.179,0-.33.007-.419-.07-.418-.411C1594.382-168.461,1594.377-172.1,1594.377-175.744Z" transform="translate(-1590.344 194.912)" fill="#e9f1fa"/>
  <path id="Trazado_646777" data-name="Trazado 646777" d="M1637.53-218.672a8.509,8.509,0,0,0-1.815,0c-.078-.589-.246-.742-.84-.742-3.388,0-6.776-.007-10.163.007-.39,0-.547-.073-.531-.506.034-.983.021-1.969.007-2.954-.006-.422.165-.582.587-.582q12.962.011,25.924,0c.414,0,.623.141.593.571a2.033,2.033,0,0,0,0,.4c.039.306-.1.375-.385.372-1.3-.011-2.6,0-3.9,0a2.718,2.718,0,0,0-2.83,2.285c-.069.34-.21.412-.528.409-1.761-.014-3.522-.008-5.283-.006C1637.776-219.413,1637.609-219.261,1637.53-218.672Zm-11.363-3.428a.635.635,0,0,0-.627.712.629.629,0,0,0,.665.629.636.636,0,0,0,.628-.712A.629.629,0,0,0,1626.166-222.1Zm3.354.657a.63.63,0,0,0-.639-.657.633.633,0,0,0-.656.684.63.63,0,0,0,.639.657A.634.634,0,0,0,1629.521-221.442Zm2.052.684a.635.635,0,0,0,.635-.7.629.629,0,0,0-.659-.636.635.635,0,0,0-.635.7A.629.629,0,0,0,1631.573-220.758Z" transform="translate(-1614.806 224.788)" fill="#4a5e7a"/>
  <path id="Trazado_646778" data-name="Trazado 646778" d="M1672.789-94.948c-.657.055-.656.055-.657-.6,0-.388.012-.777,0-1.164a.7.7,0,0,0-.679-.741.682.682,0,0,0-.658.748c-.01.477-.012.955,0,1.433.006.236-.046.351-.318.35q-2.62-.015-5.24,0c-.239,0-.31-.09-.3-.316q.017-.739,0-1.478a.681.681,0,0,0-.627-.735.691.691,0,0,0-.708.709c-.02.477-.019.956,0,1.433.01.276-.053.4-.365.391-.671-.022-1.344-.01-2.016-.005-.186,0-.318-.021-.313-.26.027-1.358-.072-2.718.049-4.072a2.808,2.808,0,0,1,1.678-2.37c.534-.26,1.1-.449,1.655-.672a.311.311,0,0,1,.365.045,4.859,4.859,0,0,0,5.185.849c.028.213.211.221.361.276a3.776,3.776,0,0,1,2.6,3.806C1672.762-96.531,1672.789-95.739,1672.789-94.948Z" transform="translate(-1644.923 125.416)" fill="#cf8992"/>
  <path id="Trazado_646779" data-name="Trazado 646779" d="M1754.084-200.86c-1.357.007-2.718.085-4.069,0a2.733,2.733,0,0,0-2.6,1.1,6.575,6.575,0,0,1-.514.551.892.892,0,0,1-.071-.493,1.148,1.148,0,0,0-1.149-1.133c-.492-.017-.985,0-1.477-.009a1.427,1.427,0,0,1-1.472-1.472q-.021-2.327,0-4.654a1.4,1.4,0,0,1,1.379-1.464c3.356-.008,6.713,0,10.069.01-.021.162.11.265.154.4.15.453.457.893.167,1.4-.134-.01-.267-.028-.4-.028q-4.432,0-8.864,0a1.239,1.239,0,0,0-.267.014.644.644,0,0,0-.525.544.638.638,0,0,0,.322.683,1,1,0,0,0,.563.1q4.32,0,8.64,0a2.2,2.2,0,0,0,.654-.107,3.462,3.462,0,0,1,0,.492c-.044.328.131.684-.124.984-.134-.01-.268-.028-.4-.028q-4.432,0-8.864,0a1.239,1.239,0,0,0-.267.014.645.645,0,0,0-.525.544.639.639,0,0,0,.322.683,1,1,0,0,0,.563.1q4.32,0,8.64,0a2.209,2.209,0,0,0,.654-.107A2.986,2.986,0,0,1,1754.084-200.86Z" transform="translate(-1712.067 212.468)" fill="#f1dc8a"/>
  <path id="Trazado_646780" data-name="Trazado 646780" d="M1779.1-147.04c.588-.2.67-.313.67-.983,0-3.393.008-6.787-.009-10.18,0-.41.1-.54.511-.507.5.041,1.01.022,1.516.029q0,8.737,0,17.473c-.579.01-1.159.01-1.738.034-.256.011-.288-.109-.287-.322q.011-1.474,0-2.949c0-.547-.135-.7-.667-.837Q1779.1-146.161,1779.1-147.04Z" transform="translate(-1741.921 171.675)" fill="#e9f1fa"/>
  <path id="Trazado_646781" data-name="Trazado 646781" d="M1794.08-141.158q0-8.736,0-17.473c.582-.007,1.163-.008,1.745-.023.175,0,.246.055.227.23a2.105,2.105,0,0,0,0,.224q0,8.308.009,16.616c0,.366-.075.5-.457.463C1795.1-141.165,1794.587-141.149,1794.08-141.158Z" transform="translate(-1754.206 171.625)" fill="#dce9fa"/>
  <path id="Trazado_646782" data-name="Trazado 646782" d="M1766.819-144.763q0,.879,0,1.758c-.534.133-.669.287-.673.831-.008.967-.012,1.934,0,2.9,0,.287-.073.392-.371.376-.549-.03-1.1-.024-1.648-.033q0-7.621,0-15.243c.532-.157.826-.612,1.2-.964.246-.232.475-.483.787-.8.011.249.024.4.024.553q0,4.844,0,9.688C1766.147-145.082,1766.244-144.953,1766.819-144.763Z" transform="translate(-1729.637 169.398)" fill="#ede9f2"/>
  <path id="Trazado_646783" data-name="Trazado 646783" d="M1676.1,1.093q-4.97.008-9.941.019c-.27,0-.284-.094-.218-.323q.418-1.437.8-2.884c.054-.2.126-.3.355-.3q4.052.019,8.1.021a2.844,2.844,0,0,0,.051.349Q1675.675-.463,1676.1,1.093Z" transform="translate(-1649.045 43.411)" fill="#546b8b"/>
  <path id="Trazado_646784" data-name="Trazado 646784" d="M1804.564-138.653c.016-.284.29-.4.408-.623a4.214,4.214,0,0,0,.4-2.078,1.333,1.333,0,0,0,.639-1.277c-.016-5.668-.006-11.336-.017-17,0-.367.062-.573.473-.613a5.008,5.008,0,0,0,.877-.258v.523c0,6.339-.021,12.679.017,19.018a2.127,2.127,0,0,1-2.346,2.33C1804.862-138.648,1804.713-138.647,1804.564-138.653Z" transform="translate(-1762.811 173.145)" fill="#4a5e7a"/>
  <path id="Trazado_646785" data-name="Trazado 646785" d="M1686.029-27.364c-.866,0-1.732-.008-2.6.005-.266,0-.359-.039-.312-.343q.246-1.566.426-3.142c.035-.3.169-.355.432-.35q2.148.037,4.3.048c.212,0,.324.05.354.285.132,1.048.277,2.095.426,3.141.04.28-.064.362-.338.358-.9-.013-1.791-.005-2.687-.005Z" transform="translate(-1663.157 67.044)" fill="#4a5e7a"/>
  <path id="Trazado_646786" data-name="Trazado 646786" d="M1682.988-147.941a3.344,3.344,0,0,1-2.564-2.863,2.776,2.776,0,0,1,0-1.279c.2-.435.753-.15,1.144-.2a8.77,8.77,0,0,0,3.3-1.023c.155-.088.295-.164.391.065q0,1.136,0,2.272A3.022,3.022,0,0,1,1682.988-147.941Z" transform="translate(-1660.89 167.306)" fill="#eacbbc"/>
  <path id="Trazado_646787" data-name="Trazado 646787" d="M1713.679-94.962c0-.791-.028-1.584,0-2.374a3.776,3.776,0,0,0-2.6-3.806c-.15-.056-.333-.064-.361-.276a6.552,6.552,0,0,0,1.247-.848c.155-.153.3-.069.45-.012.416.161.829.328,1.243.492a3.017,3.017,0,0,1,2.045,2.952c.026,1.175,0,2.351.01,3.527,0,.254-.049.385-.341.372C1714.809-94.96,1714.244-94.955,1713.679-94.962Z" transform="translate(-1685.812 125.43)" fill="#c5737d"/>
  <path id="Trazado_646788" data-name="Trazado 646788" d="M1685.449-174.811a1.447,1.447,0,0,0-.737.293,6.9,6.9,0,0,1-3.732,1.059c-.314,0-.411-.1-.4-.408.02-.715,0-1.432.008-2.148a1.447,1.447,0,0,1,1.554-1.571c.924-.006,1.849.01,2.773.017a2.527,2.527,0,0,1,.543,1.737C1685.426-175.494,1685.449-175.151,1685.449-174.811Z" transform="translate(-1661.08 187.159)" fill="#c59876"/>
  <path id="Trazado_646789" data-name="Trazado 646789" d="M1806.041-200.878a2.986,2.986,0,0,0,.534-1.864c.411-.516.384-.788-.122-1.212.255-.3.08-.656.124-.984a3.444,3.444,0,0,0,0-.492c.411-.516.384-.788-.122-1.212.29-.507-.018-.947-.167-1.4-.044-.132-.175-.235-.154-.4.342-.005.685-.023,1.027-.013a1.4,1.4,0,0,1,1.389,1.4q.021,2.391,0,4.782a1.406,1.406,0,0,1-1.392,1.406C1806.786-200.844,1806.413-200.871,1806.041-200.878Z" transform="translate(-1764.023 212.486)" fill="#e7cd7b"/>
  <path id="Trazado_646790" data-name="Trazado 646790" d="M1695.07-147.251a3.022,3.022,0,0,0,2.272-3.027q0-1.136,0-2.272a3.588,3.588,0,0,0,1.776.867c.16.025.233.079.229.252a7.419,7.419,0,0,1-.129,1.818A3.4,3.4,0,0,1,1695.07-147.251Z" transform="translate(-1672.971 166.617)" fill="#e0ac9b"/>
  <path id="Trazado_646791" data-name="Trazado 646791" d="M1718.593,1.107q-.423-1.557-.845-3.115a2.917,2.917,0,0,1-.051-.349c.552-.005,1.1-.006,1.655-.018a.289.289,0,0,1,.344.25c.264.992.542,1.981.829,2.968.071.243-.026.284-.233.281C1719.726,1.113,1719.159,1.112,1718.593,1.107Z" transform="translate(-1691.537 43.397)" fill="#4a5e7a"/>
  <path id="Trazado_646792" data-name="Trazado 646792" d="M1705.268-174.8c0-.341-.022-.683.007-1.022a2.527,2.527,0,0,0-.543-1.737c.387,0,.774-.027,1.16-.01a1.4,1.4,0,0,1,1.361,1.34c.031.788.006,1.578.017,2.367,0,.259-.1.31-.325.236a1.827,1.827,0,0,1-.953-.7A1.054,1.054,0,0,0,1705.268-174.8Z" transform="translate(-1680.899 187.153)" fill="#bd865d"/>
  <path id="Trazado_646793" data-name="Trazado 646793" d="M1697.229-115.807a5.563,5.563,0,0,0,1.766-.2c.184-.057.275-.052.283.173a2.146,2.146,0,0,0,.452,1.239c.146.192.075.277-.086.381a3.148,3.148,0,0,1-2.059.584A3.657,3.657,0,0,1,1697.229-115.807Z" transform="translate(-1674.734 136.656)" fill="#e0ac9b"/>
  <path id="Trazado_646794" data-name="Trazado 646794" d="M1689.551-115.822a3.66,3.66,0,0,0,.355,2.18,3.1,3.1,0,0,1-1.875-.577c-.18-.114-.234-.214-.079-.414a2.106,2.106,0,0,0,.434-1.193c.009-.186.042-.27.261-.2C1688.942-115.939,1689.249-115.889,1689.551-115.822Z" transform="translate(-1667.056 136.67)" fill="#eacbbc"/>
  <path id="Trazado_646795" data-name="Trazado 646795" d="M1632.376-215.935a.629.629,0,0,1,.666.629.636.636,0,0,1-.628.712.629.629,0,0,1-.665-.629A.635.635,0,0,1,1632.376-215.935Z" transform="translate(-1621.016 218.625)" fill="#030303"/>
  <path id="Trazado_646796" data-name="Trazado 646796" d="M1648.016-215.277a.634.634,0,0,1-.657.684.63.63,0,0,1-.638-.657.633.633,0,0,1,.656-.684A.63.63,0,0,1,1648.016-215.277Z" transform="translate(-1633.3 218.624)" fill="#030303"/>
  <path id="Trazado_646797" data-name="Trazado 646797" d="M1662.355-214.594a.629.629,0,0,1-.659-.636.635.635,0,0,1,.635-.7.629.629,0,0,1,.659.636A.635.635,0,0,1,1662.355-214.594Z" transform="translate(-1645.588 218.624)" fill="#030303"/>
  <path id="Trazado_646798" data-name="Trazado 646798" d="M1762.31-198.485c.506.424.533.7.122,1.212a2.2,2.2,0,0,1-.654.107q-4.32-.009-8.64,0a1,1,0,0,1-.563-.1.638.638,0,0,1-.322-.683.644.644,0,0,1,.525-.544,1.241,1.241,0,0,1,.268-.014q4.432,0,8.864,0C1762.043-198.513,1762.177-198.5,1762.31-198.485Z" transform="translate(-1719.88 204.331)" fill="#030303"/>
  <path id="Trazado_646799" data-name="Trazado 646799" d="M1762.309-183.514c.506.424.533.7.122,1.212a2.208,2.208,0,0,1-.654.107q-4.32-.009-8.64,0a.994.994,0,0,1-.563-.1.639.639,0,0,1-.323-.683.645.645,0,0,1,.525-.544,1.24,1.24,0,0,1,.268-.014q4.432,0,8.864,0C1762.042-183.542,1762.175-183.524,1762.309-183.514Z" transform="translate(-1719.878 192.047)" fill="#030303"/>
</svg>
