<svg id="Grupo_988704" data-name="Grupo 988704" xmlns="http://www.w3.org/2000/svg" width="44.698" height="41.892" viewBox="0 0 44.698 41.892">
  <path id="Trazado_646800" data-name="Trazado 646800" d="M1283.416-343.224a.711.711,0,0,1,.818-.6c1.542.011,3.083,0,4.625.005a4.26,4.26,0,0,1,4.371,4.385q.01,10.948,0,21.9c0,.347-.114.792.056,1.016.184.243.651.062.994.079.394.02.667.21.677.593a9.051,9.051,0,0,1-.115,2.473,4.452,4.452,0,0,1-4.438,3.413q-8.813.008-17.627,0h-17.758a4.474,4.474,0,0,1-4.728-4.726c0-.363-.011-.727,0-1.09a.634.634,0,0,1,.659-.661H1251c.331-.02.766.14.965-.064.218-.223.068-.662.068-1.006q.006-10.948,0-21.9a4.255,4.255,0,0,1,3.691-4.373,13.952,13.952,0,0,1,2.091-.041c.844-.008,1.688.012,2.531-.008a.745.745,0,0,1,.859.615c-.127.554-.3.694-.856.7l-2.116.019c-.581-.006-1.163-.018-1.744-.017a2.962,2.962,0,0,0-3.146,3.139q0,11.232-.01,22.463c0,.385.094.48.479.479,4.625-.014,9.25,0,13.875-.017a1.528,1.528,0,0,1,1.456.766,1.1,1.1,0,0,0,1.021.551q2.422,0,4.843,0a1.059,1.059,0,0,0,.994-.516,1.614,1.614,0,0,1,1.569-.8c4.421.018,8.843.009,13.264.009,1.127,0,1.127,0,1.066-1.122,0-.072.014-.145.014-.217q0-10.874,0-21.749a2.945,2.945,0,0,0-2.991-2.981c-1.555-.01-3.11,0-4.665,0C1283.694-342.514,1283.516-342.668,1283.416-343.224Zm-10.785,31.952q8.813,0,17.626,0a3.193,3.193,0,0,0,3.418-3.443c0-.355-.107-.424-.438-.423q-7.809.015-15.619,0a.6.6,0,0,0-.573.286,2.247,2.247,0,0,1-1.963,1.024q-2.487.014-4.973,0a2.252,2.252,0,0,1-1.966-1.018.6.6,0,0,0-.57-.294c-1.614.012-3.229.006-4.843.006q-5.345,0-10.689-.006c-.314,0-.448.043-.447.414a3.2,3.2,0,0,0,3.454,3.451Z" transform="translate(-1250.292 351.853)" fill="#020202"/>
  <path id="Trazado_646801" data-name="Trazado 646801" d="M1320.093-381.041c0-.493.019-.986.008-1.479a.7.7,0,0,1,.616-.8c.531.1.7.282.7.813,0,1.786,0,3.572,0,5.358a1.546,1.546,0,0,0,1.729,1.712q1.743,0,3.486,0,5.077,0,10.154,0a1.472,1.472,0,0,0,1.575-1.486,1.457,1.457,0,0,0,.031-.213c0-3.195.008-6.39,0-9.585a1.524,1.524,0,0,0-1.673-1.637q-4.249,0-8.5,0c-1.569,0-3.137.01-4.706.016-.13-.005-.259-.016-.389-.015a1.544,1.544,0,0,0-1.708,1.718c0,.332,0,.664,0,1,0,.562-.13.719-.694.868a.758.758,0,0,1-.62-.9,11.055,11.055,0,0,1,.078-1.78,2.8,2.8,0,0,1,2.724-2.207q7-.014,14,0a2.722,2.722,0,0,1,2.763,2.548c.083,1.827.035,3.66.046,5.49,0,.2.019.4.029.606-.039.927-.036,1.855,0,2.782-.017.507-.009,1.017-.056,1.522a2.8,2.8,0,0,1-2.834,2.587q-6.937.011-13.875,0a2.823,2.823,0,0,1-2.866-2.879q-.007-.61-.014-1.22Q1320.092-379.637,1320.093-381.041Z" transform="translate(-1307.887 389.677)" fill="#030303"/>
  <path id="Trazado_646802" data-name="Trazado 646802" d="M1322.559-340.319c.1.556.278.71.846.711,1.555,0,3.11-.007,4.665,0a2.945,2.945,0,0,1,2.991,2.981q.011,10.874,0,21.749c0,.072-.009.145-.014.217q-7.28,0-14.56,0a2.449,2.449,0,0,0-2.061,1.01.716.716,0,0,1-.629.3q-2.071,0-4.141,0a.718.718,0,0,1-.625-.312,2.445,2.445,0,0,0-2.065-1c-2.688.016-5.376.006-8.065.006a1.7,1.7,0,0,1-1.177-.35c.189-.006.377-.018.566-.018h30.149c.116,0,.233,0,.349,0,.555-.015.788-.248.788-.811q0-10.359,0-20.718a1.474,1.474,0,0,0-1.55-1.57c-1.556-.008-3.113,0-4.668-.006a.718.718,0,0,0-.808.621l-.217.013v-.032l0-2.761Z" transform="translate(-1289.434 348.949)" fill="#a29ba4"/>
  <path id="Trazado_646803" data-name="Trazado 646803" d="M1341.316-370.732a1.472,1.472,0,0,1-1.575,1.486q-5.077.006-10.154,0-1.743,0-3.486,0a1.545,1.545,0,0,1-1.729-1.712c0-1.786,0-3.572,0-5.358,0-.531-.166-.716-.7-.813q0-.729,0-1.457c.564-.149.69-.306.694-.868,0-.332,0-.664,0-1a1.544,1.544,0,0,1,1.708-1.718c.13,0,.259.01.389.015,0,3.034.036,6.068-.019,9.1a2.3,2.3,0,0,0,2.322,2.326C1332.952-370.748,1337.134-370.732,1341.316-370.732Z" transform="translate(-1310.843 383.48)" fill="#bce3eb"/>
  <path id="Trazado_646804" data-name="Trazado 646804" d="M1293.676-339.53l2.116-.019c.558-.005.729-.146.856-.7l.172.022q0,1.377,0,2.754v.033l-.168-.009a.751.751,0,0,0-.852-.622c-.852.013-1.7,0-2.558-.008C1293.2-338.618,1293.545-339.042,1293.676-339.53Z" transform="translate(-1285.727 348.89)" fill="#a29ba4"/>
  <path id="Trazado_646805" data-name="Trazado 646805" d="M1313.71-337.5q0-1.377,0-2.754l1.115-.028q0,1.4,0,2.808Z" transform="translate(-1302.622 348.92)" fill="#8b818d"/>
  <path id="Trazado_646806" data-name="Trazado 646806" d="M1433.372-340.185q0,1.381,0,2.762l-1.055.012c-.034-.928-.037-1.855,0-2.782Z" transform="translate(-1400.473 348.846)" fill="#8b818d"/>
  <path id="Trazado_646807" data-name="Trazado 646807" d="M1278.783-175.819H1261.2a3.2,3.2,0,0,1-3.454-3.451c0-.371.134-.414.447-.414q5.345.014,10.689.006c1.614,0,3.228.006,4.843-.006a.6.6,0,0,1,.57.294,2.251,2.251,0,0,0,1.966,1.018q2.487.014,4.973,0a2.247,2.247,0,0,0,1.963-1.024.6.6,0,0,1,.573-.286q7.809.01,15.619,0c.33,0,.439.069.438.423a3.193,3.193,0,0,1-3.418,3.443Q1287.6-175.817,1278.783-175.819Z" transform="translate(-1256.443 216.4)" fill="#a29ba4"/>
  <path id="Trazado_646808" data-name="Trazado 646808" d="M1272.625-336.225c-.13.488-.476.912-.437,1.451l-1.35.014a1.49,1.49,0,0,0-1.619,1.633q0,7.364-.008,14.728a.813.813,0,0,0,.621.909q.006.725.012,1.449a.73.73,0,0,0-.63.842c.015.884,0,1.768,0,2.652,0,.67.213.883.883.888q1.435.01,2.869.018a1.7,1.7,0,0,0,1.177.35c2.688,0,5.377.01,8.064-.006a2.445,2.445,0,0,1,2.065,1,.719.719,0,0,0,.625.312q2.07,0,4.141,0a.717.717,0,0,0,.629-.3,2.448,2.448,0,0,1,2.061-1.01q7.28.015,14.56,0c.06,1.122.06,1.122-1.066,1.122-4.421,0-8.843.009-13.264-.009a1.615,1.615,0,0,0-1.57.8,1.059,1.059,0,0,1-.994.516q-2.422,0-4.843,0a1.1,1.1,0,0,1-1.02-.551,1.529,1.529,0,0,0-1.456-.766c-4.625.014-9.25,0-13.875.017-.385,0-.48-.094-.479-.479q.018-11.232.01-22.463a2.962,2.962,0,0,1,3.146-3.139C1271.462-336.243,1272.044-336.231,1272.625-336.225Z" transform="translate(-1264.677 345.585)" fill="#8b818d"/>
  <path id="Trazado_646809" data-name="Trazado 646809" d="M1354.416-370.742c-4.182,0-8.364-.016-12.545.007a2.3,2.3,0,0,1-2.322-2.326c.055-3.033.019-6.067.019-9.1,1.569-.005,3.137-.014,4.705-.016q4.249,0,8.5,0a1.524,1.524,0,0,1,1.673,1.637c.01,3.195,0,6.39,0,9.585A1.438,1.438,0,0,1,1354.416-370.742Zm-11.892-4.97c0,.784-.011,1.568,0,2.352a1.671,1.671,0,0,0,2.538,1.466q2.025-1.143,4.01-2.356a1.669,1.669,0,0,0-.006-2.934q-1.986-1.21-4.01-2.355a1.671,1.671,0,0,0-2.531,1.476C1342.514-377.28,1342.524-376.5,1342.524-375.712Z" transform="translate(-1323.943 383.49)" fill="#dceff3"/>
  <path id="Trazado_646810" data-name="Trazado 646810" d="M1334.457-324.357l1.055-.012v.032c0,.48.034.962-.006,1.439a3.89,3.89,0,0,1-1.44,2.858,4.285,4.285,0,0,1-2.787.918q-6.326,0-12.651,0a9.769,9.769,0,0,1-1.474-.071,3.881,3.881,0,0,1-2.932-2.015,5.915,5.915,0,0,1-.523-3.132v-.033l1.116.026q.007.61.014,1.22a2.823,2.823,0,0,0,2.866,2.879q6.937.01,13.875,0a2.8,2.8,0,0,0,2.834-2.587C1334.448-323.34,1334.44-323.85,1334.457-324.357Z" transform="translate(-1302.609 335.791)" fill="#97d2e0"/>
  <path id="Trazado_646811" data-name="Trazado 646811" d="M1296.416-324.229a5.916,5.916,0,0,0,.522,3.132,3.881,3.881,0,0,0,2.932,2.015,9.768,9.768,0,0,0,1.474.071q6.325.006,12.651,0a4.284,4.284,0,0,0,2.787-.918,3.889,3.889,0,0,0,1.44-2.858c.04-.476.006-.959.006-1.439l.217-.013c.119.556.286.693.866.694,1.483,0,2.967.007,4.45,0,.3,0,.408.079.408.392q-.011,9.878,0,19.757c0,.267-.069.341-.34.34q-4.406-.015-8.813,0c-.327,0-.375-.117-.369-.4.017-.77.006-1.541,0-2.311a5.36,5.36,0,0,0-.556-2.351,7.015,7.015,0,0,0-1.6-1.991c-.184-.173-.252-.31-.089-.548a3.717,3.717,0,0,0,.452-1.032c.168-.553.1-.742-.391-1.047a6.76,6.76,0,0,0-.086-1.485c.491-.33.558-.546.342-1.1a5.442,5.442,0,0,0-7.1-3.019,5.433,5.433,0,0,0-2.9,7.284c.334.728.344.739-.238,1.295a5.309,5.309,0,0,0-1.761,3.451,24.382,24.382,0,0,0-.027,2.7c.011.417-.065.565-.531.555-1.657-.035-3.315-.011-4.973-.015-.814,0-1.627-.014-2.441-.021q0-10.221,0-20.442,1.319-.007,2.637-.015c.56,0,.728-.14.861-.694Z" transform="translate(-1285.326 335.679)" fill="#bce3eb"/>
  <path id="Trazado_646812" data-name="Trazado 646812" d="M1279.13-306.019c.813.007,1.627.019,2.441.021,1.658,0,3.316-.02,4.973.014.466.01.542-.138.531-.555a24.442,24.442,0,0,1,.026-2.7,5.311,5.311,0,0,1,1.761-3.451c.582-.556.572-.567.238-1.295a5.433,5.433,0,0,1,2.9-7.284,5.442,5.442,0,0,1,7.1,3.019c.217.549.149.766-.342,1.1a.787.787,0,0,1-.88-.6,4.056,4.056,0,0,0-3.913-2.591,4.091,4.091,0,0,0-4.029,4.154,4.072,4.072,0,0,0,4.123,4.047,4.032,4.032,0,0,0,3.915-2.863c.144-.447.381-.7.87-.662.49.305.559.494.391,1.047a3.713,3.713,0,0,1-.452,1.032c-.163.238-.095.375.089.548a7.006,7.006,0,0,1,1.6,1.991,5.36,5.36,0,0,1,.556,2.351c0,.771.012,1.541,0,2.311-.006.284.041.4.369.4q4.406-.02,8.813,0c.27,0,.34-.073.339-.34q-.011-9.878,0-19.757c0-.314-.111-.395-.407-.392-1.483.012-2.967.007-4.45,0-.58,0-.747-.138-.866-.694a.718.718,0,0,1,.808-.621c1.556.01,3.112,0,4.669.006a1.474,1.474,0,0,1,1.55,1.57q0,10.359,0,20.718c0,.562-.234.8-.788.811-.116,0-.233,0-.349,0h-30.149c-.189,0-.377.012-.566.018q-1.434-.009-2.869-.018c-.67,0-.882-.218-.883-.888,0-.884.01-1.768,0-2.652a.73.73,0,0,1,.63-.842c.532.116.68.29.683.822,0,.649.008,1.3,0,1.948,0,.212.04.318.283.3C1278.264-306.015,1278.7-306.012,1279.13-306.019Zm11.779,0q4.29.011,8.579.026c.254,0,.232-.144.232-.307,0-.726-.012-1.452,0-2.177a4.14,4.14,0,0,0-1.555-3.392c-.219-.374-.415-.409-.789-.1a5.153,5.153,0,0,1-3.823,1.135,5.363,5.363,0,0,1-3.005-1.252c-.1-.079-.171-.252-.352-.082a4.79,4.79,0,0,0-1.766,2.863c-.127,1.028-.025,2.061-.059,3.091-.005.171.061.227.229.224C1289.37-306.006,1290.14-306.011,1290.909-306.018Z" transform="translate(-1271.703 338.611)" fill="#020202"/>
  <path id="Trazado_646813" data-name="Trazado 646813" d="M1282.615-327.213c-.133.554-.3.69-.861.694q-1.319.009-2.637.015c-.348,0-.7.015-1.045-.021-.421-.043-.539.107-.537.53.015,4.838.009,9.677.009,14.515,0,.619-.1.75-.695.921a.813.813,0,0,1-.621-.909q.017-7.364.008-14.728a1.49,1.49,0,0,1,1.619-1.633l1.35-.014c.852,0,1.705.021,2.557.008A.751.751,0,0,1,1282.615-327.213Z" transform="translate(-1271.694 338.654)" fill="#000101"/>
  <path id="Trazado_646814" data-name="Trazado 646814" d="M1279.779-304.371c.594-.171.695-.3.695-.921,0-4.838.006-9.677-.009-14.515,0-.423.116-.573.537-.53.345.035.7.016,1.045.021q0,10.221,0,20.442c-.432.007-.866,0-1.3.027-.243.013-.286-.093-.282-.3.01-.649.006-1.3,0-1.948,0-.531-.151-.706-.683-.822Q1279.785-303.647,1279.779-304.371Z" transform="translate(-1274.623 332.466)" fill="#97d2e0"/>
  <path id="Trazado_646815" data-name="Trazado 646815" d="M1356.547-364.376c0-.784-.01-1.568,0-2.352a1.671,1.671,0,0,1,2.531-1.476q2.024,1.144,4.01,2.355a1.669,1.669,0,0,1,.006,2.934q-1.984,1.212-4.01,2.356a1.671,1.671,0,0,1-2.538-1.466C1356.536-362.808,1356.547-363.592,1356.547-364.376Zm1.652-2.737c-.294.023-.344.243-.343.518,0,1.48,0,2.959,0,4.439,0,.5.259.646.7.388q1.878-1.09,3.746-2.2c.453-.268.451-.564-.006-.834q-1.851-1.093-3.708-2.176A.7.7,0,0,0,1358.2-367.113Z" transform="translate(-1337.966 372.154)" fill="#040404"/>
  <path id="Trazado_646816" data-name="Trazado 646816" d="M1372.521-280.556c-.489-.04-.726.216-.87.662a4.032,4.032,0,0,1-3.915,2.863c-.363-.428-.858-.706-1.209-1.163a4.791,4.791,0,0,1,.892-6.734c.105-.08.211-.157.223-.3a4.056,4.056,0,0,1,3.913,2.591.787.787,0,0,0,.88.6A6.775,6.775,0,0,1,1372.521-280.556Z" transform="translate(-1345.383 303.497)" fill="#f7f5f5"/>
  <path id="Trazado_646817" data-name="Trazado 646817" d="M1367.361-236.723a4.141,4.141,0,0,1,1.554,3.392c-.013.725,0,1.451,0,2.177,0,.164.022.308-.232.307q-4.289-.021-8.579-.026c0-.508-.017-1.016,0-1.523a7.343,7.343,0,0,1,.281-2.136.946.946,0,0,1,1.276-.7,5.782,5.782,0,0,0,3.819-.23A4.042,4.042,0,0,0,1367.361-236.723Z" transform="translate(-1340.897 263.466)" fill="#f8f6f6"/>
  <path id="Trazado_646818" data-name="Trazado 646818" d="M1355.394-238.494a4.041,4.041,0,0,1-1.881,1.26,5.781,5.781,0,0,1-3.819.23.946.946,0,0,0-1.277.7,7.359,7.359,0,0,0-.281,2.136c-.017.507,0,1.015,0,1.523-.77.008-1.539.012-2.309.025-.168,0-.234-.054-.228-.224.034-1.03-.068-2.063.059-3.091a4.789,4.789,0,0,1,1.766-2.863c.181-.17.256,0,.352.082a5.364,5.364,0,0,0,3.005,1.252,5.152,5.152,0,0,0,3.823-1.135C1354.98-238.9,1355.175-238.868,1355.394-238.494Z" transform="translate(-1328.931 265.237)" fill="#eae4e1"/>
  <path id="Trazado_646819" data-name="Trazado 646819" d="M1358.582-285.212c-.012.147-.117.224-.223.3a4.791,4.791,0,0,0-.892,6.734c.351.458.846.736,1.209,1.163a4.072,4.072,0,0,1-4.123-4.047A4.091,4.091,0,0,1,1358.582-285.212Z" transform="translate(-1336.324 303.477)" fill="#ede7e4"/>
  <path id="Trazado_646820" data-name="Trazado 646820" d="M1364.394-360.847a.7.7,0,0,1,.4.138q1.855,1.087,3.708,2.176c.457.27.46.566.007.834q-1.87,1.105-3.746,2.2c-.444.258-.7.114-.7-.388-.005-1.48,0-2.96,0-4.439C1364.05-360.6,1364.1-360.824,1364.394-360.847Z" transform="translate(-1344.161 365.888)" fill="#f7f5f5"/>
</svg>
