<svg xmlns="http://www.w3.org/2000/svg" width="67.941" height="67.91" viewBox="0 0 67.941 67.91">
  <g id="Grupo_988048" data-name="Grupo 988048" transform="translate(-1170.763 -521.458)">
    <path id="Trazado_646109" data-name="Trazado 646109" d="M1259.194,532.315a1.118,1.118,0,0,1,.954,1.287c-.013,5.215,0,10.431-.01,15.646a3.632,3.632,0,0,1-3.8,3.79q-6.167.023-12.334,0a1.948,1.948,0,0,0-1.161.36c-2.3,1.555-4.624,3.089-6.934,4.636-.42.281-.842.522-1.346.247a1.233,1.233,0,0,1-.544-1.26c.01-1.127-.028-2.255.017-3.381.02-.52-.156-.607-.632-.6-4.222.019-8.445-.057-12.665.037a3.945,3.945,0,0,1-4.153-4.163c.078-7.778.029-15.558.03-23.337,0-2.635,1.467-4.11,4.086-4.11h35.344c2.623,0,4.092,1.474,4.093,4.1,0,.951-.02,1.9.007,2.851a1.107,1.107,0,0,1-.953,1.288c-.81-.185-1.039-.452-1.043-1.257-.007-1.1.013-2.2-.008-3.3a1.649,1.649,0,0,0-1.667-1.686c-.725-.023-1.452.007-2.178.014-.22-.007-.441-.021-.661-.021h-32.881c-1.567,0-2.149.582-2.149,2.153q0,11.6,0,23.2c0,1.721.53,2.252,2.248,2.252q6.895,0,13.789,0c1.07,0,1.367.3,1.37,1.381,0,.839,0,1.679,0,2.519,0,.148-.022.362.061.429.175.142.314-.074.449-.163,1.857-1.232,3.718-2.459,5.558-3.715a2.581,2.581,0,0,1,1.543-.46c3.557.01,7.114-.009,10.671-.019.6.009,1.191.026,1.787.026,1.477,0,2.065-.6,2.065-2.1q0-7.653,0-15.3C1258.151,532.76,1258.358,532.5,1259.194,532.315Z" transform="translate(-33.648 0)" fill="#010202"/>
    <path id="Trazado_646110" data-name="Trazado 646110" d="M1353.222,682.479a1.1,1.1,0,0,1,.938,1.236c-.022.994,0,1.989-.008,2.983-.008.8-.371,1.164-1.187,1.164q-11.871.006-23.741,0c-.809,0-1.187-.366-1.188-1.169-.007-3.249-.069-6.5.018-9.746a8.265,8.265,0,0,1,7.827-7.971,7.7,7.7,0,0,1-2.368-6.938,7.339,7.339,0,0,1,2.83-4.786,7.7,7.7,0,0,1,9.983,11.713,11.731,11.731,0,0,1,2.56.584,8.263,8.263,0,0,1,5.267,7.579c.005.464-.025.93.008,1.392a1.157,1.157,0,0,1-.961,1.359c-.861-.245-1.031-.465-1.037-1.345,0-.551.012-1.1-.013-1.654a6.177,6.177,0,0,0-6.356-5.854c-3.38,0-6.763-.08-10.14.014a5.978,5.978,0,0,0-5.492,5.092c-.349,3.121-.069,6.268-.141,9.4-.007.332.175.34.417.339.818-.006,1.636-.024,2.453.007.406.015.531-.1.522-.515-.026-1.237-.019-2.474-.006-3.712.009-.837.086-1.651-.735-2.255a.821.821,0,0,1-.039-1.2.925.925,0,0,1,1.055-.364,3.264,3.264,0,0,1,1.713,2.315c0,1.724.013,3.447-.008,5.17-.005.417.088.565.54.562q5.171-.029,10.343,0c.458,0,.541-.156.537-.567-.019-1.767-.017-3.535,0-5.3a2.542,2.542,0,0,1,2.293-2.2c.842.589.893,1.135.177,1.874-.105.109-.2.229-.3.344-.052.066-.149.131-.149.2-.014,1.8-.018,3.6-.023,5.4,0,.213.122.256.3.218.877.007,1.755,0,2.631.029.368.013.44-.135.427-.459-.022-.547-.008-1.1-.005-1.645C1352.169,682.912,1352.37,682.667,1353.222,682.479Zm-7.951-23.013a5.429,5.429,0,0,0-4.739-1.844,5.692,5.692,0,0,0-4.859,3.93,5.558,5.558,0,0,0,1.6,5.9,5.24,5.24,0,0,0,4.794,1.436,5.389,5.389,0,0,0,4.443-3.863A5.312,5.312,0,0,0,1345.271,659.466Z" transform="translate(-115.462 -98.498)" fill="#030303"/>
    <path id="Trazado_646111" data-name="Trazado 646111" d="M1171.721,681.541a1.059,1.059,0,0,1-.953-1.215,24.726,24.726,0,0,1,.244-5.016,8.233,8.233,0,0,1,7.35-6.265,2.31,2.31,0,0,0,.24-.053,7.714,7.714,0,0,1-2.4-6.621,7.524,7.524,0,0,1,2.58-4.855,7.71,7.71,0,0,1,10.321.2,7.813,7.813,0,0,1-.024,11.3,8.349,8.349,0,0,1,4.577,1.716,7.973,7.973,0,0,1,3.217,6.333c.067,3.2.022,6.41.017,9.615,0,.847-.37,1.209-1.217,1.209q-11.839,0-23.679,0c-.859,0-1.21-.353-1.221-1.2-.006-.42,0-.84,0-1.26.006-.825.2-1.064,1.033-1.276a1.081,1.081,0,0,1,.952,1.284c-.039.389.114.48.478.468.794-.025,1.591-.032,2.384,0,.416.018.52-.113.512-.517-.026-1.258-.03-2.518,0-3.776a2.281,2.281,0,0,0-.725-2.186.814.814,0,0,1-.082-1.148.927.927,0,0,1,1.091-.421,3.181,3.181,0,0,1,1.7,2.242c0,1.744.01,3.489-.005,5.233,0,.388.039.577.519.574q5.2-.036,10.4,0c.431,0,.5-.144.5-.529-.02-1.5.065-3.008-.032-4.5a2.846,2.846,0,0,1,1.11-2.59,1.354,1.354,0,0,1,1.243-.432c.827.595.87,1.16.133,1.886a1.133,1.133,0,0,0-.488.876c.028,1.61.019,3.221.005,4.831,0,.329.069.472.437.46.838-.027,1.677-.022,2.515,0,.337.008.456-.081.454-.439-.017-2.8.045-5.6-.03-8.4a6.131,6.131,0,0,0-6.332-6.009c-3.289-.007-6.579-.056-9.868-.007a6.126,6.126,0,0,0-5.8,5.073,29.593,29.593,0,0,0-.114,4.164C1172.739,681.1,1172.529,681.369,1171.721,681.541ZM1180,667.483a5.257,5.257,0,0,0,4.809,1.426,5.383,5.383,0,0,0,4.41-3.828,5.681,5.681,0,1,0-9.218,2.4Z" transform="translate(0 -98.52)" fill="#030303"/>
    <path id="Trazado_646112" data-name="Trazado 646112" d="M1194.5,720.386a1.354,1.354,0,0,0-1.243.432,2.846,2.846,0,0,0-1.11,2.59c.1,1.5.012,3,.032,4.5,0,.384-.068.531-.5.529q-5.2-.029-10.4,0c-.48,0-.523-.185-.52-.574.015-1.744.009-3.489.005-5.233a3.18,3.18,0,0,0-1.7-2.242.927.927,0,0,0-1.091.421.814.814,0,0,0,.082,1.148,2.281,2.281,0,0,1,.725,2.186c-.028,1.258-.024,2.518,0,3.776.008.4-.1.535-.511.517-.794-.034-1.59-.028-2.385,0-.365.012-.517-.079-.478-.468a1.081,1.081,0,0,0-.952-1.284,16.185,16.185,0,0,0-.082-2.612c.807-.172,1.017-.441,1.042-1.26a29.593,29.593,0,0,1,.114-4.164,6.126,6.126,0,0,1,5.8-5.073c3.289-.049,6.579,0,9.868.007a1.825,1.825,0,0,0,.258.3A7.246,7.246,0,0,1,1194.5,720.386Z" transform="translate(-2.649 -141.053)" fill="#f8e085"/>
    <path id="Trazado_646113" data-name="Trazado 646113" d="M1363.4,537.814c-.837.189-1.044.446-1.044,1.329q0,7.652,0,15.3c0,1.5-.588,2.1-2.065,2.1-.6,0-1.191-.017-1.787-.026a3.871,3.871,0,0,0,.542-2.142q-.026-11.667,0-23.335a3.782,3.782,0,0,0-.541-2.076c.726-.006,1.453-.036,2.178-.014a1.649,1.649,0,0,1,1.667,1.686c.021,1.1,0,2.2.008,3.3,0,.8.233,1.072,1.043,1.257Z" transform="translate(-137.854 -5.499)" fill="#5ccdf5"/>
    <path id="Trazado_646114" data-name="Trazado 646114" d="M1402.37,725.092c-.851.187-1.053.433-1.058,1.3,0,.548-.016,1.1.005,1.645.013.325-.059.472-.427.459-.876-.032-1.754-.022-2.631-.029,0-1.711,0-3.422,0-5.133,0-.231.083-.488-.129-.684.1-.115.193-.235.3-.344.716-.739.665-1.285-.177-1.874a7.029,7.029,0,0,0-.961-4.236,11.139,11.139,0,0,0-2.347-2.553,6.177,6.177,0,0,1,6.356,5.854c.026.55.01,1.1.013,1.654.006.88.176,1.1,1.037,1.345Z" transform="translate(-164.61 -141.111)" fill="#e96392"/>
    <path id="Trazado_646115" data-name="Trazado 646115" d="M1259.881,528.969a3.782,3.782,0,0,1,.541,2.076q-.027,11.668,0,23.335a3.872,3.872,0,0,1-.542,2.143c-3.557.01-7.114.028-10.671.019a2.581,2.581,0,0,0-1.543.46c-1.841,1.256-3.7,2.483-5.559,3.715-.134.089-.273.305-.449.163-.083-.067-.06-.281-.061-.429,0-.839,0-1.679,0-2.518,0-1.08-.3-1.38-1.37-1.381q-6.894,0-13.789,0c-1.718,0-2.247-.531-2.247-2.252q0-11.6,0-23.2c0-1.571.582-2.153,2.149-2.153h32.881C1259.44,528.948,1259.66,528.962,1259.881,528.969Zm-17.572,24.283c3.161,0,6.322.012,9.483,0a3.337,3.337,0,0,0,3.434-2.64q1-3.669,1.984-7.342a3.4,3.4,0,0,0-3.518-4.6c-1.614-.006-3.228-.018-4.841.01-.446.007-.558-.134-.543-.558.03-.839.024-1.68,0-2.519a3.314,3.314,0,0,0-6.606-.409c-.148.982-.314,1.962-.447,2.946-.053.386-.179.556-.616.541-1.1-.037-2.211-.026-3.315,0-.363.007-.517-.064-.6-.467a2.027,2.027,0,0,0-2.085-1.677c-.552-.012-1.105,0-1.658,0-1.7,0-2.477.766-2.479,2.458q0,5.9,0,11.8c0,1.712.752,2.468,2.453,2.47Q1237.634,553.257,1242.309,553.253Z" transform="translate(-39.23 -5.5)" fill="#80d7f5"/>
    <path id="Trazado_646116" data-name="Trazado 646116" d="M1351.247,713.573a11.14,11.14,0,0,1,2.347,2.552,7.031,7.031,0,0,1,.961,4.236,2.541,2.541,0,0,0-2.293,2.2c-.013,1.768-.015,3.535,0,5.3,0,.41-.079.569-.537.566q-5.171-.03-10.342,0c-.452,0-.545-.145-.54-.562.021-1.723.01-3.447.008-5.17a3.264,3.264,0,0,0-1.713-2.315.925.925,0,0,0-1.055.364.821.821,0,0,0,.039,1.2c.821.6.744,1.418.735,2.255-.014,1.237-.02,2.475.005,3.712.009.411-.116.53-.522.515-.817-.031-1.635-.013-2.453-.007-.242,0-.425-.007-.417-.339.072-3.134-.208-6.281.141-9.4a5.978,5.978,0,0,1,5.492-5.092C1344.484,713.494,1347.867,713.57,1351.247,713.573Z" transform="translate(-120.915 -141.043)" fill="#eb7ea6"/>
    <path id="Trazado_646117" data-name="Trazado 646117" d="M1357.694,672.988a5.558,5.558,0,0,1-1.6-5.9,5.693,5.693,0,0,1,4.859-3.93,5.429,5.429,0,0,1,4.739,1.844c0,.507-.016,1.014,0,1.521a6.578,6.578,0,0,1-5,6.339A10.423,10.423,0,0,1,1357.694,672.988Z" transform="translate(-135.886 -104.033)" fill="#f5d1a9"/>
    <path id="Trazado_646118" data-name="Trazado 646118" d="M1362.867,678.136a10.419,10.419,0,0,0,2.994-.128,6.578,6.578,0,0,0,5-6.339c-.016-.506,0-1.014,0-1.521a5.312,5.312,0,0,1,1.236,5.561,5.389,5.389,0,0,1-4.443,3.863A5.239,5.239,0,0,1,1362.867,678.136Z" transform="translate(-141.058 -109.18)" fill="#f1bc8c"/>
    <path id="Trazado_646119" data-name="Trazado 646119" d="M1406.458,747.558c.212.2.128.453.129.684.006,1.711,0,3.422,0,5.133-.181.038-.3-.006-.3-.218.006-1.8.01-3.6.024-5.4C1406.309,747.689,1406.406,747.624,1406.458,747.558Z" transform="translate(-172.939 -166.021)" fill="#eb7ea6"/>
    <path id="Trazado_646120" data-name="Trazado 646120" d="M1200.337,672.955a5.66,5.66,0,1,1,8.012-7.979c0,.529,0,1.057,0,1.586a6.585,6.585,0,0,1-4.269,6.008A8.453,8.453,0,0,1,1200.337,672.955Z" transform="translate(-20.334 -103.992)" fill="#f5d1a9"/>
    <path id="Trazado_646121" data-name="Trazado 646121" d="M1240.991,720.444a7.245,7.245,0,0,0-3.048-6.506,1.836,1.836,0,0,1-.258-.3,6.131,6.131,0,0,1,6.332,6.009c.075,2.8.014,5.6.03,8.4,0,.358-.117.448-.454.439-.838-.02-1.677-.024-2.515,0-.367.012-.439-.131-.437-.46.013-1.61.022-3.221-.005-4.831a1.133,1.133,0,0,1,.488-.876C1241.86,721.6,1241.818,721.038,1240.991,720.444Z" transform="translate(-49.14 -141.111)" fill="#f5cf6e"/>
    <path id="Trazado_646122" data-name="Trazado 646122" d="M1205.534,678.186a8.452,8.452,0,0,0,3.745-.385,6.585,6.585,0,0,0,4.269-6.008c0-.529,0-1.057,0-1.586a5.324,5.324,0,0,1,1.206,5.577,5.383,5.383,0,0,1-4.41,3.828A5.256,5.256,0,0,1,1205.534,678.186Z" transform="translate(-25.532 -109.224)" fill="#f1bc8c"/>
    <path id="Trazado_646123" data-name="Trazado 646123" d="M1259.759,562.387q-4.675,0-9.351,0c-1.7,0-2.452-.758-2.453-2.47q0-5.9,0-11.8c0-1.692.778-2.457,2.479-2.458.552,0,1.105-.01,1.658,0a2.027,2.027,0,0,1,2.085,1.677c.084.4.239.474.6.467,1.1-.022,2.211-.032,3.315,0,.437.015.563-.155.616-.541.134-.984.3-1.964.447-2.946a3.314,3.314,0,0,1,6.606.409c.02.839.025,1.68,0,2.519-.015.423.1.565.542.558,1.613-.027,3.227-.016,4.841-.01a3.4,3.4,0,0,1,3.518,4.6q-.981,3.674-1.984,7.342a3.337,3.337,0,0,1-3.435,2.64C1266.081,562.4,1262.92,562.387,1259.759,562.387Zm4.4-1.991c1.635,0,3.27,0,4.905,0a1.478,1.478,0,0,0,1.74-1.339q.964-3.574,1.918-7.151c.378-1.408-.163-2.113-1.634-2.117-1.724,0-3.447,0-5.17,0a1.892,1.892,0,0,1-2.139-2.164c0-.95.016-1.9-.007-2.85a1.318,1.318,0,0,0-1.229-1.389,1.285,1.285,0,0,0-1.4,1.2c-.187,1.132-.358,2.266-.533,3.4a1.827,1.827,0,0,1-1.6,1.759c-.474.048-.506.254-.5.63q.015,4.739,0,9.477c0,.435.115.56.553.554C1260.754,560.381,1262.456,560.4,1264.157,560.4Zm-11.91-6.406v-4.7c0-1.656,0-1.634-1.639-1.656-.523-.007-.668.141-.665.663.022,3.463.011,6.927.011,10.391,0,1.731,0,1.714,1.712,1.715.461,0,.6-.126.591-.59C1252.233,557.873,1252.247,555.931,1252.248,553.99Zm1.991,1.079c0,1.215-.012,2.43.005,3.645.008.545-.248,1.288.106,1.581.332.275,1.051.058,1.6.109.463.043.588-.1.584-.574-.023-2.761-.005-5.523-.017-8.284,0-.567.248-1.307-.11-1.654s-1.094-.053-1.66-.111c-.419-.043-.519.116-.513.517C1254.252,551.888,1254.239,553.479,1254.239,555.069Z" transform="translate(-56.68 -14.634)" fill="#030304"/>
    <path id="Trazado_646124" data-name="Trazado 646124" d="M1293.3,565.9c-1.7,0-3.4-.015-5.1.01-.439.006-.556-.12-.553-.554q.027-4.739,0-9.477c0-.376.031-.583.5-.63a1.827,1.827,0,0,0,1.6-1.759c.175-1.134.346-2.268.533-3.4a1.285,1.285,0,0,1,1.4-1.2,1.318,1.318,0,0,1,1.228,1.389c.023.949,0,1.9.007,2.85a1.892,1.892,0,0,0,2.139,2.164c1.723.007,3.447,0,5.17,0,1.472,0,2.012.708,1.635,2.117q-.959,3.576-1.918,7.151a1.478,1.478,0,0,1-1.74,1.339C1296.571,565.906,1294.936,565.9,1293.3,565.9Z" transform="translate(-85.824 -20.14)" fill="#f4d1a8"/>
    <path id="Trazado_646125" data-name="Trazado 646125" d="M1257.748,571.255c0,1.941-.015,3.883.01,5.824.006.465-.13.591-.59.59-1.712,0-1.712.015-1.712-1.715,0-3.464.011-6.927-.011-10.391,0-.522.142-.67.665-.663,1.638.022,1.639,0,1.639,1.656Z" transform="translate(-62.18 -31.899)" fill="#5e8dcf"/>
    <path id="Trazado_646126" data-name="Trazado 646126" d="M1271.395,578.1c0-1.59.013-3.181-.009-4.771-.006-.4.094-.56.513-.517.566.058,1.3-.234,1.66.111s.108,1.088.11,1.654c.011,2.761-.007,5.523.017,8.284,0,.469-.121.617-.584.574-.544-.05-1.263.166-1.6-.109-.354-.293-.1-1.035-.106-1.581C1271.383,580.528,1271.395,579.313,1271.395,578.1Z" transform="translate(-73.836 -37.662)" fill="#e1f3fa"/>
  </g>
</svg>
