<svg xmlns="http://www.w3.org/2000/svg" width="91.275" height="101.5" viewBox="0 0 91.275 101.5">
  <g id="Grupo_986804" data-name="Grupo 986804" transform="translate(-778.053 -25.067)">
    <path id="Trazado_644591" data-name="Trazado 644591" d="M813.645,35.175a1.685,1.685,0,0,1,1.943-1.4c7.763.021,15.525,0,23.288.029a1.392,1.392,0,0,0,1.452-.817A15.483,15.483,0,1,1,856.359,55.81c-.892.146-1.213.388-1.194,1.37a4.4,4.4,0,0,1-4.674,4.541q-12.734.014-25.468-.017c-.886,0-1.032.167-.76,1.007.924,2.844.826,5.8.789,8.734a3.119,3.119,0,0,0,.435,1.564,8.269,8.269,0,0,1-.046,8.209,2.7,2.7,0,0,0-.389,1.375c.017,1.916.015,3.832,0,5.748a4.376,4.376,0,0,1-4.584,4.625q-2.624.061-5.251-.007c-.662-.017-.912.115-.891.843.044,1.61,0,1.67,1.7,1.6a14.442,14.442,0,0,1,14.683,11.251,15.39,15.39,0,0,1,.333,3.342c-.006,4.2,0,8.391,0,12.586,0,2.583-1.4,3.981-3.972,3.982q-22.544,0-45.089,0a3.568,3.568,0,0,1-3.922-3.931c-.007-4.261.009-8.523-.006-12.784a14.292,14.292,0,0,1,1.1-5.591c.527-1.268.9-1.462,2.3-1.245a1.776,1.776,0,0,1,.478,2.368,10.281,10.281,0,0,0-.893,4.422c.016,2.672,0,5.344.013,8.016,0,.215-.169.514.19.681,2.5-4.322,4.971-8.639,7.484-12.932a5.6,5.6,0,0,0,.9-2.95,4.558,4.558,0,0,1,1.846-3.57c.233-.192.481-.366.859-.652a10.761,10.761,0,0,0-5.888,1.7,1.75,1.75,0,0,1-2.411-.094c-.465-1.222-.311-1.714.765-2.4a14.846,14.846,0,0,1,8.778-2.206c.378.014,1.005.287,1.123-.222a5.841,5.841,0,0,0-.015-2.057c-.038-.28-.461-.135-.7-.136-1.684-.013-3.368,0-5.053-.009-3.152-.022-4.876-1.769-4.88-4.93q0-1.784,0-3.567a9.531,9.531,0,0,0-.786-4.153,7.714,7.714,0,0,1,.459-7.479,2.277,2.277,0,0,0,.33-1.3,29.73,29.73,0,0,1,.756-8.741,20.241,20.241,0,0,1,11.356-13.2,1.224,1.224,0,0,0,.836-1.326c-.038-3.17-.022-6.341-.015-9.511s1.8-4.982,4.958-4.984c1.948,0,3.9.028,5.845-.012a1.674,1.674,0,0,1,1.943,1.4c-.274,1.27-.65,1.581-1.961,1.584-2.048.006-4.1-.01-6.144.007-1,.008-1.629.512-1.643,1.468-.046,3.171-.02,6.342-.029,9.514,0,.383.1.541.523.441a13.885,13.885,0,0,1,3.04-.373c.355,0,.614-.072.734-.489a1.5,1.5,0,0,1,1.686-1.062c1.652.017,3.3.022,4.955,0,.773-.012,1.495.079,1.834.867a1.593,1.593,0,0,1-.693,2.027,20.316,20.316,0,0,1,4.761,2.686,2.3,2.3,0,0,0,1.541.509c2.808-.021,5.616-.01,8.424-.008a2.34,2.34,0,0,1,1.258.18,1.393,1.393,0,0,1,.753,1.493,1.452,1.452,0,0,1-1.532,1.278c-1.85.027-3.7.01-5.549.034-.331,0-.716-.157-1.017.182.547.839,1.137,1.634,1.6,2.5a1.268,1.268,0,0,0,1.309.762q13.329-.042,26.659-.025a2.386,2.386,0,0,0,1.16-.183c.915-.48.841-1.332.818-2.162-.019-.7-.644-.471-.974-.532A15.5,15.5,0,0,1,838.6,37.7c.156-.859-.027-.954-.793-.951q-11.1.036-22.2.013C814.294,36.758,813.919,36.445,813.645,35.175ZM811.978,86.9a6.457,6.457,0,0,1,1.912,1.812,11.648,11.648,0,0,0,2.439-7.044c.03-3.265.009-6.53.01-9.795,0-2.468-.34-2.8-2.789-2.745a3.848,3.848,0,0,0-.391.048,3.681,3.681,0,0,0-.786-.043,2.484,2.484,0,0,1-2.879-1.676c-.413-.892-.992-1.708-1.549-2.643-.674,1.147-1.293,2.122-1.831,3.14a2.054,2.054,0,0,1-2.071,1.187c-3.1-.043-6.207-.024-9.311-.012-1.447.006-1.969.54-1.971,1.981,0,3.533-.027,7.066.011,10.6a11.43,11.43,0,0,0,2.423,6.972c.374-.4.707-.811,1.089-1.164a3.279,3.279,0,0,1,1.466-.789c.481-.115.242-.365.138-.577a5.131,5.131,0,0,1-.582-2.672,1.458,1.458,0,0,1,2.783-.458,2.709,2.709,0,0,1,.178.764,2.938,2.938,0,0,0,3.125,2.744c.891,0,1.785-.03,2.674.011a2.1,2.1,0,0,0,1.458-.484,3.27,3.27,0,0,0,1.332-2.43,1.451,1.451,0,0,1,1.638-1.463,1.5,1.5,0,0,1,1.309,1.676,6.475,6.475,0,0,1-.8,2.77Zm-7.931-36.078a9.64,9.64,0,0,0-2.652.21A17.626,17.626,0,0,0,787.11,70.45a5.79,5.79,0,0,1,2.058-.185c.442.023.617-.127.75-.554a4.5,4.5,0,0,1,4.807-3.563c2.739-.012,5.478-.018,8.216.01a1.134,1.134,0,0,0,1.164-.667c.779-1.414,1.606-2.8,2.448-4.181a1.508,1.508,0,0,1,2.807.005c.539.868,1.035,1.762,1.552,2.643,1.357,2.309,1.357,2.308,4.043,2.15,1.489.234,3.078.691,3.559,2.152.6,1.835,1.758,2.2,3.37,2.142.033,0,.066-.005.148-.012a17.707,17.707,0,0,0-3.323-12.41A16.816,16.816,0,0,0,804.047,50.821Zm.484,38.695V89.5c-1.783,0-3.567-.014-5.35.006a1.294,1.294,0,0,0-1.45,1.386c-.024,2.113.005,4.227-.017,6.341-.006.555.2.723.745.77,2.733.239,4.081,2.392,3.139,5.006a1.252,1.252,0,0,0,.022,1.031,3.572,3.572,0,0,1,0,2.885,1.057,1.057,0,0,0-.062.939,3.834,3.834,0,0,1,.019,3.162,1.547,1.547,0,0,0,1.465,2.068c1.156,0,2.312.006,3.467-.005.245,0,.607.107.668-.246.128-.74.678-1.384.229-2.259-.532-1.037.18-2.13.158-3.151-.023-1.036-.607-2.087-.166-3.165a1.9,1.9,0,0,0,.021-1.5,3.471,3.471,0,0,1,3.156-4.778c.579-.033.809-.164.8-.789-.036-2.047,0-4.1-.017-6.143-.007-1.119-.434-1.533-1.576-1.542C808.032,89.506,806.281,89.516,804.531,89.516ZM863.2,48.724a12.362,12.362,0,0,0-.492-16.965A12.5,12.5,0,0,0,845,31.678c-4.665,4.562-4.954,12.488-.57,17.067a9.4,9.4,0,0,1,2.065-1.955c.645-.41.674-.669.226-1.31a8.646,8.646,0,0,1,13.593-10.643,8.7,8.7,0,0,1,.111,11.38A15.511,15.511,0,0,1,863.2,48.724ZM793.15,123.552h22.8c-1.083-1.877-2.154-3.643-3.128-5.461-.449-.838-.927-1.38-1.97-1.2a1.771,1.771,0,0,1-1.344-.227c-.991-.744-2.117-.584-3.224-.588q-2.474-.011-4.948,0a1.3,1.3,0,0,0-.86.137,4.19,4.19,0,0,1-2.819.7c-.33-.012-.655-.023-.861.334C795.6,119.32,794.4,121.39,793.15,123.552Zm23.581-25.12a5.259,5.259,0,0,1,2.788,5.153,2.081,2.081,0,0,0,.417,1.188q3.383,5.87,6.773,11.737c.387.67.791,1.331,1.317,2.216,0-3.549.189-6.845-.042-10.112A11.281,11.281,0,0,0,816.731,98.432Zm37.055-52.17a5.7,5.7,0,1,0-5.68-5.675A5.751,5.751,0,0,0,853.786,46.262Zm-26.431,77.329-7.663-13.271a1.122,1.122,0,0,0-.157.7c.148,2.741-.88,4.742-3.583,5.677-.573.2-.239.477-.094.73,1.081,1.884,2.175,3.761,3.248,5.649a.845.845,0,0,0,.833.528C822.345,123.579,824.75,123.591,827.355,123.591Zm-45.615-.008c2.606,0,5.015-.017,7.422.014.506.006.671-.271.873-.624,1.03-1.8,2.059-3.606,3.121-5.389.308-.518.371-.736-.329-.989a4.911,4.911,0,0,1-3.251-4.735c-.006-.507,0-1.015,0-1.522l-.17-.032Zm14.531-22.638v.012c-.594,0-1.191-.031-1.783.006a1.921,1.921,0,0,0-1.925,1.978q-.043,4.508,0,9.016a1.874,1.874,0,0,0,1.846,1.945c1.251.066,2.508.033,3.763.031.341,0,.679-.065.746-.489.057-.363-.205-.5-.47-.666-1.323-.835-1.323-1.929-.017-2.761.691-.441.69-.754,0-1.2-1.3-.832-1.3-1.933.024-2.764.614-.385.724-.719.048-1.157-1.389-.9-1.4-1.939-.03-2.805.269-.171.513-.319.445-.679-.081-.422-.421-.463-.762-.468C797.526,100.939,796.9,100.945,796.271,100.945Zm20.278,6.558c0-1.486.019-2.973-.006-4.458a1.95,1.95,0,0,0-2.025-2.086c-1.154-.041-2.311-.018-3.467-.013-.362,0-.761-.011-.864.465-.09.422.243.55.528.727,1.248.775,1.234,1.917-.023,2.715-.739.469-.729.758.042,1.247a1.448,1.448,0,0,1,.026,2.671c-.817.52-.819.779-.007,1.294a1.443,1.443,0,0,1-.014,2.667c-.317.2-.689.343-.534.808.147.444.561.4.918.4,1.057.008,2.114.022,3.17,0a2.028,2.028,0,0,0,2.255-2.274C816.56,110.277,816.55,108.89,816.549,107.5ZM846.51,50.58a3.621,3.621,0,0,0,.367.4c.218.149.439.294.669.422a12.329,12.329,0,0,0,10.769.829c.947-.354,2.447-.714,2.475-1.5.031-.855-1.315-1.5-2.187-2.106a1.3,1.3,0,0,0-1.442-.094,7.183,7.183,0,0,1-5.965.234c-1.511-.686-2.393-.1-3.385.762C847.392,49.892,846.944,50.23,846.51,50.58ZM789.786,77.1c0-1.09,0-2.18,0-3.269,0-.287.057-.545-.406-.616a3.143,3.143,0,0,0-3.754,3.084c-.01.429,0,.858,0,1.288a3.107,3.107,0,0,0,3.5,3.358c.515-.014.693-.151.676-.674C789.762,79.217,789.786,78.16,789.786,77.1Zm29.526,0c0,1.057-.007,2.114.005,3.171,0,.267-.11.57.357.671a3.183,3.183,0,0,0,3.792-2.854c.031-.493.011-.991.01-1.486a3.089,3.089,0,0,0-3.552-3.383c-.463.018-.636.127-.621.611C819.335,74.918,819.313,76.009,819.313,77.1ZM792.411,90a10.663,10.663,0,0,1-1.834-3.871c-.242-1.868-1.181-2.5-2.943-2.358-.459.036-.638.056-.629.554.026,1.383-.012,2.768.018,4.151a1.374,1.374,0,0,0,1.465,1.513C789.732,90.035,790.979,90,792.411,90Zm24.248.009c1.425,0,2.638.034,3.849-.01,1.106-.04,1.56-.565,1.574-1.717.013-1.087,0-2.174,0-3.261,0-1.253,0-1.245-1.2-1.137a7.964,7.964,0,0,1-1.184.021.551.551,0,0,0-.68.511A15.4,15.4,0,0,1,816.659,90.007Z" fill="#030202"/>
    <path id="Trazado_644592" data-name="Trazado 644592" d="M917.48,149.822a1.525,1.525,0,0,1-1.053-2.106c.179-.555-.057-.674-.576-.668q-2.922.033-5.845.005c-2.051-.018-2.954-.926-2.961-2.979q-.017-5.251,0-10.5c.007-2.043.924-2.947,2.979-2.949q8.57-.01,17.141,0c1.993,0,2.889.91,2.922,2.909.032,1.915.031,1.915,1.9,1.951a15.5,15.5,0,0,1,2.319,30.745,15.436,15.436,0,0,1-17.323-10c-.44-1.23-.338-1.571.706-2.352,1.3-.088,1.618.1,2.07,1.315a12.166,12.166,0,0,0,2.36,4.007,12.321,12.321,0,0,1,2.337-2.142c.5-.313.451-.528.129-.969A8.468,8.468,0,0,1,923,149.639a21.22,21.22,0,0,1,.758-2.587,23.3,23.3,0,0,1-2.848-.024c-1.067-.136-1.489.31-1.6,1.288A1.549,1.549,0,0,1,917.48,149.822Zm13.675-4.445c-.229.006-.567-.085-.671.032-1.053,1.19-2.917,1.259-3.779,2.639a5.712,5.712,0,1,0,4.45-2.672Zm5.573-1.39c4,3.6,4.6,7.868,1.711,12.238-.192.29-.312.452.05.689A14.177,14.177,0,0,1,941,159.193a12.491,12.491,0,0,0,2.844-10.562c-1.017-5.847-6.707-10.464-12.492-10.136-.944-.184-1.421.088-1.29,1.162a12.891,12.891,0,0,1,.008,2.163c-.022.481.131.624.615.569A8.858,8.858,0,0,1,936.728,143.987Zm-26.712-8.717c0,2.916.013,5.55-.01,8.184,0,.576.28.63.736.629,5.218-.008,10.436-.017,15.654.009.681,0,.728-.313.724-.845-.018-2.345,0-4.69-.014-7.035,0-.239.13-.528-.2-.762q-3.021,2.524-6.059,5.063c-1.877,1.574-2.685,1.572-4.57-.01C914.257,138.809,912.232,137.122,910.016,135.27Zm21.449,28.221a11.6,11.6,0,0,0,4.7-.871c.9-.375,2.314-.683,2.372-1.488.056-.775-1.232-1.407-2.037-1.989a1.528,1.528,0,0,0-1.7-.145,7.274,7.274,0,0,1-5.972.16,2.557,2.557,0,0,0-3.054.611c-.329.274-.612.6-.939.88-.479.406-.449.665.116,1A12.591,12.591,0,0,0,931.465,163.491ZM912.75,133.659c1.915,1.606,3.642,3.031,5.338,4.492.395.34.635.271.991-.034,1.477-1.264,2.983-2.5,4.464-3.755.226-.193.591-.3.6-.7Z" transform="translate(-77.743 -63.619)" fill="#050403"/>
    <path id="Trazado_644593" data-name="Trazado 644593" d="M846.861,50.509c.274,1.27.649,1.583,1.961,1.583q11.1,0,22.2-.013c.766,0,.949.093.793.951A15.5,15.5,0,0,0,884.454,71.2c.33.061.955-.172.974.532.023.83.1,1.682-.818,2.162a2.386,2.386,0,0,1-1.16.183q-13.33,0-26.659.025a1.268,1.268,0,0,1-1.309-.762c-.466-.862-1.055-1.657-1.6-2.5.3-.339.685-.178,1.017-.182,1.849-.024,3.7-.006,5.549-.034a1.452,1.452,0,0,0,1.532-1.278,1.393,1.393,0,0,0-.753-1.493,2.34,2.34,0,0,0-1.258-.18c-2.808,0-5.616-.012-8.424.008A2.3,2.3,0,0,1,850,67.175a20.316,20.316,0,0,0-4.761-2.686,1.593,1.593,0,0,0,.693-2.027c-.339-.788-1.061-.879-1.834-.867-1.651.025-3.3.019-4.955,0a1.5,1.5,0,0,0-1.686,1.062c-.12.417-.379.485-.734.489a13.885,13.885,0,0,0-3.04.373c-.418.1-.524-.058-.523-.441.009-3.171-.017-6.343.029-9.514.014-.956.644-1.46,1.643-1.468,2.048-.017,4.1,0,6.144-.007,1.311,0,1.687-.314,1.961-1.584A30.547,30.547,0,0,0,846.861,50.509Zm2.092,7.977c3.334,0,6.668.01,10-.006a1.408,1.408,0,0,0,1.577-1.4,1.483,1.483,0,0,0-1.462-1.555,3.281,3.281,0,0,0-.4-.013q-9.705,0-19.411,0c-1.212,0-1.906.6-1.883,1.549.022.92.665,1.421,1.866,1.423Q844.1,58.493,848.953,58.485Zm9.506,3.117c-2.706,0-5.412,0-8.118,0-1.191,0-1.829.513-1.846,1.448-.018.966.656,1.522,1.885,1.523q8.119.007,16.236,0c1.167,0,1.831-.541,1.849-1.463.019-.967-.645-1.506-1.887-1.508Q862.518,61.6,858.459,61.6Zm7.074-3.127c.527,0,1.056.029,1.581-.007a1.321,1.321,0,0,0,1.337-1.321,1.3,1.3,0,0,0-1.089-1.535,11.134,11.134,0,0,0-3.636-.015,1.454,1.454,0,0,0,.226,2.874C864.478,58.5,865.006,58.478,865.533,58.476Z" transform="translate(-33.216 -15.334)" fill="#66dc9f"/>
    <path id="Trazado_644594" data-name="Trazado 644594" d="M788.5,211.26a1.75,1.75,0,0,0,2.411.094,10.761,10.761,0,0,1,5.888-1.7c-.378.286-.626.46-.859.652a4.558,4.558,0,0,0-1.846,3.57,5.6,5.6,0,0,1-.9,2.95c-2.513,4.294-4.987,8.61-7.484,12.932-.359-.167-.189-.467-.19-.681-.014-2.672,0-5.344-.013-8.016a10.281,10.281,0,0,1,.893-4.422,1.776,1.776,0,0,0-.478-2.368A13.378,13.378,0,0,1,788.5,211.26Z" transform="translate(-4.479 -111.257)" fill="#8d5cb5"/>
    <path id="Trazado_644595" data-name="Trazado 644595" d="M933.326,174.686a1.549,1.549,0,0,0,1.824-1.506c.112-.978.534-1.424,1.6-1.288a23.3,23.3,0,0,0,2.848.024,21.22,21.22,0,0,0-.758,2.587,8.468,8.468,0,0,0,1.585,6.446c.321.441.37.655-.129.969a12.321,12.321,0,0,0-2.337,2.142,12.166,12.166,0,0,1-2.36-4.007c-.452-1.213-.765-1.4-2.07-1.315Z" transform="translate(-93.589 -88.482)" fill="#f8f3cd"/>
    <path id="Trazado_644596" data-name="Trazado 644596" d="M828.543,105.143c-2.686.158-2.686.159-4.043-2.15-.518-.881-1.013-1.775-1.552-2.643a1.508,1.508,0,0,0-2.807-.005c-.842,1.378-1.668,2.767-2.448,4.181a1.134,1.134,0,0,1-1.164.667c-2.738-.028-5.477-.022-8.216-.01a4.5,4.5,0,0,0-4.807,3.563c-.134.427-.308.577-.75.554a5.79,5.79,0,0,0-2.058.185,17.626,17.626,0,0,1,14.285-19.419,9.626,9.626,0,0,1,2.652-.21,5.089,5.089,0,0,0,.559.388,19.32,19.32,0,0,1,6.747,5.661A17.238,17.238,0,0,1,828.543,105.143Z" transform="translate(-13.586 -39.034)" fill="#ec8250"/>
    <path id="Trazado_644597" data-name="Trazado 644597" d="M834.278,147.2l-.97-.292a6.475,6.475,0,0,0,.8-2.77,1.5,1.5,0,0,0-1.309-1.676,1.451,1.451,0,0,0-1.638,1.463,3.27,3.27,0,0,1-1.332,2.43,2.1,2.1,0,0,1-1.458.484c-.889-.041-1.783-.011-2.674-.011a2.938,2.938,0,0,1-3.125-2.743,2.713,2.713,0,0,0-.178-.764,1.458,1.458,0,0,0-2.783.458,5.131,5.131,0,0,0,.582,2.672c.1.213.343.462-.138.577a3.278,3.278,0,0,0-1.466.789c-.382.353-.714.759-1.089,1.164a11.43,11.43,0,0,1-2.423-6.972c-.039-3.532-.016-7.066-.011-10.6,0-1.441.524-1.975,1.971-1.981,3.1-.012,6.208-.031,9.311.012a2.054,2.054,0,0,0,2.071-1.187c.538-1.018,1.157-1.994,1.831-3.14.556.936,1.136,1.751,1.549,2.643a2.484,2.484,0,0,0,2.879,1.676,3.681,3.681,0,0,1,.786.043c0,3.165-.041,6.332.024,9.5A20.637,20.637,0,0,1,834.278,147.2Zm-7.211-4.686a1.433,1.433,0,0,0,1.545-.826,1.337,1.337,0,0,0-.262-1.638c-.35-.327-.367-.473,0-.8a1.322,1.322,0,0,0,.253-1.636,1.427,1.427,0,0,0-1.349-.844,2.948,2.948,0,0,0-2.863,2.842A2.9,2.9,0,0,0,827.067,142.514Zm7.034-6.223c0-.429.018-.86,0-1.288a1.383,1.383,0,0,0-1.357-1.431,1.337,1.337,0,0,0-1.549,1.215,12.347,12.347,0,0,0,0,2.863,1.331,1.331,0,0,0,1.53,1.232,1.375,1.375,0,0,0,1.378-1.4C834.126,137.086,834.1,136.688,834.1,136.291Zm-14.5-.059c0,.4-.019.794,0,1.189a1.438,1.438,0,0,0,1.421,1.47,1.365,1.365,0,0,0,1.5-1.279,13.094,13.094,0,0,0,0-2.767,1.385,1.385,0,0,0-1.5-1.284,1.458,1.458,0,0,0-1.417,1.483C819.578,135.438,819.6,135.836,819.6,136.232Z" transform="translate(-22.301 -60.301)" fill="#f4ccbe"/>
    <path id="Trazado_644598" data-name="Trazado 644598" d="M834.361,187.269c1.75,0,3.5-.01,5.251,0,1.141.008,1.568.423,1.576,1.542.014,2.048-.018,4.1.017,6.143.011.624-.219.756-.8.789a3.471,3.471,0,0,0-3.156,4.778,1.9,1.9,0,0,1-.021,1.5c-.441,1.078.143,2.129.166,3.165.022,1.021-.69,2.113-.158,3.151.449.875-.1,1.52-.229,2.259-.061.353-.423.243-.668.246-1.156.011-2.311.006-3.467.005a1.547,1.547,0,0,1-1.465-2.068,3.834,3.834,0,0,0-.019-3.162,1.057,1.057,0,0,1,.062-.939,3.572,3.572,0,0,0,0-2.885,1.252,1.252,0,0,1-.022-1.031c.943-2.614-.406-4.768-3.139-5.006-.542-.048-.751-.215-.745-.77.022-2.113-.007-4.228.017-6.341a1.294,1.294,0,0,1,1.45-1.386c1.783-.02,3.567-.006,5.35-.006Z" transform="translate(-29.83 -97.753)" fill="#655e66"/>
    <path id="Trazado_644599" data-name="Trazado 644599" d="M959.17,53.234a15.511,15.511,0,0,0-2.775-2.506A8.68,8.68,0,0,0,944.41,38.286a8.6,8.6,0,0,0-1.719,11.7c.448.642.419.9-.226,1.31a9.4,9.4,0,0,0-2.065,1.955c-4.384-4.579-4.095-12.505.57-17.067a12.5,12.5,0,0,1,17.708.081A12.362,12.362,0,0,1,959.17,53.234Z" transform="translate(-95.974 -4.51)" fill="#d7e7f8"/>
    <path id="Trazado_644600" data-name="Trazado 644600" d="M816.055,261.614c1.25-2.162,2.451-4.232,3.643-6.306.205-.357.531-.345.861-.334a4.19,4.19,0,0,0,2.819-.7,1.3,1.3,0,0,1,.86-.137q2.474-.007,4.948,0c1.107,0,2.233-.156,3.224.588a1.771,1.771,0,0,0,1.344.227c1.042-.18,1.52.362,1.97,1.2.974,1.818,2.045,3.584,3.128,5.461Z" transform="translate(-22.905 -138.062)" fill="#8d5cb5"/>
    <path id="Trazado_644601" data-name="Trazado 644601" d="M854.4,105.167a17.238,17.238,0,0,0-3.6-9.238,19.32,19.32,0,0,0-6.747-5.661,5.091,5.091,0,0,1-.559-.388A16.814,16.814,0,0,1,858.15,97.04a17.707,17.707,0,0,1,3.323,12.41c-.082.007-.115.011-.148.012-1.612.058-2.766-.308-3.37-2.142C857.474,105.857,855.885,105.4,854.4,105.167Z" transform="translate(-39.44 -39.057)" fill="#e97041"/>
    <path id="Trazado_644602" data-name="Trazado 644602" d="M875.414,209.742a11.281,11.281,0,0,1,11.253,10.182c.231,3.266.042,6.562.042,10.112-.526-.885-.93-1.546-1.317-2.216q-3.39-5.867-6.773-11.737a2.082,2.082,0,0,1-.417-1.188A5.259,5.259,0,0,0,875.414,209.742Z" transform="translate(-58.683 -111.31)" fill="#8d5cb5"/>
    <path id="Trazado_644603" data-name="Trazado 644603" d="M960.072,61.133a5.7,5.7,0,1,1,5.732-5.721A5.752,5.752,0,0,1,960.072,61.133Zm-.562-6.358c-.009-1.043-.577-1.725-1.452-1.744-.911-.019-1.521.695-1.522,1.783,0,1.109.578,1.791,1.512,1.78S959.521,55.908,959.511,54.775Zm1.175.072c.006,1.1.6,1.778,1.535,1.746.886-.031,1.433-.7,1.439-1.754.005-1.093-.588-1.81-1.5-1.809S960.679,53.742,960.685,54.847Z" transform="translate(-106.286 -14.87)" fill="#f4ccbe"/>
    <path id="Trazado_644604" data-name="Trazado 644604" d="M884.366,252.94c-2.6,0-5.01-.012-7.415.011a.845.845,0,0,1-.833-.528c-1.074-1.888-2.168-3.765-3.248-5.649-.145-.253-.479-.532.094-.73,2.7-.935,3.731-2.937,3.583-5.677a1.122,1.122,0,0,1,.157-.7Z" transform="translate(-57.011 -129.348)" fill="#b183d8"/>
    <path id="Trazado_644605" data-name="Trazado 644605" d="M787.334,252.909,795,239.632l.17.032c0,.507-.005,1.015,0,1.522a4.911,4.911,0,0,0,3.251,4.735c.7.253.638.472.329.989-1.062,1.783-2.091,3.586-3.121,5.389-.2.353-.367.63-.873.624C792.349,252.892,789.94,252.909,787.334,252.909Z" transform="translate(-5.594 -129.326)" fill="#b183d8"/>
    <path id="Trazado_644606" data-name="Trazado 644606" d="M818.253,216.066c.627,0,1.255-.006,1.882,0,.34,0,.681.046.762.468.069.36-.175.508-.445.679-1.369.866-1.359,1.9.03,2.805.676.438.566.772-.048,1.157-1.326.83-1.327,1.932-.024,2.764.694.443.7.757,0,1.2-1.306.833-1.306,1.926.017,2.761.265.167.527.3.47.666-.067.424-.4.489-.746.489-1.255,0-2.512.035-3.763-.031a1.874,1.874,0,0,1-1.846-1.945q-.045-4.508,0-9.016a1.921,1.921,0,0,1,1.925-1.978c.592-.037,1.189-.006,1.783-.006Z" transform="translate(-21.983 -115.12)" fill="#f4ccbe"/>
    <path id="Trazado_644607" data-name="Trazado 644607" d="M865.242,222.612c0,1.387.011,2.774,0,4.161a2.028,2.028,0,0,1-2.255,2.274c-1.056.024-2.113.01-3.17,0-.356,0-.771.043-.918-.4-.154-.465.217-.611.534-.808a1.443,1.443,0,0,0,.014-2.667c-.812-.514-.81-.774.007-1.294a1.448,1.448,0,0,0-.026-2.671c-.771-.489-.781-.778-.042-1.247,1.257-.8,1.27-1.939.023-2.715-.285-.177-.619-.305-.528-.727.1-.476.5-.463.864-.465,1.156-.005,2.313-.027,3.467.013a1.95,1.95,0,0,1,2.025,2.086C865.26,219.639,865.241,221.126,865.242,222.612Z" transform="translate(-48.692 -115.109)" fill="#f4ccbe"/>
    <path id="Trazado_644608" data-name="Trazado 644608" d="M863.449,153.737a20.637,20.637,0,0,0,1.206-8.227c-.065-3.164-.021-6.331-.024-9.5a3.844,3.844,0,0,1,.391-.048c2.448-.059,2.789.277,2.789,2.745,0,3.265.02,6.53-.01,9.795a11.649,11.649,0,0,1-2.439,7.044A6.457,6.457,0,0,0,863.449,153.737Z" transform="translate(-51.471 -66.838)" fill="#f0b1a0"/>
    <path id="Trazado_644609" data-name="Trazado 644609" d="M950.375,85.916c.434-.35.882-.688,1.3-1.055.992-.865,1.874-1.447,3.385-.762a7.182,7.182,0,0,0,5.964-.234,1.3,1.3,0,0,1,1.442.094c.872.607,2.217,1.251,2.187,2.106-.028.784-1.529,1.144-2.475,1.5a12.328,12.328,0,0,1-10.769-.829c-.23-.128-.452-.273-.669-.422A3.628,3.628,0,0,1,950.375,85.916Z" transform="translate(-103.865 -35.337)" fill="#f7f9fa"/>
    <path id="Trazado_644610" data-name="Trazado 644610" d="M801.266,150.09c0,1.057-.024,2.115.01,3.17.017.523-.16.66-.676.674a3.107,3.107,0,0,1-3.5-3.358c0-.429-.008-.859,0-1.288a3.143,3.143,0,0,1,3.754-3.084c.463.071.405.329.406.616C801.268,147.91,801.266,149,801.266,150.09Z" transform="translate(-11.48 -72.987)" fill="#e79783"/>
    <path id="Trazado_644611" data-name="Trazado 644611" d="M881.9,150.148c0-1.09.022-2.181-.01-3.27-.014-.485.159-.594.621-.611a3.089,3.089,0,0,1,3.552,3.383c0,.5.022.993-.01,1.486a3.183,3.183,0,0,1-3.792,2.854c-.467-.1-.354-.4-.357-.671C881.89,152.262,881.9,151.2,881.9,150.148Z" transform="translate(-62.584 -73.048)" fill="#e79783"/>
    <path id="Trazado_644612" data-name="Trazado 644612" d="M805.993,179.032c-1.432,0-2.679.038-3.923-.012a1.374,1.374,0,0,1-1.465-1.513c-.029-1.383.009-2.767-.018-4.151-.009-.5.17-.518.629-.554,1.763-.138,2.7.491,2.943,2.358A10.663,10.663,0,0,0,805.993,179.032Z" transform="translate(-13.582 -89.034)" fill="#ec8250"/>
    <path id="Trazado_644613" data-name="Trazado 644613" d="M875.233,179.174a15.394,15.394,0,0,0,2.359-5.592.551.551,0,0,1,.68-.511,7.965,7.965,0,0,0,1.184-.021c1.2-.108,1.2-.115,1.2,1.137,0,1.087.01,2.174,0,3.261-.013,1.152-.468,1.677-1.574,1.717C877.871,179.208,876.658,179.174,875.233,179.174Z" transform="translate(-58.574 -89.167)" fill="#e97041"/>
    <path id="Trazado_644614" data-name="Trazado 644614" d="M914.523,142.33c2.216,1.852,4.241,3.538,6.259,5.233,1.885,1.582,2.693,1.584,4.57.01q3.03-2.54,6.059-5.063c.333.234.2.523.2.762.011,2.345,0,4.69.014,7.035,0,.532-.043.849-.724.845-5.218-.025-10.436-.017-15.654-.009-.456,0-.741-.054-.736-.629C914.536,147.88,914.523,145.246,914.523,142.33Z" transform="translate(-82.249 -70.679)" fill="#f4db83"/>
    <path id="Trazado_644615" data-name="Trazado 644615" d="M968.257,150.423c5.785-.327,11.476,4.289,12.492,10.136a12.491,12.491,0,0,1-2.844,10.562,14.177,14.177,0,0,0-2.516-2.279c-.362-.237-.242-.4-.05-.689,2.891-4.37,2.288-8.634-1.711-12.238.271-.239.03-.4-.088-.58A15.824,15.824,0,0,0,968.257,150.423Z" transform="translate(-114.643 -75.547)" fill="#f9ecb2"/>
    <path id="Trazado_644616" data-name="Trazado 644616" d="M959.694,178.982a5.631,5.631,0,0,1-4.448-8.582c.862-1.381,2.726-1.449,3.779-2.639.1-.117.441-.027.671-.032.794,1,1.87,1.833,2.018,3.24a1.863,1.863,0,0,0-1.015,2.224,1.5,1.5,0,0,0,1.376,1.334,2.926,2.926,0,0,1-.2,1.246A9.17,9.17,0,0,1,959.694,178.982Zm-.186-6.264c0-1.094-.605-1.807-1.512-1.786s-1.478.746-1.463,1.847c.014,1.045.582,1.706,1.475,1.716C958.948,174.505,959.51,173.84,959.508,172.717Z" transform="translate(-106.283 -85.97)" fill="#f4ccbe"/>
    <path id="Trazado_644617" data-name="Trazado 644617" d="M957.961,206.264a12.591,12.591,0,0,1-6.515-1.844c-.564-.332-.594-.591-.116-1,.327-.277.609-.607.939-.88a2.557,2.557,0,0,1,3.054-.611,7.274,7.274,0,0,0,5.972-.16,1.528,1.528,0,0,1,1.7.145c.805.582,2.093,1.214,2.037,1.989-.058.8-1.471,1.113-2.372,1.488A11.6,11.6,0,0,1,957.961,206.264Z" transform="translate(-104.238 -106.392)" fill="#f7f9fa"/>
    <path id="Trazado_644618" data-name="Trazado 644618" d="M967.746,178.99a9.171,9.171,0,0,0,2.184-3.209,2.927,2.927,0,0,0,.2-1.246,1.667,1.667,0,0,0,1.578-2.13c-.1-1.018-.719-1.473-1.939-1.428-.148-1.407-1.224-2.235-2.018-3.24a5.617,5.617,0,0,1,6.1,5.561A5.681,5.681,0,0,1,967.746,178.99Z" transform="translate(-114.335 -85.978)" fill="#f0b1a0"/>
    <path id="Trazado_644619" data-name="Trazado 644619" d="M921.421,138.275h11.393c-.008.406-.373.51-.6.7-1.481,1.259-2.987,2.491-4.464,3.755-.356.3-.6.374-.991.034C925.063,141.306,923.336,139.881,921.421,138.275Z" transform="translate(-86.413 -68.234)" fill="#f4db83"/>
    <path id="Trazado_644620" data-name="Trazado 644620" d="M966.267,150.367a15.824,15.824,0,0,1,5.283,4.912c.118.183.359.341.088.58a8.858,8.858,0,0,0-6.038-1.6c-.484.054-.638-.088-.615-.569a12.891,12.891,0,0,0-.008-2.163C964.845,150.455,965.323,150.183,966.267,150.367Z" transform="translate(-112.653 -75.491)" fill="#f8f3cd"/>
    <path id="Trazado_644621" data-name="Trazado 644621" d="M855.354,66.071q-4.853,0-9.706,0c-1.2,0-1.844-.5-1.866-1.423-.023-.951.671-1.548,1.883-1.549q9.705-.013,19.411,0a3.281,3.281,0,0,1,.4.013,1.483,1.483,0,0,1,1.462,1.555,1.408,1.408,0,0,1-1.577,1.4C862.023,66.08,858.689,66.07,855.354,66.071Z" transform="translate(-39.617 -22.919)" fill="#050403"/>
    <path id="Trazado_644622" data-name="Trazado 644622" d="M881.723,78.433q4.059,0,8.118,0c1.243,0,1.906.541,1.887,1.508-.018.922-.682,1.462-1.849,1.463q-8.118.008-16.236,0c-1.23,0-1.9-.557-1.885-1.523.017-.935.656-1.446,1.846-1.448C876.311,78.429,879.017,78.433,881.723,78.433Z" transform="translate(-56.48 -32.165)" fill="#030202"/>
    <path id="Trazado_644623" data-name="Trazado 644623" d="M910.151,65.985c-.527,0-1.055.023-1.581,0a1.453,1.453,0,0,1-.226-2.874,11.133,11.133,0,0,1,3.636.015,1.3,1.3,0,0,1,1.089,1.535,1.321,1.321,0,0,1-1.337,1.321C911.207,66.013,910.678,65.984,910.151,65.985Z" transform="translate(-77.834 -22.842)" fill="#050403"/>
    <path id="Trazado_644624" data-name="Trazado 644624" d="M841.241,160.192a2.9,2.9,0,0,1-2.674-2.906,2.948,2.948,0,0,1,2.863-2.842,1.427,1.427,0,0,1,1.349.844,1.322,1.322,0,0,1-.253,1.636c-.371.332-.354.478,0,.8a1.337,1.337,0,0,1,.262,1.638A1.433,1.433,0,0,1,841.241,160.192Z" transform="translate(-36.474 -77.979)" fill="#050403"/>
    <path id="Trazado_644625" data-name="Trazado 644625" d="M858.46,149.114c0,.4.025.795-.005,1.189a1.375,1.375,0,0,1-1.378,1.4,1.331,1.331,0,0,1-1.53-1.232,12.347,12.347,0,0,1,0-2.863,1.337,1.337,0,0,1,1.549-1.215,1.383,1.383,0,0,1,1.357,1.431C858.478,148.255,858.46,148.685,858.46,149.114Z" transform="translate(-46.659 -73.124)" fill="#050403"/>
    <path id="Trazado_644626" data-name="Trazado 644626" d="M826.482,149.049c0-.4-.019-.794,0-1.189a1.458,1.458,0,0,1,1.417-1.483,1.385,1.385,0,0,1,1.5,1.284,13.1,13.1,0,0,1,0,2.767,1.365,1.365,0,0,1-1.5,1.279,1.438,1.438,0,0,1-1.421-1.47C826.463,149.842,826.482,149.445,826.482,149.049Z" transform="translate(-29.185 -73.118)" fill="#050403"/>
    <path id="Trazado_644627" data-name="Trazado 644627" d="M962.764,59.77c.01,1.133-.532,1.808-1.462,1.819s-1.514-.671-1.512-1.78c0-1.088.611-1.8,1.522-1.783C962.187,58.045,962.755,58.727,962.764,59.77Z" transform="translate(-109.54 -19.866)" fill="#050403"/>
    <path id="Trazado_644628" data-name="Trazado 644628" d="M970.233,59.841c-.007-1.1.572-1.816,1.477-1.817s1.5.716,1.5,1.809c-.006,1.057-.553,1.724-1.439,1.754C970.836,61.619,970.239,60.94,970.233,59.841Z" transform="translate(-115.834 -19.864)" fill="#050403"/>
    <path id="Trazado_644629" data-name="Trazado 644629" d="M962.763,177.618c0,1.122-.56,1.788-1.5,1.777-.893-.01-1.461-.671-1.475-1.716-.015-1.1.56-1.825,1.463-1.847S962.761,176.524,962.763,177.618Z" transform="translate(-109.539 -90.871)" fill="#050403"/>
    <path id="Trazado_644630" data-name="Trazado 644630" d="M971.232,175.921c1.22-.045,1.837.41,1.939,1.428a1.667,1.667,0,0,1-1.578,2.13,1.5,1.5,0,0,1-1.376-1.334A1.863,1.863,0,0,1,971.232,175.921Z" transform="translate(-115.802 -90.923)" fill="#050403"/>
  </g>
</svg>
