<svg xmlns="http://www.w3.org/2000/svg" width="67.043" height="67" viewBox="0 0 67.043 67">
  <g id="Grupo_988695" data-name="Grupo 988695" transform="translate(-1155.271 69.988)">
    <path id="Trazado_646512" data-name="Trazado 646512" d="M1165.976-52.3a6.507,6.507,0,0,1-.083-9.367,6.49,6.49,0,0,1,8.871-.175,6.538,6.538,0,0,1,.125,9.544,6.756,6.756,0,0,1,3.333,2.89,16.121,16.121,0,0,1,1.833-2.06c.155-.146.095-.34.088-.511a6.572,6.572,0,0,1,4.065-6.747c.035-.016.053-.069.079-.1a6.508,6.508,0,0,1,.07-9.406,6.487,6.487,0,0,1,8.871,0,6.5,6.5,0,0,1,.073,9.405c.062.182.246.181.38.249a6.335,6.335,0,0,1,3.74,5.929,2.2,2.2,0,0,0,.766,1.868,11.988,11.988,0,0,1,1.189,1.345,6.787,6.787,0,0,1,3.356-2.863,6.484,6.484,0,0,1-2.037-4.48,6.469,6.469,0,0,1,6.968-6.7.9.9,0,0,0,.861-.331,5.357,5.357,0,0,1,6.2-1.414,5.466,5.466,0,0,1,3.237,5.43,5.39,5.39,0,0,1-4.151,4.753.855.855,0,0,0-.706.585,6.274,6.274,0,0,1-1.437,2.095c.1.231.33.234.5.324a6.434,6.434,0,0,1,3.646,5.8,1.359,1.359,0,0,0,.237.94,8.863,8.863,0,0,1-.707,11.792,4.754,4.754,0,0,0-1.176,1.754,4.98,4.98,0,0,1-1.754,2.349c-.57.418-.187.815-.156,1.241.032.449.317.521.673.587.884.162,1.764.343,2.643.53a8.472,8.472,0,0,1,6.718,8.21c.028,5.064,0,10.129.021,15.194,0,.518-.116.661-.651.66Q1207.579-3.015,1193.5-3q-18.744,0-37.488.014c-.571,0-.74-.1-.736-.715.031-4.907.016-9.814.018-14.721a8.537,8.537,0,0,1,7.306-8.755c.729-.135,1.451-.317,2.185-.414.5-.065.536-.419.6-.759s.315-.663-.141-1.009a5.9,5.9,0,0,1-2.06-3.014,1.471,1.471,0,0,0-.45-.649,9.489,9.489,0,0,1-3.119-7.4c.022-1.508,0-3.016,0-4.524a3.24,3.24,0,0,1,2.166-3.244c.184-.075.352-.107.447-.344A6.608,6.608,0,0,1,1165.976-52.3Zm33.626,16.42c0-2.025-.005-4.05,0-6.075a10.524,10.524,0,0,0-.209-2.008,10.871,10.871,0,0,0-12.09-8.649,10.889,10.889,0,0,0-9.3,10.268c-.061,4.387-.015,8.775-.016,13.162,0,.068,0,.135,0,.2-.016.283.11.365.369.268a25.034,25.034,0,0,1,4.348-.9,2.172,2.172,0,0,0,1.378-.9c.315-.423.351-.722-.178-1.085a8.2,8.2,0,0,1-3.644-5.821,47.435,47.435,0,0,1-.108-5.526c-.023-.954-.005-.961.93-1.125a10.686,10.686,0,0,0,5.039-1.932,3.4,3.4,0,0,0,1.625-3.288c-.157-1.252-.032-1.274,1.23-1.265,1.03.006,1.023-.11.872.885-.325,2.14.882,3.286,2.476,4.253.23.139.472.26.713.381a12.912,12.912,0,0,0,3.7.991c.522.09.749.256.728.856-.055,1.573,0,3.15-.023,4.724a8.311,8.311,0,0,1-3.482,6.826c-.81.61-.825.925-.023,1.581a2.2,2.2,0,0,0,1.034.458,23.211,23.211,0,0,1,4.088.826c.5.187.556,0,.554-.43C1199.6-31.421,1199.6-33.648,1199.6-35.876Zm-9.7,25.887h-.027c0,1.44.018,2.88-.011,4.32-.009.43.125.521.53.516,1.8-.022,3.6-.029,5.4,0,.5.009.62-.159.568-.609a6.072,6.072,0,0,1,.66-3.45c.239-.481.4-1,.6-1.5a11.166,11.166,0,0,0,.34-7.843c-.442-1.425-.428-1.4,1.026-1.909.468-.163.6-.046.752.382a14.419,14.419,0,0,1,.913,5.819c-.025.358.073.465.432.459q1.755-.03,3.51,0c.333.005.422-.11.41-.425-.062-1.571.083-3.145-.12-4.717a9.709,9.709,0,0,0-7.715-8.1.666.666,0,0,0-.836.41c-1.41,2.659-2.85,5.3-4.277,7.952a18.763,18.763,0,0,0-2.082,4.059A19.848,19.848,0,0,0,1189.9-9.989Zm-2.189.024c0-1.372-.007-2.745,0-4.118a1.9,1.9,0,0,0-.23-.961q-3.129-5.777-6.225-11.571a.679.679,0,0,0-.893-.421,9.6,9.6,0,0,0-7.24,6.307c-.8,2.15-.486,4.4-.551,6.616-.011.378.239.3.452.305,1.148,0,2.3-.016,3.443.01.407.009.477-.132.454-.5a12.982,12.982,0,0,1,.626-4.853c.487-1.5.475-1.489,1.977-.995.417.138.569.273.384.751a11.622,11.622,0,0,0,.333,9.422,7.552,7.552,0,0,1,.981,4.4c-.062.393.157.425.473.423,1.845-.011,3.691-.016,5.536,0,.387,0,.489-.114.484-.491C1187.7-7.085,1187.714-8.525,1187.714-9.965Zm32.425-2.424h0c0-2.16.056-4.321-.015-6.479a6.19,6.19,0,0,0-3.6-5.6c-.4-.207-.624-.217-.879.264-2.007,3.787-4.05,7.556-6.091,11.325a1.782,1.782,0,0,0-.227.893c.01,2.092.018,4.185-.006,6.277,0,.441.113.559.554.553,1.777-.026,3.556-.032,5.333,0,.509.01.625-.123.622-.625-.025-3.24-.013-6.479-.013-9.719,0-1.564,0-1.539,1.553-1.57.508-.01.626.123.622.625-.025,3.217-.013,6.434-.013,9.651,0,1.645,0,1.626,1.621,1.636.445,0,.555-.12.55-.556C1220.127-7.935,1220.139-10.162,1220.139-12.389Zm-62.689-.021v5.74c0,1.518,0,1.494,1.547,1.521.511.009.63-.131.626-.632-.024-3.264-.012-6.528-.012-9.792,0-1.482,0-1.457,1.511-1.489.528-.011.668.129.664.661-.025,3.534,0,7.068-.023,10.6,0,.468.061.663.606.651,1.778-.041,3.558-.029,5.336-.005.436.006.568-.106.563-.554-.024-2.116-.014-4.232-.006-6.348a1.542,1.542,0,0,0-.2-.767q-3.076-5.695-6.132-11.4c-.233-.438-.447-.452-.836-.253a6.2,6.2,0,0,0-3.631,5.651C1157.4-16.689,1157.451-14.549,1157.45-12.411Zm37.829-27.436c0-.608-.016-1.216.006-1.823.012-.334-.094-.456-.437-.518a10.368,10.368,0,0,1-5.745-3.033c-.2-.211-.338-.3-.588-.038a10.354,10.354,0,0,1-5.861,3.087c-.241.043-.358.129-.348.386a31.311,31.311,0,0,0,.133,4.379,6.534,6.534,0,0,0,6.078,5.222,6.305,6.305,0,0,0,6.564-4.708A11.958,11.958,0,0,0,1195.28-39.847Zm-19.521,2.289c.149-2.009-.079-4.015.2-6.008a.816.816,0,0,0-.28-.657,5.19,5.19,0,0,0-3.978-1.986c-2.9-.042-5.805-.019-8.708-.011a1.078,1.078,0,0,0-1.213,1.207c-.01,1.8-.032,3.6.016,5.4a6.163,6.163,0,0,0,1,3.229,1.938,1.938,0,0,0,.06-.252,3.246,3.246,0,0,1,3.132-3.4c.756-.109,1.514-.211,2.263-.355a2.447,2.447,0,0,0,2.064-1.969c.117-.526.321-.724.835-.628a1.867,1.867,0,0,0,.337,0c1.173,0,1.176,0,.955,1.142-.041.215-.155.4.164.542A5.6,5.6,0,0,1,1175.758-37.557Zm26.073-.006a5.63,5.63,0,0,1,3.111-3.717.342.342,0,0,0,.244-.449c-.205-1.25-.189-1.253,1.075-1.253a2.879,2.879,0,0,0,.4,0c.36-.052.479.09.555.454a2.6,2.6,0,0,0,2.272,2.181c.775.131,1.556.234,2.335.337a3.225,3.225,0,0,1,2.818,2.53,10.584,10.584,0,0,1,.142,1.062,6.317,6.317,0,0,0-3.975-9.665,16.756,16.756,0,0,0-4.576-.087A5.882,5.882,0,0,0,1202-43.8a.913.913,0,0,0-.308.651C1201.86-41.292,1201.7-39.427,1201.831-37.563Zm-28.173,2.291c0-.427.032-.856-.006-1.28a3.2,3.2,0,0,0-2.06-2.833.66.66,0,0,0-.789.115,4.531,4.531,0,0,1-2.365,1.048c-.8.111-1.6.243-2.4.36a1.061,1.061,0,0,0-1.019,1.126c-.015.9-.036,1.8.011,2.7a4.333,4.333,0,0,0,3.946,4.013,4.352,4.352,0,0,0,4.561-3.3A8.807,8.807,0,0,0,1173.658-35.273Zm38.915.016c0-.514.007-.941,0-1.368a1.1,1.1,0,0,0-1.048-1.237c-.31-.053-.622-.093-.933-.136-1.4-.194-2.826-.328-3.932-1.368-.207-.194-.407-.111-.622-.035a3.223,3.223,0,0,0-2.1,2.871c-.027.785-.025,1.573,0,2.359a4.341,4.341,0,0,0,3.891,4.139,4.348,4.348,0,0,0,4.638-3.368A9.848,9.848,0,0,0,1212.573-35.257ZM1194.355-27.5a4.313,4.313,0,0,1-3.028-2.525c-.119-.284-.285-.256-.532-.2a6.86,6.86,0,0,1-3.143.093c-.861-.21-1.45-.171-1.782.8a2.7,2.7,0,0,1-1.105,1.155,6.383,6.383,0,0,1-1.518.692c.664,1.242,1.3,2.424,1.929,3.615a.56.56,0,0,0,.578.34c2.024-.013,4.048-.006,6.073-.008.194,0,.385.038.513-.207C1192.994-24.987,1193.668-26.223,1194.355-27.5Zm-5.487-36.017c-1.3,0-2.605.021-3.907-.012-.447-.011-.521.137-.47.535a4.37,4.37,0,0,0,4.3,3.8,4.365,4.365,0,0,0,4.306-3.785c.05-.374.018-.562-.455-.548C1191.383-63.489,1190.125-63.513,1188.868-63.513Zm-18.428,6.483c-1.28,0-2.56.018-3.84-.01-.421-.009-.539.1-.486.521a4.375,4.375,0,0,0,4.354,3.81,4.379,4.379,0,0,0,4.261-3.84c.043-.388-.058-.5-.45-.49C1173-57.015,1171.719-57.03,1170.439-57.03Zm36.767,0c-1.3,0-2.6.016-3.907-.009-.411-.008-.479.133-.437.5a4.373,4.373,0,0,0,4.27,3.828,4.38,4.38,0,0,0,4.346-3.821c.054-.447-.1-.516-.5-.508C1209.721-57.015,1208.463-57.03,1207.206-57.03Zm-4.36,48.652c0-.944-.008-1.888,0-2.832,0-.286-.02-.461-.386-.444-.628.029-1.259.018-1.888,0-.27-.006-.371.093-.462.354-.37,1.057-.726,2.125-1.2,3.139a6,6,0,0,0-.4,2.626c0,.3.1.378.388.375,1.169-.014,2.339-.021,3.507,0,.367.008.451-.115.443-.459C1202.831-6.534,1202.846-7.456,1202.846-8.377Zm-26.109,3.214c.724,0,1.331-.01,1.938,0,.271.007.407-.044.4-.362a5.372,5.372,0,0,0-.383-2.561,16.433,16.433,0,0,1-.728-1.807c-.226-.578-.291-1.405-.712-1.67-.47-.3-1.265-.04-1.911-.1-.542-.051-.619.167-.606.64.032,1.258.006,2.517.013,3.776,0,.67-.231,1.573.109,1.948C1175.248-4.861,1176.166-5.224,1176.736-5.163Zm36.924-52.131a3.131,3.131,0,0,0,2.155-3,3.285,3.285,0,0,0-2.168-3.041,2.935,2.935,0,0,0-3.182.721A6.623,6.623,0,0,1,1213.66-57.294Zm-6.491,48.447c0-1.1,0-2.2,0-3.306,0-.21.006-.468-.167-.552-.2-.1-.262.189-.373.311a1.941,1.941,0,0,1-1.2.691c-.407.046-.431.238-.427.567.015,1.439.006,2.879.006,4.318,0,1.716,0,1.7,1.725,1.664.359-.008.451-.11.444-.456C1207.156-6.687,1207.169-7.767,1207.169-8.847Zm-36.748-.092v2.161c0,1.648,0,1.633,1.642,1.625.409,0,.535-.1.529-.521-.025-1.778-.028-3.556,0-5.334.008-.461-.092-.683-.579-.738a1.833,1.833,0,0,1-1.026-.61c-.126-.122-.165-.447-.418-.316-.186.1-.15.355-.15.559Q1170.423-10.525,1170.421-8.938Zm40.472-50.273a4.306,4.306,0,0,0-3.985-2.122,4.207,4.207,0,0,0-3.439,2.122ZM1185.1-65.717h7.385a4.26,4.26,0,0,0-3.694-2.105A4.248,4.248,0,0,0,1185.1-65.717Zm-11.078,6.526a4.09,4.09,0,0,0-4.01-2.145c-1.433.148-2.9,1.14-3.138,2.145h7.148ZM1188.8-17.17l2.235-4.159h-4.477Zm-12.971-15.672c-.138.107-.192.127-.2.16a7.019,7.019,0,0,1-2.318,3.469c-.333.268.081,1.493.518,1.592.48.11.967.2,1.451.287.354.067.556-.038.554-.445C1175.82-29.436,1175.825-31.093,1175.825-32.842Zm26.087.06-.148.03V-29c0,1.75,0,1.75,1.73,1.424.238-.045.512-.02.667-.255a1.369,1.369,0,0,0-.227-1.689,6.229,6.229,0,0,1-1.492-1.974C1202.246-31.915,1202.088-32.353,1201.912-32.782Zm5.322-17.765c-.606,0-1.213.015-1.818-.006-.315-.011-.449.052-.385.406a2.235,2.235,0,0,0,2.106,1.761,2.22,2.22,0,0,0,2.167-1.765c.047-.273.013-.415-.319-.4C1208.4-50.53,1207.818-50.547,1207.234-50.547Zm-36.788,0c-.584,0-1.168.017-1.751-.006-.347-.014-.485.062-.4.445a2.228,2.228,0,0,0,2.135,1.723,2.222,2.222,0,0,0,2.122-1.738c.063-.319,0-.444-.353-.429C1171.614-50.529,1171.03-50.547,1170.446-50.547Zm18.347-6.483c-.584,0-1.168.015-1.751-.006-.314-.011-.449.051-.386.405a2.235,2.235,0,0,0,2.105,1.762,2.22,2.22,0,0,0,2.168-1.765c.047-.272.015-.415-.318-.4C1190.006-57.014,1189.4-57.03,1188.793-57.03ZM1208.3-15.114c.38-.7.755-1.38,1.12-2.066a.437.437,0,0,0,.068-.313,6.606,6.606,0,0,0-.825-1.6c-.283-.327-.852-.065-1.29-.116-.272-.032-.324.084-.314.35A5.456,5.456,0,0,0,1208.3-15.114Zm-39.011.01a5.589,5.589,0,0,0,1.245-3.854c0-.117,0-.2-.14-.249a1.646,1.646,0,0,0-1.837.7,1.691,1.691,0,0,0,.034,2.133A10.4,10.4,0,0,1,1169.289-15.1Zm31.82-31.022c.515-.363.979-.717,1.47-1.029.359-.227.925-.308,1.086-.618.2-.376-.325-.748-.5-1.138-.142-.316.016-.906-.434-.915-.362-.006-.663.422-.933.724a4.605,4.605,0,0,0-.754,1.19A1.625,1.625,0,0,0,1201.109-46.126Zm-29.831,18.617c-.025-.36-.1-.655-.675-.493a5.517,5.517,0,0,1-2.541.021c-.195-.037-.505-.286-.589.145-.054.279-.223.534.161.808,1.693,1.209,1.744,1.228,3.406-.019C1171.175-27.148,1171.386-27.206,1171.278-27.509Zm35.315-.57c-.321.055-.316.451-.275.613.178.7.936.788,1.408,1.189.188.159.394.471.754.215q.768-.547,1.572-1.043c.323-.2.1-.436.079-.655-.011-.15-.046-.357-.266-.3A6.428,6.428,0,0,1,1206.593-28.079Zm-29.787-18.945a4.211,4.211,0,0,0-1.813-2.77c-.252-.175-.345-.071-.389.2a3,3,0,0,1-.459,1.184c-.209.313-.238.457.181.6a6.542,6.542,0,0,1,1.914,1.108c.112.09.211.29.385.193S1176.786-46.811,1176.806-47.024Zm5.585-6.191c.68-.3,1.229-.552,1.786-.783.351-.145.871-.159,1.033-.413.186-.291-.3-.628-.394-.986-.065-.237-.16-.468-.209-.708s-.141-.325-.359-.173A4.163,4.163,0,0,0,1182.391-53.215Zm12.808.033a4.185,4.185,0,0,0-1.818-3.07c-.225-.163-.349-.135-.4.166a3.637,3.637,0,0,1-.562,1.36c-.132.2-.2.337.121.428A14.848,14.848,0,0,1,1195.2-53.182Zm-25.229,31.8a8.555,8.555,0,0,0,.865-.005c.449-.048.353-.5.508-.761.134-.226-.1-.3-.256-.376-.5-.251-1-.508-1.5-.743-.332-.155-1.079.153-1.016.416a4.264,4.264,0,0,0,.5,1.372C1169.25-21.209,1169.7-21.431,1169.97-21.379Zm37.7.01c.694.222,1.1-.158,1.193-.933.031-.255.4-.526.04-.77-.327-.219-.662-.415-1.1-.125a9.442,9.442,0,0,1-1.311.665c-.245.113-.28.236-.233.516C1206.4-21.174,1207.017-21.385,1207.666-21.369Zm-40.484-3.379c-.345-.232-.6-.4-.85-.57-.333-.221-2.287-.172-2.333.1-.095.555.419.935.6,1.421a.642.642,0,0,0,.029.06c.094.181.22.168.383.084C1165.7-24.009,1166.392-24.351,1167.182-24.748ZM1213.65-25c0-.2-.056-.253-.154-.271-.922-.172-1.855-.6-2.7.246-.223.223-.362.316.012.492.566.266,1.119.562,1.683.834.109.053.272.2.357.065C1213.148-24.1,1213.413-24.593,1213.65-25Zm-2.756-23.277a12.4,12.4,0,0,1,2.468.752,3.92,3.92,0,0,0-1.372-2.078c-.421-.354-.6-.326-.7.244A6.5,6.5,0,0,1,1210.895-48.279Zm-44.243-.131a6.167,6.167,0,0,1-.442-1.285c-.036-.239-.188-.219-.338-.113a3.3,3.3,0,0,0-1.263,1.4Zm.091,28.576a2.351,2.351,0,0,0-.172-2.035c-.218-.164-.37.065-.547.125s-.233.168-.121.362C1166.189-20.885,1166.452-20.375,1166.743-19.835Zm44.088.028c.309-.572.562-1.065.839-1.544.124-.213.072-.339-.136-.408-.171-.057-.325-.291-.536-.081A2.464,2.464,0,0,0,1210.831-19.806Zm-39.3-4.963c.923.544.923.544,1.506-.185a.9.9,0,0,0,.084-.1c.084-.143.359-.267.209-.428a.544.544,0,0,0-.627-.055C1172.322-25.32,1171.966-25.06,1171.529-24.77Zm34.517,0c-.536-.3-.868-.8-1.477-.795-.129,0-.42-.074-.312.255C1204.523-24.5,1205.2-24.255,1206.046-24.773Z" transform="translate(0 0)" fill="#020201"/>
    <path id="Trazado_646513" data-name="Trazado 646513" d="M1260.745,10.678c0,2.227-.007,4.455.006,6.682,0,.435-.05.617-.554.43a23.211,23.211,0,0,0-4.088-.826,2.2,2.2,0,0,1-1.034-.458c-.8-.656-.787-.971.023-1.581A8.312,8.312,0,0,0,1258.58,8.1c.023-1.575-.032-3.151.023-4.724.021-.6-.206-.766-.728-.856a12.912,12.912,0,0,1-3.7-.991c-.241-.121-.483-.242-.713-.381-1.594-.967-2.8-2.113-2.476-4.254.151-.994.159-.878-.872-.885-1.262-.008-1.387.013-1.23,1.265a3.4,3.4,0,0,1-1.625,3.288,10.685,10.685,0,0,1-5.039,1.932c-.935.164-.953.171-.93,1.125a47.461,47.461,0,0,0,.108,5.526,8.2,8.2,0,0,0,3.644,5.821c.53.363.494.661.178,1.085a2.172,2.172,0,0,1-1.378.9,25.034,25.034,0,0,0-4.348.9c-.259.1-.385.015-.369-.268,0-.067,0-.135,0-.2,0-4.387-.045-8.776.016-13.162a10.8,10.8,0,0,1,21.393-1.619,10.534,10.534,0,0,1,.209,2.008C1260.74,6.628,1260.745,8.653,1260.745,10.678Z" transform="translate(-61.143 -46.553)" fill="#656c76"/>
    <path id="Trazado_646514" data-name="Trazado 646514" d="M1282.9,105.616a19.848,19.848,0,0,1,.079-4.635,18.768,18.768,0,0,1,2.082-4.059c1.427-2.65,2.867-5.293,4.277-7.952a.666.666,0,0,1,.836-.41,9.709,9.709,0,0,1,7.715,8.1c.2,1.572.058,3.146.12,4.717.012.315-.077.43-.41.425q-1.755-.028-3.511,0c-.359.006-.457-.1-.432-.459a14.417,14.417,0,0,0-.913-5.819c-.151-.428-.284-.545-.752-.382-1.454.507-1.468.485-1.026,1.909a11.165,11.165,0,0,1-.34,7.843c-.208.5-.365,1.018-.6,1.5a6.071,6.071,0,0,0-.66,3.45c.051.451-.07.619-.568.609-1.8-.032-3.6-.025-5.4,0-.406,0-.539-.086-.53-.516.029-1.439.011-2.88.011-4.32Z" transform="translate(-92.997 -115.605)" fill="#bbd989"/>
    <path id="Trazado_646515" data-name="Trazado 646515" d="M1234.308,105.622c0,1.44-.012,2.881.008,4.32.005.377-.1.5-.484.491-1.845-.019-3.691-.014-5.537,0-.316,0-.535-.031-.473-.423a7.554,7.554,0,0,0-.981-4.4,11.621,11.621,0,0,1-.333-9.422c.185-.478.034-.613-.384-.751-1.5-.494-1.489-.5-1.976.995a12.984,12.984,0,0,0-.626,4.853c.023.373-.047.514-.454.5-1.147-.026-2.3-.008-3.443-.01-.213,0-.463.073-.452-.305.065-2.216-.252-4.466.551-6.616a9.6,9.6,0,0,1,7.24-6.307.679.679,0,0,1,.893.421q3.084,5.8,6.225,11.571a1.9,1.9,0,0,1,.23.961C1234.3,102.877,1234.308,104.249,1234.308,105.622Z" transform="translate(-46.594 -115.587)" fill="#bbd989"/>
    <path id="Trazado_646516" data-name="Trazado 646516" d="M1365.717,109.864c0,2.227-.012,4.455.01,6.682,0,.436-.105.559-.55.556-1.621-.009-1.621.009-1.621-1.636,0-3.217-.012-6.434.013-9.651,0-.5-.113-.635-.622-.625-1.553.031-1.553.006-1.553,1.57,0,3.24-.012,6.479.013,9.719,0,.5-.113.635-.622.625-1.777-.035-3.556-.029-5.333,0-.441.006-.559-.112-.554-.553.024-2.092.016-4.185.006-6.277a1.782,1.782,0,0,1,.227-.893c2.041-3.77,4.083-7.538,6.091-11.325.255-.48.479-.47.879-.264a6.19,6.19,0,0,1,3.6,5.6c.071,2.158.015,4.319.015,6.479Z" transform="translate(-145.578 -122.254)" fill="#e5e8eb"/>
    <path id="Trazado_646517" data-name="Trazado 646517" d="M1163.27,109.84c0-2.139-.051-4.279.014-6.415a6.2,6.2,0,0,1,3.631-5.651c.389-.2.6-.185.836.253,2.028,3.809,4.082,7.6,6.133,11.4a1.544,1.544,0,0,1,.2.767c-.008,2.116-.018,4.232.006,6.348.005.448-.127.56-.563.554-1.778-.024-3.558-.035-5.336.005-.545.012-.608-.182-.606-.651.018-3.534,0-7.069.023-10.6,0-.533-.137-.672-.664-.661-1.511.032-1.511.007-1.511,1.489,0,3.264-.012,6.528.012,9.792,0,.5-.115.641-.626.632-1.547-.027-1.547,0-1.547-1.521Q1163.27,112.71,1163.27,109.84Z" transform="translate(-5.819 -122.25)" fill="#ee8773"/>
    <path id="Trazado_646518" data-name="Trazado 646518" d="M1268.072,26.322a11.958,11.958,0,0,1-.2,2.953,6.305,6.305,0,0,1-6.564,4.708,6.534,6.534,0,0,1-6.078-5.222,31.329,31.329,0,0,1-.133-4.379c-.01-.257.107-.343.348-.386a10.353,10.353,0,0,0,5.861-3.087c.25-.262.384-.173.588.038a10.367,10.367,0,0,0,5.745,3.033c.343.063.449.184.437.518C1268.055,25.106,1268.072,25.714,1268.072,26.322Zm-6.527,5.519a4.6,4.6,0,0,0,3.623-1.741c.768-.955.763-.96-.334-1.512a3.626,3.626,0,0,1-.419-.213c-.359-.245-.564-.215-.832.2a2.294,2.294,0,0,1-3.735.287c-.54-.729-.927-.67-1.528-.266a2.373,2.373,0,0,1-.541.269c-.388.135-.366.332-.178.644A4.586,4.586,0,0,0,1261.544,31.841Z" transform="translate(-72.792 -66.169)" fill="#e8cfb5"/>
    <path id="Trazado_646519" data-name="Trazado 646519" d="M1193.248,26.424a5.6,5.6,0,0,0-3.155-3.741c-.319-.141-.205-.327-.164-.542.22-1.141.218-1.142-.955-1.142a1.867,1.867,0,0,1-.337,0c-.514-.1-.718.1-.835.628a2.447,2.447,0,0,1-2.064,1.969c-.75.144-1.507.246-2.263.355a3.246,3.246,0,0,0-3.132,3.4,1.937,1.937,0,0,1-.06.252,6.163,6.163,0,0,1-1-3.229c-.048-1.8-.026-3.6-.016-5.4a1.078,1.078,0,0,1,1.213-1.207c2.9-.008,5.806-.031,8.708.011a5.19,5.19,0,0,1,3.978,1.986.816.816,0,0,1,.28.657C1193.168,22.41,1193.4,24.416,1193.248,26.424Z" transform="translate(-17.49 -63.982)" fill="#a87a4d"/>
    <path id="Trazado_646520" data-name="Trazado 646520" d="M1326.858,26.277c-.128-1.864.029-3.729-.139-5.588a.913.913,0,0,1,.308-.651,5.882,5.882,0,0,1,4.235-2.369,16.757,16.757,0,0,1,4.576.087,6.317,6.317,0,0,1,3.975,9.665,10.584,10.584,0,0,0-.142-1.062,3.225,3.225,0,0,0-2.818-2.53c-.779-.1-1.56-.206-2.335-.337a2.6,2.6,0,0,1-2.272-2.181c-.076-.364-.2-.506-.555-.454a2.877,2.877,0,0,1-.4,0c-1.263,0-1.28,0-1.075,1.253a.342.342,0,0,1-.244.449A5.631,5.631,0,0,0,1326.858,26.277Z" transform="translate(-125.026 -63.84)" fill="#a87a4d"/>
    <path id="Trazado_646521" data-name="Trazado 646521" d="M1199.872,46.936a8.806,8.806,0,0,1-.119,1.944,4.317,4.317,0,0,1-8.506-.712c-.047-.9-.025-1.8-.011-2.7a1.061,1.061,0,0,1,1.019-1.126c.8-.117,1.6-.249,2.4-.36a4.531,4.531,0,0,0,2.365-1.048.66.66,0,0,1,.789-.115,3.2,3.2,0,0,1,2.06,2.833C1199.9,46.08,1199.872,46.509,1199.872,46.936Z" transform="translate(-26.214 -82.209)" fill="#e9cfb5"/>
    <path id="Trazado_646522" data-name="Trazado 646522" d="M1343.594,46.9a9.837,9.837,0,0,1-.11,1.858,4.316,4.316,0,0,1-8.528-.772c-.025-.785-.027-1.573,0-2.359a3.223,3.223,0,0,1,2.1-2.871c.215-.076.415-.159.622.035,1.106,1.04,2.53,1.174,3.932,1.368.311.043.623.083.933.136a1.1,1.1,0,0,1,1.048,1.237C1343.6,45.96,1343.594,46.387,1343.594,46.9Z" transform="translate(-131.021 -82.158)" fill="#e9cfb5"/>
    <path id="Trazado_646523" data-name="Trazado 646523" d="M1269.705,79.514c-.686,1.273-1.361,2.509-2.017,3.756-.128.244-.319.206-.513.207-2.024,0-4.049,0-6.073.008a.56.56,0,0,1-.578-.34c-.624-1.191-1.264-2.373-1.929-3.615a6.383,6.383,0,0,0,1.518-.692,2.7,2.7,0,0,0,1.105-1.155c.333-.973.921-1.012,1.782-.8a6.86,6.86,0,0,0,3.143-.093c.247-.056.413-.083.532.2A4.313,4.313,0,0,0,1269.705,79.514Z" transform="translate(-75.351 -107.01)" fill="#e9cfb5"/>
    <path id="Trazado_646524" data-name="Trazado 646524" d="M1267.532-46.109c1.258,0,2.516.024,3.772-.013.472-.014.5.174.455.548a4.365,4.365,0,0,1-4.306,3.785,4.37,4.37,0,0,1-4.3-3.8c-.051-.4.023-.546.47-.535C1264.926-46.088,1266.229-46.109,1267.532-46.109Z" transform="translate(-78.664 -17.404)" fill="#e8cfb5"/>
    <path id="Trazado_646525" data-name="Trazado 646525" d="M1199.611-22.156c1.28,0,2.561.015,3.84-.009.391-.007.493.1.45.49a4.379,4.379,0,0,1-4.261,3.84,4.375,4.375,0,0,1-4.354-3.81c-.053-.425.066-.53.486-.521C1197.051-22.138,1198.331-22.156,1199.611-22.156Z" transform="translate(-29.172 -34.873)" fill="#e8cfb5"/>
    <path id="Trazado_646526" data-name="Trazado 646526" d="M1335.36-22.153c1.258,0,2.516.015,3.772-.009.4-.007.554.061.5.508a4.38,4.38,0,0,1-4.346,3.821,4.373,4.373,0,0,1-4.27-3.828c-.042-.369.026-.51.437-.5C1332.755-22.137,1334.058-22.153,1335.36-22.153Z" transform="translate(-128.154 -34.876)" fill="#e8cfb5"/>
    <path id="Trazado_646527" data-name="Trazado 646527" d="M1319.321,148.739c0,.922-.015,1.844.008,2.765.008.344-.075.466-.443.459-1.169-.024-2.338-.017-3.507,0-.286,0-.389-.072-.388-.375a6,6,0,0,1,.4-2.626c.471-1.013.827-2.082,1.2-3.139.092-.261.192-.36.462-.354.629.015,1.26.026,1.888,0,.366-.017.39.158.386.444C1319.314,146.85,1319.321,147.794,1319.321,148.739Z" transform="translate(-116.476 -157.116)" fill="#e9cfb5"/>
    <path id="Trazado_646528" data-name="Trazado 646528" d="M1228.987,151.822c-.57-.061-1.488.3-1.881-.132-.34-.374-.106-1.278-.109-1.948-.007-1.259.019-2.518-.013-3.776-.012-.473.064-.691.606-.64.646.06,1.441-.2,1.911.1.421.265.486,1.092.712,1.67a16.432,16.432,0,0,0,.728,1.807,5.372,5.372,0,0,1,.383,2.561c.008.318-.129.368-.4.362C1230.318,151.812,1229.711,151.822,1228.987,151.822Z" transform="translate(-52.251 -156.985)" fill="#e9cfb5"/>
    <path id="Trazado_646529" data-name="Trazado 646529" d="M1362.323-39.863a6.623,6.623,0,0,0-3.195-5.319,2.935,2.935,0,0,1,3.182-.721,3.285,3.285,0,0,1,2.168,3.041A3.131,3.131,0,0,1,1362.323-39.863Z" transform="translate(-148.663 -17.431)" fill="#e2e4e7"/>
    <path id="Trazado_646530" data-name="Trazado 646530" d="M1341.114,145.389c0,1.079-.013,2.16.008,3.238.007.346-.084.448-.444.456-1.725.039-1.725.052-1.725-1.664,0-1.439.009-2.879-.006-4.318,0-.329.02-.521.427-.567a1.941,1.941,0,0,0,1.2-.691c.11-.122.168-.41.373-.311.173.083.168.342.167.552C1341.111,143.185,1341.114,144.287,1341.114,145.389Z" transform="translate(-133.945 -154.236)" fill="#e5e8eb"/>
    <path id="Trazado_646531" data-name="Trazado 646531" d="M1211.216,145.359q0-1.587,0-3.173c0-.2-.036-.464.15-.559.253-.13.293.194.418.316a1.832,1.832,0,0,0,1.026.61c.487.055.587.277.579.738-.03,1.777-.027,3.556,0,5.334.006.425-.12.519-.529.521-1.642.008-1.642.023-1.642-1.625Z" transform="translate(-40.795 -154.298)" fill="#ee8773"/>
    <path id="Trazado_646532" data-name="Trazado 646532" d="M1340.71-35.923h-7.425a4.207,4.207,0,0,1,3.439-2.122A4.306,4.306,0,0,1,1340.71-35.923Z" transform="translate(-129.817 -23.288)" fill="#e2e4e7"/>
    <path id="Trazado_646533" data-name="Trazado 646533" d="M1265.458-59.885a4.248,4.248,0,0,1,3.691-2.105,4.26,4.26,0,0,1,3.694,2.105Z" transform="translate(-80.354 -5.833)" fill="#a87a4d"/>
    <path id="Trazado_646534" data-name="Trazado 646534" d="M1205.288-35.941h-7.148c.24-1.005,1.705-2,3.138-2.145A4.09,4.09,0,0,1,1205.288-35.941Z" transform="translate(-31.262 -23.251)" fill="#656c76"/>
    <path id="Trazado_646535" data-name="Trazado 646535" d="M1273.056,113.89l-2.242-4.159h4.477Z" transform="translate(-84.26 -131.06)" fill="#f8e6ac"/>
    <path id="Trazado_646536" data-name="Trazado 646536" d="M1341.218,1.8c.584,0,1.168.017,1.751-.006.332-.013.365.128.319.4a2.176,2.176,0,0,1-4.273,0c-.064-.354.07-.416.385-.406C1340.006,1.811,1340.612,1.8,1341.218,1.8Z" transform="translate(-133.984 -52.343)" fill="#e5ccb3"/>
    <path id="Trazado_646537" data-name="Trazado 646537" d="M1205.455,1.794c.584,0,1.168.018,1.751-.007.35-.015.416.111.353.429a2.174,2.174,0,0,1-4.257.015c-.083-.382.056-.458.4-.445C1204.287,1.811,1204.871,1.794,1205.455,1.794Z" transform="translate(-35.009 -52.341)" fill="#e5ccb3"/>
    <path id="Trazado_646538" data-name="Trazado 646538" d="M1273.287-22.149c.606,0,1.213.016,1.818-.006.333-.012.365.13.318.4a2.22,2.22,0,0,1-2.168,1.765,2.235,2.235,0,0,1-2.105-1.762c-.064-.354.072-.416.386-.405C1272.119-22.135,1272.7-22.149,1273.287-22.149Z" transform="translate(-84.494 -34.881)" fill="#e5ccb3"/>
    <path id="Trazado_646539" data-name="Trazado 646539" d="M1347.781,121.515a5.455,5.455,0,0,1-1.243-3.746c-.01-.266.042-.382.314-.35.438.051,1.007-.211,1.29.116a6.61,6.61,0,0,1,.825,1.6.437.437,0,0,1-.068.313C1348.535,120.135,1348.161,120.815,1347.781,121.515Z" transform="translate(-139.481 -136.629)" fill="#f1d37c"/>
    <path id="Trazado_646540" data-name="Trazado 646540" d="M1204.1,121.459a10.4,10.4,0,0,0-.7-1.271,1.69,1.69,0,0,1-.034-2.133,1.646,1.646,0,0,1,1.837-.7c.141.054.145.133.14.249A5.589,5.589,0,0,1,1204.1,121.459Z" transform="translate(-34.809 -136.563)" fill="#e2e4e7"/>
    <path id="Trazado_646541" data-name="Trazado 646541" d="M1323.764,8.181A1.625,1.625,0,0,1,1323.7,6.4a4.6,4.6,0,0,1,.754-1.19c.27-.3.572-.73.933-.724.451.008.292.6.434.915.175.39.7.762.5,1.138-.162.309-.728.39-1.086.618C1324.743,7.464,1324.279,7.818,1323.764,8.181Z" transform="translate(-122.655 -54.307)" fill="#bbd989"/>
    <path id="Trazado_646542" data-name="Trazado 646542" d="M1203.919,85.35c.108.3-.1.361-.239.462-1.662,1.247-1.713,1.227-3.406.019-.384-.275-.215-.529-.161-.808.084-.431.394-.182.589-.145a5.517,5.517,0,0,0,2.541-.021C1203.816,84.7,1203.894,84.991,1203.919,85.35Z" transform="translate(-32.641 -112.86)" fill="#e5ccb3"/>
    <path id="Trazado_646543" data-name="Trazado 646543" d="M1344.034,84.8a6.428,6.428,0,0,0,3.271.017c.221-.056.255.152.266.3.016.219.244.455-.079.655q-.8.5-1.572,1.043c-.359.256-.566-.055-.754-.215-.472-.4-1.23-.49-1.408-1.189C1343.718,85.251,1343.713,84.855,1344.034,84.8Z" transform="translate(-137.44 -112.879)" fill="#e5ccb3"/>
    <path id="Trazado_646544" data-name="Trazado 646544" d="M1227.243,7.134c-.02.213-.011.423-.181.519s-.273-.1-.385-.193a6.542,6.542,0,0,0-1.914-1.108c-.419-.147-.39-.291-.181-.6a3,3,0,0,0,.459-1.184c.044-.272.138-.375.389-.2A4.211,4.211,0,0,1,1227.243,7.134Z" transform="translate(-50.437 -54.158)" fill="#bbd989"/>
    <path id="Trazado_646545" data-name="Trazado 646545" d="M1255.437-16.491a4.163,4.163,0,0,1,1.857-3.062c.218-.152.31-.066.359.173s.144.47.209.708c.1.358.58.7.394.986-.162.253-.682.268-1.033.413C1256.666-17.043,1256.117-16.791,1255.437-16.491Z" transform="translate(-73.046 -36.724)" fill="#ee8773"/>
    <path id="Trazado_646546" data-name="Trazado 646546" d="M1294.958-16.449a14.843,14.843,0,0,0-2.66-1.115c-.317-.091-.253-.226-.121-.428a3.639,3.639,0,0,0,.562-1.36c.053-.3.177-.329.4-.166A4.185,4.185,0,0,1,1294.958-16.449Z" transform="translate(-99.76 -36.733)" fill="#ee8773"/>
    <path id="Trazado_646547" data-name="Trazado 646547" d="M1205.775,104.356c-.267-.052-.719.169-.9-.1a4.264,4.264,0,0,1-.5-1.372c-.063-.263.683-.571,1.016-.416.507.235,1,.492,1.5.743.155.078.39.15.256.376-.155.262-.059.713-.508.761A8.554,8.554,0,0,1,1205.775,104.356Z" transform="translate(-35.806 -125.735)" fill="#e2e4e7"/>
    <path id="Trazado_646548" data-name="Trazado 646548" d="M1344.949,104.267c-.648-.016-1.265.2-1.407-.647-.047-.28-.012-.4.233-.516a9.434,9.434,0,0,0,1.311-.665c.433-.291.769-.094,1.1.125.363.244-.008.515-.039.77C1346.047,104.11,1345.643,104.49,1344.949,104.267Z" transform="translate(-137.283 -125.636)" fill="#efc24c"/>
    <path id="Trazado_646549" data-name="Trazado 646549" d="M1190.66,95.192c-.79.4-1.481.739-2.167,1.091-.163.084-.289.1-.383-.084a.614.614,0,0,1-.029-.06c-.186-.486-.7-.866-.6-1.421.046-.267,2-.316,2.333-.1C1190.063,94.79,1190.315,94.96,1190.66,95.192Z" transform="translate(-23.478 -119.94)" fill="#efc24c"/>
    <path id="Trazado_646550" data-name="Trazado 646550" d="M1362.607,94.725c-.237.409-.5.9-.8,1.365-.084.131-.248-.012-.357-.065-.564-.272-1.116-.567-1.683-.834-.374-.176-.234-.268-.012-.492.846-.849,1.78-.418,2.7-.246C1362.551,94.472,1362.612,94.525,1362.607,94.725Z" transform="translate(-148.957 -119.727)" fill="#e37257"/>
    <path id="Trazado_646551" data-name="Trazado 646551" d="M1360.713,6a6.5,6.5,0,0,0,.4-1.081c.1-.57.278-.6.7-.244a3.92,3.92,0,0,1,1.372,2.078A12.4,12.4,0,0,0,1360.713,6Z" transform="translate(-149.819 -54.276)" fill="#bbd989"/>
    <path id="Trazado_646552" data-name="Trazado 646552" d="M1191.8,5.737h-2.043a3.3,3.3,0,0,1,1.263-1.4c.15-.106.3-.125.338.113A6.167,6.167,0,0,0,1191.8,5.737Z" transform="translate(-25.153 -54.148)" fill="#bbd989"/>
    <path id="Trazado_646553" data-name="Trazado 646553" d="M1195.224,109.611c-.291-.54-.554-1.051-.84-1.548-.112-.194-.053-.3.121-.362s.329-.289.547-.125A2.351,2.351,0,0,1,1195.224,109.611Z" transform="translate(-28.482 -129.446)" fill="#f1d37c"/>
    <path id="Trazado_646554" data-name="Trazado 646554" d="M1360.082,109.648a2.464,2.464,0,0,1,.167-2.033c.211-.21.365.024.536.081.208.069.26.195.136.408C1360.644,108.583,1360.391,109.076,1360.082,109.648Z" transform="translate(-149.251 -129.455)" fill="#ee8773"/>
    <path id="Trazado_646555" data-name="Trazado 646555" d="M1215.32,94.749c.437-.291.793-.55,1.172-.771a.544.544,0,0,1,.627.055c.15.161-.125.285-.209.428a.929.929,0,0,1-.084.1C1216.244,95.293,1216.244,95.293,1215.32,94.749Z" transform="translate(-43.791 -119.518)" fill="#efc24c"/>
    <path id="Trazado_646556" data-name="Trazado 646556" d="M1337.923,94.854c-.846.517-1.523.277-1.79-.539-.108-.329.184-.254.312-.255C1337.055,94.052,1337.386,94.555,1337.923,94.854Z" transform="translate(-131.876 -119.627)" fill="#e37257"/>
    <path id="Trazado_646557" data-name="Trazado 646557" d="M1267.957,51.968a4.586,4.586,0,0,1-3.944-2.331c-.188-.312-.21-.51.178-.644a2.373,2.373,0,0,0,.541-.269c.6-.4.988-.463,1.528.266A2.294,2.294,0,0,0,1270,48.7c.268-.415.473-.445.832-.2a3.626,3.626,0,0,0,.419.213c1.1.552,1.1.556.334,1.512A4.6,4.6,0,0,1,1267.957,51.968Z" transform="translate(-79.205 -86.295)" fill="#020201"/>
  </g>
</svg>
