<svg xmlns="http://www.w3.org/2000/svg" xmlns:xlink="http://www.w3.org/1999/xlink" width="215.907" height="209.391" viewBox="0 0 215.907 209.391">
  <defs>
    <clipPath id="clip-path">
      <path id="Trazado_645413" data-name="Trazado 645413" d="M154.8,210.963l-9.331,5.387-5.735,3.309a6.121,6.121,0,0,0-.54.313,7.6,7.6,0,0,0-3.645,6.541l0,26.813a7.588,7.588,0,0,1-3.076,6.153,7.767,7.767,0,0,1-4.64,1.559A7.64,7.64,0,0,1,124,260a23.106,23.106,0,0,1-11.551-20.008V212.174a23.1,23.1,0,0,0-11.552-20.007l42.359-24.457h0a23.124,23.124,0,0,1,11.556,20.017v12.116C154.809,203.307,154.8,210.963,154.8,210.963Z" transform="translate(-100.894 -167.71)" fill="none"/>
    </clipPath>
  </defs>
  <g id="Grupo_987702" data-name="Grupo 987702" transform="translate(-10.244 -15.715)">
    <g id="Floor" transform="translate(10.244 100.451)">
      <ellipse id="Floor-2" data-name="Floor" cx="107.953" cy="62.327" rx="107.953" ry="62.327" transform="translate(0 0)" fill="#face57"/>
    </g>
    <g id="Shadows" transform="translate(23.233 131.005)">
      <ellipse id="Shadow" cx="19.627" cy="11.332" rx="19.627" ry="11.332" transform="translate(139.837 19.378)" fill="#eabc3f"/>
      <path id="Shadow-2" data-name="Shadow" d="M115,329.43l87.792,50.688,40.238-23.231-87.81-50.7Z" transform="translate(-80.821 -290.689)" fill="#eabc3f"/>
      <path id="Shadow-3" data-name="Shadow" d="M57.664,320.5l-18.17-10.49a.594.594,0,0,1,0-1.126L103.389,272a2.153,2.153,0,0,1,1.95,0l18.169,10.49a.594.594,0,0,1,0,1.126L59.613,320.5A2.153,2.153,0,0,1,57.664,320.5Z" transform="translate(-39.091 -271.765)" fill="#eabc3f"/>
    </g>
    <g id="Device" transform="translate(37.181 15.715)">
      <g id="Device-2" data-name="Device" transform="translate(0 0)">
        <g id="Device-3" data-name="Device">
          <g id="Grupo_987587" data-name="Grupo 987587" transform="translate(6.175 3.761)">
            <path id="Trazado_645320" data-name="Trazado 645320" d="M139.671,24.336,85.742,55.467a4.35,4.35,0,0,0-1.959,3.4V180.484c0,1.249.879,1.759,1.959,1.131l53.929-31.131a4.35,4.35,0,0,0,1.959-3.4V25.467C141.63,24.218,140.75,23.709,139.671,24.336Zm-.864,111.543a2.715,2.715,0,0,1-1.681,2.286L88.092,166.474c-.925.535-1.681.1-1.681-.972V70.234a3.733,3.733,0,0,1,1.681-2.915l49.034-28.3c.93-.54,1.681-.1,1.681.967Z" transform="translate(-83.783 -24.067)" fill="#37474f"/>
          </g>
          <g id="Grupo_987588" data-name="Grupo 987588" transform="translate(0 33.063)">
            <path id="Trazado_645321" data-name="Trazado 645321" d="M77.959,217.515a4.39,4.39,0,0,1-3.68-.122l-2.243-1.3a4.322,4.322,0,0,1-1.966-3.4V91.088a3.705,3.705,0,0,1,.34-1.466,4.713,4.713,0,0,1,.233-.471,0,0,0,0,0,0,0l6.171,3.564h0a5.375,5.375,0,0,0-.34.719,3.569,3.569,0,0,0-.238,1.214v121.62C76.245,217.413,76.992,217.938,77.959,217.515Z" transform="translate(-70.069 -89.146)" fill="#263238"/>
          </g>
          <path id="Trazado_645322" data-name="Trazado 645322" d="M145.275,315.147c1.71-.987,3.1-.187,3.1,1.788a6.845,6.845,0,0,1-3.1,5.363c-1.71.987-3.1.187-3.1-1.788A6.843,6.843,0,0,1,145.275,315.147Z" transform="translate(-109.71 -180.091)" fill="#00c1ab"/>
          <g id="Grupo_987589" data-name="Grupo 987589" transform="translate(28.926 22.038)">
            <path id="Trazado_645323" data-name="Trazado 645323" d="M146.415,64.84c.726-.419,1.314-.079,1.314.759a2.906,2.906,0,0,1-1.314,2.277c-.726.42-1.315.08-1.315-.759A2.9,2.9,0,0,1,146.415,64.84Z" transform="translate(-140.243 -64.66)"/>
            <path id="Trazado_645324" data-name="Trazado 645324" d="M135.409,75.47,145.56,69.61c.606-.349,1.1-.1,1.1.555a2.351,2.351,0,0,1-1.1,1.821l-10.151,5.861c-.606.349-1.1.1-1.1-.555A2.353,2.353,0,0,1,135.409,75.47Z" transform="translate(-134.312 -67.294)"/>
          </g>
          <path id="Trazado_645325" data-name="Trazado 645325" d="M142.014,153.624a2.714,2.714,0,0,1-1.681,2.286L91.3,184.219c-.925.534-1.681.1-1.681-.972V87.978A3.733,3.733,0,0,1,91.3,85.063l49.034-28.3c.93-.54,1.681-.1,1.681.967Z" transform="translate(-80.816 -38.151)" fill="#00c1ab" stroke="#fff" stroke-miterlimit="10" stroke-width="1"/>
          <g id="Grupo_987590" data-name="Grupo 987590" transform="translate(0.578)">
            <path id="Trazado_645326" data-name="Trazado 645326" d="M134.777,20.564c-.141-1.02-.956-1.389-1.937-.821L78.907,50.876a3.994,3.994,0,0,0-1.384,1.467l-6.171-3.564a3.974,3.974,0,0,1,1.389-1.457l53.923-31.137a4.331,4.331,0,0,1,3.923,0l2.253,1.291A4.4,4.4,0,0,1,134.777,20.564Z" transform="translate(-71.352 -15.715)" fill="#455a64"/>
          </g>
        </g>
        <g id="Grupo_987591" data-name="Grupo 987591" transform="translate(19.853 48.592)">
          <path id="Trazado_645327" data-name="Trazado 645327" d="M117.727,154.368a3.3,3.3,0,0,1,1.539-.5,1.808,1.808,0,0,1,1.2.387,2.624,2.624,0,0,1,.794,1.205,6.368,6.368,0,0,1,.323,1.928q.014.388.013.716v1.251c0,.213,0,.448-.013.7a10.829,10.829,0,0,1-.317,2.308,10.1,10.1,0,0,1-.775,2.1,8.353,8.353,0,0,1-1.179,1.762,6.027,6.027,0,0,1-1.526,1.266l-3.3,1.9a.177.177,0,0,1-.231-.017.4.4,0,0,1-.1-.3V156.934a.958.958,0,0,1,.1-.413.614.614,0,0,1,.231-.284Zm1.6,4.246q-.074-2.12-1.661-1.2l-1.245.719v7.143l1.307-.754a3.381,3.381,0,0,0,1.6-3.085c.008-.268.012-.518.012-.75V159.34C119.338,159.114,119.334,158.873,119.326,158.614Z" transform="translate(-114.161 -140.252)" fill="#fff"/>
          <path id="Trazado_645328" data-name="Trazado 645328" d="M136.918,142.636q.244-.14.372-.009a.717.717,0,0,1,.177.312l2.662,10.307a.939.939,0,0,1,.049.254.784.784,0,0,1-.079.337.5.5,0,0,1-.189.231l-1.539.888q-.244.141-.349.041a.427.427,0,0,1-.128-.236l-.342-1.363-3.248,1.875-.342,1.757a1.4,1.4,0,0,1-.128.384.825.825,0,0,1-.349.361l-1.538.888a.144.144,0,0,1-.19-.013.329.329,0,0,1-.079-.246,1.63,1.63,0,0,1,.049-.31l2.662-13.38a2.44,2.44,0,0,1,.177-.516.9.9,0,0,1,.372-.422Zm-1.978,9.357,1.978-1.142-.989-3.941Z" transform="translate(-123.792 -134.04)" fill="#fff"/>
          <path id="Trazado_645329" data-name="Trazado 645329" d="M156.384,130.281a.178.178,0,0,1,.232.017.4.4,0,0,1,.1.3v1.993a.965.965,0,0,1-.1.414.622.622,0,0,1-.232.285l-2.149,1.241v9.644a.964.964,0,0,1-.1.414.629.629,0,0,1-.232.285l-1.6.923a.176.176,0,0,1-.232-.017.4.4,0,0,1-.1-.3v-9.644l-2.15,1.241a.177.177,0,0,1-.232-.017.4.4,0,0,1-.1-.3v-1.993a.955.955,0,0,1,.1-.414.619.619,0,0,1,.232-.284Z" transform="translate(-133.586 -127.268)" fill="#fff"/>
          <path id="Trazado_645330" data-name="Trazado 645330" d="M169.7,123.706c.163-.094.287-.1.373-.009a.723.723,0,0,1,.177.312l2.662,10.307a.919.919,0,0,1,.049.254.778.778,0,0,1-.079.337.5.5,0,0,1-.189.232l-1.539.888q-.244.141-.348.041a.424.424,0,0,1-.128-.236l-.342-1.363-3.248,1.875-.342,1.758a1.4,1.4,0,0,1-.128.384.823.823,0,0,1-.348.361l-1.539.888a.144.144,0,0,1-.19-.013.328.328,0,0,1-.079-.245,1.629,1.629,0,0,1,.049-.31l2.662-13.38a2.437,2.437,0,0,1,.177-.516.907.907,0,0,1,.372-.422Zm-1.978,9.357,1.978-1.142-.989-3.941Z" transform="translate(-141.816 -123.633)" fill="#fff"/>
        </g>
      </g>
    </g>
    <g id="Character" transform="translate(159.972 44.591)">
      <g id="Character-2" data-name="Character">
        <g id="Grupo_987593" data-name="Grupo 987593" transform="translate(6.237 21.435)">
          <g id="Grupo_987592" data-name="Grupo 987592">
            <path id="Trazado_645331" data-name="Trazado 645331" d="M370.482,127.452c-2.86.134-3.84.679-5.337,2.443-1.461,1.721-8.515,14.793-8.515,14.793s1.324,3.71,4.22,3.395l5.416-8.732Z" transform="translate(-356.629 -127.452)" fill="#ffa8a7"/>
          </g>
        </g>
        <path id="Trazado_645332" data-name="Trazado 645332" d="M375.733,127.382a8.98,8.98,0,0,0-3.519.262c-1.465.53-2.2,1.59-3.206,3.131-.781,1.192-3.516,6.142-3.516,6.142s1.332,3.7,5.12,3.7Z" transform="translate(-355.264 -105.942)" fill="#e0e0e0"/>
        <g id="Character-3" data-name="Character" transform="translate(8.113)">
          <g id="Grupo_987594" data-name="Grupo 987594" transform="translate(0 45.97)">
            <path id="Trazado_645333" data-name="Trazado 645333" d="M401.625,333.146v-.62c-.244.727-1.378,3.857-3.1,5.425-1.367,1.247-3.232,2.687-3.706,4.077-.493,1.446,2.595,1.931,3.872,1.705a7.878,7.878,0,0,0,4.449-2.389c.735-.9,1.2-1.973,1.727-2.683s1.734-1.5,2.018-2.324a5.241,5.241,0,0,0-.248-2.275c-.2-.766-.419-1.608-.68-1.537,0,.094,0,.473,0,.473a3.429,3.429,0,0,1-2.167.732C403.158,333.755,401.62,333.629,401.625,333.146Z" transform="translate(-379.472 -264.721)" fill="#263238"/>
            <path id="Trazado_645334" data-name="Trazado 645334" d="M399.793,334.716c.424-.378.851-.748,1.237-1.1a12.573,12.573,0,0,0,2.643-4.222,5.945,5.945,0,0,0,.455-2.281v-2.47h4.334v4.02h0v.107l-.022.011c-.208.9-2.2,3.3-3.327,4.858a6.288,6.288,0,0,1-3.916,2.609C399.567,336.465,398.734,335.952,399.793,334.716Z" transform="translate(-381.974 -260.39)" fill="#ffa8a7"/>
            <path id="Trazado_645335" data-name="Trazado 645335" d="M367.652,323.658v-.62c-.245.727-1.378,3.857-3.1,5.425-1.367,1.247-3.232,2.687-3.706,4.077-.493,1.446,2.595,1.931,3.872,1.705a7.879,7.879,0,0,0,4.449-2.389c.734-.9,1.2-1.973,1.727-2.682s1.734-1.5,2.018-2.324a5.239,5.239,0,0,0-.248-2.275c-.2-.766-.419-1.609-.68-1.537,0,.094,0,.472,0,.472a3.425,3.425,0,0,1-2.167.733C369.185,324.267,367.646,324.141,367.652,323.658Z" transform="translate(-360.795 -259.505)" fill="#263238"/>
            <path id="Trazado_645336" data-name="Trazado 645336" d="M365.819,325.228c.424-.378.851-.748,1.238-1.1A12.58,12.58,0,0,0,369.7,319.9a5.944,5.944,0,0,0,.454-2.281v-2.47h4.334v4.02h0v.107l-.022.011c-.209.9-2.2,3.3-3.327,4.858a6.289,6.289,0,0,1-3.916,2.609C365.593,326.977,364.76,326.464,365.819,325.228Z" transform="translate(-363.297 -255.174)" fill="#ffa8a7"/>
            <path id="Trazado_645337" data-name="Trazado 645337" d="M392.57,183.017c3.36,7.338-.121,33.187-.121,33.187.1,1.191,1.462,3.534,1.97,8.775.6,6.192-.941,21.742-.941,21.742a4.689,4.689,0,0,1-4.38.174s-4.13-23.418-4.907-29.575c-.678-5.373-1.979-17.188-1.979-17.188l-2.091,17.16a31.929,31.929,0,0,1,1.171,5.3c.351,3.621-3.158,20.483-3.158,20.483a9.626,9.626,0,0,1-4.334.131s-1.241-22.376-1.568-26.739c-.549-7.327-.21-30.188,1.134-34.525Z" transform="translate(-366.945 -181.943)" fill="#455a64"/>
            <path id="Trazado_645338" data-name="Trazado 645338" d="M385.183,210.447l-1.091-6.816s-4.614-.956-6.707-2.923a11.937,11.937,0,0,0,5.457,3.626l1.225,5.247-.835,16.881Z" transform="translate(-369.915 -192.259)" fill="#37474f"/>
          </g>
          <path id="Trazado_645339" data-name="Trazado 645339" d="M387.689,127.568h0c1.277.088,1.7.057,2.631.152,1.852.19,2.3,2.9,3.056,4.5a7.373,7.373,0,0,1,.2,5.552l-3,8.683s1.406,3.4,3.037,6.607c-7.532,4.2-16.938,1.994-19.2-1.074-.1-.651.486-5.738.845-9.062-1.327-3.328-1.677-5.437-1.117-7.637,1.039-4.083,4.762-7.84,5.827-7.836Z" transform="translate(-367.991 -106.017)" fill="#f0f0f0"/>
          <g id="Grupo_987602" data-name="Grupo 987602" transform="translate(5.789)">
            <path id="Trazado_645340" data-name="Trazado 645340" d="M394,84.915l-1.559-.136a1.2,1.2,0,0,0,.463-.466,1.332,1.332,0,0,0-.5-1.771L391.4,84.368a9.083,9.083,0,0,0-8.336-4.508l-.8.043a9.091,9.091,0,0,0-8.6,9.562c.276,5.18.58,10.974.58,10.974l9.355-.5a9.62,9.62,0,0,0,9.1-10.118l-.069-1.367a9.071,9.071,0,0,0-.5-2.5,1.214,1.214,0,0,0,.453.132A1.332,1.332,0,0,0,394,84.915Z" transform="translate(-373.652 -79.847)" fill="#455a64"/>
            <g id="Grupo_987595" data-name="Grupo 987595" transform="translate(1.66 6.007)">
              <path id="Trazado_645341" data-name="Trazado 645341" d="M377.37,97.407a18.335,18.335,0,0,0,.077,2.979c.357,4.661,1.931,5.733,2.708,6.025a8.04,8.04,0,0,0,3.643-.3v2.756s-1.7,2.435-1.5,3.713,2.926,1.436,4.7.084a8.254,8.254,0,0,0,2.495-3.653v-6.442a1.79,1.79,0,0,0,2.547.1,3.357,3.357,0,0,0,.475-4.6c-.964-.879-2.955-.507-3.254.8,0,0-3.284-.276-3.7-5.684C382.5,97.167,377.564,94.3,377.37,97.407Z" transform="translate(-377.338 -93.188)" fill="#ffa8a7"/>
            </g>
            <path id="Trazado_645342" data-name="Trazado 645342" d="M401.726,102.866l.123,2.309h0a1.573,1.573,0,0,1-1.655-1.488l-.137-2.577Z" transform="translate(-388.167 -91.536)" fill="#455a64"/>
            <g id="Grupo_987596" data-name="Grupo 987596" transform="translate(7.532 10.997)">
              <path id="Trazado_645343" data-name="Trazado 645343" d="M390.379,104.885a.588.588,0,1,0,.586-.614A.6.6,0,0,0,390.379,104.885Z" transform="translate(-390.379 -104.271)" fill="#263238"/>
            </g>
            <g id="Grupo_987597" data-name="Grupo 987597" transform="translate(5.921 15.747)">
              <path id="Trazado_645344" data-name="Trazado 645344" d="M388.373,114.82l-1.571.595a.825.825,0,0,0,1.07.518A.88.88,0,0,0,388.373,114.82Z" transform="translate(-386.802 -114.82)" fill="#f28f8f"/>
            </g>
            <g id="Grupo_987598" data-name="Grupo 987598" transform="translate(8.174 8.477)">
              <path id="Trazado_645345" data-name="Trazado 645345" d="M391.806,99.173l1.376.444a.694.694,0,0,0-.438-.908A.76.76,0,0,0,391.806,99.173Z" transform="translate(-391.806 -98.674)" fill="#455a64"/>
            </g>
            <g id="Grupo_987599" data-name="Grupo 987599" transform="translate(2.487 11.252)">
              <path id="Trazado_645346" data-name="Trazado 645346" d="M379.176,105.45a.588.588,0,1,0,.586-.614A.6.6,0,0,0,379.176,105.45Z" transform="translate(-379.176 -104.836)" fill="#263238"/>
            </g>
            <g id="Grupo_987600" data-name="Grupo 987600" transform="translate(4.12 11.368)">
              <path id="Trazado_645347" data-name="Trazado 645347" d="M384.6,105.093l.095,3.538-1.89-.477Z" transform="translate(-382.803 -105.093)" fill="#f28f8f"/>
            </g>
            <g id="Grupo_987601" data-name="Grupo 987601" transform="translate(8.119 16.354)">
              <path id="Trazado_645348" data-name="Trazado 645348" d="M391.684,118.743c1.491-.277,4.531-1.328,4.947-2.575a3.163,3.163,0,0,1-1,1.616,16.381,16.381,0,0,1-3.947,1.893Z" transform="translate(-391.684 -116.168)" fill="#f28f8f"/>
            </g>
          </g>
          <path id="Trazado_645349" data-name="Trazado 645349" d="M390.2,160.272c2.474-.586,2.944-1.518,2.291-3.975a1.861,1.861,0,0,0-.077-.237c-.484-1.165-2.417-.472-2.417-.472s.791-.986,1.679-2.243a10.611,10.611,0,0,0,1.4-4.794c.119-1.458.357-4.379.357-4.379a2.766,2.766,0,0,0,1.174-3.259l2.972-1.826.559.389a7.552,7.552,0,0,1-.124,4.691l-3,8.683a49.144,49.144,0,0,1,3.037,6.607,19.472,19.472,0,0,1-16.095,1.066A21.96,21.96,0,0,0,390.2,160.272Z" transform="translate(-372.431 -112.414)" fill="#e6e6e6"/>
          <path id="Trazado_645350" data-name="Trazado 645350" d="M388.809,102.52l-3.4.181a1.9,1.9,0,0,0-1.936-1.408l-.293.016a1.9,1.9,0,0,0-1.69,1.268,1.632,1.632,0,0,0-1.132-.423,1.4,1.4,0,0,0-.963.344,1.893,1.893,0,0,0-1.705-.9l-.293.015a1.9,1.9,0,0,0,.2,3.793l.293-.015a1.9,1.9,0,0,0,1.8-2,1.876,1.876,0,0,0-.139-.6,1.049,1.049,0,0,1,.81-.327,1.254,1.254,0,0,1,1.029.457l.015-.01a1.922,1.922,0,0,0-.019.386,1.9,1.9,0,0,0,2,1.8l.293-.015a1.9,1.9,0,0,0,1.8-2c0-.024-.009-.045-.011-.069l3.043-.162A1.638,1.638,0,0,1,388.809,102.52Zm-10.937,2.554-.293.016a1.579,1.579,0,1,1-.168-3.154l.293-.016a1.579,1.579,0,1,1,.168,3.154Zm5.783-.308-.293.016a1.579,1.579,0,0,1-.168-3.154l.293-.016a1.579,1.579,0,1,1,.168,3.154Z" transform="translate(-368.932 -91.635)" fill="#263238"/>
        </g>
        <g id="Grupo_987610" data-name="Grupo 987610" transform="translate(0 35.68)">
          <g id="Grupo_987603" data-name="Grupo 987603" transform="translate(0 0.229)">
            <path id="Trazado_645351" data-name="Trazado 645351" d="M342.777,159.6,357.99,163.6l4.187,17.212-14.463-4.2Z" transform="translate(-342.777 -159.596)" fill="#00c1ab"/>
            <path id="Trazado_645352" data-name="Trazado 645352" d="M342.777,159.6,357.99,163.6l4.187,17.212-14.463-4.2Z" transform="translate(-342.777 -159.596)" opacity="0.25"/>
            <path id="Trazado_645353" data-name="Trazado 645353" d="M365.542,191.168c.1.932.75,2.01,2.65,2.917s5.6.4,5.6.4l-.515-2.118Z" transform="translate(-355.292 -176.952)" opacity="0.2"/>
          </g>
          <g id="Grupo_987604" data-name="Grupo 987604" transform="translate(3.918 12.417)" opacity="0.2">
            <path id="Trazado_645354" data-name="Trazado 645354" d="M354.435,186.666a3.087,3.087,0,0,1-2.8,1.85l-.154-.531Z" transform="translate(-351.48 -186.666)"/>
          </g>
          <g id="Grupo_987605" data-name="Grupo 987605" transform="translate(4.453 2.133)" opacity="0.1">
            <path id="Trazado_645355" data-name="Trazado 645355" d="M352.8,164.655l-.126-.58c-.069-.321.824-.334,1.994-.031l2.241.581c1.17.3,2.175.81,2.245,1.13l.126.58Z" transform="translate(-352.668 -163.825)"/>
          </g>
          <g id="Grupo_987606" data-name="Grupo 987606" transform="translate(3.41)">
            <path id="Trazado_645356" data-name="Trazado 645356" d="M350.355,159.87c-.044-.2.317-.253.808-.117l.888.245s-.265-1.255,1.7-.816a3.086,3.086,0,0,1,2.4,1.864l.947.269c.524.149,1,.431,1.06.63l.112.361-7.836-2.064S350.4,160.07,350.355,159.87Z" transform="translate(-350.352 -159.088)" fill="#37474f"/>
          </g>
          <g id="Grupo_987607" data-name="Grupo 987607" transform="translate(4.265 1.16)">
            <path id="Trazado_645357" data-name="Trazado 645357" d="M352.478,161.905c.718.173,1.016.268,1.123.762.122.564.172.978.172.978l3.468.916s-.167-.714-.221-.993.064-.446.616-.3l.047-.221-5.435-1.384Z" transform="translate(-352.25 -161.665)" fill="#37474f"/>
          </g>
          <g id="Grupo_987608" data-name="Grupo 987608" transform="translate(4.245 2.187)">
            <path id="Trazado_645358" data-name="Trazado 645358" d="M352.334,164.776l-.126-.58c-.069-.32.824-.334,1.994-.031l2.241.581c1.17.3,2.175.81,2.245,1.13l.126.58Z" transform="translate(-352.205 -163.946)" fill="#37474f"/>
          </g>
          <g id="Grupo_987609" data-name="Grupo 987609" transform="translate(0.474 5.415)">
            <path id="Trazado_645359" data-name="Trazado 645359" d="M344.959,171.454s.569,1.946.7,2.41,1.835,1.3,2.953,1.6,2.341.671,1.812,2.235c-.488,1.441-2.328,1.77-3.264,1.73a3.463,3.463,0,0,1-2.725-2.38c-.644-1.841-.3-3.807-.553-4.883S344.4,170.812,344.959,171.454Z" transform="translate(-343.83 -171.114)" fill="#ffa8a7"/>
          </g>
        </g>
        <g id="Grupo_987611" data-name="Grupo 987611" transform="translate(9.918 21.604)">
          <path id="Trazado_645360" data-name="Trazado 645360" d="M384.985,127.976c1.973.125,4.012,1.194,4.321,3.563s2.228,14.841,1.475,16.245c-1.741,3.246-13.223,9.421-14.364,9.949a12.865,12.865,0,0,1-5.3,1.421c-1.79.02-4.173-.039-5.377-1.657-1.069-1.437-1.673-4.088.742-3.632a26.164,26.164,0,0,0,5.535.243l-.281-1.156a5.5,5.5,0,0,1,1.843.3c1.2.358,2.3-.677,4.427-1.992a73.724,73.724,0,0,0,6.92-5.279l-1.7-10.413S383.167,131.066,384.985,127.976Z" transform="translate(-364.805 -127.909)" fill="#ffa8a7"/>
          <path id="Trazado_645361" data-name="Trazado 645361" d="M406.362,127.895a4.2,4.2,0,0,1,2.215.2c1.159.442,2.188,1.029,2.67,3.364s1.434,10.87,1.434,10.87a8.746,8.746,0,0,1-6.64.959l-1.478-7.745S403.411,130.12,406.362,127.895Z" transform="translate(-386.539 -127.828)" fill="#e0e0e0"/>
        </g>
      </g>
    </g>
    <g id="Analysis" transform="translate(47.209 78.594)">
      <g id="Analysis-2" data-name="Analysis">
        <g id="Grupo_987614" data-name="Grupo 987614">
          <g id="Grupo_987612" data-name="Grupo 987612">
            <path id="Trazado_645362" data-name="Trazado 645362" d="M96.616,185.626l48.135-27.791V164.5L96.616,192.3Z" transform="translate(-94.691 -156.723)" fill="#455a64"/>
            <path id="Trazado_645363" data-name="Trazado 645363" d="M100.894,190.809v2.223l44.285-25.567v-2.223Z" transform="translate(-97.043 -160.794)" fill="#263238"/>
            <path id="Trazado_645364" data-name="Trazado 645364" d="M94.266,184.268l-1.925-1.112,48.136-27.791,1.925,1.112Z" transform="translate(-92.34 -155.365)" fill="#37474f"/>
            <path id="Trazado_645365" data-name="Trazado 645365" d="M92.34,217.087l1.925,1.112v6.67l-1.925-1.112Z" transform="translate(-92.34 -189.296)" fill="#263238"/>
          </g>
          <g id="Grupo_987613" data-name="Grupo 987613" transform="translate(3.851 5.558)">
            <path id="Trazado_645366" data-name="Trazado 645366" d="M352.785,410.832l-42.364,24.442v-1.085l42.359-24.442Z" transform="translate(-216.079 -300.766)" fill="#37474f"/>
            <path id="Trazado_645367" data-name="Trazado 645367" d="M154.8,210.963l-9.331,5.387-5.735,3.309a6.121,6.121,0,0,0-.54.313,7.6,7.6,0,0,0-3.645,6.541l0,26.813a7.588,7.588,0,0,1-3.076,6.153,7.767,7.767,0,0,1-4.64,1.559A7.64,7.64,0,0,1,124,260a23.106,23.106,0,0,1-11.551-20.008V212.174a23.1,23.1,0,0,0-11.552-20.007l42.359-24.457h0a23.124,23.124,0,0,1,11.556,20.017v12.116C154.809,203.307,154.8,210.963,154.8,210.963Z" transform="translate(-100.894 -167.71)" fill="#f5f5f5"/>
            <path id="Trazado_645368" data-name="Trazado 645368" d="M170.209,316.539a23.093,23.093,0,0,1-11.551-20l0-26.83a23.036,23.036,0,0,0-1.815-8.973,23.716,23.716,0,0,0-1.28-2.579A23.106,23.106,0,0,0,147.1,249.7h0a7.7,7.7,0,0,0-11.547,6.674v2.733l-.006-2.738,0,26.813v-.01A7.707,7.707,0,0,1,124,289.855a23.106,23.106,0,0,1-11.552-20.007V242.033a23.1,23.1,0,0,0-11.552-20.007v1.109a22.209,22.209,0,0,1,10.6,18.9v27.814a24.118,24.118,0,0,0,12.026,20.827,8.56,8.56,0,0,0,8.65,0c.166-.095.327-.194.488-.3l.014-.009a8.554,8.554,0,0,0,3.82-7.177l0-26.813a6.752,6.752,0,0,1,10.13-5.849,22.2,22.2,0,0,1,11.077,19.183v6.225l0,20.6a24.123,24.123,0,0,0,12.026,20.827l25.5,14.715v-1.086Z" transform="translate(-100.894 -197.569)" fill="#455a64"/>
            <path id="Trazado_645369" data-name="Trazado 645369" d="M285.021,309.22l-42.359,24.442-25.027-14.453a23.093,23.093,0,0,1-11.551-20l0-26.83a23.045,23.045,0,0,0-1.815-8.973,23.722,23.722,0,0,0-1.28-2.579,23.106,23.106,0,0,0-8.456-8.451,7.612,7.612,0,0,0-7.366-.185l5.735-3.309,11.539-6.663,24.7-14.258.061-.038a7.62,7.62,0,0,1,7.688,0,23.1,23.1,0,0,1,11.552,20.008l0,26.825a23.107,23.107,0,0,0,11.551,20.008Z" transform="translate(-148.32 -200.239)" fill="#fafafa"/>
            <path id="Trazado_645370" data-name="Trazado 645370" d="M195.9,303.378A22.2,22.2,0,0,0,184.82,284.2a6.752,6.752,0,0,0-10.13,5.849l0,26.813a8.554,8.554,0,0,1-3.82,7.177l-.014.009c-.161.109-.322.208-.488.3L195.9,309.6Z" transform="translate(-139.084 -231.242)" fill="#e0e0e0"/>
            <path id="Trazado_645371" data-name="Trazado 645371" d="M195.9,303.378A22.2,22.2,0,0,0,184.82,284.2a6.752,6.752,0,0,0-10.13,5.849l0,26.813a8.554,8.554,0,0,1-3.82,7.177l-.014.009c-.161.109-.322.208-.488.3L195.9,309.6Z" transform="translate(-139.084 -231.242)" opacity="0.15"/>
          </g>
        </g>
        <g id="Grupo_987654" data-name="Grupo 987654" transform="translate(3.851 5.558)">
          <g id="Grupo_987653" data-name="Grupo 987653" clip-path="url(#clip-path)">
            <g id="Grupo_987652" data-name="Grupo 987652" transform="translate(6.94 4.171)">
              <path id="Trazado_645372" data-name="Trazado 645372" d="M116.891,197.392a3.3,3.3,0,0,0,3.6.271l30.226-17.451c1.133-.655,1.4-1.879.514-2.643a3.5,3.5,0,0,0-3.72-.123l-30.241,17.46C116.133,195.56,116,196.631,116.891,197.392Z" transform="translate(-116.307 -176.974)" fill="#00c1ab"/>
              <g id="Grupo_987615" data-name="Grupo 987615" transform="translate(24.617 4.986)">
                <path id="Trazado_645373" data-name="Trazado 645373" d="M171.316,196.879a.336.336,0,0,1-.169-.627l14.133-8.16a.336.336,0,1,1,.336.581l-14.132,8.16A.338.338,0,0,1,171.316,196.879Z" transform="translate(-170.979 -188.048)" opacity="0.4"/>
              </g>
              <g id="Grupo_987616" data-name="Grupo 987616" transform="translate(25.708 6.806)">
                <path id="Trazado_645374" data-name="Trazado 645374" d="M173.738,200.921a.336.336,0,0,1-.168-.627l14.132-8.16a.336.336,0,1,1,.336.581l-14.132,8.16A.334.334,0,0,1,173.738,200.921Z" transform="translate(-173.402 -192.09)" opacity="0.4"/>
              </g>
              <g id="Grupo_987617" data-name="Grupo 987617" transform="translate(26.624 8.701)">
                <path id="Trazado_645375" data-name="Trazado 645375" d="M175.773,205.129a.336.336,0,0,1-.168-.627l14.133-8.16a.336.336,0,0,1,.336.581l-14.132,8.16A.335.335,0,0,1,175.773,205.129Z" transform="translate(-175.437 -196.298)" opacity="0.4"/>
              </g>
              <g id="Grupo_987618" data-name="Grupo 987618" transform="translate(27.36 10.672)">
                <path id="Trazado_645376" data-name="Trazado 645376" d="M177.408,209.507a.336.336,0,0,1-.168-.627l14.132-8.16a.336.336,0,1,1,.336.582l-14.132,8.159A.334.334,0,0,1,177.408,209.507Z" transform="translate(-177.072 -200.676)" opacity="0.4"/>
              </g>
              <g id="Grupo_987619" data-name="Grupo 987619" transform="translate(27.898 12.604)">
                <path id="Trazado_645377" data-name="Trazado 645377" d="M178.6,213.8a.336.336,0,0,1-.169-.627l14.132-8.16a.336.336,0,0,1,.336.582l-14.132,8.159A.334.334,0,0,1,178.6,213.8Z" transform="translate(-178.266 -204.965)" opacity="0.4"/>
              </g>
              <g id="Grupo_987620" data-name="Grupo 987620" transform="translate(28.261 14.68)">
                <path id="Trazado_645378" data-name="Trazado 645378" d="M179.41,218.407a.336.336,0,0,1-.169-.627l14.132-8.16a.336.336,0,0,1,.336.582l-14.132,8.16A.335.335,0,0,1,179.41,218.407Z" transform="translate(-179.073 -209.576)" opacity="0.4"/>
              </g>
              <g id="Grupo_987621" data-name="Grupo 987621" transform="translate(28.459 16.895)">
                <path id="Trazado_645379" data-name="Trazado 645379" d="M179.849,223.328a.336.336,0,0,1-.169-.627l14.133-8.16a.336.336,0,1,1,.336.582l-14.132,8.159A.334.334,0,0,1,179.849,223.328Z" transform="translate(-179.512 -214.496)" opacity="0.4"/>
              </g>
              <g id="Grupo_987622" data-name="Grupo 987622" transform="translate(8.409 21.252)">
                <path id="Trazado_645380" data-name="Trazado 645380" d="M135.219,244.444A.237.237,0,0,1,135.1,244l34.291-19.8a.237.237,0,0,1,.237.41l-34.291,19.8A.236.236,0,0,1,135.219,244.444Z" transform="translate(-134.982 -224.172)" opacity="0.4"/>
                <path id="Trazado_645381" data-name="Trazado 645381" d="M135.219,249.144a.237.237,0,0,1-.119-.442l34.291-19.8a.237.237,0,0,1,.237.41l-34.291,19.8A.232.232,0,0,1,135.219,249.144Z" transform="translate(-134.982 -226.755)" opacity="0.4"/>
                <path id="Trazado_645382" data-name="Trazado 645382" d="M135.219,253.845a.237.237,0,0,1-.119-.442l34.291-19.8a.237.237,0,0,1,.237.41l-34.291,19.8A.236.236,0,0,1,135.219,253.845Z" transform="translate(-134.982 -229.34)" opacity="0.4"/>
                <path id="Trazado_645383" data-name="Trazado 645383" d="M135.219,258.547a.237.237,0,0,1-.119-.442l34.291-19.8a.237.237,0,1,1,.237.41l-34.291,19.8A.237.237,0,0,1,135.219,258.547Z" transform="translate(-134.982 -231.924)" opacity="0.4"/>
              </g>
              <g id="Grupo_987627" data-name="Grupo 987627" transform="translate(3.411 19.728)">
                <g id="Grupo_987624" data-name="Grupo 987624" transform="translate(4.998 7.763)">
                  <g id="Grupo_987623" data-name="Grupo 987623">
                    <path id="Trazado_645384" data-name="Trazado 645384" d="M135.219,248.984a.237.237,0,0,1-.119-.442l18.154-10.482a.237.237,0,1,1,.237.41l-18.154,10.482A.237.237,0,0,1,135.219,248.984Z" transform="translate(-134.982 -238.028)" opacity="0.4"/>
                  </g>
                </g>
                <g id="Grupo_987625" data-name="Grupo 987625" transform="translate(4.657 5.089)">
                  <path id="Trazado_645385" data-name="Trazado 645385" d="M134.292,233.566a22.343,22.343,0,0,1,1.681,4.29,22.116,22.116,0,0,1,.786,4.7.342.342,0,0,0,.557.294l1.009-.583a1.033,1.033,0,0,0,.474-.887,24.08,24.08,0,0,0-.85-4.833,26.03,26.03,0,0,0-1.625-4.151.572.572,0,0,0-.8-.223l-.993.573A.632.632,0,0,0,134.292,233.566Z" transform="translate(-134.226 -232.09)" fill="#00c1ab"/>
                </g>
                <g id="Grupo_987626" data-name="Grupo 987626" transform="translate(7.623 0.958)">
                  <path id="Trazado_645386" data-name="Trazado 645386" d="M140.907,224.332a23.858,23.858,0,0,1,2.429,5.179,22.375,22.375,0,0,1,1.084,5.667.338.338,0,0,0,.55.3l1.009-.583a1.042,1.042,0,0,0,.479-.888,24.24,24.24,0,0,0-1.1-5.657,23.248,23.248,0,0,0-2.413-5.144.642.642,0,0,0-.842-.208l-1,.558A.539.539,0,0,0,140.907,224.332Z" transform="translate(-140.813 -222.915)" fill="#00c1ab"/>
                </g>
                <path id="Trazado_645387" data-name="Trazado 645387" d="M155.377,232.391" transform="translate(-141.196 -227.166)" fill="#00c1ab"/>
                <path id="Trazado_645388" data-name="Trazado 645388" d="M157.07,230.372l-.992.573a.769.769,0,0,0-.33.86,23.115,23.115,0,0,1,.9,5.1.338.338,0,0,0,.55.295l1.009-.583a1.042,1.042,0,0,0,.479-.888,24.1,24.1,0,0,0-.93-5.09A.45.45,0,0,0,157.07,230.372Z" transform="translate(-141.384 -226.016)" fill="#00c1ab"/>
                <path id="Trazado_645389" data-name="Trazado 645389" d="M165.149,221.116a.507.507,0,0,0-.741-.254l-1,.569a.693.693,0,0,0-.289.841q.271.679.523,1.412a22.376,22.376,0,0,1,1.084,5.667.338.338,0,0,0,.55.3l1.009-.583a1.043,1.043,0,0,0,.478-.888,24.218,24.218,0,0,0-1.1-5.657Q165.422,221.8,165.149,221.116Z" transform="translate(-145.427 -220.788)" fill="#00c1ab"/>
                <path id="Trazado_645390" data-name="Trazado 645390" d="M129.814,239.8a.167.167,0,0,0-.229-.061l-.422.244c-.092-.583-.2-1.159-.334-1.727l.571-.33a.168.168,0,0,0-.167-.291l-.489.282c-.142-.571-.3-1.136-.484-1.691l.543-.313a.168.168,0,0,0-.168-.291l-.489.282c-.187-.54-.389-1.073-.615-1.6l-.019-.043.539-.311a.168.168,0,1,0-.167-.29l-.509.294q-.352-.792-.779-1.574l.538-.311a.168.168,0,1,0-.168-.29l-.533.308q-.427-.754-.924-1.5l.6-.349a.168.168,0,1,0-.168-.29l-.625.361c-.356-.518-.734-1.031-1.138-1.536a.168.168,0,1,0-.262.21q.59.738,1.109,1.494l-.576.333a.168.168,0,0,0,.084.313.171.171,0,0,0,.084-.023l.6-.345q.5.741.925,1.5l-.67.387a.168.168,0,1,0,.167.29l.665-.384q.427.782.778,1.575l-.693.4a.168.168,0,1,0,.168.29l.662-.382,0,.006c.231.535.438,1.081.628,1.635l-.709.409a.168.168,0,1,0,.167.291l.655-.378c.181.555.338,1.122.478,1.694l-.7.406a.168.168,0,0,0,.084.313.165.165,0,0,0,.084-.022l.62-.358c.13.569.235,1.147.325,1.732l-.76.439a.168.168,0,1,0,.168.29l.649-.375q.147,1.063.2,2.155a.168.168,0,0,0,.168.159h.009a.168.168,0,0,0,.159-.176c-.041-.783-.119-1.556-.228-2.318l.533-.308A.168.168,0,0,0,129.814,239.8Z" transform="translate(-123.883 -225.145)" opacity="0.4"/>
              </g>
              <g id="Grupo_987646" data-name="Grupo 987646" transform="translate(7.782 37.939)">
                <g id="Grupo_987630" data-name="Grupo 987630" transform="translate(2.877 3.388)" opacity="0.15">
                  <g id="Grupo_987628" data-name="Grupo 987628" transform="translate(0.237 0.237)">
                    <path id="Trazado_645391" data-name="Trazado 645391" d="M140.673,295.01a27.3,27.3,0,0,1-.153-3.817c.138-.489,2.183-7.508,5.945-9.7a2.571,2.571,0,0,1,.742-.31,1.388,1.388,0,0,1,.308-.036c1,0,1.444,1.388,1.877,2.73a13.587,13.587,0,0,0,.594,1.614,1.809,1.809,0,0,0,1.523,1.257,2.1,2.1,0,0,0,1.031-.318c1.809-1.031,2.329-3.821,2.88-6.776a33.422,33.422,0,0,1,.888-3.914,5.532,5.532,0,0,1,2.24-3.36,1.736,1.736,0,0,1,.837-.273c1.048,0,1.445,1.868,1.829,3.673a15.037,15.037,0,0,0,.762,2.767c.382.87.885,1.294,1.535,1.294a2.186,2.186,0,0,0,1.085-.34c2.22-1.281,2.892-3.454,3.541-5.554.552-1.783,1.073-3.468,2.537-4.32a2.193,2.193,0,0,1,1.089-.342,1.37,1.37,0,0,1,.479.085,9.369,9.369,0,0,1,.071,1.005l.024,4.253c.04.813.094,1.453.169,2Z" transform="translate(-140.508 -269.286)" fill="#00c1ab"/>
                  </g>
                  <g id="Grupo_987629" data-name="Grupo 987629">
                    <path id="Trazado_645392" data-name="Trazado 645392" d="M172.474,276.466c-.1-.635-.152-1.356-.19-2.128l-.024-4.252a9.731,9.731,0,0,0-.09-1.171,1.614,1.614,0,0,0-.7-.156h0a2.409,2.409,0,0,0-1.208.374c-3.266,1.9-2.019,7.532-6.077,9.873a1.964,1.964,0,0,1-.966.309c-.605,0-1.013-.457-1.319-1.153-.955-2.154-.929-6.581-2.808-6.581a1.949,1.949,0,0,0-.956.306,5.85,5.85,0,0,0-2.346,3.493c-1.209,3.792-1.138,9.12-3.66,10.556a1.88,1.88,0,0,1-.914.288c-.6,0-1-.462-1.309-1.122-.78-1.636-1.055-4.479-2.685-4.479a1.631,1.631,0,0,0-.358.042,2.793,2.793,0,0,0-.81.336c-4.01,2.332-6.063,9.864-6.063,9.864a27.441,27.441,0,0,0,.2,4.239l.464-.268c-.024-.131-.047-.246-.073-.505a27.021,27.021,0,0,1-.114-3.393c.19-.664,2.2-7.417,5.83-9.528a2.334,2.334,0,0,1,.674-.283,1.16,1.16,0,0,1,.254-.031c.824,0,1.245,1.3,1.652,2.566a13.766,13.766,0,0,0,.605,1.643c.164.344.661,1.392,1.737,1.392a2.326,2.326,0,0,0,1.149-.349c1.9-1.085,2.434-3.928,2.995-6.939a33.336,33.336,0,0,1,.882-3.886,5.314,5.314,0,0,1,2.131-3.226,1.516,1.516,0,0,1,.719-.242c.857,0,1.25,1.852,1.6,3.486a15.231,15.231,0,0,0,.777,2.812c.419.953,1.009,1.436,1.753,1.436a2.409,2.409,0,0,0,1.2-.372c2.3-1.328,3.017-3.645,3.649-5.69.538-1.738,1.045-3.379,2.43-4.185a1.966,1.966,0,0,1,.969-.309h0a1.136,1.136,0,0,1,.261.029c.051.48.052.82.052.826l.024,4.273c.036.733.084,1.332.15,1.854a3.3,3.3,0,0,0,.091.494l.421-.243" transform="translate(-139.981 -268.759)"/>
                  </g>
                </g>
                <g id="Grupo_987631" data-name="Grupo 987631" transform="translate(2.88 0.182)" opacity="0.4">
                  <path id="Trazado_645393" data-name="Trazado 645393" d="M140,284.806v2.146a27.114,27.114,0,0,0,.194,4.238l32.281-18.638c-.093-.634-.152-1.356-.19-2.131l-.023-4.249s0-6.35-4.034-4.021c-4.24,2.448-3.041,10.222-6.051,11.96-3.037,1.754-2.017-5.185-6.052-2.856s-2.017,7.514-6.051,9.844-2.017-9.419-6.052-7.089S139.987,282.123,140,284.806Z" transform="translate(-139.986 -261.638)" fill="#00c1ab"/>
                </g>
                <g id="Grupo_987632" data-name="Grupo 987632" transform="translate(1.247 13.014)">
                  <path id="Trazado_645394" data-name="Trazado 645394" d="M136.528,310.132a.168.168,0,0,1-.083-.314l34.336-19.66a.168.168,0,0,1,.167.291L136.611,310.11A.168.168,0,0,1,136.528,310.132Z" transform="translate(-136.36 -290.136)" opacity="0.4"/>
                </g>
                <g id="Grupo_987636" data-name="Grupo 987636" transform="translate(6.743 13.013)">
                  <g id="Grupo_987633" data-name="Grupo 987633" transform="translate(0.003)">
                    <path id="Trazado_645395" data-name="Trazado 645395" d="M148.742,290.807a.168.168,0,0,1-.168-.168V290.3a.168.168,0,1,1,.336,0v.336A.168.168,0,0,1,148.742,290.807Z" transform="translate(-148.574 -290.135)" fill="#fff"/>
                  </g>
                  <g id="Grupo_987634" data-name="Grupo 987634" transform="translate(0 0.984)">
                    <path id="Trazado_645396" data-name="Trazado 645396" d="M148.835,304.923a.168.168,0,0,1-.167-.153c-.02-.214-.036-.431-.05-.648a.168.168,0,0,1,.157-.178.156.156,0,0,1,.178.157q.02.321.049.639a.167.167,0,0,1-.152.182Zm-.079-1.288a.168.168,0,0,1-.168-.166c0-.186,0-.4-.007-.647a.168.168,0,0,1,.167-.169.154.154,0,0,1,.169.167c0,.244,0,.459.007.645a.168.168,0,0,1-.165.171Zm-.011-1.292a.168.168,0,0,1-.168-.167l0-.647a.168.168,0,0,1,.167-.168h0a.168.168,0,0,1,.168.168l0,.646a.168.168,0,0,1-.167.169Zm-.006-1.292a.168.168,0,0,1-.168-.167v-.646a.168.168,0,0,1,.167-.168h0a.168.168,0,0,1,.168.168l0,.646a.169.169,0,0,1-.168.168Zm0-1.292a.169.169,0,0,1-.168-.168v-.646a.168.168,0,0,1,.336,0v.646A.168.168,0,0,1,148.736,299.759Zm0-1.292a.168.168,0,0,1-.168-.168v-.646a.168.168,0,0,1,.336,0v.646A.168.168,0,0,1,148.735,298.467Zm0-1.291a.168.168,0,0,1-.168-.168v-.646a.168.168,0,0,1,.336,0v.646A.168.168,0,0,1,148.735,297.176Zm0-1.292h0a.168.168,0,0,1-.168-.168v-.645a.168.168,0,0,1,.336,0v.646A.168.168,0,0,1,148.735,295.884Zm0-1.291h0a.168.168,0,0,1-.168-.168v-.646a.168.168,0,1,1,.336,0v.647A.168.168,0,0,1,148.736,294.592Zm0-1.292a.168.168,0,0,1-.168-.168v-.644a.17.17,0,0,1,.168-.169h0a.167.167,0,0,1,.168.167v.646A.168.168,0,0,1,148.737,293.3Z" transform="translate(-148.567 -292.32)" fill="#fff"/>
                  </g>
                  <g id="Grupo_987635" data-name="Grupo 987635" transform="translate(0.167 13.891)">
                    <path id="Trazado_645397" data-name="Trazado 645397" d="M149.148,321.655a.169.169,0,0,1-.167-.146c-.015-.112-.029-.224-.042-.336a.168.168,0,1,1,.333-.039c.013.11.027.22.042.33a.168.168,0,0,1-.145.189Z" transform="translate(-148.938 -320.986)" fill="#fff"/>
                  </g>
                </g>
                <g id="Grupo_987640" data-name="Grupo 987640" transform="translate(30.953 0.528)">
                  <g id="Grupo_987637" data-name="Grupo 987637" transform="translate(0.003)">
                    <path id="Trazado_645398" data-name="Trazado 645398" d="M202.51,263.077a.169.169,0,0,1-.168-.168v-.337a.168.168,0,0,1,.168-.167h0a.168.168,0,0,1,.168.168v.335A.168.168,0,0,1,202.51,263.077Z" transform="translate(-202.342 -262.405)" fill="#fff"/>
                  </g>
                  <g id="Grupo_987638" data-name="Grupo 987638" transform="translate(0 0.982)">
                    <path id="Trazado_645399" data-name="Trazado 645399" d="M202.6,277.19a.168.168,0,0,1-.167-.153c-.02-.214-.036-.431-.05-.648a.168.168,0,0,1,.157-.178.162.162,0,0,1,.178.157q.02.321.049.639a.167.167,0,0,1-.152.182Zm-.079-1.288a.168.168,0,0,1-.168-.166c0-.186,0-.4-.007-.647a.168.168,0,0,1,.167-.169h0a.168.168,0,0,1,.168.167c0,.243,0,.459.007.645a.168.168,0,0,1-.166.17Zm-.011-1.292a.169.169,0,0,1-.168-.167l0-.647a.168.168,0,0,1,.167-.168h0a.169.169,0,0,1,.168.168l0,.646a.169.169,0,0,1-.167.169Zm-.006-1.292a.169.169,0,0,1-.168-.168V272.5a.168.168,0,0,1,.167-.168h0a.168.168,0,0,1,.168.168v.646a.169.169,0,0,1-.167.169Zm0-1.292a.168.168,0,0,1-.168-.168v-.646a.168.168,0,0,1,.336,0v.646A.168.168,0,0,1,202.5,272.027Zm0-1.292a.168.168,0,0,1-.168-.168v-.646a.168.168,0,1,1,.336,0v.646A.168.168,0,0,1,202.5,270.735Zm0-1.291a.168.168,0,0,1-.168-.168v-.646a.168.168,0,0,1,.336,0v.646A.168.168,0,0,1,202.5,269.444Zm0-1.293h0a.168.168,0,0,1-.168-.168v-.645a.168.168,0,1,1,.336,0v.646A.168.168,0,0,1,202.5,268.151Zm0-1.291h0a.168.168,0,0,1-.168-.168v-.646a.168.168,0,1,1,.336,0v.647A.168.168,0,0,1,202.5,266.86Zm0-1.291h0a.169.169,0,0,1-.167-.168v-.646a.168.168,0,1,1,.336,0v.647A.168.168,0,0,1,202.5,265.568Z" transform="translate(-202.335 -264.586)" fill="#fff"/>
                  </g>
                  <g id="Grupo_987639" data-name="Grupo 987639" transform="translate(0.167 13.89)">
                    <path id="Trazado_645400" data-name="Trazado 645400" d="M202.916,293.923a.169.169,0,0,1-.167-.146c-.015-.111-.029-.223-.043-.335a.168.168,0,0,1,.146-.187.163.163,0,0,1,.187.146q.02.165.043.331a.169.169,0,0,1-.145.189Z" transform="translate(-202.705 -293.254)" fill="#fff"/>
                  </g>
                </g>
                <g id="Grupo_987644" data-name="Grupo 987644" transform="translate(18.848 10.214)">
                  <g id="Grupo_987641" data-name="Grupo 987641" transform="translate(0.002)">
                    <path id="Trazado_645401" data-name="Trazado 645401" d="M175.622,284.59a.168.168,0,0,1-.168-.168v-.336a.168.168,0,0,1,.336,0v.336A.168.168,0,0,1,175.622,284.59Z" transform="translate(-175.454 -283.918)" fill="#fff"/>
                  </g>
                  <g id="Grupo_987642" data-name="Grupo 987642" transform="translate(0 0.965)">
                    <path id="Trazado_645402" data-name="Trazado 645402" d="M175.717,294.585a.168.168,0,0,1-.167-.152c-.02-.21-.036-.421-.05-.634a.168.168,0,0,1,.157-.178.159.159,0,0,1,.178.157q.02.313.049.623a.168.168,0,0,1-.152.183Zm-.079-1.258a.169.169,0,0,1-.168-.167l-.008-.63a.168.168,0,0,1,.166-.17h0a.168.168,0,0,1,.168.166l.008.63a.169.169,0,0,1-.166.17Zm-.013-1.259a.168.168,0,0,1-.168-.167l0-.63a.168.168,0,0,1,.167-.169h0a.168.168,0,0,1,.168.167l0,.63a.168.168,0,0,1-.167.169Zm0-1.26a.169.169,0,0,1-.168-.167v-.63a.169.169,0,0,1,.168-.169h0a.168.168,0,0,1,.168.168v.63a.169.169,0,0,1-.168.168Zm0-1.259a.169.169,0,0,1-.168-.168v-.63a.168.168,0,0,1,.336,0v.63A.169.169,0,0,1,175.618,289.548Zm0-1.26h0a.168.168,0,0,1-.168-.168v-.629a.168.168,0,0,1,.336,0v.63A.168.168,0,0,1,175.618,288.288Zm0-1.26h0a.169.169,0,0,1-.168-.168v-.63a.168.168,0,0,1,.336,0v.631A.168.168,0,0,1,175.619,287.028Z" transform="translate(-175.45 -286.062)" fill="#fff"/>
                  </g>
                  <g id="Grupo_987643" data-name="Grupo 987643" transform="translate(0.165 9.777)">
                    <path id="Trazado_645403" data-name="Trazado 645403" d="M176.027,306.3a.169.169,0,0,1-.167-.146c-.015-.111-.029-.223-.043-.335a.168.168,0,1,1,.334-.04c.013.111.027.221.042.331a.169.169,0,0,1-.145.189Z" transform="translate(-175.816 -305.633)" fill="#fff"/>
                  </g>
                </g>
                <g id="Grupo_987645" data-name="Grupo 987645" transform="translate(6.331 11.803)">
                  <path id="Trazado_645404" data-name="Trazado 645404" d="M148.231,287.534c.321-.185.58-.062.58.274a1.228,1.228,0,0,1-.58.944c-.321.185-.58.063-.58-.274A1.226,1.226,0,0,1,148.231,287.534Z" transform="translate(-147.651 -287.448)" opacity="0.4"/>
                </g>
                <path id="Trazado_645405" data-name="Trazado 645405" d="M175.118,281.313c.321-.185.581-.062.581.274a1.228,1.228,0,0,1-.581.944c-.321.185-.58.063-.58-.274A1.229,1.229,0,0,1,175.118,281.313Z" transform="translate(-156.101 -272.224)" opacity="0.4"/>
                <path id="Trazado_645406" data-name="Trazado 645406" d="M202,261.32c.321-.185.581-.063.581.274a1.228,1.228,0,0,1-.581.945c-.321.185-.58.062-.58-.274A1.227,1.227,0,0,1,202,261.32Z" transform="translate(-170.877 -261.233)" opacity="0.4"/>
                <path id="Trazado_645407" data-name="Trazado 645407" d="M135.229,291.252a.168.168,0,0,0-.168-.29l-.439.253v-1.734l.607-.35a.168.168,0,0,0-.168-.291l-.439.254v-1.825a.168.168,0,0,0-.336,0v2.019l-.608.351a.168.168,0,1,0,.167.291l.44-.254v1.734l-.608.351a.168.168,0,0,0,.084.313.172.172,0,0,0,.084-.022l.441-.255v1.734l-.609.352a.168.168,0,1,0,.168.291l.441-.255v1.733l-.609.352a.168.168,0,1,0,.168.291l.442-.255v1.733l-.61.352a.168.168,0,1,0,.168.29l.442-.255v1.734l-.611.353a.168.168,0,1,0,.168.291l.443-.256v1.733l-.611.353a.168.168,0,1,0,.168.29l.44-.254c-.01.576,0,1.15.02,1.722l-.629.362a.168.168,0,0,0,.084.313.165.165,0,0,0,.084-.023l.481-.278c.036.63.09,1.257.169,1.875a.168.168,0,0,0,.167.146h.021a.168.168,0,0,0,.145-.188c-.085-.665-.143-1.339-.177-2.019l.578-.334a.168.168,0,1,0-.168-.29l-.425.245c-.021-.573-.027-1.149-.013-1.726l.605-.349a.168.168,0,1,0-.167-.291l-.436.252v-1.733l.6-.349a.168.168,0,1,0-.168-.29l-.437.252v-1.734l.605-.349a.168.168,0,0,0-.168-.291l-.437.253v-1.733l.606-.35a.168.168,0,1,0-.168-.29l-.438.253v-1.733l.606-.35a.168.168,0,0,0-.168-.291l-.438.253V291.6Z" transform="translate(-133.591 -275.453)" opacity="0.4"/>
              </g>
              <path id="Trazado_645408" data-name="Trazado 645408" d="M186.358,315.263l-32.251,18.62a3.139,3.139,0,0,1-3.589-.259,1.748,1.748,0,0,1,.654-2.764l32.241-18.615a2.944,2.944,0,0,1,3.456.391A1.589,1.589,0,0,1,186.358,315.263Z" transform="translate(-134.868 -251.125)" fill="#00c1ab"/>
              <g id="Grupo_987651" data-name="Grupo 987651" transform="translate(9.557 51.747)">
                <g id="Grupo_987647" data-name="Grupo 987647">
                  <path id="Trazado_645409" data-name="Trazado 645409" d="M137.769,313.347a.237.237,0,0,1-.118-.442l36.326-20.973a.237.237,0,1,1,.237.41l-36.326,20.973A.231.231,0,0,1,137.769,313.347Z" transform="translate(-137.532 -291.899)" opacity="0.4"/>
                </g>
                <g id="Grupo_987648" data-name="Grupo 987648" transform="translate(0.742 1.96)">
                  <path id="Trazado_645410" data-name="Trazado 645410" d="M139.418,317.7a.237.237,0,0,1-.118-.442l36.331-20.977a.237.237,0,0,1,.237.41l-36.332,20.977A.231.231,0,0,1,139.418,317.7Z" transform="translate(-139.181 -296.253)" opacity="0.4"/>
                </g>
                <g id="Grupo_987649" data-name="Grupo 987649" transform="translate(1.659 3.841)">
                  <path id="Trazado_645411" data-name="Trazado 645411" d="M141.453,321.884a.237.237,0,0,1-.118-.442l36.336-20.979a.237.237,0,1,1,.237.41l-36.336,20.979A.232.232,0,0,1,141.453,321.884Z" transform="translate(-141.216 -300.43)" opacity="0.4"/>
                </g>
                <g id="Grupo_987650" data-name="Grupo 987650" transform="translate(2.741 5.631)">
                  <path id="Trazado_645412" data-name="Trazado 645412" d="M143.857,325.861a.237.237,0,0,1-.118-.442l36.341-20.982a.237.237,0,0,1,.237.41l-36.342,20.982A.235.235,0,0,1,143.857,325.861Z" transform="translate(-143.62 -304.404)" opacity="0.4"/>
                </g>
              </g>
            </g>
          </g>
        </g>
        <g id="Grupo_987701" data-name="Grupo 987701" transform="translate(54.09 35.764)">
          <path id="Trazado_645414" data-name="Trazado 645414" d="M213.42,252.852,243.312,235.6a5.359,5.359,0,0,1,3.956-.633c1.016.411.822,1.473-.312,2.127l-30.24,17.456a4.161,4.161,0,0,1-3.649.235C212.163,254.3,212.287,253.506,213.42,252.852Z" transform="translate(-212.469 -234.795)" fill="#00c1ab"/>
          <path id="Trazado_645415" data-name="Trazado 645415" d="M221.991,260.574a.237.237,0,0,1-.118-.442l34.455-19.889a.237.237,0,0,1,.237.41l-34.455,19.889A.232.232,0,0,1,221.991,260.574Z" transform="translate(-217.573 -237.772)" opacity="0.4"/>
          <path id="Trazado_645416" data-name="Trazado 645416" d="M225.16,263.958a.237.237,0,0,1-.118-.442L259.549,243.6a.237.237,0,0,1,.237.41l-34.508,19.919A.237.237,0,0,1,225.16,263.958Z" transform="translate(-219.315 -239.617)" opacity="0.4"/>
          <g id="Grupo_987655" data-name="Grupo 987655" transform="translate(6.984 25.569)">
            <path id="Trazado_645417" data-name="Trazado 645417" d="M232.555,307.971h0a.169.169,0,0,1-.168-.168l.007-1.828c.005-1.376.005-1.376-.034-2.307l-.007-.154a22.316,22.316,0,0,0-1.227-6.23,17.383,17.383,0,0,0-3.106-5.427.168.168,0,1,1,.261-.211,17.684,17.684,0,0,1,3.162,5.528,22.639,22.639,0,0,1,1.246,6.323l.007.157c.041.938.041.938.034,2.323l-.006,1.828A.168.168,0,0,1,232.555,307.971Z" transform="translate(-227.981 -291.583)" opacity="0.4"/>
          </g>
          <path id="Trazado_645418" data-name="Trazado 645418" d="M236.642,284.739c-.153-.269-.319-.534-.495-.794a.533.533,0,0,1,.171-.78l13.165-7.6a.627.627,0,0,1,.839.2c.158.259.308.532.455.817a.636.636,0,0,1-.25.827l-13.092,7.559A.575.575,0,0,1,236.642,284.739Z" transform="translate(-225.43 -257.161)" fill="#00c1ab"/>
          <path id="Trazado_645419" data-name="Trazado 645419" d="M240.176,279.622q.148.454.271.9a.429.429,0,0,0,.662.277l31.237-18.03a.815.815,0,0,0,.363-.869q-.129-.469-.267-.9a.464.464,0,0,0-.7-.265L240.5,278.765A.756.756,0,0,0,240.176,279.622Z" transform="translate(-227.682 -249.012)" fill="#00c1ab"/>
          <path id="Trazado_645420" data-name="Trazado 645420" d="M240.176,279.622q.148.454.271.9a.429.429,0,0,0,.662.277l31.237-18.03a.815.815,0,0,0,.363-.869q-.129-.469-.267-.9a.464.464,0,0,0-.7-.265L240.5,278.765A.756.756,0,0,0,240.176,279.622Z" transform="translate(-227.682 -249.012)" fill="#fff" opacity="0.7"/>
          <path id="Trazado_645421" data-name="Trazado 645421" d="M242.23,295.936c.04.332.074.656.1.97a.339.339,0,0,0,.551.295l21.161-12.214a1.029,1.029,0,0,0,.473-.888q-.04-.486-.1-.967a.369.369,0,0,0-.593-.291l-21.155,12.211A.964.964,0,0,0,242.23,295.936Z" transform="translate(-228.827 -261.169)" fill="#00c1ab"/>
          <path id="Trazado_645422" data-name="Trazado 645422" d="M242.23,295.936c.04.332.074.656.1.97a.339.339,0,0,0,.551.295l21.161-12.214a1.029,1.029,0,0,0,.473-.888q-.04-.486-.1-.967a.369.369,0,0,0-.593-.291l-21.155,12.211A.964.964,0,0,0,242.23,295.936Z" transform="translate(-228.827 -261.169)" opacity="0.15"/>
          <path id="Trazado_645423" data-name="Trazado 645423" d="M242.618,314.036v.952c0,.327.23.46.513.3l9.059-5.23a1.134,1.134,0,0,0,.513-.889v-.951c0-.327-.23-.46-.513-.3l-9.059,5.23A1.134,1.134,0,0,0,242.618,314.036Z" transform="translate(-229.043 -274.955)" fill="#00c1ab"/>
          <path id="Trazado_645424" data-name="Trazado 645424" d="M242.618,314.036v.952c0,.327.23.46.513.3l9.059-5.23a1.134,1.134,0,0,0,.513-.889v-.951c0-.327-.23-.46-.513-.3l-9.059,5.23A1.134,1.134,0,0,0,242.618,314.036Z" transform="translate(-229.043 -274.955)" fill="#fff" opacity="0.5"/>
          <path id="Trazado_645425" data-name="Trazado 645425" d="M274.488,288.184a.169.169,0,0,0-.168.168v.815l-2.414,1.394v-.61a.168.168,0,1,0-.336,0v.8l-2.415,1.394v-.6a.168.168,0,1,0-.336,0v.793l-2.414,1.394v-.588a.168.168,0,0,0-.336,0v.782l-2.415,1.394v-.577a.168.168,0,0,0-.336,0v.771l-2.415,1.394v-.566a.168.168,0,1,0-.336,0v.76l-2.414,1.394v-.555a.168.168,0,1,0-.336,0v.749l-2.414,1.394v-.545a.168.168,0,0,0-.336,0v.739l-2.415,1.394v-.534a.168.168,0,1,0-.336,0v.728l-2.414,1.394v-.523a.168.168,0,0,0-.336,0v.717l-2.414,1.394v-.512a.168.168,0,1,0-.336,0v.706l-2.415,1.394v-.5a.168.168,0,0,0-.336,0v.695l-2.1,1.209a.168.168,0,0,0,.084.313.165.165,0,0,0,.084-.023l1.928-1.113v.682a.168.168,0,0,0,.336,0v-.876l2.415-1.394v.671a.168.168,0,0,0,.336,0v-.865l2.414-1.394v.661a.168.168,0,0,0,.336,0v-.855l2.414-1.394v.65a.168.168,0,0,0,.336,0v-.844l2.415-1.394v.638a.168.168,0,1,0,.336,0v-.833l2.414-1.394v.628a.168.168,0,1,0,.336,0v-.822l2.414-1.394v.617a.168.168,0,0,0,.336,0V297.3l2.415-1.394v.606a.168.168,0,0,0,.336,0v-.8l2.415-1.394v.6a.168.168,0,0,0,.336,0v-.789l2.414-1.394v.584a.168.168,0,1,0,.336,0v-.779l2.415-1.394v.574a.168.168,0,0,0,.336,0v-.768l2.414-1.394v.562a.168.168,0,1,0,.336,0v-1.765A.169.169,0,0,0,274.488,288.184Z" transform="translate(-228.639 -264.145)" opacity="0.4"/>
          <g id="Grupo_987659" data-name="Grupo 987659" transform="translate(11.566 46.099)">
            <g id="Grupo_987656" data-name="Grupo 987656">
              <path id="Trazado_645426" data-name="Trazado 645426" d="M245.963,337.375a5.93,5.93,0,0,0-1.759.711c-3.342,1.962-6.048,6.873-6.048,10.968,0,.109,0,.213,0,.317l6.039-2.763Z" transform="translate(-238.156 -337.286)" fill="#00c1ab"/>
              <path id="Trazado_645427" data-name="Trazado 645427" d="M253.342,337.266l-1.763,9.234,5.987-3.475a9.966,9.966,0,0,0,.066-1.118C257.632,338.536,255.826,336.745,253.342,337.266Z" transform="translate(-245.535 -337.177)" fill="#00c1ab"/>
              <path id="Trazado_645428" data-name="Trazado 645428" d="M256.807,353.28a12.883,12.883,0,0,0,.759-3.115l-5.987,3.475Z" transform="translate(-245.535 -344.317)" fill="#00c1ab"/>
              <path id="Trazado_645429" data-name="Trazado 645429" d="M238.167,360.205c.137,3.873,2.792,5.489,6.043,3.612a13.181,13.181,0,0,0,5.224-6.736l-5.228.36Z" transform="translate(-238.162 -348.119)" fill="#00c1ab"/>
            </g>
            <g id="Grupo_987657" data-name="Grupo 987657" transform="translate(0.005)">
              <path id="Trazado_645430" data-name="Trazado 645430" d="M253.342,337.266l-1.763,9.234,5.987-3.475a9.966,9.966,0,0,0,.066-1.118C257.632,338.536,255.826,336.745,253.342,337.266Z" transform="translate(-245.54 -337.177)" fill="#fff" opacity="0.7"/>
              <path id="Trazado_645431" data-name="Trazado 645431" d="M256.807,353.28a12.883,12.883,0,0,0,.759-3.115l-5.987,3.475Z" transform="translate(-245.54 -344.317)" opacity="0.15"/>
              <path id="Trazado_645432" data-name="Trazado 645432" d="M238.167,360.205c.137,3.873,2.792,5.489,6.043,3.612a13.181,13.181,0,0,0,5.224-6.736l-5.228.36Z" transform="translate(-238.167 -348.119)" fill="#fff" opacity="0.5"/>
            </g>
            <g id="Grupo_987658" data-name="Grupo 987658">
              <path id="Trazado_645433" data-name="Trazado 645433" d="M245.963,337.375a5.93,5.93,0,0,0-1.759.711c-3.342,1.962-6.048,6.873-6.048,10.968,0,.109,0,.213,0,.317l6.039-2.763Z" transform="translate(-238.156 -337.286)" fill="none" stroke="#fff" stroke-linecap="round" stroke-linejoin="round" stroke-width="1.053"/>
              <path id="Trazado_645434" data-name="Trazado 645434" d="M253.342,337.266l-1.763,9.234,5.987-3.475a9.966,9.966,0,0,0,.066-1.118C257.632,338.536,255.826,336.745,253.342,337.266Z" transform="translate(-245.535 -337.177)" fill="none" stroke="#fff" stroke-linecap="round" stroke-linejoin="round" stroke-width="1.053"/>
              <path id="Trazado_645435" data-name="Trazado 645435" d="M256.807,353.28a12.883,12.883,0,0,0,.759-3.115l-5.987,3.475Z" transform="translate(-245.535 -344.317)" fill="none" stroke="#fff" stroke-linecap="round" stroke-linejoin="round" stroke-width="1.053"/>
              <path id="Trazado_645436" data-name="Trazado 645436" d="M238.167,360.205c.137,3.873,2.792,5.489,6.043,3.612a13.181,13.181,0,0,0,5.224-6.736l-5.228.36Z" transform="translate(-238.162 -348.119)" fill="none" stroke="#fff" stroke-linecap="round" stroke-linejoin="round" stroke-width="1.053"/>
            </g>
          </g>
          <g id="Grupo_987660" data-name="Grupo 987660" transform="translate(33.75 33.244)">
            <path id="Trazado_645437" data-name="Trazado 645437" d="M290.737,315.678a14.3,14.3,0,0,0-3.313,8.589,6.168,6.168,0,0,0,.763,3.2l5.285-6.7Z" transform="translate(-287.424 -312.503)" fill="#00c1ab"/>
            <path id="Trazado_645438" data-name="Trazado 645438" d="M300.247,308.631a5.046,5.046,0,0,0-2.73.777,10.317,10.317,0,0,0-2.735,2.394l2.735,5.091Z" transform="translate(-291.469 -308.627)" fill="#00c1ab"/>
            <path id="Trazado_645439" data-name="Trazado 645439" d="M306.345,310.57a3.16,3.16,0,0,0-2.759-1.934l-2.73,8.262Z" transform="translate(-294.808 -308.632)" fill="#00c1ab"/>
            <path id="Trazado_645440" data-name="Trazado 645440" d="M299.893,312.931l-5.489,6.328-5.285,6.7c1.038,1.688,3.015,2.1,5.285.782,3.342-1.929,6.053-6.844,6.053-10.982A6.534,6.534,0,0,0,299.893,312.931Z" transform="translate(-288.356 -310.993)" fill="#00c1ab"/>
          </g>
          <g id="Grupo_987661" data-name="Grupo 987661" transform="translate(34.513 33.244)">
            <path id="Trazado_645441" data-name="Trazado 645441" d="M300.247,308.631a5.046,5.046,0,0,0-2.73.777,10.317,10.317,0,0,0-2.735,2.394l2.735,5.091Z" transform="translate(-292.232 -308.627)" fill="#fff" opacity="0.7"/>
            <path id="Trazado_645442" data-name="Trazado 645442" d="M306.345,310.57a3.16,3.16,0,0,0-2.759-1.934l-2.73,8.262Z" transform="translate(-295.571 -308.632)" opacity="0.15"/>
            <path id="Trazado_645443" data-name="Trazado 645443" d="M299.893,312.931l-5.489,6.328-5.285,6.7c1.038,1.688,3.015,2.1,5.285.782,3.342-1.929,6.053-6.844,6.053-10.982A6.534,6.534,0,0,0,299.893,312.931Z" transform="translate(-289.119 -310.993)" fill="#fff" opacity="0.5"/>
          </g>
          <g id="Grupo_987662" data-name="Grupo 987662" transform="translate(33.75 33.244)">
            <path id="Trazado_645444" data-name="Trazado 645444" d="M290.737,315.678a14.3,14.3,0,0,0-3.313,8.589,6.168,6.168,0,0,0,.763,3.2l5.285-6.7Z" transform="translate(-287.424 -312.503)" fill="none" stroke="#fff" stroke-linecap="round" stroke-linejoin="round" stroke-width="1.053"/>
            <path id="Trazado_645445" data-name="Trazado 645445" d="M300.247,308.631a5.046,5.046,0,0,0-2.73.777,10.317,10.317,0,0,0-2.735,2.394l2.735,5.091Z" transform="translate(-291.469 -308.627)" fill="none" stroke="#fff" stroke-linecap="round" stroke-linejoin="round" stroke-width="1.053"/>
            <path id="Trazado_645446" data-name="Trazado 645446" d="M306.345,310.57a3.16,3.16,0,0,0-2.759-1.934l-2.73,8.262Z" transform="translate(-294.808 -308.632)" fill="none" stroke="#fff" stroke-linecap="round" stroke-linejoin="round" stroke-width="1.053"/>
            <path id="Trazado_645447" data-name="Trazado 645447" d="M299.893,312.931l-5.489,6.328-5.285,6.7c1.038,1.688,3.015,2.1,5.285.782,3.342-1.929,6.053-6.844,6.053-10.982A6.534,6.534,0,0,0,299.893,312.931Z" transform="translate(-288.356 -310.993)" fill="none" stroke="#fff" stroke-linecap="round" stroke-linejoin="round" stroke-width="1.053"/>
          </g>
          <g id="Grupo_987667" data-name="Grupo 987667" transform="translate(25.679 41.255)">
            <g id="Grupo_987663" data-name="Grupo 987663">
              <path id="Trazado_645448" data-name="Trazado 645448" d="M270.014,327.06l.991-.572c.284-.163.513-.031.513.3v.952a1.133,1.133,0,0,1-.513.888l-.991.572c-.283.163-.513.031-.513-.3v-.951A1.135,1.135,0,0,1,270.014,327.06Z" transform="translate(-269.501 -326.419)" fill="#00c1ab"/>
            </g>
            <g id="Grupo_987664" data-name="Grupo 987664" transform="translate(0 4.27)">
              <path id="Trazado_645449" data-name="Trazado 645449" d="M270.014,336.544l.991-.572c.284-.163.513-.031.513.3v.951a1.134,1.134,0,0,1-.513.889l-.991.572c-.283.163-.513.031-.513-.3v-.952A1.134,1.134,0,0,1,270.014,336.544Z" transform="translate(-269.501 -335.902)" fill="#00c1ab"/>
              <path id="Trazado_645450" data-name="Trazado 645450" d="M270.014,336.544l.991-.572c.284-.163.513-.031.513.3v.951a1.134,1.134,0,0,1-.513.889l-.991.572c-.283.163-.513.031-.513-.3v-.952A1.134,1.134,0,0,1,270.014,336.544Z" transform="translate(-269.501 -335.902)" fill="#fff" opacity="0.7"/>
            </g>
            <g id="Grupo_987665" data-name="Grupo 987665" transform="translate(0 8.54)">
              <path id="Trazado_645451" data-name="Trazado 645451" d="M270.014,346.027l.991-.572c.284-.164.513-.031.513.3v.951a1.134,1.134,0,0,1-.513.889l-.991.572c-.283.163-.513.031-.513-.3v-.952A1.134,1.134,0,0,1,270.014,346.027Z" transform="translate(-269.501 -345.385)" fill="#00c1ab"/>
              <path id="Trazado_645452" data-name="Trazado 645452" d="M270.014,346.027l.991-.572c.284-.164.513-.031.513.3v.951a1.134,1.134,0,0,1-.513.889l-.991.572c-.283.163-.513.031-.513-.3v-.952A1.134,1.134,0,0,1,270.014,346.027Z" transform="translate(-269.501 -345.385)" opacity="0.15"/>
            </g>
            <g id="Grupo_987666" data-name="Grupo 987666" transform="translate(0 12.81)">
              <path id="Trazado_645453" data-name="Trazado 645453" d="M270.014,355.51l.991-.572c.284-.163.513-.031.513.3v.952a1.134,1.134,0,0,1-.513.888l-.991.572c-.283.164-.513.031-.513-.3V356.4A1.134,1.134,0,0,1,270.014,355.51Z" transform="translate(-269.501 -354.868)" fill="#00c1ab"/>
              <path id="Trazado_645454" data-name="Trazado 645454" d="M270.014,355.51l.991-.572c.284-.163.513-.031.513.3v.952a1.134,1.134,0,0,1-.513.888l-.991.572c-.283.164-.513.031-.513-.3V356.4A1.134,1.134,0,0,1,270.014,355.51Z" transform="translate(-269.501 -354.868)" fill="#fff" opacity="0.5"/>
            </g>
          </g>
          <g id="Grupo_987668" data-name="Grupo 987668" transform="translate(28.378 39.386)">
            <path id="Trazado_645455" data-name="Trazado 645455" d="M275.831,324.681a.336.336,0,0,1-.168-.627l3.015-1.74a.336.336,0,1,1,.336.581L276,324.635A.332.332,0,0,1,275.831,324.681Z" transform="translate(-275.495 -322.269)" opacity="0.4"/>
          </g>
          <g id="Grupo_987669" data-name="Grupo 987669" transform="translate(28.332 43.699)">
            <path id="Trazado_645456" data-name="Trazado 645456" d="M275.728,334.26a.336.336,0,0,1-.168-.627l3.015-1.741a.336.336,0,1,1,.336.581l-3.015,1.741A.335.335,0,0,1,275.728,334.26Z" transform="translate(-275.392 -331.847)" opacity="0.4"/>
          </g>
          <g id="Grupo_987670" data-name="Grupo 987670" transform="translate(28.286 48.012)">
            <path id="Trazado_645457" data-name="Trazado 645457" d="M275.626,343.838a.336.336,0,0,1-.169-.627l3.015-1.741a.336.336,0,1,1,.336.582l-3.015,1.74A.335.335,0,0,1,275.626,343.838Z" transform="translate(-275.289 -341.426)" opacity="0.4"/>
          </g>
          <g id="Grupo_987671" data-name="Grupo 987671" transform="translate(28.239 52.325)">
            <path id="Trazado_645458" data-name="Trazado 645458" d="M275.522,353.416a.336.336,0,0,1-.169-.627l3.015-1.74a.336.336,0,1,1,.336.582l-3.015,1.74A.343.343,0,0,1,275.522,353.416Z" transform="translate(-275.185 -351.004)" opacity="0.4"/>
          </g>
          <g id="Grupo_987675" data-name="Grupo 987675" transform="translate(11.606 61.088)">
            <g id="Grupo_987672" data-name="Grupo 987672">
              <path id="Trazado_645459" data-name="Trazado 645459" d="M238.581,379.288a.336.336,0,0,1-.168-.627l14.119-8.149a.336.336,0,1,1,.336.582l-14.12,8.149A.339.339,0,0,1,238.581,379.288Z" transform="translate(-238.245 -370.467)" opacity="0.4"/>
            </g>
            <g id="Grupo_987673" data-name="Grupo 987673" transform="translate(0.455 2.09)">
              <path id="Trazado_645460" data-name="Trazado 645460" d="M239.592,383.93a.336.336,0,0,1-.169-.627l14.12-8.149a.336.336,0,0,1,.336.582l-14.119,8.149A.344.344,0,0,1,239.592,383.93Z" transform="translate(-239.255 -375.11)" opacity="0.4"/>
            </g>
            <g id="Grupo_987674" data-name="Grupo 987674" transform="translate(1.105 4.112)">
              <path id="Trazado_645461" data-name="Trazado 645461" d="M241.036,388.421a.336.336,0,0,1-.168-.627l14.119-8.149a.336.336,0,1,1,.336.582l-14.12,8.149A.339.339,0,0,1,241.036,388.421Z" transform="translate(-240.7 -379.6)" opacity="0.4"/>
            </g>
          </g>
          <g id="Grupo_987679" data-name="Grupo 987679" transform="translate(33.769 48.298)">
            <g id="Grupo_987676" data-name="Grupo 987676">
              <path id="Trazado_645462" data-name="Trazado 645462" d="M287.8,350.882a.336.336,0,0,1-.168-.627l14.119-8.149a.336.336,0,0,1,.336.582l-14.119,8.149A.335.335,0,0,1,287.8,350.882Z" transform="translate(-287.467 -342.061)" opacity="0.4"/>
            </g>
            <g id="Grupo_987677" data-name="Grupo 987677" transform="translate(0.454 2.09)">
              <path id="Trazado_645463" data-name="Trazado 645463" d="M288.812,355.523a.336.336,0,0,1-.168-.627l14.12-8.149a.336.336,0,0,1,.336.582l-14.12,8.149A.341.341,0,0,1,288.812,355.523Z" transform="translate(-288.476 -346.702)" opacity="0.4"/>
            </g>
            <g id="Grupo_987678" data-name="Grupo 987678" transform="translate(1.105 4.112)">
              <path id="Trazado_645464" data-name="Trazado 645464" d="M290.258,360.014a.336.336,0,0,1-.168-.627l14.119-8.149a.336.336,0,1,1,.336.582l-14.119,8.149A.339.339,0,0,1,290.258,360.014Z" transform="translate(-289.922 -351.193)" opacity="0.4"/>
            </g>
          </g>
          <path id="Trazado_645465" data-name="Trazado 645465" d="M248.566,381.167l32.19-18.577a2.476,2.476,0,0,1,3.225.578,1.892,1.892,0,0,1-.725,2.833l-32.2,18.583a2.664,2.664,0,0,1-3.382-.462A2.075,2.075,0,0,1,248.566,381.167Z" transform="translate(-231.642 -304.854)" fill="#00c1ab"/>
          <g id="Grupo_987683" data-name="Grupo 987683" transform="translate(20.132 75.352)">
            <g id="Grupo_987680" data-name="Grupo 987680" transform="translate(1.766 1.246)">
              <path id="Trazado_645466" data-name="Trazado 645466" d="M261.44,413.73a.336.336,0,0,1-.169-.627l14.118-8.148a.336.336,0,1,1,.336.582l-14.118,8.148A.344.344,0,0,1,261.44,413.73Z" transform="translate(-261.103 -404.911)" opacity="0.4"/>
            </g>
            <g id="Grupo_987681" data-name="Grupo 987681">
              <path id="Trazado_645467" data-name="Trazado 645467" d="M257.516,410.964a.336.336,0,0,1-.168-.627l14.118-8.148a.336.336,0,1,1,.336.582l-14.118,8.148A.339.339,0,0,1,257.516,410.964Z" transform="translate(-257.18 -402.145)" opacity="0.4"/>
            </g>
            <g id="Grupo_987682" data-name="Grupo 987682" transform="translate(3.623 2.344)">
              <path id="Trazado_645468" data-name="Trazado 645468" d="M265.563,416.17a.336.336,0,0,1-.168-.627l14.118-8.148a.336.336,0,0,1,.336.582l-14.119,8.148A.338.338,0,0,1,265.563,416.17Z" transform="translate(-265.227 -407.351)" opacity="0.4"/>
            </g>
          </g>
          <g id="Grupo_987687" data-name="Grupo 987687" transform="translate(40.29 63.719)">
            <g id="Grupo_987684" data-name="Grupo 987684" transform="translate(1.766 1.246)">
              <path id="Trazado_645469" data-name="Trazado 645469" d="M306.209,387.894a.336.336,0,0,1-.168-.627l14.118-8.148a.336.336,0,1,1,.336.582l-14.119,8.148A.343.343,0,0,1,306.209,387.894Z" transform="translate(-305.873 -379.075)" opacity="0.4"/>
            </g>
            <g id="Grupo_987685" data-name="Grupo 987685">
              <path id="Trazado_645470" data-name="Trazado 645470" d="M302.286,385.128a.336.336,0,0,1-.168-.627l14.118-8.147a.336.336,0,0,1,.336.582l-14.118,8.148A.34.34,0,0,1,302.286,385.128Z" transform="translate(-301.95 -376.309)" opacity="0.4"/>
            </g>
            <g id="Grupo_987686" data-name="Grupo 987686" transform="translate(3.623 2.344)">
              <path id="Trazado_645471" data-name="Trazado 645471" d="M310.333,390.334a.336.336,0,0,1-.169-.627l14.119-8.148a.336.336,0,1,1,.336.583L310.5,390.289A.34.34,0,0,1,310.333,390.334Z" transform="translate(-309.996 -381.515)" opacity="0.4"/>
            </g>
          </g>
          <g id="Grupo_987691" data-name="Grupo 987691" transform="translate(30.199 78.008)">
            <g id="Grupo_987688" data-name="Grupo 987688" transform="translate(0 5.785)">
              <path id="Trazado_645472" data-name="Trazado 645472" d="M293.8,422.139c-3.065-1.77-8.26-1.642-11.6.286s-3.566,4.927-.5,6.7,8.26,1.643,11.6-.286S296.867,423.909,293.8,422.139Zm-2.087,5.782a9.179,9.179,0,0,1-8.287.2c-2.19-1.265-2.03-3.407.358-4.784a9.177,9.177,0,0,1,8.287-.2C294.262,424.4,294.1,426.543,291.715,427.921Z" transform="translate(-279.539 -420.891)" fill="#00c1ab"/>
              <path id="Trazado_645473" data-name="Trazado 645473" d="M291.1,427.564a5.508,5.508,0,0,1,4.972-.122c1.313.759,1.217,2.044-.215,2.87a5.507,5.507,0,0,1-4.972.122C289.573,429.676,289.669,428.391,291.1,427.564Z" transform="translate(-285.268 -424.198)" fill="#00c1ab"/>
            </g>
            <path id="Trazado_645474" data-name="Trazado 645474" d="M291.1,427.564a5.508,5.508,0,0,1,4.972-.122c1.313.759,1.217,2.044-.215,2.87a5.507,5.507,0,0,1-4.972.122C289.573,429.676,289.669,428.391,291.1,427.564Z" transform="translate(-285.268 -418.413)" opacity="0.5"/>
            <path id="Trazado_645475" data-name="Trazado 645475" d="M293.8,422.139c-3.065-1.77-8.26-1.642-11.6.286s-3.566,4.927-.5,6.7,8.26,1.643,11.6-.286S296.867,423.909,293.8,422.139Zm-2.087,5.782a9.179,9.179,0,0,1-8.287.2c-2.19-1.265-2.03-3.407.358-4.784a9.177,9.177,0,0,1,8.287-.2C294.262,424.4,294.1,426.543,291.715,427.921Z" transform="translate(-279.539 -415.106)" opacity="0.15"/>
            <g id="Grupo_987689" data-name="Grupo 987689" transform="translate(5.754 5.789)">
              <path id="Trazado_645476" data-name="Trazado 645476" d="M292.318,421.255l.7,1.252a9.965,9.965,0,0,1,4.108-.077l.945-1.281A13.955,13.955,0,0,0,292.318,421.255Z" transform="translate(-292.318 -420.899)" fill="#00c1ab"/>
              <path id="Trazado_645477" data-name="Trazado 645477" d="M292.318,421.255l.7,1.252a9.965,9.965,0,0,1,4.108-.077l.945-1.281A13.955,13.955,0,0,0,292.318,421.255Z" transform="translate(-292.318 -420.899)" fill="#fff" opacity="0.7"/>
            </g>
            <g id="Grupo_987690" data-name="Grupo 987690" transform="translate(8.295)">
              <path id="Trazado_645478" data-name="Trazado 645478" d="M298.3,413.568h-.02a.335.335,0,0,1-.315-.355l.091-1.542,6.207-3.583a.336.336,0,1,1,.336.582l-5.894,3.4-.07,1.181A.335.335,0,0,1,298.3,413.568Z" transform="translate(-297.963 -408.043)" opacity="0.4"/>
            </g>
          </g>
          <g id="Grupo_987696" data-name="Grupo 987696" transform="translate(48.348 67.505)">
            <g id="Grupo_987695" data-name="Grupo 987695">
              <g id="Grupo_987692" data-name="Grupo 987692" transform="translate(0 5.818)">
                <path id="Trazado_645479" data-name="Trazado 645479" d="M334.108,398.889c-3.066-1.77-8.26-1.643-11.6.286s-3.566,4.927-.5,6.7,8.26,1.642,11.6-.286S337.173,400.659,334.108,398.889Zm-2.087,5.781a9.177,9.177,0,0,1-8.287.2c-2.19-1.264-2.03-3.406.357-4.784a9.178,9.178,0,0,1,8.287-.2C334.568,401.151,334.408,403.293,332.021,404.67Z" transform="translate(-319.845 -397.64)" fill="#00c1ab"/>
                <path id="Trazado_645480" data-name="Trazado 645480" d="M331.407,404.314a5.506,5.506,0,0,1,4.972-.123c1.314.759,1.218,2.044-.214,2.87a5.507,5.507,0,0,1-4.972.123C329.879,406.425,329.974,405.14,331.407,404.314Z" transform="translate(-325.574 -400.947)" fill="#00c1ab"/>
              </g>
              <path id="Trazado_645481" data-name="Trazado 645481" d="M331.407,404.314a5.506,5.506,0,0,1,4.972-.123c1.314.759,1.218,2.044-.214,2.87a5.507,5.507,0,0,1-4.972.123C329.879,406.425,329.974,405.14,331.407,404.314Z" transform="translate(-325.574 -395.129)" opacity="0.5"/>
              <path id="Trazado_645482" data-name="Trazado 645482" d="M334.108,398.889c-3.066-1.77-8.26-1.643-11.6.286s-3.566,4.927-.5,6.7,8.26,1.642,11.6-.286S337.173,400.659,334.108,398.889Zm-2.087,5.781a9.177,9.177,0,0,1-8.287.2c-2.19-1.264-2.03-3.406.357-4.784a9.178,9.178,0,0,1,8.287-.2C334.568,401.151,334.408,403.293,332.021,404.67Z" transform="translate(-319.845 -391.822)" opacity="0.15"/>
              <g id="Grupo_987693" data-name="Grupo 987693" transform="translate(4.337 5.821)">
                <path id="Trazado_645483" data-name="Trazado 645483" d="M339.4,398.892c-2.59-1.5-6.7-1.631-9.925-.476l1.108,1.133a9.122,9.122,0,0,1,7.089.339,3.889,3.889,0,0,1,.841.645l2.066-.738A5.429,5.429,0,0,0,339.4,398.892Z" transform="translate(-329.478 -397.647)" fill="#00c1ab"/>
                <path id="Trazado_645484" data-name="Trazado 645484" d="M339.4,398.892c-2.59-1.5-6.7-1.631-9.925-.476l1.108,1.133a9.122,9.122,0,0,1,7.089.339,3.889,3.889,0,0,1,.841.645l2.066-.738A5.429,5.429,0,0,0,339.4,398.892Z" transform="translate(-329.478 -397.647)" fill="#fff" opacity="0.7"/>
              </g>
              <g id="Grupo_987694" data-name="Grupo 987694" transform="translate(8.347)">
                <path id="Trazado_645485" data-name="Trazado 645485" d="M338.719,390.244h-.02a.336.336,0,0,1-.315-.355l.091-1.542,6.207-3.582a.336.336,0,1,1,.336.582l-5.894,3.4-.071,1.181A.336.336,0,0,1,338.719,390.244Z" transform="translate(-338.383 -384.719)" opacity="0.4"/>
              </g>
            </g>
          </g>
          <g id="Grupo_987700" data-name="Grupo 987700" transform="translate(40.406 75.673)">
            <g id="Grupo_987697" data-name="Grupo 987697">
              <path id="Trazado_645486" data-name="Trazado 645486" d="M302.545,423.317a.336.336,0,0,1-.168-.627L336.666,402.9a.336.336,0,1,1,.336.582l-34.29,19.787A.342.342,0,0,1,302.545,423.317Z" transform="translate(-302.209 -402.859)" opacity="0.4"/>
            </g>
            <g id="Grupo_987698" data-name="Grupo 987698" transform="translate(1.854 1.066)">
              <path id="Trazado_645487" data-name="Trazado 645487" d="M306.663,425.685a.336.336,0,0,1-.168-.627l34.29-19.787a.336.336,0,1,1,.336.582L306.831,425.64A.341.341,0,0,1,306.663,425.685Z" transform="translate(-306.327 -405.227)" opacity="0.4"/>
            </g>
            <g id="Grupo_987699" data-name="Grupo 987699" transform="translate(3.705 2.134)">
              <path id="Trazado_645488" data-name="Trazado 645488" d="M310.773,428.058a.336.336,0,0,1-.168-.627l34.29-19.787a.336.336,0,1,1,.336.582l-34.289,19.787A.341.341,0,0,1,310.773,428.058Z" transform="translate(-310.437 -407.599)" opacity="0.4"/>
            </g>
          </g>
        </g>
      </g>
    </g>
  </g>
</svg>
