<svg xmlns="http://www.w3.org/2000/svg" width="84.815" height="87.67" viewBox="0 0 84.815 87.67">
  <g id="Grupo_986867" data-name="Grupo 986867" transform="translate(-607.947 -36.153)">
    <path id="Trazado_644790" data-name="Trazado 644790" d="M699.672,54.322q0-1.546.01-3.091a1.917,1.917,0,0,1,.438-.024c.794.136,1.031-.166,1-.978-.068-1.764.014-3.534-.039-5.3-.02-.671.169-.814.822-.813q14.753.034,29.507,0c.674,0,.813.178.809.824-.03,4.74-.017,9.481-.016,14.222,0,1.5.438,1.934,1.948,1.935,4.682,0,9.365.023,14.047-.021.816-.007.99.216.989,1q-.036,25.175,0,50.35c0,.81-.209.993-1,.991q-19.966-.039-39.931-.019c-1.458,0-1.458,0-1.531,1.418h-2.77a1.5,1.5,0,0,0-1.337-1.416c-.5-.078-1.191.28-1.461-.2-.228-.4-.055-1.033-.057-1.563a8.787,8.787,0,0,0-.007-.97c-.059-.5.128-.69.634-.824Q718.565,105.421,723,88.573c.136-.518.342-.641.833-.626,1.147.034,2.3.011,3.444.011,2.14,0,2.11,0,2.123-2.144,0-.627-.228-.706-.757-.7-1.471.03-2.944-.016-4.415.024-.576.016-.653-.158-.607-.7a26.08,26.08,0,0,0-1.769-12.194C717.756,62.224,710.306,56.288,699.672,54.322Zm39.6,30.807h-4.942c-2.153,0-2.128,0-2.138,2.124,0,.591.173.72.735.716,3.765-.024,7.531-.012,11.3-.012,2.187,0,2.169,0,2.136-2.212-.007-.508-.157-.631-.644-.626C743.564,85.143,741.417,85.129,739.269,85.129Zm1.33-8.482h3.617c2.155,0,2.132,0,2.142-2.119,0-.581-.158-.728-.729-.722-2.823.03-5.647.013-8.47.013-2.189,0-2.171,0-2.14,2.207.007.5.144.64.639.631C737.3,76.628,738.952,76.647,740.6,76.647Zm-7-5.655h2.117c2.2,0,2.169,0,2.161-2.188,0-.591-.217-.655-.712-.649-1.881.025-3.763.01-5.645.01-2.2,0-2.169,0-2.161,2.188,0,.591.216.662.712.649C731.246,70.971,732.423,70.992,733.6,70.992Zm-5.716,5.655h2.205c2.182,0,2.163,0,2.13-2.216-.008-.513-.166-.627-.648-.621-1.911.025-3.822.01-5.733.01-2.246,0-2.232,0-2.129,2.3.019.435.151.539.559.531C725.472,76.632,726.678,76.647,727.883,76.647Zm2.91,2.827h-2.117c-2.188,0-2.171,0-2.141,2.2.007.5.136.641.636.634,1.911-.028,3.822-.012,5.733-.012,2.248,0,2.235,0,2.139-2.293-.017-.419-.122-.552-.546-.543C733.263,79.491,732.028,79.475,730.793,79.474ZM742.051,82.3h2.205c2.125,0,2.1,0,2.1-2.157,0-.538-.124-.7-.678-.684-1.881.037-3.763.014-5.645.014-2.255,0-2.241,0-2.187,2.246.011.453.118.6.587.592C739.64,82.28,740.846,82.3,742.051,82.3Zm-8.431,15.55h2.117c2.186,0,2.168,0,2.136-2.209-.007-.5-.148-.636-.64-.629-1.911.027-3.822.011-5.733.011-2.247,0-2.233,0-2.135,2.3.018.425.133.547.551.538C731.15,97.836,732.385,97.852,733.62,97.852Zm.086,2.827H731.5c-2.187,0-2.169,0-2.138,2.207.007.5.143.638.638.631,1.911-.028,3.822-.011,5.733-.011,2.247,0,2.234,0,2.137-2.3-.018-.422-.129-.549-.549-.54C736.118,100.7,734.912,100.679,733.706,100.679Zm9.721-29.687h.793c2.245,0,2.245,0,2.122-2.295a.519.519,0,0,1,0-.088c.046-.345-.107-.453-.448-.45q-2.38.021-4.76,0c-.341,0-.428.111-.458.449-.211,2.385-.22,2.384,2.133,2.384Zm-18.24-2.827c-1.466,0-1.466,0-1.466,1.45,0,1.377,0,1.377,1.362,1.377,1.466,0,1.466,0,1.466-1.45C726.549,68.165,726.549,68.165,725.187,68.165Zm-7.121-9.872c0-1.438,0-1.438-1.478-1.438-1.349,0-1.349,0-1.349,1.389,0,1.438,0,1.438,1.478,1.438C718.066,59.683,718.066,59.683,718.066,58.294Z" transform="translate(-59.245 -5.143)" fill="#ecdda3"/>
    <path id="Trazado_644791" data-name="Trazado 644791" d="M640.427,72.386c10.634,1.966,18.084,7.9,22.175,17.928a26.08,26.08,0,0,1,1.769,12.194c-.046.541.031.714.607.7,1.471-.04,2.943.006,4.415-.024.53-.011.761.068.757.7-.012,2.144.017,2.144-2.123,2.144-1.148,0-2.3.023-3.444-.011-.491-.015-.7.108-.833.626q-4.417,16.84-21.268,21.276c-.506.133-.693.32-.634.824a8.772,8.772,0,0,1,.007.97c0,.53-.17,1.16.057,1.563.27.478.96.121,1.461.2a1.5,1.5,0,0,1,1.337,1.416q-.014,4.9-.027,9.8c0,1.464,0,1.464-1.408,1.531a1.417,1.417,0,0,0-.35-.022c-.884.163-1.118-.182-1.1-1.075.067-2.7.008-5.4.037-8.106.006-.576-.155-.737-.732-.732q-4.935.04-9.871,0c-.577,0-.739.155-.732.732.03,2.556.013,5.111.013,7.667,0,1.469,0,1.469-1.422,1.537-1.408-.068-1.408-.068-1.408-1.531q0-4.679,0-9.359c0-1.392.464-1.9,1.838-1.844.77.031,1.1-.136,1-.977-.09-.783.233-1.778-.144-2.316-.337-.481-1.392-.434-2.112-.675-11.163-3.723-18.129-11.273-20-22.935a28.058,28.058,0,0,1,22.116-31.9A28.458,28.458,0,0,1,640.427,72.386Zm-29.676,27.92a25.448,25.448,0,1,0,25.506-25.385A25.492,25.492,0,0,0,610.751,100.306Zm25.431,31.16h.53c2.472,0,2.466,0,2.322-2.465-.02-.343-.041-.539-.479-.486a20.21,20.21,0,0,1-4.669,0c-.379-.043-.534.041-.519.447a18.317,18.317,0,0,1,0,1.942c-.034.5.18.583.612.565C634.708,131.444,635.445,131.466,636.182,131.466Z" transform="translate(0 -23.207)" fill="#020202"/>
    <path id="Trazado_644792" data-name="Trazado 644792" d="M704.17,109.676c.073-1.418.073-1.418,1.531-1.418q19.966,0,39.931.019c.792,0,1-.181,1-.991q-.039-25.175,0-50.35c0-.788-.174-1.011-.989-1-4.682.044-9.364.022-14.047.021-1.51,0-1.947-.435-1.948-1.935,0-4.741-.014-9.481.016-14.222,0-.647-.135-.826-.809-.824q-14.754.038-29.507,0c-.653,0-.842.142-.822.813.053,1.765-.029,3.535.039,5.3.031.812-.206,1.114-1,.978a1.921,1.921,0,0,0-.439.024c-1.41-.073-1.41-.073-1.41-1.532,0-2.208,0-4.417,0-6.625,0-1.271.492-1.766,1.758-1.766q16.61,0,33.221-.011a2.161,2.161,0,0,1,1.642.685q8.2,8.225,16.431,16.428a2.164,2.164,0,0,1,.681,1.644q-.017,27.209-.011,54.418c0,1.261-.5,1.756-1.771,1.756q-21.381,0-42.762.015c-.572,0-.8-.137-.715-.719A3.856,3.856,0,0,0,704.17,109.676Zm40.293-56.55c-.563-.766-11.249-11.445-11.91-11.923-.024.046-.069.092-.069.139-.005,3.735.007,7.47-.022,11.2,0,.574.253.589.687.587,2.735-.013,5.471-.007,8.206-.007Z" transform="translate(-56.689)" fill="#010101"/>
    <path id="Trazado_644793" data-name="Trazado 644793" d="M667.75,257.672c1.422-.068,1.422-.068,1.422-1.537,0-2.555.017-5.111-.013-7.667-.007-.576.155-.737.732-.732q4.935.04,9.871,0c.577,0,.738.156.732.732-.029,2.7.029,5.406-.037,8.106-.022.893.212,1.237,1.1,1.075a1.416,1.416,0,0,1,.35.022c0,.675-.045,1.354,0,2.025.046.618-.16.793-.781.788-3.759-.028-7.519-.014-11.278-.014-.529,0-1.058-.017-1.586,0-.383.015-.518-.136-.51-.514C667.769,259.2,667.752,258.435,667.75,257.672Z" transform="translate(-38.627 -136.663)" fill="#559ec0"/>
    <path id="Trazado_644794" data-name="Trazado 644794" d="M798.582,159.92c2.148,0,4.3.014,6.443-.011.488-.006.637.117.645.626.033,2.212.051,2.212-2.136,2.212-3.766,0-7.531-.012-11.3.012-.562,0-.738-.125-.735-.716.011-2.124-.014-2.124,2.138-2.124Z" transform="translate(-118.558 -79.935)"/>
    <path id="Trazado_644795" data-name="Trazado 644795" d="M805.062,130.8c-1.647,0-3.295-.018-4.941.011-.5.009-.632-.13-.639-.631-.031-2.208-.049-2.207,2.14-2.207,2.823,0,5.647.016,8.47-.013.572-.006.732.141.729.722-.01,2.119.014,2.119-2.142,2.119Z" transform="translate(-123.708 -59.301)"/>
    <path id="Trazado_644796" data-name="Trazado 644796" d="M787.748,114.841c-1.176,0-2.353-.021-3.528.01-.5.013-.71-.057-.712-.649-.008-2.188-.035-2.188,2.161-2.188,1.882,0,3.764.015,5.645-.01.5-.007.71.058.713.649.008,2.188.035,2.188-2.161,2.188Z" transform="translate(-113.394 -48.992)"/>
    <path id="Trazado_644797" data-name="Trazado 644797" d="M771.665,130.81c-1.205,0-2.411-.015-3.616.008-.408.008-.539-.1-.559-.531-.1-2.306-.117-2.3,2.129-2.3,1.911,0,3.822.015,5.733-.01.482-.006.641.108.648.621.033,2.217.052,2.216-2.13,2.216Z" transform="translate(-103.027 -59.306)"/>
    <path id="Trazado_644798" data-name="Trazado 644798" d="M779.784,143.954c1.235,0,2.47.017,3.7-.009.424-.009.529.124.546.543.1,2.293.108,2.293-2.14,2.293-1.911,0-3.822-.017-5.733.012-.5.007-.629-.138-.636-.634-.031-2.2-.048-2.2,2.141-2.2Z" transform="translate(-108.235 -69.623)"/>
    <path id="Trazado_644799" data-name="Trazado 644799" d="M811.661,146.771c-1.205,0-2.411-.021-3.616.011-.469.012-.577-.14-.587-.592-.054-2.246-.068-2.246,2.187-2.246,1.882,0,3.764.023,5.645-.014.553-.011.677.147.678.684,0,2.157.024,2.157-2.1,2.157Z" transform="translate(-128.855 -69.613)"/>
    <path id="Trazado_644800" data-name="Trazado 644800" d="M787.723,190.693c-1.235,0-2.47-.016-3.7.009-.418.008-.533-.113-.551-.538-.1-2.3-.112-2.3,2.135-2.3,1.911,0,3.823.016,5.733-.011.493-.007.633.126.64.629.032,2.209.05,2.209-2.136,2.209Z" transform="translate(-113.348 -97.984)"/>
    <path id="Trazado_644801" data-name="Trazado 644801" d="M787.853,203.838c1.206,0,2.411.017,3.616-.009.42-.009.531.118.549.54.1,2.3.11,2.3-2.137,2.3-1.911,0-3.823-.017-5.733.011-.5.007-.631-.131-.638-.631-.031-2.207-.049-2.207,2.138-2.207Z" transform="translate(-113.392 -108.302)"/>
    <path id="Trazado_644802" data-name="Trazado 644802" d="M818.065,114.85h-.617c-2.353,0-2.343,0-2.133-2.384.03-.338.117-.452.458-.449q2.38.021,4.76,0c.341,0,.493.1.448.45a.525.525,0,0,0,0,.088c.122,2.295.122,2.295-2.122,2.295Z" transform="translate(-133.883 -49.001)"/>
    <path id="Trazado_644803" data-name="Trazado 644803" d="M769.056,112.033c1.362,0,1.362,0,1.362,1.377,0,1.45,0,1.45-1.466,1.45-1.362,0-1.362,0-1.362-1.377C767.59,112.033,767.59,112.033,769.056,112.033Z" transform="translate(-103.114 -49.011)"/>
    <path id="Trazado_644804" data-name="Trazado 644804" d="M746.46,81.533c0,1.389,0,1.389-1.35,1.389-1.478,0-1.478,0-1.478-1.438,0-1.389,0-1.389,1.349-1.389C746.46,80.1,746.46,80.1,746.46,81.533Z" transform="translate(-87.64 -28.382)"/>
    <path id="Trazado_644805" data-name="Trazado 644805" d="M615.865,105.482a25.448,25.448,0,1,1,25.389,25.5A25.488,25.488,0,0,1,615.865,105.482Zm48.069.094a22.621,22.621,0,1,0-22.775,22.584A22.641,22.641,0,0,0,663.934,105.576Z" transform="translate(-5.114 -28.383)" fill="#539cbd"/>
    <path id="Trazado_644806" data-name="Trazado 644806" d="M682.533,234.387c-.736,0-1.473-.022-2.208.008-.432.017-.647-.065-.612-.565a18.318,18.318,0,0,0,0-1.942c-.015-.405.14-.489.519-.447a20.209,20.209,0,0,0,4.669,0c.439-.052.46.143.479.486.144,2.465.15,2.465-2.322,2.465Z" transform="translate(-46.351 -126.129)" fill="#c7d4df"/>
    <path id="Trazado_644807" data-name="Trazado 644807" d="M811.494,62.336h-3.108c-2.735,0-5.471-.006-8.206.007-.434,0-.691-.012-.687-.587.029-3.735.017-7.47.022-11.2,0-.046.045-.092.069-.139C800.245,50.891,810.931,61.571,811.494,62.336Z" transform="translate(-123.72 -9.211)" fill="#e8bf51"/>
    <path id="Trazado_644808" data-name="Trazado 644808" d="M669.091,110.732a22.621,22.621,0,1,1-22.429-22.653A22.658,22.658,0,0,1,669.091,110.732Zm-22.657,19.755a19.791,19.791,0,1,0-19.755-20.052A19.828,19.828,0,0,0,646.434,130.487Z" transform="translate(-10.271 -33.539)" fill="#020303"/>
    <path id="Trazado_644809" data-name="Trazado 644809" d="M651.6,135.645A19.791,19.791,0,1,1,671.421,116.2,19.818,19.818,0,0,1,651.6,135.645Zm-9.9-18.377h5.029c2.1,0,2.073,0,2.1-2.076.008-.629-.168-.771-.779-.766-3.764.03-7.528.015-11.293.015-2.126,0-2.1,0-2.1,2.165,0,.555.155.683.69.675C637.458,117.25,639.576,117.269,641.693,117.269Zm9.938-8.481H648.1c-2.157,0-2.133,0-2.142,2.12,0,.585.166.726.733.72,2.822-.029,5.644-.013,8.467-.013,2.192,0,2.173,0,2.139-2.209-.008-.5-.151-.637-.643-.629C654.983,108.805,653.307,108.787,651.632,108.787Zm-.088,14.136h3.7c2.07,0,2.047,0,2.055-2.118,0-.582-.16-.728-.73-.722-2.822.029-5.645.013-8.467.013-2.193,0-2.175,0-2.142,2.206.008.5.146.64.641.631C648.251,122.905,649.9,122.923,651.544,122.923Zm5.749,5.655h3.528c2.154,0,2.129,0,2.138-2.124,0-.592-.176-.721-.737-.716-2.822.027-5.644.012-8.467.012-2.19,0-2.171,0-2.136,2.212.008.509.16.633.647.625C653.941,128.561,655.617,128.578,657.293,128.578Zm-4.308-22.618h2.2c2.137,0,2.107,0,2.117-2.145,0-.631-.236-.7-.76-.692-1.851.026-3.7.01-5.554.01-2.264,0-2.242,0-2.2,2.234.01.542.212.612.669.6C650.634,105.942,651.81,105.96,652.985,105.96Zm11.374,5.655h2.116c2.189,0,2.171,0,2.137-2.208-.008-.5-.15-.636-.642-.63-1.91.027-3.82.011-5.73.011-2.251,0-2.238,0-2.136,2.3.019.425.136.547.553.539C661.89,111.6,663.124,111.614,664.359,111.614Zm-8.492,5.655h2.116c2.194,0,2.177,0,2.145-2.2-.007-.49-.127-.647-.632-.639-1.91.029-3.82.011-5.73.011-2.194,0-2.177,0-2.146,2.2.007.49.127.654.632.639C653.457,117.245,654.662,117.269,655.867,117.269Zm-17.008,5.655h2.2c2.127,0,2.106,0,2.1-2.157,0-.54-.13-.694-.68-.683-1.88.036-3.761.014-5.642.014-2.258,0-2.243,0-2.188,2.246.011.458.121.6.59.592C636.449,122.9,637.654,122.923,638.859,122.923Zm25.5,0h2.116c2.189,0,2.17,0,2.136-2.21-.008-.505-.154-.635-.643-.628-1.91.026-3.82.011-5.73.011-2.252,0-2.238,0-2.135,2.3.019.427.139.545.554.537C661.892,122.908,663.126,122.923,664.36,122.923Zm-19.794,5.655h2.116c2.189,0,2.171,0,2.137-2.209-.008-.5-.152-.635-.643-.629-1.91.027-3.82.011-5.73.011-2.251,0-2.238,0-2.135,2.3.019.426.138.546.553.538C642.1,128.562,643.332,128.578,644.566,128.578Zm-5.66-16.964h2.116c2.191,0,2.174,0,2.141-2.2-.007-.5-.142-.64-.638-.633-1.91.027-3.82.011-5.73.011-2.252,0-2.239,0-2.14,2.293.018.42.128.551.549.542C636.438,111.6,637.672,111.614,638.906,111.614Zm4.309-8.481h-.793c-2.136,0-2.107,0-2.118,2.141,0,.621.221.717.755.7.967-.036,1.937-.01,2.906-.01,2.027,0,2,0,2.026-2.053.007-.588-.1-.847-.752-.788C644.57,103.18,643.891,103.133,643.215,103.133Zm19.777,0h-.7c-2.254,0-2.239,0-2.183,2.246.011.455.123.608.589.591.968-.034,1.937-.01,2.906-.01,2.332,0,2.321,0,2.182-2.335-.022-.376-.11-.514-.5-.5C664.519,103.152,663.755,103.133,662.992,103.133Zm2.745,14.136h.7c2.251,0,2.233,0,2.171-2.26-.013-.478-.159-.59-.605-.576-.968.03-1.938.009-2.906.009-2.25,0-2.233,0-2.171,2.26.013.478.159.6.605.575C664.267,117.245,665,117.269,665.737,117.269Z" transform="translate(-15.434 -38.697)" fill="#99cce4"/>
    <path id="Trazado_644810" data-name="Trazado 644810" d="M646.817,150.763c-2.118,0-4.235-.018-6.352.013-.535.008-.689-.12-.69-.675,0-2.165-.027-2.165,2.1-2.165,3.764,0,7.529.015,11.293-.015.611,0,.787.137.779.766-.027,2.075,0,2.076-2.1,2.076Z" transform="translate(-20.557 -72.192)"/>
    <path id="Trazado_644811" data-name="Trazado 644811" d="M677.388,131.974c1.676,0,3.352.018,5.027-.011.491-.008.635.125.643.629.034,2.209.052,2.209-2.139,2.209-2.823,0-5.645-.016-8.467.013-.567.006-.735-.135-.733-.72.009-2.12-.015-2.12,2.142-2.12Z" transform="translate(-41.19 -61.884)"/>
    <path id="Trazado_644812" data-name="Trazado 644812" d="M677.291,166.736c-1.647,0-3.293-.018-4.939.011-.494.009-.633-.13-.641-.631-.033-2.207-.051-2.206,2.142-2.206,2.822,0,5.645.016,8.467-.013.571-.006.733.14.73.722-.008,2.118.015,2.118-2.055,2.118Z" transform="translate(-41.18 -82.509)"/>
    <path id="Trazado_644813" data-name="Trazado 644813" d="M693.354,182.706c-1.676,0-3.352-.017-5.027.011-.487.008-.638-.116-.647-.625-.035-2.212-.053-2.212,2.136-2.212,2.822,0,5.645.015,8.467-.012.561-.006.74.124.737.716-.009,2.124.016,2.124-2.138,2.124Z" transform="translate(-51.495 -92.825)"/>
    <path id="Trazado_644814" data-name="Trazado 644814" d="M683.882,118.833c-1.175,0-2.351-.018-3.526.009-.457.01-.66-.06-.669-.6-.04-2.234-.062-2.234,2.2-2.234,1.851,0,3.7.016,5.554-.01.524-.007.763.061.76.692-.011,2.145.019,2.145-2.118,2.145Z" transform="translate(-46.33 -51.571)"/>
    <path id="Trazado_644815" data-name="Trazado 644815" d="M715.85,134.8c-1.234,0-2.469-.016-3.7.008-.417.008-.534-.113-.553-.539-.1-2.3-.115-2.3,2.136-2.3,1.91,0,3.82.016,5.73-.011.492-.007.634.126.642.63.034,2.208.052,2.208-2.137,2.208Z" transform="translate(-66.924 -61.884)"/>
    <path id="Trazado_644816" data-name="Trazado 644816" d="M691.932,150.77c-1.205,0-2.41-.024-3.614.012-.506.015-.625-.149-.632-.639-.031-2.2-.048-2.2,2.146-2.2,1.91,0,3.82.017,5.73-.011.5-.008.625.148.632.639.032,2.2.048,2.2-2.146,2.2Z" transform="translate(-51.498 -72.198)"/>
    <path id="Trazado_644817" data-name="Trazado 644817" d="M643.962,166.734c-1.2,0-2.41-.022-3.614.011-.469.013-.579-.134-.59-.592-.056-2.246-.07-2.246,2.188-2.246,1.881,0,3.762.023,5.642-.014.551-.011.679.143.68.683,0,2.157.026,2.157-2.1,2.157Z" transform="translate(-20.537 -82.507)"/>
    <path id="Trazado_644818" data-name="Trazado 644818" d="M715.85,166.74c-1.234,0-2.468-.015-3.7.008-.415.008-.535-.11-.554-.537-.1-2.3-.116-2.3,2.135-2.3,1.91,0,3.82.016,5.73-.011.489-.007.636.122.643.628.034,2.21.052,2.21-2.136,2.21Z" transform="translate(-66.924 -82.514)"/>
    <path id="Trazado_644819" data-name="Trazado 644819" d="M659.951,182.709c-1.234,0-2.469-.016-3.7.009-.416.008-.534-.112-.553-.538-.1-2.3-.116-2.3,2.135-2.3,1.91,0,3.82.016,5.73-.011.49-.007.635.124.643.629.034,2.209.052,2.209-2.137,2.209Z" transform="translate(-30.819 -92.828)"/>
    <path id="Trazado_644820" data-name="Trazado 644820" d="M643.979,134.8c-1.234,0-2.469-.016-3.7.009-.421.008-.531-.122-.549-.542-.1-2.294-.113-2.293,2.14-2.293,1.91,0,3.82.016,5.73-.011.5-.007.631.135.638.633.033,2.205.051,2.2-2.141,2.2Z" transform="translate(-20.506 -61.884)"/>
    <path id="Trazado_644821" data-name="Trazado 644821" d="M658.652,115.986c.676,0,1.355.047,2.025-.013.651-.059.758.2.752.788-.022,2.052,0,2.053-2.026,2.053-.969,0-1.939-.026-2.906.01-.533.02-.758-.075-.755-.7.011-2.141-.018-2.141,2.118-2.141Z" transform="translate(-30.87 -51.551)"/>
    <path id="Trazado_644822" data-name="Trazado 644822" d="M714.517,116.01c.763,0,1.528.019,2.29-.008.39-.014.478.124.5.5.139,2.335.15,2.335-2.182,2.335-.969,0-1.939-.024-2.906.01-.467.017-.578-.136-.589-.591-.056-2.246-.071-2.246,2.183-2.246Z" transform="translate(-66.959 -51.574)"/>
    <path id="Trazado_644823" data-name="Trazado 644823" d="M722.412,150.772c-.734,0-1.469-.024-2.2.009-.447.021-.592-.1-.605-.575-.062-2.261-.079-2.26,2.171-2.26.969,0,1.939.021,2.906-.009.446-.014.592.1.606.576.062,2.261.079,2.26-2.171,2.26Z" transform="translate(-72.109 -72.2)"/>
  </g>
</svg>
