<svg xmlns="http://www.w3.org/2000/svg" width="55.751" height="58.836" viewBox="0 0 55.751 58.836">
  <g id="Grupo_988078" data-name="Grupo 988078" transform="translate(-1764.432 79.86)">
    <path id="Trazado_646127" data-name="Trazado 646127" d="M1800.605-65.382a1.525,1.525,0,0,1,.439-1.662,17.673,17.673,0,0,0,4.3-8.67,23.514,23.514,0,0,0,.281-2.854,1.187,1.187,0,0,1,1.351-1.282c.613-.008,1.226,0,1.839,0,1.193,0,1.552.3,1.6,1.509a18.234,18.234,0,0,0,.952,5.225,19.3,19.3,0,0,0,3.889,6.432c.182.209.372.156.567.157a5.151,5.151,0,0,1,2.309.317,3.458,3.458,0,0,1,2.049,3.366c0,1.11,0,2.221,0,3.332q0,13.184,0,26.367a3.557,3.557,0,0,1-1.953,3.488,3.93,3.93,0,0,1-1.839.363c-5.152,0-10.3,0-15.457-.014-.468,0-.6.093-.594.582.036,1.646.025,3.293,0,4.94,0,.371.087.5.468.471a13.291,13.291,0,0,1,1.493,0,1.138,1.138,0,0,1,1.187,1.141,1.146,1.146,0,0,1-1.179,1.151c-.153.01-.306,0-.459,0h-19.078c-.134,0-.268,0-.4,0a1.155,1.155,0,0,1-1.251-1.137,1.144,1.144,0,0,1,1.23-1.157c.5-.017,1-.02,1.494,0,.307.014.429-.052.425-.4-.019-1.723-.023-3.447,0-5.17.005-.389-.142-.42-.462-.419-3.065.01-6.129.006-9.194.006q-3.218,0-6.436,0a3.45,3.45,0,0,1-3.737-3.661q-.025-14.964,0-29.929a3.44,3.44,0,0,1,3.7-3.635c.575,0,1.15-.02,1.724.007.317.015.379-.1.373-.39-.017-.861.005-1.723-.011-2.585a2.055,2.055,0,0,1,.319-1.137c1.693-2.817,3.372-5.642,5.064-8.459a1.174,1.174,0,0,1,2.2-.017q2.568,4.275,5.12,8.559a2.046,2.046,0,0,1,.278,1.094c0,1.359.012,2.717.02,4.076-.008.21-.023.419-.023.629q0,5.823,0,11.646c0,1.138-.117,1.317-1.139,1.75-1.032-.357-1.16-.54-1.161-1.67q0-2.24,0-4.48,0-5.284,0-10.568c0-.176.107-.469-.107-.51a2.587,2.587,0,0,0-1.134-.006c-.262.071-.118.437-.118.665q-.012,5.973-.006,11.946c0,1.042-.395,1.6-1.137,1.617-.765.016-1.162-.542-1.162-1.636q0-.2,0-.4c0-3.848-.011-7.7.013-11.544,0-.531-.09-.729-.672-.7-1.127.053-2.261.054-3.388,0-.583-.028-.669.17-.667.7q.025,13.7.012,27.395c0,.115.009.231,0,.344-.023.236.047.363.313.335a1.985,1.985,0,0,1,.516,0c.484.079.6-.114.592-.589-.022-3.254-.013-6.509-.011-9.763,0-1.034.413-1.6,1.161-1.6s1.139.535,1.139,1.6c0,3.274.009,6.547-.01,9.821,0,.434.111.548.541.536,1.206-.031,2.413-.034,3.619,0,.452.013.54-.139.525-.55-.031-.841-.014-1.684-.008-2.527.006-.909.255-1.213,1.154-1.429.868.235,1.136.569,1.143,1.455s.016,1.759-.006,2.638c-.009.33.1.413.415.408,1.223-.018,2.449-.037,3.671.006.551.019.723-.091.721-.693q-.039-10.209,0-20.418c0-.591-.1-.815-.743-.833a1.062,1.062,0,0,1-.9-1.677c.364-.44.21-.732.052-1.108-.11-.262-.215-.526-.322-.789a9.906,9.906,0,0,1,.113-5.7,9.951,9.951,0,0,1,1.653-2.992q2.008-2.546,4.007-5.1a1.264,1.264,0,0,1,1.411-.629c.553.156.818.58.861,1.341a7.916,7.916,0,0,0,1.646,4.444,12.068,12.068,0,0,1,2.15,3.493,9.315,9.315,0,0,1,.113,5.143c-.176.42-.352.841-.529,1.26a.351.351,0,0,0,.017.368c.693,1.137.288,1.938-1.015,1.975-.366.01-.435.116-.434.458q.015,10.51,0,21.02c0,.368.107.438.449.433,1.417-.019,2.835-.032,4.251,0,.494.013.627-.1.625-.613-.022-5.341-.012-10.682-.015-16.023a3.268,3.268,0,0,1,1.617-3.029c.192-.115.286-.211.174-.444Q1801.892-62.671,1800.605-65.382Zm-8.3,27.811h-24.415c-1.148,0-1.116,0-1.161,1.165-.021.548.116.7.678.688,2.355-.036,4.711-.012,7.066-.018a1.245,1.245,0,0,1,1.277.693c.373.816-.233,1.6-1.247,1.606-2.317.009-4.634,0-6.951,0-.826,0-1.066.421-.671,1.191a1.287,1.287,0,0,0,1.3.648q24.128,0,48.256,0c1.01,0,1.427-.412,1.435-1.429.01-1.3-.024-2.6.016-3.905.016-.525-.133-.651-.654-.65Q1804.769-37.557,1792.3-37.571Zm19.772-9.364c0-2.163-.006-4.326.006-6.49,0-.34-.04-.5-.452-.5-2.489.021-4.979.016-7.468,0-.333,0-.467.065-.466.438q.019,6.6,0,13.209c0,.338.114.413.428.409,1.264-.015,2.528-.025,3.791,0,.414.009.5-.119.5-.512-.018-2.6-.011-5.207-.006-7.81a3.023,3.023,0,0,1,.07-.737,1.073,1.073,0,0,1,1.144-.841,1.11,1.11,0,0,1,1.057.959,4.054,4.054,0,0,1,.025.63c0,2.6.011,5.207-.009,7.811,0,.411.116.555.511.493a1.1,1.1,0,0,1,.344,0c.423.071.543-.083.538-.521C1812.061-42.57,1812.075-44.753,1812.075-46.935Zm5.8-4.713v-9.531c0-.593.019-1.188-.006-1.78a1.176,1.176,0,0,0-1.308-1.265c-.459-.01-.921.021-1.378-.013a.445.445,0,0,0-.507.328q-.905,1.977-1.85,3.937c-.132.273-.117.422.144.6a3.2,3.2,0,0,1,1.405,2.847c-.017,1.608,0,3.215,0,4.823,0,3.77.008,7.541-.011,11.311,0,.427.095.551.529.53.821-.039,1.647-.04,2.468,0,.442.022.529-.115.527-.536C1817.87-44.146,1817.877-47.9,1817.877-51.648Zm-47.635-.4c0-3.886-.008-7.772.011-11.658,0-.427-.094-.565-.529-.529-.513.043-1.033.007-1.55.011-.984.007-1.429.411-1.43,1.376q-.011,11.285-.011,22.569c0,.321.077.426.408.417.861-.023,1.724-.035,2.584,0,.436.02.53-.107.528-.532C1770.235-44.276,1770.242-48.162,1770.242-52.048ZM1792.308-29.3c-1.761,0-3.522.011-5.282-.009-.374,0-.477.094-.472.47q.031,2.525,0,5.051c0,.378.1.47.473.469q5.282-.022,10.565,0c.373,0,.476-.094.472-.47q-.031-2.525,0-5.051c0-.378-.1-.474-.473-.469C1795.83-29.288,1794.069-29.3,1792.308-29.3Zm-.023-46.554a1.266,1.266,0,0,0-.2.161c-.907,1.159-1.872,2.279-2.7,3.489a6.874,6.874,0,0,0-.323,7.77.626.626,0,0,0,.632.368q2.353-.021,4.706,0a.71.71,0,0,0,.655-.352,6.023,6.023,0,0,0-.233-7.07A14.112,14.112,0,0,1,1792.285-75.853Zm1.517,27.269c0-2.775-.006-5.55.008-8.324,0-.367-.09-.5-.476-.487-.841.028-1.684.021-2.526,0-.349-.007-.51.065-.509.467q.018,8.324,0,16.648c0,.335.115.419.43.412.861-.018,1.724-.03,2.584,0,.417.016.5-.125.5-.515C1793.794-43.111,1793.8-45.848,1793.8-48.584Zm13.063-23.62c-.1.1-.142.117-.154.149a19.938,19.938,0,0,1-3.5,6.008.511.511,0,0,0-.036.655q1.19,2.509,2.353,5.03a.553.553,0,0,0,.591.4c1.263-.023,2.527-.025,3.79,0,.337.007.456-.138.579-.4.769-1.663,1.543-3.323,2.34-4.972a.636.636,0,0,0-.095-.8,19.6,19.6,0,0,1-3.351-5.7c-.03-.081-.009-.249-.219-.224,0,.953.015,1.909-.008,2.864a.707.707,0,0,0,.4.722,2.943,2.943,0,0,1,1.157,3.842,3,3,0,0,1-3.168,1.676,3.038,3.038,0,0,1-2.466-2.272,2.954,2.954,0,0,1,1.386-3.251.7.7,0,0,0,.407-.715C1806.849-70.176,1806.865-71.149,1806.865-72.2Zm1.016,15.991c1.262,0,2.524,0,3.786,0,.167,0,.377.092.417-.231a1,1,0,0,0-.967-1.223c-2.141-.02-4.283-.017-6.424,0a.946.946,0,0,0-.993.971c-.036.352.047.507.453.5C1805.4-56.23,1806.638-56.212,1807.881-56.212Zm-27.869-14.732c-.337-.571-.646-1.088-.946-1.609-.107-.186-.273-.17-.445-.17-1.26,0-2.519,0-3.779,0-.147,0-.32-.048-.418.113-.329.54-.651,1.084-1,1.665Zm12.143,11.254c.472-.046,1.23.245,1.558-.107.281-.3.07-1.054.1-1.606.012-.265-.061-.372-.349-.367-.938.016-1.876.014-2.814,0-.282,0-.365.106-.357.372.015.459.014.919,0,1.378-.007.248.083.34.333.333C1791.1-59.7,1791.58-59.691,1792.155-59.691Zm15.812-5.553a.652.652,0,0,0,.737-.665.656.656,0,0,0-.67-.715.628.628,0,0,0-.7.671A.628.628,0,0,0,1807.967-65.244Zm-31.249-11.221-.833,1.444c.51,0,.908-.006,1.306,0,.285.006.338-.1.191-.335C1777.176-75.691,1776.976-76.034,1776.719-76.465Z" fill="#030303"/>
    <path id="Trazado_646128" data-name="Trazado 646128" d="M1906.449-16.981q1.292,2.708,2.587,5.415c.112.233.018.329-.174.444a3.268,3.268,0,0,0-1.617,3.029c0,5.341-.007,10.682.016,16.023,0,.515-.13.626-.625.613-1.416-.037-2.834-.024-4.251,0-.342,0-.449-.065-.449-.433q.019-10.51,0-21.02c0-.341.068-.447.434-.458,1.3-.037,1.707-.838,1.015-1.975a.35.35,0,0,1-.017-.368c.178-.42.353-.84.529-1.26Z" transform="translate(-105.844 -48.401)" fill="#edf1f8"/>
    <path id="Trazado_646129" data-name="Trazado 646129" d="M1845.061-16.952c.107.263.213.527.322.789.158.376.311.668-.052,1.108a1.062,1.062,0,0,0,.9,1.677c.646.018.745.242.743.833q-.035,10.209,0,20.418c0,.6-.17.712-.721.693-1.223-.043-2.448-.024-3.671-.006-.32,0-.424-.079-.415-.408.023-.879.013-1.759.006-2.638s-.275-1.22-1.143-1.455q0-1.485,0-2.97c.789-.247,1.16-.653,1.126-1.227s-.411-.941-1.124-1.1l0-1.69c1.022-.433,1.139-.612,1.139-1.75q0-5.823,0-11.646c0-.21.015-.419.023-.629Z" transform="translate(-58.96 -48.423)" fill="#edf1f8"/>
    <path id="Trazado_646130" data-name="Trazado 646130" d="M1799.861,103.764q12.466,0,24.932-.012c.521,0,.67.125.654.65-.04,1.3-.005,2.6-.016,3.905-.008,1.017-.425,1.429-1.435,1.429q-24.128,0-48.256,0a1.287,1.287,0,0,1-1.3-.648c-.394-.77-.155-1.191.671-1.191,2.317,0,4.634.006,6.951,0,1.014,0,1.62-.79,1.247-1.606a1.245,1.245,0,0,0-1.277-.693c-2.355.006-4.711-.018-7.066.018-.562.009-.7-.14-.678-.688.045-1.163.013-1.165,1.161-1.165Zm-13.591,1.843a1.143,1.143,0,1,0,.072,2.285,1.143,1.143,0,0,0-.072-2.285Z" transform="translate(-7.558 -141.335)" fill="#89d5fa"/>
    <path id="Trazado_646131" data-name="Trazado 646131" d="M1809.147-13.858l0,1.69c-.959.184-1.411.932-1.023,1.675a1.377,1.377,0,0,0,1.021.651q0,1.485,0,2.97c-.9.216-1.148.52-1.154,1.429-.005.842-.023,1.685.008,2.527.015.412-.072.564-.525.55-1.206-.035-2.413-.032-3.619,0-.43.011-.544-.1-.541-.536.019-3.273.011-6.547.01-9.821,0-1.063-.383-1.6-1.139-1.6s-1.161.563-1.161,1.6c0,3.255-.011,6.509.011,9.763,0,.475-.108.668-.592.589a1.985,1.985,0,0,0-.516,0c-.266.028-.336-.1-.312-.335.011-.114,0-.23,0-.344q0-13.7-.012-27.395c0-.529.084-.727.667-.7,1.127.054,2.261.053,3.388,0,.582-.027.675.171.672.7-.024,3.848-.013,7.7-.013,11.544q0,.2,0,.4c0,1.094.4,1.652,1.162,1.636.742-.015,1.137-.575,1.137-1.617q0-5.973.006-11.946c0-.229-.144-.594.118-.665a2.588,2.588,0,0,1,1.134.006c.214.041.106.334.107.51q.009,5.284,0,10.567,0,2.24,0,4.48C1807.986-14.4,1808.115-14.215,1809.147-13.858Z" transform="translate(-27.071 -37.493)" fill="#f2b965"/>
    <path id="Trazado_646132" data-name="Trazado 646132" d="M1943.334,39.77c0,2.183-.014,4.365.011,6.547.005.438-.115.592-.538.521a1.1,1.1,0,0,0-.344,0c-.4.062-.514-.082-.511-.493.02-2.6.011-5.207.009-7.811a4.084,4.084,0,0,0-.025-.63,1.111,1.111,0,0,0-1.057-.959,1.073,1.073,0,0,0-1.144.841,3.029,3.029,0,0,0-.07.737c0,2.6-.011,5.207.006,7.81,0,.393-.083.521-.5.512-1.263-.029-2.527-.02-3.791,0-.313,0-.429-.071-.428-.409q.016-6.6,0-13.209c0-.373.132-.44.466-.438,2.489.012,4.979.017,7.468,0,.412,0,.454.16.452.5C1943.328,35.443,1943.334,37.607,1943.334,39.77Z" transform="translate(-131.259 -86.705)" fill="#809cf6"/>
    <path id="Trazado_646133" data-name="Trazado 646133" d="M1979.4.571c0,3.751-.007,7.5.01,11.254,0,.421-.085.558-.527.536-.821-.041-1.647-.039-2.468,0-.434.02-.531-.1-.529-.53.019-3.77.011-7.541.011-11.311,0-1.608-.013-3.215,0-4.823a3.2,3.2,0,0,0-1.405-2.847c-.262-.181-.276-.329-.144-.6q.947-1.958,1.85-3.937a.445.445,0,0,1,.507-.328c.457.035.918,0,1.377.013a1.176,1.176,0,0,1,1.308,1.265c.025.592.006,1.186.006,1.78Z" transform="translate(-161.525 -52.219)" fill="#edf1f8"/>
    <path id="Trazado_646134" data-name="Trazado 646134" d="M1777.934.167c0,3.886-.008,7.772.011,11.658,0,.425-.092.551-.528.532-.86-.039-1.723-.027-2.584,0-.332.009-.409-.1-.409-.417q.014-11.284.011-22.569c0-.965.447-1.369,1.43-1.376.517,0,1.037.032,1.55-.011.435-.036.531.1.529.529C1777.926-7.6,1777.934-3.719,1777.934.167Z" transform="translate(-7.691 -52.215)" fill="#edf1f8"/>
    <path id="Trazado_646135" data-name="Trazado 646135" d="M1866.263,139.7c1.761,0,3.522.011,5.282-.009.372,0,.478.091.473.469q-.032,2.525,0,5.051c0,.376-.1.472-.472.47q-5.282-.022-10.565,0c-.372,0-.478-.091-.473-.469q.032-2.525,0-5.051c0-.376.1-.475.472-.47C1862.741,139.714,1864.5,139.7,1866.263,139.7Z" transform="translate(-73.955 -169.001)" fill="#d7d7e2"/>
    <path id="Trazado_646136" data-name="Trazado 646136" d="M1871.094-62.458a14.112,14.112,0,0,0,2.528,4.367,6.023,6.023,0,0,1,.233,7.07.71.71,0,0,1-.655.352q-2.353-.021-4.706,0a.626.626,0,0,1-.632-.368,6.874,6.874,0,0,1,.323-7.77c.833-1.21,1.8-2.331,2.7-3.489A1.27,1.27,0,0,1,1871.094-62.458Z" transform="translate(-78.809 -13.395)" fill="#aa8a6b"/>
    <path id="Trazado_646137" data-name="Trazado 646137" d="M1880.277,26.516c0,2.736-.008,5.473.009,8.209,0,.39-.08.531-.5.515-.86-.034-1.723-.022-2.584,0-.314.006-.431-.078-.43-.412q.013-8.324,0-16.648c0-.4.16-.474.509-.467.842.018,1.685.025,2.526,0,.386-.013.478.119.476.487C1880.271,20.966,1880.277,23.741,1880.277,26.516Z" transform="translate(-86.475 -75.1)" fill="#eb6762"/>
    <path id="Trazado_646138" data-name="Trazado 646138" d="M1936.046-46.609c0,1.055-.016,2.028.009,3a.7.7,0,0,1-.407.715,2.954,2.954,0,0,0-1.386,3.251,3.038,3.038,0,0,0,2.466,2.272,3,3,0,0,0,3.168-1.676,2.943,2.943,0,0,0-1.157-3.842.707.707,0,0,1-.4-.722c.022-.955.008-1.911.008-2.864.21-.025.189.143.219.224a19.605,19.605,0,0,0,3.351,5.7.635.635,0,0,1,.095.8c-.8,1.649-1.572,3.31-2.34,4.972-.123.267-.243.412-.579.4-1.263-.026-2.527-.024-3.79,0a.553.553,0,0,1-.591-.4q-1.16-2.523-2.353-5.03a.511.511,0,0,1,.036-.655,19.938,19.938,0,0,0,3.5-6.008C1935.9-46.492,1935.944-46.512,1936.046-46.609Z" transform="translate(-129.181 -25.595)" fill="#b4dff6"/>
    <path id="Trazado_646139" data-name="Trazado 646139" d="M1939.132,17.927c-1.243,0-2.486-.017-3.728.01-.406.009-.489-.146-.453-.5a.946.946,0,0,1,.993-.971c2.142-.014,4.283-.017,6.424,0a1,1,0,0,1,.967,1.223c-.04.323-.25.23-.417.231C1941.656,17.93,1940.394,17.927,1939.132,17.927Z" transform="translate(-131.251 -74.139)" fill="#e5e9f0"/>
    <path id="Trazado_646140" data-name="Trazado 646140" d="M1810.078-47.106h-6.587c.347-.581.67-1.125,1-1.665.1-.161.271-.112.418-.113,1.259,0,2.519,0,3.779,0,.172,0,.338-.016.445.17C1809.432-48.194,1809.741-47.677,1810.078-47.106Z" transform="translate(-30.065 -23.839)" fill="#edc5a9"/>
    <path id="Trazado_646141" data-name="Trazado 646141" d="M1878.6.78c-.576,0-1.054-.009-1.533,0-.249.007-.34-.085-.333-.333.013-.459.015-.919,0-1.378-.009-.266.074-.376.357-.372.938.013,1.876.015,2.814,0,.288,0,.361.1.348.367-.026.552.186,1.3-.1,1.606C1879.828,1.026,1879.07.734,1878.6.78Z" transform="translate(-86.442 -60.472)" fill="#e3e7ee"/>
    <path id="Trazado_646142" data-name="Trazado 646142" d="M1951.4-21a.628.628,0,0,1-.63-.709.628.628,0,0,1,.7-.671.656.656,0,0,1,.67.715A.652.652,0,0,1,1951.4-21Z" transform="translate(-143.436 -44.244)" fill="#816853"/>
    <path id="Trazado_646143" data-name="Trazado 646143" d="M1815.01-65.116c.257.431.457.774.665,1.112.146.238.094.341-.191.335-.4-.008-.8,0-1.306,0Z" transform="translate(-38.291 -11.349)" fill="#816853"/>
    <path id="Trazado_646144" data-name="Trazado 646144" d="M1837.151,53.625a1.377,1.377,0,0,1-1.021-.651c-.389-.743.064-1.492,1.023-1.675.712.158,1.089.527,1.124,1.1S1837.94,53.378,1837.151,53.625Z" transform="translate(-55.083 -100.96)" fill="#030303"/>
    <path id="Trazado_646145" data-name="Trazado 646145" d="M1822.72,111.81a1.143,1.143,0,0,1,.072,2.285,1.143,1.143,0,1,1-.072-2.285Z" transform="translate(-44.007 -147.538)" fill="#040607"/>
  </g>
</svg>
