<svg id="Grupo_988697" data-name="Grupo 988697" xmlns="http://www.w3.org/2000/svg" width="48.266" height="50.001" viewBox="0 0 48.266 50.001">
  <path id="Trazado_646592" data-name="Trazado 646592" d="M1513.466,576.28c-.593-.142-.753-.336-.753-.944q0-15.778,0-31.556a3.687,3.687,0,0,1,3.77-3.77c1.417-.012,2.834-.014,4.25.006.345,0,.447-.091.423-.431a12.144,12.144,0,0,1,0-1.318.738.738,0,0,1,.832-.805q7.377-.006,14.753,0a.733.733,0,0,1,.834.8,11.708,11.708,0,0,1,0,1.269c-.026.366.066.5.467.488,1.351-.028,2.7-.013,4.055-.01a3.72,3.72,0,0,1,3.934,3.956c0,1.547.008,3.094-.006,4.64,0,.306.065.439.392.525,3.486.917,6.965,1.861,10.447,2.791,1.491.4,1.946,1.187,1.539,2.688-.1.374-.346.828-.222,1.112s.683.267,1.052.36a2.084,2.084,0,0,1,1.606,1.128,2.013,2.013,0,0,1,.031,1.383q-2.109,7.856-4.214,15.714-1.546,5.763-3.093,11.526a1.827,1.827,0,0,1-2.575,1.505c-1.929-.516-3.861-1.024-5.788-1.549a.552.552,0,0,0-.57.115,3.6,3.6,0,0,1-2.347.812q-12.922,0-25.843-.007a3.662,3.662,0,0,1-3.725-3.758c-.009-1.237,0-2.475,0-3.712,0-.656.117-.811.745-1.015.629.228.72.356.72,1.037,0,1.254-.012,2.508,0,3.762a2.2,2.2,0,0,0,2.244,2.219q12.922.007,25.844,0c.123,0,.275.051.409-.106-.116-.039-.19-.068-.266-.089q-5.085-1.366-10.172-2.729a1.549,1.549,0,0,1-.709-.307,1.1,1.1,0,0,0-.849-.267q-6.229.009-12.458,0a3.339,3.339,0,0,1-.922-.072,2.282,2.282,0,0,1-1.643-2.422q0-18.8,0-37.6a.54.54,0,0,0-.335.119,2.314,2.314,0,0,0-1.152,2.165q.01,15.656,0,31.313C1514.178,575.938,1514.066,576.1,1513.466,576.28Zm30.027-27.972c.246.075.5.134.738.228.264.1.337.027.335-.246-.01-1.558.015-3.116-.016-4.674a2.087,2.087,0,0,0-1.03-1.778c-.141-.09-.311-.273-.467-.147-.116.094-.026.3.037.452-.005.939-.009,1.878-.016,2.816-.005.643-.144.825-.753,1a.83.83,0,0,1-.722-.976c.021-.875.015-1.75,0-2.625-.009-.614-.291-.881-.906-.888-.372,0-.744.011-1.116.018-1.156-.007-2.312.011-3.466-.032-.446-.016-.529.119-.528.539a3.118,3.118,0,0,1-3.287,3.272c-1.905,0-3.812-.046-5.716.014a3.213,3.213,0,0,1-3.437-3.387c.022-.344-.086-.438-.43-.434-1.531.019-3.061.006-4.592.009-.734,0-.991.261-.991,1.009q0,18.392,0,36.785c0,.776.24,1.011,1.028,1.012q3.566,0,7.133,0,2.565,0,5.13,0c.17,0,.364.056.424-.2.12-.505.434-1.057.317-1.5-.083-.308-.8-.268-1.231-.414-.015-.005-.031-.012-.046-.016a1.789,1.789,0,0,1-1.4-2.476c.408-1.519.814-3.039,1.231-4.6H1520.6a3.875,3.875,0,0,1-.439-.008.679.679,0,0,1-.655-.667.7.7,0,0,1,.6-.772,2.143,2.143,0,0,1,.487-.018c3.029,0,6.058-.006,9.087.008.334,0,.477-.077.556-.422.184-.807.426-1.6.643-2.4.148-.547.146-.548-.408-.548q-4.934,0-9.869,0a2.344,2.344,0,0,1-.58-.05.714.714,0,0,1,.089-1.392,3.944,3.944,0,0,1,.536-.021c3.42,0,6.84-.01,10.259.011.413,0,.565-.128.652-.506.182-.791.37-1.584.626-2.353.168-.5-.007-.541-.439-.539-3.7.013-7.393.008-11.09.008-.805,0-1.151-.215-1.157-.719s.359-.747,1.14-.747c3.859,0,7.719-.009,11.578.012.417,0,.557-.132.635-.506.116-.555.287-1.1.434-1.649.537-2.006,1.074-4.012,1.623-6.065h-14.341c-.885,0-1.076-.195-1.077-1.1q0-1.075,0-2.149c0-.956.192-1.15,1.138-1.15q7.621,0,15.243,0a1.1,1.1,0,0,0,.722-.2,1.668,1.668,0,0,1,1.487-.242c.534.138,1.069.273,1.6.409l2.64.7A5.931,5.931,0,0,0,1543.493,548.307Zm-9.775-9.366-10.777-.016c-.032,0-.065,0-.1,0-.135,0-.189.055-.217.2-.142.715-.013.883.706.884h1.219l9.167-.018c.68.006,1.361,0,2.041.022.5.018.321-.339.333-.571s.121-.54-.333-.52C1535.08,538.949,1534.4,538.936,1533.718,538.941Zm21.012,13.96a.637.637,0,0,0-.129-.068q-8.278-2.217-16.557-4.43c-.678-.181-.685-.173-.865.5q-3.631,13.544-7.269,27.086c-.126.469-.042.654.447.783,3.955,1.042,7.9,2.117,11.853,3.173,1.661.444,3.328.867,4.992,1.3.559.16,1.116.327,1.678.48.681.186.686.177.865-.49q2.9-10.842,5.806-21.683.737-2.752,1.479-5.5c.072-.268.139-.528-.226-.624C1556.114,553.245,1555.422,553.075,1554.73,552.9Zm-22.476,27.557c-.033.422.281.418.518.482q9.221,2.477,18.443,4.948c.763.2.761.206.961-.542q2.331-8.7,4.663-17.41c.869-3.247,1.73-6.5,2.61-9.74.1-.374.022-.551-.355-.625a4.223,4.223,0,0,1-.844-.235c-.43-.183-.579-.07-.7.392q-3.2,12.052-6.442,24.094a1.772,1.772,0,0,1-2.372,1.378q-4.872-1.3-9.742-2.6c-1.961-.525-3.919-1.059-5.883-1.57-.134-.035-.373-.278-.475.057C1532.494,579.549,1532.374,580.021,1532.254,580.457ZM1528.3,548.8h-6.4c-.953,0-.929,0-.961.937-.015.431.1.54.536.538,4.265-.018,8.53-.011,12.794-.011,1.047,0,1.03,0,1.315-1.025.105-.377.03-.452-.353-.449C1532.92,548.81,1530.608,548.8,1528.3,548.8Zm1.125-7.328c-1.48,0-2.96.008-4.441-.007-.3,0-.382.074-.384.377a1.732,1.732,0,0,0,1.934,1.963q2.855,0,5.71,0a1.722,1.722,0,0,0,1.9-1.9c.008-.395-.136-.44-.472-.437C1532.253,541.483,1530.837,541.473,1529.422,541.473Z" transform="translate(-1512.709 -537.458)" fill="#020303"/>
  <path id="Trazado_646593" data-name="Trazado 646593" d="M1516.54,593.482c.6-.181.712-.341.712-1.034q0-15.657,0-31.313a2.314,2.314,0,0,1,1.152-2.165.54.54,0,0,1,.335-.119q0,18.805,0,37.6a2.282,2.282,0,0,0,1.643,2.422,3.34,3.34,0,0,0,.922.072q6.229,0,12.458,0a1.1,1.1,0,0,1,.849.267,1.55,1.55,0,0,0,.709.307q5.087,1.361,10.172,2.729c.076.021.15.05.266.089-.134.157-.286.106-.409.106q-12.922.005-25.844,0a2.2,2.2,0,0,1-2.244-2.219c-.017-1.254,0-2.508,0-3.762,0-.681-.091-.809-.72-1.037Q1516.536,594.453,1516.54,593.482Z" transform="translate(-1515.784 -554.66)" fill="#6185c4"/>
  <path id="Trazado_646594" data-name="Trazado 646594" d="M1557.838,563.74c-.534-.136-1.069-.271-1.6-.409a1.668,1.668,0,0,0-1.487.242,1.1,1.1,0,0,1-.722.2q-7.621-.005-15.243,0c-.946,0-1.137.194-1.138,1.149q0,1.075,0,2.149c0,.9.192,1.1,1.077,1.1h14.342c-.549,2.053-1.086,4.059-1.623,6.065-.147.549-.318,1.093-.434,1.649-.079.375-.219.509-.635.506-3.859-.021-7.719-.013-11.579-.013-.781,0-1.147.24-1.14.747s.352.719,1.157.719c3.7,0,7.393.006,11.09-.008.432,0,.607.035.439.539-.256.769-.444,1.562-.626,2.353-.087.378-.239.509-.652.506-3.42-.021-6.839-.012-10.259-.011a3.942,3.942,0,0,0-.536.021.714.714,0,0,0-.089,1.392,2.347,2.347,0,0,0,.579.05q4.934,0,9.869,0c.554,0,.556,0,.408.548-.216.8-.459,1.593-.643,2.4-.078.345-.221.423-.556.422-3.029-.014-6.058-.008-9.087-.007a2.148,2.148,0,0,0-.487.018.7.7,0,0,0-.6.772.679.679,0,0,0,.655.667,3.878,3.878,0,0,0,.44.008h9.121c-.417,1.558-.823,3.078-1.231,4.6a1.789,1.789,0,0,0,1.4,2.476c.016,0,.03.011.046.016.427.146,1.148.106,1.231.414.117.439-.2.99-.317,1.5-.061.257-.255.2-.424.2q-2.565,0-5.13,0-3.567,0-7.133,0c-.788,0-1.028-.236-1.028-1.012q0-18.392,0-36.785c0-.748.258-1.008.992-1.009,1.531,0,3.062.01,4.592-.009.344,0,.452.09.43.434a3.213,3.213,0,0,0,3.437,3.387c1.9-.06,3.81-.009,5.715-.014a3.118,3.118,0,0,0,3.288-3.272c0-.419.083-.555.528-.539,1.154.042,2.311.025,3.466.032.016.241.112.464.11.714C1557.835,560.343,1557.839,562.041,1557.838,563.74Zm-17.378,27.154c-.649,0-1.3-.007-1.947,0-.535.007-.856.285-.86.719a.754.754,0,0,0,.844.744q1.923.016,3.846,0c.544,0,.844-.278.85-.728s-.286-.726-.834-.735C1541.726,590.886,1541.093,590.895,1540.46,590.894Zm-.006-19.337c-.665,0-1.331-.007-2,0a.73.73,0,1,0-.054,1.455q2.02.028,4.041,0a.729.729,0,1,0-.043-1.455C1541.753,571.549,1541.1,571.557,1540.454,571.557Z" transform="translate(-1530.867 -553.895)" fill="#cdebf9"/>
  <path id="Trazado_646595" data-name="Trazado 646595" d="M1617.646,625.786c-1.664-.432-3.33-.856-4.992-1.3-3.951-1.056-7.9-2.131-11.852-3.173-.489-.129-.573-.314-.447-.783q3.647-13.54,7.269-27.086c.18-.673.186-.681.865-.5q8.279,2.211,16.557,4.43a.631.631,0,0,1,.129.068,7.939,7.939,0,0,1-.62,2.26,1.259,1.259,0,0,0-.709-.392q-6.728-1.8-13.457-3.6c-.661-.177-.969.009-1.149.676q-.7,2.587-1.385,5.176c-.181.68-.014.971.658,1.152l13.408,3.6a1.207,1.207,0,0,0,.9,0,.871.871,0,0,1-.008.194q-.983,3.7-1.976,7.4c-.034.127-.03.306-.221.345a7.485,7.485,0,0,0-.506-2.644.8.8,0,0,0-1.083-.6,7.847,7.847,0,0,0-1.126-1.667c.277-.585.231-.811-.283-1.214a7.769,7.769,0,0,0-6.66-1.557,7.92,7.92,0,1,0,8.568,11.683c.131.151.047.3.005.457Q1618.586,622.245,1617.646,625.786Z" transform="translate(-1583.152 -581.999)" fill="#e9f3fb"/>
  <path id="Trazado_646596" data-name="Trazado 646596" d="M1612.526,661.762c.12-.436.24-.909.38-1.375.1-.336.341-.092.475-.057,1.964.511,3.922,1.045,5.883,1.57q4.87,1.3,9.742,2.6a1.772,1.772,0,0,0,2.372-1.378q3.229-12.045,6.442-24.094c.123-.462.272-.575.7-.392a4.216,4.216,0,0,0,.844.235c.378.074.457.252.355.625-.88,3.244-1.741,6.493-2.61,9.74q-2.33,8.705-4.663,17.409c-.2.748-.2.746-.961.542q-9.222-2.474-18.443-4.948C1612.807,662.18,1612.493,662.184,1612.526,661.762Z" transform="translate(-1592.981 -618.763)" fill="#a6e0f5"/>
  <path id="Trazado_646597" data-name="Trazado 646597" d="M1691.856,633.136c.191-.039.187-.218.221-.345q1-3.7,1.976-7.4a.879.879,0,0,0,.007-.194,1.332,1.332,0,0,0,.384-.714q.671-2.518,1.349-5.034a1.261,1.261,0,0,0,0-.858,7.941,7.941,0,0,0,.62-2.26c.691.174,1.383.345,2.073.525.366.1.3.356.226.624q-.743,2.75-1.479,5.5-2.9,10.841-5.806,21.683c-.179.667-.184.676-.865.49-.561-.153-1.118-.319-1.677-.48q.943-3.54,1.887-7.078c.042-.157.126-.306-.005-.457A8.661,8.661,0,0,0,1691.856,633.136Z" transform="translate(-1654.39 -600.889)" fill="#cdebf9"/>
  <path id="Trazado_646598" data-name="Trazado 646598" d="M1562.094,595.357c2.312,0,4.623.009,6.934-.009.383,0,.459.072.353.449-.285,1.02-.269,1.025-1.316,1.025-4.265,0-8.53-.007-12.794.011-.433,0-.551-.108-.536-.538.032-.937.008-.937.961-.937Z" transform="translate(-1546.507 -584.013)" fill="#819dac"/>
  <path id="Trazado_646599" data-name="Trazado 646599" d="M1578.253,557.933c1.415,0,2.831.01,4.246-.007.337,0,.48.042.473.437a1.722,1.722,0,0,1-1.9,1.9q-2.855,0-5.71,0a1.732,1.732,0,0,1-1.934-1.963c0-.3.086-.38.384-.377C1575.292,557.941,1576.772,557.933,1578.253,557.933Z" transform="translate(-1561.539 -553.918)" fill="#cceaf8"/>
  <path id="Trazado_646600" data-name="Trazado 646600" d="M1650.046,563.8c0-1.7,0-3.4.009-5.1,0-.249-.094-.473-.11-.714.372-.007.744-.023,1.116-.018.616.008.9.275.906.888.013.875.019,1.75,0,2.625a.83.83,0,0,0,.722.975q0,1.021,0,2.042Z" transform="translate(-1623.075 -553.954)" fill="#a6e0f5"/>
  <path id="Trazado_646601" data-name="Trazado 646601" d="M1574.242,546.016l-9.167.018h-1.219c-.719,0-.848-.169-.706-.884.028-.141.082-.2.218-.2.032,0,.065,0,.1,0l10.777.015Z" transform="translate(-1553.233 -543.486)" fill="#829fae"/>
  <path id="Trazado_646602" data-name="Trazado 646602" d="M1667.5,559.352c-.063-.15-.153-.358-.037-.452.156-.126.325.057.467.147a2.087,2.087,0,0,1,1.031,1.778c.031,1.557.006,3.116.016,4.674,0,.273-.071.349-.335.246-.239-.093-.492-.153-.738-.227,0-1.536.02-3.073-.011-4.609A2.357,2.357,0,0,0,1667.5,559.352Z" transform="translate(-1637.115 -554.667)" fill="#4b76b9"/>
  <path id="Trazado_646603" data-name="Trazado 646603" d="M1664.714,561.387a2.356,2.356,0,0,1,.392,1.555c.03,1.536.011,3.073.011,4.609a5.925,5.925,0,0,1-1.173-.3q0-1.021,0-2.042c.609-.179.748-.361.753-1C1664.706,563.265,1664.709,562.326,1664.714,561.387Z" transform="translate(-1634.334 -556.702)" fill="#6185c4"/>
  <path id="Trazado_646604" data-name="Trazado 646604" d="M1620.012,545.987V544.94c.681-.005,1.362.008,2.041-.022.454-.02.345.29.333.52s.166.589-.333.57C1621.373,545.984,1620.692,545.993,1620.012,545.987Z" transform="translate(-1599.002 -543.457)" fill="#6f8b96"/>
  <path id="Trazado_646605" data-name="Trazado 646605" d="M1550.173,726.417c.633,0,1.266-.008,1.9,0,.548.009.84.276.834.735s-.306.724-.85.728q-1.923.015-3.846,0a.754.754,0,0,1-.844-.744c0-.434.325-.711.86-.719C1548.875,726.411,1549.524,726.417,1550.173,726.417Z" transform="translate(-1540.58 -689.419)" fill="#050606"/>
  <path id="Trazado_646606" data-name="Trazado 646606" d="M1550.166,627.651c.649,0,1.3-.008,1.948,0a.729.729,0,1,1,.043,1.455q-2.02.03-4.041,0a.73.73,0,1,1,.054-1.455C1548.835,627.643,1549.5,627.651,1550.166,627.651Z" transform="translate(-1540.579 -609.989)" fill="#050606"/>
  <path id="Trazado_646607" data-name="Trazado 646607" d="M1642.054,670.951a7.864,7.864,0,0,1,1.126,1.667c-2.08,1.209-4.163,2.412-6.237,3.632-.291.171-.357,0-.467-.19-.582-1.016-1.163-2.032-1.757-3.041a.732.732,0,0,0-1.065-.345.745.745,0,0,0-.183,1.108q1.066,1.863,2.146,3.717c.407.7.722.786,1.425.381q2.535-1.461,5.069-2.925c1.114-.643,1.113-.644,1.15.665a6.461,6.461,0,1,1-2.391-4.722A.851.851,0,0,0,1642.054,670.951Z" transform="translate(-1607.304 -643.612)" fill="#6dc691"/>
  <path id="Trazado_646608" data-name="Trazado 646608" d="M1636.1,664.922a.851.851,0,0,1-1.184-.053,6.442,6.442,0,1,0,2.391,4.722c-.037-1.308-.037-1.308-1.15-.665q-2.534,1.463-5.069,2.925c-.7.4-1.017.321-1.424-.381q-1.077-1.857-2.146-3.717a.745.745,0,0,1,.183-1.108.732.732,0,0,1,1.065.345c.594,1.009,1.175,2.025,1.757,3.041.11.192.177.361.467.19,2.073-1.22,4.157-2.424,6.237-3.632a.8.8,0,0,1,1.083.6,7.473,7.473,0,0,1,.506,2.644,8.662,8.662,0,0,1-1.09,4.005,7.928,7.928,0,1,1-8.568-11.683,7.769,7.769,0,0,1,6.66,1.557C1636.328,664.11,1636.373,664.336,1636.1,664.922Z" transform="translate(-1601.346 -637.582)" fill="#030403"/>
  <path id="Trazado_646609" data-name="Trazado 646609" d="M1655.295,611.2a1.261,1.261,0,0,1,0,.858q-.679,2.516-1.349,5.034a1.333,1.333,0,0,1-.384.714,1.207,1.207,0,0,1-.9,0l-13.408-3.6c-.673-.181-.839-.471-.658-1.152q.69-2.589,1.385-5.176c.179-.667.488-.853,1.149-.676q6.729,1.8,13.457,3.6A1.258,1.258,0,0,1,1655.295,611.2Zm-13.794-2.371c-.307-.083-.3.159-.347.338-.3,1.13-.592,2.263-.915,3.387-.084.292-.031.4.257.475q5.886,1.563,11.767,3.149c.316.085.413.015.489-.288.276-1.1.563-2.2.884-3.294.116-.394.021-.527-.365-.628-2.8-.734-5.586-1.491-8.379-2.239Q1643.2,609.279,1641.5,608.833Z" transform="translate(-1613.894 -593.501)" fill="#030304"/>
  <path id="Trazado_646610" data-name="Trazado 646610" d="M1648.383,615.695c1.13.3,2.261.6,3.391.9,2.793.748,5.583,1.5,8.379,2.239.386.1.481.235.365.629-.321,1.09-.607,2.191-.884,3.294-.076.3-.173.373-.489.288q-5.879-1.591-11.767-3.149c-.288-.076-.341-.183-.257-.475.323-1.124.612-2.257.915-3.387C1648.084,615.853,1648.076,615.612,1648.383,615.695Z" transform="translate(-1620.776 -600.363)" fill="#6184c4"/>
</svg>
