<svg xmlns="http://www.w3.org/2000/svg" width="85" height="85" viewBox="0 0 85 85">
  <g id="Grupo_983510" data-name="Grupo 983510" transform="translate(-180 -6099)">
    <rect id="Rectángulo_34178" data-name="Rectángulo 34178" width="85" height="85" transform="translate(180 6099)" fill="none"/>
    <g id="Grupo_985342" data-name="Grupo 985342" transform="translate(-444.103 4667.021)">
      <path id="Trazado_642658" data-name="Trazado 642658" d="M696.63,1455.172a1.237,1.237,0,0,1,1.7.507A20.289,20.289,0,0,1,689,1486.89a.974.974,0,0,0-.806,1.108c.029,6.029.023,12.057.014,18.086a5.566,5.566,0,0,1-4.765,5.831,7.09,7.09,0,0,1-1.167.062q-15.774,0-31.549,0a5.543,5.543,0,0,1-5.893-5.85q-.012-31.632,0-63.265a5.547,5.547,0,0,1,5.933-5.882q15.738,0,31.476,0a5.579,5.579,0,0,1,5.966,5.933c.006,1.562.038,3.125-.016,4.686a1.038,1.038,0,0,0,.841,1.236,17.621,17.621,0,0,1,5.016,2.646c.736.539.825.873.492,1.749-.789.572-1.025.561-1.943-.093a17.921,17.921,0,0,0-24.566,3.542c-4.623,6-5.176,12.538-1.944,19.381a5.006,5.006,0,0,1,.545,2.672c-.113,1.262-.123,2.533-.178,3.8-.156,1.668.009,1.834,1.657,1.817,1.829-.019,3.659,0,5.488-.016a5.827,5.827,0,0,1,2.138.391,17.981,17.981,0,0,0,21.4-6.852,16.741,16.741,0,0,0,2.955-8.67l.012-.288.011-.3c.02-.339.06-.678.056-1.016a17.631,17.631,0,0,0-3.546-10.515C695.989,1456.227,695.995,1455.929,696.63,1455.172Zm-13.8,54.578a3.344,3.344,0,0,0,3.185-3.644q.011-8.261,0-16.522c0-.579.265-1.369-.116-1.684-.415-.343-1.151.085-1.752.122-1.046.074-1.046.074-1.046,1.087q0,7.651,0,15.3a2.868,2.868,0,0,1-3,3.135q-13.577.014-27.155,0a2.809,2.809,0,0,1-3-2.91c-.026-6.248-.014-12.5-.006-18.743,0-.858.276-1.15,1.133-1.336.878.24,1.057.477,1.057,1.465q0,9.033,0,18.066c0,1.172.1,1.273,1.3,1.273q11.955,0,23.91,0c.56,0,1.119-.019,1.679-.029.145.011.291.031.436.033,1.376.016,1.449-.056,1.449-1.426q0-7.029,0-14.057c0-.583.187-1.348-.106-1.7-.338-.407-1.145-.206-1.747-.281a21.1,21.1,0,0,1-3.8-1.008,5.247,5.247,0,0,0-2.064-.355q-2.889.025-5.78,0a3.051,3.051,0,0,1-3.2-3.364c.056-1.535.127-3.071.236-4.6a2.62,2.62,0,0,0-.3-1.468,18.75,18.75,0,0,1-2.209-8.182c-.228-7.76,2.948-13.814,9.38-18.141a20.468,20.468,0,0,1,7.711-2.967c1.88-.05,1.88-.05,1.88-1.853v-.583c0-1.835-.048-1.88-1.885-1.744-2.421-.159-2.421-.159-3.649,1.912-.05.084-.1.167-.147.252a2.868,2.868,0,0,1-2.639,1.545q-6.075.017-12.151,0a2.856,2.856,0,0,1-2.6-1.489c-.321-.546-.658-1.083-.955-1.641a1.04,1.04,0,0,0-1.055-.616c-.78.027-1.561.007-2.342.007-1.288,0-1.357.07-1.357,1.368q0,17.537,0,35.074c0,1.139-.119,1.316-1.065,1.626-.933-.261-1.13-.529-1.13-1.582q0-17.749,0-35.5a4.946,4.946,0,0,1,.016-.512,2.837,2.837,0,0,1,2.872-2.66c1.1-.024,2.2-.021,3.292,0a2.824,2.824,0,0,1,2.49,1.415c.355.582.71,1.166,1.038,1.764a.969.969,0,0,0,.939.559q5.927-.012,11.853,0a.97.97,0,0,0,.949-.542c.3-.556.644-1.091.958-1.641a2.918,2.918,0,0,1,2.7-1.559c1.025,0,2.049-.012,3.073,0a2.86,2.86,0,0,1,2.978,2.936c.019.756,0,1.512,0,2.269,0,1.057,0,1.057,1.052,1.048.454.072.917.113,1.361.225.392.1.517.01.513-.4-.017-1.65.033-3.3-.02-4.951a3.286,3.286,0,0,0-3.174-3.331c-.268-.01-.536-.028-.8-.028q-15.629,0-31.258,0a3.371,3.371,0,0,0-3.735,3.7q-.005,31.6,0,63.2a3.374,3.374,0,0,0,3.735,3.7q15.629,0,31.258,0C682.294,1509.778,682.562,1509.76,682.83,1509.75Z" fill="#040404"/>
      <path id="Trazado_642659" data-name="Trazado 642659" d="M742.88,1486.012c-.636.757-.642,1.055-.006,1.916a17.63,17.63,0,0,1,3.546,10.515c0,.338-.036.677-.056,1.016-.148.093-.153.191-.011.3l-.012.288c-.388.061-.294.422-.352.643a18.679,18.679,0,0,1-6.127,9.711,18.212,18.212,0,0,1-10,4.319,18.778,18.778,0,0,1-9.136-1.178,2.816,2.816,0,0,0-1.072-.166c-2.315.007-4.629,0-6.944,0,.055-1.267.064-2.538.178-3.8a5.007,5.007,0,0,0-.545-2.672c-3.233-6.843-2.679-13.381,1.944-19.381a17.921,17.921,0,0,1,24.566-3.542c.917.653,1.154.665,1.943.093Zm-28.3,22.953c-.042.657-.1,1.314-.124,1.973-.064,1.546.568,2.219,2.1,2.227,1.806.01,3.611,0,5.417,0a2.444,2.444,0,0,1,1,.154,13.4,13.4,0,0,0,4.62.978,15.632,15.632,0,1,0-13.75-9.976A8.107,8.107,0,0,1,714.58,1508.965Z" transform="translate(-46.25 -30.84)" fill="#b7e1c7"/>
      <path id="Trazado_642660" data-name="Trazado 642660" d="M666.071,1497.529c.946-.31,1.064-.487,1.065-1.626q0-17.537,0-35.074c0-1.3.07-1.368,1.357-1.368.781,0,1.562.02,2.342-.007a1.04,1.04,0,0,1,1.055.616c.3.558.634,1.1.955,1.641a2.856,2.856,0,0,0,2.6,1.489q6.075.018,12.151,0a2.868,2.868,0,0,0,2.639-1.545c.048-.085.1-.168.147-.252,1.228-2.072,1.228-2.072,3.649-1.912q0,2.09,0,4.18a20.472,20.472,0,0,0-7.711,2.967c-6.432,4.327-9.608,10.38-9.38,18.141a18.749,18.749,0,0,0,2.209,8.182,2.621,2.621,0,0,1,.3,1.468c-.109,1.532-.18,3.068-.236,4.6a3.051,3.051,0,0,0,3.2,3.364q2.89.028,5.78,0a5.247,5.247,0,0,1,2.064.355,21.093,21.093,0,0,0,3.8,1.008c-.007.34-.021.68-.021,1.021q-.006,8.206-.009,16.412c-.56.01-1.119.029-1.679.029q-11.955,0-23.91,0c-1.2,0-1.3-.1-1.3-1.273q0-9.033,0-18.066c0-.988-.179-1.225-1.057-1.465Q666.075,1498.973,666.071,1497.529Zm15.463,10.587h9.578a5.225,5.225,0,0,0,.73-.023,1.077,1.077,0,0,0,.05-2.125,3.309,3.309,0,0,0-.654-.037q-9.724,0-19.448,0a2.892,2.892,0,0,0-.724.06,1.076,1.076,0,0,0,.09,2.092,4.125,4.125,0,0,0,.729.031Q676.708,1508.118,681.534,1508.116Zm-.012,4.557q4.789,0,9.578,0a5.372,5.372,0,0,0,.729-.031.99.99,0,0,0,.938-1.031,1.007,1.007,0,0,0-.936-1.109,4.074,4.074,0,0,0-.656-.031q-9.651,0-19.3,0a4.032,4.032,0,0,0-.656.031,1,1,0,0,0-.935,1.106.985.985,0,0,0,.933,1.031,5.2,5.2,0,0,0,.729.032Q676.733,1512.674,681.522,1512.673Zm-.032,4.535h9.588a5.849,5.849,0,0,0,.731-.022,1.075,1.075,0,0,0-.043-2.14,4.8,4.8,0,0,0-.512-.012q-9.735,0-19.469,0a2.991,2.991,0,0,0-.727.053,1.072,1.072,0,0,0-.027,2.053,3.406,3.406,0,0,0,.871.065Q676.7,1517.212,681.49,1517.208Z" transform="translate(-15.009 -15.862)" fill="#d8e7f8"/>
      <path id="Trazado_642661" data-name="Trazado 642661" d="M656.367,1486.962q0,1.444.007,2.888c-.857.186-1.133.478-1.133,1.336-.008,6.248-.019,12.5.006,18.743a2.809,2.809,0,0,0,3,2.91q13.578.013,27.155,0a2.868,2.868,0,0,0,3-3.135q.009-7.651,0-15.3c0-1.012,0-1.012,1.046-1.087q0,9.4,0,18.807a3.651,3.651,0,0,1-.965,2.384c-.141.165-.337.29-.351.537-.268.01-.536.029-.8.029q-15.629,0-31.258,0a3.374,3.374,0,0,1-3.735-3.7q-.005-31.6,0-63.2a3.371,3.371,0,0,1,3.735-3.7q15.629,0,31.258,0c.268,0,.536.018.8.028a1.012,1.012,0,0,0,.151.321,4.086,4.086,0,0,1,1.178,3.245c-.028,1.63-.009,3.26-.009,4.891-1.052.008-1.052.008-1.052-1.048,0-.756.015-1.513,0-2.269a2.86,2.86,0,0,0-2.978-2.936c-1.024-.014-2.049,0-3.073,0a2.918,2.918,0,0,0-2.7,1.559c-.314.55-.654,1.086-.958,1.641a.971.971,0,0,1-.949.542q-5.927-.012-11.853,0a.969.969,0,0,1-.939-.559c-.328-.6-.682-1.181-1.038-1.764a2.824,2.824,0,0,0-2.49-1.415c-1.1-.022-2.2-.024-3.292,0a2.836,2.836,0,0,0-2.872,2.66,4.964,4.964,0,0,0-.016.512q0,17.75,0,35.5C655.237,1486.433,655.434,1486.7,656.367,1486.962Zm15.429-38.068c1.1,0,2.19.006,3.285,0,.852-.005,1.347-.42,1.338-1.1-.009-.652-.5-1.082-1.293-1.086q-3.322-.017-6.644,0a1.131,1.131,0,0,0-1.268,1.114c.009.642.507,1.063,1.3,1.069C669.606,1448.9,670.7,1448.894,671.8,1448.894Z" transform="translate(-5.305 -5.295)" fill="#a9a9a9"/>
      <path id="Trazado_642662" data-name="Trazado 642662" d="M718.411,1560.1c2.315,0,4.629.005,6.944,0a2.816,2.816,0,0,1,1.072.166,18.778,18.778,0,0,0,9.136,1.178,18.212,18.212,0,0,0,10-4.319,18.679,18.679,0,0,0,6.127-9.711c.058-.221-.036-.582.352-.643a16.741,16.741,0,0,1-2.955,8.67,17.981,17.981,0,0,1-21.4,6.852,5.824,5.824,0,0,0-2.138-.391c-1.829.019-3.659,0-5.488.016C718.42,1561.935,718.255,1561.769,718.411,1560.1Z" transform="translate(-51.955 -77.568)" fill="#a0d8b7"/>
      <path id="Trazado_642663" data-name="Trazado 642663" d="M774.31,1632.008c.014-.247.21-.372.351-.537a3.651,3.651,0,0,0,.965-2.384q.016-9.4,0-18.807c.6-.037,1.337-.464,1.752-.122.381.314.115,1.1.116,1.684q.014,8.261,0,16.522A3.345,3.345,0,0,1,774.31,1632.008Z" transform="translate(-91.48 -122.258)" fill="#979797"/>
      <path id="Trazado_642664" data-name="Trazado 642664" d="M761.333,1627.895q0-8.206.009-16.412c0-.34.014-.68.021-1.02.6.076,1.409-.125,1.747.281.293.353.106,1.118.106,1.7q.006,7.029,0,14.057c0,1.369-.072,1.441-1.449,1.426C761.624,1627.926,761.478,1627.906,761.333,1627.895Z" transform="translate(-82.312 -122.566)" fill="#c0d6ef"/>
      <path id="Trazado_642665" data-name="Trazado 642665" d="M775.63,1453.031c0-1.631-.018-3.261.009-4.891a4.085,4.085,0,0,0-1.178-3.245,1.014,1.014,0,0,1-.151-.321,3.286,3.286,0,0,1,3.174,3.331c.053,1.649,0,3.3.02,4.951,0,.41-.121.5-.513.4C776.547,1453.143,776.085,1453.1,775.63,1453.031Z" transform="translate(-91.48 -5.366)" fill="#979797"/>
      <path id="Trazado_642666" data-name="Trazado 642666" d="M761.337,1463.707q0-2.09,0-4.18c1.837-.136,1.885-.092,1.885,1.744v.583C763.217,1463.657,763.217,1463.657,761.337,1463.707Z" transform="translate(-82.311 -15.897)" fill="#c0d6ef"/>
      <path id="Trazado_642667" data-name="Trazado 642667" d="M832.918,1545.077c-.141-.1-.137-.2.011-.3Z" transform="translate(-132.814 -76.163)" fill="#a0d8b7"/>
      <path id="Trazado_642668" data-name="Trazado 642668" d="M720.517,1514.822a8.106,8.106,0,0,0-.735-4.643,15.62,15.62,0,1,1,13.75,9.976,13.407,13.407,0,0,1-4.62-.978,2.444,2.444,0,0,0-1-.154c-1.806,0-3.611.009-5.417,0-1.533-.009-2.165-.682-2.1-2.227C720.42,1516.137,720.475,1515.48,720.517,1514.822Zm27.156-11.575a13.411,13.411,0,1,0-25.91,5.962,10.362,10.362,0,0,1,.981,5.334c-.043.558-.058,1.12-.137,1.674-.07.487.089.627.576.619,1.583-.028,3.167-.005,4.75-.013a4.339,4.339,0,0,1,1.569.274,13.279,13.279,0,0,0,14.8-3.568A12.85,12.85,0,0,0,747.674,1503.247Z" transform="translate(-52.188 -36.697)" fill="#040404"/>
      <path id="Trazado_642669" data-name="Trazado 642669" d="M691.663,1620.048q-4.825,0-9.651,0a4.126,4.126,0,0,1-.729-.031,1.076,1.076,0,0,1-.09-2.092,2.892,2.892,0,0,1,.724-.06q9.724,0,19.448,0a3.309,3.309,0,0,1,.654.037,1.077,1.077,0,0,1-.05,2.125,5.206,5.206,0,0,1-.73.023Z" transform="translate(-25.139 -127.793)" fill="#070708"/>
      <path id="Trazado_642670" data-name="Trazado 642670" d="M691.656,1635.535q-4.789,0-9.578,0a5.2,5.2,0,0,1-.729-.032.985.985,0,0,1-.933-1.031,1,1,0,0,1,.935-1.106,4.033,4.033,0,0,1,.656-.031q9.651,0,19.3,0a4.074,4.074,0,0,1,.656.031,1.007,1.007,0,0,1,.936,1.109.99.99,0,0,1-.938,1.031,5.372,5.372,0,0,1-.729.031Q696.445,1635.536,691.656,1635.535Z" transform="translate(-25.143 -138.724)" fill="#070708"/>
      <path id="Trazado_642671" data-name="Trazado 642671" d="M691.625,1651.055q-4.794,0-9.588,0a3.406,3.406,0,0,1-.871-.065,1.072,1.072,0,0,1,.027-2.053,2.992,2.992,0,0,1,.727-.053q9.734,0,19.469,0a4.8,4.8,0,0,1,.512.012,1.075,1.075,0,0,1,.043,2.14,5.848,5.848,0,0,1-.73.022Z" transform="translate(-25.144 -149.708)" fill="#000101"/>
      <path id="Trazado_642672" data-name="Trazado 642672" d="M707.61,1454.251c-1.1,0-2.191.006-3.286,0-.79-.006-1.288-.427-1.3-1.069a1.131,1.131,0,0,1,1.268-1.114q3.322-.02,6.644,0c.8,0,1.284.434,1.293,1.086.01.678-.486,1.092-1.338,1.1C709.8,1454.257,708.7,1454.251,707.61,1454.251Z" transform="translate(-41.118 -10.652)" fill="#040404"/>
      <path id="Trazado_642673" data-name="Trazado 642673" d="M728.035,1519.785a10.362,10.362,0,0,0-.981-5.334,13.411,13.411,0,1,1,25.91-5.962c-.218.107-.18.314-.209.5a13.883,13.883,0,0,1-3.974,7.779,13.4,13.4,0,0,1-4.453,2.984,12.924,12.924,0,0,1-7.806.914,22.129,22.129,0,0,0-7.025-.89A14.106,14.106,0,0,1,728.035,1519.785Zm2.091-13.048a9.113,9.113,0,0,0,.32,2.383,14.814,14.814,0,0,0,9.225,9.6,7.088,7.088,0,0,0,7.887-1.7c2.339-2.208,2.076-4.466-.668-6.115-2.213-1.329-3.935-1.165-5.348.84a1.074,1.074,0,0,1-1.587.32,6.113,6.113,0,0,1-2.442-2.642c-.518-1-.443-1.311.44-1.97a2.778,2.778,0,0,0,1.087-3.1,5.76,5.76,0,0,0-2.07-3.1,3.206,3.206,0,0,0-4.4-.067A6.817,6.817,0,0,0,730.126,1506.736Z" transform="translate(-57.478 -41.939)" fill="#f6f1ef"/>
      <path id="Trazado_642674" data-name="Trazado 642674" d="M732.128,1549.029a14.073,14.073,0,0,0,1.46,0,22.129,22.129,0,0,1,7.025.89,12.925,12.925,0,0,0,7.806-.914,13.4,13.4,0,0,0,4.453-2.984,13.882,13.882,0,0,0,3.975-7.779c.029-.19-.009-.4.209-.5a12.85,12.85,0,0,1-3.374,10.281,13.279,13.279,0,0,1-14.8,3.568,4.339,4.339,0,0,0-1.569-.274c-1.583.008-3.167-.014-4.75.013-.487.009-.645-.132-.576-.619C732.069,1550.149,732.084,1549.587,732.128,1549.029Z" transform="translate(-61.57 -71.183)" fill="#e9deda"/>
      <path id="Trazado_642675" data-name="Trazado 642675" d="M739.619,1516.386a6.815,6.815,0,0,1,2.448-5.548,3.206,3.206,0,0,1,4.4.067,5.76,5.76,0,0,1,2.07,3.1,2.778,2.778,0,0,1-1.087,3.1c-.883.659-.959.973-.44,1.97a6.113,6.113,0,0,0,2.442,2.642,1.074,1.074,0,0,0,1.587-.32c1.413-2,3.135-2.169,5.348-.84,2.745,1.648,3.007,3.907.668,6.115a7.088,7.088,0,0,1-7.887,1.7,14.814,14.814,0,0,1-9.225-9.6A9.1,9.1,0,0,1,739.619,1516.386Zm2.266.163.008.291a4.664,4.664,0,0,0,.073.938,12.336,12.336,0,0,0,8.57,8.7,4.911,4.911,0,0,0,5.691-2.32.837.837,0,0,0-.326-1.295c-.35-.219-.694-.45-1.059-.642-.948-.5-1.305-.458-1.935.373a3.325,3.325,0,0,1-3.689,1.421,8.8,8.8,0,0,1-2.343-1.46,9.338,9.338,0,0,1-2.21-3.4,3.038,3.038,0,0,1,.983-3.424c.964-.8,1.021-1.139.293-2.171a5.5,5.5,0,0,0-.824-.926,1.128,1.128,0,0,0-1.75-.029,4.382,4.382,0,0,0-1.487,3.8Z" transform="translate(-66.971 -51.589)" fill="#040404"/>
      <path id="Trazado_642676" data-name="Trazado 642676" d="M761.7,1540.625a4.911,4.911,0,0,1-5.691,2.32,12.335,12.335,0,0,1-8.57-8.7,4.662,4.662,0,0,1-.073-.938c.406.05.441.427.558.69a13.131,13.131,0,0,0,3.189,4.264c.339.314.611.863,1.235.765a8.8,8.8,0,0,0,2.343,1.46c0,.205.142.295.3.369a6.712,6.712,0,0,0,4.917.52C760.539,1541.186,761.05,1540.748,761.7,1540.625Z" transform="translate(-72.444 -68.054)" fill="#9fd6b5"/>
      <path id="Trazado_642677" data-name="Trazado 642677" d="M752.3,1527.863c-.624.1-.9-.45-1.235-.765a13.13,13.13,0,0,1-3.189-4.264c-.117-.264-.153-.641-.558-.69l-.008-.291c.112-.053.105-.1,0-.148a4.382,4.382,0,0,1,1.487-3.8,1.128,1.128,0,0,1,1.75.029,5.5,5.5,0,0,1,.824.926c.727,1.032.671,1.372-.293,2.171a3.038,3.038,0,0,0-.983,3.424A9.337,9.337,0,0,0,752.3,1527.863Z" transform="translate(-72.392 -56.895)" fill="#b8e1c7"/>
      <path id="Trazado_642678" data-name="Trazado 642678" d="M779.332,1552.807c-.648.123-1.16.561-1.791.747a6.713,6.713,0,0,1-4.917-.52c-.158-.074-.3-.164-.3-.369a3.325,3.325,0,0,0,3.689-1.421c.63-.831.987-.872,1.935-.373.365.192.709.423,1.059.642A.837.837,0,0,1,779.332,1552.807Z" transform="translate(-90.077 -80.235)" fill="#b8e1c7"/>
      <path id="Trazado_642679" data-name="Trazado 642679" d="M747.323,1531.809c.11.046.116.1,0,.148Z" transform="translate(-72.414 -66.998)" fill="#9fd6b5"/>
    </g>
  </g>
</svg>
