<svg xmlns="http://www.w3.org/2000/svg" width="111.679" height="111.679" viewBox="0 0 111.679 111.679">
  <g id="Grupo_988727" data-name="Grupo 988727" transform="translate(-426.233 -7484.768)">
    <g id="Grupo_988721" data-name="Grupo 988721" transform="translate(-2 6119.607)">
      <g id="Grupo_983517" data-name="Grupo 983517" transform="translate(-6.767 -2975.84)">
        <circle id="Elipse_7706" data-name="Elipse 7706" cx="55.839" cy="55.839" r="55.839" transform="translate(435 4341)" fill="#006475"/>
      </g>
    </g>
    <g id="Grupo_988724" data-name="Grupo 988724" transform="translate(431.851 7495.404)">
      <path id="Trazado_646821" data-name="Trazado 646821" d="M996.548-74.349h9.655c.149-.36-.177-.5-.321-.7-3.3-4.633-4.773-9.673-3.146-15.281a10.539,10.539,0,0,1,6.838-7.227c1.437-.526,2.3-.026,2.582,1.469a30.755,30.755,0,0,0,5.181,12.636,2.467,2.467,0,0,0,1.56,1.057,14.286,14.286,0,0,1,11.043,10.4,1.2,1.2,0,0,0,1.425,1.026c2.405-.062,4.814-.029,7.22-.019,1.42.006,2.019.611,2.02,2.05q.007,16.372,0,32.745c0,1.426-.608,2.023-2.043,2.028-2.686.009-5.372.013-8.058-.008a1.447,1.447,0,0,0-1.182.477,9.067,9.067,0,0,1-6.746,2.85c-10.814.05-21.628.07-32.442,0-2.98-.02-4.977-1.735-6.17-4.584l-3.908,3.91c-.517.518-1.048,1.024-1.551,1.556a1.9,1.9,0,0,1-1.93.768,1.9,1.9,0,0,1-1.328-1.7q-1.945-9.352-3.938-18.693a31.487,31.487,0,0,0-1.144-4.334q-.675,3.171-1.35,6.341-1.77,8.375-3.528,16.752a1.865,1.865,0,0,1-1.281,1.619,1.8,1.8,0,0,1-1.863-.661c-1.674-1.68-3.378-3.331-5.016-5.046a1.165,1.165,0,0,0-1.535-.3c-2.015.856-4.061,1.64-6.087,2.47a1.842,1.842,0,0,1-2.062-.143,1.887,1.887,0,0,1-.464-2.1c2.243-9.335,4.448-18.679,6.7-28.013a1.426,1.426,0,0,0-.67-1.768,29.368,29.368,0,0,1-12.691-21.746,30.1,30.1,0,0,1,26.006-32.776,30.192,30.192,0,0,1,33.832,25.92,29.607,29.607,0,0,1-3.166,17.918c-.16.309-.331.612-.493.92C996.485-74.5,996.513-74.461,996.548-74.349Zm6.376,40.178c6.606,0,13.093.018,19.58-.014a6.35,6.35,0,0,0,3.889-1.331,1.9,1.9,0,0,0,.836-1.663c-.031-10.426-.02-20.852-.024-31.278a5.9,5.9,0,0,0-.083-1.142c-1.071-5.414-4.439-8.752-9.849-9.714a2.78,2.78,0,0,1-1.746-1.021,29.31,29.31,0,0,1-4.654-8,48.29,48.29,0,0,1-1.672-5.34,8.183,8.183,0,0,0-3.734,6.963c-.181,5.055,2.028,9.073,5.661,12.406.682.625,1.273,1.232.88,2.233s-1.222,1.1-2.152,1.093c-2.283-.025-4.567-.008-6.938-.008,1.385,2.993,1.089,5.658-1.082,8.025-.4.431-.056.6.16.837a7.062,7.062,0,0,1,1.634,3.219,7.782,7.782,0,0,1-.4,4.083c2.94-.586,5.7-1.254,8.091-2.93a6,6,0,0,0,2.516-3.475,1.664,1.664,0,0,1,2.126-1.315,1.734,1.734,0,0,1,1.079,2.275,8.948,8.948,0,0,1-3.858,5.276,22.72,22.72,0,0,1-8.4,3.273,8.006,8.006,0,0,0-2.083.457c1.629,3.046,1.43,5.824-.842,8.372-.224.252-.285.406-.026.689C1004-39.828,1004.306-37.17,1002.924-34.171Zm-32.582-75.312a20.091,20.091,0,0,0-20.158,20.328,20.12,20.12,0,0,0,20.232,19.839,20.138,20.138,0,0,0,19.952-20.02A20.112,20.112,0,0,0,970.342-109.482Zm17.91,35.148c1.25,0,2.317-.038,3.38.015a1.233,1.233,0,0,0,1.245-.7A26.606,26.606,0,0,0,996.9-92.19a26.8,26.8,0,0,0-30.3-23.749,26.837,26.837,0,0,0-22.666,31.495A26.891,26.891,0,0,0,979.617-64.28c.969-.362,1.453-.72.924-1.783a2.264,2.264,0,0,1-.191-1.123c.061-.853-.151-1-.972-.649a23.017,23.017,0,0,1-11.755,1.706,23.44,23.44,0,0,1-20.545-26.443,23.412,23.412,0,0,1,26.853-19.881,23.391,23.391,0,0,1,18.026,31.9A26.049,26.049,0,0,1,988.252-74.335Zm-25.7,40.168c.2-.926.35-1.6.491-2.266q2.327-11.029,4.662-22.058c.14-.658.031-.928-.711-.991a26.575,26.575,0,0,1-9.026-2.439c-.812-.378-1.1-.287-1.3.615-.55,2.55-1.182,5.083-1.786,7.621q-1.874,7.87-3.752,15.738c-.063.265-.255.582-.02.785s.522-.06.767-.155c1.234-.478,2.493-.907,3.679-1.486a2.293,2.293,0,0,1,3.058.63C959.824-36.845,961.13-35.606,962.553-34.167Zm74.7-18.409c0-4.707-.013-9.414.014-14.12,0-.7-.136-.986-.907-.959-1.637.058-3.278.044-4.917,0-.655-.016-.9.139-.9.855q.035,14.225,0,28.449c0,.725.261.865.907.849,1.534-.039,3.071-.063,4.6.007.917.042,1.239-.174,1.227-1.175C1037.222-43.3,1037.256-47.939,1037.256-52.576Zm-55.818-8.812a29.281,29.281,0,0,1-7.652,1.885c-.88.075-1.1.27-.9,1.19,1.61,7.484,3.16,14.981,4.745,22.471.1.464.013,1.2.414,1.323.5.151.762-.575,1.147-.9.347-.289.643-.638.968-.954a11.938,11.938,0,0,1,2.665-2.467,3.483,3.483,0,0,0,1.689-1.871c.208-.415.174-.593-.26-.776a6.063,6.063,0,0,1-2.395-1.81,6.658,6.658,0,0,1,.117-8.649c.283-.345.64-.554.163-1.1C979.958-55.538,979.765-58.276,981.438-61.388Zm10.5-2.9c1.639,0,3.279.011,4.918,0a3.378,3.378,0,0,0,3.556-3.322,3.362,3.362,0,0,0-3.509-3.366q-4.866-.023-9.732,0a3.343,3.343,0,0,0-3.5,3.369,3.374,3.374,0,0,0,3.557,3.32C988.8-64.281,990.37-64.291,991.94-64.291Zm.153,3.349c-1.639,0-3.279-.013-4.918,0a3.35,3.35,0,0,0-3.5,3.369,3.348,3.348,0,0,0,3.451,3.318q4.918.03,9.836,0a3.355,3.355,0,0,0,3.453-3.318,3.368,3.368,0,0,0-3.508-3.368C995.3-60.954,993.7-60.942,992.092-60.942ZM992.068-44.2h4.918a3.377,3.377,0,0,0,3.427-3.349,3.351,3.351,0,0,0-3.429-3.34q-4.918-.032-9.836,0a3.342,3.342,0,0,0-3.475,3.288,3.36,3.36,0,0,0,3.477,3.4C988.79-44.189,990.429-44.2,992.068-44.2Zm1.663,10.044c1.082,0,2.163.015,3.244,0a3.361,3.361,0,0,0,3.438-3.332A3.349,3.349,0,0,0,997-40.849q-3.3-.036-6.593,0a3.332,3.332,0,0,0-3.384,3.378,3.356,3.356,0,0,0,3.359,3.306C991.5-34.139,992.615-34.16,993.731-34.16Z" transform="translate(-940.165 119.543)" fill="#030202"/>
      <path id="Trazado_646822" data-name="Trazado 646822" d="M1088.065,1.65c1.382-3,1.075-5.657-1.092-8.029-.258-.283-.2-.437.026-.689,2.272-2.548,2.471-5.325.842-8.372a8.005,8.005,0,0,1,2.083-.457,22.719,22.719,0,0,0,8.4-3.273,8.947,8.947,0,0,0,3.858-5.276,1.734,1.734,0,0,0-1.079-2.275,1.664,1.664,0,0,0-2.126,1.315,6,6,0,0,1-2.516,3.475c-2.395,1.675-5.151,2.344-8.091,2.93a7.782,7.782,0,0,0,.4-4.083,7.063,7.063,0,0,0-1.634-3.219c-.216-.242-.555-.407-.16-.837,2.171-2.367,2.467-5.032,1.082-8.025,2.371,0,4.655-.017,6.938.008.931.01,1.765-.105,2.152-1.093s-.2-1.608-.88-2.233c-3.633-3.333-5.842-7.35-5.661-12.406a8.183,8.183,0,0,1,3.734-6.963,48.29,48.29,0,0,0,1.672,5.34,29.312,29.312,0,0,0,4.654,8,2.78,2.78,0,0,0,1.746,1.021c5.41.961,8.777,4.3,9.849,9.714a5.906,5.906,0,0,1,.083,1.142c0,10.426-.007,20.852.024,31.278a1.9,1.9,0,0,1-.836,1.663,6.349,6.349,0,0,1-3.889,1.331C1101.159,1.668,1094.671,1.65,1088.065,1.65Z" transform="translate(-1025.306 83.722)" fill="#eeccac"/>
      <path id="Trazado_646823" data-name="Trazado 646823" d="M984.215-95.552A20.112,20.112,0,0,1,1004.241-75.4a20.138,20.138,0,0,1-19.952,20.02,20.12,20.12,0,0,1-20.232-19.839A20.091,20.091,0,0,1,984.215-95.552Zm-5.091,17.407c0,2.45-.008,4.814.008,7.178,0,.42-.153.534-.547.525-.906-.021-1.814-.028-2.719,0a1.622,1.622,0,0,0-1.75,1.674q-.052,3.345,0,6.692a1.582,1.582,0,0,0,1.659,1.656q8.368.034,16.737,0a1.585,1.585,0,0,0,1.668-1.648q.055-3.345,0-6.692a1.628,1.628,0,0,0-1.744-1.684,15.71,15.71,0,0,0-2.195.008c-.846.087-1.1-.149-1.1-1.05.048-5.611.026-11.223.023-16.835,0-1.656-.547-2.211-2.17-2.217-1.395-.005-2.79.008-4.184-.006a2.786,2.786,0,0,0-1.31.287q-3.171,1.591-6.344,3.177a1.736,1.736,0,0,0-1.062,1.655c0,2.161-.023,4.322.011,6.483a1.664,1.664,0,0,0,2.358,1.64C977.33-77.557,978.182-77.844,979.124-78.145Z" transform="translate(-954.037 105.613)" fill="#f9e47e"/>
      <path id="Trazado_646824" data-name="Trazado 646824" d="M992.843-69.71a26.049,26.049,0,0,0,3.707-6.216,23.391,23.391,0,0,0-18.026-31.9,23.412,23.412,0,0,0-26.853,19.881A23.44,23.44,0,0,0,972.214-61.5a23.017,23.017,0,0,0,11.755-1.706c.82-.35,1.033-.2.972.649a2.264,2.264,0,0,0,.191,1.123c.529,1.063.044,1.421-.924,1.783a26.891,26.891,0,0,1-35.681-20.164,26.837,26.837,0,0,1,22.666-31.495,26.8,26.8,0,0,1,30.3,23.749A26.606,26.606,0,0,1,997.468-70.4a1.233,1.233,0,0,1-1.245.7C995.16-69.748,994.092-69.71,992.843-69.71Z" transform="translate(-944.755 114.918)" fill="#d54e46"/>
      <path id="Trazado_646825" data-name="Trazado 646825" d="M977.554,45.327c-1.423-1.439-2.729-2.678-3.936-4.007a2.293,2.293,0,0,0-3.058-.63c-1.185.579-2.445,1.008-3.679,1.486-.245.095-.525.363-.767.155s-.043-.52.02-.785q1.876-7.869,3.752-15.738c.6-2.538,1.237-5.071,1.786-7.621.195-.9.487-.993,1.3-.615A26.575,26.575,0,0,0,982,20.012c.742.062.851.333.711.991q-2.348,11.026-4.662,22.058C977.9,43.731,977.756,44.4,977.554,45.327Z" transform="translate(-955.166 40.05)" fill="#bf4037"/>
      <path id="Trazado_646826" data-name="Trazado 646826" d="M1162.4,19.267c0,4.637-.033,9.274.026,13.911.013,1-.309,1.218-1.227,1.175-1.531-.07-3.069-.045-4.6-.007-.646.016-.909-.123-.907-.849q.036-14.224,0-28.449c0-.716.246-.871.9-.855,1.638.04,3.279.054,4.917,0,.771-.028.911.261.907.959C1162.385,9.854,1162.4,14.56,1162.4,19.267Z" transform="translate(-1065.307 47.7)" fill="#6b7073"/>
      <path id="Trazado_646827" data-name="Trazado 646827" d="M1026.645,19.134c-1.673,3.112-1.48,5.85.7,8.346.477.546.119.755-.163,1.1a6.658,6.658,0,0,0-.117,8.649,6.063,6.063,0,0,0,2.395,1.81c.434.183.469.361.26.776a3.482,3.482,0,0,1-1.689,1.871,11.938,11.938,0,0,0-2.665,2.467c-.325.316-.621.666-.968.954-.385.321-.647,1.046-1.147.9-.4-.12-.316-.858-.414-1.323-1.584-7.49-3.134-14.987-4.745-22.471-.2-.92.024-1.115.9-1.19A29.28,29.28,0,0,0,1026.645,19.134Z" transform="translate(-985.372 39.021)" fill="#be4037"/>
      <path id="Trazado_646828" data-name="Trazado 646828" d="M1052.183,2.931c-1.57,0-3.139.01-4.709,0a3.374,3.374,0,0,1-3.557-3.32,3.343,3.343,0,0,1,3.5-3.369q4.865-.024,9.732,0a3.362,3.362,0,0,1,3.509,3.366,3.378,3.378,0,0,1-3.556,3.322C1055.462,2.942,1053.823,2.931,1052.183,2.931Z" transform="translate(-1000.408 52.321)" fill="#e8c5a6"/>
      <path id="Trazado_646829" data-name="Trazado 646829" d="M1052.336,20.191c1.6,0,3.209-.012,4.813,0a3.346,3.346,0,1,1,.055,6.686q-4.918.031-9.836,0a3.346,3.346,0,1,1,.049-6.686C1049.057,20.178,1050.7,20.191,1052.336,20.191Z" transform="translate(-1000.408 38.41)" fill="#e8c5a6"/>
      <path id="Trazado_646830" data-name="Trazado 646830" d="M1052.312,50.831c-1.639,0-3.279.015-4.918,0a3.346,3.346,0,1,1,0-6.686q4.918-.026,9.836,0a3.345,3.345,0,1,1,0,6.688h-4.918Z" transform="translate(-1000.408 24.509)" fill="#e8c5a6"/>
      <path id="Trazado_646831" data-name="Trazado 646831" d="M1058.612,74.776c-1.116,0-2.233.021-3.349-.005a3.342,3.342,0,1,1,.025-6.684q3.3-.041,6.593,0a3.344,3.344,0,1,1-.025,6.686C1060.775,74.791,1059.693,74.776,1058.612,74.776Z" transform="translate(-1005.045 10.608)" fill="#e7c5a6"/>
      <path id="Trazado_646832" data-name="Trazado 646832" d="M993.014-71.207c-.942.3-1.794.588-2.655.846A1.665,1.665,0,0,1,988-72c-.034-2.161-.008-4.322-.011-6.483a1.736,1.736,0,0,1,1.062-1.655q3.173-1.587,6.344-3.177a2.787,2.787,0,0,1,1.31-.287c1.395.015,2.79,0,4.184.006,1.623.005,2.169.561,2.17,2.217,0,5.612.025,11.224-.023,16.835-.008.9.25,1.138,1.1,1.05a15.71,15.71,0,0,1,2.195-.008,1.628,1.628,0,0,1,1.744,1.684q.052,3.345,0,6.692a1.585,1.585,0,0,1-1.668,1.648q-8.368.033-16.736,0a1.582,1.582,0,0,1-1.659-1.656q-.052-3.346,0-6.692a1.622,1.622,0,0,1,1.75-1.674c.906-.029,1.813-.022,2.72,0,.395.009.55-.1.547-.525C993.006-66.392,993.014-68.756,993.014-71.207Zm-1.674-3.014c.872-.284,1.658-.547,2.448-.8,1.631-.517,2.569.165,2.573,1.892.009,3.485,0,6.97,0,10.455,0,2.063-.446,2.508-2.509,2.509-2.6,0-2.579,0-2.532,2.629.011.624.225.732.783.729q5.961-.031,11.923,0c.523,0,.707-.11.724-.682.079-2.674.1-2.673-2.59-2.675-.139,0-.279,0-.418,0-1.432-.021-2.028-.605-2.03-2.043-.007-5.716,0-11.431-.014-17.147,0-.3.239-.849-.261-.859a6.607,6.607,0,0,0-3.089.176c-1.508.715-2.983,1.5-4.484,2.23a.75.75,0,0,0-.535.776C991.361-76.126,991.34-75.223,991.34-74.221Z" transform="translate(-967.928 98.675)" fill="#010101"/>
      <path id="Trazado_646833" data-name="Trazado 646833" d="M995.954-69.656c0-1,.021-1.906-.009-2.807a.75.75,0,0,1,.535-.776c1.5-.731,2.976-1.515,4.484-2.23a6.607,6.607,0,0,1,3.089-.176c.5.01.26.562.261.859.016,5.715.008,11.431.014,17.147,0,1.438.6,2.021,2.03,2.043.139,0,.279,0,.418,0,2.69,0,2.669,0,2.59,2.675-.017.572-.2.684-.724.682q-5.961-.028-11.923,0c-.558,0-.772-.105-.783-.729-.048-2.629-.072-2.628,2.532-2.629,2.063,0,2.509-.446,2.509-2.509,0-3.485.006-6.971,0-10.455,0-1.726-.942-2.408-2.573-1.892C997.612-70.2,996.826-69.94,995.954-69.656Z" transform="translate(-972.542 94.11)" fill="#ebc755"/>
    </g>
  </g>
</svg>
