<svg xmlns="http://www.w3.org/2000/svg" width="111.679" height="111.679" viewBox="0 0 111.679 111.679">
  <g id="Grupo_985931" data-name="Grupo 985931" transform="translate(-744.161 -1365.16)">
    <g id="Grupo_985926" data-name="Grupo 985926" transform="translate(309.161 -2975.84)">
      <circle id="Elipse_7706" data-name="Elipse 7706" cx="55.839" cy="55.839" r="55.839" transform="translate(435 4341)" fill="#006475"/>
    </g>
    <g id="Grupo_985923" data-name="Grupo 985923" transform="translate(749.331 1370.332)">
      <path id="Trazado_643014" data-name="Trazado 643014" d="M-248.624,398.739a50.751,50.751,0,0,1-50.75,50.639,50.753,50.753,0,0,1-50.589-50.7,50.75,50.75,0,0,1,50.749-50.638A50.746,50.746,0,0,1-248.624,398.739Zm-65.246,44.507c-.143.4.139.636.644.781,2.486.713,5.021,1.183,7.555,1.688,1.874.374,3.3.033,4.4-1.561a6.691,6.691,0,0,1,.93-.945,8.6,8.6,0,0,0,2.7-6.284,12.581,12.581,0,0,1,12.071-12.052,8.624,8.624,0,0,0,6.209-2.635c1.433-1.454,2.833-2.953,4.37-4.292a11.165,11.165,0,0,1,10.362-2.536,13.135,13.135,0,0,1,6.716,4.4c.544.6.77.617,1.151-.168A50.467,50.467,0,0,0-252.76,407.8c.143-.688.044-.936-.748-.931-5.242.036-10.485.027-15.727.007a.978.978,0,0,0-1.1.729,6.441,6.441,0,0,1-9.108,3.4,1.147,1.147,0,0,0-1.3.044q-13.088,8.019-26.2,16.007a1.4,1.4,0,0,0-.722.915,6.316,6.316,0,0,1-4.347,4.727.787.787,0,0,0-.628.766C-313.021,436.671-313.44,439.874-313.87,443.245Zm12.2-91.938c-1.755.209-3.52.359-5.263.643-1.573.256-3.12.668-4.683.991-.533.11-.793.314-.775.939.052,1.7.039,3.4.006,5.1-.011.533.18.739.67.936a6.448,6.448,0,0,1,3.635,8.8.862.862,0,0,0,.2,1.137q14.38,14.348,28.74,28.715c.713.713,1.427.56,1.746-.377.885-2.6,1.741-5.218,2.631-7.819a.755.755,0,0,0-.2-.976,8.644,8.644,0,0,1-3.1-7.815,3.8,3.8,0,0,0-1.217-3.031q-2.341-2.351-4.689-4.7a4.4,4.4,0,0,0-3.109-1.307,7.383,7.383,0,0,1-7.305-7.289,4.467,4.467,0,0,0-1.365-3.189q-1.494-1.465-2.96-2.959a7.4,7.4,0,0,1-2.223-5.415c0-.544-.027-1.09.008-1.633C-300.887,351.505-301.04,351.2-301.667,351.307Zm3.155,94.765c.607,0,1.017.029,1.422-.005,1.185-.1,2.372-.19,3.55-.346,14.3-1.9,25.456-8.919,33.653-20.726,1.043-1.5,1.012-1.523-.309-2.846-.408-.41-.815-.821-1.227-1.227a8.188,8.188,0,0,0-12.008.015c-1.259,1.243-2.5,2.506-3.757,3.748a10.823,10.823,0,0,1-8.04,3.412c-4.568-.123-9.341,4.576-9.2,9.234a10.628,10.628,0,0,1-2.95,7.507C-297.707,445.21-298.052,445.573-298.511,446.072Zm25.108-59.79c.513-1.519.968-2.906,1.455-4.282.179-.507,0-.778-.394-1.109a6.238,6.238,0,0,1-2.3-6.277,6.285,6.285,0,0,1,4.634-5.062,1.326,1.326,0,0,0,.974-.892c.507-1.334,1.021-2.667,1.607-3.968a1.01,1.01,0,0,0-.365-1.378,47.844,47.844,0,0,0-17.164-9.776,49.447,49.447,0,0,0-11.908-2.173c-.288-.019-.768-.22-.783.342-.05,1.9-.217,3.828,1.442,5.3,1.017.9,1.945,1.906,2.9,2.881a7.366,7.366,0,0,1,2.181,5.026,4.17,4.17,0,0,0,4.359,4.382,6.693,6.693,0,0,1,4.325,1.58,67.831,67.831,0,0,1,6.064,6.056c1.492,1.7,1.7,3.8,1.606,5.955A4.1,4.1,0,0,0-273.4,386.281Zm-50.426,8.427a8.7,8.7,0,0,1-.014,1.368c-.1.639.155.783.746.864,3.468.474,6.93.989,10.39,1.513.473.072.647-.09.807-.515a5.683,5.683,0,0,1,1.979-2.667,1.125,1.125,0,0,0,.5-1.355q-2.035-9.984-3.971-19.988c-.183-.952-.432-1.539-1.54-1.453a2.324,2.324,0,0,1-1.268-.331c-.788-.463-1.185-.083-1.648.512q-4.732,6.079-9.527,12.108c-.537.672-.578,1.046.091,1.639A9.787,9.787,0,0,1-323.829,394.709Zm6.745,47.919c.383-3.08.73-6.049,1.138-9.01.083-.6-.01-.867-.6-1.136a6.3,6.3,0,0,1-3.969-6.2,2.308,2.308,0,0,0-.541-1.567q-3.993-5.037-7.954-10.1c-.323-.41-.654-.811-1.018-1.264a21.018,21.018,0,0,1-3.322,3.757,6.326,6.326,0,0,0-1.9,4.482,9.169,9.169,0,0,1-1.469,5.016.924.924,0,0,0,.115,1.3,49.725,49.725,0,0,0,5.195,5.609A47.576,47.576,0,0,0-317.084,442.628Zm7.03-70.584-.307.193a5.066,5.066,0,0,0,.05.6c1.356,6.794,2.724,13.585,4.06,20.383.112.572.425.56.853.6a6.331,6.331,0,0,1,5.741,4.482,1.352,1.352,0,0,0,1.105.984c4.681,1.157,9.357,2.334,14.035,3.5,1.682.419,1.632.376,2.591-.993.475-.679.377-1.023-.183-1.58q-13.742-13.684-27.434-27.418A4.74,4.74,0,0,1-310.054,372.044Zm27.7,35.887c-.377-.505-.2-1.314-1.182-1.548-5.157-1.222-10.293-2.531-15.427-3.845-.508-.13-.692-.048-.907.418a6.338,6.338,0,0,1-5.848,3.908.84.84,0,0,0-.883.617q-2.414,6.113-4.875,12.208c-.222.549-.074.759.417.989a5.62,5.62,0,0,1,2.689,2.558c.32.631.568.528,1.05.23,2.861-1.773,5.74-3.518,8.613-5.271q7.836-4.782,15.669-9.57C-282.773,408.464-282.365,408.4-282.353,407.931Zm-46.359-.087c.139.768-.26,1.575.351,2.338,3.017,3.77,5.991,7.574,8.963,11.38.341.437.557.565,1.008.114a5.519,5.519,0,0,1,2.74-1.493.991.991,0,0,0,.762-.714q2.595-6.528,5.21-13.049a.716.716,0,0,0-.26-1.016,5.646,5.646,0,0,1-2.026-2.87,1.074,1.074,0,0,0-1.057-.844c-3.132-.423-6.28-.777-9.377-1.386-1.755-.345-3.072-.218-3.884,1.53a.547.547,0,0,1-.136.151A6.79,6.79,0,0,0-328.711,407.844Zm13.072-53.42c-.356-.145-.59.037-.835.133a47.739,47.739,0,0,0-19.381,14c-.383.455-.421.728.051,1.149.811.724,1.539,1.539,2.323,2.295a9.845,9.845,0,0,1,3.143,7.581,5.7,5.7,0,0,0,.436,3.133c3.432-4.362,6.79-8.636,10.16-12.9.226-.287.083-.484-.026-.733-1.731-3.972-.36-7.512,3.571-9.2.331-.142.576-.251.569-.7C-315.657,357.588-315.639,355.993-315.639,354.424Zm54.538,49.188q4.086,0,8.171,0c.39,0,.785.114.846-.546a48.14,48.14,0,0,0-.709-13.512c-.05-.261,0-.631-.474-.651a4.938,4.938,0,0,0-3.987,1.15c-.533.526-1.056,1.063-1.595,1.583a7.431,7.431,0,0,1-5.339,2.172c-.988,0-1.975-.015-2.962,0a7.259,7.259,0,0,1-4.177-1.106c-.535-.346-.71-.228-.89.348q-.822,2.625-1.75,5.215c-.211.586-.162.861.456,1.145a5.9,5.9,0,0,1,3.156,3.447c.236.659.569.771,1.184.765C-266.48,403.6-263.791,403.613-261.1,403.612Zm-85.414-9.031c.181.219-.353.855.41.839.51-.011,1.1.3,1.448-.515,1.446-3.408,4.1-4.826,7.666-4.17a.9.9,0,0,0,1.055-.325c1.086-1.439,2.217-2.846,3.338-4.259.2-.256.355-.5.164-.825-1.161-2-1.214-4.2-1.2-6.431a5.681,5.681,0,0,0-1.6-3.978c-.837-.9-1.741-1.726-2.576-2.623-.416-.446-.611-.314-.9.123A47.493,47.493,0,0,0-346.515,394.581Zm7.292,29.546a1.906,1.906,0,0,0,.508-1.065,16.124,16.124,0,0,0,.259-2.632,10.053,10.053,0,0,1,2.939-5.805,13.249,13.249,0,0,0,2.909-3.388,1.125,1.125,0,0,0-.133-1.383c-1.523-1.874-3.005-3.781-4.483-5.69a1.249,1.249,0,0,0-1.093-.569,6.314,6.314,0,0,1-6.31-4.267c-.39-.99-1.112-.583-1.7-.582-.682,0-.355.636-.347.958a46.79,46.79,0,0,0,5.052,20.3A30,30,0,0,0-339.223,424.127Zm85.433-38.478c-.058-.266-.083-.432-.131-.591A47.478,47.478,0,0,0-264.083,367c-.48-.54-.661-.357-.855.189a18.235,18.235,0,0,1-.713,1.8c-.242.5-.161.741.354,1.025a6.436,6.436,0,0,1,3.44,7.159A6.464,6.464,0,0,1-268,382.345a.8.8,0,0,0-.858.645c-.468,1.489-.974,2.965-1.467,4.446-.54,1.622-.273,2.191,1.342,2.815a4.214,4.214,0,0,0,1.594.289c.952-.013,1.906-.034,2.856,0a4.4,4.4,0,0,0,3.636-1.5C-259.009,386.934-256.839,385.414-253.79,385.649Zm-73.29,8.612a6.7,6.7,0,0,0-2.558-5.613c-.309-.277-.479-.387-.778.008-.943,1.243-1.918,2.463-2.883,3.69a.554.554,0,0,0-.134.631c.97,2.439,1.368,2.751,4.04,3.071.168.02.339.023.507.047C-327.079,396.354-327.079,396.354-327.08,394.261Zm9.809-28.292a3.294,3.294,0,0,0,3.164,3.319,3.3,3.3,0,0,0,3.371-3.216A3.291,3.291,0,0,0-314,362.754,3.28,3.28,0,0,0-317.272,365.969Zm52.3,9.831a3.293,3.293,0,0,0-3.245-3.24,3.279,3.279,0,0,0-3.29,3.294,3.292,3.292,0,0,0,3.243,3.241A3.3,3.3,0,0,0-264.972,375.8Zm-73.6,18.007a3.279,3.279,0,0,0-3.218,3.265,3.291,3.291,0,0,0,3.316,3.27,3.3,3.3,0,0,0,3.219-3.267A3.291,3.291,0,0,0-338.571,393.808Zm36.007,6.579a3.294,3.294,0,0,0-3.174-3.31,3.281,3.281,0,0,0-3.36,3.223,3.29,3.29,0,0,0,3.274,3.312A3.3,3.3,0,0,0-302.565,400.386Zm29.421,4.833a3.293,3.293,0,0,0-3.245-3.24,3.279,3.279,0,0,0-3.29,3.294,3.292,3.292,0,0,0,3.243,3.241A3.3,3.3,0,0,0-273.144,405.219Zm-44.128,21.222a3.294,3.294,0,0,0,3.163,3.32,3.3,3.3,0,0,0,3.371-3.215A3.29,3.29,0,0,0-314,423.227,3.281,3.281,0,0,0-317.272,426.441Zm-11.375-26.854a10.977,10.977,0,0,0-2.17-.459c-.968-.293-1.64-.143-1.965.982a4.249,4.249,0,0,1-1.328,1.782c-.19.177-.485.328-.226.657.764.973,1.53,1.943,2.428,3.082A10.356,10.356,0,0,1-328.646,399.587Z" transform="translate(349.963 -348.043)" fill="#020203"/>
      <path id="Trazado_643015" data-name="Trazado 643015" d="M-261.716,528.332c.43-3.371.85-6.574,1.235-9.781a.787.787,0,0,1,.628-.766,6.316,6.316,0,0,0,4.347-4.727,1.4,1.4,0,0,1,.722-.915q13.1-7.992,26.2-16.007a1.147,1.147,0,0,1,1.3-.044,6.441,6.441,0,0,0,9.108-3.4.978.978,0,0,1,1.1-.729c5.242.02,10.485.029,15.727-.007.792-.006.892.243.748.931a50.467,50.467,0,0,1-4.006,11.841c-.381.784-.607.764-1.151.168a13.135,13.135,0,0,0-6.716-4.4,11.165,11.165,0,0,0-10.362,2.536c-1.536,1.339-2.936,2.837-4.369,4.292a8.625,8.625,0,0,1-6.209,2.635,12.581,12.581,0,0,0-12.071,12.052,8.6,8.6,0,0,1-2.7,6.284,6.691,6.691,0,0,0-.93.945c-1.1,1.594-2.524,1.935-4.4,1.561-2.534-.505-5.069-.975-7.555-1.688C-261.577,528.968-261.859,528.729-261.716,528.332Z" transform="translate(297.808 -433.129)" fill="#5397ee"/>
      <path id="Trazado_643016" data-name="Trazado 643016" d="M-247.313,356c.627-.1.78.2.745.759-.034.542,0,1.089-.008,1.633a7.4,7.4,0,0,0,2.223,5.415q1.468,1.491,2.96,2.959a4.467,4.467,0,0,1,1.365,3.189,7.383,7.383,0,0,0,7.305,7.289,4.4,4.4,0,0,1,3.109,1.307q2.341,2.35,4.689,4.7a3.8,3.8,0,0,1,1.217,3.031,8.644,8.644,0,0,0,3.1,7.815.755.755,0,0,1,.2.976c-.89,2.6-1.746,5.216-2.631,7.819-.319.937-1.033,1.09-1.746.377q-14.37-14.357-28.74-28.715a.862.862,0,0,1-.2-1.137,6.448,6.448,0,0,0-3.635-8.8c-.49-.2-.681-.4-.67-.936.033-1.7.046-3.4-.006-5.1-.019-.625.242-.828.775-.939,1.563-.323,3.11-.735,4.683-.991C-250.833,356.358-249.068,356.208-247.313,356Z" transform="translate(295.609 -352.735)" fill="#5397ee"/>
      <path id="Trazado_643017" data-name="Trazado 643017" d="M-224.085,547.712c.459-.5.8-.862,1.136-1.235A10.628,10.628,0,0,0-220,538.97c-.143-4.658,4.63-9.357,9.2-9.234a10.823,10.823,0,0,0,8.04-3.412c1.26-1.242,2.5-2.5,3.757-3.748A8.188,8.188,0,0,1-187,522.562c.412.405.819.817,1.227,1.227,1.321,1.323,1.352,1.344.309,2.846-8.2,11.807-19.354,18.823-33.653,20.726-1.178.157-2.366.246-3.55.346C-223.068,547.741-223.478,547.712-224.085,547.712Z" transform="translate(275.537 -449.683)" fill="#85b365"/>
      <path id="Trazado_643018" data-name="Trazado 643018" d="M-197.767,391.013a4.1,4.1,0,0,1-1.369-3.4c.1-2.159-.114-4.26-1.606-5.955a67.838,67.838,0,0,0-6.064-6.056,6.693,6.693,0,0,0-4.325-1.58,4.17,4.17,0,0,1-4.359-4.382,7.366,7.366,0,0,0-2.181-5.026c-.95-.975-1.878-1.98-2.9-2.881-1.66-1.471-1.493-3.394-1.442-5.3.015-.562.495-.361.783-.342a49.449,49.449,0,0,1,11.908,2.173,47.843,47.843,0,0,1,17.164,9.776,1.01,1.01,0,0,1,.365,1.378c-.586,1.3-1.1,2.634-1.607,3.968a1.326,1.326,0,0,1-.974.892,6.285,6.285,0,0,0-4.634,5.062,6.238,6.238,0,0,0,2.3,6.277c.391.331.573.6.394,1.109C-196.8,388.107-197.254,389.495-197.767,391.013Z" transform="translate(274.327 -352.775)" fill="#85b265"/>
      <path id="Trazado_643019" data-name="Trazado 643019" d="M-291.744,429.276a9.787,9.787,0,0,0-3.456-8.3c-.668-.593-.628-.967-.091-1.639q4.812-6.015,9.527-12.108c.464-.6.86-.975,1.648-.512a2.323,2.323,0,0,0,1.267.331c1.109-.086,1.357.5,1.54,1.453q1.926,10.005,3.971,19.988a1.125,1.125,0,0,1-.5,1.355,5.683,5.683,0,0,0-1.979,2.667c-.159.425-.334.586-.807.515-3.46-.524-6.922-1.039-10.39-1.513-.591-.081-.846-.225-.746-.864A8.693,8.693,0,0,0-291.744,429.276Z" transform="translate(317.878 -382.61)" fill="#5397ee"/>
      <path id="Trazado_643020" data-name="Trazado 643020" d="M-298.243,537.1a47.575,47.575,0,0,1-14.325-9.108,49.725,49.725,0,0,1-5.195-5.609.924.924,0,0,1-.115-1.3,9.168,9.168,0,0,0,1.469-5.016,6.326,6.326,0,0,1,1.9-4.482,21.021,21.021,0,0,0,3.322-3.757c.365.452.7.854,1.018,1.264q3.975,5.05,7.954,10.1a2.308,2.308,0,0,1,.541,1.567,6.3,6.3,0,0,0,3.969,6.2c.594.269.687.532.6,1.136C-297.512,531.049-297.86,534.018-298.243,537.1Z" transform="translate(331.122 -442.513)" fill="#5397ee"/>
      <path id="Trazado_643021" data-name="Trazado 643021" d="M-252.767,406.762a4.74,4.74,0,0,0,.512.756q13.7,13.723,27.434,27.418c.56.557.658.9.183,1.58-.959,1.369-.909,1.412-2.591.993-4.679-1.165-9.355-2.342-14.035-3.5a1.352,1.352,0,0,1-1.105-.984,6.331,6.331,0,0,0-5.741-4.482c-.428-.045-.741-.033-.853-.6-1.336-6.8-2.7-13.589-4.06-20.383a5.066,5.066,0,0,1-.05-.6Z" transform="translate(292.677 -382.761)" fill="#5397ee"/>
      <path id="Trazado_643022" data-name="Trazado 643022" d="M-226.825,486.68c-.013.473-.421.533-.685.7q-7.828,4.8-15.669,9.57c-2.873,1.754-5.751,3.5-8.613,5.271-.482.3-.729.4-1.05-.23a5.62,5.62,0,0,0-2.689-2.558c-.491-.23-.639-.44-.417-.989q2.47-6.091,4.875-12.208a.84.84,0,0,1,.883-.617,6.338,6.338,0,0,0,5.848-3.908c.215-.466.4-.548.907-.418,5.134,1.314,10.271,2.623,15.427,3.845C-227.021,485.366-227.2,486.175-226.825,486.68Z" transform="translate(294.435 -426.792)" fill="#5396ee"/>
      <path id="Trazado_643023" data-name="Trazado 643023" d="M-298.015,483.219a6.79,6.79,0,0,1,2.292-5.859.546.546,0,0,0,.136-.151c.812-1.748,2.129-1.875,3.884-1.53,3.1.608,6.245.962,9.377,1.386a1.074,1.074,0,0,1,1.057.844,5.646,5.646,0,0,0,2.026,2.87.716.716,0,0,1,.26,1.016q-2.63,6.514-5.21,13.049a.991.991,0,0,1-.762.714,5.519,5.519,0,0,0-2.74,1.493c-.451.451-.667.323-1.008-.114-2.971-3.806-5.946-7.61-8.963-11.38C-298.274,484.793-297.876,483.987-298.015,483.219Z" transform="translate(319.267 -423.417)" fill="#5397ee"/>
      <path id="Trazado_643024" data-name="Trazado 643024" d="M-295.66,363.576c0,1.569-.018,3.164.011,4.757.008.448-.237.556-.569.7-3.931,1.691-5.3,5.232-3.571,9.2.109.249.252.446.026.733-3.37,4.265-6.728,8.54-10.16,12.9a5.7,5.7,0,0,1-.436-3.133,9.845,9.845,0,0,0-3.143-7.581c-.784-.755-1.512-1.571-2.323-2.295-.472-.421-.434-.694-.051-1.149a47.739,47.739,0,0,1,19.381-14C-296.25,363.613-296.016,363.431-295.66,363.576Z" transform="translate(329.984 -357.195)" fill="#5397ee"/>
      <path id="Trazado_643025" data-name="Trazado 643025" d="M-151.334,462.694c-2.69,0-5.379-.017-8.069.013-.615.007-.947-.106-1.184-.765a5.9,5.9,0,0,0-3.156-3.447c-.618-.284-.667-.559-.456-1.145q.933-2.587,1.75-5.215c.18-.576.355-.694.89-.348a7.259,7.259,0,0,0,4.177,1.106c.987-.019,1.974,0,2.962,0a7.43,7.43,0,0,0,5.339-2.172c.539-.52,1.062-1.057,1.595-1.583a4.939,4.939,0,0,1,3.987-1.15c.471.02.424.39.474.651a48.14,48.14,0,0,1,.709,13.512c-.061.661-.457.546-.846.546Q-147.248,462.7-151.334,462.694Z" transform="translate(240.196 -407.125)" fill="#5397ee"/>
      <path id="Trazado_643026" data-name="Trazado 643026" d="M-341.55,429.264a47.493,47.493,0,0,1,7.8-22.162c.29-.437.485-.569.9-.123.835.9,1.74,1.728,2.576,2.623a5.681,5.681,0,0,1,1.6,3.978c-.009,2.23.043,4.429,1.2,6.431.191.329.039.569-.164.825-1.121,1.413-2.251,2.819-3.338,4.259a.9.9,0,0,1-1.055.325c-3.569-.656-6.22.761-7.666,4.17-.345.813-.938.5-1.448.515C-341.9,430.119-341.369,429.483-341.55,429.264Z" transform="translate(344.998 -382.725)" fill="#85b265"/>
      <path id="Trazado_643027" data-name="Trazado 643027" d="M-334.582,497.347a29.994,29.994,0,0,1-2.394-4.128,46.79,46.79,0,0,1-5.052-20.3c-.008-.322-.335-.957.347-.958.583,0,1.3-.408,1.7.582a6.314,6.314,0,0,0,6.31,4.267,1.249,1.249,0,0,1,1.093.569c1.478,1.909,2.961,3.816,4.483,5.69a1.125,1.125,0,0,1,.133,1.383,13.249,13.249,0,0,1-2.909,3.388,10.053,10.053,0,0,0-2.939,5.805,16.125,16.125,0,0,1-.259,2.632A1.906,1.906,0,0,1-334.582,497.347Z" transform="translate(345.322 -421.263)" fill="#84b265"/>
      <path id="Trazado_643028" data-name="Trazado 643028" d="M-138.954,412.605c-3.049-.235-5.219,1.285-7.1,3.392a4.4,4.4,0,0,1-3.636,1.5c-.95-.038-1.9-.017-2.856,0a4.214,4.214,0,0,1-1.594-.289c-1.615-.624-1.881-1.193-1.342-2.815.493-1.481,1-2.958,1.467-4.446a.8.8,0,0,1,.858-.645,6.464,6.464,0,0,0,6.139-5.173,6.436,6.436,0,0,0-3.44-7.159c-.515-.284-.6-.524-.354-1.025a18.236,18.236,0,0,0,.713-1.8c.195-.546.376-.728.855-.189a47.478,47.478,0,0,1,10.161,18.055C-139.037,412.173-139.012,412.339-138.954,412.605Z" transform="translate(235.127 -374.999)" fill="#84b265"/>
      <path id="Trazado_643029" data-name="Trazado 643029" d="M-303.24,452.637c0,2.093,0,2.092-1.806,1.834-.168-.024-.338-.027-.507-.047-2.672-.32-3.069-.632-4.04-3.071a.554.554,0,0,1,.134-.631c.965-1.227,1.939-2.447,2.883-3.69.3-.394.469-.285.778-.008A6.7,6.7,0,0,1-303.24,452.637Z" transform="translate(326.123 -406.418)" fill="#84b164"/>
      <path id="Trazado_643030" data-name="Trazado 643030" d="M-269.983,387.249a3.28,3.28,0,0,1,3.267-3.215,3.291,3.291,0,0,1,3.268,3.319,3.3,3.3,0,0,1-3.371,3.216A3.294,3.294,0,0,1-269.983,387.249Z" transform="translate(302.675 -369.323)" fill="#f9f9f9"/>
      <path id="Trazado_643031" data-name="Trazado 643031" d="M-151.483,411.265a3.3,3.3,0,0,1-3.292,3.3,3.292,3.292,0,0,1-3.243-3.241,3.279,3.279,0,0,1,3.29-3.294A3.293,3.293,0,0,1-151.483,411.265Z" transform="translate(236.474 -383.508)" fill="#f9f9f9"/>
      <path id="Trazado_643032" data-name="Trazado 643032" d="M-326.747,460.007a3.291,3.291,0,0,1,3.317,3.269,3.3,3.3,0,0,1-3.219,3.267,3.291,3.291,0,0,1-3.316-3.27A3.279,3.279,0,0,1-326.747,460.007Z" transform="translate(338.139 -414.242)" fill="#f9f9f9"/>
      <path id="Trazado_643033" data-name="Trazado 643033" d="M-243.455,471.313a3.3,3.3,0,0,1-3.26,3.225,3.29,3.29,0,0,1-3.274-3.312,3.281,3.281,0,0,1,3.36-3.223A3.294,3.294,0,0,1-243.455,471.313Z" transform="translate(290.853 -418.969)" fill="#f9f9f9"/>
      <path id="Trazado_643034" data-name="Trazado 643034" d="M-171.477,483.24a3.3,3.3,0,0,1-3.292,3.3,3.292,3.292,0,0,1-3.243-3.241,3.279,3.279,0,0,1,3.29-3.294A3.293,3.293,0,0,1-171.477,483.24Z" transform="translate(248.296 -426.063)" fill="#f9f9f9"/>
      <path id="Trazado_643035" data-name="Trazado 643035" d="M-269.983,535.2a3.281,3.281,0,0,1,3.268-3.214,3.29,3.29,0,0,1,3.266,3.319,3.3,3.3,0,0,1-3.371,3.215A3.294,3.294,0,0,1-269.983,535.2Z" transform="translate(302.675 -456.798)" fill="#f9f9f9"/>
      <path id="Trazado_643036" data-name="Trazado 643036" d="M-306.188,473.295a10.356,10.356,0,0,0-3.261,6.043c-.9-1.139-1.665-2.109-2.428-3.082-.258-.329.037-.479.226-.657a4.249,4.249,0,0,0,1.328-1.782c.325-1.125,1-1.275,1.965-.982A10.978,10.978,0,0,1-306.188,473.295Z" transform="translate(327.505 -421.75)" fill="#82af63"/>
    </g>
  </g>
</svg>
