<svg xmlns="http://www.w3.org/2000/svg" width="295" height="254" viewBox="0 0 295 254">
  <g id="Grupo_985899" data-name="Grupo 985899" transform="translate(-390 -1449)">
    <g id="Grupo_985644" data-name="Grupo 985644" transform="translate(-1416.206 -131.309)">
      <g id="Grupo_985446" data-name="Grupo 985446" transform="translate(1943.142 1605.649)">
        <g id="Grupo_985445" data-name="Grupo 985445" transform="translate(0)">
          <path id="Trazado_642704" data-name="Trazado 642704" d="M2210.368,1687.862l-.227,144.228-96.54-55.522.227-144.228Z" transform="translate(-2113.601 -1632.34)" fill="#ddb247"/>
        </g>
      </g>
      <g id="Grupo_985463" data-name="Grupo 985463" transform="translate(2001.094 1676.053)">
        <g id="Grupo_985447" data-name="Grupo 985447" transform="translate(0 30.72)">
          <rect id="Rectángulo_308601" data-name="Rectángulo 308601" width="5.14" height="5.14" fill="#ffd76a"/>
        </g>
        <g id="Grupo_985448" data-name="Grupo 985448" transform="translate(0 20.714)">
          <rect id="Rectángulo_308602" data-name="Rectángulo 308602" width="5.14" height="5.14" fill="#ffd76a"/>
        </g>
        <g id="Grupo_985449" data-name="Grupo 985449" transform="translate(0 10.319)">
          <rect id="Rectángulo_308603" data-name="Rectángulo 308603" width="5.14" height="5.14" fill="#ffd76a"/>
        </g>
        <g id="Grupo_985450" data-name="Grupo 985450" transform="translate(0 0.313)">
          <rect id="Rectángulo_308604" data-name="Rectángulo 308604" width="5.14" height="5.14" fill="#ffd76a"/>
        </g>
        <g id="Grupo_985451" data-name="Grupo 985451" transform="translate(9.289 30.72)">
          <rect id="Rectángulo_308605" data-name="Rectángulo 308605" width="5.14" height="5.14" fill="#ffd76a"/>
        </g>
        <g id="Grupo_985452" data-name="Grupo 985452" transform="translate(9.289 20.714)">
          <rect id="Rectángulo_308606" data-name="Rectángulo 308606" width="5.14" height="5.14" fill="#ffd76a"/>
        </g>
        <g id="Grupo_985453" data-name="Grupo 985453" transform="translate(9.289 10.319)">
          <rect id="Rectángulo_308607" data-name="Rectángulo 308607" width="5.14" height="5.14" fill="#ffd76a"/>
        </g>
        <g id="Grupo_985454" data-name="Grupo 985454" transform="translate(9.289 0.313)">
          <rect id="Rectángulo_308608" data-name="Rectángulo 308608" width="5.14" height="5.14" fill="#ffd76a"/>
        </g>
        <g id="Grupo_985455" data-name="Grupo 985455" transform="translate(18.577 30.407)">
          <rect id="Rectángulo_308609" data-name="Rectángulo 308609" width="5.14" height="5.14" fill="#ffd76a"/>
        </g>
        <g id="Grupo_985456" data-name="Grupo 985456" transform="translate(18.577 20.401)">
          <rect id="Rectángulo_308610" data-name="Rectángulo 308610" width="5.14" height="5.14" fill="#ffd76a"/>
        </g>
        <g id="Grupo_985457" data-name="Grupo 985457" transform="translate(18.577 10.006)">
          <rect id="Rectángulo_308611" data-name="Rectángulo 308611" width="5.14" height="5.14" fill="#ffd76a"/>
        </g>
        <g id="Grupo_985458" data-name="Grupo 985458" transform="translate(18.577)">
          <rect id="Rectángulo_308612" data-name="Rectángulo 308612" width="5.14" height="5.14" fill="#ffd76a"/>
        </g>
        <g id="Grupo_985459" data-name="Grupo 985459" transform="translate(27.866 30.407)">
          <rect id="Rectángulo_308613" data-name="Rectángulo 308613" width="5.14" height="5.14" fill="#ffd76a"/>
        </g>
        <g id="Grupo_985460" data-name="Grupo 985460" transform="translate(27.866 20.401)">
          <rect id="Rectángulo_308614" data-name="Rectángulo 308614" width="5.14" height="5.14" fill="#ffd76a"/>
        </g>
        <g id="Grupo_985461" data-name="Grupo 985461" transform="translate(27.866 10.006)">
          <rect id="Rectángulo_308615" data-name="Rectángulo 308615" width="5.14" height="5.14" fill="#ffd76a"/>
        </g>
        <g id="Grupo_985462" data-name="Grupo 985462" transform="translate(27.866)">
          <rect id="Rectángulo_308616" data-name="Rectángulo 308616" width="5.14" height="5.14" fill="#ffd76a"/>
        </g>
      </g>
      <g id="Grupo_985480" data-name="Grupo 985480" transform="translate(1867.503 1700.307)">
        <g id="Grupo_985464" data-name="Grupo 985464" transform="translate(0 30.72)">
          <rect id="Rectángulo_308617" data-name="Rectángulo 308617" width="5.14" height="5.14" fill="#ffd76a"/>
        </g>
        <g id="Grupo_985465" data-name="Grupo 985465" transform="translate(0 20.714)">
          <rect id="Rectángulo_308618" data-name="Rectángulo 308618" width="5.14" height="5.14" fill="#ffd76a"/>
        </g>
        <g id="Grupo_985466" data-name="Grupo 985466" transform="translate(0 10.319)">
          <rect id="Rectángulo_308619" data-name="Rectángulo 308619" width="5.14" height="5.14" fill="#ffd76a"/>
        </g>
        <g id="Grupo_985467" data-name="Grupo 985467" transform="translate(0 0.313)">
          <rect id="Rectángulo_308620" data-name="Rectángulo 308620" width="5.14" height="5.14" fill="#ffd76a"/>
        </g>
        <g id="Grupo_985468" data-name="Grupo 985468" transform="translate(9.289 30.72)">
          <rect id="Rectángulo_308621" data-name="Rectángulo 308621" width="5.14" height="5.14" fill="#ffd76a"/>
        </g>
        <g id="Grupo_985469" data-name="Grupo 985469" transform="translate(9.289 20.714)">
          <rect id="Rectángulo_308622" data-name="Rectángulo 308622" width="5.14" height="5.14" fill="#ffd76a"/>
        </g>
        <g id="Grupo_985470" data-name="Grupo 985470" transform="translate(9.289 10.319)">
          <rect id="Rectángulo_308623" data-name="Rectángulo 308623" width="5.14" height="5.14" fill="#ffd76a"/>
        </g>
        <g id="Grupo_985471" data-name="Grupo 985471" transform="translate(9.289 0.313)">
          <rect id="Rectángulo_308624" data-name="Rectángulo 308624" width="5.14" height="5.14" fill="#ffd76a"/>
        </g>
        <g id="Grupo_985472" data-name="Grupo 985472" transform="translate(18.577 30.407)">
          <rect id="Rectángulo_308625" data-name="Rectángulo 308625" width="5.14" height="5.14" fill="#ffd76a"/>
        </g>
        <g id="Grupo_985473" data-name="Grupo 985473" transform="translate(18.577 20.401)">
          <rect id="Rectángulo_308626" data-name="Rectángulo 308626" width="5.14" height="5.14" fill="#ffd76a"/>
        </g>
        <g id="Grupo_985474" data-name="Grupo 985474" transform="translate(18.577 10.006)">
          <rect id="Rectángulo_308627" data-name="Rectángulo 308627" width="5.14" height="5.14" fill="#ffd76a"/>
        </g>
        <g id="Grupo_985475" data-name="Grupo 985475" transform="translate(18.577 0)">
          <rect id="Rectángulo_308628" data-name="Rectángulo 308628" width="5.14" height="5.14" fill="#ffd76a"/>
        </g>
        <g id="Grupo_985476" data-name="Grupo 985476" transform="translate(27.866 30.407)">
          <rect id="Rectángulo_308629" data-name="Rectángulo 308629" width="5.14" height="5.14" fill="#ffd76a"/>
        </g>
        <g id="Grupo_985477" data-name="Grupo 985477" transform="translate(27.866 20.401)">
          <rect id="Rectángulo_308630" data-name="Rectángulo 308630" width="5.14" height="5.14" fill="#ffd76a"/>
        </g>
        <g id="Grupo_985478" data-name="Grupo 985478" transform="translate(27.866 10.006)">
          <rect id="Rectángulo_308631" data-name="Rectángulo 308631" width="5.14" height="5.14" fill="#ffd76a"/>
        </g>
        <g id="Grupo_985479" data-name="Grupo 985479" transform="translate(27.866 0)">
          <rect id="Rectángulo_308632" data-name="Rectángulo 308632" width="5.14" height="5.14" fill="#ffd76a"/>
        </g>
      </g>
      <g id="Grupo_985488" data-name="Grupo 985488" transform="translate(1895.202 1606.449)">
        <g id="Grupo_985487" data-name="Grupo 985487" transform="translate(0 0)" style="isolation: isolate">
          <g id="Grupo_985482" data-name="Grupo 985482" transform="translate(7.407 6.731)">
            <g id="Grupo_985481" data-name="Grupo 985481">
              <path id="Trazado_642705" data-name="Trazado 642705" d="M1981.723,1673.347l1.124.67c1.241.715,2.94.607,4.814-.486a14.78,14.78,0,0,0,6.728-11.65c0-2.13-.755-3.627-1.969-4.342l-1.2-.7a8.767,8.767,0,0,1,1.047,3.787c.1,4.273-2.982,9.513-6.715,11.65A8.376,8.376,0,0,1,1981.723,1673.347Z" transform="translate(-1981.723 -1656.843)" fill="#ddb247"/>
            </g>
          </g>
          <g id="Grupo_985484" data-name="Grupo 985484">
            <g id="Grupo_985483" data-name="Grupo 985483">
              <path id="Trazado_642706" data-name="Trazado 642706" d="M1957.624,1654.738a10.362,10.362,0,0,0,.351,2.777c1.955,9.129,10.18,15.156,10.625,15.48l2.045,1.211c-.876-.647-8.656-6.58-10.544-15.425a10.5,10.5,0,0,1-.35-2.778c0-.283.013-.579.027-.876.027-.526.094-1.065.175-1.6a24.551,24.551,0,0,1,8.077-13.929c.4-.351.823-.674,1.241-.971.445-.31.89-.607,1.348-.863,3.115-1.807,5.946-2,7.942-.836l-2.126-1.252c-2-1.16-4.813-.971-7.942.823C1962.465,1639.973,1957.61,1648.144,1957.624,1654.738Z" transform="translate(-1957.624 -1634.943)" fill="#ddb247"/>
            </g>
          </g>
          <g id="Grupo_985486" data-name="Grupo 985486" transform="translate(1.894 1.017)">
            <g id="Grupo_985485" data-name="Grupo 985485">
              <path id="Trazado_642707" data-name="Trazado 642707" d="M1986.341,1646.241c.057.413,1.153,8.252-10.838,30.84-.433-.317-8.667-6.342-10.616-15.472a10.674,10.674,0,0,1-.353-2.779c-.019-6.6,4.839-14.763,10.865-18.242S1986.323,1639.643,1986.341,1646.241ZM1975.76,1661.2a14.827,14.827,0,0,0,6.727-11.652c-.012-4.293-3.044-6.021-6.771-3.869a14.832,14.832,0,0,0-6.736,11.667c.012,4.283,3.044,6.011,6.78,3.854" transform="translate(-1964.304 -1638.79)" fill="#fff"/>
              <path id="Trazado_642708" data-name="Trazado 642708" d="M1974.984,1676.775a.231.231,0,0,1-.136-.045c-.9-.656-8.794-6.66-10.7-15.61a10.877,10.877,0,0,1-.358-2.826c-.019-6.663,4.907-14.937,10.98-18.443,3.1-1.788,5.993-2.088,8.155-.843,2.008,1.155,3.12,3.527,3.133,6.679.125.932.755,9.076-10.865,30.965a.228.228,0,0,1-.152.116A.226.226,0,0,1,1974.984,1676.775Zm4.974-38.061a10.135,10.135,0,0,0-4.962,1.537c-5.946,3.433-10.768,11.527-10.75,18.042a10.463,10.463,0,0,0,.345,2.719c1.771,8.3,8.789,14.025,10.315,15.186,11.49-21.711,10.8-29.629,10.687-30.463a.263.263,0,0,1,0-.031c-.008-2.988-1.039-5.225-2.9-6.3A5.4,5.4,0,0,0,1979.958,1638.714Zm-7.755,23.109a3.716,3.716,0,0,1-1.877-.482c-1.345-.774-2.089-2.384-2.1-4.533a15.122,15.122,0,0,1,6.851-11.867c1.883-1.087,3.665-1.257,5.019-.477s2.092,2.389,2.1,4.545a15.1,15.1,0,0,1-6.843,11.853l-.115-.2.115.2A6.408,6.408,0,0,1,1972.2,1661.824Zm6.02-17.381a5.934,5.934,0,0,0-2.911.9,14.612,14.612,0,0,0-6.621,11.467c.006,1.978.668,3.447,1.864,4.135s2.83.524,4.57-.48a14.593,14.593,0,0,0,6.612-11.452c-.006-1.984-.669-3.457-1.867-4.146A3.264,3.264,0,0,0,1978.223,1644.443Z" transform="translate(-1963.785 -1638.253)" fill="#1a1c31"/>
            </g>
          </g>
        </g>
      </g>
      <g id="Grupo_985643" data-name="Grupo 985643" transform="translate(1876.603 1593.806)">
        <g id="Grupo_985499" data-name="Grupo 985499" transform="translate(60.97 27.504)">
          <g id="Grupo_985490" data-name="Grupo 985490" transform="translate(2.52 4.537)">
            <g id="Grupo_985489" data-name="Grupo 985489">
              <path id="Trazado_642709" data-name="Trazado 642709" d="M2156.423,1729.219l-52.566-31.165-.112,46.193-.066,28.971,49.285,29.27,3.282,1.895Z" transform="translate(-2103.679 -1698.055)" fill="#ffd76a"/>
            </g>
          </g>
          <g id="Grupo_985492" data-name="Grupo 985492" transform="translate(2.467 3.555)">
            <g id="Grupo_985491" data-name="Grupo 985491">
              <path id="Trazado_642710" data-name="Trazado 642710" d="M2156.824,1727.527l1.292-.751-52.567-31.164-1.292.751Z" transform="translate(-2104.027 -1695.381)" fill="#fff"/>
              <path id="Trazado_642711" data-name="Trazado 642711" d="M2156.3,1727.237a.233.233,0,0,1-.118-.032l-52.567-31.164a.231.231,0,0,1,0-.4l1.292-.751a.23.23,0,0,1,.234,0l52.566,31.164a.231.231,0,0,1,0,.4l-1.292.751A.233.233,0,0,1,2156.3,1727.237Zm-52.111-31.392,52.112,30.895.836-.486-52.113-30.895Z" transform="translate(-2103.507 -1694.861)" fill="#1a1c31"/>
            </g>
          </g>
          <g id="Grupo_985494" data-name="Grupo 985494" transform="translate(0 0.751)">
            <g id="Grupo_985493" data-name="Grupo 985493">
              <path id="Trazado_642712" data-name="Trazado 642712" d="M2153.359,1799.919l-57.128-33.8.191-79.635,57.128,33.8Zm-54.839-34.713,49.285,29.27,3.282,1.895.178-75.164-52.566-31.165-.112,46.193-.066,28.971" transform="translate(-2096 -1686.256)" fill="#fff"/>
              <path id="Trazado_642713" data-name="Trazado 642713" d="M2152.84,1799.63a.229.229,0,0,1-.117-.032l-57.128-33.8a.231.231,0,0,1-.113-.2l.191-79.635a.23.23,0,0,1,.348-.2l57.128,33.8a.23.23,0,0,1,.113.2l-.19,79.635a.23.23,0,0,1-.23.23Zm-56.9-34.16L2152.61,1799l.189-79.1-56.668-33.526Zm54.625,30.611a.228.228,0,0,1-.115-.031l-3.282-1.895-49.287-29.271a.23.23,0,0,1-.113-.2l.066-28.971.111-46.193a.231.231,0,0,1,.348-.2l52.566,31.165a.231.231,0,0,1,.113.2l-.178,75.165a.23.23,0,0,1-.23.23Zm-52.335-31.526,49.172,29.2,2.934,1.694.177-74.635-52.106-30.892-.111,45.79Z" transform="translate(-2095.481 -1685.736)" fill="#1a1c31"/>
            </g>
          </g>
          <g id="Grupo_985496" data-name="Grupo 985496" transform="translate(0.191)">
            <g id="Grupo_985495" data-name="Grupo 985495">
              <path id="Trazado_642714" data-name="Trazado 642714" d="M2153.979,1718.592l1.292-.751-57.128-33.8-1.292.751Z" transform="translate(-2096.62 -1683.813)" fill="#fff"/>
              <path id="Trazado_642715" data-name="Trazado 642715" d="M2153.46,1718.3a.234.234,0,0,1-.117-.032l-57.128-33.8a.23.23,0,0,1,0-.4l1.292-.751a.231.231,0,0,1,.233,0l57.128,33.8a.231.231,0,0,1,0,.4l-1.292.751A.231.231,0,0,1,2153.46,1718.3Zm-56.673-34.027,56.674,33.53.836-.486-56.674-33.529Z" transform="translate(-2096.101 -1683.294)" fill="#1a1c31"/>
            </g>
          </g>
          <g id="Grupo_985498" data-name="Grupo 985498" transform="translate(57.128 33.798)">
            <g id="Grupo_985497" data-name="Grupo 985497">
              <path id="Trazado_642716" data-name="Trazado 642716" d="M2282.1,1874.394l1.292-.751.191-79.635-1.292.751Z" transform="translate(-2281.871 -1793.778)" fill="#fff"/>
              <path id="Trazado_642717" data-name="Trazado 642717" d="M2281.583,1874.105a.226.226,0,0,1-.115-.031.23.23,0,0,1-.115-.2l.191-79.635a.23.23,0,0,1,.115-.2l1.292-.752a.231.231,0,0,1,.346.2l-.191,79.635a.23.23,0,0,1-.115.2l-1.292.751A.228.228,0,0,1,2281.583,1874.105Zm.421-79.732-.189,79.1.83-.483.19-79.1Z" transform="translate(-2281.352 -1793.258)" fill="#1a1c31"/>
            </g>
          </g>
        </g>
        <g id="Grupo_985507" data-name="Grupo 985507" transform="translate(54.244 104.297)">
          <g id="Grupo_985506" data-name="Grupo 985506" style="isolation: isolate">
            <g id="Grupo_985501" data-name="Grupo 985501" transform="translate(61.507 35.189)">
              <g id="Grupo_985500" data-name="Grupo 985500">
                <path id="Trazado_642718" data-name="Trazado 642718" d="M2274.492,2051.691l5.687-3.305-.027,9.5-5.687,3.305Z" transform="translate(-2274.235 -2048.155)" fill="#fff"/>
                <path id="Trazado_642719" data-name="Trazado 642719" d="M2273.946,2060.9a.23.23,0,0,1-.231-.231l.027-9.495a.231.231,0,0,1,.115-.2l5.687-3.305a.231.231,0,0,1,.346.2l-.027,9.495a.232.232,0,0,1-.115.2l-5.687,3.3A.231.231,0,0,1,2273.946,2060.9Zm.257-9.593-.025,8.961,5.225-3.037.025-8.961Z" transform="translate(-2273.715 -2047.636)" fill="#1a1c31"/>
              </g>
            </g>
            <g id="Grupo_985503" data-name="Grupo 985503" transform="translate(0.027)">
              <g id="Grupo_985502" data-name="Grupo 985502">
                <path id="Trazado_642720" data-name="Trazado 642720" d="M2074.435,1937.2l5.687-3.305,61.507,35.189-5.687,3.305Z" transform="translate(-2074.204 -1933.666)" fill="#fff"/>
                <path id="Trazado_642721" data-name="Trazado 642721" d="M2135.423,1972.1a.232.232,0,0,1-.115-.03l-61.507-35.189a.231.231,0,0,1,0-.4l5.688-3.305a.232.232,0,0,1,.23,0l61.507,35.189a.231.231,0,0,1,0,.4l-5.687,3.305A.23.23,0,0,1,2135.423,1972.1Zm-61.046-35.421,61.045,34.924,5.227-3.037-61.045-34.924Z" transform="translate(-2073.685 -1933.146)" fill="#1a1c31"/>
              </g>
            </g>
            <g id="Grupo_985505" data-name="Grupo 985505" transform="translate(0 3.305)">
              <g id="Grupo_985504" data-name="Grupo 985504">
                <path id="Trazado_642722" data-name="Trazado 642722" d="M2135.881,1979.839l-.027,9.5-61.507-35.189.027-9.5Z" transform="translate(-2074.117 -1944.419)" fill="#fff"/>
                <path id="Trazado_642723" data-name="Trazado 642723" d="M2135.334,1989.044a.23.23,0,0,1-.114-.03l-61.507-35.189a.23.23,0,0,1-.116-.2l.027-9.495a.231.231,0,0,1,.345-.2l61.507,35.189a.23.23,0,0,1,.116.2l-.027,9.495a.23.23,0,0,1-.23.23Zm-61.276-35.553,61.047,34.926.025-8.965-61.047-34.925Z" transform="translate(-2073.597 -1943.9)" fill="#1a1c31"/>
              </g>
            </g>
          </g>
        </g>
        <g id="Grupo_985509" data-name="Grupo 985509" transform="translate(0 190.143)">
          <g id="Grupo_985508" data-name="Grupo 985508">
            <path id="Trazado_642724" data-name="Trazado 642724" d="M1951.357,2217.85c12.468,7.2,12.532,18.869.146,26.067s-32.532,7.2-45,0-12.532-18.868-.146-26.065S1938.89,2210.652,1951.357,2217.85Z" transform="translate(-1897.11 -2212.452)" fill="#ddb247"/>
          </g>
        </g>
        <g id="Grupo_985575" data-name="Grupo 985575" transform="translate(8.551 38.813)">
          <g id="Grupo_985547" data-name="Grupo 985547" transform="translate(43.107)">
            <g id="Grupo_985510" data-name="Grupo 985510" transform="translate(26.825 27.875)">
              <path id="Trazado_642725" data-name="Trazado 642725" d="M2160.034,1862.415c-.17.121-.348.259-.534.4l-.089-.113v-.008l-6.95-3.989v-2.646l.68-28.334s-.057-2.508.114-5.34a29.52,29.52,0,0,1,.784-5.688,11.915,11.915,0,0,1,4.135-5.922,9.066,9.066,0,0,0,.623,1.521v.008a11.336,11.336,0,0,0-1.537,6.5l-.064,10.421,13.115,7.646.647-13.746,6.1-7.443,2.08,1.772s-5.453,2.662-5.227,8.843.6,21.222.6,21.222l-13.69,12.4a2.392,2.392,0,0,0-.785,1.772Z" transform="translate(-2152.461 -1810.78)" fill="#ddb247"/>
            </g>
            <g id="Grupo_985511" data-name="Grupo 985511" transform="translate(28.931 78.709)">
              <path id="Trazado_642726" data-name="Trazado 642726" d="M2164.247,1977.38c.186-.146.364-.283.534-.4.647-.485,1.1-.8,1.1-.8l5.388,3.455s-.17.583-.429,1.359a24.517,24.517,0,0,1-1.448,3.859c-.606.987-2.03.34-2.03.34a5.9,5.9,0,0,1-.429,1.44v.008a2.269,2.269,0,0,1-.914,1.125,2.656,2.656,0,0,1-2.241,0,3.486,3.486,0,0,1-2.168-1.214,2.371,2.371,0,0,1-1.011-.324,2.271,2.271,0,0,1-.955-1.1c-.809-.955.032-2.711.817-4.207A17.2,17.2,0,0,1,2164.247,1977.38Z" transform="translate(-2159.314 -1976.174)" fill="#fff"/>
            </g>
            <g id="Grupo_985512" data-name="Grupo 985512" transform="translate(34.398 20.601)">
              <path id="Trazado_642727" data-name="Trazado 642727" d="M2179.73,1787.114l.3,6.2s-2.4.518-2.929-.421l2.079-4.563Z" transform="translate(-2177.101 -1787.114)" fill="#ddb247"/>
            </g>
            <g id="Grupo_985513" data-name="Grupo 985513" transform="translate(32.189 20.601)">
              <path id="Trazado_642728" data-name="Trazado 642728" d="M2172.422,1788.441a.884.884,0,0,0,.752-.583l1.028.469-2.079,4.563-2.2.032a.518.518,0,0,1-.008-.073v-5.736h1.61C2171.524,1787.85,2171.929,1788.441,2172.422,1788.441Z" transform="translate(-2169.914 -1787.114)" fill="#fff"/>
            </g>
            <g id="Grupo_985514" data-name="Grupo 985514" transform="translate(33.799 19.274)">
              <path id="Trazado_642729" data-name="Trazado 642729" d="M2176.957,1784.124a1.8,1.8,0,0,1-.154.744.884.884,0,0,1-.752.583c-.494,0-.9-.591-.9-1.327s.4-1.327.9-1.327S2176.957,1783.4,2176.957,1784.124Z" transform="translate(-2175.153 -1782.797)" fill="#151d39"/>
            </g>
            <g id="Grupo_985515" data-name="Grupo 985515" transform="translate(2.763 13.036)">
              <path id="Trazado_642730" data-name="Trazado 642730" d="M2098.915,1788.942c-13.609,2.742-17.622.623-17.622.623-2.589-2.023-7.12-24.709-7.12-24.709l.785-.267,5.332-1.82.777-.267,5.105,15.664a63.644,63.644,0,0,0,10.041-1.351c5.664-1.2,7.387-1.012,7.387-1.012a.518.518,0,0,0,.008.073,8.578,8.578,0,0,0,.34,1.464,11.913,11.913,0,0,0-4.135,5.922,29.519,29.519,0,0,0-.785,5.688Z" transform="translate(-2074.173 -1762.501)" fill="#fff"/>
            </g>
            <g id="Grupo_985516" data-name="Grupo 985516" transform="translate(32.189 15.965)">
              <path id="Trazado_642731" data-name="Trazado 642731" d="M2170.262,1783.941a8.591,8.591,0,0,1-.34-1.465l2.2-.032c.526.938,2.928.421,2.928.421l-.3-6.2-.55,1.214-1.028-.469a1.8,1.8,0,0,0,.154-.744c0-.728-.4-1.327-.906-1.327s-.9.6-.9,1.327h-1.61v-4.636c5.275,1.035,12.816.178,12.816.178l1.732,4.725c.631-1.836,3.447-2.322,3.374.453a4.065,4.065,0,0,1-2.176,3.673c-.3,3.633-2.516,8.245-8.771,8.172a6.541,6.541,0,0,1-4.175-1.432,7.3,7.3,0,0,1-1.828-2.33v-.008A9.026,9.026,0,0,1,2170.262,1783.941Zm7.961,2.549a2.691,2.691,0,0,0,1.853-2.921l-5.025,1.893A2.506,2.506,0,0,0,2178.223,1786.489Zm1.149-8.957c0-.736-.4-1.327-.9-1.327s-.906.591-.906,1.327.4,1.327.906,1.327S2179.372,1778.269,2179.372,1777.533Z" transform="translate(-2169.914 -1772.031)" fill="#fff"/>
            </g>
            <g id="Grupo_985517" data-name="Grupo 985517" transform="translate(34.398 34.55)">
              <path id="Trazado_642732" data-name="Trazado 642732" d="M2203.793,1840.9c.348,2.783-.7,11.189-1.974,18.107v.032c-.882,4.774-1.877,8.827-2.6,9.822-1.764,2.435-15.275,13.05-15.275,13.05l-.785-.437c.259-.776.429-1.359.429-1.359l-5.388-3.455s-.453.316-1.1.8v-.72a2.391,2.391,0,0,1,.785-1.772l13.689-12.4s-.38-15.033-.6-21.222,5.227-8.843,5.227-8.843A9.66,9.66,0,0,1,2203.793,1840.9Z" transform="translate(-2177.101 -1832.497)" fill="#fff"/>
            </g>
            <g id="Grupo_985518" data-name="Grupo 985518" transform="translate(41.194 61.088)">
              <path id="Trazado_642733" data-name="Trazado 642733" d="M2216.188,1932.336l2.334,19.947-4.4-1.913-14.911-8.568.049-.089s13.511-10.615,15.275-13.051c.72-1,1.715-5.049,2.6-9.822Z" transform="translate(-2199.213 -1918.84)" fill="#ddb247"/>
            </g>
            <g id="Grupo_985519" data-name="Grupo 985519" transform="translate(27.502 7.118)">
              <path id="Trazado_642734" data-name="Trazado 642734" d="M2159.352,1752.093a14.155,14.155,0,0,1-2.1-.574c-5.057-1.869-1.683-7.492,1.578-6.222s14.879-5.955,17.541,1.052c0,0,5.291,2.322,4.126,6.675a131.717,131.717,0,0,1-4.733,12.638l-.663-4.539a4.065,4.065,0,0,0,2.176-3.673c.073-2.775-2.743-2.29-3.374-.453l-1.732-4.725S2164.626,1753.128,2159.352,1752.093Z" transform="translate(-2154.665 -1743.245)" fill="#151d39"/>
            </g>
            <g id="Grupo_985520" data-name="Grupo 985520" transform="translate(41.243 29.534)">
              <path id="Trazado_642735" data-name="Trazado 642735" d="M2206.726,1816.176l2.823,3.244-6.1,7.443-.574.7c-.073-1.877-3.5-3.042-3.5-3.042l3.277-1.537,4.353-4.944Z" transform="translate(-2199.371 -1816.176)" fill="#fff"/>
            </g>
            <g id="Grupo_985521" data-name="Grupo 985521" transform="translate(36.979 87.383)">
              <path id="Trazado_642736" data-name="Trazado 642736" d="M2198.646,2044.273c.477,3.746.655,6.068-4.758,9.224l-2.913,1.618s-.955-13.884-1.57-28.391-3.908-21.991-3.908-21.991,1.424.647,2.031-.34c3.463,3.989,10.534,35.656,11.1,39.758A.605.605,0,0,0,2198.646,2044.273Z" transform="translate(-2185.498 -2004.394)" fill="#ffd76a"/>
            </g>
            <g id="Grupo_985522" data-name="Grupo 985522" transform="translate(34.398 24.995)">
              <path id="Trazado_642737" data-name="Trazado 642737" d="M2191.3,1805.947l.275,1.869-4.353,4.943-3.277,1.537-5.72,2.686-1.125-4.369.59-4.466a6.541,6.541,0,0,0,4.175,1.432c6.254.073,8.471-4.539,8.771-8.172Z" transform="translate(-2177.101 -1801.408)" fill="#fff"/>
            </g>
            <g id="Grupo_985523" data-name="Grupo 985523" transform="translate(31.558 35.609)">
              <path id="Trazado_642738" data-name="Trazado 642738" d="M2181.049,1841.26l.574-.7-.647,13.746-13.115-7.646.064-10.421s2.1-.825,2.775.3l1.125,4.369,5.72-2.686S2180.976,1839.382,2181.049,1841.26Z" transform="translate(-2167.861 -1835.943)" fill="#fff"/>
            </g>
            <g id="Grupo_985524" data-name="Grupo 985524" transform="translate(18.666 87.658)">
              <path id="Trazado_642739" data-name="Trazado 642739" d="M2149.706,2055.735l-2.888,1.6a4.609,4.609,0,0,1-4.539-.033c-3.819-2.209-11.4-6.6-14.046-8.26-3.6-2.25-2.371-11.627-.566-20.8a73.636,73.636,0,0,1,8.844-22.953,2.272,2.272,0,0,0,.955,1.1v.008s-3.657,7.921-4.8,14.531l11.909,7.314s1.521-16.052-.777-21.441v-.008a5.909,5.909,0,0,0,.429-1.44s3.293,7.484,3.908,21.991S2149.706,2055.735,2149.706,2055.735Z" transform="translate(-2125.915 -2005.289)" fill="#ffd76a"/>
            </g>
            <g id="Grupo_985525" data-name="Grupo 985525" transform="translate(37.327 27.503)">
              <path id="Trazado_642740" data-name="Trazado 642740" d="M2191.654,1809.569a2.69,2.69,0,0,1-1.853,2.921,2.505,2.505,0,0,1-3.172-1.027Z" transform="translate(-2186.63 -1809.569)" fill="#fff"/>
            </g>
            <g id="Grupo_985526" data-name="Grupo 985526" transform="translate(39.843 20.14)">
              <path id="Trazado_642741" data-name="Trazado 642741" d="M2195.723,1785.614c.494,0,.9.591.9,1.327s-.4,1.327-.9,1.327-.906-.59-.906-1.327S2195.222,1785.614,2195.723,1785.614Z" transform="translate(-2194.817 -1785.614)" fill="#151d39"/>
            </g>
            <g id="Grupo_985527" data-name="Grupo 985527" transform="translate(31.559 29.404)">
              <path id="Trazado_642742" data-name="Trazado 642742" d="M2171.292,1818.085l-.591,4.466c-.671-1.125-2.775-.3-2.775-.3a11.333,11.333,0,0,1,1.538-6.5A7.291,7.291,0,0,0,2171.292,1818.085Z" transform="translate(-2167.862 -1815.755)" fill="#fff"/>
            </g>
            <g id="Grupo_985528" data-name="Grupo 985528" transform="translate(0.231 0.23)">
              <path id="Trazado_642743" data-name="Trazado 642743" d="M2072.4,1724.66c.259-.4,1.238-.4,1.861,0s.324,9.248.324,9.248l-5.332,1.82s-2.387-3.422-2.306-5.842l-1.011-7.759a1.053,1.053,0,0,1,1.658-.226s.615-1.262,1.659-.558c0,0,1.351-1.181,2.193.057Z" transform="translate(-2065.934 -1720.834)" fill="#fff"/>
            </g>
            <g id="Grupo_985529" data-name="Grupo 985529" transform="translate(27.272 6.887)">
              <path id="Trazado_642744" data-name="Trazado 642744" d="M2165.952,1769h-.147a6.8,6.8,0,0,1-4.318-1.484,7.472,7.472,0,0,1-1.888-2.4.23.23,0,1,1,.411-.209,7.019,7.019,0,0,0,1.77,2.257,6.347,6.347,0,0,0,4.031,1.38h.139c5.705,0,8.08-4.1,8.4-7.961a.231.231,0,0,1,.138-.193,3.81,3.81,0,0,0,2.038-3.468c.025-.965-.327-1.584-.966-1.7a1.91,1.91,0,0,0-1.96,1.329.23.23,0,0,1-.216.155.241.241,0,0,1-.219-.151l-1.669-4.556c-1.183.12-7.909.742-12.706-.2a14.246,14.246,0,0,1-2.14-.585,3.775,3.775,0,0,1-2.693-2.786,3.626,3.626,0,0,1,1.359-3.313,3.041,3.041,0,0,1,3.076-.554c1.058.415,3.227-.173,5.523-.795,4.576-1.239,10.263-2.779,12.116,1.892.7.339,5.284,2.732,4.167,6.9a132.545,132.545,0,0,1-4.744,12.669.23.23,0,1,1-.423-.183,132.2,132.2,0,0,0,4.722-12.606c1.1-4.109-3.945-6.381-4-6.4a.231.231,0,0,1-.123-.129c-1.667-4.389-7.174-2.9-11.6-1.7-2.475.67-4.612,1.25-5.812.779a2.591,2.591,0,0,0-2.618.483,3.157,3.157,0,0,0-1.194,2.88c.124.749.641,1.779,2.4,2.428a13.74,13.74,0,0,0,2.069.565c5.178,1.016,12.669.183,12.744.175a.229.229,0,0,1,.242.15l1.544,4.215a2.288,2.288,0,0,1,2.23-1.117c.874.157,1.377.967,1.345,2.166a4.31,4.31,0,0,1-2.189,3.817C2174.418,1764.778,2171.9,1769,2165.952,1769Z" transform="translate(-2153.916 -1742.494)"/>
            </g>
            <g id="Grupo_985530" data-name="Grupo 985530" transform="translate(31.959 15.613)">
              <path id="Trazado_642745" data-name="Trazado 642745" d="M2170.366,1784.9a.23.23,0,0,1-.2-.123,9.214,9.214,0,0,1-.638-1.56,8.71,8.71,0,0,1-.35-1.506.637.637,0,0,1-.009-.1v-10.494a.231.231,0,1,1,.461,0v10.494s0,.014,0,.036a8.313,8.313,0,0,0,.332,1.431,8.763,8.763,0,0,0,.607,1.483.231.231,0,0,1-.1.312A.236.236,0,0,1,2170.366,1784.9Z" transform="translate(-2169.165 -1770.886)"/>
            </g>
            <g id="Grupo_985531" data-name="Grupo 985531" transform="translate(2.533 12.806)">
              <path id="Trazado_642746" data-name="Trazado 642746" d="M2086.438,1790.063c-4.153,0-5.672-.761-5.772-.814a.26.26,0,0,1-.034-.022c-2.626-2.052-7.018-23.916-7.2-24.846a.23.23,0,0,1,.152-.263l6.892-2.354a.231.231,0,0,1,.294.147l5.052,15.5a65.31,65.31,0,0,0,9.828-1.339c5.634-1.191,7.388-1.023,7.46-1.015a.231.231,0,0,1-.049.459c-.026,0-1.8-.159-7.315,1.007a64.572,64.572,0,0,1-10.081,1.356.237.237,0,0,1-.227-.159l-5.033-15.441-6.481,2.213c.214,1.055,1.26,6.153,2.547,11.39,2.371,9.648,3.716,12.386,4.431,12.971a11,11,0,0,0,3.665.687,53.585,53.585,0,0,0,13.787-1.34.231.231,0,1,1,.091.452A61.767,61.767,0,0,1,2086.438,1790.063Z" transform="translate(-2073.423 -1761.751)"/>
            </g>
            <g id="Grupo_985532" data-name="Grupo 985532" transform="translate(34.167 24.764)">
              <path id="Trazado_642747" data-name="Trazado 642747" d="M2177.706,1816.695a.23.23,0,0,1-.223-.173l-1.125-4.369a.23.23,0,0,1-.005-.088l.591-4.466a.23.23,0,1,1,.457.061l-.585,4.422,1.044,4.056,8.7-4.085,4.251-4.827-.923-6.3a.23.23,0,1,1,.456-.067l.939,6.408a.23.23,0,0,1-.055.186l-4.353,4.943a.222.222,0,0,1-.075.056l-9,4.223A.231.231,0,0,1,2177.706,1816.695Z" transform="translate(-2176.35 -1800.659)"/>
            </g>
            <g id="Grupo_985533" data-name="Grupo 985533" transform="translate(31.328 29.17)">
              <path id="Trazado_642748" data-name="Trazado 642748" d="M2170.182,1822.253a.229.229,0,0,1-.2-.112c-.564-.944-2.474-.21-2.493-.2a.231.231,0,0,1-.312-.184,11.5,11.5,0,0,1,1.561-6.635.23.23,0,0,1,.2-.128.227.227,0,0,1,.23.227v.008a.231.231,0,0,1-.034.12,11.227,11.227,0,0,0-1.538,6.067c.635-.194,2.166-.531,2.776.491a.23.23,0,0,1-.2.348Z" transform="translate(-2167.112 -1814.992)"/>
            </g>
            <g id="Grupo_985534" data-name="Grupo 985534" transform="translate(40.96 60.857)">
              <path id="Trazado_642749" data-name="Trazado 642749" d="M2217.993,1951.993a.227.227,0,0,1-.092-.019l-4.4-1.913-14.923-8.572a.232.232,0,0,1-.131-.207.227.227,0,0,1,.226-.231h.008a.23.23,0,0,1,.115.031l14.911,8.568,4.007,1.741-2.288-19.549a.252.252,0,0,1,0-.043l.947-13.5a.226.226,0,0,1,.246-.214.23.23,0,0,1,.214.246l-.945,13.474,2.332,19.925a.231.231,0,0,1-.229.257Z" transform="translate(-2198.45 -1918.09)"/>
            </g>
            <g id="Grupo_985535" data-name="Grupo 985535" transform="translate(26.594 27.644)">
              <path id="Trazado_642750" data-name="Trazado 642750" d="M2158.891,1862.409a.233.233,0,0,1-.114-.03l-6.95-3.989a.231.231,0,0,1-.116-.2v-2.646l.68-28.339c0-.015-.055-2.539.114-5.348a29.041,29.041,0,0,1,.793-5.737,12.022,12.022,0,0,1,4.223-6.048.23.23,0,0,1,.266.377,11.776,11.776,0,0,0-4.046,5.8,28.623,28.623,0,0,0-.776,5.64c-.168,2.789-.114,5.3-.113,5.321l-.68,28.345v2.506l6.834,3.922a.23.23,0,0,1-.115.43Zm-6.719-4.219h0Z" transform="translate(-2151.711 -1810.03)"/>
            </g>
            <g id="Grupo_985536" data-name="Grupo 985536" transform="translate(41.012 29.303)">
              <path id="Trazado_642751" data-name="Trazado 642751" d="M2202.354,1827.278a.225.225,0,0,1-.073-.012.23.23,0,0,1-.157-.209c-.066-1.7-3.314-2.822-3.347-2.833a.23.23,0,1,1,.148-.436c.133.045,2.993,1.035,3.563,2.732l.262-.321,5.978-7.293-2.7-3.1a.23.23,0,1,1,.348-.3l2.823,3.244a.231.231,0,0,1,0,.3l-6.675,8.147A.23.23,0,0,1,2202.354,1827.278Z" transform="translate(-2198.621 -1815.425)"/>
            </g>
            <g id="Grupo_985537" data-name="Grupo 985537" transform="translate(37.096 27.272)">
              <path id="Trazado_642752" data-name="Trazado 642752" d="M2188.221,1812.4a2.759,2.759,0,0,1-2.315-1.349.23.23,0,0,1,.122-.324l5.024-1.893a.23.23,0,0,1,.309.179,2.94,2.94,0,0,1-2,3.175A3.343,3.343,0,0,1,2188.221,1812.4Zm-1.759-1.344a2.263,2.263,0,0,0,2.741.7,2.416,2.416,0,0,0,1.722-2.379Zm-.353-.113h0Z" transform="translate(-2185.879 -1808.818)"/>
            </g>
            <g id="Grupo_985538" data-name="Grupo 985538" transform="translate(31.328 35.671)">
              <path id="Trazado_642753" data-name="Trazado 642753" d="M2180.457,1854.672a.227.227,0,0,1-.116-.032l-13.115-7.646a.229.229,0,0,1-.114-.2l.065-10.421a.231.231,0,0,1,.23-.229h0a.23.23,0,0,1,.229.232l-.064,10.287,12.671,7.387.63-13.366a.238.238,0,0,1,.241-.22.23.23,0,0,1,.219.241l-.647,13.746a.23.23,0,0,1-.23.22Z" transform="translate(-2167.111 -1836.144)"/>
            </g>
            <g id="Grupo_985539" data-name="Grupo 985539" transform="translate(51.191 32.548)">
              <path id="Trazado_642754" data-name="Trazado 642754" d="M2234.046,1828.216a.229.229,0,0,1-.15-.055l-2.079-1.771a.231.231,0,0,1,.3-.351l2.079,1.772a.231.231,0,0,1-.149.406Z" transform="translate(-2231.737 -1825.983)"/>
            </g>
            <g id="Grupo_985540" data-name="Grupo 985540" transform="translate(34.167 34.32)">
              <path id="Trazado_642755" data-name="Trazado 642755" d="M2183.426,1881.62a.232.232,0,0,1-.113-.029l-.785-.437a.23.23,0,0,1,.224-.4l.651.362c1.347-1.062,13.474-10.649,15.111-12.909.638-.882,1.593-4.511,2.553-9.708v-.011a.2.2,0,0,1,0-.042c1.222-6.614,2.329-15.183,1.972-18.037a9.481,9.481,0,0,0-7.327-8.184c-.616.331-5.235,3.007-5.03,8.593.216,6.12.595,21.075.6,21.225a.231.231,0,0,1-.076.176l-13.69,12.4a2.158,2.158,0,0,0-.709,1.6v.72a.231.231,0,0,1-.461,0v-.72a2.622,2.622,0,0,1,.861-1.943l13.611-12.332c-.034-1.356-.39-15.268-.6-21.114-.229-6.258,5.3-9.031,5.356-9.059a.237.237,0,0,1,.141-.02,9.962,9.962,0,0,1,7.779,8.6c.362,2.9-.745,11.512-1.972,18.157v.011a.2.2,0,0,1,0,.042c-.468,2.532-1.661,8.566-2.637,9.915-1.763,2.434-14.767,12.663-15.32,13.1A.23.23,0,0,1,2183.426,1881.62Z" transform="translate(-2176.35 -1831.748)"/>
            </g>
            <g id="Grupo_985541" data-name="Grupo 985541" transform="translate(28.697 78.479)">
              <path id="Trazado_642756" data-name="Trazado 642756" d="M2164.443,1987.732a3.24,3.24,0,0,1-1.261-.269,3.763,3.763,0,0,1-2.22-1.218,2.58,2.58,0,0,1-1.011-.344,2.52,2.52,0,0,1-1.037-1.18c-.843-1.047-.061-2.763.815-4.432.5-.944,2.369-2.485,3.851-3.612.186-.146.367-.286.54-.409.639-.479,1.1-.8,1.1-.8a.23.23,0,0,1,.256-.005l5.389,3.455a.231.231,0,0,1,.1.259c0,.006-.174.6-.431,1.368a26.222,26.222,0,0,1-1.472,3.91,1.7,1.7,0,0,1-2.049.53,6.063,6.063,0,0,1-.382,1.193.232.232,0,0,1-.012.034,2.531,2.531,0,0,1-1.017,1.236A2.367,2.367,0,0,1,2164.443,1987.732Zm.917-11.8c-.178.126-.53.379-.969.708-.172.122-.347.258-.53.4a15.847,15.847,0,0,0-3.724,3.461c-.776,1.479-1.545,3.126-.845,3.951a.237.237,0,0,1,.042.073,2.062,2.062,0,0,0,.853.977,2.161,2.161,0,0,0,.917.293.23.23,0,0,1,.164.094,3.3,3.3,0,0,0,2.019,1.121.239.239,0,0,1,.064.02,2.443,2.443,0,0,0,2.028.005,2.059,2.059,0,0,0,.8-.987.285.285,0,0,1,.014-.04,5.713,5.713,0,0,0,.41-1.376.231.231,0,0,1,.323-.177c.051.023,1.248.549,1.74-.251a24.231,24.231,0,0,0,1.425-3.807c.175-.526.31-.964.378-1.19Z" transform="translate(-2158.553 -1975.424)"/>
            </g>
            <g id="Grupo_985542" data-name="Grupo 985542" transform="translate(6.077 3.526)">
              <path id="Trazado_642757" data-name="Trazado 642757" d="M2087.758,1741.566h-.008a.23.23,0,0,1-.223-.238c.136-4.133.084-8.653-.238-9.063-.546-.344-1.368-.289-1.523-.051a23.579,23.579,0,0,0-.351,3.928.233.233,0,0,1-.239.221.23.23,0,0,1-.221-.239,21.047,21.047,0,0,1,.424-4.16c.363-.556,1.5-.5,2.179-.071.632.407.541,6.1.431,9.45A.23.23,0,0,1,2087.758,1741.566Z" transform="translate(-2084.955 -1731.559)"/>
            </g>
            <g id="Grupo_985543" data-name="Grupo 985543">
              <path id="Trazado_642758" data-name="Trazado 642758" d="M2068.732,1735.441a.23.23,0,0,1-.189-.1c-.1-.142-2.418-3.5-2.348-5.962l-1.009-7.741a.232.232,0,0,1,.033-.152,1.5,1.5,0,0,1,.937-.645,1.212,1.212,0,0,1,.853.206,1.56,1.56,0,0,1,.823-.63,1.167,1.167,0,0,1,.884.127,2.138,2.138,0,0,1,1.41-.449,1.4,1.4,0,0,1,.989.655.238.238,0,0,1,.031.065l.954,3.26a.231.231,0,1,1-.442.13l-.944-3.224a.929.929,0,0,0-.645-.428,1.822,1.822,0,0,0-1.186.444.231.231,0,0,1-.28.017.782.782,0,0,0-.65-.153,1.3,1.3,0,0,0-.673.622.231.231,0,0,1-.356.074.89.89,0,0,0-.7-.262.981.981,0,0,0-.573.374l1,7.668a.318.318,0,0,1,0,.037c-.078,2.314,2.241,5.668,2.264,5.7a.23.23,0,0,1-.188.362Z" transform="translate(-2065.184 -1720.086)"/>
            </g>
            <g id="Grupo_985544" data-name="Grupo 985544" transform="translate(25.187 88.536)">
              <path id="Trazado_642759" data-name="Trazado 642759" d="M2159.27,2030.451a.226.226,0,0,1-.12-.034l-11.91-7.314a.231.231,0,0,1-.107-.236c1.133-6.564,4.779-14.509,4.816-14.589a.23.23,0,1,1,.418.193c-.036.078-3.6,7.846-4.753,14.32l11.458,7.037c.208-2.431,1.264-16.137-.791-20.959a.224.224,0,0,1-.019-.09.234.234,0,0,1,.23-.235.229.229,0,0,1,.224.173c2.277,5.407.844,20.868.782,21.524a.23.23,0,0,1-.23.209Z" transform="translate(-2147.13 -2008.146)"/>
            </g>
            <g id="Grupo_985545" data-name="Grupo 985545" transform="translate(18.435 87.153)">
              <path id="Trazado_642760" data-name="Trazado 642760" d="M2144.051,2057.007a4.812,4.812,0,0,1-2.409-.641c-2.778-1.607-11.232-6.5-14.053-8.265-3.773-2.357-2.456-11.959-.67-21.041a74.558,74.558,0,0,1,8.875-23.033.23.23,0,1,1,.388.248,74.087,74.087,0,0,0-8.811,22.874c-3.147,16-1.406,19.395.462,20.562,2.814,1.764,11.263,6.65,14.039,8.257a4.4,4.4,0,0,0,4.312.03l5.8-3.22c5.386-3.14,5.09-5.468,4.641-8.993a.764.764,0,0,1-.018-.132c-.621-4.458-7.685-35.756-11.044-39.625a.23.23,0,0,1,.348-.3c3.5,4.032,10.527,35.33,11.155,39.878a.225.225,0,0,1,0,.031.393.393,0,0,0,.012.076c.5,3.948.524,6.325-4.867,9.468l-5.806,3.223A4.861,4.861,0,0,1,2144.051,2057.007Z" transform="translate(-2125.162 -2003.644)"/>
            </g>
            <g id="Grupo_985546" data-name="Grupo 985546" transform="translate(36.748 87.492)">
              <path id="Trazado_642761" data-name="Trazado 642761" d="M2190.455,2055.592a.23.23,0,0,1-.229-.214c-.01-.139-.962-14.053-1.57-28.4-.605-14.287-3.856-21.833-3.889-21.908a.231.231,0,0,1,.422-.186c.033.075,3.318,7.69,3.927,22.074.608,14.338,1.56,28.246,1.57,28.385a.231.231,0,0,1-.214.246Z" transform="translate(-2184.747 -2004.75)"/>
            </g>
          </g>
          <g id="Grupo_985574" data-name="Grupo 985574" transform="translate(0 15.58)">
            <g id="Grupo_985548" data-name="Grupo 985548" transform="translate(17.904 10.702)">
              <path id="Trazado_642762" data-name="Trazado 642762" d="M1995.32,1810.758c0-.579-.32-1.043-.708-1.043s-.708.464-.708,1.043.32,1.043.708,1.043S1995.32,1811.329,1995.32,1810.758Zm0,7.9c.845-.213.876-2.185.876-2.185l-2.642-.427C1993.691,1818.516,1995.32,1818.661,1995.32,1818.661Zm1.8-9.419a45.371,45.371,0,0,1,.068,6.129c-.167,2.36-.632,4.386-1.69,5.041a6.07,6.07,0,0,1-2.322.9l.038.2.343,1.881a15.907,15.907,0,0,1-4.767,1.759l-5.6-2.992c4.744.228,5.223-5.581,5.223-5.581-1.553-.807-2.757-3.175-1.873-4.866.853-1.637,3.556-.107,3.731-.008-.068-.2-1.211-3.4,1.416-4.081a21.53,21.53,0,0,0,5.079-2.026C1996.775,1805.724,1996.972,1807.232,1997.117,1809.242Z" transform="translate(-1983.183 -1805.595)" fill="#fff"/>
            </g>
            <g id="Grupo_985549" data-name="Grupo 985549" transform="translate(58.412 62.283)">
              <path id="Trazado_642763" data-name="Trazado 642763" d="M2126.272,1975.19c1.211-.228.64,2.558-.472,4.089s-.685,3.495-1.69,3.6c-.982.106-8.8-.929-9.13-.975l.769-7.6s7.142-1.432,7.089-.663-1.873,1.546-1.873,1.546A39.906,39.906,0,0,0,2126.272,1975.19Z" transform="translate(-2114.98 -1973.418)" fill="#fff"/>
            </g>
            <g id="Grupo_985550" data-name="Grupo 985550" transform="translate(4.038 25.522)">
              <path id="Trazado_642764" data-name="Trazado 642764" d="M1992.444,1899.063l-.183,1.766-16.759-2.322a7.318,7.318,0,0,1-5.779-4.523l-1.165-2.893.7,25.493-3.541,1.591a13.838,13.838,0,0,1-12.632-.64l-14.307-8.292.122-5.749.3-13.866-1.119-26.955a6.665,6.665,0,0,1,.023-.952,7.558,7.558,0,0,1,2.612-5.1l1.135-.982a7.581,7.581,0,0,1,8.361-1.005l1.706.906v.008l.008.008h.015l5.6,2.992a15.9,15.9,0,0,0,4.767-1.759l5.375,3.96a18.419,18.419,0,0,1,6.876,10.081l4.576,17.14,14.079,3.5Z" transform="translate(-1938.07 -1853.814)" fill="#fff"/>
            </g>
            <g id="Grupo_985551" data-name="Grupo 985551" transform="translate(4.746 80.952)">
              <path id="Trazado_642765" data-name="Trazado 642765" d="M1952.488,2104.782c-.191-5.193-.48-12.206-.685-13.257-.335-1.7.883-16.934.883-16.934l-2.756-29-9.419-5.5-.137-5.931,14.308,8.292a13.837,13.837,0,0,0,12.632.64l3.541-1.591s-3.777,33.145-3.777,35.528c0,2.033-1.241,26.323-1.6,33.214-.054,1.15-.091,1.812-.091,1.812s-4.028,1.858-5.612,1.591a35.091,35.091,0,0,1-5.87-2.543c-.731-.373-1.218-.632-1.218-.632S1952.609,2107.972,1952.488,2104.782Z" transform="translate(-1940.373 -2034.159)" fill="#ddb247"/>
            </g>
            <g id="Grupo_985552" data-name="Grupo 985552" transform="translate(9.464 0.226)">
              <path id="Trazado_642766" data-name="Trazado 642766" d="M1970.97,1772.157c4.972,2.361,10.972,4.622,9.738,7.058a7.348,7.348,0,0,1-2.969,2.764v.008a21.515,21.515,0,0,1-5.079,2.025c-2.627.678-1.485,3.883-1.417,4.081-.175-.1-2.878-1.629-3.731.008-.883,1.69.32,4.059,1.873,4.866,0,0-.48,5.81-5.223,5.581l-.023-.008v-.008c-.229-.274-3.914-4.713-5.521-5.581-1.652-.9-4.652-6.716-1.546-8.871,0,0-1.134-4.691,4.021-7.127S1966,1769.789,1970.97,1772.157Z" transform="translate(-1955.723 -1771.511)" fill="#151d39"/>
            </g>
            <g id="Grupo_985553" data-name="Grupo 985553" transform="translate(31.838 14.349)">
              <path id="Trazado_642767" data-name="Trazado 642767" d="M2028.519,1817.462s1.8,3.632,1.835,5.01c0,0-1.6,1.127-1.69,1.127l-.076-.008A45.409,45.409,0,0,0,2028.519,1817.462Z" transform="translate(-2028.519 -1817.462)" fill="#ddb247"/>
            </g>
            <g id="Grupo_985554" data-name="Grupo 985554" transform="translate(18.277 156.893)">
              <path id="Trazado_642768" data-name="Trazado 642768" d="M1995.971,2281.382c6.495-1.073,9.959,4.355,9.959,4.355s-11.064,7.462-13.759,7.409a43.6,43.6,0,0,1-6.982-1.059c-.8-1.9-.792-9.845-.792-9.845a35.1,35.1,0,0,0,5.871,2.543c1.584.267,5.612-1.592,5.612-1.592S1995.917,2282.532,1995.971,2281.382Z" transform="translate(-1984.397 -2281.242)" fill="#151d39"/>
            </g>
            <g id="Grupo_985555" data-name="Grupo 985555" transform="translate(28.275 21.156)">
              <path id="Trazado_642769" data-name="Trazado 642769" d="M2016.925,1839.609l2.642.427s-.03,1.972-.876,2.185C2018.692,1842.221,2017.062,1842.076,2016.925,1839.609Z" transform="translate(-2016.925 -1839.609)" fill="#fff"/>
            </g>
            <g id="Grupo_985556" data-name="Grupo 985556" transform="translate(28.625 14.821)">
              <ellipse id="Elipse_7910" data-name="Elipse 7910" cx="0.708" cy="1.043" rx="0.708" ry="1.043" fill="#151d39"/>
            </g>
            <g id="Grupo_985557" data-name="Grupo 985557" transform="translate(4.862 86.883)">
              <path id="Trazado_642770" data-name="Trazado 642770" d="M1950.19,2058.955l2.756,29s-1.218,15.236-.883,16.934c.206,1.051.495,8.063.685,13.256-.724.488-3.228,2.071-4.675,1.668a49.56,49.56,0,0,1-5.345-2.315c-.67-.327-1.112-.548-1.112-.548s-.952-10.637-.86-15.769.86-11,.86-11l-.845-36.724Z" transform="translate(-1940.75 -2053.457)" fill="#ddb247"/>
            </g>
            <g id="Grupo_985558" data-name="Grupo 985558" transform="translate(6.813 150.927)">
              <path id="Trazado_642771" data-name="Trazado 642771" d="M1957.146,2262.477c.122,3.19.2,5.688.2,5.688-3.975.526-10.165-.213-10.219-1.165s0-5.17,0-5.17a49.615,49.615,0,0,0,5.345,2.315C1953.917,2264.549,1956.422,2262.965,1957.146,2262.477Z" transform="translate(-1947.098 -2261.83)" fill="#151d39"/>
            </g>
            <g id="Grupo_985559" data-name="Grupo 985559" transform="translate(0.231 33.431)">
              <path id="Trazado_642772" data-name="Trazado 642772" d="M1929.5,1880.5l1.119,26.954-.3,13.866s-4.691-14.521-4.637-17.848,3.814-23.924,3.814-23.924h.023A6.662,6.662,0,0,0,1929.5,1880.5Z" transform="translate(-1925.682 -1879.545)" fill="#fff"/>
            </g>
            <g id="Grupo_985560" data-name="Grupo 985560" transform="translate(3.808 25.288)">
              <path id="Trazado_642773" data-name="Trazado 642773" d="M1959.506,1919.1a14.065,14.065,0,0,1-7.057-1.893l-14.307-8.292a.23.23,0,0,1-.115-.2l.419-19.615-1.119-26.94a6.84,6.84,0,0,1,.023-.983,7.839,7.839,0,0,1,2.692-5.255l1.133-.981a7.792,7.792,0,0,1,8.616-1.036.231.231,0,0,1-.208.411,7.333,7.333,0,0,0-8.107.974l-1.133.982a7.374,7.374,0,0,0-2.533,4.947,6.406,6.406,0,0,0-.022.921l1.12,26.956-.416,19.493,14.19,8.224a13.631,13.631,0,0,0,12.422.629l3.4-1.528-.7-25.605a.23.23,0,0,1,.224-.237.228.228,0,0,1,.237.224l.007.267.7,25.493a.231.231,0,0,1-.136.217l-3.541,1.591A14.067,14.067,0,0,1,1959.506,1919.1Z" transform="translate(-1937.319 -1853.052)"/>
            </g>
            <g id="Grupo_985561" data-name="Grupo 985561" transform="translate(0 33.2)">
              <path id="Trazado_642774" data-name="Trazado 642774" d="M1929.8,1921.028a.231.231,0,0,1-.219-.16c-.192-.594-4.7-14.6-4.648-17.923s3.665-23.12,3.818-23.962a.231.231,0,0,1,.454.083c-.038.206-3.759,20.608-3.811,23.886-.052,3.252,4.58,17.629,4.626,17.774a.231.231,0,0,1-.219.3Z" transform="translate(-1924.931 -1878.795)"/>
            </g>
            <g id="Grupo_985562" data-name="Grupo 985562" transform="translate(58.178 62.064)">
              <path id="Trazado_642775" data-name="Trazado 642775" d="M2123.4,1982.626c-1.6,0-8.759-.954-8.976-.983a.234.234,0,0,1-.207-.229.228.228,0,0,1,.227-.231h.008l.031,0c.769.107,8.174,1.07,9.073.974.354-.037.461-.443.635-1.216a5.959,5.959,0,0,1,.894-2.291c.889-1.224,1.322-3.11,1-3.624-.046-.074-.114-.137-.3-.1a39.323,39.323,0,0,1-5.363,0,.231.231,0,0,1-.078-.442c.666-.288,1.6-.86,1.722-1.283-.557-.218-3.835.243-6.8.838a.231.231,0,0,1-.091-.452c1.538-.308,6.6-1.271,7.242-.709a.344.344,0,0,1,.122.289c-.037.529-.667,1.013-1.223,1.34a29.832,29.832,0,0,0,4.385-.037.7.7,0,0,1,.77.31c.515.813-.133,2.93-1.013,4.142a5.5,5.5,0,0,0-.817,2.122c-.181.8-.337,1.5-1.035,1.574A2,2,0,0,1,2123.4,1982.626Z" transform="translate(-2114.217 -1972.707)"/>
            </g>
            <g id="Grupo_985563" data-name="Grupo 985563" transform="translate(17.663 27.025)">
              <path id="Trazado_642776" data-name="Trazado 642776" d="M2022.965,1904.447l-.031,0-16.759-2.322a7.566,7.566,0,0,1-5.962-4.666l-6.891-17.124a.23.23,0,1,1,.427-.172l6.891,17.125a7.106,7.106,0,0,0,5.6,4.381l16.522,2.29.158-1.529.749-7.4-13.885-3.447a.229.229,0,0,1-.167-.164l-4.577-17.14a18.259,18.259,0,0,0-6.789-9.955l-5.243-3.862a16.578,16.578,0,0,1-4.717,1.7.225.225,0,0,1-.155-.022l-5.6-2.99a.24.24,0,0,1-.127-.281.221.221,0,0,1,.28-.151l.023.008a.21.21,0,0,1,.037.016l5.53,2.952a15.234,15.234,0,0,0,4.6-1.7.23.23,0,0,1,.273,0l5.376,3.96a18.719,18.719,0,0,1,6.962,10.207l4.541,17.008,13.947,3.463a.23.23,0,0,1,.174.247l-.952,9.366a.23.23,0,0,1-.229.207Z" transform="translate(-1982.399 -1858.704)"/>
            </g>
            <g id="Grupo_985564" data-name="Grupo 985564" transform="translate(15.945 26.111)">
              <path id="Trazado_642777" data-name="Trazado 642777" d="M1978.745,1857.1a.233.233,0,0,1-.108-.027l-1.705-.906a.23.23,0,0,1,.216-.407l1.705.906a.23.23,0,0,1-.108.434Z" transform="translate(-1976.809 -1855.731)"/>
            </g>
            <g id="Grupo_985565" data-name="Grupo 985565" transform="translate(24.449 10.471)">
              <path id="Trazado_642778" data-name="Trazado 642778" d="M2005.017,1811.417a.22.22,0,0,1-.154-.063.279.279,0,0,1-.066-.1,4.4,4.4,0,0,1,0-3.218,2.359,2.359,0,0,1,1.575-1.162,21.218,21.218,0,0,0,5.021-2,.23.23,0,0,1,.231.4,21.674,21.674,0,0,1-5.136,2.049,1.918,1.918,0,0,0-1.285.934,4.03,4.03,0,0,0,.023,2.837.231.231,0,0,1-.211.325Z" transform="translate(-2004.479 -1804.843)"/>
            </g>
            <g id="Grupo_985566" data-name="Grupo 985566" transform="translate(9.234)">
              <path id="Trazado_642779" data-name="Trazado 642779" d="M1963.913,1798.276c-.092,0-.185,0-.281-.007a.269.269,0,0,1-.167-.067.26.26,0,0,1-.041-.053c-.7-.845-3.977-4.716-5.434-5.5-1.116-.607-2.871-3.355-3.009-5.909a3.636,3.636,0,0,1,1.319-3.266c-.141-.852-.556-5,4.175-7.235a12.676,12.676,0,0,0,4.121-3.288c1.545-1.691,2.766-3.027,5.952-1.509.7.331,1.415.66,2.13.988,3.7,1.695,7.187,3.3,7.805,5.066a1.627,1.627,0,0,1-.09,1.316,7.45,7.45,0,0,1-3.06,2.86.231.231,0,0,1-.23-.4,7.017,7.017,0,0,0,2.879-2.668,1.168,1.168,0,0,0,.066-.956c-.554-1.585-4.117-3.22-7.562-4.8-.717-.329-1.437-.659-2.136-.991-2.879-1.371-3.887-.267-5.414,1.4a13.246,13.246,0,0,1-4.264,3.394c-4.917,2.324-3.939,6.68-3.895,6.865a.232.232,0,0,1-.093.243,3.127,3.127,0,0,0-1.244,2.951c.129,2.365,1.768,4.984,2.768,5.528,1.484.8,4.558,4.4,5.535,5.573a4.189,4.189,0,0,0,4.078-2.571,8.725,8.725,0,0,0,.8-2.657,4.62,4.62,0,0,1-1.969-2.554,3.324,3.324,0,0,1,.138-2.546,1.537,1.537,0,0,1,.956-.794,4.811,4.811,0,0,1,3.093.692.23.23,0,0,1-.227.4,4.478,4.478,0,0,0-2.735-.651,1.077,1.077,0,0,0-.678.565,2.867,2.867,0,0,0-.108,2.194,4.149,4.149,0,0,0,1.882,2.36.23.23,0,0,1,.123.224C1969.091,1792.535,1968.562,1798.275,1963.913,1798.276Z" transform="translate(-1954.973 -1770.776)"/>
            </g>
            <g id="Grupo_985567" data-name="Grupo 985567" transform="translate(27.702 26.385)">
              <path id="Trazado_642780" data-name="Trazado 642780" d="M2015.633,1858.964a.231.231,0,0,1-.227-.189l-.342-1.881a.231.231,0,1,1,.454-.083l.343,1.881a.231.231,0,0,1-.186.268A.271.271,0,0,1,2015.633,1858.964Z" transform="translate(-2015.06 -1856.623)"/>
            </g>
            <g id="Grupo_985568" data-name="Grupo 985568" transform="translate(25.044 10.464)">
              <path id="Trazado_642781" data-name="Trazado 642781" d="M2008.619,1821.051a3.676,3.676,0,0,1-2.115-.6.231.231,0,0,1,.278-.368,3.485,3.485,0,0,0,2.448.458,5.875,5.875,0,0,0,2.233-.866c.859-.531,1.391-2.167,1.583-4.861a44.2,44.2,0,0,0-.068-6.1c-.06-.83-.169-2.123-.348-3.565l-.009-.071c0-.009,0-.025,0-.034a.231.231,0,0,1,.461,0l.007.049c.181,1.453.291,2.754.351,3.589a44.722,44.722,0,0,1,.069,6.162c-.205,2.89-.794,4.6-1.8,5.22a6.327,6.327,0,0,1-2.41.93A4.8,4.8,0,0,1,2008.619,1821.051Z" transform="translate(-2006.414 -1804.82)"/>
            </g>
            <g id="Grupo_985569" data-name="Grupo 985569" transform="translate(4.516 80.721)">
              <path id="Trazado_642782" data-name="Trazado 642782" d="M1947.813,2106.225a2.159,2.159,0,0,1-.581-.074,48.048,48.048,0,0,1-5.384-2.329c-.672-.329-1.114-.55-1.114-.55a.229.229,0,0,1-.127-.186c-.01-.106-.952-10.708-.861-15.793.088-4.947.813-10.649.86-11.011l-.982-42.637a.231.231,0,0,1,.225-.236.235.235,0,0,1,.236.225l.982,42.655a.192.192,0,0,1,0,.036c-.007.059-.768,5.917-.858,10.977-.085,4.758.741,14.391.848,15.616.172.086.528.261.995.49a49.924,49.924,0,0,0,5.308,2.3c1.07.3,3.018-.65,4.483-1.637.119-.077.182-.125.186-.128a.231.231,0,0,1,.282.365s-.074.057-.214.148C1951.25,2105.024,1949.291,2106.225,1947.813,2106.225Z" transform="translate(-1939.624 -2033.408)"/>
            </g>
            <g id="Grupo_985570" data-name="Grupo 985570" transform="translate(4.653 86.652)">
              <path id="Trazado_642783" data-name="Trazado 642783" d="M1959.905,2126.748a2.283,2.283,0,0,1-.379-.029,33.653,33.653,0,0,1-5.937-2.565c-.734-.375-1.222-.634-1.222-.634a.232.232,0,0,1-.123-.2c0-.025-.077-2.533-.2-5.686-.283-7.729-.525-12.424-.681-13.221-.334-1.693.809-16.111.878-16.976l-2.744-28.865-9.316-5.438a.23.23,0,1,1,.232-.4l9.418,5.5a.229.229,0,0,1,.113.177l2.757,29a.247.247,0,0,1,0,.04c-.012.152-1.212,15.223-.887,16.871.206,1.052.489,7.809.69,13.293.1,2.74.176,4.994.194,5.555.186.1.581.3,1.1.568a31.312,31.312,0,0,0,5.8,2.521c1.344.222,4.662-1.21,5.35-1.516.014-.251.045-.83.083-1.67.415-7.989,1.6-31.235,1.6-33.2,0-2.369,3.624-34.2,3.778-35.555a.231.231,0,0,1,.458.052c-.038.331-3.775,33.159-3.775,35.5,0,1.978-1.184,25.234-1.6,33.226-.053,1.15-.092,1.813-.092,1.813a.23.23,0,0,1-.133.2C1965.117,2125.181,1961.7,2126.748,1959.905,2126.748Z" transform="translate(-1940.07 -2052.707)"/>
            </g>
            <g id="Grupo_985571" data-name="Grupo 985571" transform="translate(6.583 150.697)">
              <path id="Trazado_642784" data-name="Trazado 642784" d="M1953.8,2268.052c-3.1,0-6.365-.463-7.185-1.142a.588.588,0,0,1-.241-.417c-.061-.948,0-5.013,0-5.186a.231.231,0,0,1,.23-.227h0a.23.23,0,0,1,.227.234c0,.042-.06,4.22,0,5.152.1.611,5.7,1.513,9.958.951a.23.23,0,1,1,.061.457A23.853,23.853,0,0,1,1953.8,2268.052Z" transform="translate(-1946.347 -2261.08)"/>
            </g>
            <g id="Grupo_985572" data-name="Grupo 985572" transform="translate(18.047 156.664)">
              <path id="Trazado_642785" data-name="Trazado 642785" d="M1991.678,2292.861h-.031a43.184,43.184,0,0,1-7.03-1.064.23.23,0,0,1-.16-.135c-.808-1.924-.81-9.609-.81-9.935a.23.23,0,0,1,.231-.23h0a.231.231,0,0,1,.23.231c0,.077,0,7.629.732,9.648a42.438,42.438,0,0,0,6.817,1.025h.027c2.444,0,11.92-6.25,13.4-7.24a10.043,10.043,0,0,0-9.6-4.067.231.231,0,0,1-.075-.455c6.572-1.085,10.156,4.4,10.191,4.459a.229.229,0,0,1-.065.315C2005.087,2285.718,1994.464,2292.861,1991.678,2292.861Z" transform="translate(-1983.647 -2280.497)"/>
            </g>
            <g id="Grupo_985573" data-name="Grupo 985573" transform="translate(28.044 20.925)">
              <path id="Trazado_642786" data-name="Trazado 642786" d="M2018.171,1841.932h-.02c-.018,0-1.83-.193-1.977-2.829a.23.23,0,0,1,.267-.24l2.642.427a.231.231,0,0,1,.194.231c0,.22-.062,2.156-1.05,2.405A.233.233,0,0,1,2018.171,1841.932Zm-1.512-2.568c.2,1.78,1.268,2.062,1.494,2.1.419-.156.615-1.08.656-1.755Z" transform="translate(-2016.174 -1838.858)"/>
            </g>
          </g>
        </g>
        <g id="Grupo_985642" data-name="Grupo 985642" transform="translate(54.65)">
          <g id="Grupo_985617" data-name="Grupo 985617">
            <g id="Grupo_985608" data-name="Grupo 985608" transform="translate(0.232 0.228)">
              <g id="Grupo_985583" data-name="Grupo 985583">
                <g id="Grupo_985582" data-name="Grupo 985582" style="isolation: isolate">
                  <g id="Grupo_985577" data-name="Grupo 985577" transform="translate(10.17)">
                    <g id="Grupo_985576" data-name="Grupo 985576">
                      <path id="Trazado_642787" data-name="Trazado 642787" d="M2120.089,1605.705l-11.326-6.582,7.926-4.576,11.326,6.582Z" transform="translate(-2108.764 -1594.548)" fill="#ffd76a"/>
                    </g>
                  </g>
                  <g id="Grupo_985579" data-name="Grupo 985579" transform="translate(0 4.576)">
                    <g id="Grupo_985578" data-name="Grupo 985578">
                      <path id="Trazado_642788" data-name="Trazado 642788" d="M2087,1631.337l-11.326-6.582,10.17-15.32,11.325,6.582Z" transform="translate(-2075.674 -1609.436)" fill="#ddb247"/>
                    </g>
                  </g>
                  <g id="Grupo_985581" data-name="Grupo 985581" transform="translate(0 19.896)">
                    <g id="Grupo_985580" data-name="Grupo 985580">
                      <path id="Trazado_642789" data-name="Trazado 642789" d="M2078.518,1675.1h0a5.652,5.652,0,0,1-2.813-4.872l-.031-10.946,11.326,6.582.012,4.332A5.653,5.653,0,0,1,2078.518,1675.1Z" transform="translate(-2075.674 -1659.281)" fill="#ffd76a"/>
                    </g>
                  </g>
                </g>
              </g>
              <g id="Grupo_985591" data-name="Grupo 985591" transform="translate(11.338 6.595)">
                <g id="Grupo_985590" data-name="Grupo 985590" style="isolation: isolate">
                  <g id="Grupo_985585" data-name="Grupo 985585" transform="translate(10.17)">
                    <g id="Grupo_985584" data-name="Grupo 985584">
                      <path id="Trazado_642790" data-name="Trazado 642790" d="M2156.979,1627.164l-11.326-6.582,7.926-4.576,11.326,6.582Z" transform="translate(-2145.653 -1616.006)" fill="#fff"/>
                    </g>
                  </g>
                  <g id="Grupo_985587" data-name="Grupo 985587" transform="translate(0 4.576)">
                    <g id="Grupo_985586" data-name="Grupo 985586">
                      <path id="Trazado_642791" data-name="Trazado 642791" d="M2123.889,1652.8l-11.326-6.582,10.17-15.32,11.326,6.582Z" transform="translate(-2112.563 -1630.894)" fill="#dce8f7"/>
                    </g>
                  </g>
                  <g id="Grupo_985589" data-name="Grupo 985589" transform="translate(0 19.896)">
                    <g id="Grupo_985588" data-name="Grupo 985588">
                      <path id="Trazado_642792" data-name="Trazado 642792" d="M2115.407,1696.557h0a5.654,5.654,0,0,1-2.813-4.872l-.031-10.946,11.326,6.582.012,4.332A5.653,5.653,0,0,1,2115.407,1696.557Z" transform="translate(-2112.563 -1680.739)" fill="#fff"/>
                    </g>
                  </g>
                </g>
              </g>
              <g id="Grupo_985599" data-name="Grupo 985599" transform="translate(22.676 13.301)">
                <g id="Grupo_985598" data-name="Grupo 985598" style="isolation: isolate">
                  <g id="Grupo_985593" data-name="Grupo 985593" transform="translate(10.17)">
                    <g id="Grupo_985592" data-name="Grupo 985592">
                      <path id="Trazado_642793" data-name="Trazado 642793" d="M2193.868,1648.98l-11.326-6.582,7.926-4.576,11.326,6.582Z" transform="translate(-2182.542 -1637.823)" fill="#ffd76a"/>
                    </g>
                  </g>
                  <g id="Grupo_985595" data-name="Grupo 985595" transform="translate(0 4.576)">
                    <g id="Grupo_985594" data-name="Grupo 985594">
                      <path id="Trazado_642794" data-name="Trazado 642794" d="M2160.778,1674.612l-11.326-6.582,10.17-15.32,11.326,6.582Z" transform="translate(-2149.452 -1652.71)" fill="#ddb247"/>
                    </g>
                  </g>
                  <g id="Grupo_985597" data-name="Grupo 985597" transform="translate(0 19.896)">
                    <g id="Grupo_985596" data-name="Grupo 985596">
                      <path id="Trazado_642795" data-name="Trazado 642795" d="M2152.3,1718.374h0a5.653,5.653,0,0,1-2.813-4.872l-.031-10.946,11.326,6.582.012,4.332A5.653,5.653,0,0,1,2152.3,1718.374Z" transform="translate(-2149.452 -1702.556)" fill="#ffd76a"/>
                    </g>
                  </g>
                </g>
              </g>
              <g id="Grupo_985607" data-name="Grupo 985607" transform="translate(34.014 19.896)">
                <g id="Grupo_985606" data-name="Grupo 985606" style="isolation: isolate">
                  <g id="Grupo_985601" data-name="Grupo 985601" transform="translate(10.17)">
                    <g id="Grupo_985600" data-name="Grupo 985600">
                      <path id="Trazado_642796" data-name="Trazado 642796" d="M2230.757,1670.438l-11.326-6.582,7.926-4.576,11.326,6.582Z" transform="translate(-2219.431 -1659.281)" fill="#fff"/>
                    </g>
                  </g>
                  <g id="Grupo_985603" data-name="Grupo 985603" transform="translate(0 4.576)">
                    <g id="Grupo_985602" data-name="Grupo 985602">
                      <path id="Trazado_642797" data-name="Trazado 642797" d="M2197.667,1696.071l-11.326-6.582,10.17-15.32,11.326,6.582Z" transform="translate(-2186.341 -1674.169)" fill="#dce8f7"/>
                    </g>
                  </g>
                  <g id="Grupo_985605" data-name="Grupo 985605" transform="translate(0 19.896)">
                    <g id="Grupo_985604" data-name="Grupo 985604">
                      <path id="Trazado_642798" data-name="Trazado 642798" d="M2189.185,1739.832h0a5.655,5.655,0,0,1-2.813-4.872l-.031-10.946,11.326,6.582.012,4.332A5.654,5.654,0,0,1,2189.185,1739.832Z" transform="translate(-2186.341 -1724.014)" fill="#fff"/>
                    </g>
                  </g>
                </g>
              </g>
            </g>
            <g id="Grupo_985616" data-name="Grupo 985616">
              <g id="Grupo_985615" data-name="Grupo 985615">
                <g id="Grupo_985614" data-name="Grupo 985614" style="isolation: isolate">
                  <g id="Grupo_985613" data-name="Grupo 985613">
                    <g id="Grupo_985609" data-name="Grupo 985609">
                      <path id="Trazado_642799" data-name="Trazado 642799" d="M2080.835,1630.756a5.906,5.906,0,0,1-5.883-5.881l-.032-10.944a.233.233,0,0,1,.039-.128l10.172-15.322a.231.231,0,0,1,.077-.072l7.922-4.572a.231.231,0,0,1,.231,0l11.33,6.58a.231.231,0,0,1,0,.4l-7.884,4.545-10.1,15.219.008,4.261a5.9,5.9,0,0,1-5.883,5.915ZM2075.381,1614l.032,10.873a5.463,5.463,0,0,0,2.7,4.679,5.422,5.422,0,0,0,8.146-4.709l-.008-4.331a.23.23,0,0,1,.038-.128l10.164-15.322a.226.226,0,0,1,.077-.072l7.585-4.373-10.869-6.314-7.76,4.478Z" transform="translate(-2074.92 -1593.806)" fill="#1a1c31"/>
                    </g>
                    <g id="Grupo_985610" data-name="Grupo 985610" transform="translate(34.011 19.894)">
                      <path id="Trazado_642800" data-name="Trazado 642800" d="M2191.495,1695.484a5.905,5.905,0,0,1-5.883-5.881l-.032-10.944a.232.232,0,0,1,.038-.128l10.172-15.322a.239.239,0,0,1,.077-.072l7.93-4.572a.231.231,0,0,1,.231,0l11.321,6.58a.23.23,0,0,1,0,.4l-7.876,4.552-10.1,15.211.016,4.26a5.914,5.914,0,0,1-5.891,5.915Zm-5.454-16.757.032,10.874a5.461,5.461,0,0,0,2.7,4.678,5.43,5.43,0,0,0,8.154-4.71l-.016-4.33a.23.23,0,0,1,.038-.129l10.172-15.314a.227.227,0,0,1,.077-.072l7.578-4.38-10.862-6.314-7.768,4.478Z" transform="translate(-2185.579 -1658.533)" fill="#1a1c31"/>
                    </g>
                    <g id="Grupo_985611" data-name="Grupo 985611" transform="translate(11.337 6.597)">
                      <path id="Trazado_642801" data-name="Trazado 642801" d="M2117.726,1652.212a5.908,5.908,0,0,1-5.887-5.875l-.032-10.944a.234.234,0,0,1,.038-.128l10.172-15.322a.227.227,0,0,1,.077-.072l7.922-4.572a.231.231,0,0,1,.231,0l11.329,6.58a.231.231,0,0,1,0,.4l-7.875,4.544-10.1,15.219.008,4.261a5.9,5.9,0,0,1-5.879,5.908Zm-5.458-16.75.032,10.874a5.434,5.434,0,0,0,2.7,4.67,5.419,5.419,0,0,0,8.147-4.7l-.008-4.332a.232.232,0,0,1,.038-.128l10.172-15.322a.238.238,0,0,1,.077-.072l7.578-4.372-10.869-6.314-7.76,4.478Z" transform="translate(-2111.807 -1615.268)" fill="#1a1c31"/>
                    </g>
                    <g id="Grupo_985612" data-name="Grupo 985612" transform="translate(22.674 13.297)">
                      <path id="Trazado_642802" data-name="Trazado 642802" d="M2154.609,1674.021a5.906,5.906,0,0,1-5.884-5.874l-.032-10.952a.234.234,0,0,1,.038-.128l10.172-15.314a.225.225,0,0,1,.077-.072l7.93-4.58a.23.23,0,0,1,.231,0l11.321,6.58a.23.23,0,0,1,0,.4l-7.875,4.553-10.1,15.211.008,4.269a5.813,5.813,0,0,1-2.936,5.107A5.876,5.876,0,0,1,2154.609,1674.021Zm-5.455-16.756.032,10.881a5.456,5.456,0,0,0,2.7,4.671,5.421,5.421,0,0,0,8.146-4.7l-.009-4.339a.231.231,0,0,1,.039-.128l10.172-15.314a.227.227,0,0,1,.077-.072l7.578-4.381-10.862-6.313-7.768,4.486Z" transform="translate(-2148.693 -1637.07)" fill="#1a1c31"/>
                    </g>
                  </g>
                </g>
              </g>
            </g>
          </g>
          <g id="Grupo_985641" data-name="Grupo 985641" transform="translate(45.353 26.491)">
            <g id="Grupo_985634" data-name="Grupo 985634" transform="translate(0.231 0.228)">
              <g id="Grupo_985625" data-name="Grupo 985625">
                <g id="Grupo_985624" data-name="Grupo 985624" style="isolation: isolate">
                  <g id="Grupo_985619" data-name="Grupo 985619" transform="translate(10.17)">
                    <g id="Grupo_985618" data-name="Grupo 985618">
                      <path id="Trazado_642803" data-name="Trazado 642803" d="M2267.649,1691.9l-11.326-6.582,7.926-4.576,11.326,6.582Z" transform="translate(-2256.323 -1680.739)" fill="#ffd76a"/>
                    </g>
                  </g>
                  <g id="Grupo_985621" data-name="Grupo 985621" transform="translate(0 4.576)">
                    <g id="Grupo_985620" data-name="Grupo 985620">
                      <path id="Trazado_642804" data-name="Trazado 642804" d="M2234.56,1717.529l-11.326-6.582,10.17-15.32,11.326,6.582Z" transform="translate(-2223.234 -1695.627)" fill="#ddb247"/>
                    </g>
                  </g>
                  <g id="Grupo_985623" data-name="Grupo 985623" transform="translate(0 19.896)">
                    <g id="Grupo_985622" data-name="Grupo 985622">
                      <path id="Trazado_642805" data-name="Trazado 642805" d="M2226.078,1761.29h0a5.653,5.653,0,0,1-2.813-4.872l-.031-10.946,11.326,6.582.012,4.332A5.654,5.654,0,0,1,2226.078,1761.29Z" transform="translate(-2223.234 -1745.472)" fill="#ffd76a"/>
                    </g>
                  </g>
                </g>
              </g>
              <g id="Grupo_985633" data-name="Grupo 985633" transform="translate(11.338 6.595)">
                <g id="Grupo_985632" data-name="Grupo 985632" style="isolation: isolate">
                  <g id="Grupo_985627" data-name="Grupo 985627" transform="translate(10.17)">
                    <g id="Grupo_985626" data-name="Grupo 985626">
                      <path id="Trazado_642806" data-name="Trazado 642806" d="M2304.539,1713.355l-11.326-6.582,7.926-4.576,11.325,6.582Z" transform="translate(-2293.213 -1702.198)" fill="#fff"/>
                    </g>
                  </g>
                  <g id="Grupo_985629" data-name="Grupo 985629" transform="translate(0 4.576)">
                    <g id="Grupo_985628" data-name="Grupo 985628">
                      <path id="Trazado_642807" data-name="Trazado 642807" d="M2271.448,1738.988l-11.326-6.582,10.17-15.32,11.325,6.582Z" transform="translate(-2260.123 -1717.086)" fill="#dce8f7"/>
                    </g>
                  </g>
                  <g id="Grupo_985631" data-name="Grupo 985631" transform="translate(0 19.896)">
                    <g id="Grupo_985630" data-name="Grupo 985630">
                      <path id="Trazado_642808" data-name="Trazado 642808" d="M2262.967,1782.749h0a5.653,5.653,0,0,1-2.813-4.872l-.031-10.946,11.326,6.582.012,4.332A5.653,5.653,0,0,1,2262.967,1782.749Z" transform="translate(-2260.123 -1766.931)" fill="#fff"/>
                    </g>
                  </g>
                </g>
              </g>
            </g>
            <g id="Grupo_985640" data-name="Grupo 985640">
              <g id="Grupo_985639" data-name="Grupo 985639">
                <g id="Grupo_985638" data-name="Grupo 985638" style="isolation: isolate">
                  <g id="Grupo_985637" data-name="Grupo 985637">
                    <g id="Grupo_985635" data-name="Grupo 985635">
                      <path id="Trazado_642809" data-name="Trazado 642809" d="M2228.4,1716.949a5.906,5.906,0,0,1-5.883-5.882l-.032-10.943a.231.231,0,0,1,.038-.128l10.172-15.323a.226.226,0,0,1,.077-.072l7.922-4.572a.231.231,0,0,1,.231,0l11.329,6.58a.23.23,0,0,1,0,.4l-7.883,4.544-10.1,15.219.008,4.261a5.906,5.906,0,0,1-5.883,5.915Zm-5.454-16.757.032,10.874a5.464,5.464,0,0,0,2.7,4.679,5.422,5.422,0,0,0,8.146-4.709l-.008-4.331a.232.232,0,0,1,.038-.128l10.164-15.323a.233.233,0,0,1,.077-.072l7.585-4.373-10.869-6.313-7.76,4.478Z" transform="translate(-2222.481 -1679.998)" fill="#1a1c31"/>
                    </g>
                    <g id="Grupo_985636" data-name="Grupo 985636" transform="translate(11.337 6.596)">
                      <path id="Trazado_642810" data-name="Trazado 642810" d="M2265.286,1738.4a5.909,5.909,0,0,1-5.887-5.875l-.032-10.944a.23.23,0,0,1,.039-.128l10.172-15.322a.23.23,0,0,1,.077-.072l7.922-4.572a.23.23,0,0,1,.231,0l11.329,6.58a.231.231,0,0,1,0,.4l-7.875,4.545-10.1,15.219.008,4.261a5.9,5.9,0,0,1-5.878,5.908Zm-5.458-16.75.031,10.874a5.436,5.436,0,0,0,2.7,4.67,5.418,5.418,0,0,0,8.146-4.7l-.008-4.332a.229.229,0,0,1,.038-.128l10.172-15.322a.22.22,0,0,1,.077-.072l7.577-4.373-10.869-6.313-7.76,4.478Z" transform="translate(-2259.367 -1701.46)" fill="#1a1c31"/>
                    </g>
                  </g>
                </g>
              </g>
            </g>
          </g>
        </g>
      </g>
    </g>
    <rect id="Rectángulo_308666" data-name="Rectángulo 308666" width="295" height="254" transform="translate(390 1449)" fill="none"/>
  </g>
</svg>
