<svg id="Grupo_988706" data-name="Grupo 988706" xmlns="http://www.w3.org/2000/svg" width="53.851" height="42.991" viewBox="0 0 53.851 42.991">
  <path id="Trazado_646732" data-name="Trazado 646732" d="M1787.09,56.428c.662.2.827.4.829,1.078,0,1.682.018,3.364-.01,5.045-.007.433.133.51.527.505,1.665-.021,3.33-.012,4.995-.008A1.909,1.909,0,0,1,1795.5,65.1q0,10.747,0,21.494a1.924,1.924,0,0,1-2.127,2.058q-6.336.009-12.671,0-9.7,0-19.4,0a2.137,2.137,0,0,1-1.75-.667,2.029,2.029,0,0,1-.468-1.408c.009-2.137-.009-4.275.015-6.411,0-.424-.12-.511-.522-.51q-7.335.021-14.669.009a1.978,1.978,0,0,1-2.255-2.25q0-10.563,0-21.127a1.99,1.99,0,0,1,2.257-2.255c2.366,0,4.732-.01,7.1.009.392,0,.5-.092.491-.488-.023-1.892-.013-3.784-.009-5.676a1.957,1.957,0,0,1,2.233-2.216q15.983,0,31.967,0a1.967,1.967,0,0,1,2.23,2.226q0,2.785,0,5.571c0,.632-.2.86-.824,1.018-.65-.157-.833-.384-.835-1.061q0-2.68,0-5.359c0-.759,0-.759-.745-.759h-21.971c-3.259,0-6.518.007-9.777-.008-.472,0-.651.135-.645.627q.034,2.863,0,5.727c-.006.418.2.39.478.4s.478,0,.469-.4c-.029-1.4-.012-2.8-.011-4.2,0-.987.215-1.2,1.194-1.2H1784.1c1.049,0,1.249.2,1.249,1.264q0,6.541-.007,13.082c0,.351.069.486.454.482.364,0,.47-.091.466-.464-.021-1.7-.011-3.4-.008-5.1C1786.26,56.83,1786.424,56.625,1787.09,56.428ZM1748.5,71.338a4.621,4.621,0,0,0-2.376.026c-.223.05-.265.17-.264.371.006,1.137.01,2.274,0,3.41,0,.259.087.324.332.318.769-.019,1.539-.018,2.308-.024,3.413.006,6.825.008,10.238.025.327,0,.362-.132.362-.4q-.011-4.435,0-8.87c0-.331-.1-.407-.414-.41a3.3,3.3,0,0,0-3.24,2.979.832.832,0,0,1-1.359.671,2.718,2.718,0,0,0-.965-.385,2.426,2.426,0,0,0-2.756,1.729c-.244.733-.574.9-1.308.688C1748.871,71.411,1748.682,71.38,1748.5,71.338Zm4.007-13.885c-.22.678-.371.788-1.087.794l-2.92.029c-.718-.01-1.437,0-2.153-.039-.408-.023-.492.122-.491.506.015,3.487.009,6.973.009,10.46,0,.07.006.141,0,.21-.023.248.1.309.319.259a9.239,9.239,0,0,1,2.3-.08c.253.113.453.176.656-.143a4.008,4.008,0,0,1,4.566-1.963c.234.044.324.015.422-.211a4.873,4.873,0,0,1,4.814-3.146.438.438,0,0,0,.442-.19,2.04,2.04,0,0,1,1.891-.9c4.01.017,8.021,0,12.031.017.424,0,.575-.089.563-.542-.032-1.225-.035-2.451,0-3.675.015-.491-.136-.6-.612-.6q-9.063.024-18.126.01c-.773,0-.907-.1-1.146-.8a.927.927,0,0,1,1.025-.829q9.753.014,19.506.008c.727,0,1,.29,1,1.032,0,1.647.013,3.293-.008,4.94,0,.371.1.469.464.465s.475-.095.472-.469c-.018-2.049-.008-4.1-.009-6.149,0-.746,0-.747-.766-.747h-31.6c-.762,0-.762,0-.762.789V72.935c0,1.507.009,3.013-.006,4.52,0,.388.088.569.524.568q7.439-.017,14.879,0c.294,0,.373-.083.4-.382.036-.464-.15-.537-.566-.535q-6.6.021-13.2.007c-.826,0-1.135-.274-1.136-1.027q-.006-9.223,0-18.446c0-.731.289-1.011,1.027-1.013q3.1-.008,6.2,0C1752.136,56.625,1752.3,56.764,1752.5,57.453Zm29.306,6.361a.885.885,0,0,1,1.01-.773c.894.011.894-.006.894-.911q0-5.779,0-11.559c0-.769.1-.681-.656-.681q-12.353,0-24.706,0c-.736,0-1.472.024-2.207,0-.353-.011-.443.114-.437.449.019,1.033.033,2.068,0,3.1-.018.482.123.6.6.6q9.777-.021,19.554,0a1.96,1.96,0,0,1,2.208,2.192c0,2.1.013,4.2-.009,6.3,0,.422.119.575.529.514.12-.018.245,0,.368,0a.86.86,0,0,1,1.008.769c-.14.713-.344.865-1.185.865h-17.351c-.7,0-.708.013-.708.7q0,10.458,0,20.917c0,.7.02.717.7.717h31.757c.668,0,.673-.005.673-.675q0-10.485,0-20.969c0-.69,0-.692-.705-.692q-5.1,0-10.2,0C1782.155,64.68,1781.948,64.516,1781.809,63.815Z" transform="translate(-1741.652 -45.667)" fill="#030302"/>
  <path id="Trazado_646733" data-name="Trazado 646733" d="M1830.04,62.528c-.666.2-.83.4-.831,1.075,0,1.7-.013,3.4.008,5.1,0,.374-.1.461-.466.464-.386,0-.456-.132-.455-.482q.016-6.541.007-13.082c0-1.063-.2-1.264-1.248-1.264H1798.2c-.979,0-1.194.217-1.194,1.2,0,1.4-.018,2.8.011,4.2.009.4-.177.408-.469.4s-.484.023-.478-.4q.039-2.863,0-5.727c-.006-.493.172-.63.645-.627,3.259.016,6.518.008,9.777.008h21.971c.745,0,.745,0,.745.759q0,2.679,0,5.359c0,.677.185.9.835,1.061Q1830.042,61.555,1830.04,62.528Z" transform="translate(-1784.603 -51.767)" fill="#e6e6cf"/>
  <path id="Trazado_646734" data-name="Trazado 646734" d="M1832.581,79.621a.86.86,0,0,0-1.008-.769c-.122.008-.247-.014-.368,0-.41.061-.533-.093-.529-.514.022-2.1.012-4.2.009-6.3a1.96,1.96,0,0,0-2.208-2.192q-9.777-.006-19.555,0c-.481,0-.621-.12-.6-.6.038-1.032.023-2.066,0-3.1-.006-.335.084-.46.437-.449.735.022,1.471,0,2.208,0q12.353,0,24.706,0c.76,0,.656-.088.656.681q0,5.78,0,11.559c0,.906,0,.922-.894.911a.885.885,0,0,0-1.01.773Z" transform="translate(-1794.272 -61.473)" fill="#f09e5a"/>
  <path id="Trazado_646735" data-name="Trazado 646735" d="M1774.086,102.4l2.92-.029c.716-.007.867-.116,1.087-.794l1.482-.008c.239.7.373.8,1.146.8q9.063,0,18.126-.01c.476,0,.627.113.612.6-.036,1.224-.033,2.451,0,3.675.012.453-.14.543-.563.542-4.01-.016-8.021,0-12.031-.017a2.04,2.04,0,0,0-1.891.9.437.437,0,0,1-.442.19,4.873,4.873,0,0,0-4.813,3.146c-.1.226-.188.255-.422.211a4.008,4.008,0,0,0-4.566,1.963c-.2.319-.4.256-.656.143Q1774.08,108.062,1774.086,102.4Z" transform="translate(-1767.243 -89.794)" fill="#3682b1"/>
  <path id="Trazado_646736" data-name="Trazado 646736" d="M1851.385,131.8h1.847c.14.7.346.865,1.132.866q5.1,0,10.2,0c.7,0,.705,0,.705.692q0,10.485,0,20.969c0,.67-.005.675-.673.675H1832.84c-.678,0-.7-.02-.7-.717q0-10.458,0-20.917c0-.69.013-.7.708-.7H1850.2C1851.041,132.665,1851.245,132.512,1851.385,131.8Zm-2.672,22.271h14.46c.971,0,1.2-.233,1.2-1.212q0-9.014,0-18.028c0-1.015-.23-1.248-1.228-1.248h-28.869c-1,0-1.22.227-1.22,1.246q0,9.014,0,18.028c0,.986.223,1.214,1.191,1.214Z" transform="translate(-1813.076 -113.652)" fill="#e4e4cd"/>
  <path id="Trazado_646737" data-name="Trazado 646737" d="M1774.124,146.69c.187.041.376.073.559.126.735.215,1.065.044,1.308-.688a2.426,2.426,0,0,1,2.756-1.729,2.72,2.72,0,0,1,.965.384.832.832,0,0,0,1.358-.671,3.3,3.3,0,0,1,3.24-2.979c.313,0,.416.079.414.41q-.02,4.435,0,8.87c0,.271-.035.4-.362.4-3.412-.017-6.825-.019-10.238-.025Z" transform="translate(-1767.281 -121.019)" fill="#fdfdfd"/>
  <path id="Trazado_646738" data-name="Trazado 646738" d="M1760.172,95.023l-1.482.008c-.2-.69-.367-.828-1.068-.83q-3.1-.006-6.2,0c-.738,0-1.026.283-1.026,1.013q-.006,9.223,0,18.446c0,.753.31,1.027,1.136,1.027q6.6,0,13.2-.007c.416,0,.6.072.566.535-.023.3-.1.382-.4.382q-7.44-.012-14.879,0c-.436,0-.528-.18-.524-.568.015-1.506.006-3.013.006-4.52V94.064c0-.788,0-.789.762-.789h31.6c.765,0,.765,0,.766.747,0,2.05-.009,4.1.009,6.149,0,.374-.11.465-.472.469s-.469-.095-.464-.465c.021-1.647.011-3.293.008-4.94,0-.742-.275-1.032-1-1.032q-9.753-.005-19.506-.008A.927.927,0,0,0,1760.172,95.023Z" transform="translate(-1747.839 -83.244)" fill="#d1d0d1"/>
  <path id="Trazado_646739" data-name="Trazado 646739" d="M1764.228,105.36l-.012,11.316a9.239,9.239,0,0,0-2.3.08c-.214.05-.342-.011-.319-.259.006-.07,0-.14,0-.21,0-3.487.006-6.973-.009-10.46,0-.384.083-.529.491-.506C1762.791,105.362,1763.51,105.35,1764.228,105.36Z" transform="translate(-1757.385 -92.751)" fill="#3075a0"/>
  <path id="Trazado_646740" data-name="Trazado 646740" d="M1764.234,166.964l0,4.1c-.769.007-1.539,0-2.308.024-.244.006-.335-.059-.332-.318.012-1.137.009-2.274,0-3.41,0-.2.041-.321.264-.371A4.621,4.621,0,0,1,1764.234,166.964Z" transform="translate(-1757.391 -141.293)" fill="#dfdfdf"/>
  <path id="Trazado_646741" data-name="Trazado 646741" d="M1852.157,160.753H1837.7c-.968,0-1.191-.228-1.191-1.214q0-9.014,0-18.028c0-1.018.222-1.246,1.22-1.246h28.869c1,0,1.227.233,1.227,1.248q0,9.014,0,18.028c0,.978-.233,1.212-1.2,1.212Zm-11.23-8c-.507-.588-.507-.588-1.035-.059-.47.471-.937.945-1.412,1.412a.92.92,0,0,0-.31.694c.007,1.3.009,2.592,0,3.888,0,.289.085.408.388.4.753-.02,1.506-.015,2.259-.02q6.565,0,13.13,0c.023,0,.045-.04.069-.062-.01-.031-.011-.071-.031-.091q-2.462-2.476-4.923-4.954c-.221-.224-.342-.121-.508.047q-.995,1.01-2,2.008a1.423,1.423,0,0,1-2.345-.013Q1842.568,154.38,1840.927,152.756Zm14.858-.5a.916.916,0,0,1,.194-1.265c.79-.769,1.56-1.559,2.339-2.341a1.445,1.445,0,0,1,2.426-.017q2.524,2.528,5.046,5.057c.1.1.163.27.373.255,0-3.824-.008-7.638.01-11.453,0-.442-.077-.579-.558-.578q-12.137.027-24.274.014c-.175,0-.349.012-.524.019-.718-.007-1.438.014-2.154-.029-.431-.026-.511.129-.509.526.016,3.031.008,6.061.01,9.092,0,.147.012.294.024.556.385-.391.7-.686.987-1.011a1.659,1.659,0,0,1,1.634-.614,3.175,3.175,0,0,1,.825.631c1.133,1.146,2.281,2.276,3.4,3.431.257.265.4.319.679.016.641-.694,1.325-1.349,2-2.015a1.408,1.408,0,0,1,2.24-.009c.661.652,1.325,1.3,1.959,1.978.247.264.384.224.6-.017.352-.389.734-.751,1.109-1.12.466-.459.7-.488,1.3-.17a.9.9,0,0,1-.146,1.344c-.367.375-.73.756-1.115,1.112-.222.2-.275.336-.024.579.906.876,1.789,1.775,2.671,2.675a.645.645,0,0,0,.509.2q4.49-.006,8.98,0c.256,0,.379-.051.37-.343-.019-.664-.012-1.33,0-1.994a.864.864,0,0,0-.284-.649q-3.043-3.046-6.078-6.1c-.215-.217-.335-.2-.538.008-.693.717-1.4,1.419-2.111,2.121C1856.653,152.644,1856.362,152.663,1855.785,152.254Z" transform="translate(-1816.52 -120.333)" fill="#030403"/>
  <path id="Trazado_646742" data-name="Trazado 646742" d="M1871.047,159.359c-.6-.318-.834-.289-1.3.17-.374.369-.757.73-1.108,1.12-.218.241-.355.28-.6.017-.634-.677-1.3-1.326-1.959-1.978a1.408,1.408,0,0,0-2.24.009c-.671.666-1.355,1.321-2,2.015-.28.3-.422.249-.679-.016-1.123-1.155-2.271-2.285-3.4-3.431a3.175,3.175,0,0,0-.825-.631q0-4.259.009-8.519c.175-.007.349-.019.524-.019q12.137,0,24.273-.014c.481,0,.56.136.558.578-.018,3.815-.01,7.629-.01,11.453-.21.015-.273-.156-.373-.255q-2.527-2.524-5.046-5.057a1.445,1.445,0,0,0-2.426.017c-.779.781-1.549,1.571-2.339,2.341a.916.916,0,0,0-.194,1.265A3.525,3.525,0,0,1,1871.047,159.359Zm-5.064-6.782a3.2,3.2,0,1,0-3.208,3.2A3.218,3.218,0,0,0,1865.983,152.577Z" transform="translate(-1832.645 -126.505)" fill="#9dcde0"/>
  <path id="Trazado_646743" data-name="Trazado 646743" d="M1918.481,189.133a3.524,3.524,0,0,0,.862-.934c.577.41.868.391,1.37-.108.708-.7,1.418-1.4,2.111-2.121.2-.21.323-.226.538-.008q3.029,3.06,6.078,6.1a.863.863,0,0,1,.284.649c-.008.665-.016,1.33,0,1.994.008.292-.114.344-.37.343q-4.49-.01-8.98,0a.646.646,0,0,1-.509-.2c-.882-.9-1.766-1.8-2.671-2.675-.251-.243-.2-.374.024-.579.385-.356.748-.737,1.115-1.112A.9.9,0,0,0,1918.481,189.133Z" transform="translate(-1880.079 -156.279)" fill="#a7c36e"/>
  <path id="Trazado_646744" data-name="Trazado 646744" d="M1857.04,199.555q1.64,1.626,3.279,3.252a1.423,1.423,0,0,0,2.345.013q1.005-1,2-2.008c.165-.168.286-.272.508-.047,1.635,1.657,3.282,3.3,4.923,4.954.02.02.021.06.031.092-.024.021-.046.062-.069.062q-6.565,0-13.129,0,0-2.887,0-5.773C1856.933,199.914,1856.864,199.707,1857.04,199.555Z" transform="translate(-1832.634 -167.132)" fill="#6c8945"/>
  <path id="Trazado_646745" data-name="Trazado 646745" d="M1847,148.118q0,4.26-.009,8.519a1.658,1.658,0,0,0-1.634.614c-.284.325-.6.62-.987,1.011-.012-.261-.023-.409-.023-.556,0-3.031.006-6.061-.009-9.092,0-.4.078-.552.509-.526C1845.561,148.132,1846.281,148.111,1847,148.118Z" transform="translate(-1822.701 -126.507)" fill="#8db9cc"/>
  <path id="Trazado_646746" data-name="Trazado 646746" d="M1847.156,197.873c-.176.152-.107.359-.108.542q-.008,2.886,0,5.773c-.753.005-1.507,0-2.259.02-.3.008-.39-.111-.388-.4.011-1.3.009-2.592,0-3.888a.921.921,0,0,1,.31-.694c.475-.467.942-.941,1.412-1.412C1846.65,197.285,1846.65,197.285,1847.156,197.873Z" transform="translate(-1822.75 -165.45)" fill="#617b3e"/>
  <path id="Trazado_646747" data-name="Trazado 646747" d="M1875.911,157.41a3.2,3.2,0,1,1-3.212-3.2A3.209,3.209,0,0,1,1875.911,157.41Zm-1.657.014a1.539,1.539,0,1,0-1.534,1.53A1.528,1.528,0,0,0,1874.254,157.424Z" transform="translate(-1842.573 -131.338)" fill="#030403"/>
  <path id="Trazado_646748" data-name="Trazado 646748" d="M1880.49,163.651a1.538,1.538,0,0,1-3.077,0,1.539,1.539,0,1,1,3.077,0Z" transform="translate(-1848.809 -137.565)" fill="#f09e5a"/>
</svg>
