<svg xmlns="http://www.w3.org/2000/svg" width="111.679" height="111.679" viewBox="0 0 111.679 111.679">
  <g id="Grupo_985930" data-name="Grupo 985930" transform="translate(-1053.661 -1365.16)">
    <g id="Grupo_985927" data-name="Grupo 985927" transform="translate(618.661 -2975.84)">
      <circle id="Elipse_7706" data-name="Elipse 7706" cx="55.839" cy="55.839" r="55.839" transform="translate(435 4341)" fill="#006475"/>
    </g>
    <g id="Grupo_985922" data-name="Grupo 985922" transform="translate(1061.617 1371.264)">
      <path id="Trazado_642992" data-name="Trazado 642992" d="M-366.5,734.324c0-5.6.016-11.2-.019-16.8,0-.745.2-.928.916-.9.8.034,1.8.35,2.351-.135.525-.456.265-1.473.345-2.24.569-5.468,1.1-10.941,1.651-16.412q.933-9.316,1.871-18.632c.333-3.315.687-6.627.981-9.946.054-.614.264-.722.819-.713,2.038.032,4.079-.023,6.117.031.787.021,1.046-.17,1.041-1a29.565,29.565,0,0,1,.213-6.1,11.254,11.254,0,0,1,12.009-8.933,11.239,11.239,0,0,1,10.179,10.969c.023,1.359.06,2.721-.011,4.077-.044.839.256,1.01,1.033.989,2.005-.054,4.014.017,6.019-.037.728-.019.884.208.948.906.441,4.766.952,9.525,1.412,14.29.06.618.215.872.9.848,1.649-.058,3.3-.034,4.951-.009.473.007.649-.1.7-.619.552-5.731,1.144-11.457,1.706-17.187.141-1.435.108-1.438,1.528-1.438,1.748,0,3.5-.06,5.242.024.98.047,1.279-.187,1.266-1.225a11.005,11.005,0,0,1,4.7-9.51,11.213,11.213,0,0,1,17.6,7.4,9.272,9.272,0,0,1,.141,2.221c-.079.836.128,1.16,1.063,1.12,2-.085,4.013,0,6.019-.04.6-.011.834.129.9.772,1.164,11.942,2.318,23.886,3.552,35.821.769,7.436,1.58,14.862,1.322,22.358a5.237,5.237,0,0,1-.943,3.187c-.286.369-.176.585.043.915a4.547,4.547,0,0,1,0,5.436.74.74,0,0,0,0,1,4.676,4.676,0,0,1-2.093,7.1c-.44.2-.514.348-.4.841a4.744,4.744,0,0,1-5.5,5.881c-.578-.09-.746-.039-.827.579a3.063,3.063,0,0,1-3.132,2.73q-14.419.023-28.837,0a3.1,3.1,0,0,1-3.162-2.6c-.1-.506-.283-.617-.745-.614q-4.175.023-8.35,0c-.435,0-.579.128-.677.579a3.158,3.158,0,0,1-3.425,2.642q-20.293.005-40.586.018c-.684,0-.846-.167-.842-.845C-366.483,745.522-366.5,739.923-366.5,734.324Zm39.317-49.753c1.488,0,2.979-.047,4.464.019.783.035.97-.2.887-.958q-.617-5.64-1.142-11.29c-.051-.55-.285-.61-.732-.6-1.164.021-2.332.053-3.493-.01-.716-.039-.841.226-.837.877.016,2.5-.007,2.5-2.508,2.37a.575.575,0,0,0-.1,0c-.418.046-.577-.14-.564-.558.021-.679-.012-1.359.011-2.038.014-.423-.067-.646-.572-.644q-7.473.023-14.948,0c-.42,0-.572.126-.554.552.029.711,0,1.423.01,2.135,0,.327-.049.508-.457.563-2.536.336-2.729.189-2.739-2.273a1.862,1.862,0,0,1,0-.291c.089-.573-.184-.706-.714-.69-1.131.035-2.266.049-3.4,0-.632-.03-.878.108-.945.8-.593,6.179-1.233,12.354-1.854,18.53-.824,8.2-1.628,16.409-2.487,24.608-.09.861.134,1,.931,1,6.73-.031,13.46-.045,20.189.01,1.044.009,1.4-.256,1.55-1.3,1.459-10.041,2.982-20.072,4.46-30.11.09-.611.34-.715.876-.705C-330.285,684.59-328.732,684.571-327.179,684.571Zm38.469,16.07c2.88,0,5.761-.013,8.641,0a3.138,3.138,0,0,1,3.377,3.311c.031,1.261.007,2.524.007,3.786q0,5.777,0,11.553c0,.424-.18.865.662.715a16.233,16.233,0,0,1,4.834-.039c.865.107.927-.079.933-.811.053-6.524-.982-12.96-1.56-19.432-.55-6.152-1.224-12.293-1.838-18.439q-.6-6.034-1.182-12.07c-.046-.488-.209-.683-.71-.66-.71.033-1.423.009-2.135.009-2.2,0-2.167,0-2.218,2.186a1.678,1.678,0,0,0,.956,1.813,4.624,4.624,0,0,1,2.118,5.191,4.877,4.877,0,0,1-4.52,3.628,4.867,4.867,0,0,1-4.663-3.165,4.451,4.451,0,0,1,1.653-5.407,2.346,2.346,0,0,0,1.25-2.652,2.7,2.7,0,0,1,0-.678c.141-.808-.251-.935-.968-.93-4.369.03-8.738.015-13.107.015-1.943,0-1.9,0-1.962,1.961a2,2,0,0,0,1.089,2.137,4.538,4.538,0,0,1,1.946,5.158,4.816,4.816,0,0,1-4.463,3.56,4.878,4.878,0,0,1-4.681-3.14c-.708-1.9-.247-4.294,1.484-5.283,1.443-.825,1.508-1.856,1.408-3.161a2.853,2.853,0,0,1,0-.582c.065-.5-.124-.677-.644-.662-1.2.036-2.4.051-3.591-.005-.627-.03-.762.249-.813.776-.463,4.8-.92,9.594-1.434,14.385-.086.8.188.886.865.873,2.071-.039,4.143,0,6.214-.026.58-.009.834.109.926.759.686,4.832,1.431,9.655,2.13,14.485.089.618.282.864.96.855C-294.73,700.618-291.72,700.641-288.71,700.642Zm-60.211,19.249c-4.464,0-8.929.015-13.394-.015-.721,0-.985.131-.983.934q.047,13.491,0,26.981c0,.787.242.953.983.951q13.491-.036,26.982,0c.716,0,.919-.163.917-.9q-.041-13.539,0-27.078c0-.753-.221-.892-.92-.887C-339.862,719.907-344.392,719.891-348.921,719.891Zm32.221-32.077c-4.044,0-8.089.03-12.132-.023-.864-.011-1.073.293-1.173,1.074-.3,2.371-.692,4.731-1.048,7.095q-1.493,9.92-3,19.839c-.107.7.1.873.79.863,2.684-.037,5.37-.008,8.055-.018a3.279,3.279,0,0,1,2.774,1.119c.381.482.615.447,1.072.115a21.927,21.927,0,0,1,8.6-3.833c.6-.12.833-.352.824-1.011-.042-2.911-.021-5.823-.017-8.734,0-2.442,1.195-3.648,3.611-3.656,1.941-.007,3.882-.017,5.823.009.552.007.724-.115.631-.711q-.885-5.649-1.691-11.311c-.093-.66-.355-.833-.994-.829C-308.612,687.827-312.656,687.815-316.7,687.814Zm23.994,34.441a7.29,7.29,0,0,1-2.426.748c-.719,0-.823.33-.821.953q.026,11.942,0,23.884c0,.639.124.907.842.9q7.233-.045,14.466,0c.572,0,.779-.125.778-.746q-.026-21.7,0-43.4c0-.559-.1-.793-.734-.79q-7.282.04-14.563,0c-.688,0-.792.265-.785.856.027,2.136.011,4.272.011,6.408,0,2.48,0,2.455,2.509,2.421.631-.008.748-.226.737-.79-.032-1.65,0-3.3-.018-4.951-.005-.454.05-.7.613-.7q4.175.04,8.349,0c.519,0,.652.176.651.67q-.02,8.932,0,17.864c0,.536-.138.73-.7.724q-4.126-.039-8.252,0c-.509,0-.676-.145-.66-.656C-292.683,724.554-292.706,723.454-292.706,722.255Zm-8.31-5.6c-2.2,0-4.4-.018-6.6,0a20.189,20.189,0,0,0-13.405,5.015,1.476,1.476,0,0,0-.6,1.228q.032,10.915,0,21.83c0,.718.241.835.882.826,2.652-.033,5.3-.039,7.956,0,.689.011.854-.186.849-.861-.031-4.56-.014-9.12-.018-13.68,0-.645.2-1.487-.121-1.876-.309-.37-1.109.17-1.7.255-1.413.2-1.412.209-1.412-1.173a9.842,9.842,0,0,0-.009-1.163c-.07-.577.137-.748.722-.821a6.1,6.1,0,0,0,4.819-3.331,5.441,5.441,0,0,1,5.224-3.026c2.781.032,5.563.022,8.344,0a3.24,3.24,0,0,0,3.255-2.395c.182-.62.12-.863-.615-.852C-295.97,716.675-298.493,716.651-301.016,716.651Zm-30.176,17.573c0,4.531.016,9.062-.016,13.593-.005.714.168.952.909.925,1.584-.058,3.172-.039,4.757-.007.589.012.776-.171.775-.77q-.024-13.69,0-27.38c0-.559-.178-.716-.72-.706-1.618.03-3.237.044-4.854-.005-.675-.02-.871.164-.866.854C-331.176,725.227-331.192,729.726-331.192,734.224Zm-8.106-65.656c2.459,0,4.917-.012,7.376.009.518,0,.757-.1.741-.689-.041-1.423.032-2.848-.03-4.269a7.975,7.975,0,0,0-7.664-7.868,7.92,7.92,0,0,0-8.3,7.065c-.2,1.593-.032,3.231-.1,4.846-.031.708.136.944.891.926C-344.022,668.534-341.659,668.568-339.3,668.568Zm48.149-3.231h6.3c1.812,0,1.812,0,1.723-1.857A7.981,7.981,0,0,0-293.188,656a8.22,8.22,0,0,0-5.949,8.865c.057.6.394.465.717.466Q-294.784,665.342-291.148,665.337Zm-7.969,70.691V725.351c0-2.31,0-2.269-2.313-2.316-.813-.017-.945.267-.943.992.024,7.441.014,14.882.014,22.324,0,2.434,0,2.4,2.419,2.407.71,0,.841-.242.836-.889C-299.132,743.922-299.118,739.975-299.118,736.028Zm-6.414.042q0-6.016-.006-12.033c0-.208.131-.5-.118-.617-.284-.139-.483.116-.652.293a3.429,3.429,0,0,0-.518.695,7.93,7.93,0,0,1-1.4,1.968,1.8,1.8,0,0,0-.56,1.456q.025,9.267.01,18.534c0,2.4,0,2.361,2.358,2.384.754.008.907-.236.9-.939C-305.549,743.9-305.532,739.983-305.532,736.069Zm16-19.434v4.077c0,2.378,0,2.34,2.372,2.369.775.01.887-.266.88-.946-.033-3.171-.014-6.342-.014-9.514,0-2.481,0-2.456-2.5-2.414-.629.01-.753.233-.745.8C-289.512,712.882-289.529,714.759-289.529,716.635Zm-19.246-7.963V711c0,2.539,0,2.517,2.5,2.487.6-.007.77-.18.761-.772-.033-2.168-.013-4.337-.013-6.5,0-2.479,0-2.456-2.51-2.412-.624.011-.758.229-.744.795C-308.753,705.953-308.776,707.313-308.776,708.672Zm9.658.066v-2.522c0-2.471,0-2.449-2.5-2.414-.606.008-.766.193-.758.777.031,2.134.012,4.269.012,6.4,0,2.622,0,2.6,2.6,2.506.519-.019.659-.18.649-.675C-299.136,711.455-299.118,710.1-299.118,708.738Zm25.6,17.553c.58,0,1.164.04,1.741-.009a1.56,1.56,0,0,0,1.49-1.5,1.492,1.492,0,0,0-1.4-1.663,25.434,25.434,0,0,0-3.572,0,1.514,1.514,0,0,0-1.412,1.569,1.6,1.6,0,0,0,1.51,1.6C-274.619,726.331-274.068,726.292-273.519,726.291Zm-.008,6.415c.58,0,1.164.04,1.741-.009a1.569,1.569,0,0,0,1.5-1.591,1.489,1.489,0,0,0-1.4-1.572,27.9,27.9,0,0,0-3.573,0,1.516,1.516,0,0,0-1.42,1.563,1.6,1.6,0,0,0,1.5,1.6C-274.627,732.746-274.075,732.705-273.527,732.706Zm.072,6.414c.548,0,1.1.033,1.644-.008a1.567,1.567,0,0,0,1.526-1.567,1.469,1.469,0,0,0-1.372-1.587,26.077,26.077,0,0,0-3.571-.013,1.513,1.513,0,0,0-1.439,1.635,1.592,1.592,0,0,0,1.567,1.534C-274.554,739.15-274,739.121-273.455,739.119Zm-1.634,3.213a1.6,1.6,0,0,0-1.581,1.613,1.613,1.613,0,0,0,1.612,1.586,1.637,1.637,0,0,0,1.587-1.616A1.618,1.618,0,0,0-275.089,742.333Zm-25.643-67.343a1.6,1.6,0,0,0-1.612,1.577,1.62,1.62,0,0,0,1.606,1.592,1.619,1.619,0,0,0,1.612-1.586A1.592,1.592,0,0,0-300.732,674.99Zm20.845,1.622a1.576,1.576,0,0,0-1.56-1.619,1.581,1.581,0,0,0-1.644,1.536,1.6,1.6,0,0,0,1.561,1.63A1.606,1.606,0,0,0-279.887,676.612Z" transform="translate(366.515 -652.495)" fill="#030302"/>
      <path id="Trazado_642993" data-name="Trazado 642993" d="M-316.708,714.836c-1.553,0-3.106.018-4.659-.01-.535-.01-.786.094-.876.705-1.478,10.038-3,20.069-4.46,30.11-.152,1.045-.506,1.31-1.55,1.3-6.729-.056-13.459-.042-20.189-.01-.8,0-1.021-.134-.931-1,.858-8.2,1.662-16.4,2.487-24.608.62-6.176,1.261-12.351,1.854-18.53.067-.694.312-.831.945-.8,1.13.053,2.265.039,3.4,0,.53-.016.8.116.714.69a1.866,1.866,0,0,0,0,.291c.01,2.461.2,2.609,2.739,2.273.408-.054.462-.235.457-.563-.009-.712.019-1.424-.01-2.135-.017-.427.134-.553.554-.552q7.474.017,14.948,0c.505,0,.586.221.572.644-.023.679.01,1.359-.011,2.038-.013.417.146.6.564.558a.576.576,0,0,1,.1,0c2.5.127,2.525.127,2.508-2.37,0-.651.121-.916.837-.877,1.161.063,2.329.031,3.493.01.447-.008.68.052.732.6q.526,5.649,1.142,11.29c.083.759-.1.992-.887.958C-313.73,714.79-315.22,714.836-316.708,714.836Z" transform="translate(356.045 -682.76)" fill="#ccd0d7"/>
      <path id="Trazado_642994" data-name="Trazado 642994" d="M-197.962,725.907c-3.01,0-6.02-.023-9.029.017-.678.009-.871-.237-.96-.855-.7-4.83-1.445-9.653-2.13-14.485-.092-.65-.346-.768-.926-.759-2.071.03-4.143-.013-6.214.026-.677.013-.952-.069-.865-.873.514-4.791.971-9.588,1.434-14.385.051-.526.186-.805.813-.776,1.195.056,2.395.041,3.591.005.519-.015.709.158.644.662a2.852,2.852,0,0,0,0,.582c.1,1.3.036,2.335-1.408,3.16-1.731.99-2.192,3.385-1.484,5.283a4.878,4.878,0,0,0,4.681,3.14,4.816,4.816,0,0,0,4.463-3.56,4.538,4.538,0,0,0-1.946-5.158,2,2,0,0,1-1.089-2.137c.063-1.96.019-1.961,1.962-1.961,4.369,0,8.738.015,13.107-.015.717-.005,1.109.122.968.93a2.7,2.7,0,0,0,0,.678,2.346,2.346,0,0,1-1.25,2.652,4.451,4.451,0,0,0-1.653,5.407,4.867,4.867,0,0,0,4.663,3.165,4.877,4.877,0,0,0,4.52-3.628,4.624,4.624,0,0,0-2.118-5.191,1.678,1.678,0,0,1-.956-1.813c.051-2.185.018-2.186,2.218-2.186.712,0,1.425.025,2.135-.009.5-.024.664.171.71.66q.569,6.037,1.182,12.07c.614,6.146,1.288,12.287,1.838,18.439.579,6.472,1.613,12.908,1.56,19.432-.006.732-.068.918-.933.811a16.237,16.237,0,0,0-4.834.039c-.842.151-.662-.291-.662-.714q-.006-5.776,0-11.553c0-1.262.024-2.525-.007-3.786a3.138,3.138,0,0,0-3.377-3.311C-192.2,725.894-195.082,725.907-197.962,725.907Z" transform="translate(275.768 -677.761)" fill="#f9e8ad"/>
      <path id="Trazado_642995" data-name="Trazado 642995" d="M-343.858,825.926c4.529,0,9.059.016,13.588-.016.7-.005.923.134.92.887q-.044,13.539,0,27.078c0,.739-.2.9-.917.9q-13.491-.037-26.982,0c-.74,0-.985-.164-.983-.951q.043-13.49,0-26.981c0-.8.262-.938.983-.934C-352.787,825.941-348.322,825.926-343.858,825.926Z" transform="translate(361.452 -758.53)" fill="#bbda89"/>
      <path id="Trazado_642996" data-name="Trazado 642996" d="M-265.651,743.359c4.044,0,8.088.013,12.132-.014.639,0,.9.169.994.829q.8,5.662,1.691,11.311c.093.6-.078.718-.631.711-1.941-.026-3.882-.015-5.823-.008-2.416.008-3.607,1.214-3.611,3.656,0,2.911-.025,5.824.017,8.734.01.66-.223.891-.824,1.011a21.928,21.928,0,0,0-8.6,3.833c-.457.331-.691.366-1.072-.115a3.279,3.279,0,0,0-2.774-1.119c-2.685.01-5.371-.019-8.055.018-.688.009-.9-.162-.79-.863q1.519-9.916,3-19.839c.356-2.364.746-4.724,1.048-7.095.1-.781.309-1.086,1.173-1.074C-273.74,743.388-269.7,743.359-265.651,743.359Zm6.338,5.55c0-2.378,0-2.378-2.085-2.375a2.628,2.628,0,0,1-.387,0c-.619-.094-.77.209-.755.775a25.425,25.425,0,0,1-.037,2.808,3.105,3.105,0,0,1-2.749,2.811,3.2,3.2,0,0,1-3.423-2.122,5.55,5.55,0,0,1-.171-1.823c0-2.559,0-2.544-2.561-2.459-.5.016-.686.139-.666.656.037.935-.006,1.874.019,2.81a6.385,6.385,0,0,0,4.441,5.866,6.4,6.4,0,0,0,7.028-2.172A6.76,6.76,0,0,0-259.313,748.909Z" transform="translate(315.466 -708.04)" fill="#c69e7b"/>
      <path id="Trazado_642997" data-name="Trazado 642997" d="M-181.663,803c0,1.2.023,2.3-.01,3.4-.016.511.151.66.66.656q4.126-.034,8.252,0c.566.005.706-.188.7-.724q-.023-8.932,0-17.864c0-.494-.131-.674-.651-.67q-4.174.033-8.349,0c-.563-.005-.618.243-.613.7.018,1.65-.014,3.3.018,4.951.011.564-.107.781-.737.79-2.509.034-2.509.059-2.509-2.421,0-2.136.016-4.272-.011-6.408-.007-.591.1-.86.785-.856q7.282.044,14.563,0c.636,0,.734.231.734.789q-.02,21.7,0,43.4c0,.621-.206.749-.778.746q-7.233-.029-14.466,0c-.718,0-.844-.264-.842-.9q.027-11.941,0-23.884c0-.623.1-.955.821-.953A7.293,7.293,0,0,0-181.663,803Zm6.415,18.431v-2.423c0-2.431,0-2.409-2.425-2.387-.628.005-.839.178-.828.821.036,2.131.014,4.264.014,6.4,0,2.528,0,2.51,2.54,2.46.538-.01.728-.139.712-.7C-175.273,824.209-175.248,822.819-175.248,821.43Zm0-9.53c0-1.682,0-1.682-1.654-1.682-1.585,0-1.585,0-1.585,1.571,0,1.669,0,1.669,1.668,1.669C-175.248,813.458-175.248,813.458-175.248,811.9Z" transform="translate(255.472 -733.239)" fill="#a8afb9"/>
      <path id="Trazado_642998" data-name="Trazado 642998" d="M-230.364,817.589c2.523,0,5.046.024,7.568-.015.735-.011.8.232.615.852a3.24,3.24,0,0,1-3.255,2.395c-2.781.022-5.563.032-8.344,0A5.441,5.441,0,0,0-239,823.845a6.1,6.1,0,0,1-4.819,3.331c-.585.073-.791.244-.722.821a9.835,9.835,0,0,1,.009,1.163c0,1.382,0,1.372,1.412,1.173.595-.084,1.4-.624,1.7-.254.324.389.12,1.231.121,1.876,0,4.56-.012,9.12.018,13.68,0,.674-.161.871-.849.861-2.651-.042-5.3-.036-7.956,0-.64.008-.884-.108-.882-.826q.043-10.915,0-21.83a1.476,1.476,0,0,1,.6-1.228,20.189,20.189,0,0,1,13.405-5.015C-234.762,817.571-232.563,817.589-230.364,817.589Z" transform="translate(295.863 -753.433)" fill="#e7ceb4"/>
      <path id="Trazado_642999" data-name="Trazado 642999" d="M-275.628,840.257c0-4.5.015-9-.016-13.5-.005-.689.192-.874.866-.854,1.617.049,3.237.035,4.854.005.542-.01.722.147.72.706q-.023,13.69,0,27.38c0,.6-.186.782-.775.77-1.585-.033-3.173-.051-4.757.007-.741.027-.914-.211-.909-.925C-275.613,849.319-275.628,844.788-275.628,840.257Z" transform="translate(310.952 -758.528)" fill="#a9ce74"/>
      <path id="Trazado_643000" data-name="Trazado 643000" d="M-198.179,847.035c0,3.947-.014,7.894.014,11.841,0,.648-.126.891-.836.889-2.419,0-2.419.027-2.419-2.407,0-7.441.009-14.882-.014-22.324,0-.725.129-1.009.943-.992,2.313.047,2.313.006,2.313,2.316Z" transform="translate(265.576 -763.502)" fill="#edd07b"/>
      <path id="Trazado_643001" data-name="Trazado 643001" d="M-214.684,847.621c0,3.914-.017,7.828.016,11.741.006.7-.147.947-.9.939-2.358-.023-2.358.011-2.358-2.384q0-9.267-.01-18.534a1.8,1.8,0,0,1,.56-1.456,7.933,7.933,0,0,0,1.4-1.968,3.428,3.428,0,0,1,.518-.695c.169-.177.368-.432.652-.293.249.122.118.409.118.617Q-214.678,841.6-214.684,847.621Z" transform="translate(275.667 -764.047)" fill="#a5acb6"/>
      <path id="Trazado_643002" data-name="Trazado 643002" d="M-168.394,807.443c0-1.877.018-3.754-.01-5.63-.008-.563.116-.786.745-.8,2.5-.042,2.5-.066,2.5,2.414,0,3.171-.018,6.343.014,9.514.007.68-.105.955-.88.946-2.372-.03-2.372.008-2.372-2.369Z" transform="translate(245.38 -743.303)" fill="#e68370"/>
      <path id="Trazado_643003" data-name="Trazado 643003" d="M-217.93,789.394c0-1.359.023-2.719-.011-4.077-.014-.565.12-.784.744-.795,2.511-.044,2.51-.067,2.51,2.412,0,2.168-.02,4.337.013,6.5.009.593-.157.765-.761.772-2.5.03-2.5.052-2.5-2.487Z" transform="translate(275.669 -733.217)" fill="#a5acb6"/>
      <path id="Trazado_643004" data-name="Trazado 643004" d="M-198.176,789.466c0,1.358-.018,2.717.009,4.074.01.495-.13.656-.649.675-2.6.1-2.6.115-2.6-2.506,0-2.134.019-4.269-.012-6.4-.008-.584.152-.769.758-.777,2.5-.035,2.5-.057,2.5,2.414Z" transform="translate(265.573 -733.223)" fill="#edd07b"/>
      <path id="Trazado_643005" data-name="Trazado 643005" d="M-132.135,837.328c-.548,0-1.1.04-1.644-.009a1.6,1.6,0,0,1-1.51-1.6,1.514,1.514,0,0,1,1.412-1.569,25.452,25.452,0,0,1,3.572,0,1.492,1.492,0,0,1,1.4,1.663,1.56,1.56,0,0,1-1.49,1.5C-130.97,837.368-131.554,837.328-132.135,837.328Z" transform="translate(225.13 -763.532)" fill="#e3cab1"/>
      <path id="Trazado_643006" data-name="Trazado 643006" d="M-132.143,853.849c-.548,0-1.1.04-1.644-.01a1.6,1.6,0,0,1-1.5-1.6,1.516,1.516,0,0,1,1.42-1.563,27.9,27.9,0,0,1,3.573,0,1.489,1.489,0,0,1,1.4,1.572,1.569,1.569,0,0,1-1.5,1.591C-130.979,853.889-131.563,853.849-132.143,853.849Z" transform="translate(225.131 -773.638)" fill="#e3cab1"/>
      <path id="Trazado_643007" data-name="Trazado 643007" d="M-132.063,870.358c-.548,0-1.1.03-1.644-.006a1.592,1.592,0,0,1-1.567-1.534,1.513,1.513,0,0,1,1.439-1.635,26.087,26.087,0,0,1,3.571.013,1.469,1.469,0,0,1,1.372,1.587,1.567,1.567,0,0,1-1.526,1.567C-130.965,870.391-131.515,870.358-132.063,870.358Z" transform="translate(225.123 -783.733)" fill="#e3cab1"/>
      <path id="Trazado_643008" data-name="Trazado 643008" d="M-133.7,883.71a1.618,1.618,0,0,1,1.617,1.584,1.637,1.637,0,0,1-1.587,1.616,1.613,1.613,0,0,1-1.612-1.586A1.6,1.6,0,0,1-133.7,883.71Z" transform="translate(225.127 -793.872)" fill="#e3cab1"/>
      <path id="Trazado_643009" data-name="Trazado 643009" d="M-199.748,710.389a1.592,1.592,0,0,1,1.605,1.583,1.618,1.618,0,0,1-1.612,1.586,1.62,1.62,0,0,1-1.606-1.592A1.6,1.6,0,0,1-199.748,710.389Z" transform="translate(265.53 -687.894)" fill="#edd07b"/>
      <path id="Trazado_643010" data-name="Trazado 643010" d="M-148.6,712.015a1.606,1.606,0,0,1-1.643,1.547,1.6,1.6,0,0,1-1.561-1.63,1.581,1.581,0,0,1,1.644-1.536A1.577,1.577,0,0,1-148.6,712.015Z" transform="translate(235.232 -687.898)" fill="#edd07b"/>
      <path id="Trazado_643011" data-name="Trazado 643011" d="M-242.2,753.883a6.76,6.76,0,0,1-1.347,4.771,6.4,6.4,0,0,1-7.028,2.172,6.385,6.385,0,0,1-4.441-5.866c-.024-.936.018-1.875-.019-2.81-.02-.517.168-.64.666-.656,2.559-.085,2.558-.1,2.561,2.459a5.551,5.551,0,0,0,.171,1.823,3.2,3.2,0,0,0,3.423,2.122,3.105,3.105,0,0,0,2.749-2.811,25.435,25.435,0,0,0,.037-2.808c-.016-.566.136-.869.755-.775a2.627,2.627,0,0,0,.387,0C-242.2,751.5-242.2,751.5-242.2,753.883Z" transform="translate(298.349 -713.013)" fill="#030302"/>
      <path id="Trazado_643012" data-name="Trazado 643012" d="M-165.162,871.9c0,1.389-.026,2.779.012,4.166.016.562-.174.69-.712.7-2.54.051-2.54.068-2.54-2.46,0-2.132.022-4.264-.014-6.4-.011-.643.2-.816.828-.821,2.426-.023,2.425-.044,2.425,2.387Z" transform="translate(245.386 -783.707)" fill="#060607"/>
      <path id="Trazado_643013" data-name="Trazado 643013" d="M-165.14,852.3c0,1.558,0,1.558-1.571,1.558-1.668,0-1.668,0-1.668-1.669,0-1.571,0-1.571,1.585-1.571C-165.14,850.618-165.14,850.618-165.14,852.3Z" transform="translate(245.364 -773.638)" fill="#060607"/>
    </g>
  </g>
</svg>
