<svg xmlns="http://www.w3.org/2000/svg" width="111.679" height="111.679" viewBox="0 0 111.679 111.679">
  <g id="Grupo_985933" data-name="Grupo 985933" transform="translate(3879.029 10337.84)">
    <g id="Grupo_985928" data-name="Grupo 985928" transform="translate(-4314.029 -14678.84)">
      <circle id="Elipse_7706" data-name="Elipse 7706" cx="55.839" cy="55.839" r="55.839" transform="translate(435 4341)" fill="#006475"/>
    </g>
    <g id="Grupo_985921" data-name="Grupo 985921" transform="translate(-3854.251 -10334.323)">
      <path id="Trazado_642969" data-name="Trazado 642969" d="M-439.061,1004.062c-.45-1.635-.354-1.887,1.084-2.851,11.651-7.808,28.4-5.754,37.343,4.657a23.933,23.933,0,0,1,5.751,17.566,62.007,62.007,0,0,1-1.014,8.093.815.815,0,0,0,.369.924c4.133,3.3,3.433,9.022-1.375,11.175a.946.946,0,0,0-.643.892,6.792,6.792,0,0,1-3.823,5.434,1.585,1.585,0,0,0-.989,1.758c.359,4.657-3.433,8.862-8.363,9.355a4.615,4.615,0,0,1-1.22.072c-1.082-.191-1.089.367-1.181,1.238a3.448,3.448,0,0,0,2.054,3.617,64.945,64.945,0,0,0,8.38,3.673,36.2,36.2,0,0,1,5.155,2.419,8.817,8.817,0,0,1,3.508,4.381,1.6,1.6,0,0,1-.791,2.08,1.725,1.725,0,0,1-2.175-1.172,13.777,13.777,0,0,0-.791-1.417c-.24-.4-.52-.561-.992-.258-1.023.658-2.076,1.268-3.117,1.9-.152.072-.311.134-.456.219q-16.729,9.877-33.452,19.764c-.164.1-.481.107-.413.467,1.37,0,2.73-.007,4.091,0,1.25.008,1.669.371,1.916,1.625a1.668,1.668,0,0,1-1.892,1.447c-5.686-.016-11.371,0-17.057-.014a3.607,3.607,0,0,1-3.812-3.463,68.9,68.9,0,0,1,2.489-19.462,10.666,10.666,0,0,1,6.6-7.37c2.976-1.142,5.908-2.4,8.843-3.643a12.168,12.168,0,0,0,3.488-2.077,4.833,4.833,0,0,0,.772-3.72c-.186-.413-.524-.2-.8-.2a9.986,9.986,0,0,1-8.382-4.074,7.64,7.64,0,0,1-1.518-5.472,1.425,1.425,0,0,0-.9-1.61,6.863,6.863,0,0,1-3.934-5.58.864.864,0,0,0-.619-.8,6.378,6.378,0,0,1-1.393-11.173.812.812,0,0,0,.382-.922,66.557,66.557,0,0,1-1.01-7.889,24.81,24.81,0,0,1,3.752-15.173c.785-1.271,1.619-2.179,3.25-1.533.577,1.195.111,2.141-.584,3.148a19.606,19.606,0,0,0-2.715,6.123c-1.123,4.182-.682,8.362-.029,12.539.408,2.606.444,2.6,3,2.476a.715.715,0,0,1,.1,0c.484.048.658-.172.65-.652-.02-1.191-.024-2.383,0-3.575a11.247,11.247,0,0,1,2.477-6.98c2.152-2.689,5.117-4.209,8.115-5.693,2.79-1.381,5.808-2.367,8.008-4.768a1.317,1.317,0,0,1,2.02.025c1.723,1.914,4.024,2.865,6.257,3.938a43.8,43.8,0,0,1,6.976,3.8,12.228,12.228,0,0,1,5.066,7.286,24.785,24.785,0,0,1,.3,4.776v.418l0,.395c.045.385-.286,1.055.443.991.992-.087,2.078.476,2.972-.365.039-.037.026-.13.036-.2a52.922,52.922,0,0,0,.875-9.912,20.649,20.649,0,0,0-4.178-11.823,20.754,20.754,0,0,0-9.153-7.071,22.835,22.835,0,0,0-8.22-2.116,25.429,25.429,0,0,0-16.677,4.027C-437.157,1004.368-438.015,1004.729-439.061,1004.062Zm29.966,69.222c-2.58,1.505-5.165,3-7.737,4.518q-11.19,6.6-22.369,13.218c-.331.2-.778.286-.773.831.014,1.482,0,2.965,0,4.589.4-.222.666-.359.922-.51q10.659-6.3,21.316-12.6,6.7-3.97,13.388-7.97l3.146-1.777c-1.689-.676-3.2-1.282-4.705-1.884a.8.8,0,0,0-.772.094C-407.475,1072.3-408.287,1072.79-409.095,1073.284Zm-3.834-1.4,3.075-1.756a39.923,39.923,0,0,1-3.509-1.984,5.681,5.681,0,0,1-2.81-5.3c.11-1.786.022-3.583.022-5.457a19.833,19.833,0,0,1-10.986.125c-.563-.157-.551.125-.545.5.016.952.027,1.9.04,2.855-.013.713-.08,1.43-.031,2.138a5.355,5.355,0,0,1-2.492,4.943,19.851,19.851,0,0,1-3.447,1.96c-.3.135-.58.222-.527.715a7.278,7.278,0,0,0,5.778,6.462,35.014,35.014,0,0,0,6.309.14.991.991,0,0,0,.464-.183Q-417.257,1074.462-412.929,1071.88Zm7.542-38.16c0-2.481.019-4.455,0-6.428a8.512,8.512,0,0,0-2.3-5.94,17.248,17.248,0,0,0-4.637-3.282c-3.08-1.642-6.448-2.747-9.248-4.913-.327-.253-.544-.106-.8.1a27.071,27.071,0,0,1-5.046,2.851,44.379,44.379,0,0,0-6.918,3.672c-2.157,1.552-3.809,3.509-3.963,6.244a96.724,96.724,0,0,0,.048,14.678,16.38,16.38,0,0,0,15.294,14.434,16.562,16.562,0,0,0,17.19-12.965C-405.153,1039.2-405.492,1036.2-405.388,1033.72Zm-37.64,57.133c0-1.015-.01-1.756,0-2.5a1.452,1.452,0,0,1,.978-1.415,1.282,1.282,0,0,1,1.643.426c.4.6.7.386,1.135.126,3.74-2.219,7.491-4.422,11.233-6.639.217-.129.516-.188.623-.575a6.643,6.643,0,0,1-2.2-.336,10.139,10.139,0,0,1-7.268-7.563c-.079-.3.172-1.165-.727-.8-2.172.875-4.377,1.668-6.464,2.749a5.976,5.976,0,0,0-2.773,3.007,34.47,34.47,0,0,0-2.179,8.356.717.717,0,0,0,.314.78C-446.881,1087.873-445.057,1089.286-443.028,1090.853Zm-6.449-1.1c-.284,2.569-.419,4.974-.455,7.386-.01.657.313.914.939.909,1.191-.011,2.381,0,3.572,0,2.4,0,2.4,0,2.385-2.453,0-.439.04-.858-.394-1.187C-445.4,1092.91-447.357,1091.388-449.477,1089.753Zm7.564-45.629c-.4.043-1.026-.248-1.219.106-.266.489.135,1.036.41,1.5a5.313,5.313,0,0,0,2.163,1.8,3.824,3.824,0,0,1,2.141,4.043c-.488,3.861,3.234,6.787,7.108,6.487.218-.017.459.022.563-.3a1.832,1.832,0,0,0-.853-2.1,19.324,19.324,0,0,1-8.748-10.477C-440.633,1044.371-440.927,1043.823-441.913,1044.124ZM-402,1044.1c-.892-.316-1.205.289-1.519,1.172a18.856,18.856,0,0,1-8.8,10.413c-1.011.566-.851,1.342-.711,2.055.115.584.842.309,1.312.329a4.8,4.8,0,0,0,.811-.066c3.285-.423,5.762-3.1,5.489-6.111a4.219,4.219,0,0,1,2.486-4.559,4.351,4.351,0,0,0,1.917-1.767C-400.329,1044.323-400.452,1044.1-402,1044.1Zm1.5-3.066c.441,0,.884.018,1.324,0a3.337,3.337,0,0,0,3.25-3.369,3.321,3.321,0,0,0-3.261-3.355c-.814-.034-1.633.031-2.444-.025-.628-.042-.714.237-.7.77.027,1.392.018,2.785-.006,4.177C-402.367,1041.035-402.378,1041.035-400.5,1041.032Zm-41.064-3.637c-.045-1.008.495-2.369-.143-2.929-.671-.589-2.009-.2-3.052-.15a3.292,3.292,0,0,0-3.154,3.244,3.3,3.3,0,0,0,3.046,3.449c.979.075,1.969.005,2.954.031.46.012.56-.151.519-.6C-441.482,1039.431-441.507,1038.412-441.56,1037.4Z" transform="translate(452.966 -996.477)" fill="#030302"/>
      <path id="Trazado_642970" data-name="Trazado 642970" d="M-428.877,1008.562c1.046.666,1.9.305,2.869-.324a25.429,25.429,0,0,1,16.677-4.027,22.834,22.834,0,0,1,8.22,2.116c.014.228.17.34.335.474a30.561,30.561,0,0,1,2.572,2.138,23.9,23.9,0,0,1,5.436,8.375,26.584,26.584,0,0,1,1.641,9.335,29.293,29.293,0,0,1-.444,5.24c-.112.649.279,1.523-.537,2a24.787,24.787,0,0,0-.3-4.776,12.228,12.228,0,0,0-5.066-7.285,43.792,43.792,0,0,0-6.976-3.8c-2.233-1.073-4.535-2.025-6.257-3.938a1.317,1.317,0,0,0-2.02-.025c-2.2,2.4-5.218,3.387-8.008,4.768-3,1.483-5.964,3-8.115,5.693a11.248,11.248,0,0,0-2.477,6.981c-.026,1.191-.022,2.383,0,3.574.008.481-.166.7-.65.652a.7.7,0,0,0-.1,0c-2.556.124-2.593.13-3-2.476-.653-4.177-1.094-8.357.029-12.539a19.609,19.609,0,0,1,2.715-6.123c.694-1.007,1.16-1.953.584-3.148A8.658,8.658,0,0,1-428.877,1008.562Z" transform="translate(442.782 -1000.977)" fill="#635d65"/>
      <path id="Trazado_642971" data-name="Trazado 642971" d="M-405.985,1217.006c-.247-1.254-.666-1.617-1.916-1.625-1.361-.009-2.721,0-4.091,0-.067-.36.249-.37.413-.467q16.721-9.891,33.452-19.764c.145-.085.3-.147.456-.219a5.678,5.678,0,0,1,1.656,2.935c2.017,5.655,2.465,11.537,2.421,17.482-.748.011-1.5-.011-2.242.042-.62.045-.73-.242-.724-.78.023-1.836.013-3.673.007-5.51,0-1.122.008-2.246-.042-3.366a1.492,1.492,0,0,0-1.528-1.561,1.523,1.523,0,0,0-1.509,1.5,6.446,6.446,0,0,0-.017.815c0,2.619-.039,5.239.021,7.857.02.871-.247,1.057-1.08,1.052-6.36-.036-12.721-.02-19.081-.019-1.474,0-1.764.215-2.191,1.591Z" transform="translate(428.745 -1113.813)" fill="#ce6a70"/>
      <path id="Trazado_642972" data-name="Trazado 642972" d="M-387.482,1224.08c.427-1.377.717-1.591,2.191-1.591,6.36,0,12.721-.017,19.081.019.832,0,1.1-.182,1.08-1.052-.06-2.618-.022-5.238-.021-7.857a6.446,6.446,0,0,1,.017-.815,1.523,1.523,0,0,1,1.509-1.5,1.492,1.492,0,0,1,1.528,1.561c.05,1.12.038,2.244.042,3.366.006,1.837.016,3.674-.007,5.51-.007.538.1.825.724.78.744-.054,1.494-.031,2.242-.042.849.011,1.7.03,2.545.031,1.291,0,1.385-.088,1.347-1.414a87.052,87.052,0,0,0-.988-11.449c-.173-1.071-.282-2.139,1-2.671,1.327.071,1.783.443,1.977,1.7a93.646,93.646,0,0,1,1.086,12.987,3.7,3.7,0,0,1-3.9,3.905c-9.823.011-19.645,0-29.468.018A1.816,1.816,0,0,1-387.482,1224.08Z" transform="translate(414.248 -1120.922)" fill="#020202"/>
      <path id="Trazado_642973" data-name="Trazado 642973" d="M-320.026,1196.87c-1.287.532-1.178,1.6-1,2.671a87.054,87.054,0,0,1,.988,11.449c.038,1.326-.056,1.414-1.347,1.414-.849,0-1.7-.02-2.545-.031.044-5.946-.4-11.828-2.421-17.482a5.678,5.678,0,0,0-1.656-2.935c1.041-.629,2.094-1.239,3.117-1.9.472-.3.752-.146.992.258a13.777,13.777,0,0,1,.791,1.417,1.725,1.725,0,0,0,2.175,1.172C-320.685,1194.24-320.018,1195.478-320.026,1196.87Z" transform="translate(379.086 -1110.84)" fill="#c53f42"/>
      <path id="Trazado_642974" data-name="Trazado 642974" d="M-384.547,1057.654c-.1,2.478.234,5.477-.383,8.446a16.562,16.562,0,0,1-17.19,12.965,16.38,16.38,0,0,1-15.294-14.434,96.724,96.724,0,0,1-.048-14.678c.153-2.735,1.806-4.692,3.963-6.244a44.363,44.363,0,0,1,6.918-3.672,27.072,27.072,0,0,0,5.046-2.851c.26-.2.477-.349.8-.1,2.8,2.166,6.168,3.271,9.248,4.913a17.248,17.248,0,0,1,4.637,3.282,8.512,8.512,0,0,1,2.3,5.94C-384.529,1053.2-384.547,1055.173-384.547,1057.654Zm-10.593-11.283a2.351,2.351,0,0,0-.775-1.816c-1.123-1.134-2.237-2.278-3.389-3.382a2.35,2.35,0,0,0-3.534,0c-1.153,1.1-2.281,2.234-3.388,3.383a2.346,2.346,0,0,0,.039,3.6q1.631,1.682,3.313,3.314a2.342,2.342,0,0,0,3.595.006c1.148-1.108,2.264-2.249,3.388-3.383A2.308,2.308,0,0,0-395.141,1046.37ZM-401.1,1069.2a8.106,8.106,0,0,0,4.336-1.284,1.557,1.557,0,0,0,.625-2.186,1.472,1.472,0,0,0-2.131-.472,5.108,5.108,0,0,1-5.587.02,1.505,1.505,0,0,0-2.2.5,1.553,1.553,0,0,0,.628,2.107A8.033,8.033,0,0,0-401.1,1069.2Zm-6.3-11.7c-.005-1.14-.614-1.862-1.556-1.843s-1.518.755-1.512,1.9c.007,1.124.637,1.866,1.567,1.846S-407.395,1058.654-407.4,1057.5Zm12.647.041c0,1.14.61,1.875,1.539,1.865s1.531-.756,1.528-1.891-.618-1.867-1.554-1.857S-394.755,1056.386-394.753,1057.541Z" transform="translate(432.126 -1020.411)" fill="#eca791"/>
      <path id="Trazado_642975" data-name="Trazado 642975" d="M-437.353,1199.361c-2.03-1.567-3.854-2.981-5.685-4.384a.717.717,0,0,1-.314-.78,34.468,34.468,0,0,1,2.179-8.356,5.977,5.977,0,0,1,2.773-3.007c2.087-1.081,4.292-1.874,6.464-2.749.9-.362.647.5.727.8a10.139,10.139,0,0,0,7.268,7.563,6.636,6.636,0,0,0,2.2.336c-.107.387-.405.446-.623.575-3.742,2.217-7.493,4.42-11.233,6.639-.438.26-.736.473-1.135-.126a1.282,1.282,0,0,0-1.643-.426,1.452,1.452,0,0,0-.978,1.415C-437.363,1197.6-437.353,1198.346-437.353,1199.361Z" transform="translate(447.292 -1104.984)" fill="#8accb3"/>
      <path id="Trazado_642976" data-name="Trazado 642976" d="M-385.7,1165q-4.329,2.579-8.66,5.156a.989.989,0,0,1-.464.183,35.014,35.014,0,0,1-6.309-.14,7.278,7.278,0,0,1-5.778-6.462c-.053-.493.232-.581.527-.715a19.851,19.851,0,0,0,3.447-1.96,5.355,5.355,0,0,0,2.492-4.943c-.049-.708.017-1.425.031-2.138a.633.633,0,0,1,.2.007,22.709,22.709,0,0,0,7.085,1.635c.506.025.476.39.477.733,0,.884.039,1.77-.008,2.652a2.9,2.9,0,0,0,1.041,2.434,15.519,15.519,0,0,0,4.232,2.582C-386.8,1164.281-386.068,1164.343-385.7,1165Z" transform="translate(425.741 -1089.6)" fill="#eca791"/>
      <path id="Trazado_642977" data-name="Trazado 642977" d="M-385.548,1186.467q-6.693,3.986-13.388,7.97-10.652,6.308-21.316,12.6c-.256.151-.52.288-.922.51,0-1.624.009-3.106,0-4.589-.005-.546.442-.635.773-.831q11.18-6.615,22.369-13.218c2.572-1.517,5.158-3.012,7.737-4.518A16.126,16.126,0,0,1-385.548,1186.467Z" transform="translate(434.172 -1107.58)" fill="#e4bd76"/>
      <path id="Trazado_642978" data-name="Trazado 642978" d="M-376.357,1159.977c-.364-.66-1.1-.722-1.683-.977a15.516,15.516,0,0,1-4.232-2.582,2.9,2.9,0,0,1-1.041-2.434c.047-.882.011-1.768.008-2.652,0-.343.029-.708-.477-.733a22.716,22.716,0,0,1-7.085-1.635.629.629,0,0,0-.2-.007c-.013-.952-.025-1.9-.04-2.855-.006-.375-.018-.656.545-.5a19.835,19.835,0,0,0,10.986-.125c0,1.873.088,3.671-.022,5.457a5.681,5.681,0,0,0,2.81,5.3,39.955,39.955,0,0,0,3.509,1.984Z" transform="translate(416.394 -1084.574)" fill="#d39483"/>
      <path id="Trazado_642979" data-name="Trazado 642979" d="M-342.015,1037.133c.815-.482.425-1.355.537-2a29.293,29.293,0,0,0,.444-5.24,26.583,26.583,0,0,0-1.641-9.335,23.9,23.9,0,0,0-5.436-8.375,30.561,30.561,0,0,0-2.572-2.138c-.165-.133-.321-.246-.335-.474a20.754,20.754,0,0,1,9.153,7.071,20.649,20.649,0,0,1,4.178,11.823,52.922,52.922,0,0,1-.875,9.912c-.01.068,0,.161-.036.2-.894.841-1.98.278-2.972.365-.729.064-.4-.606-.443-.991.2-.133.194-.264,0-.395Z" transform="translate(392.689 -1004.216)" fill="#524e54"/>
      <path id="Trazado_642980" data-name="Trazado 642980" d="M-445.087,1224.678c2.12,1.635,4.074,3.157,6.048,4.653.434.329.391.747.394,1.187.016,2.452.017,2.452-2.385,2.452-1.19,0-2.381-.008-3.572,0-.627.005-.949-.251-.939-.909C-445.506,1229.652-445.37,1227.247-445.087,1224.678Z" transform="translate(448.576 -1131.402)" fill="#e9a58f"/>
      <path id="Trazado_642981" data-name="Trazado 642981" d="M-427.814,1112.926c.986-.3,1.28.246,1.566,1.055a19.325,19.325,0,0,0,8.748,10.477,1.832,1.832,0,0,1,.853,2.1c-.1.326-.345.288-.563.3-3.875.3-7.6-2.626-7.108-6.487a3.824,3.824,0,0,0-2.141-4.043,5.315,5.315,0,0,1-2.163-1.8c-.274-.467-.675-1.014-.41-1.5C-428.84,1112.677-428.216,1112.968-427.814,1112.926Z" transform="translate(438.867 -1065.278)" fill="#ecdb75"/>
      <path id="Trazado_642982" data-name="Trazado 642982" d="M-344.378,1112.86c1.545,0,1.669.225.984,1.466a4.35,4.35,0,0,1-1.917,1.767,4.22,4.22,0,0,0-2.486,4.559c.273,3.009-2.2,5.688-5.489,6.111a4.815,4.815,0,0,1-.811.066c-.47-.02-1.2.255-1.312-.329-.14-.713-.3-1.489.711-2.055a18.857,18.857,0,0,0,8.8-10.413C-345.584,1113.149-345.271,1112.545-344.378,1112.86Z" transform="translate(395.347 -1065.239)" fill="#ecdb75"/>
      <path id="Trazado_642983" data-name="Trazado 642983" d="M-327.268,1095.711c-1.883,0-1.871,0-1.84-1.806.024-1.392.033-2.785.006-4.177-.01-.533.076-.813.7-.77.811.055,1.63-.009,2.444.025a3.321,3.321,0,0,1,3.261,3.355,3.337,3.337,0,0,1-3.25,3.369C-326.384,1095.728-326.826,1095.71-327.268,1095.711Z" transform="translate(379.738 -1051.154)" fill="#eba790"/>
      <path id="Trazado_642984" data-name="Trazado 642984" d="M-434.246,1091.884c.053,1.016.078,2.035.17,3.048.041.447-.059.61-.519.6-.984-.026-1.974.044-2.954-.031a3.3,3.3,0,0,1-3.046-3.449,3.292,3.292,0,0,1,3.154-3.244c1.042-.046,2.381-.439,3.052.15C-433.751,1089.515-434.291,1090.877-434.246,1091.884Z" transform="translate(445.653 -1050.966)" fill="#eba790"/>
      <path id="Trazado_642985" data-name="Trazado 642985" d="M-340.883,1184.093a16.12,16.12,0,0,0-4.752-2.08c.808-.495,1.62-.983,2.422-1.487a.8.8,0,0,1,.772-.094c1.509.6,3.017,1.208,4.705,1.884Z" transform="translate(389.506 -1105.206)" fill="#d9a247"/>
      <path id="Trazado_642986" data-name="Trazado 642986" d="M-328.991,1078.03c.2.13.2.262,0,.395Q-328.99,1078.227-328.991,1078.03Z" transform="translate(379.665 -1044.696)" fill="#635d65"/>
      <path id="Trazado_642987" data-name="Trazado 642987" d="M-379.706,1051.308a2.312,2.312,0,0,1-.752,1.722c-1.124,1.134-2.241,2.275-3.388,3.383a2.342,2.342,0,0,1-3.595-.006q-1.683-1.63-3.313-3.314a2.346,2.346,0,0,1-.039-3.6c1.107-1.149,2.234-2.281,3.388-3.383a2.35,2.35,0,0,1,3.534,0c1.152,1.1,2.266,2.248,3.389,3.382A2.355,2.355,0,0,1-379.706,1051.308Zm-5.716-2.6a3.672,3.672,0,0,0-1.305,1.062c-1.528,1.5-1.522,1.51,0,3.032,1.087,1.088,1.087,1.088,2.172,0,1.521-1.523,1.515-1.518.009-3.045C-384.878,1049.42-385.154,1049.03-385.422,1048.705Z" transform="translate(416.692 -1025.349)" fill="#050403"/>
      <path id="Trazado_642988" data-name="Trazado 642988" d="M-384.508,1109.769a8.033,8.033,0,0,1-4.328-1.31,1.553,1.553,0,0,1-.628-2.107,1.505,1.505,0,0,1,2.2-.5,5.108,5.108,0,0,0,5.587-.02,1.471,1.471,0,0,1,2.131.472,1.557,1.557,0,0,1-.625,2.186A8.1,8.1,0,0,1-384.508,1109.769Z" transform="translate(415.538 -1060.974)" fill="#050403"/>
      <path id="Trazado_642989" data-name="Trazado 642989" d="M-396.911,1084.551c.006,1.154-.569,1.883-1.5,1.9s-1.56-.722-1.567-1.846c-.007-1.144.58-1.881,1.512-1.9S-396.916,1083.411-396.911,1084.551Z" transform="translate(421.637 -1047.461)" fill="#050403"/>
      <path id="Trazado_642990" data-name="Trazado 642990" d="M-361.532,1084.593c0-1.155.574-1.873,1.514-1.883s1.551.726,1.554,1.857-.6,1.881-1.528,1.891S-361.529,1085.733-361.532,1084.593Z" transform="translate(398.905 -1047.463)" fill="#050403"/>
      <path id="Trazado_642991" data-name="Trazado 642991" d="M-380.007,1053.619c.269.325.545.715.876,1.05,1.506,1.527,1.512,1.521-.009,3.045-1.084,1.086-1.084,1.086-2.172,0-1.523-1.522-1.529-1.529,0-3.032A3.674,3.674,0,0,1-380.007,1053.619Z" transform="translate(411.276 -1030.262)" fill="#ecdb75"/>
    </g>
  </g>
</svg>
