<svg xmlns="http://www.w3.org/2000/svg" width="111.679" height="111.679" viewBox="0 0 111.679 111.679">
  <g id="Grupo_985934" data-name="Grupo 985934" transform="translate(3562.15 10337.84)">
    <g id="Grupo_985929" data-name="Grupo 985929" transform="translate(-3997.15 -14678.84)">
      <circle id="Elipse_7706" data-name="Elipse 7706" cx="55.839" cy="55.839" r="55.839" transform="translate(435 4341)" fill="#006475"/>
    </g>
    <g id="Grupo_985925" data-name="Grupo 985925" transform="translate(-3553.604 -10329.293)">
      <path id="Trazado_643075" data-name="Trazado 643075" d="M-704.315,748.8c.683.023,1.6-.213,1.992.136.474.417.065,1.36.172,2.062.129.849-.214,1.016-1.011.995-2.2-.059-4.4-.037-6.6-.013a1.74,1.74,0,0,1-1.856-1.284c-.329-.958-.7-1.9-1.023-2.862a.742.742,0,0,0-.823-.6q-12.358.029-24.715,0a.683.683,0,0,0-.771.541c-.326.96-.7,1.9-1.022,2.865a1.777,1.777,0,0,1-1.914,1.342c-2.363-.027-4.726,0-7.089-.01-1.735,0-2.393-.927-1.807-2.542q2.574-7.093,5.159-14.182c.054-.15.1-.3.186-.557-.368-.02-.673-.05-.978-.05q-6.007,0-12.013,0c-1.532,0-2.044-.525-2.046-2.082q-.006-2.707,0-5.416c.006-1.408.558-2.022,1.97-1.931,1,.065,1.207-.238,1.2-1.213q-.052-22.992-.024-45.983c0-1.641,0-1.641,1.563-1.711,1.589.073,1.589.073,1.589,1.717q0,23.093-.014,46.187c0,.72.11,1.041.94,1,1.506-.076,3.02-.06,4.528,0,.7.026.872-.19.865-.874-.036-3.348-.03-6.7-.012-10.045a7.745,7.745,0,0,1,5.354-7.372,1.143,1.143,0,0,0,.964-1.346c-.03-7.419-.052-14.838-.008-22.256a13.357,13.357,0,0,1,13.213-13.279,13.372,13.372,0,0,1,13.562,13.428q.032,11.325-.012,22.651a1.333,1.333,0,0,0,.814,1.451,6.808,6.808,0,0,1,2.353,2.055c.315.4.29.641-.172.906-.68.391-1.322.849-1.98,1.279-.408-.086-.465-.63-.894-.7-.038.06-.09.107-.1.16-.477,3.862-2.927,6.041-6.806,6.043-4.332,0-8.668-.116-13,.036a6.478,6.478,0,0,1-6.99-6.67c.02-.806-.311-.711-.8-.4a4.54,4.54,0,0,0-2.338,3.873c-.056,3.445-.006,6.892-.029,10.337,0,.574.2.7.739.717,2.423.062,2.423.079,2.423-2.37,0-2.523,0-2.5,2.509-2.384.537.026.664.22.651.7-.027.918-.015,1.838-.006,2.757.015,1.447-.175,1.276,1.233,1.278q7.237.011,14.473,0c1.579,0,1.579,0,1.659,1.573-.08,1.579-.08,1.579-1.661,1.579h-32.592c-2.031,0-1.989,0-2.045,2.074-.023.849.182,1.1,1.074,1.1,11.192-.034,22.385-.022,33.577-.022,1.581,0,1.581,0,1.638,1.594a1.608,1.608,0,0,0-.018.392c.209,1.022-.251,1.206-1.2,1.19-3.708-.059-7.418-.028-11.127-.016-.318,0-.72-.182-.891.349-.3.919-.648,1.819-1,2.794h15.773c1.567,0,1.567,0,1.612,1.555-.046,1.6-.046,1.6-1.639,1.6h-14.547c-2.4,0-2.377.007-3.206,2.3-.247.685-.07.864.618.862q11.352-.034,22.7-.036c.558.01,1.115.024,1.673.028,1.355.008,1.735.26,2.2,1.508.32.86.648,1.718.921,2.594a.8.8,0,0,0,.927.637C-706.941,748.793-705.628,748.807-704.315,748.8Zm-38.8-11.009c-1.277,3.461-2.546,6.926-3.839,10.381-.229.61.057.661.534.652a14.293,14.293,0,0,1,2.255.016c1.185.167,1.695-.311,2.061-1.431,1.056-3.226,2.247-6.408,3.386-9.607.318-.821.62-1.65.961-2.462.212-.506.121-.718-.462-.706-1.081.023-2.162.014-3.243,0-.361,0-.611.063-.737.467C-742.483,736.007-742.811,736.9-743.119,737.79Zm14.856-23.64h6.4c2.852,0,3.974-1.158,3.961-4.009a.905.905,0,0,0-.679-.986,11.458,11.458,0,0,1-6.992-8.523c-.122-.557-.314-.673-.821-.668-1.705.015-3.412.017-5.116-.041-.516-.018-.6.146-.59.591q.03,1.672-.005,3.346a4.646,4.646,0,0,1-3.276,4.43c-.465.153-.947.255-1.423.374-1.612.4-1.612.4-1.6,2.069a3.184,3.184,0,0,0,3.452,3.414C-732.725,714.156-730.494,714.15-728.263,714.15Zm-3.376-34.67h-4.037c-2.2,0-2.218,0-2.55,2.163a46.948,46.948,0,0,0-.16,7.47,7.762,7.762,0,0,0,6.4,7.541,42.979,42.979,0,0,0,5.4.175c.666.04.807-.193.8-.818-.034-2.593-.026-5.187-.006-7.78.005-.615.03-.985-.84-.912a2.248,2.248,0,0,1-2.315-2.094c-.111-1.183.7-2.527,1.858-2.49,1.5.049,1.345-.765,1.291-1.7a4.606,4.606,0,0,1,0-.885c.081-.593-.2-.694-.724-.685C-728.225,679.5-729.932,679.48-731.639,679.48Zm-3.891-3.152c3.759,0,7.235,0,10.711,0,1.691,0,2.17.474,2.171,2.149,0,6.658-.029,13.316.015,19.974a8.236,8.236,0,0,0,3.831,7.04c.23.157.48.463.773.279.229-.143.1-.485.1-.736.005-7.183.025-14.365,0-21.549a10.216,10.216,0,0,0-12.251-10.1A9.955,9.955,0,0,0-735.53,676.328Zm-2.876,20.374c0,2.98.007,5.7-.006,8.413,0,.491.2.663.651.552a9.214,9.214,0,0,0,1.511-.421,1.482,1.482,0,0,0,1-1.438c-.013-1.444,0-2.887,0-4.331,0-.3.015-.581-.324-.751A14.5,14.5,0,0,1-738.407,696.7Z" transform="translate(760.474 -657.408)" fill="#010101"/>
      <path id="Trazado_643076" data-name="Trazado 643076" d="M-706.517,706.922c.658-.43,1.3-.888,1.98-1.279.462-.266.487-.5.172-.906a6.808,6.808,0,0,0-2.353-2.055,1.333,1.333,0,0,1-.814-1.451q.041-11.326.012-22.651a13.372,13.372,0,0,0-13.562-13.428,13.357,13.357,0,0,0-13.213,13.279c-.045,7.418-.023,14.838.007,22.256a1.143,1.143,0,0,1-.964,1.346,7.744,7.744,0,0,0-5.354,7.372c-.018,3.348-.024,6.7.012,10.045.007.685-.164.9-.865.874-1.508-.055-3.022-.071-4.529,0-.83.042-.941-.279-.94-1q.027-23.094.014-46.187c0-1.644,0-1.644-1.589-1.717q0-1.547,0-3.094a2.242,2.242,0,0,1,.49-.023c.9.153,1.17-.2,1.12-1.1-.08-1.44.012-2.889-.036-4.332-.022-.663.129-.89.848-.889q24.376.033,48.751,0c.7,0,.865.2.861.876-.029,4.924-.016,9.849-.016,14.773,0,1.653,0,1.653,1.573,1.735l0,5.042c-.437.344-.863.7-1.312,1.028a1.677,1.677,0,0,1-2.685-.415c-.813-1.068-1.626-2.138-2.417-3.222a1.63,1.63,0,0,0-1.922-.809,1.671,1.671,0,0,0-1.123,1.855c.023,2.227.007,4.455.008,6.683,0,5.916,3.544,9.783,9.454,10.323v3.1c-.452.184-.9.378-1.358.552a27.612,27.612,0,0,0-9.658,6.39A7.033,7.033,0,0,0-706.517,706.922Zm-37.244-29.264v4.133c0,2.295,0,2.268,2.287,2.287.672.006.891-.147.882-.857-.04-3.148-.017-6.3-.017-9.447,0-2.357,0-2.334-2.337-2.335-.623,0-.848.14-.831.806C-743.731,674.049-743.761,675.854-743.761,677.658Zm0-10.98c0,1.624,0,1.624,1.159,1.624,1.993,0,1.993,0,1.993-1.183,0-1.969,0-1.969-1.306-1.969C-743.761,665.151-743.761,665.151-743.761,666.679Z" transform="translate(753.22 -652.535)" fill="#9baf6f"/>
      <path id="Trazado_643077" data-name="Trazado 643077" d="M-599.282,781.072c.1,1.057.866,1.922.854,3.009a1.672,1.672,0,0,1-.458.173c-.813.05-1.025.378-.792,1.2a9.519,9.519,0,0,1,.243,2.34,4.526,4.526,0,0,1-2.874,4.4,4.266,4.266,0,0,1-4.888-.959,6.352,6.352,0,0,0-.905-.753,4.949,4.949,0,0,0-5.311-.275,4.817,4.817,0,0,0-2.593,4.626c.031,1.926,1.235,3.155,2.479,4.405a3.442,3.442,0,0,1-1.626,5.972,27.728,27.728,0,0,1-12.087.554c-5.479-.943-10.338-3.15-14.1-7.356-3.54-3.961-5.012-8.572-3.742-13.83a16.636,16.636,0,0,1,7.369-10.086c7.555-5,15.732-5.792,24.262-3.072a20.88,20.88,0,0,1,11.783,8.839C-600.779,781.678-600.795,781.688-599.282,781.072Zm-26.148,3.038a5.5,5.5,0,0,0,5.522-5.562,5.491,5.491,0,0,0-5.511-5.47,5.487,5.487,0,0,0-5.521,5.561A5.491,5.491,0,0,0-625.431,784.11Zm-5.509,6.307a4.709,4.709,0,0,0-4.728,4.748,4.712,4.712,0,0,0,4.674,4.7,4.716,4.716,0,0,0,4.778-4.7A4.705,4.705,0,0,0-630.939,790.417Zm18.891-4.736a4.714,4.714,0,0,0,4.742-4.731,4.718,4.718,0,0,0-4.757-4.719,4.717,4.717,0,0,0-4.694,4.681A4.72,4.72,0,0,0-612.048,785.681Zm-20.47-1.535a4.721,4.721,0,0,0-4.715-4.759,4.716,4.716,0,0,0-4.734,4.737,4.723,4.723,0,0,0,4.763,4.713A4.723,4.723,0,0,0-632.518,784.146Zm15.756,15.754a3.174,3.174,0,0,0-3.09-3.18,3.171,3.171,0,0,0-3.205,3.165,3.186,3.186,0,0,0,3.141,3.132A3.173,3.173,0,0,0-616.762,799.9Z" transform="translate(690.828 -717.913)" fill="#ebdbc2"/>
      <path id="Trazado_643078" data-name="Trazado 643078" d="M-627.062,685.341c-5.91-.54-9.452-4.406-9.454-10.322,0-2.228.015-4.456-.008-6.683a1.671,1.671,0,0,1,1.123-1.855,1.63,1.63,0,0,1,1.922.809c.792,1.084,1.6,2.153,2.417,3.222a1.677,1.677,0,0,0,2.685.415c.449-.327.875-.685,1.312-1.028.136-.086.275-.17.409-.26,2.453-1.642,4.071-4.105,6.08-6.184q10.305-11.515,20.607-23.034a6.509,6.509,0,0,1,2.854-2.17,4.856,4.856,0,0,1,5.4,1.828,5.162,5.162,0,0,1-.181,6.146c-1.852,2.381-3.759,4.72-5.644,7.076q-9.19,11.485-18.38,22.97a29.936,29.936,0,0,0-2.235,3.58,13.919,13.919,0,0,1-2.608,3.3A10.386,10.386,0,0,1-627.062,685.341Zm33.1-42.184a1.782,1.782,0,0,0-1.211-1.875,1.755,1.755,0,0,0-1.977.727q-4.646,5.206-9.309,10.4c-1.965,2.2-3.912,4.411-5.887,6.6-.331.366-.381.6,0,.967.88.834,1.733,1.7,2.575,2.57.34.353.543.313.844-.066q7.256-9.106,14.536-18.193A1.709,1.709,0,0,0-593.958,643.156Zm-23.775,30.334,5.527-6.9a7.283,7.283,0,0,1,.551-.69c.3-.293.279-.509-.021-.8q-1.447-1.4-2.849-2.851c-.292-.3-.463-.316-.758.018q-3.024,3.427-6.09,6.818c-.216.24-.369.409-.06.712C-620.2,671-618.984,672.236-617.733,673.49Zm-15.627-.666c0,1.131-.013,2.038,0,2.945a6.468,6.468,0,0,0,6.021,6.363c.531.035,1.275.279,1.554-.253.29-.556-.245-1.113-.638-1.53a7.332,7.332,0,0,1-2.22-5.289c0-.24.073-.555-.376-.5A5.164,5.164,0,0,1-633.36,672.824Zm10.691,7.778c1.337-1.228,2-2.823,2.919-4.238.177-.272,0-.41-.158-.571q-1.906-1.91-3.81-3.82c-.158-.158-.315-.384-.57-.162-.614.535-1.651.793-1.231,2a3.419,3.419,0,0,1,.033,1.171,3.56,3.56,0,0,0,.826,2.55A10.248,10.248,0,0,1-622.669,680.6Z" transform="translate(685.371 -638.023)" fill="#030202"/>
      <path id="Trazado_643079" data-name="Trazado 643079" d="M-604.161,776.285c-1.513.616-1.5.606-2.384-.807a20.88,20.88,0,0,0-11.783-8.839c-8.53-2.72-16.707-1.929-24.262,3.072a16.635,16.635,0,0,0-7.369,10.086c-1.27,5.258.2,9.869,3.742,13.83,3.76,4.207,8.62,6.413,14.1,7.357a27.729,27.729,0,0,0,12.087-.555,3.442,3.442,0,0,0,1.626-5.972c-1.244-1.25-2.448-2.479-2.479-4.405a4.817,4.817,0,0,1,2.593-4.626,4.949,4.949,0,0,1,5.311.275,6.346,6.346,0,0,1,.905.753,4.266,4.266,0,0,0,4.888.959,4.526,4.526,0,0,0,2.874-4.4,9.518,9.518,0,0,0-.243-2.34c-.232-.824-.021-1.151.793-1.2a1.676,1.676,0,0,0,.458-.173c1.758-.313,1.742-.311,1.986,1.583a11.671,11.671,0,0,1,.107,3.333,7.616,7.616,0,0,1-5.263,6.3,7.236,7.236,0,0,1-7.728-1.723c-1.086-.993-2.243-1.088-3.033-.252s-.638,1.95.41,3.015c.414.421.84.834,1.216,1.286a6.164,6.164,0,0,1,1.472,3.573,6.578,6.578,0,0,1-5.186,7.114,31.567,31.567,0,0,1-18.85-.9c-.8-.29-1.585-.6-2.378-.9a26.7,26.7,0,0,1-9.848-8.222,32.192,32.192,0,0,1-2.343-4.736,21.828,21.828,0,0,1-.828-6.3,24.039,24.039,0,0,1,.716-4.134,21.515,21.515,0,0,1,4.445-7.852,27.613,27.613,0,0,1,9.658-6.39c.456-.173.906-.367,1.358-.552a46.035,46.035,0,0,1,6.319-1.384,33.132,33.132,0,0,1,10.854.623c6.458,1.55,11.932,4.648,15.82,10.193.282.4.536.824.783,1.249C-602.83,775.585-602.834,775.587-604.161,776.285Z" transform="translate(695.707 -713.126)" fill="#030303"/>
      <path id="Trazado_643080" data-name="Trazado 643080" d="M-697.315,664.841c-1.573-.082-1.573-.082-1.573-1.735,0-4.924-.013-9.849.016-14.773,0-.681-.16-.876-.861-.876q-24.376.031-48.751,0c-.718,0-.87.226-.848.89.048,1.443-.044,2.892.036,4.332.05.9-.223,1.257-1.12,1.1a2.234,2.234,0,0,0-.49.023c-1.564-.071-1.564-.071-1.564-1.709,0-1.9,0-3.8,0-5.707,0-1.546.518-2.066,2.057-2.067,7.905,0,15.811-.02,23.716.025.905.005,1.086-.256,1.035-1.08-.072-1.177-.036-2.361-.012-3.541a1.563,1.563,0,0,1,1.723-1.7q3-.029,6,0a1.566,1.566,0,0,1,1.717,1.709c.024,1.213.052,2.43-.011,3.64-.039.749.153.971.943.968,7.872-.033,15.745-.021,23.617-.02,1.8,0,2.247.454,2.247,2.274,0,3.706-.034,7.414.024,11.119.015.944-.16,1.415-1.187,1.2a1.5,1.5,0,0,0-.391.024,1.637,1.637,0,0,0-.391-.025c-.98.174-1.265-.192-1.234-1.2.081-2.657.027-5.318.027-7.977,0-2.294,0-2.264-2.3-2.284-.7-.006-.872.191-.867.876.03,4.925.016,9.849.016,14.774C-695.736,664.759-695.736,664.759-697.315,664.841Zm-23.6-23.672c-1.811.025-1.6-.217-1.613,1.193-.016,1.958-.005,1.959,1.238,1.959,1.911,0,1.911,0,1.911-1.389C-719.375,641.17-719.375,641.17-720.911,641.17Z" transform="translate(755.625 -638.009)"/>
      <path id="Trazado_643081" data-name="Trazado 643081" d="M-612.516,679.365c1.579-.083,1.579-.083,1.579-1.735,0-4.925.014-9.85-.016-14.774,0-.686.17-.882.867-.876,2.3.02,2.3-.01,2.3,2.284,0,2.659.054,5.32-.027,7.977-.031,1.009.253,1.376,1.233,1.2a1.634,1.634,0,0,1,.391.025,20.172,20.172,0,0,0,.16,4.5c-2.009,2.079-3.628,4.542-6.081,6.184-.134.09-.273.174-.409.26Q-612.517,681.886-612.516,679.365Z" transform="translate(670.826 -652.533)" fill="#91a369"/>
      <path id="Trazado_643082" data-name="Trazado 643082" d="M-647.034,841.979a26.7,26.7,0,0,0,9.848,8.222l1.005,2.787c-1.313.007-2.626-.007-3.938.031a.8.8,0,0,1-.927-.637c-.272-.876-.6-1.734-.921-2.594-.464-1.248-.844-1.5-2.2-1.508-.558,0-1.115-.018-1.673-.028a38.568,38.568,0,0,0-1.777-4.7c.07-.578-.364-1.025-.41-1.574Z" transform="translate(692.34 -761.596)" fill="#7c4f3d"/>
      <path id="Trazado_643083" data-name="Trazado 643083" d="M-606.194,756.425a46.025,46.025,0,0,0-6.319,1.384v-3.1a10.387,10.387,0,0,0,6.3-2.192Q-606.2,754.469-606.194,756.425Z" transform="translate(670.824 -707.389)" fill="#91a369"/>
      <path id="Trazado_643084" data-name="Trazado 643084" d="M-688.961,776.292a21.514,21.514,0,0,0-4.445,7.852,24.034,24.034,0,0,0-.716,4.134l-2.7,0c-.08-1.573-.08-1.573-1.659-1.573q-7.236,0-14.473,0c-1.408,0-1.219.169-1.233-1.278-.009-.919-.021-1.839.006-2.757.014-.485-.113-.679-.651-.7-2.51-.121-2.509-.139-2.509,2.384,0,2.45,0,2.433-2.423,2.37-.538-.014-.743-.143-.739-.717.023-3.446-.027-6.892.029-10.337a4.541,4.541,0,0,1,2.338-3.873c.492-.311.822-.406.8.4a6.478,6.478,0,0,0,6.99,6.67c4.327-.152,8.663-.034,13-.036,3.879,0,6.328-2.181,6.806-6.043.006-.052.059-.1.1-.16.429.067.486.612.894.7A7.034,7.034,0,0,1-688.961,776.292Z" transform="translate(736.256 -718.93)" fill="#496783"/>
      <path id="Trazado_643085" data-name="Trazado 643085" d="M-694.341,760.115c-2.231,0-4.462.006-6.693,0a3.184,3.184,0,0,1-3.452-3.414c-.013-1.667-.013-1.666,1.6-2.069.476-.119.958-.221,1.423-.374a4.646,4.646,0,0,0,3.276-4.43q.034-1.673.005-3.346c-.008-.445.074-.608.59-.591,1.7.058,3.411.055,5.116.041.507,0,.7.111.821.668a11.458,11.458,0,0,0,6.992,8.523.905.905,0,0,1,.679.986c.013,2.851-1.109,4.009-3.961,4.009Z" transform="translate(726.551 -703.374)" fill="#f3c7a6"/>
      <path id="Trazado_643086" data-name="Trazado 643086" d="M-697.787,694c1.707,0,3.414.018,5.121-.011.526-.009.805.093.724.685a4.605,4.605,0,0,0,0,.885c.054.931.211,1.745-1.291,1.7-1.154-.037-1.969,1.307-1.858,2.489a2.248,2.248,0,0,0,2.315,2.094c.87-.073.845.3.84.911-.021,2.593-.028,5.187.005,7.78.008.625-.132.858-.8.818a42.977,42.977,0,0,1-5.4-.175,7.762,7.762,0,0,1-6.4-7.541,46.948,46.948,0,0,1,.16-7.47c.332-2.166.348-2.163,2.55-2.163Zm-.47,5.46a2.382,2.382,0,0,0-2.439-2.307,2.387,2.387,0,0,0-2.282,2.365,2.378,2.378,0,0,0,2.387,2.358A2.39,2.39,0,0,0-698.257,699.458Zm0,5.52a4.462,4.462,0,0,1-.005.685c-.12.756.154,1,.938.961a7.086,7.086,0,0,0,4.179-1.447c.254-.2,1.015-.445.4-.89-.753-.547-.968-1.907-2.3-1.6-.059.013-.105.076-.16.111a3.347,3.347,0,0,1-2.117.64c-.771-.073-1.071.188-.941.954A3.562,3.562,0,0,1-698.253,704.978Z" transform="translate(726.622 -671.926)" fill="#f3c7a6"/>
      <path id="Trazado_643087" data-name="Trazado 643087" d="M-697.18,681.2a9.956,9.956,0,0,1,5.352-2.941,10.216,10.216,0,0,1,12.251,10.1c.028,7.183.008,14.366,0,21.549,0,.251.124.593-.1.736-.293.184-.543-.122-.773-.279a8.236,8.236,0,0,1-3.831-7.04c-.044-6.658-.013-13.316-.015-19.974,0-1.675-.48-2.148-2.171-2.149C-689.945,681.2-693.421,681.2-697.18,681.2Z" transform="translate(722.124 -662.283)" fill="#7c4f3d"/>
      <path id="Trazado_643088" data-name="Trazado 643088" d="M-716.224,813.973l2.7,0a21.828,21.828,0,0,0,.828,6.3l-.287.337c-.16-.389-.5-.335-.818-.332-.811.008-1.622.013-2.434.019-.057-1.594-.057-1.594-1.638-1.594-11.193,0-22.385-.011-33.577.022-.892,0-1.1-.25-1.074-1.1.056-2.073.014-2.074,2.045-2.074h32.592C-716.3,815.552-716.3,815.552-716.224,813.973Z" transform="translate(755.657 -744.627)" fill="#7c4f3d"/>
      <path id="Trazado_643089" data-name="Trazado 643089" d="M-680.272,845.94a38.575,38.575,0,0,1,1.777,4.7q-11.352.014-22.7.036c-.688,0-.866-.178-.618-.862.828-2.29.809-2.3,3.206-2.3h14.547c1.593,0,1.593,0,1.639-1.6Z" transform="translate(724.997 -763.983)" fill="#5d3c2f"/>
      <path id="Trazado_643090" data-name="Trazado 643090" d="M-718.066,841.989c-1.139,3.2-2.33,6.381-3.386,9.607-.366,1.119-.876,1.6-2.061,1.431a14.292,14.292,0,0,0-2.255-.016c-.477.01-.763-.041-.534-.652,1.293-3.455,2.562-6.92,3.839-10.381Z" transform="translate(739.818 -761.595)" fill="#7c4f3d"/>
      <path id="Trazado_643091" data-name="Trazado 643091" d="M-704.489,737.716a14.511,14.511,0,0,0,2.826,2.025c.34.169.324.454.324.751,0,1.444-.01,2.887,0,4.331a1.482,1.482,0,0,1-1,1.438,9.223,9.223,0,0,1-1.511.421c-.455.111-.654-.061-.651-.552C-704.482,743.413-704.489,740.7-704.489,737.716Z" transform="translate(726.556 -698.422)" fill="#754a38"/>
      <path id="Trazado_643092" data-name="Trazado 643092" d="M-712.041,837.135l-4.4-.011c.309-.895.636-1.783.916-2.687.125-.4.376-.471.737-.467,1.081.011,2.162.02,3.243,0,.582-.012.674.2.462.706C-711.421,835.485-711.723,836.314-712.041,837.135Z" transform="translate(733.792 -756.742)" fill="#754a38"/>
      <path id="Trazado_643093" data-name="Trazado 643093" d="M-736.5,692.2c0-1.8.031-3.609-.016-5.412-.017-.666.208-.806.831-.806,2.337,0,2.337-.022,2.337,2.335,0,3.149-.023,6.3.017,9.447.009.709-.21.863-.882.857-2.287-.02-2.287.007-2.287-2.287Z" transform="translate(745.957 -667.075)"/>
      <path id="Trazado_643094" data-name="Trazado 643094" d="M-736.473,671.55c0-1.527,0-1.527,1.846-1.527,1.308,0,1.308,0,1.306,1.969,0,1.185,0,1.185-1.993,1.183C-736.473,673.174-736.473,673.174-736.473,671.55Z" transform="translate(745.932 -657.407)"/>
      <path id="Trazado_643095" data-name="Trazado 643095" d="M-603,789.022a5.491,5.491,0,0,1-5.51-5.472,5.487,5.487,0,0,1,5.521-5.561,5.491,5.491,0,0,1,5.511,5.47A5.5,5.5,0,0,1-603,789.022Zm-2.352-5.568a2.393,2.393,0,0,0,2.334,2.41,2.386,2.386,0,0,0,2.383-2.359,2.4,2.4,0,0,0-2.284-2.36A2.39,2.39,0,0,0-605.351,783.454Z" transform="translate(668.397 -722.825)" fill="#030303"/>
      <path id="Trazado_643096" data-name="Trazado 643096" d="M-615.776,821.987a4.705,4.705,0,0,1,4.723,4.75,4.716,4.716,0,0,1-4.778,4.7,4.712,4.712,0,0,1-4.674-4.7A4.709,4.709,0,0,1-615.776,821.987Zm0,3.167a1.577,1.577,0,0,0-1.553,1.562,1.576,1.576,0,0,0,1.561,1.554,1.582,1.582,0,0,0,1.553-1.562A1.577,1.577,0,0,0-615.78,825.154Z" transform="translate(675.665 -749.483)" fill="#030303"/>
      <path id="Trazado_643097" data-name="Trazado 643097" d="M-567.808,795.441a4.72,4.72,0,0,1-4.708-4.768,4.717,4.717,0,0,1,4.694-4.681,4.718,4.718,0,0,1,4.757,4.719A4.714,4.714,0,0,1-567.808,795.441Zm.055-3.148a1.583,1.583,0,0,0,1.539-1.587,1.587,1.587,0,0,0-1.662-1.563,1.588,1.588,0,0,0-1.49,1.635A1.589,1.589,0,0,0-567.753,792.293Z" transform="translate(646.589 -727.673)" fill="#030202"/>
      <path id="Trazado_643098" data-name="Trazado 643098" d="M-627.04,798.758a4.723,4.723,0,0,1-4.686,4.69,4.723,4.723,0,0,1-4.763-4.713A4.716,4.716,0,0,1-631.755,794,4.721,4.721,0,0,1-627.04,798.758Zm-4.734,1.537a1.592,1.592,0,0,0,1.581-1.545,1.587,1.587,0,0,0-1.618-1.605,1.592,1.592,0,0,0-1.531,1.594A1.586,1.586,0,0,0-631.774,800.294Z" transform="translate(685.35 -732.524)" fill="#030202"/>
      <path id="Trazado_643099" data-name="Trazado 643099" d="M-582.211,841.161a3.173,3.173,0,0,1-3.155,3.117,3.186,3.186,0,0,1-3.141-3.132,3.171,3.171,0,0,1,3.205-3.165A3.174,3.174,0,0,1-582.211,841.161Z" transform="translate(656.277 -759.173)" fill="#030303"/>
      <path id="Trazado_643100" data-name="Trazado 643100" d="M-557.19,648.007a1.71,1.71,0,0,1-.428,1.129q-7.272,9.093-14.536,18.193c-.3.378-.5.419-.845.066-.843-.872-1.7-1.736-2.575-2.57-.381-.362-.331-.6,0-.967,1.975-2.189,3.922-4.4,5.887-6.6q4.651-5.2,9.309-10.4a1.755,1.755,0,0,1,1.977-.727A1.782,1.782,0,0,1-557.19,648.007Z" transform="translate(648.604 -642.874)" fill="#7c4f3d"/>
      <path id="Trazado_643101" data-name="Trazado 643101" d="M-594.8,710.365c-1.251-1.254-2.465-2.486-3.7-3.7-.309-.3-.156-.472.06-.712q3.057-3.4,6.09-6.818c.3-.335.466-.319.758-.018q1.4,1.446,2.848,2.85c.3.291.321.507.021.8a7.325,7.325,0,0,0-.55.69Z" transform="translate(662.439 -674.898)" fill="#f0b34e"/>
      <path id="Trazado_643102" data-name="Trazado 643102" d="M-628.5,726.315a5.164,5.164,0,0,0,4.342,1.734c.449-.052.38.264.376.5a7.331,7.331,0,0,0,2.22,5.289c.393.417.928.974.638,1.53-.278.532-1.023.288-1.554.253a6.468,6.468,0,0,1-6.021-6.363C-628.517,728.353-628.5,727.446-628.5,726.315Z" transform="translate(680.515 -691.514)" fill="#7c4f3d"/>
      <path id="Trazado_643103" data-name="Trazado 643103" d="M-605.9,732.393a10.247,10.247,0,0,0-1.99-3.068,3.56,3.56,0,0,1-.826-2.55,3.419,3.419,0,0,0-.033-1.171c-.42-1.21.616-1.467,1.231-2,.255-.222.412,0,.57.162q1.906,1.909,3.81,3.82c.161.161.334.3.158.571C-603.9,729.57-604.561,731.164-605.9,732.393Z" transform="translate(668.601 -689.814)" fill="#ebdbc2"/>
      <path id="Trazado_643104" data-name="Trazado 643104" d="M-650.546,834.7a40.568,40.568,0,0,1-1.641-4.4l.287-.337a32.186,32.186,0,0,0,2.343,4.736Z" transform="translate(694.862 -754.314)" fill="#754a38"/>
      <path id="Trazado_643105" data-name="Trazado 643105" d="M-674.872,646.026c1.536,0,1.536,0,1.536,1.764,0,1.39,0,1.39-1.911,1.389-1.243,0-1.254,0-1.238-1.959C-676.474,645.809-676.684,646.051-674.872,646.026Z" transform="translate(709.586 -642.866)" fill="#7c4f3d"/>
      <path id="Trazado_643106" data-name="Trazado 643106" d="M-695.756,704.321a2.39,2.39,0,0,1-2.333,2.415,2.378,2.378,0,0,1-2.387-2.357,2.387,2.387,0,0,1,2.282-2.365A2.382,2.382,0,0,1-695.756,704.321Z" transform="translate(724.121 -676.789)" fill="#030303"/>
      <path id="Trazado_643107" data-name="Trazado 643107" d="M-688.541,718.284a3.568,3.568,0,0,0,0-.587c-.13-.766.17-1.027.941-.954a3.346,3.346,0,0,0,2.117-.64c.055-.035.1-.1.16-.111,1.332-.305,1.547,1.054,2.3,1.6.612.445-.148.688-.4.89a7.086,7.086,0,0,1-4.179,1.447c-.784.041-1.058-.2-.938-.961A4.47,4.47,0,0,0-688.541,718.284Z" transform="translate(716.91 -685.233)" fill="#030303"/>
      <path id="Trazado_643108" data-name="Trazado 643108" d="M-600.5,788.3A2.39,2.39,0,0,1-598.064,786a2.4,2.4,0,0,1,2.285,2.36,2.386,2.386,0,0,1-2.383,2.359A2.393,2.393,0,0,1-600.5,788.3Z" transform="translate(663.543 -727.674)" fill="#ca5c48"/>
      <path id="Trazado_643109" data-name="Trazado 643109" d="M-610.906,830.023a1.577,1.577,0,0,1,1.561,1.553,1.582,1.582,0,0,1-1.553,1.562,1.576,1.576,0,0,1-1.561-1.554A1.577,1.577,0,0,1-610.906,830.023Z" transform="translate(670.79 -754.352)" fill="#63acd4"/>
      <path id="Trazado_643110" data-name="Trazado 643110" d="M-562.913,797.137a1.589,1.589,0,0,1-1.613-1.514,1.588,1.588,0,0,1,1.49-1.635,1.587,1.587,0,0,1,1.662,1.563A1.583,1.583,0,0,1-562.913,797.137Z" transform="translate(641.748 -732.516)" fill="#91a369"/>
      <path id="Trazado_643111" data-name="Trazado 643111" d="M-626.935,805.131a1.586,1.586,0,0,1-1.568-1.556,1.592,1.592,0,0,1,1.531-1.594,1.587,1.587,0,0,1,1.618,1.605A1.592,1.592,0,0,1-626.935,805.131Z" transform="translate(680.512 -737.361)" fill="#63acd4"/>
    </g>
  </g>
</svg>
