<svg xmlns="http://www.w3.org/2000/svg" width="72.013" height="66" viewBox="0 0 72.013 66">
  <g id="Grupo_988046" data-name="Grupo 988046" transform="translate(-553.038 -45.738)">
    <path id="Trazado_646056" data-name="Trazado 646056" d="M579.19,149.62c.329.9.212,1.257-.6,1.745-1.184.709-2.367,1.421-3.562,2.11a2.551,2.551,0,0,1-3.73-.976c-.742-1.219-1.469-2.448-2.207-3.669a2.523,2.523,0,0,1-.023-2.9c.224-.333.048-.5-.1-.732a26.777,26.777,0,0,0-4.655-5.148c-1.495-1.387-3.1-2.663-4.468-4.177a17.171,17.171,0,0,1-3.863-8.659c-1.122-5.938-1.955-11.921-2.9-17.885-.4-2.543,2.452-4.621,4.956-3.623a.71.71,0,0,0,.981-.2,2.951,2.951,0,0,1,3.134-.9,3.069,3.069,0,0,1,2.275,2.353c.237.974.388,1.969.579,2.964,2.439-.949,4.345.148,4.787,2.694.264,1.522.578,3.035.827,4.559.074.454.233.429.591.317a2.96,2.96,0,0,1,3.927,2.237c.657,3.209,1.238,6.435,1.816,9.66a1.816,1.816,0,0,0,.833,1.359,9.687,9.687,0,0,1,4.331,6.543c.086.4.2.522.635.477a2.389,2.389,0,0,1,2.414,1.245c.788,1.3,1.58,2.6,2.342,3.915a2.52,2.52,0,0,1-.876,3.6c-1.123.72-2.266,1.408-3.4,2.1a1.176,1.176,0,0,1-1.747-.151c-.254-.867-.147-1.161.6-1.636l1.762-1.128,1.571-.922a.551.551,0,0,0,.225-.875q-1.113-1.83-2.2-3.675c-.223-.378-.488-.474-.866-.234-.512.324-1.028.643-1.542.964q-4.964,2.952-9.929,5.9c-.406.241-.388.517-.171.875.7,1.157,1.419,2.307,2.078,3.488.324.58.647.608,1.174.278,1.087-.682,2.215-1.3,3.3-1.982A1.268,1.268,0,0,1,579.19,149.62ZM572.851,126.6l1.7,1.478c-.5-2.7-.952-5.195-1.425-7.687-.1-.507-.313-.944-.956-.9-.742.1-1.015.439-.888,1.169.3,1.7.616,3.394.913,5.094A1.108,1.108,0,0,0,572.851,126.6Zm-4.505-3.791a5.96,5.96,0,0,0,1.284,1.043.862.862,0,0,0,.02-.189q-1.006-5.523-2.021-11.045a.8.8,0,0,0-.336-.593.922.922,0,0,0-1.254-.208.91.91,0,0,0-.5,1.056c.037.183.062.367.1.551.443,2.406.931,4.805,1.307,7.221A2.726,2.726,0,0,0,568.346,122.813Zm-6.724-16.1c-.946-.19-1.5.37-1.318,1.352q1.13,6.125,2.269,12.249c.163.876.167.875,1.031.562l1.213-.153q-1.213-6.575-2.428-13.128A.936.936,0,0,0,561.622,106.711Zm1.264,17.437a1.578,1.578,0,0,0,.215,1.464,5.422,5.422,0,0,0,1.377,1.58q2.762,2.393,5.53,4.78c.748.646.893,1.262.421,1.791s-1.056.476-1.833-.2c-1.028-.888-2.069-1.762-3.081-2.669a34.456,34.456,0,0,1-3.584-3.259,4.262,4.262,0,0,1-1.063-4.283,1.193,1.193,0,0,0-.017-.621q-1.174-6.349-2.347-12.7a4.1,4.1,0,0,0-.653-1.9,1.394,1.394,0,0,0-1.822-.393,1.25,1.25,0,0,0-.805,1.519c.076.462.138.926.211,1.388.9,5.661,1.7,11.338,2.805,16.966a14.66,14.66,0,0,0,4.8,8.419c2.812,2.5,5.768,4.886,7.8,8.139.16.255.3.209.505.083q3.717-2.254,7.441-4.5L580,139.07c.17-.1.293-.2.24-.439-.464-2.152-1.064-4.22-2.967-5.62-.9-.664-1.779-1.369-2.639-2.089-3-2.506-5.974-5.032-8.968-7.54A1.653,1.653,0,0,0,562.885,124.148Z" transform="translate(0 -42.177)" fill="#040403"/>
    <path id="Trazado_646057" data-name="Trazado 646057" d="M691.291,148.49a1.176,1.176,0,0,1-1.747.151c-1.118-.684-2.237-1.366-3.344-2.067a2.545,2.545,0,0,1-.9-3.7c.746-1.271,1.512-2.531,2.271-3.795a2.454,2.454,0,0,1,2.524-1.3c.365.04.468-.061.549-.41a14.317,14.317,0,0,1,1.136-3.234,9.5,9.5,0,0,1,3.271-3.415,1.7,1.7,0,0,0,.748-1.183c.561-3.133,1.146-6.262,1.721-9.392a3.062,3.062,0,0,1,4.108-2.619c.406.123.463,0,.523-.342.264-1.522.568-3.037.832-4.559.441-2.542,2.353-3.644,4.788-2.7.183-.948.353-1.89.549-2.826a3.08,3.08,0,0,1,2.3-2.487,3.03,3.03,0,0,1,3.237.992c.216.239.343.327.68.175a3.572,3.572,0,0,1,3.833.488,3.319,3.319,0,0,1,1.26,3.481c-.826,5.06-1.47,10.15-2.44,15.186-.485,2.518-.769,5.1-1.95,7.438a15.7,15.7,0,0,1-3.506,4.7c-1.848,1.66-3.656,3.367-5.459,5.077A17.858,17.858,0,0,0,703.8,145.2a.6.6,0,0,0-.053.794,2.448,2.448,0,0,1,0,2.721c-.765,1.288-1.521,2.58-2.3,3.856a2.547,2.547,0,0,1-3.7.911c-1.193-.693-2.376-1.406-3.559-2.116-.82-.492-.935-.836-.606-1.738a1.253,1.253,0,0,1,1.692-.1c.618.4,1.271.734,1.909,1.1q.8.5,1.6,1a.541.541,0,0,0,.874-.2q1.1-1.873,2.229-3.728a.506.506,0,0,0-.2-.812c-.547-.309-1.092-.623-1.637-.935q-4.916-2.963-9.831-5.928c-.431-.261-.673-.1-.9.29-.683,1.17-1.371,2.337-2.092,3.484-.3.486-.245.781.253,1.074,1.087.639,2.154,1.312,3.224,1.98C691.44,147.318,691.545,147.624,691.291,148.49Zm8.6-21.842a1.2,1.2,0,0,0,.676-.828c.309-1.741.641-3.478.942-5.22.113-.653-.2-1-.91-1.094-.677-.034-.869.433-.971.965q-.434,2.265-.845,4.534c-.173.942-.335,1.887-.5,2.83l.153.078Zm5.591-14.611a1.235,1.235,0,0,0-.385.866c-.407,2.2-.821,4.4-1.226,6.6-.265,1.438-.519,2.878-.814,4.519l1.337-1.166c.441-.4,1.115-.611,1.24-1.264.55-2.872,1.058-5.752,1.591-8.628a.965.965,0,0,0-.484-1.134A.921.921,0,0,0,705.477,112.037Zm3.686,8.844c.316-.1.79.75.949-.077q1.242-6.46,2.394-12.937c.144-.8-.515-1.319-1.36-1.147-.672.142-.739.7-.837,1.229q-.828,4.448-1.646,8.9c-.238,1.294-.465,2.591-.7,3.887Zm-9.276,22.412c.474.3.967.566,1.415.9.372.275.532.149.75-.191a23.264,23.264,0,0,1,3.942-4.559c1.4-1.283,2.788-2.576,4.2-3.847a13.4,13.4,0,0,0,4.208-7.436c1.289-6.144,2.117-12.361,3.083-18.557.219-1.405-.375-2.07-1.7-1.987-1.022.218-1.237,1.054-1.4,1.891q-1.061,5.585-2.079,11.178a6.364,6.364,0,0,0-.381,2.613,4.479,4.479,0,0,1-1.284,4.562c-2.145,2.164-4.552,4.044-6.861,6.028a.983.983,0,0,1-1.445-.126,1.068,1.068,0,0,1,.073-1.463,3.958,3.958,0,0,1,.315-.28q2.712-2.344,5.424-4.689a5.533,5.533,0,0,0,1.653-1.974,1.689,1.689,0,0,0-1.312-2.433,1.786,1.786,0,0,0-1.515.572c-3.666,3.066-7.271,6.211-11.036,9.15a9.318,9.318,0,0,0-3.379,5.855.485.485,0,0,0,.271.616C695.187,140.5,697.535,141.9,699.886,143.293Z" transform="translate(-94.651 -42.184)" fill="#040403"/>
    <path id="Trazado_646058" data-name="Trazado 646058" d="M639.2,105.049l-1.869-1.96a1.221,1.221,0,0,0-.273-1.74c-.535-.489-1.04-1.012-1.547-1.531a7.947,7.947,0,0,1-1.518-9.023,5.859,5.859,0,0,1,6.673-3.578,9.013,9.013,0,0,1,4.634,2.476c1.105,1.047,1.542,1.032,2.675-.006.259-.237.514-.481.793-.692a8.011,8.011,0,0,1,4.746-1.85c.059.127.112.257.177.381a9.024,9.024,0,0,1-1.681,10.408c-2.445,2.39-4.84,4.831-7.263,7.244-.629.627-1.277,1.235-1.917,1.852q-.953-.919-1.907-1.837A1.142,1.142,0,0,0,639.2,105.049Z" transform="translate(-57.572 -29.702)" fill="#ee8688"/>
    <path id="Trazado_646059" data-name="Trazado 646059" d="M648.1,81.689a8.011,8.011,0,0,0-4.746,1.85c-.279.211-.534.455-.793.692-1.133,1.038-1.569,1.053-2.675.006a9.013,9.013,0,0,0-4.634-2.476,5.859,5.859,0,0,0-6.673,3.578,7.947,7.947,0,0,0,1.518,9.023c.507.519,1.012,1.042,1.547,1.531a1.221,1.221,0,0,1,.273,1.74c-.816.46-1.124.422-1.792-.234-.535-.526-1.073-1.049-1.6-1.587a10.109,10.109,0,0,1-1.746-11.64,8.094,8.094,0,0,1,10.573-4.031,10.152,10.152,0,0,1,3.353,2c.4.374.644.317,1.03-.016a10.323,10.323,0,0,1,5.6-2.531,7.6,7.6,0,0,1,7.423,3.169,10.01,10.01,0,0,1-.783,12.951c-3.662,3.73-7.408,7.378-11.134,11.044-1.218,1.2-2.07,1.174-3.315-.046-1.841-1.805-3.656-3.638-5.5-5.441a1.185,1.185,0,0,1-.248-1.681,1.142,1.142,0,0,1,1.726.144q.955.917,1.907,1.837c1.171,1.179,2.349,2.351,3.507,3.542.258.266.406.186.619-.034.488-.506.994-.994,1.493-1.489,3.078-3.053,6.168-6.094,9.229-9.163a7.915,7.915,0,0,0,.148-11.139A5.145,5.145,0,0,0,648.1,81.689Z" transform="translate(-52.16 -24.247)" fill="#040303"/>
    <path id="Trazado_646060" data-name="Trazado 646060" d="M696.84,238.686c.254-.865.148-1.172-.6-1.639-1.07-.668-2.137-1.342-3.224-1.98-.5-.293-.558-.588-.253-1.074.721-1.147,1.409-2.314,2.092-3.484.228-.39.469-.551.9-.29q4.912,2.969,9.831,5.928a19.34,19.34,0,0,1-1.71,3.039c-.347.566-.528,1.261-1.15,1.638-.638-.363-1.291-.7-1.909-1.1a1.253,1.253,0,0,0-1.692.1,5.789,5.789,0,0,1-1.6-.827A1.886,1.886,0,0,0,696.84,238.686Z" transform="translate(-100.2 -132.381)" fill="#e8e7ea"/>
    <path id="Trazado_646061" data-name="Trazado 646061" d="M624.36,242.6a1.268,1.268,0,0,0-1.713-.083c-1.086.683-2.214,1.3-3.3,1.982-.527.331-.85.3-1.174-.278-.659-1.182-1.375-2.331-2.078-3.488-.217-.358-.235-.634.171-.874q4.968-2.944,9.929-5.9a10.322,10.322,0,0,0,1.413,2.62,8.352,8.352,0,0,0,1.4,2.121l-1.762,1.128c-.743.475-.851.769-.6,1.636a7.19,7.19,0,0,0-1.583.853C624.841,242.428,624.6,242.505,624.36,242.6Z" transform="translate(-45.171 -135.156)" fill="#e8e7ea"/>
    <path id="Trazado_646062" data-name="Trazado 646062" d="M609.4,54.85a1.112,1.112,0,0,1,1.01.5c.737,1,1.49,1.98,2.217,2.984a1.062,1.062,0,1,1-1.677,1.29c-.785-1.018-1.545-2.056-2.305-3.093a.98.98,0,0,1-.088-1.121A.968.968,0,0,1,609.4,54.85Z" transform="translate(-39.768 -6.542)" fill="#050505"/>
    <path id="Trazado_646063" data-name="Trazado 646063" d="M738.324,60a1.018,1.018,0,0,1-.919-1.53c.793-1.182,1.659-2.319,2.552-3.429a.924.924,0,0,1,1.334-.092.913.913,0,0,1,.318,1.3,37.765,37.765,0,0,1-2.588,3.486A.821.821,0,0,1,738.324,60Z" transform="translate(-132.278 -6.446)" fill="#040403"/>
    <path id="Trazado_646064" data-name="Trazado 646064" d="M713.661,48.878c.033.561.088,1.122.093,1.683a1.063,1.063,0,0,1-1.047,1.161,1.048,1.048,0,0,1-1.066-1.068q-.125-1.822-.215-3.647a1.092,1.092,0,0,1,1.014-1.269c.6-.029,1.04.38,1.109,1.1.065.675.078,1.356.115,2.034Z" transform="translate(-113.734)" fill="#060606"/>
    <path id="Trazado_646065" data-name="Trazado 646065" d="M644.179,48.725c-.044.654-.077,1.31-.134,1.963a1.056,1.056,0,1,1-2.11-.074q.065-1.93.22-3.857a1.013,1.013,0,0,1,1.117-1.006,1.065,1.065,0,0,1,.992,1.15c-.01.608-.072,1.215-.111,1.823Z" transform="translate(-63.835 -0.007)" fill="#060606"/>
    <path id="Trazado_646066" data-name="Trazado 646066" d="M591.039,84.85c1.045.251,2.13.51,3.215.773a8.321,8.321,0,0,1,.808.221,1.025,1.025,0,0,1,.728,1.251,1,1,0,0,1-1.22.78c-1.3-.282-2.59-.586-3.87-.934a.974.974,0,0,1-.735-1.191A1.085,1.085,0,0,1,591.039,84.85Z" transform="translate(-26.503 -28.086)" fill="#050505"/>
    <path id="Trazado_646067" data-name="Trazado 646067" d="M756.686,86.068a1.01,1.01,0,0,1-.841.957c-1.218.309-2.44.608-3.667.88a1.029,1.029,0,0,1-1.341-.777,1.018,1.018,0,0,1,.824-1.252c1.236-.332,2.478-.645,3.727-.924A1.065,1.065,0,0,1,756.686,86.068Z" transform="translate(-142.013 -28.138)" fill="#050505"/>
    <path id="Trazado_646068" data-name="Trazado 646068" d="M584.273,147.622q-3.721,2.248-7.441,4.5c-.208.126-.346.172-.505-.083-2.035-3.253-4.991-5.639-7.8-8.139a14.66,14.66,0,0,1-4.8-8.419c-1.108-5.628-1.9-11.305-2.805-16.966-.074-.462-.136-.926-.211-1.388a1.25,1.25,0,0,1,.805-1.519,1.394,1.394,0,0,1,1.822.393,4.1,4.1,0,0,1,.653,1.9q1.181,6.347,2.347,12.7a1.193,1.193,0,0,1,.017.621,4.262,4.262,0,0,0,1.063,4.283A34.454,34.454,0,0,0,571,138.763c1.012.907,2.053,1.781,3.081,2.669.777.672,1.353.734,1.833.2s.327-1.145-.421-1.791q-2.766-2.389-5.53-4.78a5.421,5.421,0,0,1-1.377-1.58.782.782,0,1,1,.9-.945c1.329,1.1,2.627,2.232,3.945,3.344,1.673,1.411,3.372,2.792,5.025,4.226.952.827,1.981,1.55,2.953,2.348A8.85,8.85,0,0,1,584.273,147.622Z" transform="translate(-5.488 -50.043)" fill="#f8e1c3"/>
    <path id="Trazado_646069" data-name="Trazado 646069" d="M603.868,186.687a8.851,8.851,0,0,0-2.859-5.171c-.972-.8-2-1.522-2.953-2.348-1.653-1.434-3.352-2.815-5.025-4.226-1.318-1.112-2.615-2.247-3.945-3.344a1.575,1.575,0,0,0-1.118-.518,1.653,1.653,0,0,1,2.779-.766c2.993,2.508,5.972,5.034,8.968,7.54.86.72,1.735,1.425,2.639,2.089,1.9,1.4,2.5,3.468,2.968,5.62.053.244-.07.343-.24.439Z" transform="translate(-25.083 -89.108)" fill="#e9cda8"/>
    <path id="Trazado_646070" data-name="Trazado 646070" d="M582.765,112.411a.936.936,0,0,1,.767.881q1.224,6.557,2.428,13.128l-1.213.153c-.048-.251-.1-.5-.145-.752-.6-3.378-1.22-6.752-1.79-10.135C582.63,114.607,582.2,113.51,582.765,112.411Z" transform="translate(-21.143 -47.877)" fill="#e7cca6"/>
    <path id="Trazado_646071" data-name="Trazado 646071" d="M580.041,112.317c-.569,1.1-.135,2.2.047,3.276.571,3.383,1.189,6.757,1.79,10.135.045.251.1.5.145.752-.865.313-.869.313-1.031-.562q-1.137-6.124-2.269-12.249C578.542,112.688,579.1,112.127,580.041,112.317Z" transform="translate(-18.419 -47.783)" fill="#dabc95"/>
    <path id="Trazado_646072" data-name="Trazado 646072" d="M655.121,235.907a8.352,8.352,0,0,1-1.4-2.121,10.321,10.321,0,0,1-1.413-2.62c.514-.321,1.03-.639,1.542-.964.379-.24.643-.144.866.234q1.088,1.845,2.2,3.675a.551.551,0,0,1-.225.875Z" transform="translate(-71.283 -132.366)" fill="#d7d5d8"/>
    <path id="Trazado_646073" data-name="Trazado 646073" d="M601.965,131.274a.8.8,0,0,1,.336.593q1.02,5.521,2.021,11.045a.862.862,0,0,1-.02.189,5.96,5.96,0,0,1-1.284-1.043,10.372,10.372,0,0,0-.339-2.2c-.418-2.379-.9-4.748-1.295-7.131C601.3,132.2,601.188,131.523,601.965,131.274Z" transform="translate(-34.673 -61.422)" fill="#e7cba6"/>
    <path id="Trazado_646074" data-name="Trazado 646074" d="M599.079,130.349c-.778.249-.668.929-.58,1.456.4,2.383.877,4.751,1.295,7.131a10.372,10.372,0,0,1,.339,2.2,2.726,2.726,0,0,1-1.4-2.164c-.377-2.416-.865-4.815-1.307-7.221-.034-.183-.059-.368-.1-.551a.91.91,0,0,1,.5-1.056A.922.922,0,0,1,599.079,130.349Z" transform="translate(-31.787 -60.497)" fill="#dabc95"/>
    <path id="Trazado_646075" data-name="Trazado 646075" d="M620.535,157.762c.643-.048.86.389.956.9.472,2.493.927,4.989,1.424,7.687l-1.7-1.478a31.044,31.044,0,0,0-.46-3.589C620.638,160.11,620.143,158.962,620.535,157.762Z" transform="translate(-48.362 -80.44)" fill="#e7cba6"/>
    <path id="Trazado_646076" data-name="Trazado 646076" d="M618.573,157.771c-.391,1.2.1,2.348.219,3.516a31.057,31.057,0,0,1,.46,3.589,1.108,1.108,0,0,1-.654-.842c-.3-1.7-.617-3.394-.913-5.094C617.557,158.21,617.831,157.872,618.573,157.771Z" transform="translate(-46.4 -80.449)" fill="#dabc95"/>
    <path id="Trazado_646077" data-name="Trazado 646077" d="M719.461,151.268c-2.352-1.4-4.7-2.8-7.059-4.179a.485.485,0,0,1-.271-.616,9.317,9.317,0,0,1,3.379-5.855c3.765-2.939,7.37-6.084,11.036-9.15a1.786,1.786,0,0,1,1.515-.572,1.689,1.689,0,0,1,1.312,2.433,5.533,5.533,0,0,1-1.653,1.974q-2.709,2.347-5.424,4.689a3.964,3.964,0,0,0-.315.28,1.068,1.068,0,0,0-.073,1.463.983.983,0,0,0,1.445.126c2.31-1.984,4.716-3.865,6.861-6.028a4.479,4.479,0,0,0,1.284-4.562,6.364,6.364,0,0,1,.381-2.613q1.01-5.594,2.079-11.178c.159-.836.374-1.673,1.4-1.891-.089.575-.181,1.149-.268,1.724-.357,2.37-.69,4.743-1.075,7.109-.415,2.55-.842,5.1-1.333,7.635a22.948,22.948,0,0,1-1.367,4.98c-1.326,3.009-3.813,5-6.132,7.124a23.693,23.693,0,0,0-4.032,4.545A13.725,13.725,0,0,1,719.461,151.268Z" transform="translate(-114.226 -50.159)" fill="#f8e1c3"/>
    <path id="Trazado_646078" data-name="Trazado 646078" d="M738.187,151.25a13.729,13.729,0,0,0,1.685-2.563,23.694,23.694,0,0,1,4.032-4.545c2.319-2.128,4.806-4.115,6.132-7.124a22.941,22.941,0,0,0,1.367-4.98c.491-2.536.919-5.085,1.333-7.635.385-2.365.718-4.739,1.075-7.109.087-.575.178-1.149.268-1.724,1.329-.083,1.922.581,1.7,1.987-.965,6.2-1.794,12.413-3.083,18.557a13.4,13.4,0,0,1-4.208,7.436c-1.41,1.271-2.8,2.565-4.2,3.847a23.265,23.265,0,0,0-3.942,4.559c-.218.34-.378.466-.75.191C739.154,151.817,738.661,151.547,738.187,151.25Z" transform="translate(-132.952 -50.141)" fill="#e9cea8"/>
    <path id="Trazado_646079" data-name="Trazado 646079" d="M768.042,126.575l-1.2-.148c.232-1.3.459-2.593.7-3.887q.818-4.45,1.646-8.9c.1-.527.166-1.087.837-1.229a3.552,3.552,0,0,1,.275,1.567c-.251,1.392-.51,2.782-.759,4.174Q768.788,122.364,768.042,126.575Z" transform="translate(-153.53 -47.878)" fill="#e7cca6"/>
    <path id="Trazado_646080" data-name="Trazado 646080" d="M771.092,126.491q.749-4.211,1.5-8.421c.249-1.392.508-2.782.759-4.174a3.552,3.552,0,0,0-.275-1.567c.845-.171,1.5.345,1.36,1.147q-1.165,6.475-2.394,12.937C771.882,127.241,771.408,126.4,771.092,126.491Z" transform="translate(-156.581 -47.795)" fill="#dabc95"/>
    <path id="Trazado_646081" data-name="Trazado 646081" d="M728.577,256.247c.621-.377.8-1.072,1.15-1.638a19.339,19.339,0,0,0,1.71-3.039c.546.312,1.09.626,1.637.935a.506.506,0,0,1,.2.812q-1.126,1.858-2.229,3.728a.541.541,0,0,1-.874.2Q729.377,256.743,728.577,256.247Z" transform="translate(-126.051 -147.804)" fill="#d7d5d8"/>
    <path id="Trazado_646082" data-name="Trazado 646082" d="M750.756,142.095l-1.337,1.166c.295-1.64.549-3.081.814-4.519.405-2.2.819-4.4,1.226-6.6a1.235,1.235,0,0,1,.385-.866c.775.248.659.924.578,1.452-.251,1.647-.6,3.28-.894,4.92C751.261,139.129,751.012,140.613,750.756,142.095Z" transform="translate(-141.018 -61.423)" fill="#e7cba6"/>
    <path id="Trazado_646083" data-name="Trazado 646083" d="M754.16,141.167c.257-1.482.505-2.966.772-4.447.3-1.64.643-3.273.894-4.92.08-.528.2-1.2-.578-1.452a.921.921,0,0,1,1.258-.207.965.965,0,0,1,.484,1.134c-.533,2.876-1.041,5.756-1.591,8.628C755.275,140.556,754.6,140.77,754.16,141.167Z" transform="translate(-144.422 -60.495)" fill="#dabc95"/>
    <path id="Trazado_646084" data-name="Trazado 646084" d="M734.088,164.908l-1.456,1.266-.153-.078c.167-.944.329-1.888.5-2.83q.416-2.268.845-4.534c.1-.532.294-1,.971-.965a5.711,5.711,0,0,1,.079,1.721C734.6,161.292,734.191,163.078,734.088,164.908Z" transform="translate(-128.853 -80.444)" fill="#e7cba6"/>
    <path id="Trazado_646085" data-name="Trazado 646085" d="M738.187,164.912c.1-1.83.515-3.616.787-5.422a5.711,5.711,0,0,0-.079-1.721c.708.093,1.022.44.91,1.094-.3,1.742-.633,3.479-.942,5.22A1.2,1.2,0,0,1,738.187,164.912Z" transform="translate(-132.952 -80.448)" fill="#dabc95"/>
    <path id="Trazado_646086" data-name="Trazado 646086" d="M678.015,87.194a5.144,5.144,0,0,1,4.313,1.6,7.915,7.915,0,0,1-.148,11.139c-3.061,3.07-6.151,6.11-9.229,9.163-.5.5-1.006.983-1.493,1.489-.212.22-.36.3-.619.034-1.158-1.192-2.336-2.364-3.506-3.542.639-.617,1.287-1.225,1.916-1.852,2.422-2.413,4.818-4.854,7.263-7.244a9.024,9.024,0,0,0,1.681-10.408C678.128,87.451,678.074,87.321,678.015,87.194Z" transform="translate(-82.073 -29.751)" fill="#d46b70"/>
  </g>
</svg>
